<?xml version="1.0" encoding="UTF-8" standalone="no"?><svg xmlns="http://www.w3.org/2000/svg" xmlns:xlink="http://www.w3.org/1999/xlink" contentStyleType="text/css" height="618px" preserveAspectRatio="none" style="width:1285px;height:618px;background:#FFFFFF;" version="1.1" viewBox="0 0 1285 618" width="1285px" zoomAndPan="magnify"><defs/><g><rect fill="#FFFFFF" height="501.0313" style="stroke:#181818;stroke-width:1.0;" width="10" x="26.5" y="55.1563"/><rect fill="#FFFFFF" height="469.875" style="stroke:#181818;stroke-width:1.0;" width="10" x="200.5" y="86.3125"/><rect fill="#FFFFFF" height="391.5625" style="stroke:#181818;stroke-width:1.0;" width="10" x="375.5" y="125.4688"/><rect fill="#FFFFFF" height="400.5625" style="stroke:#181818;stroke-width:1.0;" width="10" x="613.5" y="164.625"/><rect fill="#FFFFFF" height="39.1563" style="stroke:#181818;stroke-width:1.0;" width="10" x="745.5" y="321.25"/><rect fill="#FFFFFF" height="39.1563" style="stroke:#181818;stroke-width:1.0;" width="10" x="883.5" y="203.7813"/><rect fill="#FFFFFF" height="39.1563" style="stroke:#181818;stroke-width:1.0;" width="10" x="1013.5" y="399.5625"/><line style="stroke:#181818;stroke-width:0.5;stroke-dasharray:5.0,5.0;" x1="31" x2="31" y1="45.1563" y2="574.1875"/><line style="stroke:#181818;stroke-width:0.5;stroke-dasharray:5.0,5.0;" x1="205.5" x2="205.5" y1="45.1563" y2="574.1875"/><line style="stroke:#181818;stroke-width:0.5;stroke-dasharray:5.0,5.0;" x1="380" x2="380" y1="45.1563" y2="574.1875"/><line style="stroke:#181818;stroke-width:0.5;stroke-dasharray:5.0,5.0;" x1="618" x2="618" y1="45.1563" y2="574.1875"/><line style="stroke:#181818;stroke-width:0.5;stroke-dasharray:5.0,5.0;" x1="750" x2="750" y1="45.1563" y2="574.1875"/><line style="stroke:#181818;stroke-width:0.5;stroke-dasharray:5.0,5.0;" x1="888.5" x2="888.5" y1="45.1563" y2="574.1875"/><line style="stroke:#181818;stroke-width:0.5;stroke-dasharray:5.0,5.0;" x1="1018.5" x2="1018.5" y1="45.1563" y2="574.1875"/><line style="stroke:#181818;stroke-width:0.5;stroke-dasharray:5.0,5.0;" x1="1149.5" x2="1149.5" y1="45.1563" y2="574.1875"/><line style="stroke:#181818;stroke-width:0.5;stroke-dasharray:5.0,5.0;" x1="1246.5" x2="1246.5" y1="45.1563" y2="574.1875"/><rect fill="#E2E2F0" height="39.1563" rx="2.5" ry="2.5" style="stroke:#181818;stroke-width:0.5;" width="53" x="5" y="5"/><text fill="#000000" font-family="sans-serif" font-size="20" lengthAdjust="spacing" textLength="39" x="12" y="32.7617">SPA</text><rect fill="#E2E2F0" height="39.1563" rx="2.5" ry="2.5" style="stroke:#181818;stroke-width:0.5;" width="53" x="5" y="573.1875"/><text fill="#000000" font-family="sans-serif" font-size="20" lengthAdjust="spacing" textLength="39" x="12" y="600.9492">SPA</text><rect fill="#E2E2F0" height="39.1563" rx="2.5" ry="2.5" style="stroke:#181818;stroke-width:0.5;" width="144" x="133.5" y="5"/><text fill="#000000" font-family="sans-serif" font-size="20" lengthAdjust="spacing" textLength="130" x="140.5" y="32.7617">GestaoInfoAPI</text><rect fill="#E2E2F0" height="39.1563" rx="2.5" ry="2.5" style="stroke:#181818;stroke-width:0.5;" width="144" x="133.5" y="573.1875"/><text fill="#000000" font-family="sans-serif" font-size="20" lengthAdjust="spacing" textLength="130" x="140.5" y="600.9492">GestaoInfoAPI</text><rect fill="#E2E2F0" height="39.1563" rx="2.5" ry="2.5" style="stroke:#181818;stroke-width:0.5;" width="151" x="305" y="5"/><text fill="#000000" font-family="sans-serif" font-size="20" lengthAdjust="spacing" textLength="137" x="312" y="32.7617">RoomController</text><rect fill="#E2E2F0" height="39.1563" rx="2.5" ry="2.5" style="stroke:#181818;stroke-width:0.5;" width="151" x="305" y="573.1875"/><text fill="#000000" font-family="sans-serif" font-size="20" lengthAdjust="spacing" textLength="137" x="312" y="600.9492">RoomController</text><rect fill="#E2E2F0" height="39.1563" rx="2.5" ry="2.5" style="stroke:#181818;stroke-width:0.5;" width="131" x="553" y="5"/><text fill="#000000" font-family="sans-serif" font-size="20" lengthAdjust="spacing" textLength="117" x="560" y="32.7617">RoomService</text><rect fill="#E2E2F0" height="39.1563" rx="2.5" ry="2.5" style="stroke:#181818;stroke-width:0.5;" width="131" x="553" y="573.1875"/><text fill="#000000" font-family="sans-serif" font-size="20" lengthAdjust="spacing" textLength="117" x="560" y="600.9492">RoomService</text><rect fill="#E2E2F0" height="39.1563" rx="2.5" ry="2.5" style="stroke:#181818;stroke-width:0.5;" width="113" x="694" y="5"/><text fill="#000000" font-family="sans-serif" font-size="20" lengthAdjust="spacing" textLength="99" x="701" y="32.7617">RoomRepo</text><rect fill="#E2E2F0" height="39.1563" rx="2.5" ry="2.5" style="stroke:#181818;stroke-width:0.5;" width="113" x="694" y="573.1875"/><text fill="#000000" font-family="sans-serif" font-size="20" lengthAdjust="spacing" textLength="99" x="701" y="600.9492">RoomRepo</text><rect fill="#E2E2F0" height="39.1563" rx="2.5" ry="2.5" style="stroke:#181818;stroke-width:0.5;" width="106" x="835.5" y="5"/><text fill="#000000" font-family="sans-serif" font-size="20" lengthAdjust="spacing" textLength="92" x="842.5" y="32.7617">FloorRepo</text><rect fill="#E2E2F0" height="39.1563" rx="2.5" ry="2.5" style="stroke:#181818;stroke-width:0.5;" width="106" x="835.5" y="573.1875"/><text fill="#000000" font-family="sans-serif" font-size="20" lengthAdjust="spacing" textLength="92" x="842.5" y="600.9492">FloorRepo</text><rect fill="#E2E2F0" height="39.1563" rx="2.5" ry="2.5" style="stroke:#181818;stroke-width:0.5;" width="134" x="951.5" y="5"/><text fill="#000000" font-family="sans-serif" font-size="20" lengthAdjust="spacing" textLength="120" x="958.5" y="32.7617">RoomMapper</text><rect fill="#E2E2F0" height="39.1563" rx="2.5" ry="2.5" style="stroke:#181818;stroke-width:0.5;" width="134" x="951.5" y="573.1875"/><text fill="#000000" font-family="sans-serif" font-size="20" lengthAdjust="spacing" textLength="120" x="958.5" y="600.9492">RoomMapper</text><rect fill="#E2E2F0" height="39.1563" rx="2.5" ry="2.5" style="stroke:#181818;stroke-width:0.5;" width="108" x="1095.5" y="5"/><text fill="#000000" font-family="sans-serif" font-size="20" lengthAdjust="spacing" textLength="94" x="1102.5" y="32.7617">RoomDTO</text><rect fill="#E2E2F0" height="39.1563" rx="2.5" ry="2.5" style="stroke:#181818;stroke-width:0.5;" width="108" x="1095.5" y="573.1875"/><text fill="#000000" font-family="sans-serif" font-size="20" lengthAdjust="spacing" textLength="94" x="1102.5" y="600.9492">RoomDTO</text><rect fill="#E2E2F0" height="39.1563" rx="2.5" ry="2.5" style="stroke:#181818;stroke-width:0.5;" width="66" x="1213.5" y="5"/><text fill="#000000" font-family="sans-serif" font-size="20" lengthAdjust="spacing" textLength="52" x="1220.5" y="32.7617">Room</text><rect fill="#E2E2F0" height="39.1563" rx="2.5" ry="2.5" style="stroke:#181818;stroke-width:0.5;" width="66" x="1213.5" y="573.1875"/><text fill="#000000" font-family="sans-serif" font-size="20" lengthAdjust="spacing" textLength="52" x="1220.5" y="600.9492">Room</text><rect fill="#FFFFFF" height="501.0313" style="stroke:#181818;stroke-width:1.0;" width="10" x="26.5" y="55.1563"/><rect fill="#FFFFFF" height="469.875" style="stroke:#181818;stroke-width:1.0;" width="10" x="200.5" y="86.3125"/><rect fill="#FFFFFF" height="391.5625" style="stroke:#181818;stroke-width:1.0;" width="10" x="375.5" y="125.4688"/><rect fill="#FFFFFF" height="400.5625" style="stroke:#181818;stroke-width:1.0;" width="10" x="613.5" y="164.625"/><rect fill="#FFFFFF" height="39.1563" style="stroke:#181818;stroke-width:1.0;" width="10" x="745.5" y="321.25"/><rect fill="#FFFFFF" height="39.1563" style="stroke:#181818;stroke-width:1.0;" width="10" x="883.5" y="203.7813"/><rect fill="#FFFFFF" height="39.1563" style="stroke:#181818;stroke-width:1.0;" width="10" x="1013.5" y="399.5625"/><polygon fill="#181818" points="188.5,82.3125,198.5,86.3125,188.5,90.3125,192.5,86.3125" style="stroke:#181818;stroke-width:1.0;"/><line style="stroke:#181818;stroke-width:1.0;" x1="36.5" x2="194.5" y1="86.3125" y2="86.3125"/><text fill="#000000" font-family="sans-serif" font-size="20" lengthAdjust="spacing" textLength="145" x="43.5" y="79.918">post(/api/rooms)</text><polygon fill="#181818" points="363.5,121.4688,373.5,125.4688,363.5,129.4688,367.5,125.4688" style="stroke:#181818;stroke-width:1.0;"/><line style="stroke:#181818;stroke-width:1.0;" x1="210.5" x2="369.5" y1="125.4688" y2="125.4688"/><text fill="#000000" font-family="sans-serif" font-size="20" lengthAdjust="spacing" textLength="38" x="217.5" y="119.0742">post</text><polygon fill="#181818" points="601.5,160.625,611.5,164.625,601.5,168.625,605.5,164.625" style="stroke:#181818;stroke-width:1.0;"/><line style="stroke:#181818;stroke-width:1.0;" x1="385.5" x2="607.5" y1="164.625" y2="164.625"/><text fill="#000000" font-family="sans-serif" font-size="20" lengthAdjust="spacing" textLength="209" x="392.5" y="158.2305">createRoom(roomDTO)</text><polygon fill="#181818" points="871.5,199.7813,881.5,203.7813,871.5,207.7813,875.5,203.7813" style="stroke:#181818;stroke-width:1.0;"/><line style="stroke:#181818;stroke-width:1.0;" x1="623.5" x2="877.5" y1="203.7813" y2="203.7813"/><text fill="#000000" font-family="sans-serif" font-size="20" lengthAdjust="spacing" textLength="241" x="630.5" y="197.3867">findByDomainId(room.floor)</text><polygon fill="#181818" points="634.5,238.9375,624.5,242.9375,634.5,246.9375,630.5,242.9375" style="stroke:#181818;stroke-width:1.0;"/><line style="stroke:#181818;stroke-width:1.0;stroke-dasharray:2.0,2.0;" x1="628.5" x2="887.5" y1="242.9375" y2="242.9375"/><text fill="#000000" font-family="sans-serif" font-size="20" lengthAdjust="spacing" textLength="39" x="640.5" y="236.543">floor</text><polygon fill="#181818" points="1234.5,278.0938,1244.5,282.0938,1234.5,286.0938,1238.5,282.0938" style="stroke:#181818;stroke-width:1.0;"/><line style="stroke:#181818;stroke-width:1.0;" x1="623.5" x2="1240.5" y1="282.0938" y2="282.0938"/><text fill="#000000" font-family="sans-serif" font-size="20" lengthAdjust="spacing" textLength="56" x="630.5" y="275.6992">create</text><polygon fill="#181818" points="733.5,317.25,743.5,321.25,733.5,325.25,737.5,321.25" style="stroke:#181818;stroke-width:1.0;"/><line style="stroke:#181818;stroke-width:1.0;" x1="623.5" x2="739.5" y1="321.25" y2="321.25"/><text fill="#000000" font-family="sans-serif" font-size="20" lengthAdjust="spacing" textLength="100" x="630.5" y="314.8555">save(room)</text><polygon fill="#181818" points="634.5,356.4063,624.5,360.4063,634.5,364.4063,630.5,360.4063" style="stroke:#181818;stroke-width:1.0;"/><line style="stroke:#181818;stroke-width:1.0;stroke-dasharray:2.0,2.0;" x1="628.5" x2="749.5" y1="360.4063" y2="360.4063"/><text fill="#000000" font-family="sans-serif" font-size="20" lengthAdjust="spacing" textLength="45" x="640.5" y="354.0117">room</text><polygon fill="#181818" points="1001.5,395.5625,1011.5,399.5625,1001.5,403.5625,1005.5,399.5625" style="stroke:#181818;stroke-width:1.0;"/><line style="stroke:#181818;stroke-width:1.0;" x1="623.5" x2="1007.5" y1="399.5625" y2="399.5625"/><text fill="#000000" font-family="sans-serif" font-size="20" lengthAdjust="spacing" textLength="118" x="630.5" y="393.168">toDTO(room)</text><polygon fill="#181818" points="634.5,434.7188,624.5,438.7188,634.5,442.7188,630.5,438.7188" style="stroke:#181818;stroke-width:1.0;"/><line style="stroke:#181818;stroke-width:1.0;stroke-dasharray:2.0,2.0;" x1="628.5" x2="1017.5" y1="438.7188" y2="438.7188"/><text fill="#000000" font-family="sans-serif" font-size="20" lengthAdjust="spacing" textLength="87" x="640.5" y="432.3242">roomDTO</text><polygon fill="#181818" points="396.5,473.875,386.5,477.875,396.5,481.875,392.5,477.875" style="stroke:#181818;stroke-width:1.0;"/><line style="stroke:#181818;stroke-width:1.0;stroke-dasharray:2.0,2.0;" x1="390.5" x2="612.5" y1="477.875" y2="477.875"/><text fill="#000000" font-family="sans-serif" font-size="20" lengthAdjust="spacing" textLength="87" x="402.5" y="471.4805">roomDTO</text><polygon fill="#181818" points="221.5,513.0313,211.5,517.0313,221.5,521.0313,217.5,517.0313" style="stroke:#181818;stroke-width:1.0;"/><line style="stroke:#181818;stroke-width:1.0;stroke-dasharray:2.0,2.0;" x1="215.5" x2="379.5" y1="517.0313" y2="517.0313"/><text fill="#000000" font-family="sans-serif" font-size="20" lengthAdjust="spacing" textLength="141" x="227.5" y="510.6367">status code 201</text><polygon fill="#181818" points="42.5,552.1875,32.5,556.1875,42.5,560.1875,38.5,556.1875" style="stroke:#181818;stroke-width:1.0;"/><line style="stroke:#181818;stroke-width:1.0;stroke-dasharray:2.0,2.0;" x1="36.5" x2="204.5" y1="556.1875" y2="556.1875"/><text fill="#000000" font-family="sans-serif" font-size="20" lengthAdjust="spacing" textLength="71" x="48.5" y="549.793">success</text><!--SRC=[PP9DRi8m48NtFiM85LrGMfPPLA9KL2og8j8BMCv4iWWPopQHsjDtnYQGdqKSH-_p6y-RXBDjdVRwqf0vOmKLrlhQn3sriRH_29iNnNAqnZhTHYYFsz7tuXD3r7HeQzeU3mlG0VWzHav4bntxUMeQz8dPHT_CeH9zPmqcelJT73YXewJAPYpl6o8_qZVpyr_QkTiDU3lNFtw-ayZlkPWLkcZRAgLDj9sEc0BX1rPlqdW1Za9ShhMpQyzdmjE3b5mKBu9A_vbzw2aJ9QiGt7y1nYChKdpfy_K6VfAGuaNer6y1jMshzzzynqELpZpN4ipWM8uchR3g2oL8LJYXUllisDzdLBM0e3jCfIP5Ker72I6c5UvEF8q28d63KoUP4pzZ7vdFm4gOx7IFjgTkUVRJuNyrNWCOgkJFVXsQvFZJVAJKSSlqrHWCOKZ940UVZFq3]--></g></svg>