<?xml version="1.0" encoding="UTF-8" standalone="no"?><svg xmlns="http://www.w3.org/2000/svg" xmlns:xlink="http://www.w3.org/1999/xlink" contentStyleType="text/css" height="816px" preserveAspectRatio="none" style="width:1923px;height:816px;background:#FFFFFF;" version="1.1" viewBox="0 0 1923 816" width="1923px" zoomAndPan="magnify"><defs/><g><rect fill="#FFFFFF" height="699.3438" style="stroke:#181818;stroke-width:1.0;" width="10" x="26.5" y="55.1563"/><rect fill="#FFFFFF" height="668.1875" style="stroke:#181818;stroke-width:1.0;" width="10" x="233.5" y="86.3125"/><rect fill="#FFFFFF" height="589.875" style="stroke:#181818;stroke-width:1.0;" width="10" x="408.5" y="125.4688"/><rect fill="#FFFFFF" height="598.875" style="stroke:#181818;stroke-width:1.0;" width="10" x="711.5" y="164.625"/><rect fill="#FFFFFF" height="39.1563" style="stroke:#181818;stroke-width:1.0;" width="10" x="875.5" y="519.5625"/><rect fill="#FFFFFF" height="30" style="stroke:#181818;stroke-width:1.0;" width="10" x="1011" y="203.7813"/><rect fill="#FFFFFF" height="30" style="stroke:#181818;stroke-width:1.0;" width="10" x="1130.5" y="272.9375"/><rect fill="#FFFFFF" height="30" style="stroke:#181818;stroke-width:1.0;" width="10" x="1263.5" y="342.0938"/><rect fill="#FFFFFF" height="30" style="stroke:#181818;stroke-width:1.0;" width="10" x="1409" y="411.25"/><rect fill="#FFFFFF" height="39.1563" style="stroke:#181818;stroke-width:1.0;" width="10" x="1571" y="597.875"/><line style="stroke:#181818;stroke-width:0.5;stroke-dasharray:5.0,5.0;" x1="31" x2="31" y1="45.1563" y2="772.5"/><line style="stroke:#181818;stroke-width:0.5;stroke-dasharray:5.0,5.0;" x1="238.5" x2="238.5" y1="45.1563" y2="772.5"/><line style="stroke:#181818;stroke-width:0.5;stroke-dasharray:5.0,5.0;" x1="413" x2="413" y1="45.1563" y2="772.5"/><line style="stroke:#181818;stroke-width:0.5;stroke-dasharray:5.0,5.0;" x1="716" x2="716" y1="45.1563" y2="772.5"/><line style="stroke:#181818;stroke-width:0.5;stroke-dasharray:5.0,5.0;" x1="880" x2="880" y1="45.1563" y2="772.5"/><line style="stroke:#181818;stroke-width:0.5;stroke-dasharray:5.0,5.0;" x1="1016" x2="1016" y1="45.1563" y2="772.5"/><line style="stroke:#181818;stroke-width:0.5;stroke-dasharray:5.0,5.0;" x1="1135" x2="1135" y1="45.1563" y2="772.5"/><line style="stroke:#181818;stroke-width:0.5;stroke-dasharray:5.0,5.0;" x1="1268" x2="1268" y1="45.1563" y2="772.5"/><line style="stroke:#181818;stroke-width:0.5;stroke-dasharray:5.0,5.0;" x1="1414" x2="1414" y1="45.1563" y2="772.5"/><line style="stroke:#181818;stroke-width:0.5;stroke-dasharray:5.0,5.0;" x1="1576" x2="1576" y1="45.1563" y2="772.5"/><line style="stroke:#181818;stroke-width:0.5;stroke-dasharray:5.0,5.0;" x1="1739" x2="1739" y1="45.1563" y2="772.5"/><line style="stroke:#181818;stroke-width:0.5;stroke-dasharray:5.0,5.0;" x1="1868" x2="1868" y1="45.1563" y2="772.5"/><rect fill="#E2E2F0" height="39.1563" rx="2.5" ry="2.5" style="stroke:#181818;stroke-width:0.5;" width="53" x="5" y="5"/><text fill="#000000" font-family="sans-serif" font-size="20" lengthAdjust="spacing" textLength="39" x="12" y="32.7617">SPA</text><rect fill="#E2E2F0" height="39.1563" rx="2.5" ry="2.5" style="stroke:#181818;stroke-width:0.5;" width="53" x="5" y="771.5"/><text fill="#000000" font-family="sans-serif" font-size="20" lengthAdjust="spacing" textLength="39" x="12" y="799.2617">SPA</text><rect fill="#E2E2F0" height="39.1563" rx="2.5" ry="2.5" style="stroke:#181818;stroke-width:0.5;" width="144" x="166.5" y="5"/><text fill="#000000" font-family="sans-serif" font-size="20" lengthAdjust="spacing" textLength="130" x="173.5" y="32.7617">GestaoInfoAPI</text><rect fill="#E2E2F0" height="39.1563" rx="2.5" ry="2.5" style="stroke:#181818;stroke-width:0.5;" width="144" x="166.5" y="771.5"/><text fill="#000000" font-family="sans-serif" font-size="20" lengthAdjust="spacing" textLength="130" x="173.5" y="799.2617">GestaoInfoAPI</text><rect fill="#E2E2F0" height="39.1563" rx="2.5" ry="2.5" style="stroke:#181818;stroke-width:0.5;" width="183" x="322" y="5"/><text fill="#000000" font-family="sans-serif" font-size="20" lengthAdjust="spacing" textLength="169" x="329" y="32.7617">FloorMapController</text><rect fill="#E2E2F0" height="39.1563" rx="2.5" ry="2.5" style="stroke:#181818;stroke-width:0.5;" width="183" x="322" y="771.5"/><text fill="#000000" font-family="sans-serif" font-size="20" lengthAdjust="spacing" textLength="169" x="329" y="799.2617">FloorMapController</text><rect fill="#E2E2F0" height="39.1563" rx="2.5" ry="2.5" style="stroke:#181818;stroke-width:0.5;" width="163" x="635" y="5"/><text fill="#000000" font-family="sans-serif" font-size="20" lengthAdjust="spacing" textLength="149" x="642" y="32.7617">FloorMapService</text><rect fill="#E2E2F0" height="39.1563" rx="2.5" ry="2.5" style="stroke:#181818;stroke-width:0.5;" width="163" x="635" y="771.5"/><text fill="#000000" font-family="sans-serif" font-size="20" lengthAdjust="spacing" textLength="149" x="642" y="799.2617">FloorMapService</text><rect fill="#E2E2F0" height="39.1563" rx="2.5" ry="2.5" style="stroke:#181818;stroke-width:0.5;" width="145" x="808" y="5"/><text fill="#000000" font-family="sans-serif" font-size="20" lengthAdjust="spacing" textLength="131" x="815" y="32.7617">FloorMapRepo</text><rect fill="#E2E2F0" height="39.1563" rx="2.5" ry="2.5" style="stroke:#181818;stroke-width:0.5;" width="145" x="808" y="771.5"/><text fill="#000000" font-family="sans-serif" font-size="20" lengthAdjust="spacing" textLength="131" x="815" y="799.2617">FloorMapRepo</text><rect fill="#E2E2F0" height="39.1563" rx="2.5" ry="2.5" style="stroke:#181818;stroke-width:0.5;" width="106" x="963" y="5"/><text fill="#000000" font-family="sans-serif" font-size="20" lengthAdjust="spacing" textLength="92" x="970" y="32.7617">FloorRepo</text><rect fill="#E2E2F0" height="39.1563" rx="2.5" ry="2.5" style="stroke:#181818;stroke-width:0.5;" width="106" x="963" y="771.5"/><text fill="#000000" font-family="sans-serif" font-size="20" lengthAdjust="spacing" textLength="92" x="970" y="799.2617">FloorRepo</text><rect fill="#E2E2F0" height="39.1563" rx="2.5" ry="2.5" style="stroke:#181818;stroke-width:0.5;" width="113" x="1079" y="5"/><text fill="#000000" font-family="sans-serif" font-size="20" lengthAdjust="spacing" textLength="99" x="1086" y="32.7617">RoomRepo</text><rect fill="#E2E2F0" height="39.1563" rx="2.5" ry="2.5" style="stroke:#181818;stroke-width:0.5;" width="113" x="1079" y="771.5"/><text fill="#000000" font-family="sans-serif" font-size="20" lengthAdjust="spacing" textLength="99" x="1086" y="799.2617">RoomRepo</text><rect fill="#E2E2F0" height="39.1563" rx="2.5" ry="2.5" style="stroke:#181818;stroke-width:0.5;" width="133" x="1202" y="5"/><text fill="#000000" font-family="sans-serif" font-size="20" lengthAdjust="spacing" textLength="119" x="1209" y="32.7617">ElevatorRepo</text><rect fill="#E2E2F0" height="39.1563" rx="2.5" ry="2.5" style="stroke:#181818;stroke-width:0.5;" width="133" x="1202" y="771.5"/><text fill="#000000" font-family="sans-serif" font-size="20" lengthAdjust="spacing" textLength="119" x="1209" y="799.2617">ElevatorRepo</text><rect fill="#E2E2F0" height="39.1563" rx="2.5" ry="2.5" style="stroke:#181818;stroke-width:0.5;" width="138" x="1345" y="5"/><text fill="#000000" font-family="sans-serif" font-size="20" lengthAdjust="spacing" textLength="124" x="1352" y="32.7617">PassageRepo</text><rect fill="#E2E2F0" height="39.1563" rx="2.5" ry="2.5" style="stroke:#181818;stroke-width:0.5;" width="138" x="1345" y="771.5"/><text fill="#000000" font-family="sans-serif" font-size="20" lengthAdjust="spacing" textLength="124" x="1352" y="799.2617">PassageRepo</text><rect fill="#E2E2F0" height="39.1563" rx="2.5" ry="2.5" style="stroke:#181818;stroke-width:0.5;" width="166" x="1493" y="5"/><text fill="#000000" font-family="sans-serif" font-size="20" lengthAdjust="spacing" textLength="152" x="1500" y="32.7617">FloorMapMapper</text><rect fill="#E2E2F0" height="39.1563" rx="2.5" ry="2.5" style="stroke:#181818;stroke-width:0.5;" width="166" x="1493" y="771.5"/><text fill="#000000" font-family="sans-serif" font-size="20" lengthAdjust="spacing" textLength="152" x="1500" y="799.2617">FloorMapMapper</text><rect fill="#E2E2F0" height="39.1563" rx="2.5" ry="2.5" style="stroke:#181818;stroke-width:0.5;" width="140" x="1669" y="5"/><text fill="#000000" font-family="sans-serif" font-size="20" lengthAdjust="spacing" textLength="126" x="1676" y="32.7617">FloorMapDTO</text><rect fill="#E2E2F0" height="39.1563" rx="2.5" ry="2.5" style="stroke:#181818;stroke-width:0.5;" width="140" x="1669" y="771.5"/><text fill="#000000" font-family="sans-serif" font-size="20" lengthAdjust="spacing" textLength="126" x="1676" y="799.2617">FloorMapDTO</text><rect fill="#E2E2F0" height="39.1563" rx="2.5" ry="2.5" style="stroke:#181818;stroke-width:0.5;" width="98" x="1819" y="5"/><text fill="#000000" font-family="sans-serif" font-size="20" lengthAdjust="spacing" textLength="84" x="1826" y="32.7617">FloorMap</text><rect fill="#E2E2F0" height="39.1563" rx="2.5" ry="2.5" style="stroke:#181818;stroke-width:0.5;" width="98" x="1819" y="771.5"/><text fill="#000000" font-family="sans-serif" font-size="20" lengthAdjust="spacing" textLength="84" x="1826" y="799.2617">FloorMap</text><rect fill="#FFFFFF" height="699.3438" style="stroke:#181818;stroke-width:1.0;" width="10" x="26.5" y="55.1563"/><rect fill="#FFFFFF" height="668.1875" style="stroke:#181818;stroke-width:1.0;" width="10" x="233.5" y="86.3125"/><rect fill="#FFFFFF" height="589.875" style="stroke:#181818;stroke-width:1.0;" width="10" x="408.5" y="125.4688"/><rect fill="#FFFFFF" height="598.875" style="stroke:#181818;stroke-width:1.0;" width="10" x="711.5" y="164.625"/><rect fill="#FFFFFF" height="39.1563" style="stroke:#181818;stroke-width:1.0;" width="10" x="875.5" y="519.5625"/><rect fill="#FFFFFF" height="30" style="stroke:#181818;stroke-width:1.0;" width="10" x="1011" y="203.7813"/><rect fill="#FFFFFF" height="30" style="stroke:#181818;stroke-width:1.0;" width="10" x="1130.5" y="272.9375"/><rect fill="#FFFFFF" height="30" style="stroke:#181818;stroke-width:1.0;" width="10" x="1263.5" y="342.0938"/><rect fill="#FFFFFF" height="30" style="stroke:#181818;stroke-width:1.0;" width="10" x="1409" y="411.25"/><rect fill="#FFFFFF" height="39.1563" style="stroke:#181818;stroke-width:1.0;" width="10" x="1571" y="597.875"/><polygon fill="#181818" points="221.5,82.3125,231.5,86.3125,221.5,90.3125,225.5,86.3125" style="stroke:#181818;stroke-width:1.0;"/><line style="stroke:#181818;stroke-width:1.0;" x1="36.5" x2="227.5" y1="86.3125" y2="86.3125"/><text fill="#000000" font-family="sans-serif" font-size="20" lengthAdjust="spacing" textLength="178" x="43.5" y="79.918">patch(/api/floorMap)</text><polygon fill="#181818" points="396.5,121.4688,406.5,125.4688,396.5,129.4688,400.5,125.4688" style="stroke:#181818;stroke-width:1.0;"/><line style="stroke:#181818;stroke-width:1.0;" x1="243.5" x2="402.5" y1="125.4688" y2="125.4688"/><text fill="#000000" font-family="sans-serif" font-size="20" lengthAdjust="spacing" textLength="48" x="250.5" y="119.0742">patch</text><polygon fill="#181818" points="699.5,160.625,709.5,164.625,699.5,168.625,703.5,164.625" style="stroke:#181818;stroke-width:1.0;"/><line style="stroke:#181818;stroke-width:1.0;" x1="418.5" x2="705.5" y1="164.625" y2="164.625"/><text fill="#000000" font-family="sans-serif" font-size="20" lengthAdjust="spacing" textLength="274" x="425.5" y="158.2305">createFloorMap(floorMapDTO)</text><polygon fill="#181818" points="999,199.7813,1009,203.7813,999,207.7813,1003,203.7813" style="stroke:#181818;stroke-width:1.0;"/><line style="stroke:#181818;stroke-width:1.0;" x1="721.5" x2="1005" y1="203.7813" y2="203.7813"/><text fill="#000000" font-family="sans-serif" font-size="20" lengthAdjust="spacing" textLength="267" x="728.5" y="197.3867">findById(floorMapDTO.floorId)</text><polygon fill="#181818" points="1118.5,268.9375,1128.5,272.9375,1118.5,276.9375,1122.5,272.9375" style="stroke:#181818;stroke-width:1.0;"/><line style="stroke:#181818;stroke-width:1.0;" x1="721.5" x2="1124.5" y1="272.9375" y2="272.9375"/><text fill="#000000" font-family="sans-serif" font-size="20" lengthAdjust="spacing" textLength="293" x="728.5" y="266.543">findByIds(floorMapDTO.roomIds)</text><polygon fill="#181818" points="1251.5,338.0938,1261.5,342.0938,1251.5,346.0938,1255.5,342.0938" style="stroke:#181818;stroke-width:1.0;"/><line style="stroke:#181818;stroke-width:1.0;" x1="721.5" x2="1257.5" y1="342.0938" y2="342.0938"/><text fill="#000000" font-family="sans-serif" font-size="20" lengthAdjust="spacing" textLength="298" x="728.5" y="335.6992">findById(floorMapDTO.elevatorId)</text><polygon fill="#181818" points="1397,407.25,1407,411.25,1397,415.25,1401,411.25" style="stroke:#181818;stroke-width:1.0;"/><line style="stroke:#181818;stroke-width:1.0;" x1="721.5" x2="1403" y1="411.25" y2="411.25"/><text fill="#000000" font-family="sans-serif" font-size="20" lengthAdjust="spacing" textLength="323" x="728.5" y="404.8555">findByIds(floorMapDTO.passageIds)</text><polygon fill="#181818" points="1856,476.4063,1866,480.4063,1856,484.4063,1860,480.4063" style="stroke:#181818;stroke-width:1.0;"/><line style="stroke:#181818;stroke-width:1.0;" x1="721.5" x2="1862" y1="480.4063" y2="480.4063"/><text fill="#000000" font-family="sans-serif" font-size="20" lengthAdjust="spacing" textLength="56" x="728.5" y="474.0117">create</text><polygon fill="#181818" points="863.5,515.5625,873.5,519.5625,863.5,523.5625,867.5,519.5625" style="stroke:#181818;stroke-width:1.0;"/><line style="stroke:#181818;stroke-width:1.0;" x1="721.5" x2="869.5" y1="519.5625" y2="519.5625"/><text fill="#000000" font-family="sans-serif" font-size="20" lengthAdjust="spacing" textLength="133" x="728.5" y="513.168">save(floorMap)</text><polygon fill="#181818" points="732.5,554.7188,722.5,558.7188,732.5,562.7188,728.5,558.7188" style="stroke:#181818;stroke-width:1.0;"/><line style="stroke:#181818;stroke-width:1.0;stroke-dasharray:2.0,2.0;" x1="726.5" x2="879.5" y1="558.7188" y2="558.7188"/><text fill="#000000" font-family="sans-serif" font-size="20" lengthAdjust="spacing" textLength="78" x="738.5" y="552.3242">floorMap</text><polygon fill="#181818" points="1559,593.875,1569,597.875,1559,601.875,1563,597.875" style="stroke:#181818;stroke-width:1.0;"/><line style="stroke:#181818;stroke-width:1.0;" x1="721.5" x2="1565" y1="597.875" y2="597.875"/><text fill="#000000" font-family="sans-serif" font-size="20" lengthAdjust="spacing" textLength="151" x="728.5" y="591.4805">toDTO(floorMap)</text><polygon fill="#181818" points="732.5,633.0313,722.5,637.0313,732.5,641.0313,728.5,637.0313" style="stroke:#181818;stroke-width:1.0;"/><line style="stroke:#181818;stroke-width:1.0;stroke-dasharray:2.0,2.0;" x1="726.5" x2="1575" y1="637.0313" y2="637.0313"/><text fill="#000000" font-family="sans-serif" font-size="20" lengthAdjust="spacing" textLength="120" x="738.5" y="630.6367">floorMapDTO</text><polygon fill="#181818" points="429.5,672.1875,419.5,676.1875,429.5,680.1875,425.5,676.1875" style="stroke:#181818;stroke-width:1.0;"/><line style="stroke:#181818;stroke-width:1.0;stroke-dasharray:2.0,2.0;" x1="423.5" x2="710.5" y1="676.1875" y2="676.1875"/><text fill="#000000" font-family="sans-serif" font-size="20" lengthAdjust="spacing" textLength="120" x="435.5" y="669.793">floorMapDTO</text><polygon fill="#181818" points="254.5,711.3438,244.5,715.3438,254.5,719.3438,250.5,715.3438" style="stroke:#181818;stroke-width:1.0;"/><line style="stroke:#181818;stroke-width:1.0;stroke-dasharray:2.0,2.0;" x1="248.5" x2="412.5" y1="715.3438" y2="715.3438"/><text fill="#000000" font-family="sans-serif" font-size="20" lengthAdjust="spacing" textLength="141" x="260.5" y="708.9492">status code 201</text><polygon fill="#181818" points="42.5,750.5,32.5,754.5,42.5,758.5,38.5,754.5" style="stroke:#181818;stroke-width:1.0;"/><line style="stroke:#181818;stroke-width:1.0;stroke-dasharray:2.0,2.0;" x1="36.5" x2="237.5" y1="754.5" y2="754.5"/><text fill="#000000" font-family="sans-serif" font-size="20" lengthAdjust="spacing" textLength="71" x="48.5" y="748.1055">success</text><!--SRC=[TPJHReCW58RlVGgog-wYwxPBBvPqdLsyM4RiNe0WRgHM252JxUbt3ce5InD5z7pdvyX_r1vbfvbXfrRnewX9BHfsRjrUTUuW_mHvVimWx2INcdME7EWskhzx5zOnLNQDsjBoZZ1Bu1eZ-rOfyy7q3ZIDQbjXFBTpfas31s5woOMd3gPFGvNGoXCuII1HV1y3bLAdA5x5yQ8LFNCBZI9cABEMVOi8eUbIuT3ZIyCqpRnzVNe0hcbWYAeJarsMCUuaL2Yy7t2IzGlkUquqS_ndjM5QRfenyNwcqPeC1iHn-qT-1hmd6Ow8mDxdX1i1aQcALJFN6mYZInaCcENtEoUDxEhNtx8ECnxylAo3pC6TMYmUX6BLB6OZDGCsmhE5MhLKgoAruaPfOlJyghfYgLT4UlHMTNfeaEi2wLAGNWG7VwTDZzR9YMMzM2LSzHy03cGzcJPHovKkYX3BYLDGPqeHC-6yriFk32IH6nGl3HMIOoDDlGa_2dUsXAiQVojFeT3GTxupSKcw1VhCkR0sfB1zWrl0_W40]--></g></svg>