<?xml version="1.0" encoding="UTF-8" standalone="no"?><svg xmlns="http://www.w3.org/2000/svg" xmlns:xlink="http://www.w3.org/1999/xlink" contentStyleType="text/css" height="631px" preserveAspectRatio="none" style="width:1456px;height:631px;background:#FFFFFF;" version="1.1" viewBox="0 0 1456 631" width="1456px" zoomAndPan="magnify"><defs/><g><rect fill="#FFFFFF" height="514.0313" style="stroke:#181818;stroke-width:1.0;" width="10" x="26.5" y="55.1563"/><rect fill="#FFFFFF" height="482.875" style="stroke:#181818;stroke-width:1.0;" width="10" x="219.5" y="86.3125"/><rect fill="#FFFFFF" height="404.5625" style="stroke:#181818;stroke-width:1.0;" width="10" x="394.5" y="125.4688"/><rect fill="#FFFFFF" height="413.5625" style="stroke:#181818;stroke-width:1.0;" width="10" x="691.5" y="164.625"/><rect fill="#FFFFFF" height="169.625" style="stroke:#181818;stroke-width:1.0;" width="10" x="963.5" y="203.7813"/><rect fill="#FFFFFF" height="39.1563" style="stroke:#181818;stroke-width:1.0;" width="10" x="1122" y="412.5625"/><line style="stroke:#181818;stroke-width:0.5;stroke-dasharray:5.0,5.0;" x1="31" x2="31" y1="45.1563" y2="587.1875"/><line style="stroke:#181818;stroke-width:0.5;stroke-dasharray:5.0,5.0;" x1="224.5" x2="224.5" y1="45.1563" y2="587.1875"/><line style="stroke:#181818;stroke-width:0.5;stroke-dasharray:5.0,5.0;" x1="399.5" x2="399.5" y1="45.1563" y2="587.1875"/><line style="stroke:#181818;stroke-width:0.5;stroke-dasharray:5.0,5.0;" x1="696.5" x2="696.5" y1="45.1563" y2="587.1875"/><line style="stroke:#181818;stroke-width:0.5;stroke-dasharray:5.0,5.0;" x1="968.5" x2="968.5" y1="45.1563" y2="587.1875"/><line style="stroke:#181818;stroke-width:0.5;stroke-dasharray:5.0,5.0;" x1="1126.5" x2="1126.5" y1="45.1563" y2="587.1875"/><line style="stroke:#181818;stroke-width:0.5;stroke-dasharray:5.0,5.0;" x1="1282.5" x2="1282.5" y1="45.1563" y2="587.1875"/><line style="stroke:#181818;stroke-width:0.5;stroke-dasharray:5.0,5.0;" x1="1404.5" x2="1404.5" y1="45.1563" y2="587.1875"/><rect fill="#E2E2F0" height="39.1563" rx="2.5" ry="2.5" style="stroke:#181818;stroke-width:0.5;" width="53" x="5" y="5"/><text fill="#000000" font-family="sans-serif" font-size="20" lengthAdjust="spacing" textLength="39" x="12" y="32.7617">SPA</text><rect fill="#E2E2F0" height="39.1563" rx="2.5" ry="2.5" style="stroke:#181818;stroke-width:0.5;" width="53" x="5" y="586.1875"/><text fill="#000000" font-family="sans-serif" font-size="20" lengthAdjust="spacing" textLength="39" x="12" y="613.9492">SPA</text><rect fill="#E2E2F0" height="39.1563" rx="2.5" ry="2.5" style="stroke:#181818;stroke-width:0.5;" width="144" x="152.5" y="5"/><text fill="#000000" font-family="sans-serif" font-size="20" lengthAdjust="spacing" textLength="130" x="159.5" y="32.7617">GestaoInfoAPI</text><rect fill="#E2E2F0" height="39.1563" rx="2.5" ry="2.5" style="stroke:#181818;stroke-width:0.5;" width="144" x="152.5" y="586.1875"/><text fill="#000000" font-family="sans-serif" font-size="20" lengthAdjust="spacing" textLength="130" x="159.5" y="613.9492">GestaoInfoAPI</text><rect fill="#E2E2F0" height="39.1563" rx="2.5" ry="2.5" style="stroke:#181818;stroke-width:0.5;" width="176" x="311.5" y="5"/><text fill="#000000" font-family="sans-serif" font-size="20" lengthAdjust="spacing" textLength="162" x="318.5" y="32.7617">PassageController</text><rect fill="#E2E2F0" height="39.1563" rx="2.5" ry="2.5" style="stroke:#181818;stroke-width:0.5;" width="176" x="311.5" y="586.1875"/><text fill="#000000" font-family="sans-serif" font-size="20" lengthAdjust="spacing" textLength="162" x="318.5" y="613.9492">PassageController</text><rect fill="#E2E2F0" height="39.1563" rx="2.5" ry="2.5" style="stroke:#181818;stroke-width:0.5;" width="156" x="618.5" y="5"/><text fill="#000000" font-family="sans-serif" font-size="20" lengthAdjust="spacing" textLength="142" x="625.5" y="32.7617">PassageService</text><rect fill="#E2E2F0" height="39.1563" rx="2.5" ry="2.5" style="stroke:#181818;stroke-width:0.5;" width="156" x="618.5" y="586.1875"/><text fill="#000000" font-family="sans-serif" font-size="20" lengthAdjust="spacing" textLength="142" x="625.5" y="613.9492">PassageService</text><rect fill="#E2E2F0" height="39.1563" rx="2.5" ry="2.5" style="stroke:#181818;stroke-width:0.5;" width="138" x="899.5" y="5"/><text fill="#000000" font-family="sans-serif" font-size="20" lengthAdjust="spacing" textLength="124" x="906.5" y="32.7617">PassageRepo</text><rect fill="#E2E2F0" height="39.1563" rx="2.5" ry="2.5" style="stroke:#181818;stroke-width:0.5;" width="138" x="899.5" y="586.1875"/><text fill="#000000" font-family="sans-serif" font-size="20" lengthAdjust="spacing" textLength="124" x="906.5" y="613.9492">PassageRepo</text><rect fill="#E2E2F0" height="39.1563" rx="2.5" ry="2.5" style="stroke:#181818;stroke-width:0.5;" width="159" x="1047.5" y="5"/><text fill="#000000" font-family="sans-serif" font-size="20" lengthAdjust="spacing" textLength="145" x="1054.5" y="32.7617">PassageMapper</text><rect fill="#E2E2F0" height="39.1563" rx="2.5" ry="2.5" style="stroke:#181818;stroke-width:0.5;" width="159" x="1047.5" y="586.1875"/><text fill="#000000" font-family="sans-serif" font-size="20" lengthAdjust="spacing" textLength="145" x="1054.5" y="613.9492">PassageMapper</text><rect fill="#E2E2F0" height="39.1563" rx="2.5" ry="2.5" style="stroke:#181818;stroke-width:0.5;" width="133" x="1216.5" y="5"/><text fill="#000000" font-family="sans-serif" font-size="20" lengthAdjust="spacing" textLength="119" x="1223.5" y="32.7617">PassageDTO</text><rect fill="#E2E2F0" height="39.1563" rx="2.5" ry="2.5" style="stroke:#181818;stroke-width:0.5;" width="133" x="1216.5" y="586.1875"/><text fill="#000000" font-family="sans-serif" font-size="20" lengthAdjust="spacing" textLength="119" x="1223.5" y="613.9492">PassageDTO</text><rect fill="#E2E2F0" height="39.1563" rx="2.5" ry="2.5" style="stroke:#181818;stroke-width:0.5;" width="91" x="1359.5" y="5"/><text fill="#000000" font-family="sans-serif" font-size="20" lengthAdjust="spacing" textLength="77" x="1366.5" y="32.7617">Passage</text><rect fill="#E2E2F0" height="39.1563" rx="2.5" ry="2.5" style="stroke:#181818;stroke-width:0.5;" width="91" x="1359.5" y="586.1875"/><text fill="#000000" font-family="sans-serif" font-size="20" lengthAdjust="spacing" textLength="77" x="1366.5" y="613.9492">Passage</text><rect fill="#FFFFFF" height="514.0313" style="stroke:#181818;stroke-width:1.0;" width="10" x="26.5" y="55.1563"/><rect fill="#FFFFFF" height="482.875" style="stroke:#181818;stroke-width:1.0;" width="10" x="219.5" y="86.3125"/><rect fill="#FFFFFF" height="404.5625" style="stroke:#181818;stroke-width:1.0;" width="10" x="394.5" y="125.4688"/><rect fill="#FFFFFF" height="413.5625" style="stroke:#181818;stroke-width:1.0;" width="10" x="691.5" y="164.625"/><rect fill="#FFFFFF" height="169.625" style="stroke:#181818;stroke-width:1.0;" width="10" x="963.5" y="203.7813"/><rect fill="#FFFFFF" height="39.1563" style="stroke:#181818;stroke-width:1.0;" width="10" x="1122" y="412.5625"/><polygon fill="#181818" points="207.5,82.3125,217.5,86.3125,207.5,90.3125,211.5,86.3125" style="stroke:#181818;stroke-width:1.0;"/><line style="stroke:#181818;stroke-width:1.0;" x1="36.5" x2="213.5" y1="86.3125" y2="86.3125"/><text fill="#000000" font-family="sans-serif" font-size="20" lengthAdjust="spacing" textLength="164" x="43.5" y="79.918">put(/api/passages)</text><polygon fill="#181818" points="382.5,121.4688,392.5,125.4688,382.5,129.4688,386.5,125.4688" style="stroke:#181818;stroke-width:1.0;"/><line style="stroke:#181818;stroke-width:1.0;" x1="229.5" x2="388.5" y1="125.4688" y2="125.4688"/><text fill="#000000" font-family="sans-serif" font-size="20" lengthAdjust="spacing" textLength="27" x="236.5" y="119.0742">put</text><polygon fill="#181818" points="679.5,160.625,689.5,164.625,679.5,168.625,683.5,164.625" style="stroke:#181818;stroke-width:1.0;"/><line style="stroke:#181818;stroke-width:1.0;" x1="404.5" x2="685.5" y1="164.625" y2="164.625"/><text fill="#000000" font-family="sans-serif" font-size="20" lengthAdjust="spacing" textLength="268" x="411.5" y="158.2305">updatePassage(passageDTO)</text><polygon fill="#181818" points="951.5,199.7813,961.5,203.7813,951.5,207.7813,955.5,203.7813" style="stroke:#181818;stroke-width:1.0;"/><line style="stroke:#181818;stroke-width:1.0;" x1="701.5" x2="957.5" y1="203.7813" y2="203.7813"/><text fill="#000000" font-family="sans-serif" font-size="20" lengthAdjust="spacing" textLength="243" x="708.5" y="197.3867">findByDomainId(passageId)</text><polygon fill="#181818" points="712.5,238.9375,702.5,242.9375,712.5,246.9375,708.5,242.9375" style="stroke:#181818;stroke-width:1.0;"/><line style="stroke:#181818;stroke-width:1.0;stroke-dasharray:2.0,2.0;" x1="706.5" x2="962.5" y1="242.9375" y2="242.9375"/><text fill="#000000" font-family="sans-serif" font-size="20" lengthAdjust="spacing" textLength="75" x="718.5" y="236.543">passage</text><line style="stroke:#181818;stroke-width:1.0;" x1="701.5" x2="743.5" y1="282.0938" y2="282.0938"/><line style="stroke:#181818;stroke-width:1.0;" x1="743.5" x2="743.5" y1="282.0938" y2="295.0938"/><line style="stroke:#181818;stroke-width:1.0;" x1="702.5" x2="743.5" y1="295.0938" y2="295.0938"/><polygon fill="#181818" points="712.5,291.0938,702.5,295.0938,712.5,299.0938,708.5,295.0938" style="stroke:#181818;stroke-width:1.0;"/><text fill="#000000" font-family="sans-serif" font-size="20" lengthAdjust="spacing" textLength="188" x="708.5" y="275.6992">updates passage info</text><polygon fill="#181818" points="951.5,330.25,961.5,334.25,951.5,338.25,955.5,334.25" style="stroke:#181818;stroke-width:1.0;"/><line style="stroke:#181818;stroke-width:1.0;" x1="701.5" x2="957.5" y1="334.25" y2="334.25"/><text fill="#000000" font-family="sans-serif" font-size="20" lengthAdjust="spacing" textLength="130" x="708.5" y="327.8555">save(passage)</text><polygon fill="#181818" points="712.5,369.4063,702.5,373.4063,712.5,377.4063,708.5,373.4063" style="stroke:#181818;stroke-width:1.0;"/><line style="stroke:#181818;stroke-width:1.0;stroke-dasharray:2.0,2.0;" x1="706.5" x2="967.5" y1="373.4063" y2="373.4063"/><text fill="#000000" font-family="sans-serif" font-size="20" lengthAdjust="spacing" textLength="75" x="718.5" y="367.0117">passage</text><polygon fill="#181818" points="1110,408.5625,1120,412.5625,1110,416.5625,1114,412.5625" style="stroke:#181818;stroke-width:1.0;"/><line style="stroke:#181818;stroke-width:1.0;" x1="701.5" x2="1116" y1="412.5625" y2="412.5625"/><text fill="#000000" font-family="sans-serif" font-size="20" lengthAdjust="spacing" textLength="148" x="708.5" y="406.168">toDTO(passage)</text><polygon fill="#181818" points="712.5,447.7188,702.5,451.7188,712.5,455.7188,708.5,451.7188" style="stroke:#181818;stroke-width:1.0;"/><line style="stroke:#181818;stroke-width:1.0;stroke-dasharray:2.0,2.0;" x1="706.5" x2="1126" y1="451.7188" y2="451.7188"/><text fill="#000000" font-family="sans-serif" font-size="20" lengthAdjust="spacing" textLength="117" x="718.5" y="445.3242">passageDTO</text><polygon fill="#181818" points="415.5,486.875,405.5,490.875,415.5,494.875,411.5,490.875" style="stroke:#181818;stroke-width:1.0;"/><line style="stroke:#181818;stroke-width:1.0;stroke-dasharray:2.0,2.0;" x1="409.5" x2="690.5" y1="490.875" y2="490.875"/><text fill="#000000" font-family="sans-serif" font-size="20" lengthAdjust="spacing" textLength="117" x="421.5" y="484.4805">passageDTO</text><polygon fill="#181818" points="240.5,526.0313,230.5,530.0313,240.5,534.0313,236.5,530.0313" style="stroke:#181818;stroke-width:1.0;"/><line style="stroke:#181818;stroke-width:1.0;stroke-dasharray:2.0,2.0;" x1="234.5" x2="398.5" y1="530.0313" y2="530.0313"/><text fill="#000000" font-family="sans-serif" font-size="20" lengthAdjust="spacing" textLength="141" x="246.5" y="523.6367">status code 201</text><polygon fill="#181818" points="42.5,565.1875,32.5,569.1875,42.5,573.1875,38.5,569.1875" style="stroke:#181818;stroke-width:1.0;"/><line style="stroke:#181818;stroke-width:1.0;stroke-dasharray:2.0,2.0;" x1="36.5" x2="223.5" y1="569.1875" y2="569.1875"/><text fill="#000000" font-family="sans-serif" font-size="20" lengthAdjust="spacing" textLength="71" x="48.5" y="562.793">success</text><!--SRC=[TPAzRiCW4CTtdkAK9SaGfUteeLAQgfM7gbRT5q10AXJ78C2MsgVl7SOsLjq1p74__-yBVzMjvOxV6YEkIe9K5zuruSMqeTO_2Xxk6Bg35jhoDa1TdHRsvbNvm4tPNiofAZV0FU1tYLJSU_wbpYZfJDCe5x5pSCqgLolNQw4YLBj-bVbGraI03gl46xSsHSBZAlBy-Hxz-5tr3qvpuxfbZ8kWUnvKx00kE3nIfGNOBkoEtEgZ7Vxo-vcbLZ3S2APw8psxOmiOxGHWhGLqLg8d9R2pKwAPAFM4RK4uHLRARqlNf3BOHNApT4jjAk2YM_dqFH2b7DLBcOd7Vj86Xp6bX8rIMPf-z876-IzZUTvF-U__KPHg6NTKm84L40oMFIjC94qJrnyrcc8cIDYWD_T-1bFJnndY4mwT1s4aFVZxN6UOKPmX1QnEI7T2AEzpYWQTcOZz0W00]--></g></svg>