<?xml version="1.0" encoding="UTF-8" standalone="no"?><svg xmlns="http://www.w3.org/2000/svg" xmlns:xlink="http://www.w3.org/1999/xlink" contentStyleType="text/css" height="631px" preserveAspectRatio="none" style="width:1204px;height:631px;background:#FFFFFF;" version="1.1" viewBox="0 0 1204 631" width="1204px" zoomAndPan="magnify"><defs/><g><rect fill="#FFFFFF" height="514.0313" style="stroke:#181818;stroke-width:1.0;" width="10" x="26.5" y="55.1563"/><rect fill="#FFFFFF" height="482.875" style="stroke:#181818;stroke-width:1.0;" width="10" x="183.5" y="86.3125"/><rect fill="#FFFFFF" height="404.5625" style="stroke:#181818;stroke-width:1.0;" width="10" x="358.5" y="125.4688"/><rect fill="#FFFFFF" height="413.5625" style="stroke:#181818;stroke-width:1.0;" width="10" x="587.5" y="164.625"/><rect fill="#FFFFFF" height="169.625" style="stroke:#181818;stroke-width:1.0;" width="10" x="823.5" y="203.7813"/><rect fill="#FFFFFF" height="39.1563" style="stroke:#181818;stroke-width:1.0;" width="10" x="950" y="412.5625"/><line style="stroke:#181818;stroke-width:0.5;stroke-dasharray:5.0,5.0;" x1="31" x2="31" y1="45.1563" y2="587.1875"/><line style="stroke:#181818;stroke-width:0.5;stroke-dasharray:5.0,5.0;" x1="188.5" x2="188.5" y1="45.1563" y2="587.1875"/><line style="stroke:#181818;stroke-width:0.5;stroke-dasharray:5.0,5.0;" x1="363.5" x2="363.5" y1="45.1563" y2="587.1875"/><line style="stroke:#181818;stroke-width:0.5;stroke-dasharray:5.0,5.0;" x1="592.5" x2="592.5" y1="45.1563" y2="587.1875"/><line style="stroke:#181818;stroke-width:0.5;stroke-dasharray:5.0,5.0;" x1="828.5" x2="828.5" y1="45.1563" y2="587.1875"/><line style="stroke:#181818;stroke-width:0.5;stroke-dasharray:5.0,5.0;" x1="954.5" x2="954.5" y1="45.1563" y2="587.1875"/><line style="stroke:#181818;stroke-width:0.5;stroke-dasharray:5.0,5.0;" x1="1078.5" x2="1078.5" y1="45.1563" y2="587.1875"/><line style="stroke:#181818;stroke-width:0.5;stroke-dasharray:5.0,5.0;" x1="1168.5" x2="1168.5" y1="45.1563" y2="587.1875"/><rect fill="#E2E2F0" height="39.1563" rx="2.5" ry="2.5" style="stroke:#181818;stroke-width:0.5;" width="53" x="5" y="5"/><text fill="#000000" font-family="sans-serif" font-size="20" lengthAdjust="spacing" textLength="39" x="12" y="32.7617">SPA</text><rect fill="#E2E2F0" height="39.1563" rx="2.5" ry="2.5" style="stroke:#181818;stroke-width:0.5;" width="53" x="5" y="586.1875"/><text fill="#000000" font-family="sans-serif" font-size="20" lengthAdjust="spacing" textLength="39" x="12" y="613.9492">SPA</text><rect fill="#E2E2F0" height="39.1563" rx="2.5" ry="2.5" style="stroke:#181818;stroke-width:0.5;" width="144" x="116.5" y="5"/><text fill="#000000" font-family="sans-serif" font-size="20" lengthAdjust="spacing" textLength="130" x="123.5" y="32.7617">GestaoInfoAPI</text><rect fill="#E2E2F0" height="39.1563" rx="2.5" ry="2.5" style="stroke:#181818;stroke-width:0.5;" width="144" x="116.5" y="586.1875"/><text fill="#000000" font-family="sans-serif" font-size="20" lengthAdjust="spacing" textLength="130" x="123.5" y="613.9492">GestaoInfoAPI</text><rect fill="#E2E2F0" height="39.1563" rx="2.5" ry="2.5" style="stroke:#181818;stroke-width:0.5;" width="144" x="291.5" y="5"/><text fill="#000000" font-family="sans-serif" font-size="20" lengthAdjust="spacing" textLength="130" x="298.5" y="32.7617">FloorController</text><rect fill="#E2E2F0" height="39.1563" rx="2.5" ry="2.5" style="stroke:#181818;stroke-width:0.5;" width="144" x="291.5" y="586.1875"/><text fill="#000000" font-family="sans-serif" font-size="20" lengthAdjust="spacing" textLength="130" x="298.5" y="613.9492">FloorController</text><rect fill="#E2E2F0" height="39.1563" rx="2.5" ry="2.5" style="stroke:#181818;stroke-width:0.5;" width="124" x="530.5" y="5"/><text fill="#000000" font-family="sans-serif" font-size="20" lengthAdjust="spacing" textLength="110" x="537.5" y="32.7617">FloorService</text><rect fill="#E2E2F0" height="39.1563" rx="2.5" ry="2.5" style="stroke:#181818;stroke-width:0.5;" width="124" x="530.5" y="586.1875"/><text fill="#000000" font-family="sans-serif" font-size="20" lengthAdjust="spacing" textLength="110" x="537.5" y="613.9492">FloorService</text><rect fill="#E2E2F0" height="39.1563" rx="2.5" ry="2.5" style="stroke:#181818;stroke-width:0.5;" width="106" x="775.5" y="5"/><text fill="#000000" font-family="sans-serif" font-size="20" lengthAdjust="spacing" textLength="92" x="782.5" y="32.7617">FloorRepo</text><rect fill="#E2E2F0" height="39.1563" rx="2.5" ry="2.5" style="stroke:#181818;stroke-width:0.5;" width="106" x="775.5" y="586.1875"/><text fill="#000000" font-family="sans-serif" font-size="20" lengthAdjust="spacing" textLength="92" x="782.5" y="613.9492">FloorRepo</text><rect fill="#E2E2F0" height="39.1563" rx="2.5" ry="2.5" style="stroke:#181818;stroke-width:0.5;" width="127" x="891.5" y="5"/><text fill="#000000" font-family="sans-serif" font-size="20" lengthAdjust="spacing" textLength="113" x="898.5" y="32.7617">FloorMapper</text><rect fill="#E2E2F0" height="39.1563" rx="2.5" ry="2.5" style="stroke:#181818;stroke-width:0.5;" width="127" x="891.5" y="586.1875"/><text fill="#000000" font-family="sans-serif" font-size="20" lengthAdjust="spacing" textLength="113" x="898.5" y="613.9492">FloorMapper</text><rect fill="#E2E2F0" height="39.1563" rx="2.5" ry="2.5" style="stroke:#181818;stroke-width:0.5;" width="101" x="1028.5" y="5"/><text fill="#000000" font-family="sans-serif" font-size="20" lengthAdjust="spacing" textLength="87" x="1035.5" y="32.7617">FloorDTO</text><rect fill="#E2E2F0" height="39.1563" rx="2.5" ry="2.5" style="stroke:#181818;stroke-width:0.5;" width="101" x="1028.5" y="586.1875"/><text fill="#000000" font-family="sans-serif" font-size="20" lengthAdjust="spacing" textLength="87" x="1035.5" y="613.9492">FloorDTO</text><rect fill="#E2E2F0" height="39.1563" rx="2.5" ry="2.5" style="stroke:#181818;stroke-width:0.5;" width="59" x="1139.5" y="5"/><text fill="#000000" font-family="sans-serif" font-size="20" lengthAdjust="spacing" textLength="45" x="1146.5" y="32.7617">Floor</text><rect fill="#E2E2F0" height="39.1563" rx="2.5" ry="2.5" style="stroke:#181818;stroke-width:0.5;" width="59" x="1139.5" y="586.1875"/><text fill="#000000" font-family="sans-serif" font-size="20" lengthAdjust="spacing" textLength="45" x="1146.5" y="613.9492">Floor</text><rect fill="#FFFFFF" height="514.0313" style="stroke:#181818;stroke-width:1.0;" width="10" x="26.5" y="55.1563"/><rect fill="#FFFFFF" height="482.875" style="stroke:#181818;stroke-width:1.0;" width="10" x="183.5" y="86.3125"/><rect fill="#FFFFFF" height="404.5625" style="stroke:#181818;stroke-width:1.0;" width="10" x="358.5" y="125.4688"/><rect fill="#FFFFFF" height="413.5625" style="stroke:#181818;stroke-width:1.0;" width="10" x="587.5" y="164.625"/><rect fill="#FFFFFF" height="169.625" style="stroke:#181818;stroke-width:1.0;" width="10" x="823.5" y="203.7813"/><rect fill="#FFFFFF" height="39.1563" style="stroke:#181818;stroke-width:1.0;" width="10" x="950" y="412.5625"/><polygon fill="#181818" points="171.5,82.3125,181.5,86.3125,171.5,90.3125,175.5,86.3125" style="stroke:#181818;stroke-width:1.0;"/><line style="stroke:#181818;stroke-width:1.0;" x1="36.5" x2="177.5" y1="86.3125" y2="86.3125"/><text fill="#000000" font-family="sans-serif" font-size="20" lengthAdjust="spacing" textLength="128" x="43.5" y="79.918">put(/api/floors)</text><polygon fill="#181818" points="346.5,121.4688,356.5,125.4688,346.5,129.4688,350.5,125.4688" style="stroke:#181818;stroke-width:1.0;"/><line style="stroke:#181818;stroke-width:1.0;" x1="193.5" x2="352.5" y1="125.4688" y2="125.4688"/><text fill="#000000" font-family="sans-serif" font-size="20" lengthAdjust="spacing" textLength="27" x="200.5" y="119.0742">put</text><polygon fill="#181818" points="575.5,160.625,585.5,164.625,575.5,168.625,579.5,164.625" style="stroke:#181818;stroke-width:1.0;"/><line style="stroke:#181818;stroke-width:1.0;" x1="368.5" x2="581.5" y1="164.625" y2="164.625"/><text fill="#000000" font-family="sans-serif" font-size="20" lengthAdjust="spacing" textLength="200" x="375.5" y="158.2305">updateFloor(floorDTO)</text><polygon fill="#181818" points="811.5,199.7813,821.5,203.7813,811.5,207.7813,815.5,203.7813" style="stroke:#181818;stroke-width:1.0;"/><line style="stroke:#181818;stroke-width:1.0;" x1="597.5" x2="817.5" y1="203.7813" y2="203.7813"/><text fill="#000000" font-family="sans-serif" font-size="20" lengthAdjust="spacing" textLength="207" x="604.5" y="197.3867">findByDomainId(floorId)</text><polygon fill="#181818" points="608.5,238.9375,598.5,242.9375,608.5,246.9375,604.5,242.9375" style="stroke:#181818;stroke-width:1.0;"/><line style="stroke:#181818;stroke-width:1.0;stroke-dasharray:2.0,2.0;" x1="602.5" x2="822.5" y1="242.9375" y2="242.9375"/><text fill="#000000" font-family="sans-serif" font-size="20" lengthAdjust="spacing" textLength="39" x="614.5" y="236.543">floor</text><line style="stroke:#181818;stroke-width:1.0;" x1="597.5" x2="639.5" y1="282.0938" y2="282.0938"/><line style="stroke:#181818;stroke-width:1.0;" x1="639.5" x2="639.5" y1="282.0938" y2="295.0938"/><line style="stroke:#181818;stroke-width:1.0;" x1="598.5" x2="639.5" y1="295.0938" y2="295.0938"/><polygon fill="#181818" points="608.5,291.0938,598.5,295.0938,608.5,299.0938,604.5,295.0938" style="stroke:#181818;stroke-width:1.0;"/><text fill="#000000" font-family="sans-serif" font-size="20" lengthAdjust="spacing" textLength="152" x="604.5" y="275.6992">updates floor info</text><polygon fill="#181818" points="811.5,330.25,821.5,334.25,811.5,338.25,815.5,334.25" style="stroke:#181818;stroke-width:1.0;"/><line style="stroke:#181818;stroke-width:1.0;" x1="597.5" x2="817.5" y1="334.25" y2="334.25"/><text fill="#000000" font-family="sans-serif" font-size="20" lengthAdjust="spacing" textLength="94" x="604.5" y="327.8555">save(floor)</text><polygon fill="#181818" points="608.5,369.4063,598.5,373.4063,608.5,377.4063,604.5,373.4063" style="stroke:#181818;stroke-width:1.0;"/><line style="stroke:#181818;stroke-width:1.0;stroke-dasharray:2.0,2.0;" x1="602.5" x2="827.5" y1="373.4063" y2="373.4063"/><text fill="#000000" font-family="sans-serif" font-size="20" lengthAdjust="spacing" textLength="39" x="614.5" y="367.0117">floor</text><polygon fill="#181818" points="938,408.5625,948,412.5625,938,416.5625,942,412.5625" style="stroke:#181818;stroke-width:1.0;"/><line style="stroke:#181818;stroke-width:1.0;" x1="597.5" x2="944" y1="412.5625" y2="412.5625"/><text fill="#000000" font-family="sans-serif" font-size="20" lengthAdjust="spacing" textLength="112" x="604.5" y="406.168">toDTO(floor)</text><polygon fill="#181818" points="608.5,447.7188,598.5,451.7188,608.5,455.7188,604.5,451.7188" style="stroke:#181818;stroke-width:1.0;"/><line style="stroke:#181818;stroke-width:1.0;stroke-dasharray:2.0,2.0;" x1="602.5" x2="954" y1="451.7188" y2="451.7188"/><text fill="#000000" font-family="sans-serif" font-size="20" lengthAdjust="spacing" textLength="81" x="614.5" y="445.3242">floorDTO</text><polygon fill="#181818" points="379.5,486.875,369.5,490.875,379.5,494.875,375.5,490.875" style="stroke:#181818;stroke-width:1.0;"/><line style="stroke:#181818;stroke-width:1.0;stroke-dasharray:2.0,2.0;" x1="373.5" x2="586.5" y1="490.875" y2="490.875"/><text fill="#000000" font-family="sans-serif" font-size="20" lengthAdjust="spacing" textLength="81" x="385.5" y="484.4805">floorDTO</text><polygon fill="#181818" points="204.5,526.0313,194.5,530.0313,204.5,534.0313,200.5,530.0313" style="stroke:#181818;stroke-width:1.0;"/><line style="stroke:#181818;stroke-width:1.0;stroke-dasharray:2.0,2.0;" x1="198.5" x2="362.5" y1="530.0313" y2="530.0313"/><text fill="#000000" font-family="sans-serif" font-size="20" lengthAdjust="spacing" textLength="141" x="210.5" y="523.6367">status code 201</text><polygon fill="#181818" points="42.5,565.1875,32.5,569.1875,42.5,573.1875,38.5,569.1875" style="stroke:#181818;stroke-width:1.0;"/><line style="stroke:#181818;stroke-width:1.0;stroke-dasharray:2.0,2.0;" x1="36.5" x2="187.5" y1="569.1875" y2="569.1875"/><text fill="#000000" font-family="sans-serif" font-size="20" lengthAdjust="spacing" textLength="71" x="48.5" y="562.793">success</text><!--SRC=[RPB1RiCW38RlF8NLIzj3rMt772PrhJhbC2rQzW88Y8IQ1WGaqlRqio59oPH32F1__COs_gOxons_jqRSb0If6jwtuMgwKEjV1IzF3EMWXRQy2r1NfyLwywvyuARi6dEgoWrm3_XV8jVM67T6GsVQLha8dODhLwXQkK4B5P7Q3Il4bx8coZHPqJ-ujMCCdAu0b-_FgE9_HKsIkNFTCSP5q0CFAcQD7nnUARi2R1zsHsxriQ4pVlyWANc60w6KOsGVSaoRqKW0PbX0RoKgCVYk6I-O6L8Ls1Q4KxGQRxQbRN98wsAKsRXBfIcWqPry-qb4APDtAJFhM44Qu31T9aAJJNOzdnJGsETb5Cy7bRptgrvIBUDDfx4v1GI3oKwdPuxwXjy_9-fNPaPGyfehFMDZWQTkuGCDlGTX93tdvzmbzIFsYu9L9wHx8PJtEKLDpPQ8_G40]--></g></svg>