<?xml version="1.0" encoding="UTF-8" standalone="no"?><svg xmlns="http://www.w3.org/2000/svg" xmlns:xlink="http://www.w3.org/1999/xlink" contentStyleType="text/css" height="631px" preserveAspectRatio="none" style="width:1271px;height:631px;background:#FFFFFF;" version="1.1" viewBox="0 0 1271 631" width="1271px" zoomAndPan="magnify"><defs/><g><rect fill="#FFFFFF" height="514.0313" style="stroke:#181818;stroke-width:1.0;" width="10" x="26.5" y="55.1563"/><rect fill="#FFFFFF" height="482.875" style="stroke:#181818;stroke-width:1.0;" width="10" x="211.5" y="86.3125"/><rect fill="#FFFFFF" height="404.5625" style="stroke:#181818;stroke-width:1.0;" width="10" x="386.5" y="125.4688"/><rect fill="#FFFFFF" height="413.5625" style="stroke:#181818;stroke-width:1.0;" width="10" x="619.5" y="164.625"/><rect fill="#FFFFFF" height="169.625" style="stroke:#181818;stroke-width:1.0;" width="10" x="862.5" y="203.7813"/><rect fill="#FFFFFF" height="39.1563" style="stroke:#181818;stroke-width:1.0;" width="10" x="997" y="412.5625"/><line style="stroke:#181818;stroke-width:0.5;stroke-dasharray:5.0,5.0;" x1="31" x2="31" y1="45.1563" y2="587.1875"/><line style="stroke:#181818;stroke-width:0.5;stroke-dasharray:5.0,5.0;" x1="216.5" x2="216.5" y1="45.1563" y2="587.1875"/><line style="stroke:#181818;stroke-width:0.5;stroke-dasharray:5.0,5.0;" x1="391.5" x2="391.5" y1="45.1563" y2="587.1875"/><line style="stroke:#181818;stroke-width:0.5;stroke-dasharray:5.0,5.0;" x1="624.5" x2="624.5" y1="45.1563" y2="587.1875"/><line style="stroke:#181818;stroke-width:0.5;stroke-dasharray:5.0,5.0;" x1="867.5" x2="867.5" y1="45.1563" y2="587.1875"/><line style="stroke:#181818;stroke-width:0.5;stroke-dasharray:5.0,5.0;" x1="1001.5" x2="1001.5" y1="45.1563" y2="587.1875"/><line style="stroke:#181818;stroke-width:0.5;stroke-dasharray:5.0,5.0;" x1="1133.5" x2="1133.5" y1="45.1563" y2="587.1875"/><line style="stroke:#181818;stroke-width:0.5;stroke-dasharray:5.0,5.0;" x1="1231.5" x2="1231.5" y1="45.1563" y2="587.1875"/><rect fill="#E2E2F0" height="39.1563" rx="2.5" ry="2.5" style="stroke:#181818;stroke-width:0.5;" width="53" x="5" y="5"/><text fill="#000000" font-family="sans-serif" font-size="20" lengthAdjust="spacing" textLength="39" x="12" y="32.7617">SPA</text><rect fill="#E2E2F0" height="39.1563" rx="2.5" ry="2.5" style="stroke:#181818;stroke-width:0.5;" width="53" x="5" y="586.1875"/><text fill="#000000" font-family="sans-serif" font-size="20" lengthAdjust="spacing" textLength="39" x="12" y="613.9492">SPA</text><rect fill="#E2E2F0" height="39.1563" rx="2.5" ry="2.5" style="stroke:#181818;stroke-width:0.5;" width="144" x="144.5" y="5"/><text fill="#000000" font-family="sans-serif" font-size="20" lengthAdjust="spacing" textLength="130" x="151.5" y="32.7617">GestaoInfoAPI</text><rect fill="#E2E2F0" height="39.1563" rx="2.5" ry="2.5" style="stroke:#181818;stroke-width:0.5;" width="144" x="144.5" y="586.1875"/><text fill="#000000" font-family="sans-serif" font-size="20" lengthAdjust="spacing" textLength="130" x="151.5" y="613.9492">GestaoInfoAPI</text><rect fill="#E2E2F0" height="39.1563" rx="2.5" ry="2.5" style="stroke:#181818;stroke-width:0.5;" width="152" x="315.5" y="5"/><text fill="#000000" font-family="sans-serif" font-size="20" lengthAdjust="spacing" textLength="138" x="322.5" y="32.7617">RobotController</text><rect fill="#E2E2F0" height="39.1563" rx="2.5" ry="2.5" style="stroke:#181818;stroke-width:0.5;" width="152" x="315.5" y="586.1875"/><text fill="#000000" font-family="sans-serif" font-size="20" lengthAdjust="spacing" textLength="138" x="322.5" y="613.9492">RobotController</text><rect fill="#E2E2F0" height="39.1563" rx="2.5" ry="2.5" style="stroke:#181818;stroke-width:0.5;" width="132" x="558.5" y="5"/><text fill="#000000" font-family="sans-serif" font-size="20" lengthAdjust="spacing" textLength="118" x="565.5" y="32.7617">RobotService</text><rect fill="#E2E2F0" height="39.1563" rx="2.5" ry="2.5" style="stroke:#181818;stroke-width:0.5;" width="132" x="558.5" y="586.1875"/><text fill="#000000" font-family="sans-serif" font-size="20" lengthAdjust="spacing" textLength="118" x="565.5" y="613.9492">RobotService</text><rect fill="#E2E2F0" height="39.1563" rx="2.5" ry="2.5" style="stroke:#181818;stroke-width:0.5;" width="114" x="810.5" y="5"/><text fill="#000000" font-family="sans-serif" font-size="20" lengthAdjust="spacing" textLength="100" x="817.5" y="32.7617">RobotRepo</text><rect fill="#E2E2F0" height="39.1563" rx="2.5" ry="2.5" style="stroke:#181818;stroke-width:0.5;" width="114" x="810.5" y="586.1875"/><text fill="#000000" font-family="sans-serif" font-size="20" lengthAdjust="spacing" textLength="100" x="817.5" y="613.9492">RobotRepo</text><rect fill="#E2E2F0" height="39.1563" rx="2.5" ry="2.5" style="stroke:#181818;stroke-width:0.5;" width="135" x="934.5" y="5"/><text fill="#000000" font-family="sans-serif" font-size="20" lengthAdjust="spacing" textLength="121" x="941.5" y="32.7617">RobotMapper</text><rect fill="#E2E2F0" height="39.1563" rx="2.5" ry="2.5" style="stroke:#181818;stroke-width:0.5;" width="135" x="934.5" y="586.1875"/><text fill="#000000" font-family="sans-serif" font-size="20" lengthAdjust="spacing" textLength="121" x="941.5" y="613.9492">RobotMapper</text><rect fill="#E2E2F0" height="39.1563" rx="2.5" ry="2.5" style="stroke:#181818;stroke-width:0.5;" width="109" x="1079.5" y="5"/><text fill="#000000" font-family="sans-serif" font-size="20" lengthAdjust="spacing" textLength="95" x="1086.5" y="32.7617">RobotDTO</text><rect fill="#E2E2F0" height="39.1563" rx="2.5" ry="2.5" style="stroke:#181818;stroke-width:0.5;" width="109" x="1079.5" y="586.1875"/><text fill="#000000" font-family="sans-serif" font-size="20" lengthAdjust="spacing" textLength="95" x="1086.5" y="613.9492">RobotDTO</text><rect fill="#E2E2F0" height="39.1563" rx="2.5" ry="2.5" style="stroke:#181818;stroke-width:0.5;" width="67" x="1198.5" y="5"/><text fill="#000000" font-family="sans-serif" font-size="20" lengthAdjust="spacing" textLength="53" x="1205.5" y="32.7617">Robot</text><rect fill="#E2E2F0" height="39.1563" rx="2.5" ry="2.5" style="stroke:#181818;stroke-width:0.5;" width="67" x="1198.5" y="586.1875"/><text fill="#000000" font-family="sans-serif" font-size="20" lengthAdjust="spacing" textLength="53" x="1205.5" y="613.9492">Robot</text><rect fill="#FFFFFF" height="514.0313" style="stroke:#181818;stroke-width:1.0;" width="10" x="26.5" y="55.1563"/><rect fill="#FFFFFF" height="482.875" style="stroke:#181818;stroke-width:1.0;" width="10" x="211.5" y="86.3125"/><rect fill="#FFFFFF" height="404.5625" style="stroke:#181818;stroke-width:1.0;" width="10" x="386.5" y="125.4688"/><rect fill="#FFFFFF" height="413.5625" style="stroke:#181818;stroke-width:1.0;" width="10" x="619.5" y="164.625"/><rect fill="#FFFFFF" height="169.625" style="stroke:#181818;stroke-width:1.0;" width="10" x="862.5" y="203.7813"/><rect fill="#FFFFFF" height="39.1563" style="stroke:#181818;stroke-width:1.0;" width="10" x="997" y="412.5625"/><polygon fill="#181818" points="199.5,82.3125,209.5,86.3125,199.5,90.3125,203.5,86.3125" style="stroke:#181818;stroke-width:1.0;"/><line style="stroke:#181818;stroke-width:1.0;" x1="36.5" x2="205.5" y1="86.3125" y2="86.3125"/><text fill="#000000" font-family="sans-serif" font-size="20" lengthAdjust="spacing" textLength="156" x="43.5" y="79.918">patch(/api/robots)</text><polygon fill="#181818" points="374.5,121.4688,384.5,125.4688,374.5,129.4688,378.5,125.4688" style="stroke:#181818;stroke-width:1.0;"/><line style="stroke:#181818;stroke-width:1.0;" x1="221.5" x2="380.5" y1="125.4688" y2="125.4688"/><text fill="#000000" font-family="sans-serif" font-size="20" lengthAdjust="spacing" textLength="48" x="228.5" y="119.0742">patch</text><polygon fill="#181818" points="607.5,160.625,617.5,164.625,607.5,168.625,611.5,164.625" style="stroke:#181818;stroke-width:1.0;"/><line style="stroke:#181818;stroke-width:1.0;" x1="396.5" x2="613.5" y1="164.625" y2="164.625"/><text fill="#000000" font-family="sans-serif" font-size="20" lengthAdjust="spacing" textLength="204" x="403.5" y="158.2305">inhibitRobot(robotDTO)</text><polygon fill="#181818" points="850.5,199.7813,860.5,203.7813,850.5,207.7813,854.5,203.7813" style="stroke:#181818;stroke-width:1.0;"/><line style="stroke:#181818;stroke-width:1.0;" x1="629.5" x2="856.5" y1="203.7813" y2="203.7813"/><text fill="#000000" font-family="sans-serif" font-size="20" lengthAdjust="spacing" textLength="214" x="636.5" y="197.3867">findByDomainId(robotId)</text><polygon fill="#181818" points="640.5,238.9375,630.5,242.9375,640.5,246.9375,636.5,242.9375" style="stroke:#181818;stroke-width:1.0;"/><line style="stroke:#181818;stroke-width:1.0;stroke-dasharray:2.0,2.0;" x1="634.5" x2="861.5" y1="242.9375" y2="242.9375"/><text fill="#000000" font-family="sans-serif" font-size="20" lengthAdjust="spacing" textLength="46" x="646.5" y="236.543">robot</text><line style="stroke:#181818;stroke-width:1.0;" x1="629.5" x2="671.5" y1="282.0938" y2="282.0938"/><line style="stroke:#181818;stroke-width:1.0;" x1="671.5" x2="671.5" y1="282.0938" y2="295.0938"/><line style="stroke:#181818;stroke-width:1.0;" x1="630.5" x2="671.5" y1="295.0938" y2="295.0938"/><polygon fill="#181818" points="640.5,291.0938,630.5,295.0938,640.5,299.0938,636.5,295.0938" style="stroke:#181818;stroke-width:1.0;"/><text fill="#000000" font-family="sans-serif" font-size="20" lengthAdjust="spacing" textLength="101" x="636.5" y="275.6992">inhibit robot</text><polygon fill="#181818" points="850.5,330.25,860.5,334.25,850.5,338.25,854.5,334.25" style="stroke:#181818;stroke-width:1.0;"/><line style="stroke:#181818;stroke-width:1.0;" x1="629.5" x2="856.5" y1="334.25" y2="334.25"/><text fill="#000000" font-family="sans-serif" font-size="20" lengthAdjust="spacing" textLength="101" x="636.5" y="327.8555">save(robot)</text><polygon fill="#181818" points="640.5,369.4063,630.5,373.4063,640.5,377.4063,636.5,373.4063" style="stroke:#181818;stroke-width:1.0;"/><line style="stroke:#181818;stroke-width:1.0;stroke-dasharray:2.0,2.0;" x1="634.5" x2="866.5" y1="373.4063" y2="373.4063"/><text fill="#000000" font-family="sans-serif" font-size="20" lengthAdjust="spacing" textLength="46" x="646.5" y="367.0117">robot</text><polygon fill="#181818" points="985,408.5625,995,412.5625,985,416.5625,989,412.5625" style="stroke:#181818;stroke-width:1.0;"/><line style="stroke:#181818;stroke-width:1.0;" x1="629.5" x2="991" y1="412.5625" y2="412.5625"/><text fill="#000000" font-family="sans-serif" font-size="20" lengthAdjust="spacing" textLength="119" x="636.5" y="406.168">toDTO(robot)</text><polygon fill="#181818" points="640.5,447.7188,630.5,451.7188,640.5,455.7188,636.5,451.7188" style="stroke:#181818;stroke-width:1.0;"/><line style="stroke:#181818;stroke-width:1.0;stroke-dasharray:2.0,2.0;" x1="634.5" x2="1001" y1="451.7188" y2="451.7188"/><text fill="#000000" font-family="sans-serif" font-size="20" lengthAdjust="spacing" textLength="88" x="646.5" y="445.3242">robotDTO</text><polygon fill="#181818" points="407.5,486.875,397.5,490.875,407.5,494.875,403.5,490.875" style="stroke:#181818;stroke-width:1.0;"/><line style="stroke:#181818;stroke-width:1.0;stroke-dasharray:2.0,2.0;" x1="401.5" x2="618.5" y1="490.875" y2="490.875"/><text fill="#000000" font-family="sans-serif" font-size="20" lengthAdjust="spacing" textLength="88" x="413.5" y="484.4805">robotDTO</text><polygon fill="#181818" points="232.5,526.0313,222.5,530.0313,232.5,534.0313,228.5,530.0313" style="stroke:#181818;stroke-width:1.0;"/><line style="stroke:#181818;stroke-width:1.0;stroke-dasharray:2.0,2.0;" x1="226.5" x2="390.5" y1="530.0313" y2="530.0313"/><text fill="#000000" font-family="sans-serif" font-size="20" lengthAdjust="spacing" textLength="141" x="238.5" y="523.6367">status code 201</text><polygon fill="#181818" points="42.5,565.1875,32.5,569.1875,42.5,573.1875,38.5,569.1875" style="stroke:#181818;stroke-width:1.0;"/><line style="stroke:#181818;stroke-width:1.0;stroke-dasharray:2.0,2.0;" x1="36.5" x2="215.5" y1="569.1875" y2="569.1875"/><text fill="#000000" font-family="sans-serif" font-size="20" lengthAdjust="spacing" textLength="71" x="48.5" y="562.793">success</text><!--SRC=[RP9BRiCW48Rtd09basGHfUtIYqffebPULBNYNe00KL0SG40ijQVl3607Lrxmd8z_NlYhqfOvTkiClqf1XJopUnVUZGwj-fNqvOc0EIYkBDE1jirkSbvyI1-OgVNPx9fwGPcdi4wHepcPi0T1PxfEkWZjW-jcg5QwNd4PaTRrCyHHMXFDk9cnVp9him_OpW27xwzeXNN6capcnfGcXF6WUXPap1e6tRnYTXMrBF3BQikisZfyvTSF5jCdC26CMMRw0SJK2Sw8G9OLLVgYJYh425OkHrbeOYd8ad8dyPJ3M-8rIgHpbSqats9zAdfMMhpz9A8MIRiMXNGi8qvqCqGJeK6cZ6zgIGuywsMINS_A23brDRo6vbGq6CXpU3ros3SO_vImNuKOGabhhFE8vU8EtO8F6kwUSYFmEp-NAgaNiLlehDa1VUTSUbzIsDBY2DWV]--></g></svg>