<?xml version="1.0" encoding="UTF-8" standalone="no"?><svg xmlns="http://www.w3.org/2000/svg" xmlns:xlink="http://www.w3.org/1999/xlink" contentStyleType="text/css" height="656px" preserveAspectRatio="none" style="width:1015px;height:656px;background:#FFFFFF;" version="1.1" viewBox="0 0 1015 656" width="1015px" zoomAndPan="magnify"><defs/><g><rect fill="none" height="234.0938" style="stroke:#000000;stroke-width:1.5;" width="807" x="10" y="315.9375"/><line style="stroke:#181818;stroke-width:0.5;stroke-dasharray:5.0,5.0;" x1="46" x2="46" y1="90.1563" y2="567.0313"/><line style="stroke:#181818;stroke-width:0.5;stroke-dasharray:5.0,5.0;" x1="475" x2="475" y1="90.1563" y2="567.0313"/><line style="stroke:#181818;stroke-width:0.5;stroke-dasharray:5.0,5.0;" x1="723" x2="723" y1="90.1563" y2="567.0313"/><text fill="#000000" font-family="sans-serif" font-size="20" lengthAdjust="spacing" textLength="47" x="20" y="85.7617">Actor</text><ellipse cx="46.5" cy="13.5" fill="#E2E2F0" rx="8" ry="8" style="stroke:#181818;stroke-width:0.5;"/><path d="M46.5,21.5 L46.5,48.5 M33.5,29.5 L59.5,29.5 M46.5,48.5 L33.5,63.5 M46.5,48.5 L59.5,63.5 " fill="none" style="stroke:#181818;stroke-width:0.5;"/><text fill="#000000" font-family="sans-serif" font-size="20" lengthAdjust="spacing" textLength="47" x="20" y="586.793">Actor</text><ellipse cx="46.5" cy="599.6875" fill="#E2E2F0" rx="8" ry="8" style="stroke:#181818;stroke-width:0.5;"/><path d="M46.5,607.6875 L46.5,634.6875 M33.5,615.6875 L59.5,615.6875 M46.5,634.6875 L33.5,649.6875 M46.5,634.6875 L59.5,649.6875 " fill="none" style="stroke:#181818;stroke-width:0.5;"/><rect fill="#E2E2F0" height="64.3125" rx="2.5" ry="2.5" style="stroke:#181818;stroke-width:0.5;" width="167" x="392" y="24.8438"/><text fill="#000000" font-family="sans-serif" font-size="20" font-style="italic" lengthAdjust="spacing" textLength="153" x="399" y="52.6055">«Container (C4)»</text><text fill="#000000" font-family="sans-serif" font-size="20" lengthAdjust="spacing" textLength="39" x="456" y="77.7617">SPA</text><rect fill="#E2E2F0" height="64.3125" rx="2.5" ry="2.5" style="stroke:#181818;stroke-width:0.5;" width="167" x="392" y="566.0313"/><text fill="#000000" font-family="sans-serif" font-size="20" font-style="italic" lengthAdjust="spacing" textLength="153" x="399" y="593.793">«Container (C4)»</text><text fill="#000000" font-family="sans-serif" font-size="20" lengthAdjust="spacing" textLength="39" x="456" y="618.9492">SPA</text><rect fill="#E2E2F0" height="64.3125" rx="2.5" ry="2.5" style="stroke:#181818;stroke-width:0.5;" width="167" x="640" y="24.8438"/><text fill="#000000" font-family="sans-serif" font-size="20" font-style="italic" lengthAdjust="spacing" textLength="153" x="647" y="52.6055">«Container (C4)»</text><text fill="#000000" font-family="sans-serif" font-size="20" lengthAdjust="spacing" textLength="83" x="682" y="77.7617">Armazem</text><rect fill="#E2E2F0" height="64.3125" rx="2.5" ry="2.5" style="stroke:#181818;stroke-width:0.5;" width="167" x="640" y="566.0313"/><text fill="#000000" font-family="sans-serif" font-size="20" font-style="italic" lengthAdjust="spacing" textLength="153" x="647" y="593.793">«Container (C4)»</text><text fill="#000000" font-family="sans-serif" font-size="20" lengthAdjust="spacing" textLength="83" x="682" y="618.9492">Armazem</text><polygon fill="#181818" points="463.5,127.3125,473.5,131.3125,463.5,135.3125,467.5,131.3125" style="stroke:#181818;stroke-width:1.0;"/><line style="stroke:#181818;stroke-width:1.0;" x1="46.5" x2="469.5" y1="131.3125" y2="131.3125"/><text fill="#000000" font-family="sans-serif" font-size="20" lengthAdjust="spacing" textLength="405" x="53.5" y="124.918">Pretende editar as informações de um edifício</text><polygon fill="#181818" points="57.5,166.4688,47.5,170.4688,57.5,174.4688,53.5,170.4688" style="stroke:#181818;stroke-width:1.0;"/><line style="stroke:#181818;stroke-width:1.0;stroke-dasharray:2.0,2.0;" x1="51.5" x2="474.5" y1="170.4688" y2="170.4688"/><text fill="#000000" font-family="sans-serif" font-size="20" lengthAdjust="spacing" textLength="330" x="63.5" y="164.0742">Mostra informações atuais do edifício</text><polygon fill="#181818" points="463.5,205.625,473.5,209.625,463.5,213.625,467.5,209.625" style="stroke:#181818;stroke-width:1.0;"/><line style="stroke:#181818;stroke-width:1.0;" x1="46.5" x2="469.5" y1="209.625" y2="209.625"/><text fill="#000000" font-family="sans-serif" font-size="20" lengthAdjust="spacing" textLength="211" x="53.5" y="203.2305">Envia dados atualizados</text><polygon fill="#181818" points="711.5,244.7813,721.5,248.7813,711.5,252.7813,715.5,248.7813" style="stroke:#181818;stroke-width:1.0;"/><line style="stroke:#181818;stroke-width:1.0;" x1="475.5" x2="717.5" y1="248.7813" y2="248.7813"/><text fill="#000000" font-family="sans-serif" font-size="20" lengthAdjust="spacing" textLength="192" x="482.5" y="242.3867">PUT(/api/buildings/:id)</text><line style="stroke:#181818;stroke-width:1.0;" x1="723.5" x2="765.5" y1="287.9375" y2="287.9375"/><line style="stroke:#181818;stroke-width:1.0;" x1="765.5" x2="765.5" y1="287.9375" y2="300.9375"/><line style="stroke:#181818;stroke-width:1.0;" x1="724.5" x2="765.5" y1="300.9375" y2="300.9375"/><polygon fill="#181818" points="734.5,296.9375,724.5,300.9375,734.5,304.9375,730.5,300.9375" style="stroke:#181818;stroke-width:1.0;"/><text fill="#000000" font-family="sans-serif" font-size="20" lengthAdjust="spacing" textLength="278" x="730.5" y="281.543">Atualiza informações do edifício</text><path d="M10,315.9375 L78,315.9375 L78,333.0938 L68,343.0938 L10,343.0938 L10,315.9375 " fill="#EEEEEE" style="stroke:#000000;stroke-width:1.5;"/><rect fill="none" height="234.0938" style="stroke:#000000;stroke-width:1.5;" width="807" x="10" y="315.9375"/><text fill="#000000" font-family="sans-serif" font-size="20" font-weight="bold" lengthAdjust="spacing" textLength="23" x="25" y="337.6992">alt</text><text fill="#000000" font-family="sans-serif" font-size="20" font-weight="bold" lengthAdjust="spacing" textLength="143" x="93" y="338.6992">[sucesso case]</text><polygon fill="#181818" points="486.5,380.4063,476.5,384.4063,486.5,388.4063,482.5,384.4063" style="stroke:#181818;stroke-width:1.0;"/><line style="stroke:#181818;stroke-width:1.0;" x1="480.5" x2="722.5" y1="384.4063" y2="384.4063"/><text fill="#000000" font-family="sans-serif" font-size="20" lengthAdjust="spacing" textLength="190" x="492.5" y="378.0117">Resposta de sucesso</text><polygon fill="#181818" points="57.5,419.5625,47.5,423.5625,57.5,427.5625,53.5,423.5625" style="stroke:#181818;stroke-width:1.0;"/><line style="stroke:#181818;stroke-width:1.0;stroke-dasharray:2.0,2.0;" x1="51.5" x2="474.5" y1="423.5625" y2="423.5625"/><text fill="#000000" font-family="sans-serif" font-size="20" lengthAdjust="spacing" textLength="270" x="63.5" y="417.168">Mostra mensagem de sucesso</text><line style="stroke:#000000;stroke-width:1.0;stroke-dasharray:2.0,2.0;" x1="10" x2="817" y1="432.5625" y2="432.5625"/><text fill="#000000" font-family="sans-serif" font-size="20" font-weight="bold" lengthAdjust="spacing" textLength="103" x="15" y="453.3242">[erro case]</text><polygon fill="#181818" points="486.5,485.875,476.5,489.875,486.5,493.875,482.5,489.875" style="stroke:#181818;stroke-width:1.0;"/><line style="stroke:#181818;stroke-width:1.0;" x1="480.5" x2="722.5" y1="489.875" y2="489.875"/><text fill="#000000" font-family="sans-serif" font-size="20" lengthAdjust="spacing" textLength="154" x="492.5" y="483.4805">Resposta de erro</text><line style="stroke:#181818;stroke-width:1.0;" x1="475.5" x2="517.5" y1="529.0313" y2="529.0313"/><line style="stroke:#181818;stroke-width:1.0;" x1="517.5" x2="517.5" y1="529.0313" y2="542.0313"/><line style="stroke:#181818;stroke-width:1.0;" x1="476.5" x2="517.5" y1="542.0313" y2="542.0313"/><polygon fill="#181818" points="486.5,538.0313,476.5,542.0313,486.5,546.0313,482.5,542.0313" style="stroke:#181818;stroke-width:1.0;"/><text fill="#000000" font-family="sans-serif" font-size="20" lengthAdjust="spacing" textLength="234" x="482.5" y="522.6367">Mostra mensagem de erro</text><!--SRC=[bP5DQiCm48NtEiMGLR88BgKh4mmcfBj2QDe3JArn629BHfAxy8Mwwh8dyCKg_mJ_O0hLGWnelZVlZToDTOaM2sMo6qcGb6Eb_BFH_i8rmUE349XvOo7jRdHz8GBaEUCIjOVDvPnksgTZm90rMJWSndfxVDeboPn8RO4r5Hqrr6kCwAVkar4wXhCbJreIa6IFdIVMkGagpLVpGow4WAfeN_FcEsCZHjbzKEeaOtWnpbjSaEWhv21W9lIgXvF-P0I9qlIGuhgjnNHMSayMBB-_RICiEVgeM4dMLnV5B7VY7dtQcmvoor0pJwWyk2eZvmnaw4X0E1ErYTLNScN8YkrQ1gJh_cih1Mc7ro0rOKYvi79h_pMmxLzEcpMl3EoOyC7Y5m00]--></g></svg>