<?xml version="1.0" encoding="UTF-8" standalone="no"?><svg xmlns="http://www.w3.org/2000/svg" xmlns:xlink="http://www.w3.org/1999/xlink" contentStyleType="text/css" height="695px" preserveAspectRatio="none" style="width:1004px;height:695px;background:#FFFFFF;" version="1.1" viewBox="0 0 1004 695" width="1004px" zoomAndPan="magnify"><defs/><g><rect fill="none" height="273.25" style="stroke:#000000;stroke-width:1.5;" width="885.5" x="10" y="315.9375"/><line style="stroke:#181818;stroke-width:0.5;stroke-dasharray:5.0,5.0;" x1="46" x2="46" y1="90.1563" y2="606.1875"/><line style="stroke:#181818;stroke-width:0.5;stroke-dasharray:5.0,5.0;" x1="421" x2="421" y1="90.1563" y2="606.1875"/><line style="stroke:#181818;stroke-width:0.5;stroke-dasharray:5.0,5.0;" x1="743" x2="743" y1="90.1563" y2="606.1875"/><text fill="#000000" font-family="sans-serif" font-size="20" lengthAdjust="spacing" textLength="47" x="20" y="85.7617">Actor</text><ellipse cx="46.5" cy="13.5" fill="#E2E2F0" rx="8" ry="8" style="stroke:#181818;stroke-width:0.5;"/><path d="M46.5,21.5 L46.5,48.5 M33.5,29.5 L59.5,29.5 M46.5,48.5 L33.5,63.5 M46.5,48.5 L59.5,63.5 " fill="none" style="stroke:#181818;stroke-width:0.5;"/><text fill="#000000" font-family="sans-serif" font-size="20" lengthAdjust="spacing" textLength="47" x="20" y="625.9492">Actor</text><ellipse cx="46.5" cy="638.8438" fill="#E2E2F0" rx="8" ry="8" style="stroke:#181818;stroke-width:0.5;"/><path d="M46.5,646.8438 L46.5,673.8438 M33.5,654.8438 L59.5,654.8438 M46.5,673.8438 L33.5,688.8438 M46.5,673.8438 L59.5,688.8438 " fill="none" style="stroke:#181818;stroke-width:0.5;"/><rect fill="#E2E2F0" height="64.3125" rx="2.5" ry="2.5" style="stroke:#181818;stroke-width:0.5;" width="167" x="338" y="24.8438"/><text fill="#000000" font-family="sans-serif" font-size="20" font-style="italic" lengthAdjust="spacing" textLength="153" x="345" y="52.6055">«Container (C4)»</text><text fill="#000000" font-family="sans-serif" font-size="20" lengthAdjust="spacing" textLength="39" x="402" y="77.7617">SPA</text><rect fill="#E2E2F0" height="64.3125" rx="2.5" ry="2.5" style="stroke:#181818;stroke-width:0.5;" width="167" x="338" y="605.1875"/><text fill="#000000" font-family="sans-serif" font-size="20" font-style="italic" lengthAdjust="spacing" textLength="153" x="345" y="632.9492">«Container (C4)»</text><text fill="#000000" font-family="sans-serif" font-size="20" lengthAdjust="spacing" textLength="39" x="402" y="658.1055">SPA</text><rect fill="#E2E2F0" height="64.3125" rx="2.5" ry="2.5" style="stroke:#181818;stroke-width:0.5;" width="167" x="660" y="24.8438"/><text fill="#000000" font-family="sans-serif" font-size="20" font-style="italic" lengthAdjust="spacing" textLength="153" x="667" y="52.6055">«Container (C4)»</text><text fill="#000000" font-family="sans-serif" font-size="20" lengthAdjust="spacing" textLength="83" x="702" y="77.7617">Armazem</text><rect fill="#E2E2F0" height="64.3125" rx="2.5" ry="2.5" style="stroke:#181818;stroke-width:0.5;" width="167" x="660" y="605.1875"/><text fill="#000000" font-family="sans-serif" font-size="20" font-style="italic" lengthAdjust="spacing" textLength="153" x="667" y="632.9492">«Container (C4)»</text><text fill="#000000" font-family="sans-serif" font-size="20" lengthAdjust="spacing" textLength="83" x="702" y="658.1055">Armazem</text><polygon fill="#181818" points="409.5,127.3125,419.5,131.3125,409.5,135.3125,413.5,131.3125" style="stroke:#181818;stroke-width:1.0;"/><line style="stroke:#181818;stroke-width:1.0;" x1="46.5" x2="415.5" y1="131.3125" y2="131.3125"/><text fill="#000000" font-family="sans-serif" font-size="20" lengthAdjust="spacing" textLength="270" x="53.5" y="124.918">Criar passagem entre edifícios</text><polygon fill="#181818" points="57.5,166.4688,47.5,170.4688,57.5,174.4688,53.5,170.4688" style="stroke:#181818;stroke-width:1.0;"/><line style="stroke:#181818;stroke-width:1.0;stroke-dasharray:2.0,2.0;" x1="51.5" x2="420.5" y1="170.4688" y2="170.4688"/><text fill="#000000" font-family="sans-serif" font-size="20" lengthAdjust="spacing" textLength="351" x="63.5" y="164.0742">Requesita informação para a passagem</text><polygon fill="#181818" points="409.5,205.625,419.5,209.625,409.5,213.625,413.5,209.625" style="stroke:#181818;stroke-width:1.0;"/><line style="stroke:#181818;stroke-width:1.0;" x1="46.5" x2="415.5" y1="209.625" y2="209.625"/><text fill="#000000" font-family="sans-serif" font-size="20" lengthAdjust="spacing" textLength="232" x="53.5" y="203.2305">Envia dados da passagem</text><polygon fill="#181818" points="731.5,244.7813,741.5,248.7813,731.5,252.7813,735.5,248.7813" style="stroke:#181818;stroke-width:1.0;"/><line style="stroke:#181818;stroke-width:1.0;" x1="421.5" x2="737.5" y1="248.7813" y2="248.7813"/><text fill="#000000" font-family="sans-serif" font-size="20" lengthAdjust="spacing" textLength="197" x="428.5" y="242.3867">POST (/api/passages)</text><line style="stroke:#181818;stroke-width:1.0;" x1="743.5" x2="785.5" y1="287.9375" y2="287.9375"/><line style="stroke:#181818;stroke-width:1.0;" x1="785.5" x2="785.5" y1="287.9375" y2="300.9375"/><line style="stroke:#181818;stroke-width:1.0;" x1="744.5" x2="785.5" y1="300.9375" y2="300.9375"/><polygon fill="#181818" points="754.5,296.9375,744.5,300.9375,754.5,304.9375,750.5,300.9375" style="stroke:#181818;stroke-width:1.0;"/><text fill="#000000" font-family="sans-serif" font-size="20" lengthAdjust="spacing" textLength="247" x="750.5" y="281.543">Valida edifícios e passagem</text><path d="M10,315.9375 L78,315.9375 L78,333.0938 L68,343.0938 L10,343.0938 L10,315.9375 " fill="#EEEEEE" style="stroke:#000000;stroke-width:1.5;"/><rect fill="none" height="273.25" style="stroke:#000000;stroke-width:1.5;" width="885.5" x="10" y="315.9375"/><text fill="#000000" font-family="sans-serif" font-size="20" font-weight="bold" lengthAdjust="spacing" textLength="23" x="25" y="337.6992">alt</text><text fill="#000000" font-family="sans-serif" font-size="20" font-weight="bold" lengthAdjust="spacing" textLength="273" x="93" y="338.6992">[valida edifícios e passagem]</text><line style="stroke:#181818;stroke-width:1.0;" x1="743.5" x2="785.5" y1="384.4063" y2="384.4063"/><line style="stroke:#181818;stroke-width:1.0;" x1="785.5" x2="785.5" y1="384.4063" y2="397.4063"/><line style="stroke:#181818;stroke-width:1.0;" x1="744.5" x2="785.5" y1="397.4063" y2="397.4063"/><polygon fill="#181818" points="754.5,393.4063,744.5,397.4063,754.5,401.4063,750.5,397.4063" style="stroke:#181818;stroke-width:1.0;"/><text fill="#000000" font-family="sans-serif" font-size="20" lengthAdjust="spacing" textLength="133" x="750.5" y="378.0117">Cria passagem</text><polygon fill="#181818" points="432.5,432.5625,422.5,436.5625,432.5,440.5625,428.5,436.5625" style="stroke:#181818;stroke-width:1.0;"/><line style="stroke:#181818;stroke-width:1.0;" x1="426.5" x2="742.5" y1="436.5625" y2="436.5625"/><text fill="#000000" font-family="sans-serif" font-size="20" lengthAdjust="spacing" textLength="298" x="438.5" y="430.168">Retorna informação da passagem</text><polygon fill="#181818" points="57.5,471.7188,47.5,475.7188,57.5,479.7188,53.5,475.7188" style="stroke:#181818;stroke-width:1.0;"/><line style="stroke:#181818;stroke-width:1.0;stroke-dasharray:2.0,2.0;" x1="51.5" x2="420.5" y1="475.7188" y2="475.7188"/><text fill="#000000" font-family="sans-serif" font-size="20" lengthAdjust="spacing" textLength="298" x="63.5" y="469.3242">Retorna informação da passagem</text><line style="stroke:#000000;stroke-width:1.0;stroke-dasharray:2.0,2.0;" x1="10" x2="895.5" y1="484.7188" y2="484.7188"/><text fill="#000000" font-family="sans-serif" font-size="20" font-weight="bold" lengthAdjust="spacing" textLength="315" x="15" y="505.4805">[edifícios ou passagem inválidos]</text><polygon fill="#181818" points="432.5,538.0313,422.5,542.0313,432.5,546.0313,428.5,542.0313" style="stroke:#181818;stroke-width:1.0;"/><line style="stroke:#181818;stroke-width:1.0;" x1="426.5" x2="742.5" y1="542.0313" y2="542.0313"/><text fill="#000000" font-family="sans-serif" font-size="20" lengthAdjust="spacing" textLength="112" x="438.5" y="535.6367">Retorna erro</text><polygon fill="#181818" points="57.5,577.1875,47.5,581.1875,57.5,585.1875,53.5,581.1875" style="stroke:#181818;stroke-width:1.0;"/><line style="stroke:#181818;stroke-width:1.0;stroke-dasharray:2.0,2.0;" x1="51.5" x2="420.5" y1="581.1875" y2="581.1875"/><text fill="#000000" font-family="sans-serif" font-size="20" lengthAdjust="spacing" textLength="112" x="63.5" y="574.793">Retorna erro</text><!--SRC=[XP6nReCm48PtFyKfKp94gQfEA492g5qRXQhx2H_LAM1Jsp3aRQeEdVeKl5WDeJL5QM6mJkB__hl_pfvOrMYmAdL-8WcI2cnAzw2Lo_XCS7iZ1EPE6qY65-sb41vod7EDoi4gEoIh_bVgCMH51lRxKA_JkqqS_oOIK-6Pge4QwskCk7JTni4wWjGm6gZHMdpn62bd24XoqNtchAq8BbiF3WuH7Ecr8SiEWLMXVSVketlNq6S7_36xtl1UjOmWKMhhto2UD8g_KqHmUCoUOBt3cdUZqcwyxnXogdp6ahrV61reCWcM3jf_5U2_QxxzWe9iffhaEfBFgcORaJFqZsqka5JQwKr0D-5WhDhkpUVofrgUZOpHotCCAb9IV040]--></g></svg>