<?xml version="1.0" encoding="UTF-8" standalone="no"?><svg xmlns="http://www.w3.org/2000/svg" xmlns:xlink="http://www.w3.org/1999/xlink" contentStyleType="text/css" height="695px" preserveAspectRatio="none" style="width:997px;height:695px;background:#FFFFFF;" version="1.1" viewBox="0 0 997 695" width="997px" zoomAndPan="magnify"><defs/><g><rect fill="none" height="273.25" style="stroke:#000000;stroke-width:1.5;" width="878.5" x="10" y="315.9375"/><line style="stroke:#181818;stroke-width:0.5;stroke-dasharray:5.0,5.0;" x1="46" x2="46" y1="90.1563" y2="606.1875"/><line style="stroke:#181818;stroke-width:0.5;stroke-dasharray:5.0,5.0;" x1="414" x2="414" y1="90.1563" y2="606.1875"/><line style="stroke:#181818;stroke-width:0.5;stroke-dasharray:5.0,5.0;" x1="736" x2="736" y1="90.1563" y2="606.1875"/><text fill="#000000" font-family="sans-serif" font-size="20" lengthAdjust="spacing" textLength="47" x="20" y="85.7617">Actor</text><ellipse cx="46.5" cy="13.5" fill="#E2E2F0" rx="8" ry="8" style="stroke:#181818;stroke-width:0.5;"/><path d="M46.5,21.5 L46.5,48.5 M33.5,29.5 L59.5,29.5 M46.5,48.5 L33.5,63.5 M46.5,48.5 L59.5,63.5 " fill="none" style="stroke:#181818;stroke-width:0.5;"/><text fill="#000000" font-family="sans-serif" font-size="20" lengthAdjust="spacing" textLength="47" x="20" y="625.9492">Actor</text><ellipse cx="46.5" cy="638.8438" fill="#E2E2F0" rx="8" ry="8" style="stroke:#181818;stroke-width:0.5;"/><path d="M46.5,646.8438 L46.5,673.8438 M33.5,654.8438 L59.5,654.8438 M46.5,673.8438 L33.5,688.8438 M46.5,673.8438 L59.5,688.8438 " fill="none" style="stroke:#181818;stroke-width:0.5;"/><rect fill="#E2E2F0" height="64.3125" rx="2.5" ry="2.5" style="stroke:#181818;stroke-width:0.5;" width="167" x="331" y="24.8438"/><text fill="#000000" font-family="sans-serif" font-size="20" font-style="italic" lengthAdjust="spacing" textLength="153" x="338" y="52.6055">«Container (C4)»</text><text fill="#000000" font-family="sans-serif" font-size="20" lengthAdjust="spacing" textLength="39" x="395" y="77.7617">SPA</text><rect fill="#E2E2F0" height="64.3125" rx="2.5" ry="2.5" style="stroke:#181818;stroke-width:0.5;" width="167" x="331" y="605.1875"/><text fill="#000000" font-family="sans-serif" font-size="20" font-style="italic" lengthAdjust="spacing" textLength="153" x="338" y="632.9492">«Container (C4)»</text><text fill="#000000" font-family="sans-serif" font-size="20" lengthAdjust="spacing" textLength="39" x="395" y="658.1055">SPA</text><rect fill="#E2E2F0" height="64.3125" rx="2.5" ry="2.5" style="stroke:#181818;stroke-width:0.5;" width="167" x="653" y="24.8438"/><text fill="#000000" font-family="sans-serif" font-size="20" font-style="italic" lengthAdjust="spacing" textLength="153" x="660" y="52.6055">«Container (C4)»</text><text fill="#000000" font-family="sans-serif" font-size="20" lengthAdjust="spacing" textLength="130" x="671.5" y="77.7617">GestaoInfoAPI</text><rect fill="#E2E2F0" height="64.3125" rx="2.5" ry="2.5" style="stroke:#181818;stroke-width:0.5;" width="167" x="653" y="605.1875"/><text fill="#000000" font-family="sans-serif" font-size="20" font-style="italic" lengthAdjust="spacing" textLength="153" x="660" y="632.9492">«Container (C4)»</text><text fill="#000000" font-family="sans-serif" font-size="20" lengthAdjust="spacing" textLength="130" x="671.5" y="658.1055">GestaoInfoAPI</text><polygon fill="#181818" points="402.5,127.3125,412.5,131.3125,402.5,135.3125,406.5,131.3125" style="stroke:#181818;stroke-width:1.0;"/><line style="stroke:#181818;stroke-width:1.0;" x1="46.5" x2="408.5" y1="131.3125" y2="131.3125"/><text fill="#000000" font-family="sans-serif" font-size="20" lengthAdjust="spacing" textLength="270" x="53.5" y="124.918">Criar passagem entre edifícios</text><polygon fill="#181818" points="57.5,166.4688,47.5,170.4688,57.5,174.4688,53.5,170.4688" style="stroke:#181818;stroke-width:1.0;"/><line style="stroke:#181818;stroke-width:1.0;stroke-dasharray:2.0,2.0;" x1="51.5" x2="413.5" y1="170.4688" y2="170.4688"/><text fill="#000000" font-family="sans-serif" font-size="20" lengthAdjust="spacing" textLength="344" x="63.5" y="164.0742">Requisita informação para a passagem</text><polygon fill="#181818" points="402.5,205.625,412.5,209.625,402.5,213.625,406.5,209.625" style="stroke:#181818;stroke-width:1.0;"/><line style="stroke:#181818;stroke-width:1.0;" x1="46.5" x2="408.5" y1="209.625" y2="209.625"/><text fill="#000000" font-family="sans-serif" font-size="20" lengthAdjust="spacing" textLength="232" x="53.5" y="203.2305">Envia dados da passagem</text><polygon fill="#181818" points="724.5,244.7813,734.5,248.7813,724.5,252.7813,728.5,248.7813" style="stroke:#181818;stroke-width:1.0;"/><line style="stroke:#181818;stroke-width:1.0;" x1="414.5" x2="730.5" y1="248.7813" y2="248.7813"/><text fill="#000000" font-family="sans-serif" font-size="20" lengthAdjust="spacing" textLength="197" x="421.5" y="242.3867">POST (/api/passages)</text><line style="stroke:#181818;stroke-width:1.0;" x1="736.5" x2="778.5" y1="287.9375" y2="287.9375"/><line style="stroke:#181818;stroke-width:1.0;" x1="778.5" x2="778.5" y1="287.9375" y2="300.9375"/><line style="stroke:#181818;stroke-width:1.0;" x1="737.5" x2="778.5" y1="300.9375" y2="300.9375"/><polygon fill="#181818" points="747.5,296.9375,737.5,300.9375,747.5,304.9375,743.5,300.9375" style="stroke:#181818;stroke-width:1.0;"/><text fill="#000000" font-family="sans-serif" font-size="20" lengthAdjust="spacing" textLength="247" x="743.5" y="281.543">Valida edifícios e passagem</text><path d="M10,315.9375 L78,315.9375 L78,333.0938 L68,343.0938 L10,343.0938 L10,315.9375 " fill="#EEEEEE" style="stroke:#000000;stroke-width:1.5;"/><rect fill="none" height="273.25" style="stroke:#000000;stroke-width:1.5;" width="878.5" x="10" y="315.9375"/><text fill="#000000" font-family="sans-serif" font-size="20" font-weight="bold" lengthAdjust="spacing" textLength="23" x="25" y="337.6992">alt</text><text fill="#000000" font-family="sans-serif" font-size="20" font-weight="bold" lengthAdjust="spacing" textLength="273" x="93" y="338.6992">[valida edifícios e passagem]</text><line style="stroke:#181818;stroke-width:1.0;" x1="736.5" x2="778.5" y1="384.4063" y2="384.4063"/><line style="stroke:#181818;stroke-width:1.0;" x1="778.5" x2="778.5" y1="384.4063" y2="397.4063"/><line style="stroke:#181818;stroke-width:1.0;" x1="737.5" x2="778.5" y1="397.4063" y2="397.4063"/><polygon fill="#181818" points="747.5,393.4063,737.5,397.4063,747.5,401.4063,743.5,397.4063" style="stroke:#181818;stroke-width:1.0;"/><text fill="#000000" font-family="sans-serif" font-size="20" lengthAdjust="spacing" textLength="133" x="743.5" y="378.0117">Cria passagem</text><polygon fill="#181818" points="425.5,432.5625,415.5,436.5625,425.5,440.5625,421.5,436.5625" style="stroke:#181818;stroke-width:1.0;"/><line style="stroke:#181818;stroke-width:1.0;" x1="419.5" x2="735.5" y1="436.5625" y2="436.5625"/><text fill="#000000" font-family="sans-serif" font-size="20" lengthAdjust="spacing" textLength="298" x="431.5" y="430.168">Retorna informação da passagem</text><polygon fill="#181818" points="57.5,471.7188,47.5,475.7188,57.5,479.7188,53.5,475.7188" style="stroke:#181818;stroke-width:1.0;"/><line style="stroke:#181818;stroke-width:1.0;stroke-dasharray:2.0,2.0;" x1="51.5" x2="413.5" y1="475.7188" y2="475.7188"/><text fill="#000000" font-family="sans-serif" font-size="20" lengthAdjust="spacing" textLength="298" x="63.5" y="469.3242">Retorna informação da passagem</text><line style="stroke:#000000;stroke-width:1.0;stroke-dasharray:2.0,2.0;" x1="10" x2="888.5" y1="484.7188" y2="484.7188"/><text fill="#000000" font-family="sans-serif" font-size="20" font-weight="bold" lengthAdjust="spacing" textLength="315" x="15" y="505.4805">[edifícios ou passagem inválidos]</text><polygon fill="#181818" points="425.5,538.0313,415.5,542.0313,425.5,546.0313,421.5,542.0313" style="stroke:#181818;stroke-width:1.0;"/><line style="stroke:#181818;stroke-width:1.0;" x1="419.5" x2="735.5" y1="542.0313" y2="542.0313"/><text fill="#000000" font-family="sans-serif" font-size="20" lengthAdjust="spacing" textLength="112" x="431.5" y="535.6367">Retorna erro</text><polygon fill="#181818" points="57.5,577.1875,47.5,581.1875,57.5,585.1875,53.5,581.1875" style="stroke:#181818;stroke-width:1.0;"/><line style="stroke:#181818;stroke-width:1.0;stroke-dasharray:2.0,2.0;" x1="51.5" x2="413.5" y1="581.1875" y2="581.1875"/><text fill="#000000" font-family="sans-serif" font-size="20" lengthAdjust="spacing" textLength="112" x="63.5" y="574.793">Retorna erro</text><!--SRC=[XL6zJiCm4Dxp5ATExL0L8QQeYbH5W3eHDOZz55_GgOaTR2S3RuCOc7YAl1YN572eIkl1Fkc-d_lERi-wGOjrPOezAL1KOblvEwDzpgy4rrTHX8Kt5ZRZZUvGH4BoN723siCippQpePKA3LcJXVKwrFFqPf4aVndtv3oQhIxD9jkEN7bFiQA3xp89uZ6abj52WyxXCzL0sbi2KbpsdmKR5mMLfH17XHXszDAoOu_0Ocjhx3_wTmD3Ui1ViTE6jxfZ18NAEBa3U6AK30bYo1xoHvYliE7LDyejH5F2_I2Ui6BH2EC2JTonyj2THO2SgTwmZD2UT2VpxqWowQFaweZspzOkCAboqzs3QSF7iExwDyaYNt9-BhBMN9vXH95MqHS0]--></g></svg>