<?xml version="1.0" encoding="UTF-8" standalone="no"?><svg xmlns="http://www.w3.org/2000/svg" xmlns:xlink="http://www.w3.org/1999/xlink" contentStyleType="text/css" height="552px" preserveAspectRatio="none" style="width:633px;height:552px;background:#FFFFFF;" version="1.1" viewBox="0 0 633 552" width="633px" zoomAndPan="magnify"><defs/><g><rect fill="none" height="142.7813" style="stroke:#000000;stroke-width:1.5;" width="450" x="10" y="302.9375"/><line style="stroke:#181818;stroke-width:0.5;stroke-dasharray:5.0,5.0;" x1="104" x2="104" y1="90.1563" y2="462.7188"/><line style="stroke:#181818;stroke-width:0.5;stroke-dasharray:5.0,5.0;" x1="366" x2="366" y1="90.1563" y2="462.7188"/><line style="stroke:#181818;stroke-width:0.5;stroke-dasharray:5.0,5.0;" x1="543" x2="543" y1="90.1563" y2="462.7188"/><text fill="#000000" font-family="sans-serif" font-size="20" lengthAdjust="spacing" textLength="163" x="20" y="85.7617">Gestor de campus</text><ellipse cx="104.5" cy="13.5" fill="#E2E2F0" rx="8" ry="8" style="stroke:#181818;stroke-width:0.5;"/><path d="M104.5,21.5 L104.5,48.5 M91.5,29.5 L117.5,29.5 M104.5,48.5 L91.5,63.5 M104.5,48.5 L117.5,63.5 " fill="none" style="stroke:#181818;stroke-width:0.5;"/><text fill="#000000" font-family="sans-serif" font-size="20" lengthAdjust="spacing" textLength="163" x="20" y="482.4805">Gestor de campus</text><ellipse cx="104.5" cy="495.375" fill="#E2E2F0" rx="8" ry="8" style="stroke:#181818;stroke-width:0.5;"/><path d="M104.5,503.375 L104.5,530.375 M91.5,511.375 L117.5,511.375 M104.5,530.375 L91.5,545.375 M104.5,530.375 L117.5,545.375 " fill="none" style="stroke:#181818;stroke-width:0.5;"/><rect fill="#E2E2F0" height="64.3125" rx="2.5" ry="2.5" style="stroke:#181818;stroke-width:0.5;" width="167" x="283" y="24.8438"/><text fill="#000000" font-family="sans-serif" font-size="20" font-style="italic" lengthAdjust="spacing" textLength="153" x="290" y="52.6055">«Container (C4)»</text><text fill="#000000" font-family="sans-serif" font-size="20" lengthAdjust="spacing" textLength="39" x="347" y="77.7617">SPA</text><rect fill="#E2E2F0" height="64.3125" rx="2.5" ry="2.5" style="stroke:#181818;stroke-width:0.5;" width="167" x="283" y="461.7188"/><text fill="#000000" font-family="sans-serif" font-size="20" font-style="italic" lengthAdjust="spacing" textLength="153" x="290" y="489.4805">«Container (C4)»</text><text fill="#000000" font-family="sans-serif" font-size="20" lengthAdjust="spacing" textLength="39" x="347" y="514.6367">SPA</text><rect fill="#E2E2F0" height="64.3125" rx="2.5" ry="2.5" style="stroke:#181818;stroke-width:0.5;" width="167" x="460" y="24.8438"/><text fill="#000000" font-family="sans-serif" font-size="20" font-style="italic" lengthAdjust="spacing" textLength="153" x="467" y="52.6055">«Container (C4)»</text><text fill="#000000" font-family="sans-serif" font-size="20" lengthAdjust="spacing" textLength="130" x="478.5" y="77.7617">GestaoInfoAPI</text><rect fill="#E2E2F0" height="64.3125" rx="2.5" ry="2.5" style="stroke:#181818;stroke-width:0.5;" width="167" x="460" y="461.7188"/><text fill="#000000" font-family="sans-serif" font-size="20" font-style="italic" lengthAdjust="spacing" textLength="153" x="467" y="489.4805">«Container (C4)»</text><text fill="#000000" font-family="sans-serif" font-size="20" lengthAdjust="spacing" textLength="130" x="478.5" y="514.6367">GestaoInfoAPI</text><polygon fill="#181818" points="354.5,127.3125,364.5,131.3125,354.5,135.3125,358.5,131.3125" style="stroke:#181818;stroke-width:1.0;"/><line style="stroke:#181818;stroke-width:1.0;" x1="104.5" x2="360.5" y1="131.3125" y2="131.3125"/><text fill="#000000" font-family="sans-serif" font-size="20" lengthAdjust="spacing" textLength="178" x="111.5" y="124.918">criar piso de edifício</text><polygon fill="#181818" points="115.5,166.4688,105.5,170.4688,115.5,174.4688,111.5,170.4688" style="stroke:#181818;stroke-width:1.0;"/><line style="stroke:#181818;stroke-width:1.0;stroke-dasharray:2.0,2.0;" x1="109.5" x2="365.5" y1="170.4688" y2="170.4688"/><text fill="#000000" font-family="sans-serif" font-size="20" lengthAdjust="spacing" textLength="231" x="121.5" y="164.0742">requisita os dados do piso</text><polygon fill="#181818" points="354.5,205.625,364.5,209.625,354.5,213.625,358.5,209.625" style="stroke:#181818;stroke-width:1.0;"/><line style="stroke:#181818;stroke-width:1.0;stroke-dasharray:2.0,2.0;" x1="104.5" x2="360.5" y1="209.625" y2="209.625"/><text fill="#000000" font-family="sans-serif" font-size="20" lengthAdjust="spacing" textLength="210" x="111.5" y="203.2305">insere os dados do piso</text><polygon fill="#181818" points="531.5,244.7813,541.5,248.7813,531.5,252.7813,535.5,248.7813" style="stroke:#181818;stroke-width:1.0;"/><line style="stroke:#181818;stroke-width:1.0;" x1="366.5" x2="537.5" y1="248.7813" y2="248.7813"/><text fill="#000000" font-family="sans-serif" font-size="20" lengthAdjust="spacing" textLength="139" x="373.5" y="242.3867">post(/api/floors)</text><polygon fill="#181818" points="377.5,283.9375,367.5,287.9375,377.5,291.9375,373.5,287.9375" style="stroke:#181818;stroke-width:1.0;"/><line style="stroke:#181818;stroke-width:1.0;stroke-dasharray:2.0,2.0;" x1="371.5" x2="542.5" y1="287.9375" y2="287.9375"/><text fill="#000000" font-family="sans-serif" font-size="20" lengthAdjust="spacing" textLength="102" x="383.5" y="281.543">status code</text><path d="M10,302.9375 L78,302.9375 L78,320.0938 L68,330.0938 L10,330.0938 L10,302.9375 " fill="#EEEEEE" style="stroke:#000000;stroke-width:1.5;"/><rect fill="none" height="142.7813" style="stroke:#000000;stroke-width:1.5;" width="450" x="10" y="302.9375"/><text fill="#000000" font-family="sans-serif" font-size="20" font-weight="bold" lengthAdjust="spacing" textLength="23" x="25" y="324.6992">alt</text><text fill="#000000" font-family="sans-serif" font-size="20" font-weight="bold" lengthAdjust="spacing" textLength="47" x="93" y="325.6992">[200]</text><polygon fill="#181818" points="115.5,367.4063,105.5,371.4063,115.5,375.4063,111.5,371.4063" style="stroke:#181818;stroke-width:1.0;"/><line style="stroke:#181818;stroke-width:1.0;stroke-dasharray:2.0,2.0;" x1="109.5" x2="365.5" y1="371.4063" y2="371.4063"/><text fill="#000000" font-family="sans-serif" font-size="20" lengthAdjust="spacing" textLength="185" x="121.5" y="365.0117">devolve o piso criado</text><line style="stroke:#000000;stroke-width:1.0;stroke-dasharray:2.0,2.0;" x1="10" x2="460" y1="380.4063" y2="380.4063"/><text fill="#000000" font-family="sans-serif" font-size="20" font-weight="bold" lengthAdjust="spacing" textLength="47" x="15" y="401.168">[400]</text><polygon fill="#181818" points="115.5,433.7188,105.5,437.7188,115.5,441.7188,111.5,437.7188" style="stroke:#181818;stroke-width:1.0;"/><line style="stroke:#181818;stroke-width:1.0;stroke-dasharray:2.0,2.0;" x1="109.5" x2="365.5" y1="437.7188" y2="437.7188"/><text fill="#000000" font-family="sans-serif" font-size="20" lengthAdjust="spacing" textLength="238" x="121.5" y="431.3242">devolve mensagem de erro</text><!--SRC=[XP31QiCm38RlVWgHKtie3QEdK0AXi95Re4yWR6M89bPcEJtidVOKUx7PAIFhLfWFja7-FkctNjXF670Sn5x8WQCUvo4-YuzdVYTuAer16oL0yKAQJqTWSPncBG0LcbmpoH3PyeG-Gd7kcgLqIWvaJm6En_M-EHssTNrFP3DAwtjfklQcxTf7b5dQmQvUvHNOm1XWOfKy6pdkFpyiYrdfNG8Mie90RpChHmHHSEZoBWlyxRwNirSAzFVn3tcTfwrW4esRFKwyxmUHeDiqRKhnovU2nbd1YYE3Gqp_Mnf8w-6mZguoN5FtMxeSr8cXGGaEPGd_WoDvnLSQbuy98R7U6VC5]--></g></svg>