<?xml version="1.0" encoding="UTF-8" standalone="no"?><svg xmlns="http://www.w3.org/2000/svg" xmlns:xlink="http://www.w3.org/1999/xlink" contentStyleType="text/css" height="552px" preserveAspectRatio="none" style="width:850px;height:552px;background:#FFFFFF;" version="1.1" viewBox="0 0 850 552" width="850px" zoomAndPan="magnify"><defs/><g><rect fill="none" height="142.7813" style="stroke:#000000;stroke-width:1.5;" width="656" x="10" y="302.9375"/><line style="stroke:#181818;stroke-width:0.5;stroke-dasharray:5.0,5.0;" x1="104" x2="104" y1="90.1563" y2="462.7188"/><line style="stroke:#181818;stroke-width:0.5;stroke-dasharray:5.0,5.0;" x1="572" x2="572" y1="90.1563" y2="462.7188"/><line style="stroke:#181818;stroke-width:0.5;stroke-dasharray:5.0,5.0;" x1="760" x2="760" y1="90.1563" y2="462.7188"/><text fill="#000000" font-family="sans-serif" font-size="20" lengthAdjust="spacing" textLength="163" x="20" y="85.7617">Gestor de campus</text><ellipse cx="104.5" cy="13.5" fill="#E2E2F0" rx="8" ry="8" style="stroke:#181818;stroke-width:0.5;"/><path d="M104.5,21.5 L104.5,48.5 M91.5,29.5 L117.5,29.5 M104.5,48.5 L91.5,63.5 M104.5,48.5 L117.5,63.5 " fill="none" style="stroke:#181818;stroke-width:0.5;"/><text fill="#000000" font-family="sans-serif" font-size="20" lengthAdjust="spacing" textLength="163" x="20" y="482.4805">Gestor de campus</text><ellipse cx="104.5" cy="495.375" fill="#E2E2F0" rx="8" ry="8" style="stroke:#181818;stroke-width:0.5;"/><path d="M104.5,503.375 L104.5,530.375 M91.5,511.375 L117.5,511.375 M104.5,530.375 L91.5,545.375 M104.5,530.375 L117.5,545.375 " fill="none" style="stroke:#181818;stroke-width:0.5;"/><rect fill="#E2E2F0" height="64.3125" rx="2.5" ry="2.5" style="stroke:#181818;stroke-width:0.5;" width="167" x="489" y="24.8438"/><text fill="#000000" font-family="sans-serif" font-size="20" font-style="italic" lengthAdjust="spacing" textLength="153" x="496" y="52.6055">«Container (C4)»</text><text fill="#000000" font-family="sans-serif" font-size="20" lengthAdjust="spacing" textLength="39" x="553" y="77.7617">SPA</text><rect fill="#E2E2F0" height="64.3125" rx="2.5" ry="2.5" style="stroke:#181818;stroke-width:0.5;" width="167" x="489" y="461.7188"/><text fill="#000000" font-family="sans-serif" font-size="20" font-style="italic" lengthAdjust="spacing" textLength="153" x="496" y="489.4805">«Container (C4)»</text><text fill="#000000" font-family="sans-serif" font-size="20" lengthAdjust="spacing" textLength="39" x="553" y="514.6367">SPA</text><rect fill="#E2E2F0" height="64.3125" rx="2.5" ry="2.5" style="stroke:#181818;stroke-width:0.5;" width="167" x="677" y="24.8438"/><text fill="#000000" font-family="sans-serif" font-size="20" font-style="italic" lengthAdjust="spacing" textLength="153" x="684" y="52.6055">«Container (C4)»</text><text fill="#000000" font-family="sans-serif" font-size="20" lengthAdjust="spacing" textLength="130" x="695.5" y="77.7617">GestaoInfoAPI</text><rect fill="#E2E2F0" height="64.3125" rx="2.5" ry="2.5" style="stroke:#181818;stroke-width:0.5;" width="167" x="677" y="461.7188"/><text fill="#000000" font-family="sans-serif" font-size="20" font-style="italic" lengthAdjust="spacing" textLength="153" x="684" y="489.4805">«Container (C4)»</text><text fill="#000000" font-family="sans-serif" font-size="20" lengthAdjust="spacing" textLength="130" x="695.5" y="514.6367">GestaoInfoAPI</text><polygon fill="#181818" points="560.5,127.3125,570.5,131.3125,560.5,135.3125,564.5,131.3125" style="stroke:#181818;stroke-width:1.0;"/><line style="stroke:#181818;stroke-width:1.0;" x1="104.5" x2="566.5" y1="131.3125" y2="131.3125"/><text fill="#000000" font-family="sans-serif" font-size="20" lengthAdjust="spacing" textLength="444" x="111.5" y="124.918">Pretende editar as informações de uma passagem</text><polygon fill="#181818" points="115.5,166.4688,105.5,170.4688,115.5,174.4688,111.5,170.4688" style="stroke:#181818;stroke-width:1.0;"/><line style="stroke:#181818;stroke-width:1.0;stroke-dasharray:2.0,2.0;" x1="109.5" x2="571.5" y1="170.4688" y2="170.4688"/><text fill="#000000" font-family="sans-serif" font-size="20" lengthAdjust="spacing" textLength="358" x="121.5" y="164.0742">Mostra informações atuais da passagem</text><polygon fill="#181818" points="560.5,205.625,570.5,209.625,560.5,213.625,564.5,209.625" style="stroke:#181818;stroke-width:1.0;"/><line style="stroke:#181818;stroke-width:1.0;stroke-dasharray:2.0,2.0;" x1="104.5" x2="566.5" y1="209.625" y2="209.625"/><text fill="#000000" font-family="sans-serif" font-size="20" lengthAdjust="spacing" textLength="211" x="111.5" y="203.2305">Envia dados atualizados</text><polygon fill="#181818" points="748.5,244.7813,758.5,248.7813,748.5,252.7813,752.5,248.7813" style="stroke:#181818;stroke-width:1.0;"/><line style="stroke:#181818;stroke-width:1.0;" x1="572.5" x2="754.5" y1="248.7813" y2="248.7813"/><text fill="#000000" font-family="sans-serif" font-size="20" lengthAdjust="spacing" textLength="164" x="579.5" y="242.3867">put(/api/passages)</text><polygon fill="#181818" points="583.5,283.9375,573.5,287.9375,583.5,291.9375,579.5,287.9375" style="stroke:#181818;stroke-width:1.0;"/><line style="stroke:#181818;stroke-width:1.0;stroke-dasharray:2.0,2.0;" x1="577.5" x2="759.5" y1="287.9375" y2="287.9375"/><text fill="#000000" font-family="sans-serif" font-size="20" lengthAdjust="spacing" textLength="102" x="589.5" y="281.543">status code</text><path d="M10,302.9375 L78,302.9375 L78,320.0938 L68,330.0938 L10,330.0938 L10,302.9375 " fill="#EEEEEE" style="stroke:#000000;stroke-width:1.5;"/><rect fill="none" height="142.7813" style="stroke:#000000;stroke-width:1.5;" width="656" x="10" y="302.9375"/><text fill="#000000" font-family="sans-serif" font-size="20" font-weight="bold" lengthAdjust="spacing" textLength="23" x="25" y="324.6992">alt</text><text fill="#000000" font-family="sans-serif" font-size="20" font-weight="bold" lengthAdjust="spacing" textLength="47" x="93" y="325.6992">[200]</text><polygon fill="#181818" points="115.5,367.4063,105.5,371.4063,115.5,375.4063,111.5,371.4063" style="stroke:#181818;stroke-width:1.0;"/><line style="stroke:#181818;stroke-width:1.0;stroke-dasharray:2.0,2.0;" x1="109.5" x2="571.5" y1="371.4063" y2="371.4063"/><text fill="#000000" font-family="sans-serif" font-size="20" lengthAdjust="spacing" textLength="254" x="121.5" y="365.0117">Devolve a passagem editada</text><line style="stroke:#000000;stroke-width:1.0;stroke-dasharray:2.0,2.0;" x1="10" x2="666" y1="380.4063" y2="380.4063"/><text fill="#000000" font-family="sans-serif" font-size="20" font-weight="bold" lengthAdjust="spacing" textLength="47" x="15" y="401.168">[400]</text><polygon fill="#181818" points="115.5,433.7188,105.5,437.7188,115.5,441.7188,111.5,437.7188" style="stroke:#181818;stroke-width:1.0;"/><line style="stroke:#181818;stroke-width:1.0;stroke-dasharray:2.0,2.0;" x1="109.5" x2="571.5" y1="437.7188" y2="437.7188"/><text fill="#000000" font-family="sans-serif" font-size="20" lengthAdjust="spacing" textLength="241" x="121.5" y="431.3242">Devolve mensagem de erro</text><!--SRC=[ZP5DQiCm48NtEiNWLR882IKh4mmc_S6BWY4d6An94T4Vakn5BjGJz0IvM4Tsm7N8ejf8C7hVl7aJByfw36YqwouaGT8PUvtUdKqdTILusGc1NN81YW-A-PO47HhVnm8mGfrhWWb9TSgZJL2Ssdei7Pc1obA0ms5-huxxTLKj5PcChh5dLxVDX6sRPoenjeDDDSDBQ0CbicoBf4eOibmnAXYyVTz-A6R7lK7m62D-aH5YvcuODJ9B-7Gn1NoGOkfHCU6l-kvXQUBD3WhvdtIJIAlh-5uqg_9S9VW-hRRerVREZ6k6yi0FICuazH4w9ubte1FlOYU0prFxhpGuFH3CJgSy90hIaM3_7x4XEqbpcY4umRcANm00]--></g></svg>