<?xml version="1.0" encoding="UTF-8" standalone="no"?><svg xmlns="http://www.w3.org/2000/svg" xmlns:xlink="http://www.w3.org/1999/xlink" contentStyleType="text/css" height="631px" preserveAspectRatio="none" style="width:1381px;height:631px;background:#FFFFFF;" version="1.1" viewBox="0 0 1381 631" width="1381px" zoomAndPan="magnify"><defs/><g><rect fill="#FFFFFF" height="514.0313" style="stroke:#181818;stroke-width:1.0;" width="10" x="26.5" y="55.1563"/><rect fill="#FFFFFF" height="482.875" style="stroke:#181818;stroke-width:1.0;" width="10" x="209.5" y="86.3125"/><rect fill="#FFFFFF" height="404.5625" style="stroke:#181818;stroke-width:1.0;" width="10" x="384.5" y="125.4688"/><rect fill="#FFFFFF" height="413.5625" style="stroke:#181818;stroke-width:1.0;" width="10" x="661.5" y="164.625"/><rect fill="#FFFFFF" height="169.625" style="stroke:#181818;stroke-width:1.0;" width="10" x="923.5" y="203.7813"/><rect fill="#FFFFFF" height="39.1563" style="stroke:#181818;stroke-width:1.0;" width="10" x="1072" y="412.5625"/><line style="stroke:#181818;stroke-width:0.5;stroke-dasharray:5.0,5.0;" x1="31" x2="31" y1="45.1563" y2="587.1875"/><line style="stroke:#181818;stroke-width:0.5;stroke-dasharray:5.0,5.0;" x1="214.5" x2="214.5" y1="45.1563" y2="587.1875"/><line style="stroke:#181818;stroke-width:0.5;stroke-dasharray:5.0,5.0;" x1="389.5" x2="389.5" y1="45.1563" y2="587.1875"/><line style="stroke:#181818;stroke-width:0.5;stroke-dasharray:5.0,5.0;" x1="666.5" x2="666.5" y1="45.1563" y2="587.1875"/><line style="stroke:#181818;stroke-width:0.5;stroke-dasharray:5.0,5.0;" x1="928.5" x2="928.5" y1="45.1563" y2="587.1875"/><line style="stroke:#181818;stroke-width:0.5;stroke-dasharray:5.0,5.0;" x1="1076.5" x2="1076.5" y1="45.1563" y2="587.1875"/><line style="stroke:#181818;stroke-width:0.5;stroke-dasharray:5.0,5.0;" x1="1222.5" x2="1222.5" y1="45.1563" y2="587.1875"/><line style="stroke:#181818;stroke-width:0.5;stroke-dasharray:5.0,5.0;" x1="1334.5" x2="1334.5" y1="45.1563" y2="587.1875"/><rect fill="#E2E2F0" height="39.1563" rx="2.5" ry="2.5" style="stroke:#181818;stroke-width:0.5;" width="53" x="5" y="5"/><text fill="#000000" font-family="sans-serif" font-size="20" lengthAdjust="spacing" textLength="39" x="12" y="32.7617">SPA</text><rect fill="#E2E2F0" height="39.1563" rx="2.5" ry="2.5" style="stroke:#181818;stroke-width:0.5;" width="53" x="5" y="586.1875"/><text fill="#000000" font-family="sans-serif" font-size="20" lengthAdjust="spacing" textLength="39" x="12" y="613.9492">SPA</text><rect fill="#E2E2F0" height="39.1563" rx="2.5" ry="2.5" style="stroke:#181818;stroke-width:0.5;" width="144" x="142.5" y="5"/><text fill="#000000" font-family="sans-serif" font-size="20" lengthAdjust="spacing" textLength="130" x="149.5" y="32.7617">GestaoInfoAPI</text><rect fill="#E2E2F0" height="39.1563" rx="2.5" ry="2.5" style="stroke:#181818;stroke-width:0.5;" width="144" x="142.5" y="586.1875"/><text fill="#000000" font-family="sans-serif" font-size="20" lengthAdjust="spacing" textLength="130" x="149.5" y="613.9492">GestaoInfoAPI</text><rect fill="#E2E2F0" height="39.1563" rx="2.5" ry="2.5" style="stroke:#181818;stroke-width:0.5;" width="166" x="306.5" y="5"/><text fill="#000000" font-family="sans-serif" font-size="20" lengthAdjust="spacing" textLength="152" x="313.5" y="32.7617">BuildingController</text><rect fill="#E2E2F0" height="39.1563" rx="2.5" ry="2.5" style="stroke:#181818;stroke-width:0.5;" width="166" x="306.5" y="586.1875"/><text fill="#000000" font-family="sans-serif" font-size="20" lengthAdjust="spacing" textLength="152" x="313.5" y="613.9492">BuildingController</text><rect fill="#E2E2F0" height="39.1563" rx="2.5" ry="2.5" style="stroke:#181818;stroke-width:0.5;" width="146" x="593.5" y="5"/><text fill="#000000" font-family="sans-serif" font-size="20" lengthAdjust="spacing" textLength="132" x="600.5" y="32.7617">BuildingService</text><rect fill="#E2E2F0" height="39.1563" rx="2.5" ry="2.5" style="stroke:#181818;stroke-width:0.5;" width="146" x="593.5" y="586.1875"/><text fill="#000000" font-family="sans-serif" font-size="20" lengthAdjust="spacing" textLength="132" x="600.5" y="613.9492">BuildingService</text><rect fill="#E2E2F0" height="39.1563" rx="2.5" ry="2.5" style="stroke:#181818;stroke-width:0.5;" width="128" x="864.5" y="5"/><text fill="#000000" font-family="sans-serif" font-size="20" lengthAdjust="spacing" textLength="114" x="871.5" y="32.7617">BuildingRepo</text><rect fill="#E2E2F0" height="39.1563" rx="2.5" ry="2.5" style="stroke:#181818;stroke-width:0.5;" width="128" x="864.5" y="586.1875"/><text fill="#000000" font-family="sans-serif" font-size="20" lengthAdjust="spacing" textLength="114" x="871.5" y="613.9492">BuildingRepo</text><rect fill="#E2E2F0" height="39.1563" rx="2.5" ry="2.5" style="stroke:#181818;stroke-width:0.5;" width="149" x="1002.5" y="5"/><text fill="#000000" font-family="sans-serif" font-size="20" lengthAdjust="spacing" textLength="135" x="1009.5" y="32.7617">BuildingMapper</text><rect fill="#E2E2F0" height="39.1563" rx="2.5" ry="2.5" style="stroke:#181818;stroke-width:0.5;" width="149" x="1002.5" y="586.1875"/><text fill="#000000" font-family="sans-serif" font-size="20" lengthAdjust="spacing" textLength="135" x="1009.5" y="613.9492">BuildingMapper</text><rect fill="#E2E2F0" height="39.1563" rx="2.5" ry="2.5" style="stroke:#181818;stroke-width:0.5;" width="123" x="1161.5" y="5"/><text fill="#000000" font-family="sans-serif" font-size="20" lengthAdjust="spacing" textLength="109" x="1168.5" y="32.7617">BuildingDTO</text><rect fill="#E2E2F0" height="39.1563" rx="2.5" ry="2.5" style="stroke:#181818;stroke-width:0.5;" width="123" x="1161.5" y="586.1875"/><text fill="#000000" font-family="sans-serif" font-size="20" lengthAdjust="spacing" textLength="109" x="1168.5" y="613.9492">BuildingDTO</text><rect fill="#E2E2F0" height="39.1563" rx="2.5" ry="2.5" style="stroke:#181818;stroke-width:0.5;" width="81" x="1294.5" y="5"/><text fill="#000000" font-family="sans-serif" font-size="20" lengthAdjust="spacing" textLength="67" x="1301.5" y="32.7617">Building</text><rect fill="#E2E2F0" height="39.1563" rx="2.5" ry="2.5" style="stroke:#181818;stroke-width:0.5;" width="81" x="1294.5" y="586.1875"/><text fill="#000000" font-family="sans-serif" font-size="20" lengthAdjust="spacing" textLength="67" x="1301.5" y="613.9492">Building</text><rect fill="#FFFFFF" height="514.0313" style="stroke:#181818;stroke-width:1.0;" width="10" x="26.5" y="55.1563"/><rect fill="#FFFFFF" height="482.875" style="stroke:#181818;stroke-width:1.0;" width="10" x="209.5" y="86.3125"/><rect fill="#FFFFFF" height="404.5625" style="stroke:#181818;stroke-width:1.0;" width="10" x="384.5" y="125.4688"/><rect fill="#FFFFFF" height="413.5625" style="stroke:#181818;stroke-width:1.0;" width="10" x="661.5" y="164.625"/><rect fill="#FFFFFF" height="169.625" style="stroke:#181818;stroke-width:1.0;" width="10" x="923.5" y="203.7813"/><rect fill="#FFFFFF" height="39.1563" style="stroke:#181818;stroke-width:1.0;" width="10" x="1072" y="412.5625"/><polygon fill="#181818" points="197.5,82.3125,207.5,86.3125,197.5,90.3125,201.5,86.3125" style="stroke:#181818;stroke-width:1.0;"/><line style="stroke:#181818;stroke-width:1.0;" x1="36.5" x2="203.5" y1="86.3125" y2="86.3125"/><text fill="#000000" font-family="sans-serif" font-size="20" lengthAdjust="spacing" textLength="154" x="43.5" y="79.918">put(/api/buildings)</text><polygon fill="#181818" points="372.5,121.4688,382.5,125.4688,372.5,129.4688,376.5,125.4688" style="stroke:#181818;stroke-width:1.0;"/><line style="stroke:#181818;stroke-width:1.0;" x1="219.5" x2="378.5" y1="125.4688" y2="125.4688"/><text fill="#000000" font-family="sans-serif" font-size="20" lengthAdjust="spacing" textLength="27" x="226.5" y="119.0742">put</text><polygon fill="#181818" points="649.5,160.625,659.5,164.625,649.5,168.625,653.5,164.625" style="stroke:#181818;stroke-width:1.0;"/><line style="stroke:#181818;stroke-width:1.0;" x1="394.5" x2="655.5" y1="164.625" y2="164.625"/><text fill="#000000" font-family="sans-serif" font-size="20" lengthAdjust="spacing" textLength="248" x="401.5" y="158.2305">updateBuilding(buildingDTO)</text><polygon fill="#181818" points="911.5,199.7813,921.5,203.7813,911.5,207.7813,915.5,203.7813" style="stroke:#181818;stroke-width:1.0;"/><line style="stroke:#181818;stroke-width:1.0;" x1="671.5" x2="917.5" y1="203.7813" y2="203.7813"/><text fill="#000000" font-family="sans-serif" font-size="20" lengthAdjust="spacing" textLength="233" x="678.5" y="197.3867">findByDomainId(buildingId)</text><polygon fill="#181818" points="682.5,238.9375,672.5,242.9375,682.5,246.9375,678.5,242.9375" style="stroke:#181818;stroke-width:1.0;"/><line style="stroke:#181818;stroke-width:1.0;stroke-dasharray:2.0,2.0;" x1="676.5" x2="922.5" y1="242.9375" y2="242.9375"/><text fill="#000000" font-family="sans-serif" font-size="20" lengthAdjust="spacing" textLength="65" x="688.5" y="236.543">building</text><line style="stroke:#181818;stroke-width:1.0;" x1="671.5" x2="713.5" y1="282.0938" y2="282.0938"/><line style="stroke:#181818;stroke-width:1.0;" x1="713.5" x2="713.5" y1="282.0938" y2="295.0938"/><line style="stroke:#181818;stroke-width:1.0;" x1="672.5" x2="713.5" y1="295.0938" y2="295.0938"/><polygon fill="#181818" points="682.5,291.0938,672.5,295.0938,682.5,299.0938,678.5,295.0938" style="stroke:#181818;stroke-width:1.0;"/><text fill="#000000" font-family="sans-serif" font-size="20" lengthAdjust="spacing" textLength="178" x="678.5" y="275.6992">updates building info</text><polygon fill="#181818" points="911.5,330.25,921.5,334.25,911.5,338.25,915.5,334.25" style="stroke:#181818;stroke-width:1.0;"/><line style="stroke:#181818;stroke-width:1.0;" x1="671.5" x2="917.5" y1="334.25" y2="334.25"/><text fill="#000000" font-family="sans-serif" font-size="20" lengthAdjust="spacing" textLength="120" x="678.5" y="327.8555">save(building)</text><polygon fill="#181818" points="682.5,369.4063,672.5,373.4063,682.5,377.4063,678.5,373.4063" style="stroke:#181818;stroke-width:1.0;"/><line style="stroke:#181818;stroke-width:1.0;stroke-dasharray:2.0,2.0;" x1="676.5" x2="927.5" y1="373.4063" y2="373.4063"/><text fill="#000000" font-family="sans-serif" font-size="20" lengthAdjust="spacing" textLength="65" x="688.5" y="367.0117">building</text><polygon fill="#181818" points="1060,408.5625,1070,412.5625,1060,416.5625,1064,412.5625" style="stroke:#181818;stroke-width:1.0;"/><line style="stroke:#181818;stroke-width:1.0;" x1="671.5" x2="1066" y1="412.5625" y2="412.5625"/><text fill="#000000" font-family="sans-serif" font-size="20" lengthAdjust="spacing" textLength="138" x="678.5" y="406.168">toDTO(building)</text><polygon fill="#181818" points="682.5,447.7188,672.5,451.7188,682.5,455.7188,678.5,451.7188" style="stroke:#181818;stroke-width:1.0;"/><line style="stroke:#181818;stroke-width:1.0;stroke-dasharray:2.0,2.0;" x1="676.5" x2="1076" y1="451.7188" y2="451.7188"/><text fill="#000000" font-family="sans-serif" font-size="20" lengthAdjust="spacing" textLength="107" x="688.5" y="445.3242">buildingDTO</text><polygon fill="#181818" points="405.5,486.875,395.5,490.875,405.5,494.875,401.5,490.875" style="stroke:#181818;stroke-width:1.0;"/><line style="stroke:#181818;stroke-width:1.0;stroke-dasharray:2.0,2.0;" x1="399.5" x2="660.5" y1="490.875" y2="490.875"/><text fill="#000000" font-family="sans-serif" font-size="20" lengthAdjust="spacing" textLength="107" x="411.5" y="484.4805">buildingDTO</text><polygon fill="#181818" points="230.5,526.0313,220.5,530.0313,230.5,534.0313,226.5,530.0313" style="stroke:#181818;stroke-width:1.0;"/><line style="stroke:#181818;stroke-width:1.0;stroke-dasharray:2.0,2.0;" x1="224.5" x2="388.5" y1="530.0313" y2="530.0313"/><text fill="#000000" font-family="sans-serif" font-size="20" lengthAdjust="spacing" textLength="141" x="236.5" y="523.6367">status code 201</text><polygon fill="#181818" points="42.5,565.1875,32.5,569.1875,42.5,573.1875,38.5,569.1875" style="stroke:#181818;stroke-width:1.0;"/><line style="stroke:#181818;stroke-width:1.0;stroke-dasharray:2.0,2.0;" x1="36.5" x2="213.5" y1="569.1875" y2="569.1875"/><text fill="#000000" font-family="sans-serif" font-size="20" lengthAdjust="spacing" textLength="71" x="48.5" y="562.793">success</text><!--SRC=[TPFDRiCW3CVlF8NLIzj3rMt772QrdJRbCArQzW8KQ8MQ0W8IQNlwsUIZHCiEV1Z_yhUnIRXguxZdjzgAgv8WrPatTNor9bRwHy7J0qDtr48xRY9Knzt4Nhof4BajpTdkZkK2U01SfyY-qRNKvd90JM_hMld47QAlvy5A-LOBbQZAj_FGft8s4RIPHzwvStqmtCupBryV2S1r7kYyziQrOOoBg5iULQe33jWyqtqBS4rSRRdJsrF_MLZVOQe8mubekdN2x-vK24Op0NZX0XedqJEai3hTayragJHi2S8hileKbtHCEfrTz6xMdrAn2ZXh8_VV7L7AKRwKcNegAqsm6R8Qk44iIpMCJj3u5gRX0c_L66JzdwXKqzY31hQkW6Znxfd6Y59ZSVpLeuPcaiHrYcCJSh8l_z1EVDEn2I2if3_WCHVgkfMwII6FEwGR8LG8EKKjpqp4VW40]--></g></svg>