<?xml version="1.0" encoding="UTF-8" standalone="no"?><svg xmlns="http://www.w3.org/2000/svg" xmlns:xlink="http://www.w3.org/1999/xlink" contentStyleType="text/css" height="500px" preserveAspectRatio="none" style="width:1343px;height:500px;background:#FFFFFF;" version="1.1" viewBox="0 0 1343 500" width="1343px" zoomAndPan="magnify"><defs/><g><rect fill="#FFFFFF" height="383.5625" style="stroke:#181818;stroke-width:1.0;" width="10" x="26.5" y="55.1563"/><rect fill="#FFFFFF" height="352.4063" style="stroke:#181818;stroke-width:1.0;" width="10" x="267.5" y="86.3125"/><rect fill="#FFFFFF" height="274.0938" style="stroke:#181818;stroke-width:1.0;" width="10" x="442.5" y="125.4688"/><rect fill="#FFFFFF" height="283.0938" style="stroke:#181818;stroke-width:1.0;" width="10" x="694.5" y="164.625"/><rect fill="#FFFFFF" height="39.1563" style="stroke:#181818;stroke-width:1.0;" width="10" x="946.5" y="203.7813"/><rect fill="#FFFFFF" height="39.1563" style="stroke:#181818;stroke-width:1.0;" width="10" x="1088.5" y="282.0938"/><line style="stroke:#181818;stroke-width:0.5;stroke-dasharray:5.0,5.0;" x1="31" x2="31" y1="45.1563" y2="456.7188"/><line style="stroke:#181818;stroke-width:0.5;stroke-dasharray:5.0,5.0;" x1="272.5" x2="272.5" y1="45.1563" y2="456.7188"/><line style="stroke:#181818;stroke-width:0.5;stroke-dasharray:5.0,5.0;" x1="447.5" x2="447.5" y1="45.1563" y2="456.7188"/><line style="stroke:#181818;stroke-width:0.5;stroke-dasharray:5.0,5.0;" x1="699.5" x2="699.5" y1="45.1563" y2="456.7188"/><line style="stroke:#181818;stroke-width:0.5;stroke-dasharray:5.0,5.0;" x1="951.5" x2="951.5" y1="45.1563" y2="456.7188"/><line style="stroke:#181818;stroke-width:0.5;stroke-dasharray:5.0,5.0;" x1="1093" x2="1093" y1="45.1563" y2="456.7188"/><line style="stroke:#181818;stroke-width:0.5;stroke-dasharray:5.0,5.0;" x1="1217" x2="1217" y1="45.1563" y2="456.7188"/><line style="stroke:#181818;stroke-width:0.5;stroke-dasharray:5.0,5.0;" x1="1307" x2="1307" y1="45.1563" y2="456.7188"/><rect fill="#E2E2F0" height="39.1563" rx="2.5" ry="2.5" style="stroke:#181818;stroke-width:0.5;" width="53" x="5" y="5"/><text fill="#000000" font-family="sans-serif" font-size="20" lengthAdjust="spacing" textLength="39" x="12" y="32.7617">SPA</text><rect fill="#E2E2F0" height="39.1563" rx="2.5" ry="2.5" style="stroke:#181818;stroke-width:0.5;" width="53" x="5" y="455.7188"/><text fill="#000000" font-family="sans-serif" font-size="20" lengthAdjust="spacing" textLength="39" x="12" y="483.4805">SPA</text><rect fill="#E2E2F0" height="39.1563" rx="2.5" ry="2.5" style="stroke:#181818;stroke-width:0.5;" width="144" x="200.5" y="5"/><text fill="#000000" font-family="sans-serif" font-size="20" lengthAdjust="spacing" textLength="130" x="207.5" y="32.7617">GestaoInfoAPI</text><rect fill="#E2E2F0" height="39.1563" rx="2.5" ry="2.5" style="stroke:#181818;stroke-width:0.5;" width="144" x="200.5" y="455.7188"/><text fill="#000000" font-family="sans-serif" font-size="20" lengthAdjust="spacing" textLength="130" x="207.5" y="483.4805">GestaoInfoAPI</text><rect fill="#E2E2F0" height="39.1563" rx="2.5" ry="2.5" style="stroke:#181818;stroke-width:0.5;" width="144" x="375.5" y="5"/><text fill="#000000" font-family="sans-serif" font-size="20" lengthAdjust="spacing" textLength="130" x="382.5" y="32.7617">FloorController</text><rect fill="#E2E2F0" height="39.1563" rx="2.5" ry="2.5" style="stroke:#181818;stroke-width:0.5;" width="144" x="375.5" y="455.7188"/><text fill="#000000" font-family="sans-serif" font-size="20" lengthAdjust="spacing" textLength="130" x="382.5" y="483.4805">FloorController</text><rect fill="#E2E2F0" height="39.1563" rx="2.5" ry="2.5" style="stroke:#181818;stroke-width:0.5;" width="124" x="637.5" y="5"/><text fill="#000000" font-family="sans-serif" font-size="20" lengthAdjust="spacing" textLength="110" x="644.5" y="32.7617">FloorService</text><rect fill="#E2E2F0" height="39.1563" rx="2.5" ry="2.5" style="stroke:#181818;stroke-width:0.5;" width="124" x="637.5" y="455.7188"/><text fill="#000000" font-family="sans-serif" font-size="20" lengthAdjust="spacing" textLength="110" x="644.5" y="483.4805">FloorService</text><rect fill="#E2E2F0" height="39.1563" rx="2.5" ry="2.5" style="stroke:#181818;stroke-width:0.5;" width="106" x="898.5" y="5"/><text fill="#000000" font-family="sans-serif" font-size="20" lengthAdjust="spacing" textLength="92" x="905.5" y="32.7617">FloorRepo</text><rect fill="#E2E2F0" height="39.1563" rx="2.5" ry="2.5" style="stroke:#181818;stroke-width:0.5;" width="106" x="898.5" y="455.7188"/><text fill="#000000" font-family="sans-serif" font-size="20" lengthAdjust="spacing" textLength="92" x="905.5" y="483.4805">FloorRepo</text><rect fill="#E2E2F0" height="39.1563" rx="2.5" ry="2.5" style="stroke:#181818;stroke-width:0.5;" width="127" x="1030" y="5"/><text fill="#000000" font-family="sans-serif" font-size="20" lengthAdjust="spacing" textLength="113" x="1037" y="32.7617">FloorMapper</text><rect fill="#E2E2F0" height="39.1563" rx="2.5" ry="2.5" style="stroke:#181818;stroke-width:0.5;" width="127" x="1030" y="455.7188"/><text fill="#000000" font-family="sans-serif" font-size="20" lengthAdjust="spacing" textLength="113" x="1037" y="483.4805">FloorMapper</text><rect fill="#E2E2F0" height="39.1563" rx="2.5" ry="2.5" style="stroke:#181818;stroke-width:0.5;" width="101" x="1167" y="5"/><text fill="#000000" font-family="sans-serif" font-size="20" lengthAdjust="spacing" textLength="87" x="1174" y="32.7617">FloorDTO</text><rect fill="#E2E2F0" height="39.1563" rx="2.5" ry="2.5" style="stroke:#181818;stroke-width:0.5;" width="101" x="1167" y="455.7188"/><text fill="#000000" font-family="sans-serif" font-size="20" lengthAdjust="spacing" textLength="87" x="1174" y="483.4805">FloorDTO</text><rect fill="#E2E2F0" height="39.1563" rx="2.5" ry="2.5" style="stroke:#181818;stroke-width:0.5;" width="59" x="1278" y="5"/><text fill="#000000" font-family="sans-serif" font-size="20" lengthAdjust="spacing" textLength="45" x="1285" y="32.7617">Floor</text><rect fill="#E2E2F0" height="39.1563" rx="2.5" ry="2.5" style="stroke:#181818;stroke-width:0.5;" width="59" x="1278" y="455.7188"/><text fill="#000000" font-family="sans-serif" font-size="20" lengthAdjust="spacing" textLength="45" x="1285" y="483.4805">Floor</text><rect fill="#FFFFFF" height="383.5625" style="stroke:#181818;stroke-width:1.0;" width="10" x="26.5" y="55.1563"/><rect fill="#FFFFFF" height="352.4063" style="stroke:#181818;stroke-width:1.0;" width="10" x="267.5" y="86.3125"/><rect fill="#FFFFFF" height="274.0938" style="stroke:#181818;stroke-width:1.0;" width="10" x="442.5" y="125.4688"/><rect fill="#FFFFFF" height="283.0938" style="stroke:#181818;stroke-width:1.0;" width="10" x="694.5" y="164.625"/><rect fill="#FFFFFF" height="39.1563" style="stroke:#181818;stroke-width:1.0;" width="10" x="946.5" y="203.7813"/><rect fill="#FFFFFF" height="39.1563" style="stroke:#181818;stroke-width:1.0;" width="10" x="1088.5" y="282.0938"/><polygon fill="#181818" points="255.5,82.3125,265.5,86.3125,255.5,90.3125,259.5,86.3125" style="stroke:#181818;stroke-width:1.0;"/><line style="stroke:#181818;stroke-width:1.0;" x1="36.5" x2="261.5" y1="86.3125" y2="86.3125"/><text fill="#000000" font-family="sans-serif" font-size="20" lengthAdjust="spacing" textLength="212" x="43.5" y="79.918">get(/api/floors/withpass)</text><polygon fill="#181818" points="430.5,121.4688,440.5,125.4688,430.5,129.4688,434.5,125.4688" style="stroke:#181818;stroke-width:1.0;"/><line style="stroke:#181818;stroke-width:1.0;" x1="277.5" x2="436.5" y1="125.4688" y2="125.4688"/><text fill="#000000" font-family="sans-serif" font-size="20" lengthAdjust="spacing" textLength="28" x="284.5" y="119.0742">get</text><polygon fill="#181818" points="682.5,160.625,692.5,164.625,682.5,168.625,686.5,164.625" style="stroke:#181818;stroke-width:1.0;"/><line style="stroke:#181818;stroke-width:1.0;" x1="452.5" x2="688.5" y1="164.625" y2="164.625"/><text fill="#000000" font-family="sans-serif" font-size="20" lengthAdjust="spacing" textLength="223" x="459.5" y="158.2305">getFloorsWithPassages()</text><polygon fill="#181818" points="934.5,199.7813,944.5,203.7813,934.5,207.7813,938.5,203.7813" style="stroke:#181818;stroke-width:1.0;"/><line style="stroke:#181818;stroke-width:1.0;" x1="704.5" x2="940.5" y1="203.7813" y2="203.7813"/><text fill="#000000" font-family="sans-serif" font-size="20" lengthAdjust="spacing" textLength="223" x="711.5" y="197.3867">getFloorsWithPassages()</text><polygon fill="#181818" points="715.5,238.9375,705.5,242.9375,715.5,246.9375,711.5,242.9375" style="stroke:#181818;stroke-width:1.0;"/><line style="stroke:#181818;stroke-width:1.0;stroke-dasharray:2.0,2.0;" x1="709.5" x2="950.5" y1="242.9375" y2="242.9375"/><text fill="#000000" font-family="sans-serif" font-size="20" lengthAdjust="spacing" textLength="49" x="721.5" y="236.543">floors</text><polygon fill="#181818" points="1076.5,278.0938,1086.5,282.0938,1076.5,286.0938,1080.5,282.0938" style="stroke:#181818;stroke-width:1.0;"/><line style="stroke:#181818;stroke-width:1.0;" x1="704.5" x2="1082.5" y1="282.0938" y2="282.0938"/><text fill="#000000" font-family="sans-serif" font-size="20" lengthAdjust="spacing" textLength="365" x="711.5" y="275.6992">converts list of floors to list of floorsDTOs</text><polygon fill="#181818" points="715.5,317.25,705.5,321.25,715.5,325.25,711.5,321.25" style="stroke:#181818;stroke-width:1.0;"/><line style="stroke:#181818;stroke-width:1.0;stroke-dasharray:2.0,2.0;" x1="709.5" x2="1092.5" y1="321.25" y2="321.25"/><text fill="#000000" font-family="sans-serif" font-size="20" lengthAdjust="spacing" textLength="91" x="721.5" y="314.8555">floorsDTO</text><polygon fill="#181818" points="463.5,356.4063,453.5,360.4063,463.5,364.4063,459.5,360.4063" style="stroke:#181818;stroke-width:1.0;"/><line style="stroke:#181818;stroke-width:1.0;stroke-dasharray:2.0,2.0;" x1="457.5" x2="693.5" y1="360.4063" y2="360.4063"/><text fill="#000000" font-family="sans-serif" font-size="20" lengthAdjust="spacing" textLength="91" x="469.5" y="354.0117">floorsDTO</text><polygon fill="#181818" points="288.5,395.5625,278.5,399.5625,288.5,403.5625,284.5,399.5625" style="stroke:#181818;stroke-width:1.0;"/><line style="stroke:#181818;stroke-width:1.0;stroke-dasharray:2.0,2.0;" x1="282.5" x2="446.5" y1="399.5625" y2="399.5625"/><text fill="#000000" font-family="sans-serif" font-size="20" lengthAdjust="spacing" textLength="141" x="294.5" y="393.168">status code 201</text><polygon fill="#181818" points="42.5,434.7188,32.5,438.7188,42.5,442.7188,38.5,438.7188" style="stroke:#181818;stroke-width:1.0;"/><line style="stroke:#181818;stroke-width:1.0;stroke-dasharray:2.0,2.0;" x1="36.5" x2="271.5" y1="438.7188" y2="438.7188"/><text fill="#000000" font-family="sans-serif" font-size="20" lengthAdjust="spacing" textLength="71" x="48.5" y="432.3242">success</text><!--SRC=[ZL8zJyCm4DtzAwnEPQWAZ1sGggAY3eY8836Vd4knwiQMVGaIlvuxfoL9bO71PplllVjuSJhP9a24i_FcX9Mki8RMqTutLDeVr8_tYc6onWPeI9V5Td9Vl60Yy8UczjlYiD2GDEzJojvv7tUSC7hdC6RIZgAROPKOEsimKyhOpJ3UCVWCos46VuKGBZNuE4Du_dZBAEypQ0_vCzX6AJ1aEo3CK_FIgoUPRgEFICir1BkkHPFMtvQ-0gHqDqZ41SL1D39i5Wrmdbz950AFcl7SGlhaR0LdWoEcvIYb6A8uY4Ac_uSacoH1hwvb-fPLXLFIDJ6Rjj76Dnr6IjhPHDhN5v4cV_E5JKn3DJ6SrsqjSNfKJbXzjJzh1jx5aglH_BQeJTnF9I_nOPocTp0xBEMABRDROp1DPfFVCBeoxHS0]--></g></svg>