<?xml version="1.0" encoding="UTF-8" standalone="no"?><svg xmlns="http://www.w3.org/2000/svg" xmlns:xlink="http://www.w3.org/1999/xlink" contentStyleType="text/css" height="500px" preserveAspectRatio="none" style="width:1632px;height:500px;background:#FFFFFF;" version="1.1" viewBox="0 0 1632 500" width="1632px" zoomAndPan="magnify"><defs/><g><rect fill="#FFFFFF" height="383.5625" style="stroke:#181818;stroke-width:1.0;" width="10" x="26.5" y="55.1563"/><rect fill="#FFFFFF" height="352.4063" style="stroke:#181818;stroke-width:1.0;" width="10" x="340.5" y="86.3125"/><rect fill="#FFFFFF" height="274.0938" style="stroke:#181818;stroke-width:1.0;" width="10" x="515.5" y="125.4688"/><rect fill="#FFFFFF" height="283.0938" style="stroke:#181818;stroke-width:1.0;" width="10" x="827.5" y="164.625"/><rect fill="#FFFFFF" height="39.1563" style="stroke:#181818;stroke-width:1.0;" width="10" x="1139.5" y="203.7813"/><rect fill="#FFFFFF" height="39.1563" style="stroke:#181818;stroke-width:1.0;" width="10" x="1298" y="282.0938"/><line style="stroke:#181818;stroke-width:0.5;stroke-dasharray:5.0,5.0;" x1="31" x2="31" y1="45.1563" y2="456.7188"/><line style="stroke:#181818;stroke-width:0.5;stroke-dasharray:5.0,5.0;" x1="345.5" x2="345.5" y1="45.1563" y2="456.7188"/><line style="stroke:#181818;stroke-width:0.5;stroke-dasharray:5.0,5.0;" x1="520.5" x2="520.5" y1="45.1563" y2="456.7188"/><line style="stroke:#181818;stroke-width:0.5;stroke-dasharray:5.0,5.0;" x1="832.5" x2="832.5" y1="45.1563" y2="456.7188"/><line style="stroke:#181818;stroke-width:0.5;stroke-dasharray:5.0,5.0;" x1="1144.5" x2="1144.5" y1="45.1563" y2="456.7188"/><line style="stroke:#181818;stroke-width:0.5;stroke-dasharray:5.0,5.0;" x1="1302.5" x2="1302.5" y1="45.1563" y2="456.7188"/><line style="stroke:#181818;stroke-width:0.5;stroke-dasharray:5.0,5.0;" x1="1458.5" x2="1458.5" y1="45.1563" y2="456.7188"/><line style="stroke:#181818;stroke-width:0.5;stroke-dasharray:5.0,5.0;" x1="1580.5" x2="1580.5" y1="45.1563" y2="456.7188"/><rect fill="#E2E2F0" height="39.1563" rx="2.5" ry="2.5" style="stroke:#181818;stroke-width:0.5;" width="53" x="5" y="5"/><text fill="#000000" font-family="sans-serif" font-size="20" lengthAdjust="spacing" textLength="39" x="12" y="32.7617">SPA</text><rect fill="#E2E2F0" height="39.1563" rx="2.5" ry="2.5" style="stroke:#181818;stroke-width:0.5;" width="53" x="5" y="455.7188"/><text fill="#000000" font-family="sans-serif" font-size="20" lengthAdjust="spacing" textLength="39" x="12" y="483.4805">SPA</text><rect fill="#E2E2F0" height="39.1563" rx="2.5" ry="2.5" style="stroke:#181818;stroke-width:0.5;" width="144" x="273.5" y="5"/><text fill="#000000" font-family="sans-serif" font-size="20" lengthAdjust="spacing" textLength="130" x="280.5" y="32.7617">GestaoInfoAPI</text><rect fill="#E2E2F0" height="39.1563" rx="2.5" ry="2.5" style="stroke:#181818;stroke-width:0.5;" width="144" x="273.5" y="455.7188"/><text fill="#000000" font-family="sans-serif" font-size="20" lengthAdjust="spacing" textLength="130" x="280.5" y="483.4805">GestaoInfoAPI</text><rect fill="#E2E2F0" height="39.1563" rx="2.5" ry="2.5" style="stroke:#181818;stroke-width:0.5;" width="176" x="432.5" y="5"/><text fill="#000000" font-family="sans-serif" font-size="20" lengthAdjust="spacing" textLength="162" x="439.5" y="32.7617">PassageController</text><rect fill="#E2E2F0" height="39.1563" rx="2.5" ry="2.5" style="stroke:#181818;stroke-width:0.5;" width="176" x="432.5" y="455.7188"/><text fill="#000000" font-family="sans-serif" font-size="20" lengthAdjust="spacing" textLength="162" x="439.5" y="483.4805">PassageController</text><rect fill="#E2E2F0" height="39.1563" rx="2.5" ry="2.5" style="stroke:#181818;stroke-width:0.5;" width="156" x="754.5" y="5"/><text fill="#000000" font-family="sans-serif" font-size="20" lengthAdjust="spacing" textLength="142" x="761.5" y="32.7617">PassageService</text><rect fill="#E2E2F0" height="39.1563" rx="2.5" ry="2.5" style="stroke:#181818;stroke-width:0.5;" width="156" x="754.5" y="455.7188"/><text fill="#000000" font-family="sans-serif" font-size="20" lengthAdjust="spacing" textLength="142" x="761.5" y="483.4805">PassageService</text><rect fill="#E2E2F0" height="39.1563" rx="2.5" ry="2.5" style="stroke:#181818;stroke-width:0.5;" width="138" x="1075.5" y="5"/><text fill="#000000" font-family="sans-serif" font-size="20" lengthAdjust="spacing" textLength="124" x="1082.5" y="32.7617">PassageRepo</text><rect fill="#E2E2F0" height="39.1563" rx="2.5" ry="2.5" style="stroke:#181818;stroke-width:0.5;" width="138" x="1075.5" y="455.7188"/><text fill="#000000" font-family="sans-serif" font-size="20" lengthAdjust="spacing" textLength="124" x="1082.5" y="483.4805">PassageRepo</text><rect fill="#E2E2F0" height="39.1563" rx="2.5" ry="2.5" style="stroke:#181818;stroke-width:0.5;" width="159" x="1223.5" y="5"/><text fill="#000000" font-family="sans-serif" font-size="20" lengthAdjust="spacing" textLength="145" x="1230.5" y="32.7617">PassageMapper</text><rect fill="#E2E2F0" height="39.1563" rx="2.5" ry="2.5" style="stroke:#181818;stroke-width:0.5;" width="159" x="1223.5" y="455.7188"/><text fill="#000000" font-family="sans-serif" font-size="20" lengthAdjust="spacing" textLength="145" x="1230.5" y="483.4805">PassageMapper</text><rect fill="#E2E2F0" height="39.1563" rx="2.5" ry="2.5" style="stroke:#181818;stroke-width:0.5;" width="133" x="1392.5" y="5"/><text fill="#000000" font-family="sans-serif" font-size="20" lengthAdjust="spacing" textLength="119" x="1399.5" y="32.7617">PassageDTO</text><rect fill="#E2E2F0" height="39.1563" rx="2.5" ry="2.5" style="stroke:#181818;stroke-width:0.5;" width="133" x="1392.5" y="455.7188"/><text fill="#000000" font-family="sans-serif" font-size="20" lengthAdjust="spacing" textLength="119" x="1399.5" y="483.4805">PassageDTO</text><rect fill="#E2E2F0" height="39.1563" rx="2.5" ry="2.5" style="stroke:#181818;stroke-width:0.5;" width="91" x="1535.5" y="5"/><text fill="#000000" font-family="sans-serif" font-size="20" lengthAdjust="spacing" textLength="77" x="1542.5" y="32.7617">Passage</text><rect fill="#E2E2F0" height="39.1563" rx="2.5" ry="2.5" style="stroke:#181818;stroke-width:0.5;" width="91" x="1535.5" y="455.7188"/><text fill="#000000" font-family="sans-serif" font-size="20" lengthAdjust="spacing" textLength="77" x="1542.5" y="483.4805">Passage</text><rect fill="#FFFFFF" height="383.5625" style="stroke:#181818;stroke-width:1.0;" width="10" x="26.5" y="55.1563"/><rect fill="#FFFFFF" height="352.4063" style="stroke:#181818;stroke-width:1.0;" width="10" x="340.5" y="86.3125"/><rect fill="#FFFFFF" height="274.0938" style="stroke:#181818;stroke-width:1.0;" width="10" x="515.5" y="125.4688"/><rect fill="#FFFFFF" height="283.0938" style="stroke:#181818;stroke-width:1.0;" width="10" x="827.5" y="164.625"/><rect fill="#FFFFFF" height="39.1563" style="stroke:#181818;stroke-width:1.0;" width="10" x="1139.5" y="203.7813"/><rect fill="#FFFFFF" height="39.1563" style="stroke:#181818;stroke-width:1.0;" width="10" x="1298" y="282.0938"/><polygon fill="#181818" points="328.5,82.3125,338.5,86.3125,328.5,90.3125,332.5,86.3125" style="stroke:#181818;stroke-width:1.0;"/><line style="stroke:#181818;stroke-width:1.0;" x1="36.5" x2="334.5" y1="86.3125" y2="86.3125"/><text fill="#000000" font-family="sans-serif" font-size="20" lengthAdjust="spacing" textLength="285" x="43.5" y="79.918">get(/api/passages/:first/:second)</text><polygon fill="#181818" points="503.5,121.4688,513.5,125.4688,503.5,129.4688,507.5,125.4688" style="stroke:#181818;stroke-width:1.0;"/><line style="stroke:#181818;stroke-width:1.0;" x1="350.5" x2="509.5" y1="125.4688" y2="125.4688"/><text fill="#000000" font-family="sans-serif" font-size="20" lengthAdjust="spacing" textLength="28" x="357.5" y="119.0742">get</text><polygon fill="#181818" points="815.5,160.625,825.5,164.625,815.5,168.625,819.5,164.625" style="stroke:#181818;stroke-width:1.0;"/><line style="stroke:#181818;stroke-width:1.0;" x1="525.5" x2="821.5" y1="164.625" y2="164.625"/><text fill="#000000" font-family="sans-serif" font-size="20" lengthAdjust="spacing" textLength="283" x="532.5" y="158.2305">getPassagesBetweenBuildings()</text><polygon fill="#181818" points="1127.5,199.7813,1137.5,203.7813,1127.5,207.7813,1131.5,203.7813" style="stroke:#181818;stroke-width:1.0;"/><line style="stroke:#181818;stroke-width:1.0;" x1="837.5" x2="1133.5" y1="203.7813" y2="203.7813"/><text fill="#000000" font-family="sans-serif" font-size="20" lengthAdjust="spacing" textLength="283" x="844.5" y="197.3867">getPassagesBetweenBuildings()</text><polygon fill="#181818" points="848.5,238.9375,838.5,242.9375,848.5,246.9375,844.5,242.9375" style="stroke:#181818;stroke-width:1.0;"/><line style="stroke:#181818;stroke-width:1.0;stroke-dasharray:2.0,2.0;" x1="842.5" x2="1143.5" y1="242.9375" y2="242.9375"/><text fill="#000000" font-family="sans-serif" font-size="20" lengthAdjust="spacing" textLength="85" x="854.5" y="236.543">passages</text><polygon fill="#181818" points="1286,278.0938,1296,282.0938,1286,286.0938,1290,282.0938" style="stroke:#181818;stroke-width:1.0;"/><line style="stroke:#181818;stroke-width:1.0;" x1="837.5" x2="1292" y1="282.0938" y2="282.0938"/><text fill="#000000" font-family="sans-serif" font-size="20" lengthAdjust="spacing" textLength="437" x="844.5" y="275.6992">converts list of passages to list of passagesDTOs</text><polygon fill="#181818" points="848.5,317.25,838.5,321.25,848.5,325.25,844.5,321.25" style="stroke:#181818;stroke-width:1.0;"/><line style="stroke:#181818;stroke-width:1.0;stroke-dasharray:2.0,2.0;" x1="842.5" x2="1302" y1="321.25" y2="321.25"/><text fill="#000000" font-family="sans-serif" font-size="20" lengthAdjust="spacing" textLength="127" x="854.5" y="314.8555">passagesDTO</text><polygon fill="#181818" points="536.5,356.4063,526.5,360.4063,536.5,364.4063,532.5,360.4063" style="stroke:#181818;stroke-width:1.0;"/><line style="stroke:#181818;stroke-width:1.0;stroke-dasharray:2.0,2.0;" x1="530.5" x2="826.5" y1="360.4063" y2="360.4063"/><text fill="#000000" font-family="sans-serif" font-size="20" lengthAdjust="spacing" textLength="127" x="542.5" y="354.0117">passagesDTO</text><polygon fill="#181818" points="361.5,395.5625,351.5,399.5625,361.5,403.5625,357.5,399.5625" style="stroke:#181818;stroke-width:1.0;"/><line style="stroke:#181818;stroke-width:1.0;stroke-dasharray:2.0,2.0;" x1="355.5" x2="519.5" y1="399.5625" y2="399.5625"/><text fill="#000000" font-family="sans-serif" font-size="20" lengthAdjust="spacing" textLength="141" x="367.5" y="393.168">status code 201</text><polygon fill="#181818" points="42.5,434.7188,32.5,438.7188,42.5,442.7188,38.5,438.7188" style="stroke:#181818;stroke-width:1.0;"/><line style="stroke:#181818;stroke-width:1.0;stroke-dasharray:2.0,2.0;" x1="36.5" x2="344.5" y1="438.7188" y2="438.7188"/><text fill="#000000" font-family="sans-serif" font-size="20" lengthAdjust="spacing" textLength="71" x="48.5" y="432.3242">success</text><!--SRC=[ZLAxRiCm3Dpr5KAcT0ZSTlHG84dH8aDHe-uF23OT274aGQHTe5zVKeuJ6_7GGTI3TphnA3nP5qmqvzPN9wXr3OtfMdhpZahx2_hvKN6QR6M3SQJBOZlRhzu1oVY3Q_osEAoqGStp758OH7E4FLyPVTj2JB0znNOHLqBiRGK9LCP-4VC5mIU0B1OH7oQ4Yn8l5o6ltvyfp_DYVaZwix5EALEHxGr1Se27thn8fRa-0gqp4smM1XPcUMCZKfOZLDxL3pUgEACu25VAJ-HREZcY90g0Iq_vosDm1_G3u7QTRMlhZhYUN2msAGx24qV-JKpsIT2RKN8iGzKmXuq2R6UkkR8U8g5kBPBspPMcoT-TiS5uqvHsyBXNb3vCH0KtQ5xjcY8lHerju5z87VAxQlcpJzEB1b-Jxo9PR1dTLHNWh4PfpcJBi3y0]--></g></svg>