<?xml version="1.0" encoding="UTF-8" standalone="no"?><svg xmlns="http://www.w3.org/2000/svg" xmlns:xlink="http://www.w3.org/1999/xlink" contentStyleType="text/css" height="661px" preserveAspectRatio="none" style="width:1140px;height:661px;background:#FFFFFF;" version="1.1" viewBox="0 0 1140 661" width="1140px" zoomAndPan="magnify"><defs/><g><line style="stroke:#181818;stroke-width:0.5;stroke-dasharray:5.0,5.0;" x1="62" x2="62" y1="90.1563" y2="572.0313"/><line style="stroke:#181818;stroke-width:0.5;stroke-dasharray:5.0,5.0;" x1="408.5" x2="408.5" y1="90.1563" y2="572.0313"/><line style="stroke:#181818;stroke-width:0.5;stroke-dasharray:5.0,5.0;" x1="748" x2="748" y1="90.1563" y2="572.0313"/><text fill="#000000" font-family="sans-serif" font-size="20" lengthAdjust="spacing" textLength="108" x="5" y="85.7617">GestorFrota</text><ellipse cx="62" cy="13.5" fill="#E2E2F0" rx="8" ry="8" style="stroke:#181818;stroke-width:0.5;"/><path d="M62,21.5 L62,48.5 M49,29.5 L75,29.5 M62,48.5 L49,63.5 M62,48.5 L75,63.5 " fill="none" style="stroke:#181818;stroke-width:0.5;"/><text fill="#000000" font-family="sans-serif" font-size="20" lengthAdjust="spacing" textLength="108" x="5" y="591.793">GestorFrota</text><ellipse cx="62" cy="604.6875" fill="#E2E2F0" rx="8" ry="8" style="stroke:#181818;stroke-width:0.5;"/><path d="M62,612.6875 L62,639.6875 M49,620.6875 L75,620.6875 M62,639.6875 L49,654.6875 M62,639.6875 L75,654.6875 " fill="none" style="stroke:#181818;stroke-width:0.5;"/><rect fill="#E2E2F0" height="39.1563" rx="2.5" ry="2.5" style="stroke:#181818;stroke-width:0.5;" width="53" x="382.5" y="50"/><text fill="#000000" font-family="sans-serif" font-size="20" lengthAdjust="spacing" textLength="39" x="389.5" y="77.7617">SPA</text><rect fill="#E2E2F0" height="39.1563" rx="2.5" ry="2.5" style="stroke:#181818;stroke-width:0.5;" width="53" x="382.5" y="571.0313"/><text fill="#000000" font-family="sans-serif" font-size="20" lengthAdjust="spacing" textLength="39" x="389.5" y="598.793">SPA</text><rect fill="#E2E2F0" height="39.1563" rx="2.5" ry="2.5" style="stroke:#181818;stroke-width:0.5;" width="144" x="676" y="50"/><text fill="#000000" font-family="sans-serif" font-size="20" lengthAdjust="spacing" textLength="130" x="683" y="77.7617">GestaoInfoAPI</text><rect fill="#E2E2F0" height="39.1563" rx="2.5" ry="2.5" style="stroke:#181818;stroke-width:0.5;" width="144" x="676" y="571.0313"/><text fill="#000000" font-family="sans-serif" font-size="20" lengthAdjust="spacing" textLength="130" x="683" y="598.793">GestaoInfoAPI</text><polygon fill="#181818" points="397,127.3125,407,131.3125,397,135.3125,401,131.3125" style="stroke:#181818;stroke-width:1.0;"/><line style="stroke:#181818;stroke-width:1.0;" x1="62" x2="403" y1="131.3125" y2="131.3125"/><text fill="#000000" font-family="sans-serif" font-size="20" lengthAdjust="spacing" textLength="232" x="69" y="124.918">requisita página dos robos</text><polygon fill="#181818" points="73,166.4688,63,170.4688,73,174.4688,69,170.4688" style="stroke:#181818;stroke-width:1.0;"/><line style="stroke:#181818;stroke-width:1.0;" x1="67" x2="408" y1="170.4688" y2="170.4688"/><text fill="#000000" font-family="sans-serif" font-size="20" lengthAdjust="spacing" textLength="221" x="79" y="164.0742">retorna página dos robos</text><polygon fill="#181818" points="397,205.625,407,209.625,397,213.625,401,209.625" style="stroke:#181818;stroke-width:1.0;"/><line style="stroke:#181818;stroke-width:1.0;" x1="62" x2="403" y1="209.625" y2="209.625"/><text fill="#000000" font-family="sans-serif" font-size="20" lengthAdjust="spacing" textLength="311" x="69" y="203.2305">seleciona opção de adicionar robos</text><polygon fill="#181818" points="73,244.7813,63,248.7813,73,252.7813,69,248.7813" style="stroke:#181818;stroke-width:1.0;"/><line style="stroke:#181818;stroke-width:1.0;" x1="67" x2="408" y1="248.7813" y2="248.7813"/><text fill="#000000" font-family="sans-serif" font-size="20" lengthAdjust="spacing" textLength="323" x="79" y="242.3867">mostra formulário de adicionar robos</text><polygon fill="#181818" points="736,283.9375,746,287.9375,736,291.9375,740,287.9375" style="stroke:#181818;stroke-width:1.0;"/><line style="stroke:#181818;stroke-width:1.0;" x1="409" x2="742" y1="287.9375" y2="287.9375"/><text fill="#000000" font-family="sans-serif" font-size="20" lengthAdjust="spacing" textLength="180" x="416" y="281.543">get(/api/robotTypes)</text><polygon fill="#181818" points="420,323.0938,410,327.0938,420,331.0938,416,327.0938" style="stroke:#181818;stroke-width:1.0;"/><line style="stroke:#181818;stroke-width:1.0;stroke-dasharray:2.0,2.0;" x1="414" x2="747" y1="327.0938" y2="327.0938"/><text fill="#000000" font-family="sans-serif" font-size="20" lengthAdjust="spacing" textLength="315" x="426" y="320.6992">mostra tipos de robos na select box</text><polygon fill="#181818" points="397,362.25,407,366.25,397,370.25,401,366.25" style="stroke:#181818;stroke-width:1.0;"/><line style="stroke:#181818;stroke-width:1.0;" x1="62" x2="403" y1="366.25" y2="366.25"/><text fill="#000000" font-family="sans-serif" font-size="20" lengthAdjust="spacing" textLength="272" x="69" y="359.8555">preenche formulário e submete</text><polygon fill="#181818" points="736,401.4063,746,405.4063,736,409.4063,740,405.4063" style="stroke:#181818;stroke-width:1.0;"/><line style="stroke:#181818;stroke-width:1.0;" x1="409" x2="742" y1="405.4063" y2="405.4063"/><text fill="#000000" font-family="sans-serif" font-size="20" lengthAdjust="spacing" textLength="146" x="416" y="399.0117">post(/api/robots)</text><path d="M753,418.4063 L753,478.4063 L1133,478.4063 L1133,428.4063 L1123,418.4063 L753,418.4063 " fill="#FEFFDD" style="stroke:#181818;stroke-width:0.5;"/><path d="M1123,418.4063 L1123,428.4063 L1133,428.4063 L1123,418.4063 " fill="#FEFFDD" style="stroke:#181818;stroke-width:0.5;"/><text fill="#000000" font-family="sans-serif" font-size="20" lengthAdjust="spacing" textLength="318" x="759" y="444.168">Restantes passos representados no</text><text fill="#000000" font-family="sans-serif" font-size="20" lengthAdjust="spacing" textLength="359" x="759" y="469.3242">diagrama da API disponivel na pasta API</text><polygon fill="#181818" points="420,510.875,410,514.875,420,518.875,416,514.875" style="stroke:#181818;stroke-width:1.0;"/><line style="stroke:#181818;stroke-width:1.0;stroke-dasharray:2.0,2.0;" x1="414" x2="747" y1="514.875" y2="514.875"/><text fill="#000000" font-family="sans-serif" font-size="20" lengthAdjust="spacing" textLength="82" x="426" y="508.4805">successo</text><polygon fill="#181818" points="73,550.0313,63,554.0313,73,558.0313,69,554.0313" style="stroke:#181818;stroke-width:1.0;"/><line style="stroke:#181818;stroke-width:1.0;stroke-dasharray:2.0,2.0;" x1="67" x2="408" y1="554.0313" y2="554.0313"/><text fill="#000000" font-family="sans-serif" font-size="20" lengthAdjust="spacing" textLength="141" x="79" y="547.6367">retorna sucesso</text><!--SRC=[RLAzJWCn3Dxp55Od6AeYnWv8NOhOAWeFuDwvLwlNECG-1BnDnS23t8lXNAd4GRD4YRy_Ez4znuGP3wrKUwgXfYrshIqbsfe_26vlGi3A9CCzgM_BB8Q02izAEGId6bUSC1giLulHUL8OA0znAulLmwIGV0-XC65wL_1poFJIiR9hflxOS4IeHI7BHZGueE0AlW3TFLw2ZGMLMgfO726f_-e_nLi2h7cuovUK3wAM4RQI3rtR7pDVf9mvti8S6hAh6IQUbPezlIVIw-0Lc9vZ_8WQ9y_fSeC8UAeXdy56tlu4JvaeLZiQ1I7GRdCWex6_Y_uEuEOXYhaBDpi3sHOK1F3rMDuW6YaaL2qp8pTIYePbWb5Ei9gnyK_WOyM1MxCcYVnARSdiL1lk0yKQYbCOTwjTLP7BdqB-UpCl3zLl]--></g></svg>