<?xml version="1.0" encoding="UTF-8" standalone="no"?><svg xmlns="http://www.w3.org/2000/svg" xmlns:xlink="http://www.w3.org/1999/xlink" contentStyleType="text/css" height="583px" preserveAspectRatio="none" style="width:1046px;height:583px;background:#FFFFFF;" version="1.1" viewBox="0 0 1046 583" width="1046px" zoomAndPan="magnify"><defs/><g><line style="stroke:#181818;stroke-width:0.5;stroke-dasharray:5.0,5.0;" x1="74" x2="74" y1="90.1563" y2="493.7188"/><line style="stroke:#181818;stroke-width:0.5;stroke-dasharray:5.0,5.0;" x1="476" x2="476" y1="90.1563" y2="493.7188"/><line style="stroke:#181818;stroke-width:0.5;stroke-dasharray:5.0,5.0;" x1="654.5" x2="654.5" y1="90.1563" y2="493.7188"/><text fill="#000000" font-family="sans-serif" font-size="20" lengthAdjust="spacing" textLength="133" x="5" y="85.7617">GestorCampus</text><ellipse cx="74.5" cy="13.5" fill="#E2E2F0" rx="8" ry="8" style="stroke:#181818;stroke-width:0.5;"/><path d="M74.5,21.5 L74.5,48.5 M61.5,29.5 L87.5,29.5 M74.5,48.5 L61.5,63.5 M74.5,48.5 L87.5,63.5 " fill="none" style="stroke:#181818;stroke-width:0.5;"/><text fill="#000000" font-family="sans-serif" font-size="20" lengthAdjust="spacing" textLength="133" x="5" y="513.4805">GestorCampus</text><ellipse cx="74.5" cy="526.375" fill="#E2E2F0" rx="8" ry="8" style="stroke:#181818;stroke-width:0.5;"/><path d="M74.5,534.375 L74.5,561.375 M61.5,542.375 L87.5,542.375 M74.5,561.375 L61.5,576.375 M74.5,561.375 L87.5,576.375 " fill="none" style="stroke:#181818;stroke-width:0.5;"/><rect fill="#E2E2F0" height="39.1563" rx="2.5" ry="2.5" style="stroke:#181818;stroke-width:0.5;" width="53" x="450" y="50"/><text fill="#000000" font-family="sans-serif" font-size="20" lengthAdjust="spacing" textLength="39" x="457" y="77.7617">SPA</text><rect fill="#E2E2F0" height="39.1563" rx="2.5" ry="2.5" style="stroke:#181818;stroke-width:0.5;" width="53" x="450" y="492.7188"/><text fill="#000000" font-family="sans-serif" font-size="20" lengthAdjust="spacing" textLength="39" x="457" y="520.4805">SPA</text><rect fill="#E2E2F0" height="39.1563" rx="2.5" ry="2.5" style="stroke:#181818;stroke-width:0.5;" width="144" x="582.5" y="50"/><text fill="#000000" font-family="sans-serif" font-size="20" lengthAdjust="spacing" textLength="130" x="589.5" y="77.7617">GestaoInfoAPI</text><rect fill="#E2E2F0" height="39.1563" rx="2.5" ry="2.5" style="stroke:#181818;stroke-width:0.5;" width="144" x="582.5" y="492.7188"/><text fill="#000000" font-family="sans-serif" font-size="20" lengthAdjust="spacing" textLength="130" x="589.5" y="520.4805">GestaoInfoAPI</text><polygon fill="#181818" points="464.5,127.3125,474.5,131.3125,464.5,135.3125,468.5,131.3125" style="stroke:#181818;stroke-width:1.0;"/><line style="stroke:#181818;stroke-width:1.0;" x1="74.5" x2="470.5" y1="131.3125" y2="131.3125"/><text fill="#000000" font-family="sans-serif" font-size="20" lengthAdjust="spacing" textLength="255" x="81.5" y="124.918">requisita página dos edifícios</text><polygon fill="#181818" points="85.5,166.4688,75.5,170.4688,85.5,174.4688,81.5,170.4688" style="stroke:#181818;stroke-width:1.0;"/><line style="stroke:#181818;stroke-width:1.0;" x1="79.5" x2="475.5" y1="170.4688" y2="170.4688"/><text fill="#000000" font-family="sans-serif" font-size="20" lengthAdjust="spacing" textLength="244" x="91.5" y="164.0742">retorna página dos edifícios</text><polygon fill="#181818" points="464.5,205.625,474.5,209.625,464.5,213.625,468.5,209.625" style="stroke:#181818;stroke-width:1.0;"/><line style="stroke:#181818;stroke-width:1.0;" x1="74.5" x2="470.5" y1="209.625" y2="209.625"/><text fill="#000000" font-family="sans-serif" font-size="20" lengthAdjust="spacing" textLength="378" x="81.5" y="203.2305">seleciona edifício que quer editar da tabela</text><polygon fill="#181818" points="85.5,244.7813,75.5,248.7813,85.5,252.7813,81.5,248.7813" style="stroke:#181818;stroke-width:1.0;"/><line style="stroke:#181818;stroke-width:1.0;" x1="79.5" x2="475.5" y1="248.7813" y2="248.7813"/><text fill="#000000" font-family="sans-serif" font-size="20" lengthAdjust="spacing" textLength="354" x="91.5" y="242.3867">mostra formulário com dados do edifício</text><polygon fill="#181818" points="464.5,283.9375,474.5,287.9375,464.5,291.9375,468.5,287.9375" style="stroke:#181818;stroke-width:1.0;"/><line style="stroke:#181818;stroke-width:1.0;" x1="74.5" x2="470.5" y1="287.9375" y2="287.9375"/><text fill="#000000" font-family="sans-serif" font-size="20" lengthAdjust="spacing" textLength="208" x="81.5" y="281.543">altera dados e submete</text><polygon fill="#181818" points="642.5,323.0938,652.5,327.0938,642.5,331.0938,646.5,327.0938" style="stroke:#181818;stroke-width:1.0;"/><line style="stroke:#181818;stroke-width:1.0;" x1="476.5" x2="648.5" y1="327.0938" y2="327.0938"/><text fill="#000000" font-family="sans-serif" font-size="20" lengthAdjust="spacing" textLength="154" x="483.5" y="320.6992">put(/api/buildings)</text><path d="M659,340.0938 L659,400.0938 L1039,400.0938 L1039,350.0938 L1029,340.0938 L659,340.0938 " fill="#FEFFDD" style="stroke:#181818;stroke-width:0.5;"/><path d="M1029,340.0938 L1029,350.0938 L1039,350.0938 L1029,340.0938 " fill="#FEFFDD" style="stroke:#181818;stroke-width:0.5;"/><text fill="#000000" font-family="sans-serif" font-size="20" lengthAdjust="spacing" textLength="318" x="665" y="365.8555">Restantes passos representados no</text><text fill="#000000" font-family="sans-serif" font-size="20" lengthAdjust="spacing" textLength="359" x="665" y="391.0117">diagrama da API disponivel na pasta API</text><polygon fill="#181818" points="487.5,432.5625,477.5,436.5625,487.5,440.5625,483.5,436.5625" style="stroke:#181818;stroke-width:1.0;"/><line style="stroke:#181818;stroke-width:1.0;stroke-dasharray:2.0,2.0;" x1="481.5" x2="653.5" y1="436.5625" y2="436.5625"/><text fill="#000000" font-family="sans-serif" font-size="20" lengthAdjust="spacing" textLength="71" x="493.5" y="430.168">success</text><polygon fill="#181818" points="85.5,471.7188,75.5,475.7188,85.5,479.7188,81.5,475.7188" style="stroke:#181818;stroke-width:1.0;"/><line style="stroke:#181818;stroke-width:1.0;stroke-dasharray:2.0,2.0;" x1="79.5" x2="475.5" y1="475.7188" y2="475.7188"/><text fill="#000000" font-family="sans-serif" font-size="20" lengthAdjust="spacing" textLength="141" x="91.5" y="469.3242">retorna sucesso</text><!--SRC=[TP51JWCn34NtEONL5Img4Cika2eaK7SL5GTm9vvYTIPEOuS5j-a1E4KlXjD2KK6C54L9tly_-QDRJXaBZeDqMueGgSSwsACaM_4xmTrj2DYP57WYzUa1nrmLKE55gOJWMkEECoQ3rN9-iPuq2SeYzJ9VBYPDv7C8JGdJ-yRFeD2kih8XvCD-mmaXYW95xWyV7Oi6fnhSH8tsEwH_sKjhfO5ysx4p0hjARPIsPLWW8XYkQS3Bd57K2a8lPQp3OLzSsSdeT0kCycFuAn878zUTE0Ajwv6CmhUvFty6kThL3MQ-MLSU8gUDNeUGn0WARruDf6yS1F3lkJMOZ1GoghfdeLn8ATan8Sa9YumR_uSj-AYDh5aIlz40hInqasFrb2Aqf10QDJqNLRkEzAlgFrtxgHzA-0G0]--></g></svg>