<?xml version="1.0" encoding="UTF-8" standalone="no"?><svg xmlns="http://www.w3.org/2000/svg" xmlns:xlink="http://www.w3.org/1999/xlink" contentStyleType="text/css" height="661px" preserveAspectRatio="none" style="width:1083px;height:661px;background:#FFFFFF;" version="1.1" viewBox="0 0 1083 661" width="1083px" zoomAndPan="magnify"><defs/><g><line style="stroke:#181818;stroke-width:0.5;stroke-dasharray:5.0,5.0;" x1="74" x2="74" y1="90.1563" y2="572.0313"/><line style="stroke:#181818;stroke-width:0.5;stroke-dasharray:5.0,5.0;" x1="407" x2="407" y1="90.1563" y2="572.0313"/><line style="stroke:#181818;stroke-width:0.5;stroke-dasharray:5.0,5.0;" x1="691.5" x2="691.5" y1="90.1563" y2="572.0313"/><text fill="#000000" font-family="sans-serif" font-size="20" lengthAdjust="spacing" textLength="133" x="5" y="85.7617">GestorCampus</text><ellipse cx="74.5" cy="13.5" fill="#E2E2F0" rx="8" ry="8" style="stroke:#181818;stroke-width:0.5;"/><path d="M74.5,21.5 L74.5,48.5 M61.5,29.5 L87.5,29.5 M74.5,48.5 L61.5,63.5 M74.5,48.5 L87.5,63.5 " fill="none" style="stroke:#181818;stroke-width:0.5;"/><text fill="#000000" font-family="sans-serif" font-size="20" lengthAdjust="spacing" textLength="133" x="5" y="591.793">GestorCampus</text><ellipse cx="74.5" cy="604.6875" fill="#E2E2F0" rx="8" ry="8" style="stroke:#181818;stroke-width:0.5;"/><path d="M74.5,612.6875 L74.5,639.6875 M61.5,620.6875 L87.5,620.6875 M74.5,639.6875 L61.5,654.6875 M74.5,639.6875 L87.5,654.6875 " fill="none" style="stroke:#181818;stroke-width:0.5;"/><rect fill="#E2E2F0" height="39.1563" rx="2.5" ry="2.5" style="stroke:#181818;stroke-width:0.5;" width="53" x="381" y="50"/><text fill="#000000" font-family="sans-serif" font-size="20" lengthAdjust="spacing" textLength="39" x="388" y="77.7617">SPA</text><rect fill="#E2E2F0" height="39.1563" rx="2.5" ry="2.5" style="stroke:#181818;stroke-width:0.5;" width="53" x="381" y="571.0313"/><text fill="#000000" font-family="sans-serif" font-size="20" lengthAdjust="spacing" textLength="39" x="388" y="598.793">SPA</text><rect fill="#E2E2F0" height="39.1563" rx="2.5" ry="2.5" style="stroke:#181818;stroke-width:0.5;" width="144" x="619.5" y="50"/><text fill="#000000" font-family="sans-serif" font-size="20" lengthAdjust="spacing" textLength="130" x="626.5" y="77.7617">GestaoInfoAPI</text><rect fill="#E2E2F0" height="39.1563" rx="2.5" ry="2.5" style="stroke:#181818;stroke-width:0.5;" width="144" x="619.5" y="571.0313"/><text fill="#000000" font-family="sans-serif" font-size="20" lengthAdjust="spacing" textLength="130" x="626.5" y="598.793">GestaoInfoAPI</text><polygon fill="#181818" points="395.5,127.3125,405.5,131.3125,395.5,135.3125,399.5,131.3125" style="stroke:#181818;stroke-width:1.0;"/><line style="stroke:#181818;stroke-width:1.0;" x1="74.5" x2="401.5" y1="131.3125" y2="131.3125"/><text fill="#000000" font-family="sans-serif" font-size="20" lengthAdjust="spacing" textLength="228" x="81.5" y="124.918">requisita página das salas</text><polygon fill="#181818" points="85.5,166.4688,75.5,170.4688,85.5,174.4688,81.5,170.4688" style="stroke:#181818;stroke-width:1.0;"/><line style="stroke:#181818;stroke-width:1.0;" x1="79.5" x2="406.5" y1="170.4688" y2="170.4688"/><text fill="#000000" font-family="sans-serif" font-size="20" lengthAdjust="spacing" textLength="217" x="91.5" y="164.0742">retorna página das salas</text><polygon fill="#181818" points="395.5,205.625,405.5,209.625,395.5,213.625,399.5,209.625" style="stroke:#181818;stroke-width:1.0;"/><line style="stroke:#181818;stroke-width:1.0;" x1="74.5" x2="401.5" y1="209.625" y2="209.625"/><text fill="#000000" font-family="sans-serif" font-size="20" lengthAdjust="spacing" textLength="297" x="81.5" y="203.2305">seleciona opção de adicionar sala</text><polygon fill="#181818" points="85.5,244.7813,75.5,248.7813,85.5,252.7813,81.5,248.7813" style="stroke:#181818;stroke-width:1.0;"/><line style="stroke:#181818;stroke-width:1.0;" x1="79.5" x2="406.5" y1="248.7813" y2="248.7813"/><text fill="#000000" font-family="sans-serif" font-size="20" lengthAdjust="spacing" textLength="309" x="91.5" y="242.3867">mostra formulário de adicionar sala</text><polygon fill="#181818" points="679.5,283.9375,689.5,287.9375,679.5,291.9375,683.5,287.9375" style="stroke:#181818;stroke-width:1.0;"/><line style="stroke:#181818;stroke-width:1.0;" x1="407.5" x2="685.5" y1="287.9375" y2="287.9375"/><text fill="#000000" font-family="sans-serif" font-size="20" lengthAdjust="spacing" textLength="129" x="414.5" y="281.543">get(/api/floors)</text><polygon fill="#181818" points="418.5,323.0938,408.5,327.0938,418.5,331.0938,414.5,327.0938" style="stroke:#181818;stroke-width:1.0;"/><line style="stroke:#181818;stroke-width:1.0;stroke-dasharray:2.0,2.0;" x1="412.5" x2="690.5" y1="327.0938" y2="327.0938"/><text fill="#000000" font-family="sans-serif" font-size="20" lengthAdjust="spacing" textLength="260" x="424.5" y="320.6992">mostra andares na select box</text><polygon fill="#181818" points="395.5,362.25,405.5,366.25,395.5,370.25,399.5,366.25" style="stroke:#181818;stroke-width:1.0;"/><line style="stroke:#181818;stroke-width:1.0;" x1="74.5" x2="401.5" y1="366.25" y2="366.25"/><text fill="#000000" font-family="sans-serif" font-size="20" lengthAdjust="spacing" textLength="272" x="81.5" y="359.8555">preenche formulário e submete</text><polygon fill="#181818" points="679.5,401.4063,689.5,405.4063,679.5,409.4063,683.5,405.4063" style="stroke:#181818;stroke-width:1.0;"/><line style="stroke:#181818;stroke-width:1.0;" x1="407.5" x2="685.5" y1="405.4063" y2="405.4063"/><text fill="#000000" font-family="sans-serif" font-size="20" lengthAdjust="spacing" textLength="145" x="414.5" y="399.0117">post(/api/rooms)</text><path d="M696,418.4063 L696,478.4063 L1076,478.4063 L1076,428.4063 L1066,418.4063 L696,418.4063 " fill="#FEFFDD" style="stroke:#181818;stroke-width:0.5;"/><path d="M1066,418.4063 L1066,428.4063 L1076,428.4063 L1066,418.4063 " fill="#FEFFDD" style="stroke:#181818;stroke-width:0.5;"/><text fill="#000000" font-family="sans-serif" font-size="20" lengthAdjust="spacing" textLength="318" x="702" y="444.168">Restantes passos representados no</text><text fill="#000000" font-family="sans-serif" font-size="20" lengthAdjust="spacing" textLength="359" x="702" y="469.3242">diagrama da API disponivel na pasta API</text><polygon fill="#181818" points="418.5,510.875,408.5,514.875,418.5,518.875,414.5,514.875" style="stroke:#181818;stroke-width:1.0;"/><line style="stroke:#181818;stroke-width:1.0;stroke-dasharray:2.0,2.0;" x1="412.5" x2="690.5" y1="514.875" y2="514.875"/><text fill="#000000" font-family="sans-serif" font-size="20" lengthAdjust="spacing" textLength="82" x="424.5" y="508.4805">successo</text><polygon fill="#181818" points="85.5,550.0313,75.5,554.0313,85.5,558.0313,81.5,554.0313" style="stroke:#181818;stroke-width:1.0;"/><line style="stroke:#181818;stroke-width:1.0;stroke-dasharray:2.0,2.0;" x1="79.5" x2="406.5" y1="554.0313" y2="554.0313"/><text fill="#000000" font-family="sans-serif" font-size="20" lengthAdjust="spacing" textLength="141" x="91.5" y="547.6367">retorna sucesso</text><!--SRC=[RL7DJiCm3BxdAQoTu30DSTm1QK82xJOnyG1UutRHsZZ4BaAypSI11-cBuRJiK5WkKUplpuwSGaoOiMkvEf47JpNshJvnr7tu9BY_SmuhvGpF97OzOfTw0HHu5ShE6LT35H96XVrkCtil2WLv6slUxBQBGhBRkSA4vKF1ho7JMnyaA48Qpas82DvmWYsACq315Nm1cdsy1fiB2hLK1JO4f-5x-6AR2T27iPP7obouOz6CK7Fk-dOuvt2DSQ7O06jeI6zMcCAgRfcpt3ghml8Iu5SFeyTC0XPaZAHmu8y_MLCcYjMHPkO4qXywKfgR9fETN3DpPwOkiXBaq1mLk2uWS63dfMmzgbad566npPcFK5JqzeeymNp0nlwzB7Ba-Y29OtYdjaGsgevrHz53SNBpAQMlAZBvAUE_NxBssFq1]--></g></svg>