<?xml version="1.0" encoding="UTF-8" standalone="no"?><svg xmlns="http://www.w3.org/2000/svg" xmlns:xlink="http://www.w3.org/1999/xlink" contentStyleType="text/css" height="583px" preserveAspectRatio="none" style="width:989px;height:583px;background:#FFFFFF;" version="1.1" viewBox="0 0 989 583" width="989px" zoomAndPan="magnify"><defs/><g><line style="stroke:#181818;stroke-width:0.5;stroke-dasharray:5.0,5.0;" x1="62" x2="62" y1="90.1563" y2="493.7188"/><line style="stroke:#181818;stroke-width:0.5;stroke-dasharray:5.0,5.0;" x1="416.5" x2="416.5" y1="90.1563" y2="493.7188"/><line style="stroke:#181818;stroke-width:0.5;stroke-dasharray:5.0,5.0;" x1="597" x2="597" y1="90.1563" y2="493.7188"/><text fill="#000000" font-family="sans-serif" font-size="20" lengthAdjust="spacing" textLength="108" x="5" y="85.7617">GestorFrota</text><ellipse cx="62" cy="13.5" fill="#E2E2F0" rx="8" ry="8" style="stroke:#181818;stroke-width:0.5;"/><path d="M62,21.5 L62,48.5 M49,29.5 L75,29.5 M62,48.5 L49,63.5 M62,48.5 L75,63.5 " fill="none" style="stroke:#181818;stroke-width:0.5;"/><text fill="#000000" font-family="sans-serif" font-size="20" lengthAdjust="spacing" textLength="108" x="5" y="513.4805">GestorFrota</text><ellipse cx="62" cy="526.375" fill="#E2E2F0" rx="8" ry="8" style="stroke:#181818;stroke-width:0.5;"/><path d="M62,534.375 L62,561.375 M49,542.375 L75,542.375 M62,561.375 L49,576.375 M62,561.375 L75,576.375 " fill="none" style="stroke:#181818;stroke-width:0.5;"/><rect fill="#E2E2F0" height="39.1563" rx="2.5" ry="2.5" style="stroke:#181818;stroke-width:0.5;" width="53" x="390.5" y="50"/><text fill="#000000" font-family="sans-serif" font-size="20" lengthAdjust="spacing" textLength="39" x="397.5" y="77.7617">SPA</text><rect fill="#E2E2F0" height="39.1563" rx="2.5" ry="2.5" style="stroke:#181818;stroke-width:0.5;" width="53" x="390.5" y="492.7188"/><text fill="#000000" font-family="sans-serif" font-size="20" lengthAdjust="spacing" textLength="39" x="397.5" y="520.4805">SPA</text><rect fill="#E2E2F0" height="39.1563" rx="2.5" ry="2.5" style="stroke:#181818;stroke-width:0.5;" width="144" x="525" y="50"/><text fill="#000000" font-family="sans-serif" font-size="20" lengthAdjust="spacing" textLength="130" x="532" y="77.7617">GestaoInfoAPI</text><rect fill="#E2E2F0" height="39.1563" rx="2.5" ry="2.5" style="stroke:#181818;stroke-width:0.5;" width="144" x="525" y="492.7188"/><text fill="#000000" font-family="sans-serif" font-size="20" lengthAdjust="spacing" textLength="130" x="532" y="520.4805">GestaoInfoAPI</text><polygon fill="#181818" points="405,127.3125,415,131.3125,405,135.3125,409,131.3125" style="stroke:#181818;stroke-width:1.0;"/><line style="stroke:#181818;stroke-width:1.0;" x1="62" x2="411" y1="131.3125" y2="131.3125"/><text fill="#000000" font-family="sans-serif" font-size="20" lengthAdjust="spacing" textLength="232" x="69" y="124.918">requisita página dos robos</text><polygon fill="#181818" points="73,166.4688,63,170.4688,73,174.4688,69,170.4688" style="stroke:#181818;stroke-width:1.0;"/><line style="stroke:#181818;stroke-width:1.0;" x1="67" x2="416" y1="170.4688" y2="170.4688"/><text fill="#000000" font-family="sans-serif" font-size="20" lengthAdjust="spacing" textLength="221" x="79" y="164.0742">retorna página dos robos</text><polygon fill="#181818" points="405,205.625,415,209.625,405,213.625,409,209.625" style="stroke:#181818;stroke-width:1.0;"/><line style="stroke:#181818;stroke-width:1.0;" x1="62" x2="411" y1="209.625" y2="209.625"/><text fill="#000000" font-family="sans-serif" font-size="20" lengthAdjust="spacing" textLength="267" x="69" y="203.2305">seleciona robo que quer editar</text><polygon fill="#181818" points="73,244.7813,63,248.7813,73,252.7813,69,248.7813" style="stroke:#181818;stroke-width:1.0;"/><line style="stroke:#181818;stroke-width:1.0;" x1="67" x2="416" y1="248.7813" y2="248.7813"/><text fill="#000000" font-family="sans-serif" font-size="20" lengthAdjust="spacing" textLength="331" x="79" y="242.3867">mostra formulário com dados do robo</text><polygon fill="#181818" points="405,283.9375,415,287.9375,405,291.9375,409,287.9375" style="stroke:#181818;stroke-width:1.0;"/><line style="stroke:#181818;stroke-width:1.0;" x1="62" x2="411" y1="287.9375" y2="287.9375"/><text fill="#000000" font-family="sans-serif" font-size="20" lengthAdjust="spacing" textLength="190" x="69" y="281.543">altera estado do robo</text><polygon fill="#181818" points="585,323.0938,595,327.0938,585,331.0938,589,327.0938" style="stroke:#181818;stroke-width:1.0;"/><line style="stroke:#181818;stroke-width:1.0;" x1="417" x2="591" y1="327.0938" y2="327.0938"/><text fill="#000000" font-family="sans-serif" font-size="20" lengthAdjust="spacing" textLength="156" x="424" y="320.6992">patch(/api/robots)</text><path d="M602,340.0938 L602,400.0938 L982,400.0938 L982,350.0938 L972,340.0938 L602,340.0938 " fill="#FEFFDD" style="stroke:#181818;stroke-width:0.5;"/><path d="M972,340.0938 L972,350.0938 L982,350.0938 L972,340.0938 " fill="#FEFFDD" style="stroke:#181818;stroke-width:0.5;"/><text fill="#000000" font-family="sans-serif" font-size="20" lengthAdjust="spacing" textLength="318" x="608" y="365.8555">Restantes passos representados no</text><text fill="#000000" font-family="sans-serif" font-size="20" lengthAdjust="spacing" textLength="359" x="608" y="391.0117">diagrama da API disponivel na pasta API</text><polygon fill="#181818" points="428,432.5625,418,436.5625,428,440.5625,424,436.5625" style="stroke:#181818;stroke-width:1.0;"/><line style="stroke:#181818;stroke-width:1.0;stroke-dasharray:2.0,2.0;" x1="422" x2="596" y1="436.5625" y2="436.5625"/><text fill="#000000" font-family="sans-serif" font-size="20" lengthAdjust="spacing" textLength="82" x="434" y="430.168">successo</text><polygon fill="#181818" points="73,471.7188,63,475.7188,73,479.7188,69,475.7188" style="stroke:#181818;stroke-width:1.0;"/><line style="stroke:#181818;stroke-width:1.0;stroke-dasharray:2.0,2.0;" x1="67" x2="416" y1="475.7188" y2="475.7188"/><text fill="#000000" font-family="sans-serif" font-size="20" lengthAdjust="spacing" textLength="141" x="79" y="469.3242">retorna sucesso</text><!--SRC=[RP71Ri8m38RlUGgBqtP0J3jocCI5YHiQsWDuYGiHRHnYTuUz3S_2Yyqk4nBRAbLHvU__7BjopALYmw7dUAG4YJeSUrrpqLt-8dX-2W6ZSeDN4ZlMZHK11Tw5MWWMrHnpnQAmswxklcUUGDwKZbVRpSn3TeRWIPY_EB-4HgSnIpPdlPptkI0a5cZymH8CSCvv1wrx-G-x5mhr53CRuLKuZUHl0qhMfDqx1nPj21stOUmlvvOP8W-GqEM99yClFVPA5l793BWnFrgRRmaLDHuU5bZpmeigZo4KLeAMzmS5xXo30FQykQSeYOL4V2AgZOIAJbSeVCLInhtz8XiQfspAKhdaJ-h1Du8ccLPB9O5t2i6f-MqbOuna-kij_spKobFr6m00]--></g></svg>