<?xml version="1.0" encoding="UTF-8" standalone="no"?><svg xmlns="http://www.w3.org/2000/svg" xmlns:xlink="http://www.w3.org/1999/xlink" contentStyleType="text/css" height="1080px" preserveAspectRatio="none" style="width:1933px;height:1080px;background:#FFFFFF;" version="1.1" viewBox="0 0 1933 1080" width="1933px" zoomAndPan="magnify"><defs/><g><rect fill="none" height="396.875" style="stroke:#000000;stroke-width:1.5;" width="1043.5" x="754.5" y="302.9375"/><line style="stroke:#181818;stroke-width:0.5;stroke-dasharray:5.0,5.0;" x1="62" x2="62" y1="90.1563" y2="990.9063"/><line style="stroke:#181818;stroke-width:0.5;stroke-dasharray:5.0,5.0;" x1="790.5" x2="790.5" y1="90.1563" y2="990.9063"/><line style="stroke:#181818;stroke-width:0.5;stroke-dasharray:5.0,5.0;" x1="1358" x2="1358" y1="90.1563" y2="990.9063"/><line style="stroke:#181818;stroke-width:0.5;stroke-dasharray:5.0,5.0;" x1="1847" x2="1847" y1="90.1563" y2="990.9063"/><text fill="#000000" font-family="sans-serif" font-size="20" lengthAdjust="spacing" textLength="108" x="5" y="85.7617">GestorFrota</text><ellipse cx="62" cy="13.5" fill="#E2E2F0" rx="8" ry="8" style="stroke:#181818;stroke-width:0.5;"/><path d="M62,21.5 L62,48.5 M49,29.5 L75,29.5 M62,48.5 L49,63.5 M62,48.5 L75,63.5 " fill="none" style="stroke:#181818;stroke-width:0.5;"/><text fill="#000000" font-family="sans-serif" font-size="20" lengthAdjust="spacing" textLength="108" x="5" y="1010.668">GestorFrota</text><ellipse cx="62" cy="1023.5625" fill="#E2E2F0" rx="8" ry="8" style="stroke:#181818;stroke-width:0.5;"/><path d="M62,1031.5625 L62,1058.5625 M49,1039.5625 L75,1039.5625 M62,1058.5625 L49,1073.5625 M62,1058.5625 L75,1073.5625 " fill="none" style="stroke:#181818;stroke-width:0.5;"/><rect fill="#E2E2F0" height="39.1563" rx="2.5" ry="2.5" style="stroke:#181818;stroke-width:0.5;" width="53" x="764.5" y="50"/><text fill="#000000" font-family="sans-serif" font-size="20" lengthAdjust="spacing" textLength="39" x="771.5" y="77.7617">SPA</text><rect fill="#E2E2F0" height="39.1563" rx="2.5" ry="2.5" style="stroke:#181818;stroke-width:0.5;" width="53" x="764.5" y="989.9063"/><text fill="#000000" font-family="sans-serif" font-size="20" lengthAdjust="spacing" textLength="39" x="771.5" y="1017.668">SPA</text><rect fill="#E2E2F0" height="39.1563" rx="2.5" ry="2.5" style="stroke:#181818;stroke-width:0.5;" width="144" x="1286" y="50"/><text fill="#000000" font-family="sans-serif" font-size="20" lengthAdjust="spacing" textLength="130" x="1293" y="77.7617">GestaoInfoAPI</text><rect fill="#E2E2F0" height="39.1563" rx="2.5" ry="2.5" style="stroke:#181818;stroke-width:0.5;" width="144" x="1286" y="989.9063"/><text fill="#000000" font-family="sans-serif" font-size="20" lengthAdjust="spacing" textLength="130" x="1293" y="1017.668">GestaoInfoAPI</text><rect fill="#E2E2F0" height="39.1563" rx="2.5" ry="2.5" style="stroke:#181818;stroke-width:0.5;" width="160" x="1767" y="50"/><text fill="#000000" font-family="sans-serif" font-size="20" lengthAdjust="spacing" textLength="146" x="1774" y="77.7617">PlaneamentoAPI</text><rect fill="#E2E2F0" height="39.1563" rx="2.5" ry="2.5" style="stroke:#181818;stroke-width:0.5;" width="160" x="1767" y="989.9063"/><text fill="#000000" font-family="sans-serif" font-size="20" lengthAdjust="spacing" textLength="146" x="1774" y="1017.668">PlaneamentoAPI</text><polygon fill="#181818" points="779,127.3125,789,131.3125,779,135.3125,783,131.3125" style="stroke:#181818;stroke-width:1.0;"/><line style="stroke:#181818;stroke-width:1.0;" x1="62" x2="785" y1="131.3125" y2="131.3125"/><text fill="#000000" font-family="sans-serif" font-size="20" lengthAdjust="spacing" textLength="244" x="69" y="124.918">requisita página das tarefas</text><polygon fill="#181818" points="73,166.4688,63,170.4688,73,174.4688,69,170.4688" style="stroke:#181818;stroke-width:1.0;"/><line style="stroke:#181818;stroke-width:1.0;" x1="67" x2="790" y1="170.4688" y2="170.4688"/><text fill="#000000" font-family="sans-serif" font-size="20" lengthAdjust="spacing" textLength="233" x="79" y="164.0742">retorna página das tarefas</text><polygon fill="#181818" points="779,205.625,789,209.625,779,213.625,783,209.625" style="stroke:#181818;stroke-width:1.0;"/><line style="stroke:#181818;stroke-width:1.0;" x1="62" x2="785" y1="209.625" y2="209.625"/><text fill="#000000" font-family="sans-serif" font-size="20" lengthAdjust="spacing" textLength="356" x="69" y="203.2305">seleciona botão de adicionar nova tarefa</text><polygon fill="#181818" points="73,244.7813,63,248.7813,73,252.7813,69,248.7813" style="stroke:#181818;stroke-width:1.0;"/><line style="stroke:#181818;stroke-width:1.0;" x1="67" x2="790" y1="248.7813" y2="248.7813"/><text fill="#000000" font-family="sans-serif" font-size="20" lengthAdjust="spacing" textLength="372" x="79" y="242.3867">mostra formulário de adicionar nova tarefa</text><polygon fill="#181818" points="779,283.9375,789,287.9375,779,291.9375,783,287.9375" style="stroke:#181818;stroke-width:1.0;"/><line style="stroke:#181818;stroke-width:1.0;" x1="62" x2="785" y1="287.9375" y2="287.9375"/><text fill="#000000" font-family="sans-serif" font-size="20" lengthAdjust="spacing" textLength="705" x="69" y="281.543">seleciona o tipo de origem e de destino da tarefa (Sala, Passagem ou Elevador)</text><path d="M754.5,302.9375 L822.5,302.9375 L822.5,320.0938 L812.5,330.0938 L754.5,330.0938 L754.5,302.9375 " fill="#EEEEEE" style="stroke:#000000;stroke-width:1.5;"/><rect fill="none" height="396.875" style="stroke:#000000;stroke-width:1.5;" width="1043.5" x="754.5" y="302.9375"/><text fill="#000000" font-family="sans-serif" font-size="20" font-weight="bold" lengthAdjust="spacing" textLength="23" x="769.5" y="324.6992">alt</text><text fill="#000000" font-family="sans-serif" font-size="20" font-weight="bold" lengthAdjust="spacing" textLength="72" x="837.5" y="325.6992">["Sala"]</text><polygon fill="#181818" points="1346,367.4063,1356,371.4063,1346,375.4063,1350,371.4063" style="stroke:#181818;stroke-width:1.0;"/><line style="stroke:#181818;stroke-width:1.0;" x1="791" x2="1352" y1="371.4063" y2="371.4063"/><text fill="#000000" font-family="sans-serif" font-size="20" lengthAdjust="spacing" textLength="145" x="798" y="365.0117">post(/api/rooms)</text><polygon fill="#181818" points="802,406.5625,792,410.5625,802,414.5625,798,410.5625" style="stroke:#181818;stroke-width:1.0;"/><line style="stroke:#181818;stroke-width:1.0;" x1="796" x2="1357" y1="410.5625" y2="410.5625"/><text fill="#000000" font-family="sans-serif" font-size="20" lengthAdjust="spacing" textLength="235" x="808" y="404.168">mostra salas na select box</text><line style="stroke:#000000;stroke-width:1.0;stroke-dasharray:2.0,2.0;" x1="754.5" x2="1798" y1="419.5625" y2="419.5625"/><text fill="#000000" font-family="sans-serif" font-size="20" font-weight="bold" lengthAdjust="spacing" textLength="115" x="759.5" y="440.3242">["Elevador"]</text><polygon fill="#181818" points="1346,472.875,1356,476.875,1346,480.875,1350,476.875" style="stroke:#181818;stroke-width:1.0;"/><line style="stroke:#181818;stroke-width:1.0;" x1="791" x2="1352" y1="476.875" y2="476.875"/><text fill="#000000" font-family="sans-serif" font-size="20" lengthAdjust="spacing" textLength="170" x="798" y="470.4805">post(/api/elevators)</text><path d="M1363,489.875 L1363,549.875 L1788,549.875 L1788,499.875 L1778,489.875 L1363,489.875 " fill="#FEFFDD" style="stroke:#181818;stroke-width:0.5;"/><path d="M1778,489.875 L1778,499.875 L1788,499.875 L1778,489.875 " fill="#FEFFDD" style="stroke:#181818;stroke-width:0.5;"/><text fill="#000000" font-family="sans-serif" font-size="20" lengthAdjust="spacing" textLength="398" x="1369" y="515.6367">Este código do IF é igual tanto para a origem</text><text fill="#000000" font-family="sans-serif" font-size="20" lengthAdjust="spacing" textLength="180" x="1369" y="540.793">como para o destino</text><polygon fill="#181818" points="802,582.3438,792,586.3438,802,590.3438,798,586.3438" style="stroke:#181818;stroke-width:1.0;"/><line style="stroke:#181818;stroke-width:1.0;" x1="796" x2="1357" y1="586.3438" y2="586.3438"/><text fill="#000000" font-family="sans-serif" font-size="20" lengthAdjust="spacing" textLength="285" x="808" y="579.9492">mostra elevadores na select box</text><line style="stroke:#000000;stroke-width:1.0;stroke-dasharray:2.0,2.0;" x1="754.5" x2="1798" y1="595.3438" y2="595.3438"/><text fill="#000000" font-family="sans-serif" font-size="20" font-weight="bold" lengthAdjust="spacing" textLength="129" x="759.5" y="616.1055">["Passagem"]</text><polygon fill="#181818" points="1346,648.6563,1356,652.6563,1346,656.6563,1350,652.6563" style="stroke:#181818;stroke-width:1.0;"/><line style="stroke:#181818;stroke-width:1.0;" x1="791" x2="1352" y1="652.6563" y2="652.6563"/><text fill="#000000" font-family="sans-serif" font-size="20" lengthAdjust="spacing" textLength="175" x="798" y="646.2617">post(/api/passages)</text><polygon fill="#181818" points="802,687.8125,792,691.8125,802,695.8125,798,691.8125" style="stroke:#181818;stroke-width:1.0;"/><line style="stroke:#181818;stroke-width:1.0;" x1="796" x2="1357" y1="691.8125" y2="691.8125"/><text fill="#000000" font-family="sans-serif" font-size="20" lengthAdjust="spacing" textLength="284" x="808" y="685.418">mostra passagens na select box</text><polygon fill="#181818" points="779,733.9688,789,737.9688,779,741.9688,783,737.9688" style="stroke:#181818;stroke-width:1.0;"/><line style="stroke:#181818;stroke-width:1.0;" x1="62" x2="785" y1="737.9688" y2="737.9688"/><text fill="#000000" font-family="sans-serif" font-size="20" lengthAdjust="spacing" textLength="330" x="69" y="731.5742">seleciona o tipo de algoritmo a utilizar</text><polygon fill="#181818" points="779,773.125,789,777.125,779,781.125,783,777.125" style="stroke:#181818;stroke-width:1.0;"/><line style="stroke:#181818;stroke-width:1.0;" x1="62" x2="785" y1="777.125" y2="777.125"/><text fill="#000000" font-family="sans-serif" font-size="20" lengthAdjust="spacing" textLength="344" x="69" y="770.7305">Seleciona o botão de procurar caminho</text><polygon fill="#181818" points="1346,812.2813,1356,816.2813,1346,820.2813,1350,816.2813" style="stroke:#181818;stroke-width:1.0;"/><line style="stroke:#181818;stroke-width:1.0;" x1="791" x2="1352" y1="816.2813" y2="816.2813"/><text fill="#000000" font-family="sans-serif" font-size="20" lengthAdjust="spacing" textLength="543" x="798" y="809.8867">get(planning/findpath?algorithm=alg&amp;origin=org&amp;destiny=dest)</text><polygon fill="#181818" points="1835,851.4375,1845,855.4375,1835,859.4375,1839,855.4375" style="stroke:#181818;stroke-width:1.0;"/><line style="stroke:#181818;stroke-width:1.0;" x1="1358" x2="1841" y1="855.4375" y2="855.4375"/><text fill="#000000" font-family="sans-serif" font-size="20" lengthAdjust="spacing" textLength="465" x="1365" y="849.043">get(getPath?algorithm=alg&amp;origin=org&amp;destiny=dest)</text><polygon fill="#181818" points="1369,890.5938,1359,894.5938,1369,898.5938,1365,894.5938" style="stroke:#181818;stroke-width:1.0;"/><line style="stroke:#181818;stroke-width:1.0;" x1="1363" x2="1846" y1="894.5938" y2="894.5938"/><text fill="#000000" font-family="sans-serif" font-size="20" lengthAdjust="spacing" textLength="141" x="1375" y="888.1992">retorna caminho</text><polygon fill="#181818" points="802,929.75,792,933.75,802,937.75,798,933.75" style="stroke:#181818;stroke-width:1.0;"/><line style="stroke:#181818;stroke-width:1.0;" x1="796" x2="1357" y1="933.75" y2="933.75"/><text fill="#000000" font-family="sans-serif" font-size="20" lengthAdjust="spacing" textLength="141" x="808" y="927.3555">retorna caminho</text><polygon fill="#181818" points="73,968.9063,63,972.9063,73,976.9063,69,972.9063" style="stroke:#181818;stroke-width:1.0;"/><line style="stroke:#181818;stroke-width:1.0;" x1="67" x2="790" y1="972.9063" y2="972.9063"/><text fill="#000000" font-family="sans-serif" font-size="20" lengthAdjust="spacing" textLength="139" x="79" y="966.5117">mostra caminho</text><!--SRC=[bLD1Rjim4Bpp5GiV0WTeuQB706wHGnpuO420qGTifRMy2CLbI2feyvkWfvxx17siIrjIezG2MW429N9cTsP8nWTs7WCsLie7gg2Y0xOsRSIbFJyJVFnW39P90jnJr64J925WX2-HWZ5AJLooHvTWNznE_XUPWR9r1xajjejCqd4AAImwmePS6Z6xmfXS7Dv_oYLl8D1Zov6rhUzUQdO8bS8I1fKQZK8oCZCoL2Mwoy1fqKYMIXR5V9NK_H0r3bZnQIg0aoViYJ3jq4XC0U4WeMbjzn9udZdRKI2nF_4aS4qDKFwkD2rsEZrsNkxHuZieC4RCC6dXpj8JLXAkTLUivfSHYq6X9dW3NWKkL-Xv5KIQU6rqTjJGgu_AYg1AJfgIHl3D6BAHO34qc2jAULr3ri9E4e4QE2QGGyQ10NtkeawNtQ-AQpKZiDr0znEuRj6gCTreoESDS31_8fNIzFCo1678LP1xN790lKoQiJ5aDcV3dzSlnzClkhzhgw9_s5MqjNfBwWYXJMpv6SEKjN_5-dF-V92o3Ng8IcpO7SMOYVgQqjBhVN7iwjM1NUKn7J_tpOxDMh-kSgRirXBggtECtzTv76tkYdCTVOl_O9jTCSeOxjWWydM0RzSkNPrXxJS0]--></g></svg>