<?xml version="1.0" encoding="UTF-8" standalone="no"?><svg xmlns="http://www.w3.org/2000/svg" xmlns:xlink="http://www.w3.org/1999/xlink" contentStyleType="text/css" height="278px" preserveAspectRatio="none" style="width:407px;height:278px;background:#FFFFFF;" version="1.1" viewBox="0 0 407 278" width="407px" zoomAndPan="magnify"><defs/><g><line style="stroke:#181818;stroke-width:0.5;stroke-dasharray:5.0,5.0;" x1="31" x2="31" y1="90.1563" y2="188.4688"/><line style="stroke:#181818;stroke-width:0.5;stroke-dasharray:5.0,5.0;" x1="282.5" x2="282.5" y1="90.1563" y2="188.4688"/><text fill="#000000" font-family="sans-serif" font-size="20" lengthAdjust="spacing" textLength="47" x="5" y="85.7617">Actor</text><ellipse cx="31.5" cy="13.5" fill="#E2E2F0" rx="8" ry="8" style="stroke:#181818;stroke-width:0.5;"/><path d="M31.5,21.5 L31.5,48.5 M18.5,29.5 L44.5,29.5 M31.5,48.5 L18.5,63.5 M31.5,48.5 L44.5,63.5 " fill="none" style="stroke:#181818;stroke-width:0.5;"/><text fill="#000000" font-family="sans-serif" font-size="20" lengthAdjust="spacing" textLength="47" x="5" y="208.2305">Actor</text><ellipse cx="31.5" cy="221.125" fill="#E2E2F0" rx="8" ry="8" style="stroke:#181818;stroke-width:0.5;"/><path d="M31.5,229.125 L31.5,256.125 M18.5,237.125 L44.5,237.125 M31.5,256.125 L18.5,271.125 M31.5,256.125 L44.5,271.125 " fill="none" style="stroke:#181818;stroke-width:0.5;"/><rect fill="#E2E2F0" height="64.3125" rx="2.5" ry="2.5" style="stroke:#181818;stroke-width:0.5;" width="238" x="163.5" y="24.8438"/><text fill="#000000" font-family="sans-serif" font-size="20" font-style="italic" lengthAdjust="spacing" textLength="153" x="206" y="52.6055">«Container (C4)»</text><text fill="#000000" font-family="sans-serif" font-size="20" lengthAdjust="spacing" textLength="224" x="170.5" y="77.7617">robDroneGo:robDroneGo</text><rect fill="#E2E2F0" height="64.3125" rx="2.5" ry="2.5" style="stroke:#181818;stroke-width:0.5;" width="238" x="163.5" y="187.4688"/><text fill="#000000" font-family="sans-serif" font-size="20" font-style="italic" lengthAdjust="spacing" textLength="153" x="206" y="215.2305">«Container (C4)»</text><text fill="#000000" font-family="sans-serif" font-size="20" lengthAdjust="spacing" textLength="224" x="170.5" y="240.3867">robDroneGo:robDroneGo</text><polygon fill="#181818" points="270.5,127.3125,280.5,131.3125,270.5,135.3125,274.5,131.3125" style="stroke:#181818;stroke-width:1.0;"/><line style="stroke:#181818;stroke-width:1.0;" x1="31.5" x2="276.5" y1="131.3125" y2="131.3125"/><text fill="#000000" font-family="sans-serif" font-size="20" lengthAdjust="spacing" textLength="203" x="38.5" y="124.918">listar todos os edifícios</text><polygon fill="#181818" points="42.5,166.4688,32.5,170.4688,42.5,174.4688,38.5,170.4688" style="stroke:#181818;stroke-width:1.0;"/><line style="stroke:#181818;stroke-width:1.0;stroke-dasharray:2.0,2.0;" x1="36.5" x2="281.5" y1="170.4688" y2="170.4688"/><text fill="#000000" font-family="sans-serif" font-size="20" lengthAdjust="spacing" textLength="227" x="48.5" y="164.0742">devolve todos os edifícios</text><!--SRC=[ROv12i8m44NtESNGbIuA8gvAAKYb7i0JZCaKXiPCISOkl9Edy6B6Tf6DC7p-uh_7f8d3Z14VNkn43XoD-FGwID0RlmYE1sFGgaGuhubfAoP3ofPd30fLbFibIg2hDALMlt6VHSY18hHjwRl-jEywOpPdtPLP0vwJOWGL9mdoaUFnyxOioHH1dPaLRlB7Y_Y5_W9V]--></g></svg>