<?xml version="1.0" encoding="UTF-8" standalone="no"?><svg xmlns="http://www.w3.org/2000/svg" xmlns:xlink="http://www.w3.org/1999/xlink" contentStyleType="text/css" height="862px" preserveAspectRatio="none" style="width:1238px;height:862px;background:#FFFFFF;" version="1.1" viewBox="0 0 1238 862" width="1238px" zoomAndPan="magnify"><defs/><g><rect fill="#FFFFFF" height="771.8594" style="stroke:#181818;stroke-width:1.0;" width="10" x="20.5" y="46.2969"/><rect fill="#FFFFFF" height="699.5938" style="stroke:#181818;stroke-width:1.0;" width="10" x="284.5" y="67.4297"/><rect fill="#FFFFFF" height="599.1953" style="stroke:#181818;stroke-width:1.0;" width="10" x="429.5" y="138.6953"/><rect fill="#FFFFFF" height="498.7969" style="stroke:#181818;stroke-width:1.0;" width="10" x="607.5" y="209.9609"/><rect fill="#FFFFFF" height="29.1328" style="stroke:#181818;stroke-width:1.0;" width="10" x="880" y="268.2266"/><rect fill="#FFFFFF" height="30" style="stroke:#181818;stroke-width:1.0;" width="10" x="981" y="326.4922"/><rect fill="#FFFFFF" height="29.1328" style="stroke:#181818;stroke-width:1.0;" width="10" x="1082.5" y="492.1563"/><rect fill="#FFFFFF" height="29.1328" style="stroke:#181818;stroke-width:1.0;" width="10" x="1082.5" y="565.2266"/><rect fill="#FFFFFF" height="29.1328" style="stroke:#181818;stroke-width:1.0;" width="10" x="1174.5" y="433.8906"/><rect fill="none" height="280" style="stroke:#000000;stroke-width:1.5;" width="687.5" x="544.5" y="371.4922"/><rect fill="none" height="206.7344" style="stroke:#000000;stroke-width:1.5;" width="667.5" x="554.5" y="395.625"/><line style="stroke:#181818;stroke-width:0.5;stroke-dasharray:5.0,5.0;" x1="25" x2="25" y1="36.2969" y2="827.1563"/><line style="stroke:#181818;stroke-width:0.5;stroke-dasharray:5.0,5.0;" x1="289" x2="289" y1="36.2969" y2="827.1563"/><line style="stroke:#181818;stroke-width:0.5;stroke-dasharray:5.0,5.0;" x1="434" x2="434" y1="36.2969" y2="827.1563"/><line style="stroke:#181818;stroke-width:0.5;stroke-dasharray:5.0,5.0;" x1="612.5" x2="612.5" y1="36.2969" y2="827.1563"/><line style="stroke:#181818;stroke-width:0.5;stroke-dasharray:5.0,5.0;" x1="784" x2="784" y1="36.2969" y2="827.1563"/><line style="stroke:#181818;stroke-width:0.5;stroke-dasharray:5.0,5.0;" x1="885" x2="885" y1="36.2969" y2="827.1563"/><line style="stroke:#181818;stroke-width:0.5;stroke-dasharray:5.0,5.0;" x1="986" x2="986" y1="36.2969" y2="827.1563"/><line style="stroke:#181818;stroke-width:0.5;stroke-dasharray:5.0,5.0;" x1="1087" x2="1087" y1="36.2969" y2="827.1563"/><line style="stroke:#181818;stroke-width:0.5;stroke-dasharray:5.0,5.0;" x1="1179" x2="1179" y1="36.2969" y2="827.1563"/><rect fill="#E2E2F0" height="30.2969" rx="2.5" ry="2.5" style="stroke:#181818;stroke-width:0.5;" width="41" x="5" y="5"/><text fill="#000000" font-family="sans-serif" font-size="14" lengthAdjust="spacing" textLength="27" x="12" y="24.9951">SPA</text><rect fill="#E2E2F0" height="30.2969" rx="2.5" ry="2.5" style="stroke:#181818;stroke-width:0.5;" width="41" x="5" y="826.1563"/><text fill="#000000" font-family="sans-serif" font-size="14" lengthAdjust="spacing" textLength="27" x="12" y="846.1514">SPA</text><rect fill="#E2E2F0" height="30.2969" rx="2.5" ry="2.5" style="stroke:#181818;stroke-width:0.5;" width="69" x="255" y="5"/><text fill="#000000" font-family="sans-serif" font-size="14" lengthAdjust="spacing" textLength="55" x="262" y="24.9951">MPT API</text><rect fill="#E2E2F0" height="30.2969" rx="2.5" ry="2.5" style="stroke:#181818;stroke-width:0.5;" width="69" x="255" y="826.1563"/><text fill="#000000" font-family="sans-serif" font-size="14" lengthAdjust="spacing" textLength="55" x="262" y="846.1514">MPT API</text><rect fill="#E2E2F0" height="30.2969" rx="2.5" ry="2.5" style="stroke:#181818;stroke-width:0.5;" width="113" x="378" y="5"/><text fill="#000000" font-family="sans-serif" font-size="14" lengthAdjust="spacing" textLength="99" x="385" y="24.9951">UserController</text><rect fill="#E2E2F0" height="30.2969" rx="2.5" ry="2.5" style="stroke:#181818;stroke-width:0.5;" width="113" x="378" y="826.1563"/><text fill="#000000" font-family="sans-serif" font-size="14" lengthAdjust="spacing" textLength="99" x="385" y="846.1514">UserController</text><rect fill="#E2E2F0" height="30.2969" rx="2.5" ry="2.5" style="stroke:#181818;stroke-width:0.5;" width="96" x="564.5" y="5"/><text fill="#000000" font-family="sans-serif" font-size="14" lengthAdjust="spacing" textLength="82" x="571.5" y="24.9951">UserService</text><rect fill="#E2E2F0" height="30.2969" rx="2.5" ry="2.5" style="stroke:#181818;stroke-width:0.5;" width="96" x="564.5" y="826.1563"/><text fill="#000000" font-family="sans-serif" font-size="14" lengthAdjust="spacing" textLength="82" x="571.5" y="846.1514">UserService</text><rect fill="#E2E2F0" height="30.2969" rx="2.5" ry="2.5" style="stroke:#181818;stroke-width:0.5;" width="83" x="743" y="5"/><text fill="#000000" font-family="sans-serif" font-size="14" lengthAdjust="spacing" textLength="69" x="750" y="24.9951">UserRepo</text><rect fill="#E2E2F0" height="30.2969" rx="2.5" ry="2.5" style="stroke:#181818;stroke-width:0.5;" width="83" x="743" y="826.1563"/><text fill="#000000" font-family="sans-serif" font-size="14" lengthAdjust="spacing" textLength="69" x="750" y="846.1514">UserRepo</text><rect fill="#E2E2F0" height="30.2969" rx="2.5" ry="2.5" style="stroke:#181818;stroke-width:0.5;" width="98" x="836" y="5"/><text fill="#000000" font-family="sans-serif" font-size="14" lengthAdjust="spacing" textLength="84" x="843" y="24.9951">UserMapper</text><rect fill="#E2E2F0" height="30.2969" rx="2.5" ry="2.5" style="stroke:#181818;stroke-width:0.5;" width="98" x="836" y="826.1563"/><text fill="#000000" font-family="sans-serif" font-size="14" lengthAdjust="spacing" textLength="84" x="843" y="846.1514">UserMapper</text><rect fill="#E2E2F0" height="30.2969" rx="2.5" ry="2.5" style="stroke:#181818;stroke-width:0.5;" width="84" x="944" y="5"/><text fill="#000000" font-family="sans-serif" font-size="14" lengthAdjust="spacing" textLength="70" x="951" y="24.9951">TaskRepo</text><rect fill="#E2E2F0" height="30.2969" rx="2.5" ry="2.5" style="stroke:#181818;stroke-width:0.5;" width="84" x="944" y="826.1563"/><text fill="#000000" font-family="sans-serif" font-size="14" lengthAdjust="spacing" textLength="70" x="951" y="846.1514">TaskRepo</text><rect fill="#E2E2F0" height="30.2969" rx="2.5" ry="2.5" style="stroke:#181818;stroke-width:0.5;" width="99" x="1038" y="5"/><text fill="#000000" font-family="sans-serif" font-size="14" lengthAdjust="spacing" textLength="85" x="1045" y="24.9951">TaskMapper</text><rect fill="#E2E2F0" height="30.2969" rx="2.5" ry="2.5" style="stroke:#181818;stroke-width:0.5;" width="99" x="1038" y="826.1563"/><text fill="#000000" font-family="sans-serif" font-size="14" lengthAdjust="spacing" textLength="85" x="1045" y="846.1514">TaskMapper</text><rect fill="#E2E2F0" height="30.2969" rx="2.5" ry="2.5" style="stroke:#181818;stroke-width:0.5;" width="65" x="1147" y="5"/><text fill="#000000" font-family="sans-serif" font-size="14" lengthAdjust="spacing" textLength="51" x="1154" y="24.9951">MGI API</text><rect fill="#E2E2F0" height="30.2969" rx="2.5" ry="2.5" style="stroke:#181818;stroke-width:0.5;" width="65" x="1147" y="826.1563"/><text fill="#000000" font-family="sans-serif" font-size="14" lengthAdjust="spacing" textLength="51" x="1154" y="846.1514">MGI API</text><rect fill="#FFFFFF" height="771.8594" style="stroke:#181818;stroke-width:1.0;" width="10" x="20.5" y="46.2969"/><rect fill="#FFFFFF" height="699.5938" style="stroke:#181818;stroke-width:1.0;" width="10" x="284.5" y="67.4297"/><rect fill="#FFFFFF" height="599.1953" style="stroke:#181818;stroke-width:1.0;" width="10" x="429.5" y="138.6953"/><rect fill="#FFFFFF" height="498.7969" style="stroke:#181818;stroke-width:1.0;" width="10" x="607.5" y="209.9609"/><rect fill="#FFFFFF" height="29.1328" style="stroke:#181818;stroke-width:1.0;" width="10" x="880" y="268.2266"/><rect fill="#FFFFFF" height="30" style="stroke:#181818;stroke-width:1.0;" width="10" x="981" y="326.4922"/><rect fill="#FFFFFF" height="29.1328" style="stroke:#181818;stroke-width:1.0;" width="10" x="1082.5" y="492.1563"/><rect fill="#FFFFFF" height="29.1328" style="stroke:#181818;stroke-width:1.0;" width="10" x="1082.5" y="565.2266"/><rect fill="#FFFFFF" height="29.1328" style="stroke:#181818;stroke-width:1.0;" width="10" x="1174.5" y="433.8906"/><polygon fill="#181818" points="272.5,63.4297,282.5,67.4297,272.5,71.4297,276.5,67.4297" style="stroke:#181818;stroke-width:1.0;"/><line style="stroke:#181818;stroke-width:1.0;" x1="30.5" x2="278.5" y1="67.4297" y2="67.4297"/><text fill="#000000" font-family="sans-serif" font-size="13" lengthAdjust="spacing" textLength="138" x="37.5" y="62.3638">GET(/api/users/allInfo)</text><line style="stroke:#181818;stroke-width:1.0;" x1="294.5" x2="336.5" y1="96.5625" y2="96.5625"/><line style="stroke:#181818;stroke-width:1.0;" x1="336.5" x2="336.5" y1="96.5625" y2="109.5625"/><line style="stroke:#181818;stroke-width:1.0;" x1="295.5" x2="336.5" y1="109.5625" y2="109.5625"/><polygon fill="#181818" points="305.5,105.5625,295.5,109.5625,305.5,113.5625,301.5,109.5625" style="stroke:#181818;stroke-width:1.0;"/><text fill="#000000" font-family="sans-serif" font-size="13" lengthAdjust="spacing" textLength="106" x="301.5" y="91.4966">auth middleware</text><polygon fill="#181818" points="417.5,134.6953,427.5,138.6953,417.5,142.6953,421.5,138.6953" style="stroke:#181818;stroke-width:1.0;"/><line style="stroke:#181818;stroke-width:1.0;" x1="294.5" x2="423.5" y1="138.6953" y2="138.6953"/><text fill="#000000" font-family="sans-serif" font-size="13" lengthAdjust="spacing" textLength="101" x="301.5" y="133.6294">GetUserAllInfo()</text><line style="stroke:#181818;stroke-width:1.0;" x1="439.5" x2="481.5" y1="167.8281" y2="167.8281"/><line style="stroke:#181818;stroke-width:1.0;" x1="481.5" x2="481.5" y1="167.8281" y2="180.8281"/><line style="stroke:#181818;stroke-width:1.0;" x1="440.5" x2="481.5" y1="180.8281" y2="180.8281"/><polygon fill="#181818" points="450.5,176.8281,440.5,180.8281,450.5,184.8281,446.5,180.8281" style="stroke:#181818;stroke-width:1.0;"/><text fill="#000000" font-family="sans-serif" font-size="13" lengthAdjust="spacing" textLength="154" x="446.5" y="162.7622">permissions middleware</text><polygon fill="#181818" points="595.5,205.9609,605.5,209.9609,595.5,213.9609,599.5,209.9609" style="stroke:#181818;stroke-width:1.0;"/><line style="stroke:#181818;stroke-width:1.0;" x1="439.5" x2="601.5" y1="209.9609" y2="209.9609"/><text fill="#000000" font-family="sans-serif" font-size="13" lengthAdjust="spacing" textLength="101" x="446.5" y="204.895">GetUserAllInfo()</text><polygon fill="#181818" points="772.5,235.0938,782.5,239.0938,772.5,243.0938,776.5,239.0938" style="stroke:#181818;stroke-width:1.0;"/><line style="stroke:#181818;stroke-width:1.0;" x1="617.5" x2="778.5" y1="239.0938" y2="239.0938"/><text fill="#000000" font-family="sans-serif" font-size="13" lengthAdjust="spacing" textLength="109" x="624.5" y="234.0278">GetByIdAsync(id)</text><polygon fill="#181818" points="868,264.2266,878,268.2266,868,272.2266,872,268.2266" style="stroke:#181818;stroke-width:1.0;"/><line style="stroke:#181818;stroke-width:1.0;" x1="617.5" x2="874" y1="268.2266" y2="268.2266"/><text fill="#000000" font-family="sans-serif" font-size="13" lengthAdjust="spacing" textLength="78" x="624.5" y="263.1606">toDTO(user)</text><polygon fill="#181818" points="628.5,293.3594,618.5,297.3594,628.5,301.3594,624.5,297.3594" style="stroke:#181818;stroke-width:1.0;"/><line style="stroke:#181818;stroke-width:1.0;stroke-dasharray:2.0,2.0;" x1="622.5" x2="884" y1="297.3594" y2="297.3594"/><text fill="#000000" font-family="sans-serif" font-size="13" lengthAdjust="spacing" textLength="51" x="634.5" y="292.2935">userDto</text><polygon fill="#181818" points="969,322.4922,979,326.4922,969,330.4922,973,326.4922" style="stroke:#181818;stroke-width:1.0;"/><line style="stroke:#181818;stroke-width:1.0;" x1="617.5" x2="975" y1="326.4922" y2="326.4922"/><text fill="#000000" font-family="sans-serif" font-size="13" lengthAdjust="spacing" textLength="257" x="624.5" y="321.4263">tasks = GetAllFilteredAsync(null, id, null)</text><path d="M544.5,371.4922 L621.5,371.4922 L621.5,378.625 L611.5,388.625 L544.5,388.625 L544.5,371.4922 " fill="#EEEEEE" style="stroke:#000000;stroke-width:1.5;"/><rect fill="none" height="280" style="stroke:#000000;stroke-width:1.5;" width="687.5" x="544.5" y="371.4922"/><text fill="#000000" font-family="sans-serif" font-size="13" font-weight="bold" lengthAdjust="spacing" textLength="32" x="559.5" y="384.5591">loop</text><text fill="#000000" font-family="sans-serif" font-size="11" font-weight="bold" lengthAdjust="spacing" textLength="94" x="636.5" y="383.7026">[for each task]</text><path d="M554.5,395.625 L618.5,395.625 L618.5,402.7578 L608.5,412.7578 L554.5,412.7578 L554.5,395.625 " fill="#EEEEEE" style="stroke:#000000;stroke-width:1.5;"/><rect fill="none" height="206.7344" style="stroke:#000000;stroke-width:1.5;" width="667.5" x="554.5" y="395.625"/><text fill="#000000" font-family="sans-serif" font-size="13" font-weight="bold" lengthAdjust="spacing" textLength="19" x="569.5" y="408.6919">alt</text><text fill="#000000" font-family="sans-serif" font-size="11" font-weight="bold" lengthAdjust="spacing" textLength="119" x="633.5" y="407.8354">[SurveillanceTask]</text><polygon fill="#181818" points="1162.5,429.8906,1172.5,433.8906,1162.5,437.8906,1166.5,433.8906" style="stroke:#181818;stroke-width:1.0;"/><line style="stroke:#181818;stroke-width:1.0;" x1="617.5" x2="1168.5" y1="433.8906" y2="433.8906"/><text fill="#000000" font-family="sans-serif" font-size="13" lengthAdjust="spacing" textLength="109" x="624.5" y="428.8247">GET(/api/floor/:id)</text><polygon fill="#181818" points="628.5,459.0234,618.5,463.0234,628.5,467.0234,624.5,463.0234" style="stroke:#181818;stroke-width:1.0;"/><line style="stroke:#181818;stroke-width:1.0;stroke-dasharray:2.0,2.0;" x1="622.5" x2="1178.5" y1="463.0234" y2="463.0234"/><text fill="#000000" font-family="sans-serif" font-size="13" lengthAdjust="spacing" textLength="55" x="634.5" y="457.9575">floor info</text><polygon fill="#181818" points="1070.5,488.1563,1080.5,492.1563,1070.5,496.1563,1074.5,492.1563" style="stroke:#181818;stroke-width:1.0;"/><line style="stroke:#181818;stroke-width:1.0;" x1="617.5" x2="1076.5" y1="492.1563" y2="492.1563"/><text fill="#000000" font-family="sans-serif" font-size="13" lengthAdjust="spacing" textLength="113" x="624.5" y="487.0903">toDTO(task, floor)</text><polygon fill="#181818" points="628.5,517.2891,618.5,521.2891,628.5,525.2891,624.5,521.2891" style="stroke:#181818;stroke-width:1.0;"/><line style="stroke:#181818;stroke-width:1.0;" x1="622.5" x2="1086.5" y1="521.2891" y2="521.2891"/><text fill="#000000" font-family="sans-serif" font-size="13" lengthAdjust="spacing" textLength="52" x="634.5" y="516.2231">TaskDto</text><line style="stroke:#000000;stroke-width:1.0;stroke-dasharray:2.0,2.0;" x1="554.5" x2="1222" y1="530.2891" y2="530.2891"/><text fill="#000000" font-family="sans-serif" font-size="11" font-weight="bold" lengthAdjust="spacing" textLength="134" x="559.5" y="540.4995">[PickupDeliveryTask]</text><polygon fill="#181818" points="1070.5,561.2266,1080.5,565.2266,1070.5,569.2266,1074.5,565.2266" style="stroke:#181818;stroke-width:1.0;"/><line style="stroke:#181818;stroke-width:1.0;" x1="617.5" x2="1076.5" y1="565.2266" y2="565.2266"/><text fill="#000000" font-family="sans-serif" font-size="13" lengthAdjust="spacing" textLength="77" x="624.5" y="560.1606">toDTO(task)</text><polygon fill="#181818" points="628.5,590.3594,618.5,594.3594,628.5,598.3594,624.5,594.3594" style="stroke:#181818;stroke-width:1.0;"/><line style="stroke:#181818;stroke-width:1.0;" x1="622.5" x2="1086.5" y1="594.3594" y2="594.3594"/><text fill="#000000" font-family="sans-serif" font-size="13" lengthAdjust="spacing" textLength="52" x="634.5" y="589.2935">TaskDto</text><line style="stroke:#181818;stroke-width:1.0;" x1="617.5" x2="659.5" y1="630.4922" y2="630.4922"/><line style="stroke:#181818;stroke-width:1.0;" x1="659.5" x2="659.5" y1="630.4922" y2="643.4922"/><line style="stroke:#181818;stroke-width:1.0;" x1="618.5" x2="659.5" y1="643.4922" y2="643.4922"/><polygon fill="#181818" points="628.5,639.4922,618.5,643.4922,628.5,647.4922,624.5,643.4922" style="stroke:#181818;stroke-width:1.0;"/><text fill="#000000" font-family="sans-serif" font-size="13" lengthAdjust="spacing" textLength="148" x="624.5" y="625.4263">tasksDto.Add(TaskDto)</text><polygon fill="#181818" points="873,675.625,883,679.625,873,683.625,877,679.625" style="stroke:#181818;stroke-width:1.0;"/><line style="stroke:#181818;stroke-width:1.0;" x1="617.5" x2="879" y1="679.625" y2="679.625"/><text fill="#000000" font-family="sans-serif" font-size="13" lengthAdjust="spacing" textLength="234" x="624.5" y="674.5591">ToUserWithTasks(userDto, tasksDto)</text><polygon fill="#181818" points="450.5,704.7578,440.5,708.7578,450.5,712.7578,446.5,708.7578" style="stroke:#181818;stroke-width:1.0;"/><line style="stroke:#181818;stroke-width:1.0;stroke-dasharray:2.0,2.0;" x1="444.5" x2="611.5" y1="708.7578" y2="708.7578"/><text fill="#000000" font-family="sans-serif" font-size="13" lengthAdjust="spacing" textLength="87" x="456.5" y="703.6919">userwithtasks</text><polygon fill="#181818" points="305.5,733.8906,295.5,737.8906,305.5,741.8906,301.5,737.8906" style="stroke:#181818;stroke-width:1.0;"/><line style="stroke:#181818;stroke-width:1.0;stroke-dasharray:2.0,2.0;" x1="299.5" x2="433.5" y1="737.8906" y2="737.8906"/><text fill="#000000" font-family="sans-serif" font-size="13" lengthAdjust="spacing" textLength="111" x="311.5" y="732.8247">status copde 200</text><polygon fill="#181818" points="41.5,763.0234,31.5,767.0234,41.5,771.0234,37.5,767.0234" style="stroke:#181818;stroke-width:1.0;"/><line style="stroke:#181818;stroke-width:1.0;stroke-dasharray:2.0,2.0;" x1="35.5" x2="288.5" y1="767.0234" y2="767.0234"/><text fill="#000000" font-family="sans-serif" font-size="13" lengthAdjust="spacing" textLength="51" x="47.5" y="761.9575">success</text><line style="stroke:#181818;stroke-width:1.0;" x1="30.5" x2="72.5" y1="796.1563" y2="796.1563"/><line style="stroke:#181818;stroke-width:1.0;" x1="72.5" x2="72.5" y1="796.1563" y2="809.1563"/><line style="stroke:#181818;stroke-width:1.0;" x1="31.5" x2="72.5" y1="809.1563" y2="809.1563"/><polygon fill="#181818" points="41.5,805.1563,31.5,809.1563,41.5,813.1563,37.5,809.1563" style="stroke:#181818;stroke-width:1.0;"/><text fill="#000000" font-family="sans-serif" font-size="13" lengthAdjust="spacing" textLength="240" x="37.5" y="791.0903">download de dados num ficheiro .json</text><!--MD5=[d977c3250f76b8e9090f3f19e700fa9a]
@startuml
participant SPA
participant "MPT API" as API
participant "UserController" as Ctrl
participant "UserService" as Srv
participant "UserRepo" as Repo
participant "UserMapper" as Map
participant "TaskRepo" as tr
participant "TaskMapper" as tm
participant "MGI API" as API2


activate SPA
SPA -> API: GET(/api/users/allInfo)
activate API

API -> API: auth middleware
API -> Ctrl: GetUserAllInfo()
activate Ctrl

Ctrl -> Ctrl: permissions middleware
Ctrl -> Srv: GetUserAllInfo()
activate Srv

Srv -> Repo: GetByIdAsync(id)



Srv -> Map: toDTO(user)
activate Map
Map - -> Srv: userDto
deactivate Map

Srv -> tr: tasks = GetAllFilteredAsync(null, id, null)
activate tr
deactivate tr

loop for each task
    alt SurveillanceTask

        Srv -> API2: GET(/api/floor/:id)
        activate API2
        API2 - -> Srv: floor info
        deactivate API2

        Srv -> tm: toDTO(task, floor)
        activate tm
        tm -> Srv: TaskDto
        deactivate tm

    else PickupDeliveryTask
        Srv -> tm: toDTO(task)
        activate tm
        tm -> Srv: TaskDto
        deactivate tm

    end
    Srv -> Srv: tasksDto.Add(TaskDto)

end

Srv -> Map: ToUserWithTasks(userDto, tasksDto)

Srv - -> Ctrl: userwithtasks
deactivate Srv

Ctrl - -> API: status copde 200
deactivate Ctrl

API - -> SPA: success
deactivate API

SPA -> SPA: download de dados num ficheiro .json





@enduml

PlantUML version 1.2022.7(Mon Aug 22 18:01:30 WEST 2022)
(GPL source distribution)
Java Runtime: OpenJDK Runtime Environment
JVM: OpenJDK 64-Bit Server VM
Default Encoding: UTF-8
Language: en
Country: US
--></g></svg>