<?xml version="1.0" encoding="UTF-8" standalone="no"?><svg xmlns="http://www.w3.org/2000/svg" xmlns:xlink="http://www.w3.org/1999/xlink" contentStyleType="text/css" height="1255px" preserveAspectRatio="none" style="width:2187px;height:1255px;background:#FFFFFF;" version="1.1" viewBox="0 0 2187 1255" width="2187px" zoomAndPan="magnify"><defs/><g><rect fill="#FFFFFF" height="1147.2188" style="stroke:#181818;stroke-width:1.0;" width="10" x="26.5" y="55.1563"/><rect fill="#FFFFFF" height="1107.0625" style="stroke:#181818;stroke-width:1.0;" width="10" x="320.5" y="86.3125"/><rect fill="#FFFFFF" height="976.5938" style="stroke:#181818;stroke-width:1.0;" width="10" x="622.5" y="177.625"/><rect fill="#FFFFFF" height="846.125" style="stroke:#181818;stroke-width:1.0;" width="10" x="924.5" y="268.9375"/><rect fill="#FFFFFF" height="30" style="stroke:#181818;stroke-width:1.0;" width="10" x="1250.5" y="665.5"/><rect fill="#FFFFFF" height="39.1563" style="stroke:#181818;stroke-width:1.0;" width="10" x="1358" y="308.0938"/><rect fill="#FFFFFF" height="30" style="stroke:#181818;stroke-width:1.0;" width="10" x="1471" y="482.875"/><rect fill="#FFFFFF" height="78.3125" style="stroke:#181818;stroke-width:1.0;" width="10" x="1594.5" y="734.6563"/><rect fill="#FFFFFF" height="78.3125" style="stroke:#181818;stroke-width:1.0;" width="10" x="1594.5" y="931.4375"/><rect fill="#FFFFFF" height="30" style="stroke:#181818;stroke-width:1.0;" width="10" x="1728.5" y="552.0313"/><rect fill="none" height="662.5" style="stroke:#000000;stroke-width:1.5;" width="1332.5" x="848.5" y="414.4063"/><rect fill="none" height="472.875" style="stroke:#000000;stroke-width:1.5;" width="1312.5" x="858.5" y="597.0313"/><line style="stroke:#181818;stroke-width:0.5;stroke-dasharray:5.0,5.0;" x1="31" x2="31" y1="45.1563" y2="1211.375"/><line style="stroke:#181818;stroke-width:0.5;stroke-dasharray:5.0,5.0;" x1="325.5" x2="325.5" y1="45.1563" y2="1211.375"/><line style="stroke:#181818;stroke-width:0.5;stroke-dasharray:5.0,5.0;" x1="627.5" x2="627.5" y1="45.1563" y2="1211.375"/><line style="stroke:#181818;stroke-width:0.5;stroke-dasharray:5.0,5.0;" x1="929.5" x2="929.5" y1="45.1563" y2="1211.375"/><line style="stroke:#181818;stroke-width:0.5;stroke-dasharray:5.0,5.0;" x1="1255" x2="1255" y1="45.1563" y2="1211.375"/><line style="stroke:#181818;stroke-width:0.5;stroke-dasharray:5.0,5.0;" x1="1363" x2="1363" y1="45.1563" y2="1211.375"/><line style="stroke:#181818;stroke-width:0.5;stroke-dasharray:5.0,5.0;" x1="1476" x2="1476" y1="45.1563" y2="1211.375"/><line style="stroke:#181818;stroke-width:0.5;stroke-dasharray:5.0,5.0;" x1="1599" x2="1599" y1="45.1563" y2="1211.375"/><line style="stroke:#181818;stroke-width:0.5;stroke-dasharray:5.0,5.0;" x1="1733" x2="1733" y1="45.1563" y2="1211.375"/><line style="stroke:#181818;stroke-width:0.5;stroke-dasharray:5.0,5.0;" x1="1885" x2="1885" y1="45.1563" y2="1211.375"/><line style="stroke:#181818;stroke-width:0.5;stroke-dasharray:5.0,5.0;" x1="2068" x2="2068" y1="45.1563" y2="1211.375"/><rect fill="#E2E2F0" height="39.1563" rx="2.5" ry="2.5" style="stroke:#181818;stroke-width:0.5;" width="53" x="5" y="5"/><text fill="#000000" font-family="sans-serif" font-size="20" lengthAdjust="spacing" textLength="39" x="12" y="32.7617">SPA</text><rect fill="#E2E2F0" height="39.1563" rx="2.5" ry="2.5" style="stroke:#181818;stroke-width:0.5;" width="53" x="5" y="1210.375"/><text fill="#000000" font-family="sans-serif" font-size="20" lengthAdjust="spacing" textLength="39" x="12" y="1238.1367">SPA</text><rect fill="#E2E2F0" height="39.1563" rx="2.5" ry="2.5" style="stroke:#181818;stroke-width:0.5;" width="94" x="278.5" y="5"/><text fill="#000000" font-family="sans-serif" font-size="20" lengthAdjust="spacing" textLength="80" x="285.5" y="32.7617">MPT API</text><rect fill="#E2E2F0" height="39.1563" rx="2.5" ry="2.5" style="stroke:#181818;stroke-width:0.5;" width="94" x="278.5" y="1210.375"/><text fill="#000000" font-family="sans-serif" font-size="20" lengthAdjust="spacing" textLength="80" x="285.5" y="1238.1367">MPT API</text><rect fill="#E2E2F0" height="39.1563" rx="2.5" ry="2.5" style="stroke:#181818;stroke-width:0.5;" width="142" x="556.5" y="5"/><text fill="#000000" font-family="sans-serif" font-size="20" lengthAdjust="spacing" textLength="128" x="563.5" y="32.7617">TaskController</text><rect fill="#E2E2F0" height="39.1563" rx="2.5" ry="2.5" style="stroke:#181818;stroke-width:0.5;" width="142" x="556.5" y="1210.375"/><text fill="#000000" font-family="sans-serif" font-size="20" lengthAdjust="spacing" textLength="128" x="563.5" y="1238.1367">TaskController</text><rect fill="#E2E2F0" height="39.1563" rx="2.5" ry="2.5" style="stroke:#181818;stroke-width:0.5;" width="122" x="868.5" y="5"/><text fill="#000000" font-family="sans-serif" font-size="20" lengthAdjust="spacing" textLength="108" x="875.5" y="32.7617">TaskService</text><rect fill="#E2E2F0" height="39.1563" rx="2.5" ry="2.5" style="stroke:#181818;stroke-width:0.5;" width="122" x="868.5" y="1210.375"/><text fill="#000000" font-family="sans-serif" font-size="20" lengthAdjust="spacing" textLength="108" x="875.5" y="1238.1367">TaskService</text><rect fill="#E2E2F0" height="39.1563" rx="2.5" ry="2.5" style="stroke:#181818;stroke-width:0.5;" width="91" x="1210" y="5"/><text fill="#000000" font-family="sans-serif" font-size="20" lengthAdjust="spacing" textLength="77" x="1217" y="32.7617">MGI API</text><rect fill="#E2E2F0" height="39.1563" rx="2.5" ry="2.5" style="stroke:#181818;stroke-width:0.5;" width="91" x="1210" y="1210.375"/><text fill="#000000" font-family="sans-serif" font-size="20" lengthAdjust="spacing" textLength="77" x="1217" y="1238.1367">MGI API</text><rect fill="#E2E2F0" height="39.1563" rx="2.5" ry="2.5" style="stroke:#181818;stroke-width:0.5;" width="104" x="1311" y="5"/><text fill="#000000" font-family="sans-serif" font-size="20" lengthAdjust="spacing" textLength="90" x="1318" y="32.7617">TaskRepo</text><rect fill="#E2E2F0" height="39.1563" rx="2.5" ry="2.5" style="stroke:#181818;stroke-width:0.5;" width="104" x="1311" y="1210.375"/><text fill="#000000" font-family="sans-serif" font-size="20" lengthAdjust="spacing" textLength="90" x="1318" y="1238.1367">TaskRepo</text><rect fill="#E2E2F0" height="39.1563" rx="2.5" ry="2.5" style="stroke:#181818;stroke-width:0.5;" width="102" x="1425" y="5"/><text fill="#000000" font-family="sans-serif" font-size="20" lengthAdjust="spacing" textLength="88" x="1432" y="32.7617">UserRepo</text><rect fill="#E2E2F0" height="39.1563" rx="2.5" ry="2.5" style="stroke:#181818;stroke-width:0.5;" width="102" x="1425" y="1210.375"/><text fill="#000000" font-family="sans-serif" font-size="20" lengthAdjust="spacing" textLength="88" x="1432" y="1238.1367">UserRepo</text><rect fill="#E2E2F0" height="39.1563" rx="2.5" ry="2.5" style="stroke:#181818;stroke-width:0.5;" width="125" x="1537" y="5"/><text fill="#000000" font-family="sans-serif" font-size="20" lengthAdjust="spacing" textLength="111" x="1544" y="32.7617">TaskMapper</text><rect fill="#E2E2F0" height="39.1563" rx="2.5" ry="2.5" style="stroke:#181818;stroke-width:0.5;" width="125" x="1537" y="1210.375"/><text fill="#000000" font-family="sans-serif" font-size="20" lengthAdjust="spacing" textLength="111" x="1544" y="1238.1367">TaskMapper</text><rect fill="#E2E2F0" height="39.1563" rx="2.5" ry="2.5" style="stroke:#181818;stroke-width:0.5;" width="123" x="1672" y="5"/><text fill="#000000" font-family="sans-serif" font-size="20" lengthAdjust="spacing" textLength="109" x="1679" y="32.7617">UserMapper</text><rect fill="#E2E2F0" height="39.1563" rx="2.5" ry="2.5" style="stroke:#181818;stroke-width:0.5;" width="123" x="1672" y="1210.375"/><text fill="#000000" font-family="sans-serif" font-size="20" lengthAdjust="spacing" textLength="109" x="1679" y="1238.1367">UserMapper</text><rect fill="#E2E2F0" height="39.1563" rx="2.5" ry="2.5" style="stroke:#181818;stroke-width:0.5;" width="161" x="1805" y="5"/><text fill="#000000" font-family="sans-serif" font-size="20" lengthAdjust="spacing" textLength="147" x="1812" y="32.7617">SurveillanceTask</text><rect fill="#E2E2F0" height="39.1563" rx="2.5" ry="2.5" style="stroke:#181818;stroke-width:0.5;" width="161" x="1805" y="1210.375"/><text fill="#000000" font-family="sans-serif" font-size="20" lengthAdjust="spacing" textLength="147" x="1812" y="1238.1367">SurveillanceTask</text><rect fill="#E2E2F0" height="39.1563" rx="2.5" ry="2.5" style="stroke:#181818;stroke-width:0.5;" width="185" x="1976" y="5"/><text fill="#000000" font-family="sans-serif" font-size="20" lengthAdjust="spacing" textLength="171" x="1983" y="32.7617">PickupDeliveryTask</text><rect fill="#E2E2F0" height="39.1563" rx="2.5" ry="2.5" style="stroke:#181818;stroke-width:0.5;" width="185" x="1976" y="1210.375"/><text fill="#000000" font-family="sans-serif" font-size="20" lengthAdjust="spacing" textLength="171" x="1983" y="1238.1367">PickupDeliveryTask</text><rect fill="#FFFFFF" height="1147.2188" style="stroke:#181818;stroke-width:1.0;" width="10" x="26.5" y="55.1563"/><rect fill="#FFFFFF" height="1107.0625" style="stroke:#181818;stroke-width:1.0;" width="10" x="320.5" y="86.3125"/><rect fill="#FFFFFF" height="976.5938" style="stroke:#181818;stroke-width:1.0;" width="10" x="622.5" y="177.625"/><rect fill="#FFFFFF" height="846.125" style="stroke:#181818;stroke-width:1.0;" width="10" x="924.5" y="268.9375"/><rect fill="#FFFFFF" height="30" style="stroke:#181818;stroke-width:1.0;" width="10" x="1250.5" y="665.5"/><rect fill="#FFFFFF" height="39.1563" style="stroke:#181818;stroke-width:1.0;" width="10" x="1358" y="308.0938"/><rect fill="#FFFFFF" height="30" style="stroke:#181818;stroke-width:1.0;" width="10" x="1471" y="482.875"/><rect fill="#FFFFFF" height="78.3125" style="stroke:#181818;stroke-width:1.0;" width="10" x="1594.5" y="734.6563"/><rect fill="#FFFFFF" height="78.3125" style="stroke:#181818;stroke-width:1.0;" width="10" x="1594.5" y="931.4375"/><rect fill="#FFFFFF" height="30" style="stroke:#181818;stroke-width:1.0;" width="10" x="1728.5" y="552.0313"/><polygon fill="#181818" points="308.5,82.3125,318.5,86.3125,308.5,90.3125,312.5,86.3125" style="stroke:#181818;stroke-width:1.0;"/><line style="stroke:#181818;stroke-width:1.0;" x1="36.5" x2="314.5" y1="86.3125" y2="86.3125"/><text fill="#000000" font-family="sans-serif" font-size="20" lengthAdjust="spacing" textLength="146" x="43.5" y="79.918">GET(/api/tasks/)</text><line style="stroke:#181818;stroke-width:1.0;" x1="330.5" x2="372.5" y1="125.4688" y2="125.4688"/><line style="stroke:#181818;stroke-width:1.0;" x1="372.5" x2="372.5" y1="125.4688" y2="138.4688"/><line style="stroke:#181818;stroke-width:1.0;" x1="331.5" x2="372.5" y1="138.4688" y2="138.4688"/><polygon fill="#181818" points="341.5,134.4688,331.5,138.4688,341.5,142.4688,337.5,138.4688" style="stroke:#181818;stroke-width:1.0;"/><text fill="#000000" font-family="sans-serif" font-size="20" lengthAdjust="spacing" textLength="144" x="337.5" y="119.0742">auth middleware</text><polygon fill="#181818" points="610.5,173.625,620.5,177.625,610.5,181.625,614.5,177.625" style="stroke:#181818;stroke-width:1.0;"/><line style="stroke:#181818;stroke-width:1.0;" x1="330.5" x2="616.5" y1="177.625" y2="177.625"/><text fill="#000000" font-family="sans-serif" font-size="20" lengthAdjust="spacing" textLength="273" x="337.5" y="171.2305">GetAll(type?,Approved?,user?)</text><line style="stroke:#181818;stroke-width:1.0;" x1="632.5" x2="674.5" y1="216.7813" y2="216.7813"/><line style="stroke:#181818;stroke-width:1.0;" x1="674.5" x2="674.5" y1="216.7813" y2="229.7813"/><line style="stroke:#181818;stroke-width:1.0;" x1="633.5" x2="674.5" y1="229.7813" y2="229.7813"/><polygon fill="#181818" points="643.5,225.7813,633.5,229.7813,643.5,233.7813,639.5,229.7813" style="stroke:#181818;stroke-width:1.0;"/><text fill="#000000" font-family="sans-serif" font-size="20" lengthAdjust="spacing" textLength="211" x="639.5" y="210.3867">permissions middleware</text><polygon fill="#181818" points="912.5,264.9375,922.5,268.9375,912.5,272.9375,916.5,268.9375" style="stroke:#181818;stroke-width:1.0;"/><line style="stroke:#181818;stroke-width:1.0;" x1="632.5" x2="918.5" y1="268.9375" y2="268.9375"/><text fill="#000000" font-family="sans-serif" font-size="20" lengthAdjust="spacing" textLength="273" x="639.5" y="262.543">GetAll(type?,Approved?,user?)</text><polygon fill="#181818" points="1346,304.0938,1356,308.0938,1346,312.0938,1350,308.0938" style="stroke:#181818;stroke-width:1.0;"/><line style="stroke:#181818;stroke-width:1.0;" x1="934.5" x2="1352" y1="308.0938" y2="308.0938"/><text fill="#000000" font-family="sans-serif" font-size="20" lengthAdjust="spacing" textLength="326" x="941.5" y="301.6992">GetAllAsync(type?,Approved?,user?)</text><polygon fill="#181818" points="945.5,343.25,935.5,347.25,945.5,351.25,941.5,347.25" style="stroke:#181818;stroke-width:1.0;"/><line style="stroke:#181818;stroke-width:1.0;stroke-dasharray:2.0,2.0;" x1="939.5" x2="1362" y1="347.25" y2="347.25"/><text fill="#000000" font-family="sans-serif" font-size="20" lengthAdjust="spacing" textLength="43" x="951.5" y="340.8555">Task</text><line style="stroke:#181818;stroke-width:1.0;" x1="934.5" x2="976.5" y1="386.4063" y2="386.4063"/><line style="stroke:#181818;stroke-width:1.0;" x1="976.5" x2="976.5" y1="386.4063" y2="399.4063"/><line style="stroke:#181818;stroke-width:1.0;" x1="935.5" x2="976.5" y1="399.4063" y2="399.4063"/><polygon fill="#181818" points="945.5,395.4063,935.5,399.4063,945.5,403.4063,941.5,399.4063" style="stroke:#181818;stroke-width:1.0;"/><text fill="#000000" font-family="sans-serif" font-size="20" lengthAdjust="spacing" textLength="157" x="941.5" y="380.0117">new List tasksDto</text><path d="M848.5,414.4063 L934.5,414.4063 L934.5,431.5625 L924.5,441.5625 L848.5,441.5625 L848.5,414.4063 " fill="#EEEEEE" style="stroke:#000000;stroke-width:1.5;"/><rect fill="none" height="662.5" style="stroke:#000000;stroke-width:1.5;" width="1332.5" x="848.5" y="414.4063"/><text fill="#000000" font-family="sans-serif" font-size="20" font-weight="bold" lengthAdjust="spacing" textLength="41" x="863.5" y="436.168">loop</text><text fill="#000000" font-family="sans-serif" font-size="20" font-weight="bold" lengthAdjust="spacing" textLength="144" x="949.5" y="437.168">[for each Task]</text><polygon fill="#181818" points="1459,478.875,1469,482.875,1459,486.875,1463,482.875" style="stroke:#181818;stroke-width:1.0;"/><line style="stroke:#181818;stroke-width:1.0;" x1="934.5" x2="1465" y1="482.875" y2="482.875"/><text fill="#000000" font-family="sans-serif" font-size="20" lengthAdjust="spacing" textLength="143" x="941.5" y="476.4805">getUserById(ID)</text><polygon fill="#181818" points="1716.5,548.0313,1726.5,552.0313,1716.5,556.0313,1720.5,552.0313" style="stroke:#181818;stroke-width:1.0;"/><line style="stroke:#181818;stroke-width:1.0;" x1="934.5" x2="1722.5" y1="552.0313" y2="552.0313"/><text fill="#000000" font-family="sans-serif" font-size="20" lengthAdjust="spacing" textLength="182" x="941.5" y="545.6367">ToDtoTaskInfo(user)</text><path d="M858.5,597.0313 L926.5,597.0313 L926.5,614.1875 L916.5,624.1875 L858.5,624.1875 L858.5,597.0313 " fill="#EEEEEE" style="stroke:#000000;stroke-width:1.5;"/><rect fill="none" height="472.875" style="stroke:#000000;stroke-width:1.5;" width="1312.5" x="858.5" y="597.0313"/><text fill="#000000" font-family="sans-serif" font-size="20" font-weight="bold" lengthAdjust="spacing" textLength="23" x="873.5" y="618.793">alt</text><text fill="#000000" font-family="sans-serif" font-size="20" font-weight="bold" lengthAdjust="spacing" textLength="249" x="941.5" y="619.793">[Task is SurveillanceTask]</text><polygon fill="#181818" points="1238.5,661.5,1248.5,665.5,1238.5,669.5,1242.5,665.5" style="stroke:#181818;stroke-width:1.0;"/><line style="stroke:#181818;stroke-width:1.0;" x1="934.5" x2="1244.5" y1="665.5" y2="665.5"/><text fill="#000000" font-family="sans-serif" font-size="20" lengthAdjust="spacing" textLength="159" x="941.5" y="659.1055">GET(/api/floor/:id)</text><polygon fill="#181818" points="1582.5,730.6563,1592.5,734.6563,1582.5,738.6563,1586.5,734.6563" style="stroke:#181818;stroke-width:1.0;"/><line style="stroke:#181818;stroke-width:1.0;" x1="934.5" x2="1588.5" y1="734.6563" y2="734.6563"/><text fill="#000000" font-family="sans-serif" font-size="20" lengthAdjust="spacing" textLength="241" x="941.5" y="728.2617">toFullDTO(task, floor, user)</text><polygon fill="#181818" points="1873.5,769.8125,1883.5,773.8125,1873.5,777.8125,1877.5,773.8125" style="stroke:#181818;stroke-width:1.0;"/><line style="stroke:#181818;stroke-width:1.0;stroke-dasharray:2.0,2.0;" x1="1604.5" x2="1879.5" y1="773.8125" y2="773.8125"/><text fill="#000000" font-family="sans-serif" font-size="20" lengthAdjust="spacing" textLength="70" x="1611.5" y="767.418">create()</text><polygon fill="#181818" points="945.5,808.9688,935.5,812.9688,945.5,816.9688,941.5,812.9688" style="stroke:#181818;stroke-width:1.0;"/><line style="stroke:#181818;stroke-width:1.0;stroke-dasharray:2.0,2.0;" x1="939.5" x2="1598.5" y1="812.9688" y2="812.9688"/><text fill="#000000" font-family="sans-serif" font-size="20" lengthAdjust="spacing" textLength="147" x="951.5" y="806.5742">SurveillanceTask</text><line style="stroke:#181818;stroke-width:1.0;" x1="934.5" x2="976.5" y1="852.125" y2="852.125"/><line style="stroke:#181818;stroke-width:1.0;" x1="976.5" x2="976.5" y1="852.125" y2="865.125"/><line style="stroke:#181818;stroke-width:1.0;" x1="935.5" x2="976.5" y1="865.125" y2="865.125"/><polygon fill="#181818" points="945.5,861.125,935.5,865.125,945.5,869.125,941.5,865.125" style="stroke:#181818;stroke-width:1.0;"/><text fill="#000000" font-family="sans-serif" font-size="20" lengthAdjust="spacing" textLength="278" x="941.5" y="845.7305">tasksDto.add(SurveillanceTask)</text><line style="stroke:#000000;stroke-width:1.0;stroke-dasharray:2.0,2.0;" x1="858.5" x2="2171" y1="874.125" y2="874.125"/><text fill="#000000" font-family="sans-serif" font-size="20" font-weight="bold" lengthAdjust="spacing" textLength="274" x="863.5" y="894.8867">[Task is PickupDeliveryTask]</text><polygon fill="#181818" points="1582.5,927.4375,1592.5,931.4375,1582.5,935.4375,1586.5,931.4375" style="stroke:#181818;stroke-width:1.0;"/><line style="stroke:#181818;stroke-width:1.0;" x1="934.5" x2="1588.5" y1="931.4375" y2="931.4375"/><text fill="#000000" font-family="sans-serif" font-size="20" lengthAdjust="spacing" textLength="190" x="941.5" y="925.043">toFullDTO(task, user)</text><polygon fill="#181818" points="2056.5,966.5938,2066.5,970.5938,2056.5,974.5938,2060.5,970.5938" style="stroke:#181818;stroke-width:1.0;"/><line style="stroke:#181818;stroke-width:1.0;stroke-dasharray:2.0,2.0;" x1="1604.5" x2="2062.5" y1="970.5938" y2="970.5938"/><text fill="#000000" font-family="sans-serif" font-size="20" lengthAdjust="spacing" textLength="70" x="1611.5" y="964.1992">create()</text><polygon fill="#181818" points="945.5,1005.75,935.5,1009.75,945.5,1013.75,941.5,1009.75" style="stroke:#181818;stroke-width:1.0;"/><line style="stroke:#181818;stroke-width:1.0;stroke-dasharray:2.0,2.0;" x1="939.5" x2="1598.5" y1="1009.75" y2="1009.75"/><text fill="#000000" font-family="sans-serif" font-size="20" lengthAdjust="spacing" textLength="171" x="951.5" y="1003.3555">PickupDeliveryTask</text><line style="stroke:#181818;stroke-width:1.0;" x1="934.5" x2="976.5" y1="1048.9063" y2="1048.9063"/><line style="stroke:#181818;stroke-width:1.0;" x1="976.5" x2="976.5" y1="1048.9063" y2="1061.9063"/><line style="stroke:#181818;stroke-width:1.0;" x1="935.5" x2="976.5" y1="1061.9063" y2="1061.9063"/><polygon fill="#181818" points="945.5,1057.9063,935.5,1061.9063,945.5,1065.9063,941.5,1061.9063" style="stroke:#181818;stroke-width:1.0;"/><text fill="#000000" font-family="sans-serif" font-size="20" lengthAdjust="spacing" textLength="302" x="941.5" y="1042.5117">tasksDto.add(PickupDeliveryTask)</text><polygon fill="#181818" points="643.5,1111.0625,633.5,1115.0625,643.5,1119.0625,639.5,1115.0625" style="stroke:#181818;stroke-width:1.0;"/><line style="stroke:#181818;stroke-width:1.0;stroke-dasharray:2.0,2.0;" x1="637.5" x2="928.5" y1="1115.0625" y2="1115.0625"/><text fill="#000000" font-family="sans-serif" font-size="20" lengthAdjust="spacing" textLength="78" x="649.5" y="1108.668">tasksDto</text><polygon fill="#181818" points="341.5,1150.2188,331.5,1154.2188,341.5,1158.2188,337.5,1154.2188" style="stroke:#181818;stroke-width:1.0;"/><line style="stroke:#181818;stroke-width:1.0;stroke-dasharray:2.0,2.0;" x1="335.5" x2="626.5" y1="1154.2188" y2="1154.2188"/><text fill="#000000" font-family="sans-serif" font-size="20" lengthAdjust="spacing" textLength="147" x="347.5" y="1147.8242">retorna tasksDto</text><polygon fill="#181818" points="47.5,1189.375,37.5,1193.375,47.5,1197.375,43.5,1193.375" style="stroke:#181818;stroke-width:1.0;"/><line style="stroke:#181818;stroke-width:1.0;stroke-dasharray:2.0,2.0;" x1="41.5" x2="324.5" y1="1193.375" y2="1193.375"/><text fill="#000000" font-family="sans-serif" font-size="20" lengthAdjust="spacing" textLength="260" x="53.5" y="1186.9805">mostra tasks para o utilizador</text><!--SRC=[bLLTRzem57tthxZgKv3ec7ZCmr1MrYhIgg71Ve0LNrOB9xPi9nNzzVDrICW7MbiaJE9xphbVliQTP6MuvQNInGa523poMlb7NVczV4DOVsN1x6KX3Qyyx7VPwFtkUNU0R9VV0NVqEpOUk3iz12MhbK8RCG_UgZbeZxQH1KR4tZOJ5q_vqCMQpVc_qUXefuUn-Oz3svjhE-S-SsCkmON7ENbWhyknUL_R1gLIl2gGfDhu9vjZoauMfzfiKSa6xRadpRSPuuMN3VSOYnw-SF-Dya_XwSSXMN4ZLpxWt6fnHL87M5XwAA_z2vHI28Mlt29qHcf344AVAPNuiy7DCZF6wWR5Pbc7h3S3rTWpHkkL6afIIkUahjn8lqE5BdvOdphEma8yQbL7pDovAjvbnvRJ0lUTtrW_WMD8vo4YAdo5dz9vY2NS-c1MMXiuQWk1zz9AC0YV2wssAVn5JoVY-paNIRvTH7Fl99mjUX-ulUnq0cK8J0TN99rNHvrG9bEHSYPIjc5mvMDG86ySiOWO-A8n6PoJOyZDhb8f5ZrmU6JM_Ux0Rpjf4zqm2obu_LWhjJtyIgXuIuZgIxXcCzAdcUesmtFRf4dyAHGM0pXPpA7KhLc-D-8bFzDm8xdhy1SkH39LQXsYSjWNzyOeVgGAdqX_xk6z0lmdfa-NOAvrAK8b68jBfFQJta_8m5ESs7RKkvl6ejUsuZVXxGKIhnuAQPUbK6hdxGKDz0S46celbNpZGbisFeZi7m00]--></g></svg>