<?xml version="1.0" encoding="UTF-8" standalone="no"?><svg xmlns="http://www.w3.org/2000/svg" xmlns:xlink="http://www.w3.org/1999/xlink" contentStyleType="text/css" height="1432px" preserveAspectRatio="none" style="width:1688px;height:1432px;background:#FFFFFF;" version="1.1" viewBox="0 0 1688 1432" width="1688px" zoomAndPan="magnify"><defs/><g><rect fill="#FFFFFF" height="1324" style="stroke:#181818;stroke-width:1.0;" width="10" x="26.5" y="55.1563"/><rect fill="#FFFFFF" height="729.8125" style="stroke:#181818;stroke-width:1.0;" width="10" x="202.5" y="86.3125"/><rect fill="#FFFFFF" height="599.3438" style="stroke:#181818;stroke-width:1.0;" width="10" x="434.5" y="177.625"/><rect fill="#FFFFFF" height="339.25" style="stroke:#181818;stroke-width:1.0;" width="10" x="434.5" y="991.75"/><rect fill="#FFFFFF" height="468.875" style="stroke:#181818;stroke-width:1.0;" width="10" x="804.5" y="268.9375"/><rect fill="#FFFFFF" height="260.9375" style="stroke:#181818;stroke-width:1.0;" width="10" x="804.5" y="1030.9063"/><rect fill="#FFFFFF" height="39.1563" style="stroke:#181818;stroke-width:1.0;" width="10" x="1363" y="600.3438"/><rect fill="#FFFFFF" height="39.1563" style="stroke:#181818;stroke-width:1.0;" width="10" x="1363" y="1213.5313"/><rect fill="#FFFFFF" height="39.1563" style="stroke:#181818;stroke-width:1.0;" width="10" x="1485" y="443.7188"/><rect fill="#FFFFFF" height="39.1563" style="stroke:#181818;stroke-width:1.0;" width="10" x="1606.5" y="522.0313"/><rect fill="none" height="324.4063" style="stroke:#000000;stroke-width:1.5;" width="943" x="739.5" y="375.25"/><line style="stroke:#181818;stroke-width:0.5;stroke-dasharray:5.0,5.0;" x1="31" x2="31" y1="45.1563" y2="1388.1563"/><line style="stroke:#181818;stroke-width:0.5;stroke-dasharray:5.0,5.0;" x1="207.5" x2="207.5" y1="45.1563" y2="1388.1563"/><line style="stroke:#181818;stroke-width:0.5;stroke-dasharray:5.0,5.0;" x1="439.5" x2="439.5" y1="45.1563" y2="1388.1563"/><line style="stroke:#181818;stroke-width:0.5;stroke-dasharray:5.0,5.0;" x1="809.5" x2="809.5" y1="45.1563" y2="1388.1563"/><line style="stroke:#181818;stroke-width:0.5;stroke-dasharray:5.0,5.0;" x1="1245.5" x2="1245.5" y1="45.1563" y2="1388.1563"/><line style="stroke:#181818;stroke-width:0.5;stroke-dasharray:5.0,5.0;" x1="1367.5" x2="1367.5" y1="45.1563" y2="1388.1563"/><line style="stroke:#181818;stroke-width:0.5;stroke-dasharray:5.0,5.0;" x1="1489.5" x2="1489.5" y1="45.1563" y2="1388.1563"/><line style="stroke:#181818;stroke-width:0.5;stroke-dasharray:5.0,5.0;" x1="1611.5" x2="1611.5" y1="45.1563" y2="1388.1563"/><rect fill="#E2E2F0" height="39.1563" rx="2.5" ry="2.5" style="stroke:#181818;stroke-width:0.5;" width="53" x="5" y="5"/><text fill="#000000" font-family="sans-serif" font-size="20" lengthAdjust="spacing" textLength="39" x="12" y="32.7617">SPA</text><rect fill="#E2E2F0" height="39.1563" rx="2.5" ry="2.5" style="stroke:#181818;stroke-width:0.5;" width="53" x="5" y="1387.1563"/><text fill="#000000" font-family="sans-serif" font-size="20" lengthAdjust="spacing" textLength="39" x="12" y="1414.918">SPA</text><rect fill="#E2E2F0" height="39.1563" rx="2.5" ry="2.5" style="stroke:#181818;stroke-width:0.5;" width="94" x="160.5" y="5"/><text fill="#000000" font-family="sans-serif" font-size="20" lengthAdjust="spacing" textLength="80" x="167.5" y="32.7617">MPT API</text><rect fill="#E2E2F0" height="39.1563" rx="2.5" ry="2.5" style="stroke:#181818;stroke-width:0.5;" width="94" x="160.5" y="1387.1563"/><text fill="#000000" font-family="sans-serif" font-size="20" lengthAdjust="spacing" textLength="80" x="167.5" y="1414.918">MPT API</text><rect fill="#E2E2F0" height="39.1563" rx="2.5" ry="2.5" style="stroke:#181818;stroke-width:0.5;" width="140" x="369.5" y="5"/><text fill="#000000" font-family="sans-serif" font-size="20" lengthAdjust="spacing" textLength="126" x="376.5" y="32.7617">UserController</text><rect fill="#E2E2F0" height="39.1563" rx="2.5" ry="2.5" style="stroke:#181818;stroke-width:0.5;" width="140" x="369.5" y="1387.1563"/><text fill="#000000" font-family="sans-serif" font-size="20" lengthAdjust="spacing" textLength="126" x="376.5" y="1414.918">UserController</text><rect fill="#E2E2F0" height="39.1563" rx="2.5" ry="2.5" style="stroke:#181818;stroke-width:0.5;" width="120" x="749.5" y="5"/><text fill="#000000" font-family="sans-serif" font-size="20" lengthAdjust="spacing" textLength="106" x="756.5" y="32.7617">UserService</text><rect fill="#E2E2F0" height="39.1563" rx="2.5" ry="2.5" style="stroke:#181818;stroke-width:0.5;" width="120" x="749.5" y="1387.1563"/><text fill="#000000" font-family="sans-serif" font-size="20" lengthAdjust="spacing" textLength="106" x="756.5" y="1414.918">UserService</text><rect fill="#E2E2F0" height="39.1563" rx="2.5" ry="2.5" style="stroke:#181818;stroke-width:0.5;" width="102" x="1194.5" y="5"/><text fill="#000000" font-family="sans-serif" font-size="20" lengthAdjust="spacing" textLength="88" x="1201.5" y="32.7617">UserRepo</text><rect fill="#E2E2F0" height="39.1563" rx="2.5" ry="2.5" style="stroke:#181818;stroke-width:0.5;" width="102" x="1194.5" y="1387.1563"/><text fill="#000000" font-family="sans-serif" font-size="20" lengthAdjust="spacing" textLength="88" x="1201.5" y="1414.918">UserRepo</text><rect fill="#E2E2F0" height="39.1563" rx="2.5" ry="2.5" style="stroke:#181818;stroke-width:0.5;" width="123" x="1306.5" y="5"/><text fill="#000000" font-family="sans-serif" font-size="20" lengthAdjust="spacing" textLength="109" x="1313.5" y="32.7617">UserMapper</text><rect fill="#E2E2F0" height="39.1563" rx="2.5" ry="2.5" style="stroke:#181818;stroke-width:0.5;" width="123" x="1306.5" y="1387.1563"/><text fill="#000000" font-family="sans-serif" font-size="20" lengthAdjust="spacing" textLength="109" x="1313.5" y="1414.918">UserMapper</text><rect fill="#E2E2F0" height="39.1563" rx="2.5" ry="2.5" style="stroke:#181818;stroke-width:0.5;" width="101" x="1439.5" y="5"/><text fill="#000000" font-family="sans-serif" font-size="20" lengthAdjust="spacing" textLength="87" x="1446.5" y="32.7617">RoleRepo</text><rect fill="#E2E2F0" height="39.1563" rx="2.5" ry="2.5" style="stroke:#181818;stroke-width:0.5;" width="101" x="1439.5" y="1387.1563"/><text fill="#000000" font-family="sans-serif" font-size="20" lengthAdjust="spacing" textLength="87" x="1446.5" y="1414.918">RoleRepo</text><rect fill="#E2E2F0" height="39.1563" rx="2.5" ry="2.5" style="stroke:#181818;stroke-width:0.5;" width="122" x="1550.5" y="5"/><text fill="#000000" font-family="sans-serif" font-size="20" lengthAdjust="spacing" textLength="108" x="1557.5" y="32.7617">RoleMapper</text><rect fill="#E2E2F0" height="39.1563" rx="2.5" ry="2.5" style="stroke:#181818;stroke-width:0.5;" width="122" x="1550.5" y="1387.1563"/><text fill="#000000" font-family="sans-serif" font-size="20" lengthAdjust="spacing" textLength="108" x="1557.5" y="1414.918">RoleMapper</text><rect fill="#FFFFFF" height="1324" style="stroke:#181818;stroke-width:1.0;" width="10" x="26.5" y="55.1563"/><rect fill="#FFFFFF" height="729.8125" style="stroke:#181818;stroke-width:1.0;" width="10" x="202.5" y="86.3125"/><rect fill="#FFFFFF" height="599.3438" style="stroke:#181818;stroke-width:1.0;" width="10" x="434.5" y="177.625"/><rect fill="#FFFFFF" height="339.25" style="stroke:#181818;stroke-width:1.0;" width="10" x="434.5" y="991.75"/><rect fill="#FFFFFF" height="468.875" style="stroke:#181818;stroke-width:1.0;" width="10" x="804.5" y="268.9375"/><rect fill="#FFFFFF" height="260.9375" style="stroke:#181818;stroke-width:1.0;" width="10" x="804.5" y="1030.9063"/><rect fill="#FFFFFF" height="39.1563" style="stroke:#181818;stroke-width:1.0;" width="10" x="1363" y="600.3438"/><rect fill="#FFFFFF" height="39.1563" style="stroke:#181818;stroke-width:1.0;" width="10" x="1363" y="1213.5313"/><rect fill="#FFFFFF" height="39.1563" style="stroke:#181818;stroke-width:1.0;" width="10" x="1485" y="443.7188"/><rect fill="#FFFFFF" height="39.1563" style="stroke:#181818;stroke-width:1.0;" width="10" x="1606.5" y="522.0313"/><polygon fill="#181818" points="190.5,82.3125,200.5,86.3125,190.5,90.3125,194.5,86.3125" style="stroke:#181818;stroke-width:1.0;"/><line style="stroke:#181818;stroke-width:1.0;" x1="36.5" x2="196.5" y1="86.3125" y2="86.3125"/><text fill="#000000" font-family="sans-serif" font-size="20" lengthAdjust="spacing" textLength="147" x="43.5" y="79.918">GET(/api/users/)</text><line style="stroke:#181818;stroke-width:1.0;" x1="212.5" x2="254.5" y1="125.4688" y2="125.4688"/><line style="stroke:#181818;stroke-width:1.0;" x1="254.5" x2="254.5" y1="125.4688" y2="138.4688"/><line style="stroke:#181818;stroke-width:1.0;" x1="213.5" x2="254.5" y1="138.4688" y2="138.4688"/><polygon fill="#181818" points="223.5,134.4688,213.5,138.4688,223.5,142.4688,219.5,138.4688" style="stroke:#181818;stroke-width:1.0;"/><text fill="#000000" font-family="sans-serif" font-size="20" lengthAdjust="spacing" textLength="144" x="219.5" y="119.0742">auth middleware</text><polygon fill="#181818" points="422.5,173.625,432.5,177.625,422.5,181.625,426.5,177.625" style="stroke:#181818;stroke-width:1.0;"/><line style="stroke:#181818;stroke-width:1.0;" x1="212.5" x2="428.5" y1="177.625" y2="177.625"/><text fill="#000000" font-family="sans-serif" font-size="20" lengthAdjust="spacing" textLength="68" x="219.5" y="171.2305">GetAll()</text><line style="stroke:#181818;stroke-width:1.0;" x1="444.5" x2="486.5" y1="216.7813" y2="216.7813"/><line style="stroke:#181818;stroke-width:1.0;" x1="486.5" x2="486.5" y1="216.7813" y2="229.7813"/><line style="stroke:#181818;stroke-width:1.0;" x1="445.5" x2="486.5" y1="229.7813" y2="229.7813"/><polygon fill="#181818" points="455.5,225.7813,445.5,229.7813,455.5,233.7813,451.5,229.7813" style="stroke:#181818;stroke-width:1.0;"/><text fill="#000000" font-family="sans-serif" font-size="20" lengthAdjust="spacing" textLength="211" x="451.5" y="210.3867">permissions middleware</text><polygon fill="#181818" points="792.5,264.9375,802.5,268.9375,792.5,272.9375,796.5,268.9375" style="stroke:#181818;stroke-width:1.0;"/><line style="stroke:#181818;stroke-width:1.0;" x1="444.5" x2="798.5" y1="268.9375" y2="268.9375"/><text fill="#000000" font-family="sans-serif" font-size="20" lengthAdjust="spacing" textLength="341" x="451.5" y="262.543">GetAllAsync(isSysUser?, isApproved?)</text><polygon fill="#181818" points="1233.5,304.0938,1243.5,308.0938,1233.5,312.0938,1237.5,308.0938" style="stroke:#181818;stroke-width:1.0;"/><line style="stroke:#181818;stroke-width:1.0;" x1="814.5" x2="1239.5" y1="308.0938" y2="308.0938"/><text fill="#000000" font-family="sans-serif" font-size="20" lengthAdjust="spacing" textLength="407" x="821.5" y="301.6992">GetAllFilteredAsync(isSysUser?, isApproved?)</text><line style="stroke:#181818;stroke-width:1.0;" x1="814.5" x2="856.5" y1="347.25" y2="347.25"/><line style="stroke:#181818;stroke-width:1.0;" x1="856.5" x2="856.5" y1="347.25" y2="360.25"/><line style="stroke:#181818;stroke-width:1.0;" x1="815.5" x2="856.5" y1="360.25" y2="360.25"/><polygon fill="#181818" points="825.5,356.25,815.5,360.25,825.5,364.25,821.5,360.25" style="stroke:#181818;stroke-width:1.0;"/><text fill="#000000" font-family="sans-serif" font-size="20" lengthAdjust="spacing" textLength="365" x="821.5" y="340.8555">usersDto = new List&lt;UserWithRoleDto&gt;()</text><path d="M739.5,375.25 L825.5,375.25 L825.5,392.4063 L815.5,402.4063 L739.5,402.4063 L739.5,375.25 " fill="#EEEEEE" style="stroke:#000000;stroke-width:1.5;"/><rect fill="none" height="324.4063" style="stroke:#000000;stroke-width:1.5;" width="943" x="739.5" y="375.25"/><text fill="#000000" font-family="sans-serif" font-size="20" font-weight="bold" lengthAdjust="spacing" textLength="41" x="754.5" y="397.0117">loop</text><text fill="#000000" font-family="sans-serif" font-size="20" font-weight="bold" lengthAdjust="spacing" textLength="140" x="840.5" y="398.0117">[for each user]</text><polygon fill="#181818" points="1473,439.7188,1483,443.7188,1473,447.7188,1477,443.7188" style="stroke:#181818;stroke-width:1.0;"/><line style="stroke:#181818;stroke-width:1.0;" x1="814.5" x2="1479" y1="443.7188" y2="443.7188"/><text fill="#000000" font-family="sans-serif" font-size="20" lengthAdjust="spacing" textLength="241" x="821.5" y="437.3242">GetByIdAsync(user.RoleId)</text><polygon fill="#181818" points="825.5,478.875,815.5,482.875,825.5,486.875,821.5,482.875" style="stroke:#181818;stroke-width:1.0;"/><line style="stroke:#181818;stroke-width:1.0;stroke-dasharray:2.0,2.0;" x1="819.5" x2="1489" y1="482.875" y2="482.875"/><text fill="#000000" font-family="sans-serif" font-size="20" lengthAdjust="spacing" textLength="40" x="831.5" y="476.4805">Role</text><polygon fill="#181818" points="1594.5,518.0313,1604.5,522.0313,1594.5,526.0313,1598.5,522.0313" style="stroke:#181818;stroke-width:1.0;"/><line style="stroke:#181818;stroke-width:1.0;" x1="814.5" x2="1600.5" y1="522.0313" y2="522.0313"/><text fill="#000000" font-family="sans-serif" font-size="20" lengthAdjust="spacing" textLength="137" x="821.5" y="515.6367">toDomain(Role)</text><polygon fill="#181818" points="825.5,557.1875,815.5,561.1875,825.5,565.1875,821.5,561.1875" style="stroke:#181818;stroke-width:1.0;"/><line style="stroke:#181818;stroke-width:1.0;stroke-dasharray:2.0,2.0;" x1="819.5" x2="1610.5" y1="561.1875" y2="561.1875"/><text fill="#000000" font-family="sans-serif" font-size="20" lengthAdjust="spacing" textLength="82" x="831.5" y="554.793">RoleDTO</text><polygon fill="#181818" points="1351,596.3438,1361,600.3438,1351,604.3438,1355,600.3438" style="stroke:#181818;stroke-width:1.0;"/><line style="stroke:#181818;stroke-width:1.0;" x1="814.5" x2="1357" y1="600.3438" y2="600.3438"/><text fill="#000000" font-family="sans-serif" font-size="20" lengthAdjust="spacing" textLength="205" x="821.5" y="593.9492">toDTO(user, RoleDTO)</text><polygon fill="#181818" points="825.5,635.5,815.5,639.5,825.5,643.5,821.5,639.5" style="stroke:#181818;stroke-width:1.0;"/><line style="stroke:#181818;stroke-width:1.0;stroke-dasharray:2.0,2.0;" x1="819.5" x2="1367" y1="639.5" y2="639.5"/><text fill="#000000" font-family="sans-serif" font-size="20" lengthAdjust="spacing" textLength="151" x="831.5" y="633.1055">UserWithRoleDto</text><line style="stroke:#181818;stroke-width:1.0;" x1="814.5" x2="856.5" y1="678.6563" y2="678.6563"/><line style="stroke:#181818;stroke-width:1.0;" x1="856.5" x2="856.5" y1="678.6563" y2="691.6563"/><line style="stroke:#181818;stroke-width:1.0;" x1="815.5" x2="856.5" y1="691.6563" y2="691.6563"/><polygon fill="#181818" points="825.5,687.6563,815.5,691.6563,825.5,695.6563,821.5,691.6563" style="stroke:#181818;stroke-width:1.0;"/><text fill="#000000" font-family="sans-serif" font-size="20" lengthAdjust="spacing" textLength="285" x="821.5" y="672.2617">usersDto.Add(UserWithRoleDto)</text><polygon fill="#181818" points="455.5,733.8125,445.5,737.8125,455.5,741.8125,451.5,737.8125" style="stroke:#181818;stroke-width:1.0;"/><line style="stroke:#181818;stroke-width:1.0;stroke-dasharray:2.0,2.0;" x1="449.5" x2="808.5" y1="737.8125" y2="737.8125"/><text fill="#000000" font-family="sans-serif" font-size="20" lengthAdjust="spacing" textLength="79" x="461.5" y="731.418">usersDto</text><polygon fill="#181818" points="223.5,772.9688,213.5,776.9688,223.5,780.9688,219.5,776.9688" style="stroke:#181818;stroke-width:1.0;"/><line style="stroke:#181818;stroke-width:1.0;stroke-dasharray:2.0,2.0;" x1="217.5" x2="438.5" y1="776.9688" y2="776.9688"/><text fill="#000000" font-family="sans-serif" font-size="20" lengthAdjust="spacing" textLength="79" x="229.5" y="770.5742">usersDto</text><polygon fill="#181818" points="47.5,812.125,37.5,816.125,47.5,820.125,43.5,816.125" style="stroke:#181818;stroke-width:1.0;"/><line style="stroke:#181818;stroke-width:1.0;stroke-dasharray:2.0,2.0;" x1="41.5" x2="206.5" y1="816.125" y2="816.125"/><text fill="#000000" font-family="sans-serif" font-size="20" lengthAdjust="spacing" textLength="79" x="53.5" y="809.7305">usersDto</text><line style="stroke:#181818;stroke-width:1.0;stroke-dasharray:2.0,2.0;" x1="36.5" x2="78.5" y1="855.2813" y2="855.2813"/><line style="stroke:#181818;stroke-width:1.0;stroke-dasharray:2.0,2.0;" x1="78.5" x2="78.5" y1="855.2813" y2="868.2813"/><line style="stroke:#181818;stroke-width:1.0;stroke-dasharray:2.0,2.0;" x1="37.5" x2="78.5" y1="868.2813" y2="868.2813"/><polygon fill="#181818" points="47.5,864.2813,37.5,868.2813,47.5,872.2813,43.5,868.2813" style="stroke:#181818;stroke-width:1.0;"/><text fill="#000000" font-family="sans-serif" font-size="20" lengthAdjust="spacing" textLength="146" x="43.5" y="848.8867">display usersDto</text><path d="M41,881.2813 L41,916.2813 L426,916.2813 L426,891.2813 L416,881.2813 L41,881.2813 " fill="#FEFFDD" style="stroke:#181818;stroke-width:0.5;"/><path d="M416,881.2813 L416,891.2813 L426,891.2813 L416,881.2813 " fill="#FEFFDD" style="stroke:#181818;stroke-width:0.5;"/><text fill="#000000" font-family="sans-serif" font-size="20" lengthAdjust="spacing" textLength="364" x="47" y="907.043">Utilizador aprova ou rejeita as utilizadores</text><polygon fill="#181818" points="195.5,948.5938,205.5,952.5938,195.5,956.5938,199.5,952.5938" style="stroke:#181818;stroke-width:1.0;"/><line style="stroke:#181818;stroke-width:1.0;" x1="36.5" x2="201.5" y1="952.5938" y2="952.5938"/><text fill="#000000" font-family="sans-serif" font-size="20" lengthAdjust="spacing" textLength="144" x="43.5" y="946.1992">PUT(/api/users/)</text><polygon fill="#181818" points="422.5,987.75,432.5,991.75,422.5,995.75,426.5,991.75" style="stroke:#181818;stroke-width:1.0;"/><line style="stroke:#181818;stroke-width:1.0;" x1="207.5" x2="428.5" y1="991.75" y2="991.75"/><text fill="#000000" font-family="sans-serif" font-size="20" lengthAdjust="spacing" textLength="208" x="214.5" y="985.3555">ApproveReject(id, user)</text><polygon fill="#181818" points="792.5,1026.9063,802.5,1030.9063,792.5,1034.9063,796.5,1030.9063" style="stroke:#181818;stroke-width:1.0;"/><line style="stroke:#181818;stroke-width:1.0;" x1="444.5" x2="798.5" y1="1030.9063" y2="1030.9063"/><text fill="#000000" font-family="sans-serif" font-size="20" lengthAdjust="spacing" textLength="295" x="451.5" y="1024.5117">UpdateIsApprovedAsync(id, user)</text><line style="stroke:#181818;stroke-width:1.0;" x1="814.5" x2="856.5" y1="1070.0625" y2="1070.0625"/><line style="stroke:#181818;stroke-width:1.0;" x1="856.5" x2="856.5" y1="1070.0625" y2="1083.0625"/><line style="stroke:#181818;stroke-width:1.0;" x1="815.5" x2="856.5" y1="1083.0625" y2="1083.0625"/><polygon fill="#181818" points="825.5,1079.0625,815.5,1083.0625,825.5,1087.0625,821.5,1083.0625" style="stroke:#181818;stroke-width:1.0;"/><text fill="#000000" font-family="sans-serif" font-size="20" lengthAdjust="spacing" textLength="155" x="821.5" y="1063.668">GetByIdAsync(id)</text><line style="stroke:#181818;stroke-width:1.0;" x1="814.5" x2="856.5" y1="1122.2188" y2="1122.2188"/><line style="stroke:#181818;stroke-width:1.0;" x1="856.5" x2="856.5" y1="1122.2188" y2="1135.2188"/><line style="stroke:#181818;stroke-width:1.0;" x1="815.5" x2="856.5" y1="1135.2188" y2="1135.2188"/><polygon fill="#181818" points="825.5,1131.2188,815.5,1135.2188,825.5,1139.2188,821.5,1135.2188" style="stroke:#181818;stroke-width:1.0;"/><text fill="#000000" font-family="sans-serif" font-size="20" lengthAdjust="spacing" textLength="359" x="821.5" y="1115.8242">altera estado user para ativo ou desativo</text><polygon fill="#181818" points="1233.5,1170.375,1243.5,1174.375,1233.5,1178.375,1237.5,1174.375" style="stroke:#181818;stroke-width:1.0;"/><line style="stroke:#181818;stroke-width:1.0;" x1="814.5" x2="1239.5" y1="1174.375" y2="1174.375"/><text fill="#000000" font-family="sans-serif" font-size="20" lengthAdjust="spacing" textLength="172" x="821.5" y="1167.9805">CommitAsync(user)</text><polygon fill="#181818" points="1351,1209.5313,1361,1213.5313,1351,1217.5313,1355,1213.5313" style="stroke:#181818;stroke-width:1.0;"/><line style="stroke:#181818;stroke-width:1.0;" x1="814.5" x2="1357" y1="1213.5313" y2="1213.5313"/><text fill="#000000" font-family="sans-serif" font-size="20" lengthAdjust="spacing" textLength="111" x="821.5" y="1207.1367">toDTO(user)</text><polygon fill="#181818" points="825.5,1248.6875,815.5,1252.6875,825.5,1256.6875,821.5,1252.6875" style="stroke:#181818;stroke-width:1.0;"/><line style="stroke:#181818;stroke-width:1.0;stroke-dasharray:2.0,2.0;" x1="819.5" x2="1367" y1="1252.6875" y2="1252.6875"/><text fill="#000000" font-family="sans-serif" font-size="20" lengthAdjust="spacing" textLength="72" x="831.5" y="1246.293">UserDto</text><polygon fill="#181818" points="455.5,1287.8438,445.5,1291.8438,455.5,1295.8438,451.5,1291.8438" style="stroke:#181818;stroke-width:1.0;"/><line style="stroke:#181818;stroke-width:1.0;stroke-dasharray:2.0,2.0;" x1="449.5" x2="808.5" y1="1291.8438" y2="1291.8438"/><text fill="#000000" font-family="sans-serif" font-size="20" lengthAdjust="spacing" textLength="72" x="461.5" y="1285.4492">UserDto</text><polygon fill="#181818" points="218.5,1327,208.5,1331,218.5,1335,214.5,1331" style="stroke:#181818;stroke-width:1.0;"/><line style="stroke:#181818;stroke-width:1.0;stroke-dasharray:2.0,2.0;" x1="212.5" x2="438.5" y1="1331" y2="1331"/><text fill="#000000" font-family="sans-serif" font-size="20" lengthAdjust="spacing" textLength="141" x="224.5" y="1324.6055">status code 201</text><polygon fill="#181818" points="47.5,1366.1563,37.5,1370.1563,47.5,1374.1563,43.5,1370.1563" style="stroke:#181818;stroke-width:1.0;"/><line style="stroke:#181818;stroke-width:1.0;stroke-dasharray:2.0,2.0;" x1="41.5" x2="206.5" y1="1370.1563" y2="1370.1563"/><text fill="#000000" font-family="sans-serif" font-size="20" lengthAdjust="spacing" textLength="72" x="53.5" y="1363.7617">sucesso</text><!--SRC=[XLNRRjf047tVhnZboKWaj7sCsaGkD1LIeo0kwlFAEvHfrbvhTqr4lhuxYsryeOebRECvvyp5Py2zKb5AAtDjibTKe70lA-sVJE4tz8xmvPC8OKyPbRBmi5cblUytpwijfAlb3KZ7rtvmvz3EWv8rMgEDcBctUWpQe3rIXX6niSSnO8sbYL6-6OUVPLdM2S9jFxus6bkwjUDWXsnp8MJcwIWznbx31suVkBDx-FbZcynaIRCgP7IpoGN9ZOjmQg6oyWV8IIcDRz8YD47kFWYXJxLEEW9nAeBF5rIeAIVdo1Ik9zMWmfmQgTITYYmXjpavdiRZ5CYbPMdD4TLZ9msFLeGJqtaa3V-9j4UBwWETXXepno4il85lKE0R_2BdlpBfD_a3JpM47aABGXjJmjvOG9aT8aj0E6efQsCDtq_BEZa3xfY_L9C8R8ktPwArSDlKmBZuK64NrakGtuCt2vDBAXB63rNpishULrriNqR2UKyuk2OgRrzYpTE6Dj1dE_A3SBra6Cnfc8avtLIzUT-bIYK3WOd0Gedw_RG6QXYY8nqTS7PGuzLhiBCVesav_ogz3ek-ZolIe1IvKilJ1IqAmxEZFmSFPiyWYAtjF6bwboeOGxB199WABFv5yf8tiMhZwBWxO1tHsyVLRh2F_IshZRiEcfbFI4rZKVzTklEBALM8B5lJrminvdOtgLd4YuafUBSRbBnU4j3vq52K0lxD1HdK33UkqCNxmNREJPwJlon6gpemNwSmzix8QuFN5ltLzyeLr1MhXFfzvI0pYlyOFd_W65TbwDpOC7py0m00]--></g></svg>