<?xml version="1.0" encoding="UTF-8" standalone="no"?><svg xmlns="http://www.w3.org/2000/svg" xmlns:xlink="http://www.w3.org/1999/xlink" contentStyleType="text/css" height="1426px" preserveAspectRatio="none" style="width:1948px;height:1426px;background:#FFFFFF;" version="1.1" viewBox="0 0 1948 1426" width="1948px" zoomAndPan="magnify"><defs/><g><rect fill="#FFFFFF" height="1318.3125" style="stroke:#181818;stroke-width:1.0;" width="10" x="41.5" y="55.1563"/><rect fill="#FFFFFF" height="383.5625" style="stroke:#181818;stroke-width:1.0;" width="10" x="395.5" y="86.3125"/><rect fill="#FFFFFF" height="253.0938" style="stroke:#181818;stroke-width:1.0;" width="10" x="570.5" y="177.625"/><rect fill="#FFFFFF" height="122.625" style="stroke:#181818;stroke-width:1.0;" width="10" x="805.5" y="268.9375"/><rect fill="#FFFFFF" height="39.1563" style="stroke:#181818;stroke-width:1.0;" width="10" x="1495" y="536.1875"/><rect fill="#FFFFFF" height="39.1563" style="stroke:#181818;stroke-width:1.0;" width="10" x="1743" y="872.75"/><rect fill="#FFFFFF" height="39.1563" style="stroke:#181818;stroke-width:1.0;" width="10" x="1743" y="1030.375"/><rect fill="#FFFFFF" height="39.1563" style="stroke:#181818;stroke-width:1.0;" width="10" x="1861" y="794.4375"/><rect fill="none" height="1042.375" style="stroke:#000000;stroke-width:1.5;" width="1931.5" x="10" y="323.0938"/><rect fill="none" height="455.0313" style="stroke:#000000;stroke-width:1.5;" width="1201" x="730.5" y="681.6563"/><rect fill="none" height="403.7188" style="stroke:#000000;stroke-width:1.5;" width="1181" x="740.5" y="725.9688"/><line style="stroke:#181818;stroke-width:0.5;stroke-dasharray:5.0,5.0;" x1="46" x2="46" y1="45.1563" y2="1382.4688"/><line style="stroke:#181818;stroke-width:0.5;stroke-dasharray:5.0,5.0;" x1="400.5" x2="400.5" y1="45.1563" y2="1382.4688"/><line style="stroke:#181818;stroke-width:0.5;stroke-dasharray:5.0,5.0;" x1="575.5" x2="575.5" y1="45.1563" y2="1382.4688"/><line style="stroke:#181818;stroke-width:0.5;stroke-dasharray:5.0,5.0;" x1="810.5" x2="810.5" y1="45.1563" y2="1382.4688"/><line style="stroke:#181818;stroke-width:0.5;stroke-dasharray:5.0,5.0;" x1="1377.5" x2="1377.5" y1="45.1563" y2="1382.4688"/><line style="stroke:#181818;stroke-width:0.5;stroke-dasharray:5.0,5.0;" x1="1499.5" x2="1499.5" y1="45.1563" y2="1382.4688"/><line style="stroke:#181818;stroke-width:0.5;stroke-dasharray:5.0,5.0;" x1="1623.5" x2="1623.5" y1="45.1563" y2="1382.4688"/><line style="stroke:#181818;stroke-width:0.5;stroke-dasharray:5.0,5.0;" x1="1747.5" x2="1747.5" y1="45.1563" y2="1382.4688"/><line style="stroke:#181818;stroke-width:0.5;stroke-dasharray:5.0,5.0;" x1="1865.5" x2="1865.5" y1="45.1563" y2="1382.4688"/><rect fill="#E2E2F0" height="39.1563" rx="2.5" ry="2.5" style="stroke:#181818;stroke-width:0.5;" width="53" x="20" y="5"/><text fill="#000000" font-family="sans-serif" font-size="20" lengthAdjust="spacing" textLength="39" x="27" y="32.7617">SPA</text><rect fill="#E2E2F0" height="39.1563" rx="2.5" ry="2.5" style="stroke:#181818;stroke-width:0.5;" width="53" x="20" y="1381.4688"/><text fill="#000000" font-family="sans-serif" font-size="20" lengthAdjust="spacing" textLength="39" x="27" y="1409.2305">SPA</text><rect fill="#E2E2F0" height="39.1563" rx="2.5" ry="2.5" style="stroke:#181818;stroke-width:0.5;" width="94" x="353.5" y="5"/><text fill="#000000" font-family="sans-serif" font-size="20" lengthAdjust="spacing" textLength="80" x="360.5" y="32.7617">MPT API</text><rect fill="#E2E2F0" height="39.1563" rx="2.5" ry="2.5" style="stroke:#181818;stroke-width:0.5;" width="94" x="353.5" y="1381.4688"/><text fill="#000000" font-family="sans-serif" font-size="20" lengthAdjust="spacing" textLength="80" x="360.5" y="1409.2305">MPT API</text><rect fill="#E2E2F0" height="39.1563" rx="2.5" ry="2.5" style="stroke:#181818;stroke-width:0.5;" width="140" x="505.5" y="5"/><text fill="#000000" font-family="sans-serif" font-size="20" lengthAdjust="spacing" textLength="126" x="512.5" y="32.7617">UserController</text><rect fill="#E2E2F0" height="39.1563" rx="2.5" ry="2.5" style="stroke:#181818;stroke-width:0.5;" width="140" x="505.5" y="1381.4688"/><text fill="#000000" font-family="sans-serif" font-size="20" lengthAdjust="spacing" textLength="126" x="512.5" y="1409.2305">UserController</text><rect fill="#E2E2F0" height="39.1563" rx="2.5" ry="2.5" style="stroke:#181818;stroke-width:0.5;" width="120" x="750.5" y="5"/><text fill="#000000" font-family="sans-serif" font-size="20" lengthAdjust="spacing" textLength="106" x="757.5" y="32.7617">UserService</text><rect fill="#E2E2F0" height="39.1563" rx="2.5" ry="2.5" style="stroke:#181818;stroke-width:0.5;" width="120" x="750.5" y="1381.4688"/><text fill="#000000" font-family="sans-serif" font-size="20" lengthAdjust="spacing" textLength="106" x="757.5" y="1409.2305">UserService</text><rect fill="#E2E2F0" height="39.1563" rx="2.5" ry="2.5" style="stroke:#181818;stroke-width:0.5;" width="102" x="1326.5" y="5"/><text fill="#000000" font-family="sans-serif" font-size="20" lengthAdjust="spacing" textLength="88" x="1333.5" y="32.7617">UserRepo</text><rect fill="#E2E2F0" height="39.1563" rx="2.5" ry="2.5" style="stroke:#181818;stroke-width:0.5;" width="102" x="1326.5" y="1381.4688"/><text fill="#000000" font-family="sans-serif" font-size="20" lengthAdjust="spacing" textLength="88" x="1333.5" y="1409.2305">UserRepo</text><rect fill="#E2E2F0" height="39.1563" rx="2.5" ry="2.5" style="stroke:#181818;stroke-width:0.5;" width="123" x="1438.5" y="5"/><text fill="#000000" font-family="sans-serif" font-size="20" lengthAdjust="spacing" textLength="109" x="1445.5" y="32.7617">UserMapper</text><rect fill="#E2E2F0" height="39.1563" rx="2.5" ry="2.5" style="stroke:#181818;stroke-width:0.5;" width="123" x="1438.5" y="1381.4688"/><text fill="#000000" font-family="sans-serif" font-size="20" lengthAdjust="spacing" textLength="109" x="1445.5" y="1409.2305">UserMapper</text><rect fill="#E2E2F0" height="39.1563" rx="2.5" ry="2.5" style="stroke:#181818;stroke-width:0.5;" width="104" x="1571.5" y="5"/><text fill="#000000" font-family="sans-serif" font-size="20" lengthAdjust="spacing" textLength="90" x="1578.5" y="32.7617">TaskRepo</text><rect fill="#E2E2F0" height="39.1563" rx="2.5" ry="2.5" style="stroke:#181818;stroke-width:0.5;" width="104" x="1571.5" y="1381.4688"/><text fill="#000000" font-family="sans-serif" font-size="20" lengthAdjust="spacing" textLength="90" x="1578.5" y="1409.2305">TaskRepo</text><rect fill="#E2E2F0" height="39.1563" rx="2.5" ry="2.5" style="stroke:#181818;stroke-width:0.5;" width="125" x="1685.5" y="5"/><text fill="#000000" font-family="sans-serif" font-size="20" lengthAdjust="spacing" textLength="111" x="1692.5" y="32.7617">TaskMapper</text><rect fill="#E2E2F0" height="39.1563" rx="2.5" ry="2.5" style="stroke:#181818;stroke-width:0.5;" width="125" x="1685.5" y="1381.4688"/><text fill="#000000" font-family="sans-serif" font-size="20" lengthAdjust="spacing" textLength="111" x="1692.5" y="1409.2305">TaskMapper</text><rect fill="#E2E2F0" height="39.1563" rx="2.5" ry="2.5" style="stroke:#181818;stroke-width:0.5;" width="91" x="1820.5" y="5"/><text fill="#000000" font-family="sans-serif" font-size="20" lengthAdjust="spacing" textLength="77" x="1827.5" y="32.7617">MGI API</text><rect fill="#E2E2F0" height="39.1563" rx="2.5" ry="2.5" style="stroke:#181818;stroke-width:0.5;" width="91" x="1820.5" y="1381.4688"/><text fill="#000000" font-family="sans-serif" font-size="20" lengthAdjust="spacing" textLength="77" x="1827.5" y="1409.2305">MGI API</text><rect fill="#FFFFFF" height="1318.3125" style="stroke:#181818;stroke-width:1.0;" width="10" x="41.5" y="55.1563"/><rect fill="#FFFFFF" height="383.5625" style="stroke:#181818;stroke-width:1.0;" width="10" x="395.5" y="86.3125"/><rect fill="#FFFFFF" height="253.0938" style="stroke:#181818;stroke-width:1.0;" width="10" x="570.5" y="177.625"/><rect fill="#FFFFFF" height="122.625" style="stroke:#181818;stroke-width:1.0;" width="10" x="805.5" y="268.9375"/><rect fill="#FFFFFF" height="39.1563" style="stroke:#181818;stroke-width:1.0;" width="10" x="1495" y="536.1875"/><rect fill="#FFFFFF" height="39.1563" style="stroke:#181818;stroke-width:1.0;" width="10" x="1743" y="872.75"/><rect fill="#FFFFFF" height="39.1563" style="stroke:#181818;stroke-width:1.0;" width="10" x="1743" y="1030.375"/><rect fill="#FFFFFF" height="39.1563" style="stroke:#181818;stroke-width:1.0;" width="10" x="1861" y="794.4375"/><polygon fill="#181818" points="383.5,82.3125,393.5,86.3125,383.5,90.3125,387.5,86.3125" style="stroke:#181818;stroke-width:1.0;"/><line style="stroke:#181818;stroke-width:1.0;" x1="51.5" x2="389.5" y1="86.3125" y2="86.3125"/><text fill="#000000" font-family="sans-serif" font-size="20" lengthAdjust="spacing" textLength="199" x="58.5" y="79.918">GET(/api/users/allInfo)</text><line style="stroke:#181818;stroke-width:1.0;" x1="405.5" x2="447.5" y1="125.4688" y2="125.4688"/><line style="stroke:#181818;stroke-width:1.0;" x1="447.5" x2="447.5" y1="125.4688" y2="138.4688"/><line style="stroke:#181818;stroke-width:1.0;" x1="406.5" x2="447.5" y1="138.4688" y2="138.4688"/><polygon fill="#181818" points="416.5,134.4688,406.5,138.4688,416.5,142.4688,412.5,138.4688" style="stroke:#181818;stroke-width:1.0;"/><text fill="#000000" font-family="sans-serif" font-size="20" lengthAdjust="spacing" textLength="144" x="412.5" y="119.0742">auth middleware</text><polygon fill="#181818" points="558.5,173.625,568.5,177.625,558.5,181.625,562.5,177.625" style="stroke:#181818;stroke-width:1.0;"/><line style="stroke:#181818;stroke-width:1.0;" x1="405.5" x2="564.5" y1="177.625" y2="177.625"/><text fill="#000000" font-family="sans-serif" font-size="20" lengthAdjust="spacing" textLength="142" x="412.5" y="171.2305">GetUserAllInfo()</text><line style="stroke:#181818;stroke-width:1.0;" x1="580.5" x2="622.5" y1="216.7813" y2="216.7813"/><line style="stroke:#181818;stroke-width:1.0;" x1="622.5" x2="622.5" y1="216.7813" y2="229.7813"/><line style="stroke:#181818;stroke-width:1.0;" x1="581.5" x2="622.5" y1="229.7813" y2="229.7813"/><polygon fill="#181818" points="591.5,225.7813,581.5,229.7813,591.5,233.7813,587.5,229.7813" style="stroke:#181818;stroke-width:1.0;"/><text fill="#000000" font-family="sans-serif" font-size="20" lengthAdjust="spacing" textLength="211" x="587.5" y="210.3867">permissions middleware</text><polygon fill="#181818" points="793.5,264.9375,803.5,268.9375,793.5,272.9375,797.5,268.9375" style="stroke:#181818;stroke-width:1.0;"/><line style="stroke:#181818;stroke-width:1.0;" x1="580.5" x2="799.5" y1="268.9375" y2="268.9375"/><text fill="#000000" font-family="sans-serif" font-size="20" lengthAdjust="spacing" textLength="142" x="587.5" y="262.543">GetUserAllInfo()</text><polygon fill="#181818" points="1365.5,304.0938,1375.5,308.0938,1365.5,312.0938,1369.5,308.0938" style="stroke:#181818;stroke-width:1.0;"/><line style="stroke:#181818;stroke-width:1.0;" x1="815.5" x2="1371.5" y1="308.0938" y2="308.0938"/><text fill="#000000" font-family="sans-serif" font-size="20" lengthAdjust="spacing" textLength="217" x="822.5" y="301.6992">user = GetByIdAsync(id)</text><path d="M10,323.0938 L78,323.0938 L78,340.25 L68,350.25 L10,350.25 L10,323.0938 " fill="#EEEEEE" style="stroke:#000000;stroke-width:1.5;"/><rect fill="none" height="1042.375" style="stroke:#000000;stroke-width:1.5;" width="1931.5" x="10" y="323.0938"/><text fill="#000000" font-family="sans-serif" font-size="20" font-weight="bold" lengthAdjust="spacing" textLength="23" x="25" y="344.8555">alt</text><text fill="#000000" font-family="sans-serif" font-size="20" font-weight="bold" lengthAdjust="spacing" textLength="154" x="93" y="345.8555">[user not found]</text><polygon fill="#181818" points="591.5,387.5625,581.5,391.5625,591.5,395.5625,587.5,391.5625" style="stroke:#181818;stroke-width:1.0;"/><line style="stroke:#181818;stroke-width:1.0;stroke-dasharray:2.0,2.0;" x1="585.5" x2="809.5" y1="391.5625" y2="391.5625"/><text fill="#000000" font-family="sans-serif" font-size="20" lengthAdjust="spacing" textLength="28" x="597.5" y="385.168">null</text><polygon fill="#181818" points="416.5,426.7188,406.5,430.7188,416.5,434.7188,412.5,430.7188" style="stroke:#181818;stroke-width:1.0;"/><line style="stroke:#181818;stroke-width:1.0;stroke-dasharray:2.0,2.0;" x1="410.5" x2="574.5" y1="430.7188" y2="430.7188"/><text fill="#000000" font-family="sans-serif" font-size="20" lengthAdjust="spacing" textLength="141" x="422.5" y="424.3242">status code 404</text><polygon fill="#181818" points="62.5,465.875,52.5,469.875,62.5,473.875,58.5,469.875" style="stroke:#181818;stroke-width:1.0;"/><line style="stroke:#181818;stroke-width:1.0;stroke-dasharray:2.0,2.0;" x1="56.5" x2="399.5" y1="469.875" y2="469.875"/><text fill="#000000" font-family="sans-serif" font-size="20" lengthAdjust="spacing" textLength="36" x="68.5" y="463.4805">erro</text><line style="stroke:#000000;stroke-width:1.0;stroke-dasharray:2.0,2.0;" x1="10" x2="1941.5" y1="478.875" y2="478.875"/><text fill="#000000" font-family="sans-serif" font-size="20" font-weight="bold" lengthAdjust="spacing" textLength="117" x="15" y="499.6367">[user found]</text><polygon fill="#181818" points="1483,532.1875,1493,536.1875,1483,540.1875,1487,536.1875" style="stroke:#181818;stroke-width:1.0;"/><line style="stroke:#181818;stroke-width:1.0;" x1="810.5" x2="1489" y1="536.1875" y2="536.1875"/><text fill="#000000" font-family="sans-serif" font-size="20" lengthAdjust="spacing" textLength="111" x="817.5" y="529.793">toDTO(user)</text><polygon fill="#181818" points="821.5,571.3438,811.5,575.3438,821.5,579.3438,817.5,575.3438" style="stroke:#181818;stroke-width:1.0;"/><line style="stroke:#181818;stroke-width:1.0;stroke-dasharray:2.0,2.0;" x1="815.5" x2="1499" y1="575.3438" y2="575.3438"/><text fill="#000000" font-family="sans-serif" font-size="20" lengthAdjust="spacing" textLength="69" x="827.5" y="568.9492">userDto</text><polygon fill="#181818" points="1611.5,610.5,1621.5,614.5,1611.5,618.5,1615.5,614.5" style="stroke:#181818;stroke-width:1.0;"/><line style="stroke:#181818;stroke-width:1.0;" x1="810.5" x2="1617.5" y1="614.5" y2="614.5"/><text fill="#000000" font-family="sans-serif" font-size="20" lengthAdjust="spacing" textLength="353" x="817.5" y="608.1055">tasks = GetAllFilteredAsync(null, id, null)</text><line style="stroke:#181818;stroke-width:1.0;" x1="810.5" x2="852.5" y1="653.6563" y2="653.6563"/><line style="stroke:#181818;stroke-width:1.0;" x1="852.5" x2="852.5" y1="653.6563" y2="666.6563"/><line style="stroke:#181818;stroke-width:1.0;" x1="811.5" x2="852.5" y1="666.6563" y2="666.6563"/><polygon fill="#181818" points="821.5,662.6563,811.5,666.6563,821.5,670.6563,817.5,666.6563" style="stroke:#181818;stroke-width:1.0;"/><text fill="#000000" font-family="sans-serif" font-size="20" lengthAdjust="spacing" textLength="346" x="817.5" y="647.2617">tasksDto = new List&lt;TaskSimpleDto&gt;()</text><path d="M730.5,681.6563 L816.5,681.6563 L816.5,698.8125 L806.5,708.8125 L730.5,708.8125 L730.5,681.6563 " fill="#EEEEEE" style="stroke:#000000;stroke-width:1.5;"/><rect fill="none" height="455.0313" style="stroke:#000000;stroke-width:1.5;" width="1201" x="730.5" y="681.6563"/><text fill="#000000" font-family="sans-serif" font-size="20" font-weight="bold" lengthAdjust="spacing" textLength="41" x="745.5" y="703.418">loop</text><text fill="#000000" font-family="sans-serif" font-size="20" font-weight="bold" lengthAdjust="spacing" textLength="138" x="831.5" y="704.418">[for each task]</text><path d="M740.5,725.9688 L808.5,725.9688 L808.5,743.125 L798.5,753.125 L740.5,753.125 L740.5,725.9688 " fill="#EEEEEE" style="stroke:#000000;stroke-width:1.5;"/><rect fill="none" height="403.7188" style="stroke:#000000;stroke-width:1.5;" width="1181" x="740.5" y="725.9688"/><text fill="#000000" font-family="sans-serif" font-size="20" font-weight="bold" lengthAdjust="spacing" textLength="23" x="755.5" y="747.7305">alt</text><text fill="#000000" font-family="sans-serif" font-size="20" font-weight="bold" lengthAdjust="spacing" textLength="175" x="823.5" y="748.7305">[SurveillanceTask]</text><polygon fill="#181818" points="1849,790.4375,1859,794.4375,1849,798.4375,1853,794.4375" style="stroke:#181818;stroke-width:1.0;"/><line style="stroke:#181818;stroke-width:1.0;" x1="810.5" x2="1855" y1="794.4375" y2="794.4375"/><text fill="#000000" font-family="sans-serif" font-size="20" lengthAdjust="spacing" textLength="159" x="817.5" y="788.043">GET(/api/floor/:id)</text><polygon fill="#181818" points="821.5,829.5938,811.5,833.5938,821.5,837.5938,817.5,833.5938" style="stroke:#181818;stroke-width:1.0;"/><line style="stroke:#181818;stroke-width:1.0;stroke-dasharray:2.0,2.0;" x1="815.5" x2="1865" y1="833.5938" y2="833.5938"/><text fill="#000000" font-family="sans-serif" font-size="20" lengthAdjust="spacing" textLength="39" x="827.5" y="827.1992">floor</text><polygon fill="#181818" points="1731,868.75,1741,872.75,1731,876.75,1735,872.75" style="stroke:#181818;stroke-width:1.0;"/><line style="stroke:#181818;stroke-width:1.0;" x1="810.5" x2="1737" y1="872.75" y2="872.75"/><text fill="#000000" font-family="sans-serif" font-size="20" lengthAdjust="spacing" textLength="161" x="817.5" y="866.3555">toDTO(task, floor)</text><polygon fill="#181818" points="821.5,907.9063,811.5,911.9063,821.5,915.9063,817.5,911.9063" style="stroke:#181818;stroke-width:1.0;"/><line style="stroke:#181818;stroke-width:1.0;" x1="815.5" x2="1747" y1="911.9063" y2="911.9063"/><text fill="#000000" font-family="sans-serif" font-size="20" lengthAdjust="spacing" textLength="74" x="827.5" y="905.5117">TaskDto</text><line style="stroke:#181818;stroke-width:1.0;" x1="810.5" x2="852.5" y1="951.0625" y2="951.0625"/><line style="stroke:#181818;stroke-width:1.0;" x1="852.5" x2="852.5" y1="951.0625" y2="964.0625"/><line style="stroke:#181818;stroke-width:1.0;" x1="811.5" x2="852.5" y1="964.0625" y2="964.0625"/><polygon fill="#181818" points="821.5,960.0625,811.5,964.0625,821.5,968.0625,817.5,964.0625" style="stroke:#181818;stroke-width:1.0;"/><text fill="#000000" font-family="sans-serif" font-size="20" lengthAdjust="spacing" textLength="207" x="817.5" y="944.668">tasksDto.Add(TaskDto)</text><line style="stroke:#000000;stroke-width:1.0;stroke-dasharray:2.0,2.0;" x1="740.5" x2="1921.5" y1="973.0625" y2="973.0625"/><text fill="#000000" font-family="sans-serif" font-size="20" font-weight="bold" lengthAdjust="spacing" textLength="200" x="745.5" y="993.8242">[PickupDeliveryTask]</text><polygon fill="#181818" points="1731,1026.375,1741,1030.375,1731,1034.375,1735,1030.375" style="stroke:#181818;stroke-width:1.0;"/><line style="stroke:#181818;stroke-width:1.0;" x1="810.5" x2="1737" y1="1030.375" y2="1030.375"/><text fill="#000000" font-family="sans-serif" font-size="20" lengthAdjust="spacing" textLength="110" x="817.5" y="1023.9805">toDTO(task)</text><polygon fill="#181818" points="821.5,1065.5313,811.5,1069.5313,821.5,1073.5313,817.5,1069.5313" style="stroke:#181818;stroke-width:1.0;"/><line style="stroke:#181818;stroke-width:1.0;" x1="815.5" x2="1747" y1="1069.5313" y2="1069.5313"/><text fill="#000000" font-family="sans-serif" font-size="20" lengthAdjust="spacing" textLength="74" x="827.5" y="1063.1367">TaskDto</text><line style="stroke:#181818;stroke-width:1.0;" x1="810.5" x2="852.5" y1="1108.6875" y2="1108.6875"/><line style="stroke:#181818;stroke-width:1.0;" x1="852.5" x2="852.5" y1="1108.6875" y2="1121.6875"/><line style="stroke:#181818;stroke-width:1.0;" x1="811.5" x2="852.5" y1="1121.6875" y2="1121.6875"/><polygon fill="#181818" points="821.5,1117.6875,811.5,1121.6875,821.5,1125.6875,817.5,1121.6875" style="stroke:#181818;stroke-width:1.0;"/><text fill="#000000" font-family="sans-serif" font-size="20" lengthAdjust="spacing" textLength="207" x="817.5" y="1102.293">tasksDto.Add(TaskDto)</text><line style="stroke:#181818;stroke-width:1.0;" x1="810.5" x2="852.5" y1="1174.8438" y2="1174.8438"/><line style="stroke:#181818;stroke-width:1.0;" x1="852.5" x2="852.5" y1="1174.8438" y2="1187.8438"/><line style="stroke:#181818;stroke-width:1.0;" x1="811.5" x2="852.5" y1="1187.8438" y2="1187.8438"/><polygon fill="#181818" points="821.5,1183.8438,811.5,1187.8438,821.5,1191.8438,817.5,1187.8438" style="stroke:#181818;stroke-width:1.0;"/><text fill="#000000" font-family="sans-serif" font-size="20" lengthAdjust="spacing" textLength="553" x="817.5" y="1168.4492">userwithtasks = new UserWithTasks(userDto, tasksDto.Result)</text><polygon fill="#181818" points="586.5,1223,576.5,1227,586.5,1231,582.5,1227" style="stroke:#181818;stroke-width:1.0;"/><line style="stroke:#181818;stroke-width:1.0;stroke-dasharray:2.0,2.0;" x1="580.5" x2="809.5" y1="1227" y2="1227"/><text fill="#000000" font-family="sans-serif" font-size="20" lengthAdjust="spacing" textLength="120" x="592.5" y="1220.6055">userwithtasks</text><polygon fill="#181818" points="411.5,1262.1563,401.5,1266.1563,411.5,1270.1563,407.5,1266.1563" style="stroke:#181818;stroke-width:1.0;"/><line style="stroke:#181818;stroke-width:1.0;stroke-dasharray:2.0,2.0;" x1="405.5" x2="574.5" y1="1266.1563" y2="1266.1563"/><text fill="#000000" font-family="sans-serif" font-size="20" lengthAdjust="spacing" textLength="120" x="417.5" y="1259.7617">userwithtasks</text><polygon fill="#181818" points="62.5,1301.3125,52.5,1305.3125,62.5,1309.3125,58.5,1305.3125" style="stroke:#181818;stroke-width:1.0;"/><line style="stroke:#181818;stroke-width:1.0;stroke-dasharray:2.0,2.0;" x1="56.5" x2="399.5" y1="1305.3125" y2="1305.3125"/><text fill="#000000" font-family="sans-serif" font-size="20" lengthAdjust="spacing" textLength="120" x="68.5" y="1298.918">userwithtasks</text><line style="stroke:#181818;stroke-width:1.0;" x1="51.5" x2="93.5" y1="1344.4688" y2="1344.4688"/><line style="stroke:#181818;stroke-width:1.0;" x1="93.5" x2="93.5" y1="1344.4688" y2="1357.4688"/><line style="stroke:#181818;stroke-width:1.0;" x1="52.5" x2="93.5" y1="1357.4688" y2="1357.4688"/><polygon fill="#181818" points="62.5,1353.4688,52.5,1357.4688,62.5,1361.4688,58.5,1357.4688" style="stroke:#181818;stroke-width:1.0;"/><text fill="#000000" font-family="sans-serif" font-size="20" lengthAdjust="spacing" textLength="330" x="58.5" y="1338.0742">download de dados num ficheiro .json</text><!--SRC=[nLNRZjem47tFLrZx52IwhD0-eHOfNRehfAwADbHzjk91k3XsP3iW-lMTSUu4KD-Ab0jpvipbUEouWzG5jpnN9Zk0O09sl5J-rMYVoZ_0vayHmbvcik3QitIJ3Fu_l6-sBDci7nXtz1o2FntO5unaZL9WWy-Bjshib88zoWo2HsgFOuSFA4n0wMKCl_EYg1FWwn3VSdTewTwEmHxPvnVTlQtxtSsZAEAPbqVk8KY15_kq96Z1thvjunalvAp4WjoCAxNMEpFf22HFXBUMmKk_PxaKGi69Ms0DI1fXFF3KMbB5YNk1WeOHtJjlx22NpacZtI1auuMgtWj9eaTu8rSIQy6e2_Q5A5_FQv6uiyvYAIOeWF8Lg8rdErDg4J7y1N9RZYwL2cO1mnnagsfgL72U-zAnp0XWpq_FbwogMJ86TQYLJR9WOAsvT0q2Wt9GrLVLrXMtfDbOC6zMsnynUKm2rj9fSiY0poeFIKP-ApzAHRxzoDvYO9mbLqc62hzAvS52hHpfCMLIJ8Coam4tv0baJ8Hy3IVsNJh_cOOpbNcX085bNBEKCGNsPXbMim-yO0wjuDAafJs2L8hh32X0rAAzb3JBlOdTOKmxMz3ozftxmiu721awZG9zW0yNPNwr1fytQq4zJAieDmh0VTct-xpLZLfirkTATYHUopsG_34H8gxZJ3htC4WRcHtAOWLA7i6UjtsnRxRo_tjeMwZt9bpiWtQoJzBlcx6biQFJuHVQA9ABwzcVTba-mE77eJ- -xOuVXFl7hN-NSsFZt-M44o3KLXtCWI7CIIl3wTl611V6uHxCsKvcUv3MiCVVpcWyDqYZAFeB]--></g></svg>