<?xml version="1.0" encoding="UTF-8" standalone="no"?><svg xmlns="http://www.w3.org/2000/svg" xmlns:xlink="http://www.w3.org/1999/xlink" contentStyleType="text/css" height="1068px" preserveAspectRatio="none" style="width:1851px;height:1068px;background:#FFFFFF;" version="1.1" viewBox="0 0 1851 1068" width="1851px" zoomAndPan="magnify"><defs/><g><rect fill="#FFFFFF" height="960.4375" style="stroke:#181818;stroke-width:1.0;" width="10" x="26.5" y="55.1563"/><rect fill="#FFFFFF" height="920.2813" style="stroke:#181818;stroke-width:1.0;" width="10" x="238.5" y="86.3125"/><rect fill="#FFFFFF" height="789.8125" style="stroke:#181818;stroke-width:1.0;" width="10" x="483.5" y="177.625"/><rect fill="#FFFFFF" height="659.3438" style="stroke:#181818;stroke-width:1.0;" width="10" x="728.5" y="268.9375"/><rect fill="#FFFFFF" height="39.1563" style="stroke:#181818;stroke-width:1.0;" width="10" x="1247" y="771.6563"/><rect fill="#FFFFFF" height="30" style="stroke:#181818;stroke-width:1.0;" width="10" x="1376" y="360.25"/><rect fill="#FFFFFF" height="108.3125" style="stroke:#181818;stroke-width:1.0;" width="10" x="1515.5" y="429.4063"/><rect fill="#FFFFFF" height="39.1563" style="stroke:#181818;stroke-width:1.0;" width="10" x="1515.5" y="849.9688"/><rect fill="#FFFFFF" height="30" style="stroke:#181818;stroke-width:1.0;" width="10" x="1646.5" y="468.5625"/><rect fill="none" height="180.7813" style="stroke:#000000;stroke-width:1.5;" width="1197.5" x="647.5" y="552.7188"/><line style="stroke:#181818;stroke-width:0.5;stroke-dasharray:5.0,5.0;" x1="31" x2="31" y1="45.1563" y2="1024.5938"/><line style="stroke:#181818;stroke-width:0.5;stroke-dasharray:5.0,5.0;" x1="243.5" x2="243.5" y1="45.1563" y2="1024.5938"/><line style="stroke:#181818;stroke-width:0.5;stroke-dasharray:5.0,5.0;" x1="488.5" x2="488.5" y1="45.1563" y2="1024.5938"/><line style="stroke:#181818;stroke-width:0.5;stroke-dasharray:5.0,5.0;" x1="733.5" x2="733.5" y1="45.1563" y2="1024.5938"/><line style="stroke:#181818;stroke-width:0.5;stroke-dasharray:5.0,5.0;" x1="1129" x2="1129" y1="45.1563" y2="1024.5938"/><line style="stroke:#181818;stroke-width:0.5;stroke-dasharray:5.0,5.0;" x1="1252" x2="1252" y1="45.1563" y2="1024.5938"/><line style="stroke:#181818;stroke-width:0.5;stroke-dasharray:5.0,5.0;" x1="1381" x2="1381" y1="45.1563" y2="1024.5938"/><line style="stroke:#181818;stroke-width:0.5;stroke-dasharray:5.0,5.0;" x1="1520" x2="1520" y1="45.1563" y2="1024.5938"/><line style="stroke:#181818;stroke-width:0.5;stroke-dasharray:5.0,5.0;" x1="1651" x2="1651" y1="45.1563" y2="1024.5938"/><line style="stroke:#181818;stroke-width:0.5;stroke-dasharray:5.0,5.0;" x1="1770" x2="1770" y1="45.1563" y2="1024.5938"/><rect fill="#E2E2F0" height="39.1563" rx="2.5" ry="2.5" style="stroke:#181818;stroke-width:0.5;" width="53" x="5" y="5"/><text fill="#000000" font-family="sans-serif" font-size="20" lengthAdjust="spacing" textLength="39" x="12" y="32.7617">SPA</text><rect fill="#E2E2F0" height="39.1563" rx="2.5" ry="2.5" style="stroke:#181818;stroke-width:0.5;" width="53" x="5" y="1023.5938"/><text fill="#000000" font-family="sans-serif" font-size="20" lengthAdjust="spacing" textLength="39" x="12" y="1051.3555">SPA</text><rect fill="#E2E2F0" height="39.1563" rx="2.5" ry="2.5" style="stroke:#181818;stroke-width:0.5;" width="94" x="196.5" y="5"/><text fill="#000000" font-family="sans-serif" font-size="20" lengthAdjust="spacing" textLength="80" x="203.5" y="32.7617">MPT API</text><rect fill="#E2E2F0" height="39.1563" rx="2.5" ry="2.5" style="stroke:#181818;stroke-width:0.5;" width="94" x="196.5" y="1023.5938"/><text fill="#000000" font-family="sans-serif" font-size="20" lengthAdjust="spacing" textLength="80" x="203.5" y="1051.3555">MPT API</text><rect fill="#E2E2F0" height="39.1563" rx="2.5" ry="2.5" style="stroke:#181818;stroke-width:0.5;" width="172" x="402.5" y="5"/><text fill="#000000" font-family="sans-serif" font-size="20" lengthAdjust="spacing" textLength="158" x="409.5" y="32.7617">PlanningController</text><rect fill="#E2E2F0" height="39.1563" rx="2.5" ry="2.5" style="stroke:#181818;stroke-width:0.5;" width="172" x="402.5" y="1023.5938"/><text fill="#000000" font-family="sans-serif" font-size="20" lengthAdjust="spacing" textLength="158" x="409.5" y="1051.3555">PlanningController</text><rect fill="#E2E2F0" height="39.1563" rx="2.5" ry="2.5" style="stroke:#181818;stroke-width:0.5;" width="152" x="657.5" y="5"/><text fill="#000000" font-family="sans-serif" font-size="20" lengthAdjust="spacing" textLength="138" x="664.5" y="32.7617">PlanningService</text><rect fill="#E2E2F0" height="39.1563" rx="2.5" ry="2.5" style="stroke:#181818;stroke-width:0.5;" width="152" x="657.5" y="1023.5938"/><text fill="#000000" font-family="sans-serif" font-size="20" lengthAdjust="spacing" textLength="138" x="664.5" y="1051.3555">PlanningService</text><rect fill="#E2E2F0" height="39.1563" rx="2.5" ry="2.5" style="stroke:#181818;stroke-width:0.5;" width="91" x="1084" y="5"/><text fill="#000000" font-family="sans-serif" font-size="20" lengthAdjust="spacing" textLength="77" x="1091" y="32.7617">MGI API</text><rect fill="#E2E2F0" height="39.1563" rx="2.5" ry="2.5" style="stroke:#181818;stroke-width:0.5;" width="91" x="1084" y="1023.5938"/><text fill="#000000" font-family="sans-serif" font-size="20" lengthAdjust="spacing" textLength="77" x="1091" y="1051.3555">MGI API</text><rect fill="#E2E2F0" height="39.1563" rx="2.5" ry="2.5" style="stroke:#181818;stroke-width:0.5;" width="134" x="1185" y="5"/><text fill="#000000" font-family="sans-serif" font-size="20" lengthAdjust="spacing" textLength="120" x="1192" y="32.7617">PlanningRepo</text><rect fill="#E2E2F0" height="39.1563" rx="2.5" ry="2.5" style="stroke:#181818;stroke-width:0.5;" width="134" x="1185" y="1023.5938"/><text fill="#000000" font-family="sans-serif" font-size="20" lengthAdjust="spacing" textLength="120" x="1192" y="1051.3555">PlanningRepo</text><rect fill="#E2E2F0" height="39.1563" rx="2.5" ry="2.5" style="stroke:#181818;stroke-width:0.5;" width="104" x="1329" y="5"/><text fill="#000000" font-family="sans-serif" font-size="20" lengthAdjust="spacing" textLength="90" x="1336" y="32.7617">TaskRepo</text><rect fill="#E2E2F0" height="39.1563" rx="2.5" ry="2.5" style="stroke:#181818;stroke-width:0.5;" width="104" x="1329" y="1023.5938"/><text fill="#000000" font-family="sans-serif" font-size="20" lengthAdjust="spacing" textLength="90" x="1336" y="1051.3555">TaskRepo</text><rect fill="#E2E2F0" height="39.1563" rx="2.5" ry="2.5" style="stroke:#181818;stroke-width:0.5;" width="155" x="1443" y="5"/><text fill="#000000" font-family="sans-serif" font-size="20" lengthAdjust="spacing" textLength="141" x="1450" y="32.7617">PlanningMapper</text><rect fill="#E2E2F0" height="39.1563" rx="2.5" ry="2.5" style="stroke:#181818;stroke-width:0.5;" width="155" x="1443" y="1023.5938"/><text fill="#000000" font-family="sans-serif" font-size="20" lengthAdjust="spacing" textLength="141" x="1450" y="1051.3555">PlanningMapper</text><rect fill="#E2E2F0" height="39.1563" rx="2.5" ry="2.5" style="stroke:#181818;stroke-width:0.5;" width="87" x="1608" y="5"/><text fill="#000000" font-family="sans-serif" font-size="20" lengthAdjust="spacing" textLength="73" x="1615" y="32.7617">Planning</text><rect fill="#E2E2F0" height="39.1563" rx="2.5" ry="2.5" style="stroke:#181818;stroke-width:0.5;" width="87" x="1608" y="1023.5938"/><text fill="#000000" font-family="sans-serif" font-size="20" lengthAdjust="spacing" textLength="73" x="1615" y="1051.3555">Planning</text><rect fill="#E2E2F0" height="39.1563" rx="2.5" ry="2.5" style="stroke:#181818;stroke-width:0.5;" width="130" x="1705" y="5"/><text fill="#000000" font-family="sans-serif" font-size="20" lengthAdjust="spacing" textLength="116" x="1712" y="32.7617">PlanningTask</text><rect fill="#E2E2F0" height="39.1563" rx="2.5" ry="2.5" style="stroke:#181818;stroke-width:0.5;" width="130" x="1705" y="1023.5938"/><text fill="#000000" font-family="sans-serif" font-size="20" lengthAdjust="spacing" textLength="116" x="1712" y="1051.3555">PlanningTask</text><rect fill="#FFFFFF" height="960.4375" style="stroke:#181818;stroke-width:1.0;" width="10" x="26.5" y="55.1563"/><rect fill="#FFFFFF" height="920.2813" style="stroke:#181818;stroke-width:1.0;" width="10" x="238.5" y="86.3125"/><rect fill="#FFFFFF" height="789.8125" style="stroke:#181818;stroke-width:1.0;" width="10" x="483.5" y="177.625"/><rect fill="#FFFFFF" height="659.3438" style="stroke:#181818;stroke-width:1.0;" width="10" x="728.5" y="268.9375"/><rect fill="#FFFFFF" height="39.1563" style="stroke:#181818;stroke-width:1.0;" width="10" x="1247" y="771.6563"/><rect fill="#FFFFFF" height="30" style="stroke:#181818;stroke-width:1.0;" width="10" x="1376" y="360.25"/><rect fill="#FFFFFF" height="108.3125" style="stroke:#181818;stroke-width:1.0;" width="10" x="1515.5" y="429.4063"/><rect fill="#FFFFFF" height="39.1563" style="stroke:#181818;stroke-width:1.0;" width="10" x="1515.5" y="849.9688"/><rect fill="#FFFFFF" height="30" style="stroke:#181818;stroke-width:1.0;" width="10" x="1646.5" y="468.5625"/><polygon fill="#181818" points="226.5,82.3125,236.5,86.3125,226.5,90.3125,230.5,86.3125" style="stroke:#181818;stroke-width:1.0;"/><line style="stroke:#181818;stroke-width:1.0;" x1="36.5" x2="232.5" y1="86.3125" y2="86.3125"/><text fill="#000000" font-family="sans-serif" font-size="20" lengthAdjust="spacing" textLength="183" x="43.5" y="79.918">POST(/api/planning/)</text><line style="stroke:#181818;stroke-width:1.0;" x1="248.5" x2="290.5" y1="125.4688" y2="125.4688"/><line style="stroke:#181818;stroke-width:1.0;" x1="290.5" x2="290.5" y1="125.4688" y2="138.4688"/><line style="stroke:#181818;stroke-width:1.0;" x1="249.5" x2="290.5" y1="138.4688" y2="138.4688"/><polygon fill="#181818" points="259.5,134.4688,249.5,138.4688,259.5,142.4688,255.5,138.4688" style="stroke:#181818;stroke-width:1.0;"/><text fill="#000000" font-family="sans-serif" font-size="20" lengthAdjust="spacing" textLength="144" x="255.5" y="119.0742">auth middleware</text><polygon fill="#181818" points="471.5,173.625,481.5,177.625,471.5,181.625,475.5,177.625" style="stroke:#181818;stroke-width:1.0;"/><line style="stroke:#181818;stroke-width:1.0;" x1="248.5" x2="477.5" y1="177.625" y2="177.625"/><text fill="#000000" font-family="sans-serif" font-size="20" lengthAdjust="spacing" textLength="216" x="255.5" y="171.2305">AddAsync(tasks, userId)</text><line style="stroke:#181818;stroke-width:1.0;" x1="493.5" x2="535.5" y1="216.7813" y2="216.7813"/><line style="stroke:#181818;stroke-width:1.0;" x1="535.5" x2="535.5" y1="216.7813" y2="229.7813"/><line style="stroke:#181818;stroke-width:1.0;" x1="494.5" x2="535.5" y1="229.7813" y2="229.7813"/><polygon fill="#181818" points="504.5,225.7813,494.5,229.7813,504.5,233.7813,500.5,229.7813" style="stroke:#181818;stroke-width:1.0;"/><text fill="#000000" font-family="sans-serif" font-size="20" lengthAdjust="spacing" textLength="211" x="500.5" y="210.3867">permissions middleware</text><polygon fill="#181818" points="716.5,264.9375,726.5,268.9375,716.5,272.9375,720.5,268.9375" style="stroke:#181818;stroke-width:1.0;"/><line style="stroke:#181818;stroke-width:1.0;" x1="493.5" x2="722.5" y1="268.9375" y2="268.9375"/><text fill="#000000" font-family="sans-serif" font-size="20" lengthAdjust="spacing" textLength="216" x="500.5" y="262.543">AddAsync(tasks, userId)</text><line style="stroke:#181818;stroke-width:1.0;" x1="738.5" x2="780.5" y1="308.0938" y2="308.0938"/><line style="stroke:#181818;stroke-width:1.0;" x1="780.5" x2="780.5" y1="308.0938" y2="321.0938"/><line style="stroke:#181818;stroke-width:1.0;" x1="739.5" x2="780.5" y1="321.0938" y2="321.0938"/><polygon fill="#181818" points="749.5,317.0938,739.5,321.0938,749.5,325.0938,745.5,321.0938" style="stroke:#181818;stroke-width:1.0;"/><text fill="#000000" font-family="sans-serif" font-size="20" lengthAdjust="spacing" textLength="271" x="745.5" y="301.6992">convert tasks ids to domain ids</text><polygon fill="#181818" points="1364,356.25,1374,360.25,1364,364.25,1368,360.25" style="stroke:#181818;stroke-width:1.0;"/><line style="stroke:#181818;stroke-width:1.0;" x1="738.5" x2="1370" y1="360.25" y2="360.25"/><text fill="#000000" font-family="sans-serif" font-size="20" lengthAdjust="spacing" textLength="214" x="745.5" y="353.8555">GetByIdsAsync(taskIds)</text><polygon fill="#181818" points="1503.5,425.4063,1513.5,429.4063,1503.5,433.4063,1507.5,429.4063" style="stroke:#181818;stroke-width:1.0;"/><line style="stroke:#181818;stroke-width:1.0;" x1="738.5" x2="1509.5" y1="429.4063" y2="429.4063"/><text fill="#000000" font-family="sans-serif" font-size="20" lengthAdjust="spacing" textLength="215" x="745.5" y="423.0117">toDomain(dto, userId, 0)</text><polygon fill="#181818" points="1634.5,464.5625,1644.5,468.5625,1634.5,472.5625,1638.5,468.5625" style="stroke:#181818;stroke-width:1.0;"/><line style="stroke:#181818;stroke-width:1.0;" x1="1525.5" x2="1640.5" y1="468.5625" y2="468.5625"/><text fill="#000000" font-family="sans-serif" font-size="20" lengthAdjust="spacing" textLength="70" x="1532.5" y="462.168">create()</text><polygon fill="#181818" points="749.5,533.7188,739.5,537.7188,749.5,541.7188,745.5,537.7188" style="stroke:#181818;stroke-width:1.0;"/><line style="stroke:#181818;stroke-width:1.0;" x1="743.5" x2="1519.5" y1="537.7188" y2="537.7188"/><text fill="#000000" font-family="sans-serif" font-size="20" lengthAdjust="spacing" textLength="130" x="755.5" y="531.3242">return Planning</text><path d="M647.5,552.7188 L733.5,552.7188 L733.5,569.875 L723.5,579.875 L647.5,579.875 L647.5,552.7188 " fill="#EEEEEE" style="stroke:#000000;stroke-width:1.5;"/><rect fill="none" height="180.7813" style="stroke:#000000;stroke-width:1.5;" width="1197.5" x="647.5" y="552.7188"/><text fill="#000000" font-family="sans-serif" font-size="20" font-weight="bold" lengthAdjust="spacing" textLength="41" x="662.5" y="574.4805">loop</text><text fill="#000000" font-family="sans-serif" font-size="20" font-weight="bold" lengthAdjust="spacing" textLength="90" x="748.5" y="575.4805">[t in task]</text><polygon fill="#181818" points="1758,617.1875,1768,621.1875,1758,625.1875,1762,621.1875" style="stroke:#181818;stroke-width:1.0;"/><line style="stroke:#181818;stroke-width:1.0;" x1="738.5" x2="1764" y1="621.1875" y2="621.1875"/><text fill="#000000" font-family="sans-serif" font-size="20" lengthAdjust="spacing" textLength="357" x="745.5" y="614.793">new PlanningTask(planning, t, sequence)</text><line style="stroke:#181818;stroke-width:1.0;" x1="738.5" x2="780.5" y1="660.3438" y2="660.3438"/><line style="stroke:#181818;stroke-width:1.0;" x1="780.5" x2="780.5" y1="660.3438" y2="673.3438"/><line style="stroke:#181818;stroke-width:1.0;" x1="739.5" x2="780.5" y1="673.3438" y2="673.3438"/><polygon fill="#181818" points="749.5,669.3438,739.5,673.3438,749.5,677.3438,745.5,673.3438" style="stroke:#181818;stroke-width:1.0;"/><text fill="#000000" font-family="sans-serif" font-size="20" lengthAdjust="spacing" textLength="372" x="745.5" y="653.9492">planning.PlanningTasks.Add(planningTask)</text><line style="stroke:#181818;stroke-width:1.0;" x1="738.5" x2="780.5" y1="712.5" y2="712.5"/><line style="stroke:#181818;stroke-width:1.0;" x1="780.5" x2="780.5" y1="712.5" y2="725.5"/><line style="stroke:#181818;stroke-width:1.0;" x1="739.5" x2="780.5" y1="725.5" y2="725.5"/><polygon fill="#181818" points="749.5,721.5,739.5,725.5,749.5,729.5,745.5,725.5" style="stroke:#181818;stroke-width:1.0;"/><text fill="#000000" font-family="sans-serif" font-size="20" lengthAdjust="spacing" textLength="98" x="745.5" y="706.1055">sequece++</text><polygon fill="#181818" points="1235,767.6563,1245,771.6563,1235,775.6563,1239,771.6563" style="stroke:#181818;stroke-width:1.0;"/><line style="stroke:#181818;stroke-width:1.0;" x1="738.5" x2="1241" y1="771.6563" y2="771.6563"/><text fill="#000000" font-family="sans-serif" font-size="20" lengthAdjust="spacing" textLength="173" x="745.5" y="765.2617">AddAsync(planning)</text><polygon fill="#181818" points="749.5,806.8125,739.5,810.8125,749.5,814.8125,745.5,810.8125" style="stroke:#181818;stroke-width:1.0;"/><line style="stroke:#181818;stroke-width:1.0;stroke-dasharray:2.0,2.0;" x1="743.5" x2="1251" y1="810.8125" y2="810.8125"/><text fill="#000000" font-family="sans-serif" font-size="20" lengthAdjust="spacing" textLength="73" x="755.5" y="804.418">Planning</text><polygon fill="#181818" points="1503.5,845.9688,1513.5,849.9688,1503.5,853.9688,1507.5,849.9688" style="stroke:#181818;stroke-width:1.0;"/><line style="stroke:#181818;stroke-width:1.0;" x1="738.5" x2="1509.5" y1="849.9688" y2="849.9688"/><text fill="#000000" font-family="sans-serif" font-size="20" lengthAdjust="spacing" textLength="146" x="745.5" y="843.5742">toDTO(Planning)</text><polygon fill="#181818" points="749.5,885.125,739.5,889.125,749.5,893.125,745.5,889.125" style="stroke:#181818;stroke-width:1.0;"/><line style="stroke:#181818;stroke-width:1.0;stroke-dasharray:2.0,2.0;" x1="743.5" x2="1519.5" y1="889.125" y2="889.125"/><text fill="#000000" font-family="sans-serif" font-size="20" lengthAdjust="spacing" textLength="115" x="755.5" y="882.7305">PlanningDTO</text><polygon fill="#181818" points="504.5,924.2813,494.5,928.2813,504.5,932.2813,500.5,928.2813" style="stroke:#181818;stroke-width:1.0;"/><line style="stroke:#181818;stroke-width:1.0;stroke-dasharray:2.0,2.0;" x1="498.5" x2="732.5" y1="928.2813" y2="928.2813"/><text fill="#000000" font-family="sans-serif" font-size="20" lengthAdjust="spacing" textLength="115" x="510.5" y="921.8867">PlanningDTO</text><polygon fill="#181818" points="259.5,963.4375,249.5,967.4375,259.5,971.4375,255.5,967.4375" style="stroke:#181818;stroke-width:1.0;"/><line style="stroke:#181818;stroke-width:1.0;stroke-dasharray:2.0,2.0;" x1="253.5" x2="487.5" y1="967.4375" y2="967.4375"/><text fill="#000000" font-family="sans-serif" font-size="20" lengthAdjust="spacing" textLength="141" x="265.5" y="961.043">status code 201</text><polygon fill="#181818" points="47.5,1002.5938,37.5,1006.5938,47.5,1010.5938,43.5,1006.5938" style="stroke:#181818;stroke-width:1.0;"/><line style="stroke:#181818;stroke-width:1.0;stroke-dasharray:2.0,2.0;" x1="41.5" x2="242.5" y1="1006.5938" y2="1006.5938"/><text fill="#000000" font-family="sans-serif" font-size="20" lengthAdjust="spacing" textLength="71" x="53.5" y="1000.1992">success</text><!--SRC=[ZLJ1Rjim3BtxAuYUN3HjkXvp6E2sM953KMFE3mWIjmbn94sYKtHVFqgD5BdrW1sYMEPxZo8VvR3NnWal3gELUrIWy8UOHlfc3Gtw3yBTRSDXqb8xOGY6lfljBvxx7NJzzW94YF_pO3yAOxJv-S1gteuZ-eHx83yk0mVqHoqneGP__93gQLkdkbkM-8xE9aXyc4Ds8knBcFmo_rauTpedFovZKZHlbY4nLu8vQXeXIHy5OMeV_-3wQwnW0_tBi6lNmkcrE_7MbsTqx6V3Iu6BYNx1GIiruglm23aO6xg1Jgakl1dP4kSEAvW2-gsgz5BVcxYUILphGOUWhGapvOnY5_v3ENhLy58OqfeZUe940AsutnQKFGXjugw0oM_W2Ud-RQl2EGLlAd5sIc6zosJs1pOi_9XqMqKs7sq5jvL0z35YcPBjuHDwv5XRmOgXLRRoxiHFnNcaoPj5V4pLDAEr3WYurbXDFgwZ3HXyXNf4skpx2cW50NzFQ2HUpdgP8JSrCTomAOKTtyn9IKhYrLM3HfMEnUclxCpqgWdfriG5hhFKKfq9LlcGRDYzjFrdnTBzZtgC_zIwf5Y6yn_8D6tl0vflHY11K-2nK_6JzQL6lqzzkYdn17t7w4bA3A56fRls5m00]--></g></svg>