<?xml version="1.0" encoding="UTF-8" standalone="no"?><svg xmlns="http://www.w3.org/2000/svg" xmlns:xlink="http://www.w3.org/1999/xlink" contentStyleType="text/css" height="1809px" preserveAspectRatio="none" style="width:2190px;height:1809px;background:#FFFFFF;" version="1.1" viewBox="0 0 2190 1809" width="2190px" zoomAndPan="magnify"><defs/><g><rect fill="#FFFFFF" height="1701.5625" style="stroke:#181818;stroke-width:1.0;" width="10" x="26.5" y="55.1563"/><rect fill="#FFFFFF" height="1107.0625" style="stroke:#181818;stroke-width:1.0;" width="10" x="320.5" y="86.3125"/><rect fill="#FFFFFF" height="430.875" style="stroke:#181818;stroke-width:1.0;" width="10" x="320.5" y="1277.6875"/><rect fill="#FFFFFF" height="976.5938" style="stroke:#181818;stroke-width:1.0;" width="10" x="622.5" y="177.625"/><rect fill="#FFFFFF" height="391.7188" style="stroke:#181818;stroke-width:1.0;" width="10" x="622.5" y="1316.8438"/><rect fill="#FFFFFF" height="846.125" style="stroke:#181818;stroke-width:1.0;" width="10" x="927.5" y="268.9375"/><rect fill="#FFFFFF" height="321.4063" style="stroke:#181818;stroke-width:1.0;" width="10" x="927.5" y="1356"/><rect fill="#FFFFFF" height="30" style="stroke:#181818;stroke-width:1.0;" width="10" x="1253.5" y="665.5"/><rect fill="#FFFFFF" height="39.1563" style="stroke:#181818;stroke-width:1.0;" width="10" x="1361" y="308.0938"/><rect fill="#FFFFFF" height="117.4688" style="stroke:#181818;stroke-width:1.0;" width="10" x="1361" y="1395.1563"/><rect fill="#FFFFFF" height="30" style="stroke:#181818;stroke-width:1.0;" width="10" x="1474" y="482.875"/><rect fill="#FFFFFF" height="78.3125" style="stroke:#181818;stroke-width:1.0;" width="10" x="1597.5" y="734.6563"/><rect fill="#FFFFFF" height="78.3125" style="stroke:#181818;stroke-width:1.0;" width="10" x="1597.5" y="931.4375"/><rect fill="#FFFFFF" height="39.1563" style="stroke:#181818;stroke-width:1.0;" width="10" x="1597.5" y="1434.3125"/><rect fill="#FFFFFF" height="30" style="stroke:#181818;stroke-width:1.0;" width="10" x="1731.5" y="552.0313"/><rect fill="none" height="662.5" style="stroke:#000000;stroke-width:1.5;" width="1332.5" x="851.5" y="414.4063"/><rect fill="none" height="472.875" style="stroke:#000000;stroke-width:1.5;" width="1312.5" x="861.5" y="597.0313"/><rect fill="none" height="142.7813" style="stroke:#000000;stroke-width:1.5;" width="457" x="546.5" y="1527.625"/><line style="stroke:#181818;stroke-width:0.5;stroke-dasharray:5.0,5.0;" x1="31" x2="31" y1="45.1563" y2="1765.7188"/><line style="stroke:#181818;stroke-width:0.5;stroke-dasharray:5.0,5.0;" x1="325.5" x2="325.5" y1="45.1563" y2="1765.7188"/><line style="stroke:#181818;stroke-width:0.5;stroke-dasharray:5.0,5.0;" x1="627.5" x2="627.5" y1="45.1563" y2="1765.7188"/><line style="stroke:#181818;stroke-width:0.5;stroke-dasharray:5.0,5.0;" x1="932.5" x2="932.5" y1="45.1563" y2="1765.7188"/><line style="stroke:#181818;stroke-width:0.5;stroke-dasharray:5.0,5.0;" x1="1258" x2="1258" y1="45.1563" y2="1765.7188"/><line style="stroke:#181818;stroke-width:0.5;stroke-dasharray:5.0,5.0;" x1="1366" x2="1366" y1="45.1563" y2="1765.7188"/><line style="stroke:#181818;stroke-width:0.5;stroke-dasharray:5.0,5.0;" x1="1479" x2="1479" y1="45.1563" y2="1765.7188"/><line style="stroke:#181818;stroke-width:0.5;stroke-dasharray:5.0,5.0;" x1="1602" x2="1602" y1="45.1563" y2="1765.7188"/><line style="stroke:#181818;stroke-width:0.5;stroke-dasharray:5.0,5.0;" x1="1736" x2="1736" y1="45.1563" y2="1765.7188"/><line style="stroke:#181818;stroke-width:0.5;stroke-dasharray:5.0,5.0;" x1="1888" x2="1888" y1="45.1563" y2="1765.7188"/><line style="stroke:#181818;stroke-width:0.5;stroke-dasharray:5.0,5.0;" x1="2071" x2="2071" y1="45.1563" y2="1765.7188"/><rect fill="#E2E2F0" height="39.1563" rx="2.5" ry="2.5" style="stroke:#181818;stroke-width:0.5;" width="53" x="5" y="5"/><text fill="#000000" font-family="sans-serif" font-size="20" lengthAdjust="spacing" textLength="39" x="12" y="32.7617">SPA</text><rect fill="#E2E2F0" height="39.1563" rx="2.5" ry="2.5" style="stroke:#181818;stroke-width:0.5;" width="53" x="5" y="1764.7188"/><text fill="#000000" font-family="sans-serif" font-size="20" lengthAdjust="spacing" textLength="39" x="12" y="1792.4805">SPA</text><rect fill="#E2E2F0" height="39.1563" rx="2.5" ry="2.5" style="stroke:#181818;stroke-width:0.5;" width="94" x="278.5" y="5"/><text fill="#000000" font-family="sans-serif" font-size="20" lengthAdjust="spacing" textLength="80" x="285.5" y="32.7617">MPT API</text><rect fill="#E2E2F0" height="39.1563" rx="2.5" ry="2.5" style="stroke:#181818;stroke-width:0.5;" width="94" x="278.5" y="1764.7188"/><text fill="#000000" font-family="sans-serif" font-size="20" lengthAdjust="spacing" textLength="80" x="285.5" y="1792.4805">MPT API</text><rect fill="#E2E2F0" height="39.1563" rx="2.5" ry="2.5" style="stroke:#181818;stroke-width:0.5;" width="142" x="556.5" y="5"/><text fill="#000000" font-family="sans-serif" font-size="20" lengthAdjust="spacing" textLength="128" x="563.5" y="32.7617">TaskController</text><rect fill="#E2E2F0" height="39.1563" rx="2.5" ry="2.5" style="stroke:#181818;stroke-width:0.5;" width="142" x="556.5" y="1764.7188"/><text fill="#000000" font-family="sans-serif" font-size="20" lengthAdjust="spacing" textLength="128" x="563.5" y="1792.4805">TaskController</text><rect fill="#E2E2F0" height="39.1563" rx="2.5" ry="2.5" style="stroke:#181818;stroke-width:0.5;" width="122" x="871.5" y="5"/><text fill="#000000" font-family="sans-serif" font-size="20" lengthAdjust="spacing" textLength="108" x="878.5" y="32.7617">TaskService</text><rect fill="#E2E2F0" height="39.1563" rx="2.5" ry="2.5" style="stroke:#181818;stroke-width:0.5;" width="122" x="871.5" y="1764.7188"/><text fill="#000000" font-family="sans-serif" font-size="20" lengthAdjust="spacing" textLength="108" x="878.5" y="1792.4805">TaskService</text><rect fill="#E2E2F0" height="39.1563" rx="2.5" ry="2.5" style="stroke:#181818;stroke-width:0.5;" width="91" x="1213" y="5"/><text fill="#000000" font-family="sans-serif" font-size="20" lengthAdjust="spacing" textLength="77" x="1220" y="32.7617">MGI API</text><rect fill="#E2E2F0" height="39.1563" rx="2.5" ry="2.5" style="stroke:#181818;stroke-width:0.5;" width="91" x="1213" y="1764.7188"/><text fill="#000000" font-family="sans-serif" font-size="20" lengthAdjust="spacing" textLength="77" x="1220" y="1792.4805">MGI API</text><rect fill="#E2E2F0" height="39.1563" rx="2.5" ry="2.5" style="stroke:#181818;stroke-width:0.5;" width="104" x="1314" y="5"/><text fill="#000000" font-family="sans-serif" font-size="20" lengthAdjust="spacing" textLength="90" x="1321" y="32.7617">TaskRepo</text><rect fill="#E2E2F0" height="39.1563" rx="2.5" ry="2.5" style="stroke:#181818;stroke-width:0.5;" width="104" x="1314" y="1764.7188"/><text fill="#000000" font-family="sans-serif" font-size="20" lengthAdjust="spacing" textLength="90" x="1321" y="1792.4805">TaskRepo</text><rect fill="#E2E2F0" height="39.1563" rx="2.5" ry="2.5" style="stroke:#181818;stroke-width:0.5;" width="102" x="1428" y="5"/><text fill="#000000" font-family="sans-serif" font-size="20" lengthAdjust="spacing" textLength="88" x="1435" y="32.7617">UserRepo</text><rect fill="#E2E2F0" height="39.1563" rx="2.5" ry="2.5" style="stroke:#181818;stroke-width:0.5;" width="102" x="1428" y="1764.7188"/><text fill="#000000" font-family="sans-serif" font-size="20" lengthAdjust="spacing" textLength="88" x="1435" y="1792.4805">UserRepo</text><rect fill="#E2E2F0" height="39.1563" rx="2.5" ry="2.5" style="stroke:#181818;stroke-width:0.5;" width="125" x="1540" y="5"/><text fill="#000000" font-family="sans-serif" font-size="20" lengthAdjust="spacing" textLength="111" x="1547" y="32.7617">TaskMapper</text><rect fill="#E2E2F0" height="39.1563" rx="2.5" ry="2.5" style="stroke:#181818;stroke-width:0.5;" width="125" x="1540" y="1764.7188"/><text fill="#000000" font-family="sans-serif" font-size="20" lengthAdjust="spacing" textLength="111" x="1547" y="1792.4805">TaskMapper</text><rect fill="#E2E2F0" height="39.1563" rx="2.5" ry="2.5" style="stroke:#181818;stroke-width:0.5;" width="123" x="1675" y="5"/><text fill="#000000" font-family="sans-serif" font-size="20" lengthAdjust="spacing" textLength="109" x="1682" y="32.7617">UserMapper</text><rect fill="#E2E2F0" height="39.1563" rx="2.5" ry="2.5" style="stroke:#181818;stroke-width:0.5;" width="123" x="1675" y="1764.7188"/><text fill="#000000" font-family="sans-serif" font-size="20" lengthAdjust="spacing" textLength="109" x="1682" y="1792.4805">UserMapper</text><rect fill="#E2E2F0" height="39.1563" rx="2.5" ry="2.5" style="stroke:#181818;stroke-width:0.5;" width="161" x="1808" y="5"/><text fill="#000000" font-family="sans-serif" font-size="20" lengthAdjust="spacing" textLength="147" x="1815" y="32.7617">SurveillanceTask</text><rect fill="#E2E2F0" height="39.1563" rx="2.5" ry="2.5" style="stroke:#181818;stroke-width:0.5;" width="161" x="1808" y="1764.7188"/><text fill="#000000" font-family="sans-serif" font-size="20" lengthAdjust="spacing" textLength="147" x="1815" y="1792.4805">SurveillanceTask</text><rect fill="#E2E2F0" height="39.1563" rx="2.5" ry="2.5" style="stroke:#181818;stroke-width:0.5;" width="185" x="1979" y="5"/><text fill="#000000" font-family="sans-serif" font-size="20" lengthAdjust="spacing" textLength="171" x="1986" y="32.7617">PickupDeliveryTask</text><rect fill="#E2E2F0" height="39.1563" rx="2.5" ry="2.5" style="stroke:#181818;stroke-width:0.5;" width="185" x="1979" y="1764.7188"/><text fill="#000000" font-family="sans-serif" font-size="20" lengthAdjust="spacing" textLength="171" x="1986" y="1792.4805">PickupDeliveryTask</text><rect fill="#FFFFFF" height="1701.5625" style="stroke:#181818;stroke-width:1.0;" width="10" x="26.5" y="55.1563"/><rect fill="#FFFFFF" height="1107.0625" style="stroke:#181818;stroke-width:1.0;" width="10" x="320.5" y="86.3125"/><rect fill="#FFFFFF" height="430.875" style="stroke:#181818;stroke-width:1.0;" width="10" x="320.5" y="1277.6875"/><rect fill="#FFFFFF" height="976.5938" style="stroke:#181818;stroke-width:1.0;" width="10" x="622.5" y="177.625"/><rect fill="#FFFFFF" height="391.7188" style="stroke:#181818;stroke-width:1.0;" width="10" x="622.5" y="1316.8438"/><rect fill="#FFFFFF" height="846.125" style="stroke:#181818;stroke-width:1.0;" width="10" x="927.5" y="268.9375"/><rect fill="#FFFFFF" height="321.4063" style="stroke:#181818;stroke-width:1.0;" width="10" x="927.5" y="1356"/><rect fill="#FFFFFF" height="30" style="stroke:#181818;stroke-width:1.0;" width="10" x="1253.5" y="665.5"/><rect fill="#FFFFFF" height="39.1563" style="stroke:#181818;stroke-width:1.0;" width="10" x="1361" y="308.0938"/><rect fill="#FFFFFF" height="117.4688" style="stroke:#181818;stroke-width:1.0;" width="10" x="1361" y="1395.1563"/><rect fill="#FFFFFF" height="30" style="stroke:#181818;stroke-width:1.0;" width="10" x="1474" y="482.875"/><rect fill="#FFFFFF" height="78.3125" style="stroke:#181818;stroke-width:1.0;" width="10" x="1597.5" y="734.6563"/><rect fill="#FFFFFF" height="78.3125" style="stroke:#181818;stroke-width:1.0;" width="10" x="1597.5" y="931.4375"/><rect fill="#FFFFFF" height="39.1563" style="stroke:#181818;stroke-width:1.0;" width="10" x="1597.5" y="1434.3125"/><rect fill="#FFFFFF" height="30" style="stroke:#181818;stroke-width:1.0;" width="10" x="1731.5" y="552.0313"/><polygon fill="#181818" points="308.5,82.3125,318.5,86.3125,308.5,90.3125,312.5,86.3125" style="stroke:#181818;stroke-width:1.0;"/><line style="stroke:#181818;stroke-width:1.0;" x1="36.5" x2="314.5" y1="86.3125" y2="86.3125"/><text fill="#000000" font-family="sans-serif" font-size="20" lengthAdjust="spacing" textLength="146" x="43.5" y="79.918">GET(/api/tasks/)</text><line style="stroke:#181818;stroke-width:1.0;" x1="330.5" x2="372.5" y1="125.4688" y2="125.4688"/><line style="stroke:#181818;stroke-width:1.0;" x1="372.5" x2="372.5" y1="125.4688" y2="138.4688"/><line style="stroke:#181818;stroke-width:1.0;" x1="331.5" x2="372.5" y1="138.4688" y2="138.4688"/><polygon fill="#181818" points="341.5,134.4688,331.5,138.4688,341.5,142.4688,337.5,138.4688" style="stroke:#181818;stroke-width:1.0;"/><text fill="#000000" font-family="sans-serif" font-size="20" lengthAdjust="spacing" textLength="144" x="337.5" y="119.0742">auth middleware</text><polygon fill="#181818" points="610.5,173.625,620.5,177.625,610.5,181.625,614.5,177.625" style="stroke:#181818;stroke-width:1.0;"/><line style="stroke:#181818;stroke-width:1.0;" x1="330.5" x2="616.5" y1="177.625" y2="177.625"/><text fill="#000000" font-family="sans-serif" font-size="20" lengthAdjust="spacing" textLength="273" x="337.5" y="171.2305">GetAll(type?,Approved?,user?)</text><line style="stroke:#181818;stroke-width:1.0;" x1="632.5" x2="674.5" y1="216.7813" y2="216.7813"/><line style="stroke:#181818;stroke-width:1.0;" x1="674.5" x2="674.5" y1="216.7813" y2="229.7813"/><line style="stroke:#181818;stroke-width:1.0;" x1="633.5" x2="674.5" y1="229.7813" y2="229.7813"/><polygon fill="#181818" points="643.5,225.7813,633.5,229.7813,643.5,233.7813,639.5,229.7813" style="stroke:#181818;stroke-width:1.0;"/><text fill="#000000" font-family="sans-serif" font-size="20" lengthAdjust="spacing" textLength="211" x="639.5" y="210.3867">permissions middleware</text><polygon fill="#181818" points="915.5,264.9375,925.5,268.9375,915.5,272.9375,919.5,268.9375" style="stroke:#181818;stroke-width:1.0;"/><line style="stroke:#181818;stroke-width:1.0;" x1="632.5" x2="921.5" y1="268.9375" y2="268.9375"/><text fill="#000000" font-family="sans-serif" font-size="20" lengthAdjust="spacing" textLength="273" x="639.5" y="262.543">GetAll(type?,Approved?,user?)</text><polygon fill="#181818" points="1349,304.0938,1359,308.0938,1349,312.0938,1353,308.0938" style="stroke:#181818;stroke-width:1.0;"/><line style="stroke:#181818;stroke-width:1.0;" x1="937.5" x2="1355" y1="308.0938" y2="308.0938"/><text fill="#000000" font-family="sans-serif" font-size="20" lengthAdjust="spacing" textLength="326" x="944.5" y="301.6992">GetAllAsync(type?,Approved?,user?)</text><polygon fill="#181818" points="948.5,343.25,938.5,347.25,948.5,351.25,944.5,347.25" style="stroke:#181818;stroke-width:1.0;"/><line style="stroke:#181818;stroke-width:1.0;stroke-dasharray:2.0,2.0;" x1="942.5" x2="1365" y1="347.25" y2="347.25"/><text fill="#000000" font-family="sans-serif" font-size="20" lengthAdjust="spacing" textLength="43" x="954.5" y="340.8555">Task</text><line style="stroke:#181818;stroke-width:1.0;" x1="937.5" x2="979.5" y1="386.4063" y2="386.4063"/><line style="stroke:#181818;stroke-width:1.0;" x1="979.5" x2="979.5" y1="386.4063" y2="399.4063"/><line style="stroke:#181818;stroke-width:1.0;" x1="938.5" x2="979.5" y1="399.4063" y2="399.4063"/><polygon fill="#181818" points="948.5,395.4063,938.5,399.4063,948.5,403.4063,944.5,399.4063" style="stroke:#181818;stroke-width:1.0;"/><text fill="#000000" font-family="sans-serif" font-size="20" lengthAdjust="spacing" textLength="157" x="944.5" y="380.0117">new List tasksDto</text><path d="M851.5,414.4063 L937.5,414.4063 L937.5,431.5625 L927.5,441.5625 L851.5,441.5625 L851.5,414.4063 " fill="#EEEEEE" style="stroke:#000000;stroke-width:1.5;"/><rect fill="none" height="662.5" style="stroke:#000000;stroke-width:1.5;" width="1332.5" x="851.5" y="414.4063"/><text fill="#000000" font-family="sans-serif" font-size="20" font-weight="bold" lengthAdjust="spacing" textLength="41" x="866.5" y="436.168">loop</text><text fill="#000000" font-family="sans-serif" font-size="20" font-weight="bold" lengthAdjust="spacing" textLength="144" x="952.5" y="437.168">[for each Task]</text><polygon fill="#181818" points="1462,478.875,1472,482.875,1462,486.875,1466,482.875" style="stroke:#181818;stroke-width:1.0;"/><line style="stroke:#181818;stroke-width:1.0;" x1="937.5" x2="1468" y1="482.875" y2="482.875"/><text fill="#000000" font-family="sans-serif" font-size="20" lengthAdjust="spacing" textLength="143" x="944.5" y="476.4805">getUserById(ID)</text><polygon fill="#181818" points="1719.5,548.0313,1729.5,552.0313,1719.5,556.0313,1723.5,552.0313" style="stroke:#181818;stroke-width:1.0;"/><line style="stroke:#181818;stroke-width:1.0;" x1="937.5" x2="1725.5" y1="552.0313" y2="552.0313"/><text fill="#000000" font-family="sans-serif" font-size="20" lengthAdjust="spacing" textLength="182" x="944.5" y="545.6367">ToDtoTaskInfo(user)</text><path d="M861.5,597.0313 L929.5,597.0313 L929.5,614.1875 L919.5,624.1875 L861.5,624.1875 L861.5,597.0313 " fill="#EEEEEE" style="stroke:#000000;stroke-width:1.5;"/><rect fill="none" height="472.875" style="stroke:#000000;stroke-width:1.5;" width="1312.5" x="861.5" y="597.0313"/><text fill="#000000" font-family="sans-serif" font-size="20" font-weight="bold" lengthAdjust="spacing" textLength="23" x="876.5" y="618.793">alt</text><text fill="#000000" font-family="sans-serif" font-size="20" font-weight="bold" lengthAdjust="spacing" textLength="249" x="944.5" y="619.793">[Task is SurveillanceTask]</text><polygon fill="#181818" points="1241.5,661.5,1251.5,665.5,1241.5,669.5,1245.5,665.5" style="stroke:#181818;stroke-width:1.0;"/><line style="stroke:#181818;stroke-width:1.0;" x1="937.5" x2="1247.5" y1="665.5" y2="665.5"/><text fill="#000000" font-family="sans-serif" font-size="20" lengthAdjust="spacing" textLength="159" x="944.5" y="659.1055">GET(/api/floor/:id)</text><polygon fill="#181818" points="1585.5,730.6563,1595.5,734.6563,1585.5,738.6563,1589.5,734.6563" style="stroke:#181818;stroke-width:1.0;"/><line style="stroke:#181818;stroke-width:1.0;" x1="937.5" x2="1591.5" y1="734.6563" y2="734.6563"/><text fill="#000000" font-family="sans-serif" font-size="20" lengthAdjust="spacing" textLength="241" x="944.5" y="728.2617">toFullDTO(task, floor, user)</text><polygon fill="#181818" points="1876.5,769.8125,1886.5,773.8125,1876.5,777.8125,1880.5,773.8125" style="stroke:#181818;stroke-width:1.0;"/><line style="stroke:#181818;stroke-width:1.0;stroke-dasharray:2.0,2.0;" x1="1607.5" x2="1882.5" y1="773.8125" y2="773.8125"/><text fill="#000000" font-family="sans-serif" font-size="20" lengthAdjust="spacing" textLength="70" x="1614.5" y="767.418">create()</text><polygon fill="#181818" points="948.5,808.9688,938.5,812.9688,948.5,816.9688,944.5,812.9688" style="stroke:#181818;stroke-width:1.0;"/><line style="stroke:#181818;stroke-width:1.0;stroke-dasharray:2.0,2.0;" x1="942.5" x2="1601.5" y1="812.9688" y2="812.9688"/><text fill="#000000" font-family="sans-serif" font-size="20" lengthAdjust="spacing" textLength="147" x="954.5" y="806.5742">SurveillanceTask</text><line style="stroke:#181818;stroke-width:1.0;" x1="937.5" x2="979.5" y1="852.125" y2="852.125"/><line style="stroke:#181818;stroke-width:1.0;" x1="979.5" x2="979.5" y1="852.125" y2="865.125"/><line style="stroke:#181818;stroke-width:1.0;" x1="938.5" x2="979.5" y1="865.125" y2="865.125"/><polygon fill="#181818" points="948.5,861.125,938.5,865.125,948.5,869.125,944.5,865.125" style="stroke:#181818;stroke-width:1.0;"/><text fill="#000000" font-family="sans-serif" font-size="20" lengthAdjust="spacing" textLength="278" x="944.5" y="845.7305">tasksDto.add(SurveillanceTask)</text><line style="stroke:#000000;stroke-width:1.0;stroke-dasharray:2.0,2.0;" x1="861.5" x2="2174" y1="874.125" y2="874.125"/><text fill="#000000" font-family="sans-serif" font-size="20" font-weight="bold" lengthAdjust="spacing" textLength="274" x="866.5" y="894.8867">[Task is PickupDeliveryTask]</text><polygon fill="#181818" points="1585.5,927.4375,1595.5,931.4375,1585.5,935.4375,1589.5,931.4375" style="stroke:#181818;stroke-width:1.0;"/><line style="stroke:#181818;stroke-width:1.0;" x1="937.5" x2="1591.5" y1="931.4375" y2="931.4375"/><text fill="#000000" font-family="sans-serif" font-size="20" lengthAdjust="spacing" textLength="190" x="944.5" y="925.043">toFullDTO(task, user)</text><polygon fill="#181818" points="2059.5,966.5938,2069.5,970.5938,2059.5,974.5938,2063.5,970.5938" style="stroke:#181818;stroke-width:1.0;"/><line style="stroke:#181818;stroke-width:1.0;stroke-dasharray:2.0,2.0;" x1="1607.5" x2="2065.5" y1="970.5938" y2="970.5938"/><text fill="#000000" font-family="sans-serif" font-size="20" lengthAdjust="spacing" textLength="70" x="1614.5" y="964.1992">create()</text><polygon fill="#181818" points="948.5,1005.75,938.5,1009.75,948.5,1013.75,944.5,1009.75" style="stroke:#181818;stroke-width:1.0;"/><line style="stroke:#181818;stroke-width:1.0;stroke-dasharray:2.0,2.0;" x1="942.5" x2="1601.5" y1="1009.75" y2="1009.75"/><text fill="#000000" font-family="sans-serif" font-size="20" lengthAdjust="spacing" textLength="171" x="954.5" y="1003.3555">PickupDeliveryTask</text><line style="stroke:#181818;stroke-width:1.0;" x1="937.5" x2="979.5" y1="1048.9063" y2="1048.9063"/><line style="stroke:#181818;stroke-width:1.0;" x1="979.5" x2="979.5" y1="1048.9063" y2="1061.9063"/><line style="stroke:#181818;stroke-width:1.0;" x1="938.5" x2="979.5" y1="1061.9063" y2="1061.9063"/><polygon fill="#181818" points="948.5,1057.9063,938.5,1061.9063,948.5,1065.9063,944.5,1061.9063" style="stroke:#181818;stroke-width:1.0;"/><text fill="#000000" font-family="sans-serif" font-size="20" lengthAdjust="spacing" textLength="302" x="944.5" y="1042.5117">tasksDto.add(PickupDeliveryTask)</text><polygon fill="#181818" points="643.5,1111.0625,633.5,1115.0625,643.5,1119.0625,639.5,1115.0625" style="stroke:#181818;stroke-width:1.0;"/><line style="stroke:#181818;stroke-width:1.0;stroke-dasharray:2.0,2.0;" x1="637.5" x2="931.5" y1="1115.0625" y2="1115.0625"/><text fill="#000000" font-family="sans-serif" font-size="20" lengthAdjust="spacing" textLength="78" x="649.5" y="1108.668">tasksDto</text><polygon fill="#181818" points="341.5,1150.2188,331.5,1154.2188,341.5,1158.2188,337.5,1154.2188" style="stroke:#181818;stroke-width:1.0;"/><line style="stroke:#181818;stroke-width:1.0;stroke-dasharray:2.0,2.0;" x1="335.5" x2="626.5" y1="1154.2188" y2="1154.2188"/><text fill="#000000" font-family="sans-serif" font-size="20" lengthAdjust="spacing" textLength="147" x="347.5" y="1147.8242">retorna tasksDto</text><polygon fill="#181818" points="47.5,1189.375,37.5,1193.375,47.5,1197.375,43.5,1193.375" style="stroke:#181818;stroke-width:1.0;"/><line style="stroke:#181818;stroke-width:1.0;stroke-dasharray:2.0,2.0;" x1="41.5" x2="324.5" y1="1193.375" y2="1193.375"/><text fill="#000000" font-family="sans-serif" font-size="20" lengthAdjust="spacing" textLength="260" x="53.5" y="1186.9805">mostra tasks para o utilizador</text><path d="M41,1206.375 L41,1241.375 L390,1241.375 L390,1216.375 L380,1206.375 L41,1206.375 " fill="#FEFFDD" style="stroke:#181818;stroke-width:0.5;"/><path d="M380,1206.375 L380,1216.375 L390,1216.375 L380,1206.375 " fill="#FEFFDD" style="stroke:#181818;stroke-width:0.5;"/><text fill="#000000" font-family="sans-serif" font-size="20" lengthAdjust="spacing" textLength="328" x="47" y="1232.1367">Utilizador aprova ou rejeita as tarefas</text><polygon fill="#181818" points="308.5,1273.6875,318.5,1277.6875,308.5,1281.6875,312.5,1277.6875" style="stroke:#181818;stroke-width:1.0;"/><line style="stroke:#181818;stroke-width:1.0;" x1="36.5" x2="314.5" y1="1277.6875" y2="1277.6875"/><text fill="#000000" font-family="sans-serif" font-size="20" lengthAdjust="spacing" textLength="170" x="43.5" y="1271.293">PATCH(/api/tasks/)</text><polygon fill="#181818" points="610.5,1312.8438,620.5,1316.8438,610.5,1320.8438,614.5,1316.8438" style="stroke:#181818;stroke-width:1.0;"/><line style="stroke:#181818;stroke-width:1.0;" x1="330.5" x2="616.5" y1="1316.8438" y2="1316.8438"/><text fill="#000000" font-family="sans-serif" font-size="20" lengthAdjust="spacing" textLength="65" x="337.5" y="1310.4492">PATCH</text><polygon fill="#181818" points="915.5,1352,925.5,1356,915.5,1360,919.5,1356" style="stroke:#181818;stroke-width:1.0;"/><line style="stroke:#181818;stroke-width:1.0;" x1="632.5" x2="921.5" y1="1356" y2="1356"/><text fill="#000000" font-family="sans-serif" font-size="20" lengthAdjust="spacing" textLength="129" x="639.5" y="1349.6055">ApproveReject</text><polygon fill="#181818" points="1349,1391.1563,1359,1395.1563,1349,1399.1563,1353,1395.1563" style="stroke:#181818;stroke-width:1.0;"/><line style="stroke:#181818;stroke-width:1.0;" x1="937.5" x2="1355" y1="1395.1563" y2="1395.1563"/><text fill="#000000" font-family="sans-serif" font-size="20" lengthAdjust="spacing" textLength="223" x="944.5" y="1388.7617">update aprove/reject field</text><polygon fill="#181818" points="1585.5,1430.3125,1595.5,1434.3125,1585.5,1438.3125,1589.5,1434.3125" style="stroke:#181818;stroke-width:1.0;"/><line style="stroke:#181818;stroke-width:1.0;stroke-dasharray:2.0,2.0;" x1="1371" x2="1591.5" y1="1434.3125" y2="1434.3125"/><text fill="#000000" font-family="sans-serif" font-size="20" lengthAdjust="spacing" textLength="48" x="1378" y="1427.918">toDto</text><polygon fill="#181818" points="1382,1469.4688,1372,1473.4688,1382,1477.4688,1378,1473.4688" style="stroke:#181818;stroke-width:1.0;"/><line style="stroke:#181818;stroke-width:1.0;" x1="1376" x2="1601.5" y1="1473.4688" y2="1473.4688"/><text fill="#000000" font-family="sans-serif" font-size="20" lengthAdjust="spacing" textLength="74" x="1388" y="1467.0742">TaskDto</text><polygon fill="#181818" points="948.5,1508.625,938.5,1512.625,948.5,1516.625,944.5,1512.625" style="stroke:#181818;stroke-width:1.0;"/><line style="stroke:#181818;stroke-width:1.0;stroke-dasharray:2.0,2.0;" x1="942.5" x2="1365" y1="1512.625" y2="1512.625"/><text fill="#000000" font-family="sans-serif" font-size="20" lengthAdjust="spacing" textLength="74" x="954.5" y="1506.2305">TaskDto</text><path d="M546.5,1527.625 L614.5,1527.625 L614.5,1544.7813 L604.5,1554.7813 L546.5,1554.7813 L546.5,1527.625 " fill="#EEEEEE" style="stroke:#000000;stroke-width:1.5;"/><rect fill="none" height="142.7813" style="stroke:#000000;stroke-width:1.5;" width="457" x="546.5" y="1527.625"/><text fill="#000000" font-family="sans-serif" font-size="20" font-weight="bold" lengthAdjust="spacing" textLength="23" x="561.5" y="1549.3867">alt</text><text fill="#000000" font-family="sans-serif" font-size="20" font-weight="bold" lengthAdjust="spacing" textLength="93" x="629.5" y="1550.3867">[sucesso]</text><polygon fill="#181818" points="643.5,1592.0938,633.5,1596.0938,643.5,1600.0938,639.5,1596.0938" style="stroke:#181818;stroke-width:1.0;"/><line style="stroke:#181818;stroke-width:1.0;stroke-dasharray:2.0,2.0;" x1="637.5" x2="926.5" y1="1596.0938" y2="1596.0938"/><text fill="#000000" font-family="sans-serif" font-size="20" lengthAdjust="spacing" textLength="271" x="649.5" y="1589.6992">retorna mensagem de sucesso</text><line style="stroke:#000000;stroke-width:1.0;stroke-dasharray:2.0,2.0;" x1="546.5" x2="1003.5" y1="1605.0938" y2="1605.0938"/><text fill="#000000" font-family="sans-serif" font-size="20" font-weight="bold" lengthAdjust="spacing" textLength="53" x="551.5" y="1625.8555">[erro]</text><polygon fill="#181818" points="643.5,1658.4063,633.5,1662.4063,643.5,1666.4063,639.5,1662.4063" style="stroke:#181818;stroke-width:1.0;"/><line style="stroke:#181818;stroke-width:1.0;stroke-dasharray:2.0,2.0;" x1="637.5" x2="926.5" y1="1662.4063" y2="1662.4063"/><text fill="#000000" font-family="sans-serif" font-size="20" lengthAdjust="spacing" textLength="235" x="649.5" y="1656.0117">retorna mensagem de erro</text><polygon fill="#181818" points="336.5,1704.5625,326.5,1708.5625,336.5,1712.5625,332.5,1708.5625" style="stroke:#181818;stroke-width:1.0;"/><line style="stroke:#181818;stroke-width:1.0;stroke-dasharray:2.0,2.0;" x1="330.5" x2="626.5" y1="1708.5625" y2="1708.5625"/><text fill="#000000" font-family="sans-serif" font-size="20" lengthAdjust="spacing" textLength="165" x="342.5" y="1702.168">retorna mensagem</text><polygon fill="#181818" points="47.5,1743.7188,37.5,1747.7188,47.5,1751.7188,43.5,1747.7188" style="stroke:#181818;stroke-width:1.0;"/><line style="stroke:#181818;stroke-width:1.0;stroke-dasharray:2.0,2.0;" x1="41.5" x2="324.5" y1="1747.7188" y2="1747.7188"/><text fill="#000000" font-family="sans-serif" font-size="20" lengthAdjust="spacing" textLength="165" x="53.5" y="1741.3242">retorna mensagem</text><!--SRC=[bLNRRjim37tNLn1zSe1i6VgOXnLUitO1LYneqWyGBBhL8bk69AT8ltwYV8bbPsqQe8uZ7XvIl9pQlImhRdYXTBP70G9pNYjtfqktbMy8rz-ODpkPoOgN3hQRDFfzzR3PGRfPNm6tz1qRTzpkRpsJqKgX2PXRPzGKj4Lpa1a6nDOSHY7kryCGrspg_uYL3dPwYSrF5arlhitKzu5NLPkSVvqw3-nr4PktjJcWL8gN6H9La__eC7RPo6nVLojKye3cs3jDZndZcPC7xZ0KtV_1b-zq_oNS_zmb2rx9XVCukvYTaDG1vXyzbDVk1GefXC9NRX0w8xN14w5BbKhSiSARULfLHXzGtCnhV-kR0Mle6QFdoTMNf93MIbtQYBz3-IvUp4yTP_v1VjIgpZ6rnpBxq3kqd1xmfOiRwYSmXdGH0gB4L_WjhODGmfNpPgLr1RasuFrU6We6_jEwrMO9p-Xe8duSro9PhsR1t0VniqM_1s7RauwWy8bf7ugersMk4xh9cAIOa1HD6bova1J8CoCM48DOj2Q3ESdztSnYASMi1mv7vhe_7SHjDct4wtTX2KxVrKgjTdyIAjuS0liSJhU9-6cdkaF_tZHfbFyICeCUdCocKEhMvBvdygKuutI3SzVXhro8PCpK14HbiI_kcLMyf0gVkFuqmaS5U2UdJvTWojKMeHICXKTmxJUztv11fB2npQftIcFGQLFoi_16G8BqK4gRT0c5jiwqQA1_GA2XTbB9DowqOV4WCbPg_sRayui3dHC3X9oVUW_Wf0-UfVQP_4NfECcgyvgKSqlN0g9WaOvkqjtjhrX9OocDn3AWsKWL8xbhDUhHnyzSB6-HkjMLeFEGCIvCW4CkKGdsFrbhHuxg6hKxJ4d7IxqSLPumKsqSWHfv986nTORMQZZfLd_zhhy5bfO_O-47huEpi3zeZBxGBq1fr2uRgSwLJMPgF2RHYBth7k3Xymy0]--></g></svg>