<?xml version="1.0" encoding="UTF-8" standalone="no"?><svg xmlns="http://www.w3.org/2000/svg" xmlns:xlink="http://www.w3.org/1999/xlink" contentStyleType="text/css" height="1440px" preserveAspectRatio="none" style="width:1901px;height:1440px;background:#FFFFFF;" version="1.1" viewBox="0 0 1901 1440" width="1901px" zoomAndPan="magnify"><defs/><g><rect fill="#FFFFFF" height="1332.3125" style="stroke:#181818;stroke-width:1.0;" width="10" x="51.5" y="55.1563"/><rect fill="#FFFFFF" height="1133.5313" style="stroke:#181818;stroke-width:1.0;" width="10" x="240.5" y="86.3125"/><rect fill="#FFFFFF" height="1003.0625" style="stroke:#181818;stroke-width:1.0;" width="10" x="415.5" y="177.625"/><rect fill="#FFFFFF" height="872.5938" style="stroke:#181818;stroke-width:1.0;" width="10" x="650.5" y="268.9375"/><rect fill="#FFFFFF" height="91.3125" style="stroke:#181818;stroke-width:1.0;" width="10" x="1223.5" y="932.75"/><rect fill="#FFFFFF" height="39.1563" style="stroke:#181818;stroke-width:1.0;" width="10" x="1387.5" y="854.4375"/><rect fill="#FFFFFF" height="39.1563" style="stroke:#181818;stroke-width:1.0;" width="10" x="1387.5" y="1063.2188"/><rect fill="#FFFFFF" height="91.3125" style="stroke:#181818;stroke-width:1.0;" width="10" x="1581.5" y="549.1875"/><rect fill="#FFFFFF" height="39.1563" style="stroke:#181818;stroke-width:1.0;" width="10" x="1818.5" y="679.6563"/><rect fill="none" height="1043.375" style="stroke:#000000;stroke-width:1.5;" width="1884.5" x="10" y="336.0938"/><rect fill="none" height="638.6563" style="stroke:#000000;stroke-width:1.5;" width="1444" x="20" y="733.8125"/><line style="stroke:#181818;stroke-width:0.5;stroke-dasharray:5.0,5.0;" x1="56" x2="56" y1="45.1563" y2="1396.4688"/><line style="stroke:#181818;stroke-width:0.5;stroke-dasharray:5.0,5.0;" x1="245.5" x2="245.5" y1="45.1563" y2="1396.4688"/><line style="stroke:#181818;stroke-width:0.5;stroke-dasharray:5.0,5.0;" x1="420.5" x2="420.5" y1="45.1563" y2="1396.4688"/><line style="stroke:#181818;stroke-width:0.5;stroke-dasharray:5.0,5.0;" x1="655.5" x2="655.5" y1="45.1563" y2="1396.4688"/><line style="stroke:#181818;stroke-width:0.5;stroke-dasharray:5.0,5.0;" x1="1228.5" x2="1228.5" y1="45.1563" y2="1396.4688"/><line style="stroke:#181818;stroke-width:0.5;stroke-dasharray:5.0,5.0;" x1="1392" x2="1392" y1="45.1563" y2="1396.4688"/><line style="stroke:#181818;stroke-width:0.5;stroke-dasharray:5.0,5.0;" x1="1495" x2="1495" y1="45.1563" y2="1396.4688"/><line style="stroke:#181818;stroke-width:0.5;stroke-dasharray:5.0,5.0;" x1="1586" x2="1586" y1="45.1563" y2="1396.4688"/><line style="stroke:#181818;stroke-width:0.5;stroke-dasharray:5.0,5.0;" x1="1823.5" x2="1823.5" y1="45.1563" y2="1396.4688"/><rect fill="#E2E2F0" height="39.1563" rx="2.5" ry="2.5" style="stroke:#181818;stroke-width:0.5;" width="53" x="30" y="5"/><text fill="#000000" font-family="sans-serif" font-size="20" lengthAdjust="spacing" textLength="39" x="37" y="32.7617">SPA</text><rect fill="#E2E2F0" height="39.1563" rx="2.5" ry="2.5" style="stroke:#181818;stroke-width:0.5;" width="53" x="30" y="1395.4688"/><text fill="#000000" font-family="sans-serif" font-size="20" lengthAdjust="spacing" textLength="39" x="37" y="1423.2305">SPA</text><rect fill="#E2E2F0" height="39.1563" rx="2.5" ry="2.5" style="stroke:#181818;stroke-width:0.5;" width="94" x="198.5" y="5"/><text fill="#000000" font-family="sans-serif" font-size="20" lengthAdjust="spacing" textLength="80" x="205.5" y="32.7617">MPT API</text><rect fill="#E2E2F0" height="39.1563" rx="2.5" ry="2.5" style="stroke:#181818;stroke-width:0.5;" width="94" x="198.5" y="1395.4688"/><text fill="#000000" font-family="sans-serif" font-size="20" lengthAdjust="spacing" textLength="80" x="205.5" y="1423.2305">MPT API</text><rect fill="#E2E2F0" height="39.1563" rx="2.5" ry="2.5" style="stroke:#181818;stroke-width:0.5;" width="140" x="350.5" y="5"/><text fill="#000000" font-family="sans-serif" font-size="20" lengthAdjust="spacing" textLength="126" x="357.5" y="32.7617">UserController</text><rect fill="#E2E2F0" height="39.1563" rx="2.5" ry="2.5" style="stroke:#181818;stroke-width:0.5;" width="140" x="350.5" y="1395.4688"/><text fill="#000000" font-family="sans-serif" font-size="20" lengthAdjust="spacing" textLength="126" x="357.5" y="1423.2305">UserController</text><rect fill="#E2E2F0" height="39.1563" rx="2.5" ry="2.5" style="stroke:#181818;stroke-width:0.5;" width="120" x="595.5" y="5"/><text fill="#000000" font-family="sans-serif" font-size="20" lengthAdjust="spacing" textLength="106" x="602.5" y="32.7617">UserService</text><rect fill="#E2E2F0" height="39.1563" rx="2.5" ry="2.5" style="stroke:#181818;stroke-width:0.5;" width="120" x="595.5" y="1395.4688"/><text fill="#000000" font-family="sans-serif" font-size="20" lengthAdjust="spacing" textLength="106" x="602.5" y="1423.2305">UserService</text><rect fill="#E2E2F0" height="39.1563" rx="2.5" ry="2.5" style="stroke:#181818;stroke-width:0.5;" width="102" x="1177.5" y="5"/><text fill="#000000" font-family="sans-serif" font-size="20" lengthAdjust="spacing" textLength="88" x="1184.5" y="32.7617">UserRepo</text><rect fill="#E2E2F0" height="39.1563" rx="2.5" ry="2.5" style="stroke:#181818;stroke-width:0.5;" width="102" x="1177.5" y="1395.4688"/><text fill="#000000" font-family="sans-serif" font-size="20" lengthAdjust="spacing" textLength="88" x="1184.5" y="1423.2305">UserRepo</text><rect fill="#E2E2F0" height="39.1563" rx="2.5" ry="2.5" style="stroke:#181818;stroke-width:0.5;" width="123" x="1331" y="5"/><text fill="#000000" font-family="sans-serif" font-size="20" lengthAdjust="spacing" textLength="109" x="1338" y="32.7617">UserMapper</text><rect fill="#E2E2F0" height="39.1563" rx="2.5" ry="2.5" style="stroke:#181818;stroke-width:0.5;" width="123" x="1331" y="1395.4688"/><text fill="#000000" font-family="sans-serif" font-size="20" lengthAdjust="spacing" textLength="109" x="1338" y="1423.2305">UserMapper</text><rect fill="#E2E2F0" height="39.1563" rx="2.5" ry="2.5" style="stroke:#181818;stroke-width:0.5;" width="62" x="1464" y="5"/><text fill="#000000" font-family="sans-serif" font-size="20" lengthAdjust="spacing" textLength="48" x="1471" y="32.7617">Email</text><rect fill="#E2E2F0" height="39.1563" rx="2.5" ry="2.5" style="stroke:#181818;stroke-width:0.5;" width="62" x="1464" y="1395.4688"/><text fill="#000000" font-family="sans-serif" font-size="20" lengthAdjust="spacing" textLength="48" x="1471" y="1423.2305">Email</text><rect fill="#E2E2F0" height="39.1563" rx="2.5" ry="2.5" style="stroke:#181818;stroke-width:0.5;" width="101" x="1536" y="5"/><text fill="#000000" font-family="sans-serif" font-size="20" lengthAdjust="spacing" textLength="87" x="1543" y="32.7617">RoleRepo</text><rect fill="#E2E2F0" height="39.1563" rx="2.5" ry="2.5" style="stroke:#181818;stroke-width:0.5;" width="101" x="1536" y="1395.4688"/><text fill="#000000" font-family="sans-serif" font-size="20" lengthAdjust="spacing" textLength="87" x="1543" y="1423.2305">RoleRepo</text><rect fill="#E2E2F0" height="39.1563" rx="2.5" ry="2.5" style="stroke:#181818;stroke-width:0.5;" width="122" x="1762.5" y="5"/><text fill="#000000" font-family="sans-serif" font-size="20" lengthAdjust="spacing" textLength="108" x="1769.5" y="32.7617">RoleMapper</text><rect fill="#E2E2F0" height="39.1563" rx="2.5" ry="2.5" style="stroke:#181818;stroke-width:0.5;" width="122" x="1762.5" y="1395.4688"/><text fill="#000000" font-family="sans-serif" font-size="20" lengthAdjust="spacing" textLength="108" x="1769.5" y="1423.2305">RoleMapper</text><rect fill="#FFFFFF" height="1332.3125" style="stroke:#181818;stroke-width:1.0;" width="10" x="51.5" y="55.1563"/><rect fill="#FFFFFF" height="1133.5313" style="stroke:#181818;stroke-width:1.0;" width="10" x="240.5" y="86.3125"/><rect fill="#FFFFFF" height="1003.0625" style="stroke:#181818;stroke-width:1.0;" width="10" x="415.5" y="177.625"/><rect fill="#FFFFFF" height="872.5938" style="stroke:#181818;stroke-width:1.0;" width="10" x="650.5" y="268.9375"/><rect fill="#FFFFFF" height="91.3125" style="stroke:#181818;stroke-width:1.0;" width="10" x="1223.5" y="932.75"/><rect fill="#FFFFFF" height="39.1563" style="stroke:#181818;stroke-width:1.0;" width="10" x="1387.5" y="854.4375"/><rect fill="#FFFFFF" height="39.1563" style="stroke:#181818;stroke-width:1.0;" width="10" x="1387.5" y="1063.2188"/><rect fill="#FFFFFF" height="91.3125" style="stroke:#181818;stroke-width:1.0;" width="10" x="1581.5" y="549.1875"/><rect fill="#FFFFFF" height="39.1563" style="stroke:#181818;stroke-width:1.0;" width="10" x="1818.5" y="679.6563"/><polygon fill="#181818" points="228.5,82.3125,238.5,86.3125,228.5,90.3125,232.5,86.3125" style="stroke:#181818;stroke-width:1.0;"/><line style="stroke:#181818;stroke-width:1.0;" x1="61.5" x2="234.5" y1="86.3125" y2="86.3125"/><text fill="#000000" font-family="sans-serif" font-size="20" lengthAdjust="spacing" textLength="160" x="68.5" y="79.918">POST(/api/users/)</text><line style="stroke:#181818;stroke-width:1.0;" x1="250.5" x2="292.5" y1="125.4688" y2="125.4688"/><line style="stroke:#181818;stroke-width:1.0;" x1="292.5" x2="292.5" y1="125.4688" y2="138.4688"/><line style="stroke:#181818;stroke-width:1.0;" x1="251.5" x2="292.5" y1="138.4688" y2="138.4688"/><polygon fill="#181818" points="261.5,134.4688,251.5,138.4688,261.5,142.4688,257.5,138.4688" style="stroke:#181818;stroke-width:1.0;"/><text fill="#000000" font-family="sans-serif" font-size="20" lengthAdjust="spacing" textLength="144" x="257.5" y="119.0742">auth middleware</text><polygon fill="#181818" points="403.5,173.625,413.5,177.625,403.5,181.625,407.5,177.625" style="stroke:#181818;stroke-width:1.0;"/><line style="stroke:#181818;stroke-width:1.0;" x1="250.5" x2="409.5" y1="177.625" y2="177.625"/><text fill="#000000" font-family="sans-serif" font-size="20" lengthAdjust="spacing" textLength="140" x="257.5" y="171.2305">AddAsync(user)</text><line style="stroke:#181818;stroke-width:1.0;" x1="425.5" x2="467.5" y1="216.7813" y2="216.7813"/><line style="stroke:#181818;stroke-width:1.0;" x1="467.5" x2="467.5" y1="216.7813" y2="229.7813"/><line style="stroke:#181818;stroke-width:1.0;" x1="426.5" x2="467.5" y1="229.7813" y2="229.7813"/><polygon fill="#181818" points="436.5,225.7813,426.5,229.7813,436.5,233.7813,432.5,229.7813" style="stroke:#181818;stroke-width:1.0;"/><text fill="#000000" font-family="sans-serif" font-size="20" lengthAdjust="spacing" textLength="211" x="432.5" y="210.3867">permissions middleware</text><polygon fill="#181818" points="638.5,264.9375,648.5,268.9375,638.5,272.9375,642.5,268.9375" style="stroke:#181818;stroke-width:1.0;"/><line style="stroke:#181818;stroke-width:1.0;" x1="425.5" x2="644.5" y1="268.9375" y2="268.9375"/><text fill="#000000" font-family="sans-serif" font-size="20" lengthAdjust="spacing" textLength="140" x="432.5" y="262.543">AddAsync(user)</text><line style="stroke:#181818;stroke-width:1.0;" x1="660.5" x2="702.5" y1="308.0938" y2="308.0938"/><line style="stroke:#181818;stroke-width:1.0;" x1="702.5" x2="702.5" y1="308.0938" y2="321.0938"/><line style="stroke:#181818;stroke-width:1.0;" x1="661.5" x2="702.5" y1="321.0938" y2="321.0938"/><polygon fill="#181818" points="671.5,317.0938,661.5,321.0938,671.5,325.0938,667.5,321.0938" style="stroke:#181818;stroke-width:1.0;"/><text fill="#000000" font-family="sans-serif" font-size="20" lengthAdjust="spacing" textLength="368" x="667.5" y="301.6992">userByEmail = GetByEmailAsync(u.Email)</text><path d="M10,336.0938 L78,336.0938 L78,353.25 L68,363.25 L10,363.25 L10,336.0938 " fill="#EEEEEE" style="stroke:#000000;stroke-width:1.5;"/><rect fill="none" height="1043.375" style="stroke:#000000;stroke-width:1.5;" width="1884.5" x="10" y="336.0938"/><text fill="#000000" font-family="sans-serif" font-size="20" font-weight="bold" lengthAdjust="spacing" textLength="23" x="25" y="357.8555">alt</text><text fill="#000000" font-family="sans-serif" font-size="20" font-weight="bold" lengthAdjust="spacing" textLength="165" x="93" y="358.8555">[Utilizador existe]</text><polygon fill="#181818" points="436.5,400.5625,426.5,404.5625,436.5,408.5625,432.5,404.5625" style="stroke:#181818;stroke-width:1.0;"/><line style="stroke:#181818;stroke-width:1.0;" x1="430.5" x2="649.5" y1="404.5625" y2="404.5625"/><text fill="#000000" font-family="sans-serif" font-size="20" lengthAdjust="spacing" textLength="158" x="442.5" y="398.168">Utilizador já existe</text><polygon fill="#181818" points="261.5,439.7188,251.5,443.7188,261.5,447.7188,257.5,443.7188" style="stroke:#181818;stroke-width:1.0;"/><line style="stroke:#181818;stroke-width:1.0;stroke-dasharray:2.0,2.0;" x1="255.5" x2="414.5" y1="443.7188" y2="443.7188"/><text fill="#000000" font-family="sans-serif" font-size="20" lengthAdjust="spacing" textLength="141" x="267.5" y="437.3242">status code 400</text><polygon fill="#181818" points="72.5,478.875,62.5,482.875,72.5,486.875,68.5,482.875" style="stroke:#181818;stroke-width:1.0;"/><line style="stroke:#181818;stroke-width:1.0;stroke-dasharray:2.0,2.0;" x1="66.5" x2="239.5" y1="482.875" y2="482.875"/><text fill="#000000" font-family="sans-serif" font-size="20" lengthAdjust="spacing" textLength="43" x="78.5" y="476.4805">error</text><line style="stroke:#000000;stroke-width:1.0;stroke-dasharray:2.0,2.0;" x1="10" x2="1894.5" y1="491.875" y2="491.875"/><text fill="#000000" font-family="sans-serif" font-size="20" font-weight="bold" lengthAdjust="spacing" textLength="206" x="15" y="512.6367">[Utilizador não existe]</text><polygon fill="#181818" points="1569.5,545.1875,1579.5,549.1875,1569.5,553.1875,1573.5,549.1875" style="stroke:#181818;stroke-width:1.0;"/><line style="stroke:#181818;stroke-width:1.0;" x1="660.5" x2="1575.5" y1="549.1875" y2="549.1875"/><text fill="#000000" font-family="sans-serif" font-size="20" lengthAdjust="spacing" textLength="213" x="667.5" y="542.793">GetByIdAsync(u.RoleId)</text><line style="stroke:#181818;stroke-width:1.0;" x1="1591.5" x2="1633.5" y1="588.3438" y2="588.3438"/><line style="stroke:#181818;stroke-width:1.0;" x1="1633.5" x2="1633.5" y1="588.3438" y2="601.3438"/><line style="stroke:#181818;stroke-width:1.0;" x1="1592.5" x2="1633.5" y1="601.3438" y2="601.3438"/><polygon fill="#181818" points="1602.5,597.3438,1592.5,601.3438,1602.5,605.3438,1598.5,601.3438" style="stroke:#181818;stroke-width:1.0;"/><text fill="#000000" font-family="sans-serif" font-size="20" lengthAdjust="spacing" textLength="213" x="1598.5" y="581.9492">GetByIdAsync(u.RoleId)</text><polygon fill="#181818" points="671.5,636.5,661.5,640.5,671.5,644.5,667.5,640.5" style="stroke:#181818;stroke-width:1.0;"/><line style="stroke:#181818;stroke-width:1.0;stroke-dasharray:2.0,2.0;" x1="665.5" x2="1585.5" y1="640.5" y2="640.5"/><text fill="#000000" font-family="sans-serif" font-size="20" lengthAdjust="spacing" textLength="40" x="677.5" y="634.1055">Role</text><polygon fill="#181818" points="1806.5,675.6563,1816.5,679.6563,1806.5,683.6563,1810.5,679.6563" style="stroke:#181818;stroke-width:1.0;"/><line style="stroke:#181818;stroke-width:1.0;" x1="660.5" x2="1812.5" y1="679.6563" y2="679.6563"/><text fill="#000000" font-family="sans-serif" font-size="20" lengthAdjust="spacing" textLength="137" x="667.5" y="673.2617">toDomain(Role)</text><polygon fill="#181818" points="671.5,714.8125,661.5,718.8125,671.5,722.8125,667.5,718.8125" style="stroke:#181818;stroke-width:1.0;"/><line style="stroke:#181818;stroke-width:1.0;stroke-dasharray:2.0,2.0;" x1="665.5" x2="1822.5" y1="718.8125" y2="718.8125"/><text fill="#000000" font-family="sans-serif" font-size="20" lengthAdjust="spacing" textLength="40" x="677.5" y="712.418">Role</text><path d="M20,733.8125 L88,733.8125 L88,750.9688 L78,760.9688 L20,760.9688 L20,733.8125 " fill="#EEEEEE" style="stroke:#000000;stroke-width:1.5;"/><rect fill="none" height="638.6563" style="stroke:#000000;stroke-width:1.5;" width="1444" x="20" y="733.8125"/><text fill="#000000" font-family="sans-serif" font-size="20" font-weight="bold" lengthAdjust="spacing" textLength="23" x="35" y="755.5742">alt</text><text fill="#000000" font-family="sans-serif" font-size="20" font-weight="bold" lengthAdjust="spacing" textLength="112" x="103" y="756.5742">[role existe]</text><line style="stroke:#181818;stroke-width:1.0;" x1="660.5" x2="702.5" y1="802.2813" y2="802.2813"/><line style="stroke:#181818;stroke-width:1.0;" x1="702.5" x2="702.5" y1="802.2813" y2="815.2813"/><line style="stroke:#181818;stroke-width:1.0;" x1="661.5" x2="702.5" y1="815.2813" y2="815.2813"/><polygon fill="#181818" points="671.5,811.2813,661.5,815.2813,671.5,819.2813,667.5,815.2813" style="stroke:#181818;stroke-width:1.0;"/><text fill="#000000" font-family="sans-serif" font-size="20" lengthAdjust="spacing" textLength="549" x="667.5" y="795.8867">user.Password = HashPassword(u.Password, GenerateSalt())</text><polygon fill="#181818" points="1375.5,850.4375,1385.5,854.4375,1375.5,858.4375,1379.5,854.4375" style="stroke:#181818;stroke-width:1.0;"/><line style="stroke:#181818;stroke-width:1.0;" x1="660.5" x2="1381.5" y1="854.4375" y2="854.4375"/><text fill="#000000" font-family="sans-serif" font-size="20" lengthAdjust="spacing" textLength="135" x="667.5" y="848.043">toDomain(user)</text><polygon fill="#181818" points="671.5,889.5938,661.5,893.5938,671.5,897.5938,667.5,893.5938" style="stroke:#181818;stroke-width:1.0;"/><line style="stroke:#181818;stroke-width:1.0;stroke-dasharray:2.0,2.0;" x1="665.5" x2="1391.5" y1="893.5938" y2="893.5938"/><text fill="#000000" font-family="sans-serif" font-size="20" lengthAdjust="spacing" textLength="41" x="677.5" y="887.1992">User</text><polygon fill="#181818" points="1211.5,928.75,1221.5,932.75,1211.5,936.75,1215.5,932.75" style="stroke:#181818;stroke-width:1.0;"/><line style="stroke:#181818;stroke-width:1.0;" x1="660.5" x2="1217.5" y1="932.75" y2="932.75"/><text fill="#000000" font-family="sans-serif" font-size="20" lengthAdjust="spacing" textLength="140" x="667.5" y="926.3555">AddAsync(user)</text><line style="stroke:#181818;stroke-width:1.0;" x1="1233.5" x2="1275.5" y1="971.9063" y2="971.9063"/><line style="stroke:#181818;stroke-width:1.0;" x1="1275.5" x2="1275.5" y1="971.9063" y2="984.9063"/><line style="stroke:#181818;stroke-width:1.0;" x1="1234.5" x2="1275.5" y1="984.9063" y2="984.9063"/><polygon fill="#181818" points="1244.5,980.9063,1234.5,984.9063,1244.5,988.9063,1240.5,984.9063" style="stroke:#181818;stroke-width:1.0;"/><text fill="#000000" font-family="sans-serif" font-size="20" lengthAdjust="spacing" textLength="140" x="1240.5" y="965.5117">AddAsync(user)</text><polygon fill="#181818" points="671.5,1020.0625,661.5,1024.0625,671.5,1028.0625,667.5,1024.0625" style="stroke:#181818;stroke-width:1.0;"/><line style="stroke:#181818;stroke-width:1.0;stroke-dasharray:2.0,2.0;" x1="665.5" x2="1227.5" y1="1024.0625" y2="1024.0625"/><text fill="#000000" font-family="sans-serif" font-size="20" lengthAdjust="spacing" textLength="41" x="677.5" y="1017.668">User</text><polygon fill="#181818" points="1375.5,1059.2188,1385.5,1063.2188,1375.5,1067.2188,1379.5,1063.2188" style="stroke:#181818;stroke-width:1.0;"/><line style="stroke:#181818;stroke-width:1.0;" x1="660.5" x2="1381.5" y1="1063.2188" y2="1063.2188"/><text fill="#000000" font-family="sans-serif" font-size="20" lengthAdjust="spacing" textLength="114" x="667.5" y="1056.8242">toDTO(User)</text><polygon fill="#181818" points="671.5,1098.375,661.5,1102.375,671.5,1106.375,667.5,1102.375" style="stroke:#181818;stroke-width:1.0;"/><line style="stroke:#181818;stroke-width:1.0;stroke-dasharray:2.0,2.0;" x1="665.5" x2="1391.5" y1="1102.375" y2="1102.375"/><text fill="#000000" font-family="sans-serif" font-size="20" lengthAdjust="spacing" textLength="83" x="677.5" y="1095.9805">UserDTO</text><polygon fill="#181818" points="436.5,1137.5313,426.5,1141.5313,436.5,1145.5313,432.5,1141.5313" style="stroke:#181818;stroke-width:1.0;"/><line style="stroke:#181818;stroke-width:1.0;stroke-dasharray:2.0,2.0;" x1="430.5" x2="654.5" y1="1141.5313" y2="1141.5313"/><text fill="#000000" font-family="sans-serif" font-size="20" lengthAdjust="spacing" textLength="83" x="442.5" y="1135.1367">UserDTO</text><polygon fill="#181818" points="261.5,1176.6875,251.5,1180.6875,261.5,1184.6875,257.5,1180.6875" style="stroke:#181818;stroke-width:1.0;"/><line style="stroke:#181818;stroke-width:1.0;stroke-dasharray:2.0,2.0;" x1="255.5" x2="419.5" y1="1180.6875" y2="1180.6875"/><text fill="#000000" font-family="sans-serif" font-size="20" lengthAdjust="spacing" textLength="141" x="267.5" y="1174.293">status code 201</text><polygon fill="#181818" points="72.5,1215.8438,62.5,1219.8438,72.5,1223.8438,68.5,1219.8438" style="stroke:#181818;stroke-width:1.0;"/><line style="stroke:#181818;stroke-width:1.0;stroke-dasharray:2.0,2.0;" x1="66.5" x2="244.5" y1="1219.8438" y2="1219.8438"/><text fill="#000000" font-family="sans-serif" font-size="20" lengthAdjust="spacing" textLength="72" x="78.5" y="1213.4492">sucesso</text><line style="stroke:#000000;stroke-width:1.0;stroke-dasharray:2.0,2.0;" x1="20" x2="1464" y1="1228.8438" y2="1228.8438"/><text fill="#000000" font-family="sans-serif" font-size="20" font-weight="bold" lengthAdjust="spacing" textLength="153" x="25" y="1249.6055">[role naõ existe]</text><polygon fill="#181818" points="431.5,1282.1563,421.5,1286.1563,431.5,1290.1563,427.5,1286.1563" style="stroke:#181818;stroke-width:1.0;"/><line style="stroke:#181818;stroke-width:1.0;" x1="425.5" x2="654.5" y1="1286.1563" y2="1286.1563"/><text fill="#000000" font-family="sans-serif" font-size="20" lengthAdjust="spacing" textLength="135" x="437.5" y="1279.7617">Role não existe</text><polygon fill="#181818" points="256.5,1321.3125,246.5,1325.3125,256.5,1329.3125,252.5,1325.3125" style="stroke:#181818;stroke-width:1.0;"/><line style="stroke:#181818;stroke-width:1.0;stroke-dasharray:2.0,2.0;" x1="250.5" x2="419.5" y1="1325.3125" y2="1325.3125"/><text fill="#000000" font-family="sans-serif" font-size="20" lengthAdjust="spacing" textLength="141" x="262.5" y="1318.918">status code 400</text><polygon fill="#181818" points="72.5,1360.4688,62.5,1364.4688,72.5,1368.4688,68.5,1364.4688" style="stroke:#181818;stroke-width:1.0;"/><line style="stroke:#181818;stroke-width:1.0;stroke-dasharray:2.0,2.0;" x1="66.5" x2="244.5" y1="1364.4688" y2="1364.4688"/><text fill="#000000" font-family="sans-serif" font-size="20" lengthAdjust="spacing" textLength="43" x="78.5" y="1358.0742">error</text><!--SRC=[dLHBRjim4Dth54HMDj3QRj2LWHPmatwy229OzW48SOemeKHXI3jDRbFq33s1BzOPofIfA8Q36f3CuRnvyo6Vt8Ek6ucoChPy02KK_9HRux_PsXVw6SJbB2EtrwLkPEr5aIzwziLDlXQBV7aXfEF_ldFZ0A-82QqnW05pvT4CGGNWJfSG40NkXe0LD3PuUJ5qtyYcEIIWPT__jPBQ15TOzPqhQw3ZHXmw4sQiiaoMNk-aXp08UiJxpzpsNEItnNeqbOsURgaUDnqVeJoMZ5uTLcxzdQYqKWOU9OA8JfxDN2oKMhYdkXmnKK8J9fVn-uYbqYhjdBQrwn565CtoD24FEgDN1sJ_bwSm9V59V0T_C0xHas2CQGZ6YutNHZzBPL70B-qyP89-1xQsk0Hol_-TmjhouZYSbtxhH6aLY8-pMK24YN1T-M8k0D5Y1iP1obdl_zX8cYP7dBUrBsFR4px8fHe7LDS-dJRRY6y8Ob2S4k-7JGKfLw-4QYwylROqhth4-9UfgvQrEiFQmjfOcZd927eT9ocx0vpaqhb7YugEy8TqTz6aZkBo7RLQ0rAAWcX7u_60ZMvzqa5xRoAaAu-L5ZTfVUo55Tbvaduuu6Kc5j_WYWvI1TN7NJREXhQWSnK5tbFDhsz7c__edEBUrlnHAAUZWaRZ_cdPNCu-l1RTVZAYewSfjot1EVjQ57-lU2i8BjovMkx_fleTI7qLK8aWpvSSbNv2xQ60McNyPFy0]--></g></svg>