<?xml version="1.0" encoding="UTF-8" standalone="no"?><svg xmlns="http://www.w3.org/2000/svg" xmlns:xlink="http://www.w3.org/1999/xlink" contentStyleType="text/css" height="1675px" preserveAspectRatio="none" style="width:2207px;height:1675px;background:#FFFFFF;" version="1.1" viewBox="0 0 2207 1675" width="2207px" zoomAndPan="magnify"><defs/><g><rect fill="#FFFFFF" height="1551.0938" style="stroke:#181818;stroke-width:1.0;" width="10" x="41.5" y="55.1563"/><rect fill="#FFFFFF" height="704.6563" style="stroke:#181818;stroke-width:1.0;" width="10" x="352.5" y="130.625"/><rect fill="#FFFFFF" height="704.6563" style="stroke:#181818;stroke-width:1.0;" width="10" x="352.5" y="901.5938"/><rect fill="#FFFFFF" height="574.1875" style="stroke:#181818;stroke-width:1.0;" width="10" x="716.5" y="221.9375"/><rect fill="#FFFFFF" height="574.1875" style="stroke:#181818;stroke-width:1.0;" width="10" x="716.5" y="992.9063"/><rect fill="#FFFFFF" height="391.5625" style="stroke:#181818;stroke-width:1.0;" width="10" x="1232.5" y="365.4063"/><rect fill="#FFFFFF" height="391.5625" style="stroke:#181818;stroke-width:1.0;" width="10" x="1232.5" y="1136.375"/><rect fill="#FFFFFF" height="39.1563" style="stroke:#181818;stroke-width:1.0;" width="10" x="1420.5" y="404.5625"/><rect fill="#FFFFFF" height="39.1563" style="stroke:#181818;stroke-width:1.0;" width="10" x="1523" y="1175.5313"/><rect fill="#FFFFFF" height="39.1563" style="stroke:#181818;stroke-width:1.0;" width="10" x="1632" y="600.3438"/><rect fill="#FFFFFF" height="39.1563" style="stroke:#181818;stroke-width:1.0;" width="10" x="1632" y="1371.3125"/><rect fill="#FFFFFF" height="78.3125" style="stroke:#181818;stroke-width:1.0;" width="10" x="1756.5" y="482.875"/><rect fill="#FFFFFF" height="39.1563" style="stroke:#181818;stroke-width:1.0;" width="10" x="1756.5" y="678.6563"/><rect fill="#FFFFFF" height="78.3125" style="stroke:#181818;stroke-width:1.0;" width="10" x="1756.5" y="1253.8438"/><rect fill="#FFFFFF" height="39.1563" style="stroke:#181818;stroke-width:1.0;" width="10" x="1756.5" y="1449.625"/><rect fill="none" height="1552.0938" style="stroke:#000000;stroke-width:1.5;" width="2190" x="10" y="62.1563"/><line style="stroke:#181818;stroke-width:0.5;stroke-dasharray:5.0,5.0;" x1="46" x2="46" y1="45.1563" y2="1631.25"/><line style="stroke:#181818;stroke-width:0.5;stroke-dasharray:5.0,5.0;" x1="357.5" x2="357.5" y1="45.1563" y2="1631.25"/><line style="stroke:#181818;stroke-width:0.5;stroke-dasharray:5.0,5.0;" x1="721.5" x2="721.5" y1="45.1563" y2="1631.25"/><line style="stroke:#181818;stroke-width:0.5;stroke-dasharray:5.0,5.0;" x1="1237.5" x2="1237.5" y1="45.1563" y2="1631.25"/><line style="stroke:#181818;stroke-width:0.5;stroke-dasharray:5.0,5.0;" x1="1425" x2="1425" y1="45.1563" y2="1631.25"/><line style="stroke:#181818;stroke-width:0.5;stroke-dasharray:5.0,5.0;" x1="1528" x2="1528" y1="45.1563" y2="1631.25"/><line style="stroke:#181818;stroke-width:0.5;stroke-dasharray:5.0,5.0;" x1="1637" x2="1637" y1="45.1563" y2="1631.25"/><line style="stroke:#181818;stroke-width:0.5;stroke-dasharray:5.0,5.0;" x1="1761" x2="1761" y1="45.1563" y2="1631.25"/><line style="stroke:#181818;stroke-width:0.5;stroke-dasharray:5.0,5.0;" x1="1914" x2="1914" y1="45.1563" y2="1631.25"/><line style="stroke:#181818;stroke-width:0.5;stroke-dasharray:5.0,5.0;" x1="2097" x2="2097" y1="45.1563" y2="1631.25"/><rect fill="#E2E2F0" height="39.1563" rx="2.5" ry="2.5" style="stroke:#181818;stroke-width:0.5;" width="53" x="20" y="5"/><text fill="#000000" font-family="sans-serif" font-size="20" lengthAdjust="spacing" textLength="39" x="27" y="32.7617">SPA</text><rect fill="#E2E2F0" height="39.1563" rx="2.5" ry="2.5" style="stroke:#181818;stroke-width:0.5;" width="53" x="20" y="1630.25"/><text fill="#000000" font-family="sans-serif" font-size="20" lengthAdjust="spacing" textLength="39" x="27" y="1658.0117">SPA</text><rect fill="#E2E2F0" height="39.1563" rx="2.5" ry="2.5" style="stroke:#181818;stroke-width:0.5;" width="94" x="310.5" y="5"/><text fill="#000000" font-family="sans-serif" font-size="20" lengthAdjust="spacing" textLength="80" x="317.5" y="32.7617">MPT API</text><rect fill="#E2E2F0" height="39.1563" rx="2.5" ry="2.5" style="stroke:#181818;stroke-width:0.5;" width="94" x="310.5" y="1630.25"/><text fill="#000000" font-family="sans-serif" font-size="20" lengthAdjust="spacing" textLength="80" x="317.5" y="1658.0117">MPT API</text><rect fill="#E2E2F0" height="39.1563" rx="2.5" ry="2.5" style="stroke:#181818;stroke-width:0.5;" width="142" x="650.5" y="5"/><text fill="#000000" font-family="sans-serif" font-size="20" lengthAdjust="spacing" textLength="128" x="657.5" y="32.7617">TaskController</text><rect fill="#E2E2F0" height="39.1563" rx="2.5" ry="2.5" style="stroke:#181818;stroke-width:0.5;" width="142" x="650.5" y="1630.25"/><text fill="#000000" font-family="sans-serif" font-size="20" lengthAdjust="spacing" textLength="128" x="657.5" y="1658.0117">TaskController</text><rect fill="#E2E2F0" height="39.1563" rx="2.5" ry="2.5" style="stroke:#181818;stroke-width:0.5;" width="122" x="1176.5" y="5"/><text fill="#000000" font-family="sans-serif" font-size="20" lengthAdjust="spacing" textLength="108" x="1183.5" y="32.7617">TaskService</text><rect fill="#E2E2F0" height="39.1563" rx="2.5" ry="2.5" style="stroke:#181818;stroke-width:0.5;" width="122" x="1176.5" y="1630.25"/><text fill="#000000" font-family="sans-serif" font-size="20" lengthAdjust="spacing" textLength="108" x="1183.5" y="1658.0117">TaskService</text><rect fill="#E2E2F0" height="39.1563" rx="2.5" ry="2.5" style="stroke:#181818;stroke-width:0.5;" width="91" x="1380" y="5"/><text fill="#000000" font-family="sans-serif" font-size="20" lengthAdjust="spacing" textLength="77" x="1387" y="32.7617">MGI API</text><rect fill="#E2E2F0" height="39.1563" rx="2.5" ry="2.5" style="stroke:#181818;stroke-width:0.5;" width="91" x="1380" y="1630.25"/><text fill="#000000" font-family="sans-serif" font-size="20" lengthAdjust="spacing" textLength="77" x="1387" y="1658.0117">MGI API</text><rect fill="#E2E2F0" height="39.1563" rx="2.5" ry="2.5" style="stroke:#181818;stroke-width:0.5;" width="94" x="1481" y="5"/><text fill="#000000" font-family="sans-serif" font-size="20" lengthAdjust="spacing" textLength="80" x="1488" y="32.7617">MPT API</text><rect fill="#E2E2F0" height="39.1563" rx="2.5" ry="2.5" style="stroke:#181818;stroke-width:0.5;" width="94" x="1481" y="1630.25"/><text fill="#000000" font-family="sans-serif" font-size="20" lengthAdjust="spacing" textLength="80" x="1488" y="1658.0117">MPT API</text><rect fill="#E2E2F0" height="39.1563" rx="2.5" ry="2.5" style="stroke:#181818;stroke-width:0.5;" width="104" x="1585" y="5"/><text fill="#000000" font-family="sans-serif" font-size="20" lengthAdjust="spacing" textLength="90" x="1592" y="32.7617">TaskRepo</text><rect fill="#E2E2F0" height="39.1563" rx="2.5" ry="2.5" style="stroke:#181818;stroke-width:0.5;" width="104" x="1585" y="1630.25"/><text fill="#000000" font-family="sans-serif" font-size="20" lengthAdjust="spacing" textLength="90" x="1592" y="1658.0117">TaskRepo</text><rect fill="#E2E2F0" height="39.1563" rx="2.5" ry="2.5" style="stroke:#181818;stroke-width:0.5;" width="125" x="1699" y="5"/><text fill="#000000" font-family="sans-serif" font-size="20" lengthAdjust="spacing" textLength="111" x="1706" y="32.7617">TaskMapper</text><rect fill="#E2E2F0" height="39.1563" rx="2.5" ry="2.5" style="stroke:#181818;stroke-width:0.5;" width="125" x="1699" y="1630.25"/><text fill="#000000" font-family="sans-serif" font-size="20" lengthAdjust="spacing" textLength="111" x="1706" y="1658.0117">TaskMapper</text><rect fill="#E2E2F0" height="39.1563" rx="2.5" ry="2.5" style="stroke:#181818;stroke-width:0.5;" width="161" x="1834" y="5"/><text fill="#000000" font-family="sans-serif" font-size="20" lengthAdjust="spacing" textLength="147" x="1841" y="32.7617">SurveillanceTask</text><rect fill="#E2E2F0" height="39.1563" rx="2.5" ry="2.5" style="stroke:#181818;stroke-width:0.5;" width="161" x="1834" y="1630.25"/><text fill="#000000" font-family="sans-serif" font-size="20" lengthAdjust="spacing" textLength="147" x="1841" y="1658.0117">SurveillanceTask</text><rect fill="#E2E2F0" height="39.1563" rx="2.5" ry="2.5" style="stroke:#181818;stroke-width:0.5;" width="185" x="2005" y="5"/><text fill="#000000" font-family="sans-serif" font-size="20" lengthAdjust="spacing" textLength="171" x="2012" y="32.7617">PickupDeliveryTask</text><rect fill="#E2E2F0" height="39.1563" rx="2.5" ry="2.5" style="stroke:#181818;stroke-width:0.5;" width="185" x="2005" y="1630.25"/><text fill="#000000" font-family="sans-serif" font-size="20" lengthAdjust="spacing" textLength="171" x="2012" y="1658.0117">PickupDeliveryTask</text><rect fill="#FFFFFF" height="1551.0938" style="stroke:#181818;stroke-width:1.0;" width="10" x="41.5" y="55.1563"/><rect fill="#FFFFFF" height="704.6563" style="stroke:#181818;stroke-width:1.0;" width="10" x="352.5" y="130.625"/><rect fill="#FFFFFF" height="704.6563" style="stroke:#181818;stroke-width:1.0;" width="10" x="352.5" y="901.5938"/><rect fill="#FFFFFF" height="574.1875" style="stroke:#181818;stroke-width:1.0;" width="10" x="716.5" y="221.9375"/><rect fill="#FFFFFF" height="574.1875" style="stroke:#181818;stroke-width:1.0;" width="10" x="716.5" y="992.9063"/><rect fill="#FFFFFF" height="391.5625" style="stroke:#181818;stroke-width:1.0;" width="10" x="1232.5" y="365.4063"/><rect fill="#FFFFFF" height="391.5625" style="stroke:#181818;stroke-width:1.0;" width="10" x="1232.5" y="1136.375"/><rect fill="#FFFFFF" height="39.1563" style="stroke:#181818;stroke-width:1.0;" width="10" x="1420.5" y="404.5625"/><rect fill="#FFFFFF" height="39.1563" style="stroke:#181818;stroke-width:1.0;" width="10" x="1523" y="1175.5313"/><rect fill="#FFFFFF" height="39.1563" style="stroke:#181818;stroke-width:1.0;" width="10" x="1632" y="600.3438"/><rect fill="#FFFFFF" height="39.1563" style="stroke:#181818;stroke-width:1.0;" width="10" x="1632" y="1371.3125"/><rect fill="#FFFFFF" height="78.3125" style="stroke:#181818;stroke-width:1.0;" width="10" x="1756.5" y="482.875"/><rect fill="#FFFFFF" height="39.1563" style="stroke:#181818;stroke-width:1.0;" width="10" x="1756.5" y="678.6563"/><rect fill="#FFFFFF" height="78.3125" style="stroke:#181818;stroke-width:1.0;" width="10" x="1756.5" y="1253.8438"/><rect fill="#FFFFFF" height="39.1563" style="stroke:#181818;stroke-width:1.0;" width="10" x="1756.5" y="1449.625"/><path d="M10,62.1563 L78,62.1563 L78,79.3125 L68,89.3125 L10,89.3125 L10,62.1563 " fill="#EEEEEE" style="stroke:#000000;stroke-width:1.5;"/><rect fill="none" height="1552.0938" style="stroke:#000000;stroke-width:1.5;" width="2190" x="10" y="62.1563"/><text fill="#000000" font-family="sans-serif" font-size="20" font-weight="bold" lengthAdjust="spacing" textLength="23" x="25" y="83.918">alt</text><text fill="#000000" font-family="sans-serif" font-size="20" font-weight="bold" lengthAdjust="spacing" textLength="127" x="93" y="84.918">[surveillance]</text><polygon fill="#181818" points="340.5,126.625,350.5,130.625,340.5,134.625,344.5,130.625" style="stroke:#181818;stroke-width:1.0;"/><line style="stroke:#181818;stroke-width:1.0;" x1="51.5" x2="346.5" y1="130.625" y2="130.625"/><text fill="#000000" font-family="sans-serif" font-size="20" lengthAdjust="spacing" textLength="260" x="58.5" y="124.2305">POST(/api/tasks/surveillance)</text><line style="stroke:#181818;stroke-width:1.0;" x1="362.5" x2="404.5" y1="169.7813" y2="169.7813"/><line style="stroke:#181818;stroke-width:1.0;" x1="404.5" x2="404.5" y1="169.7813" y2="182.7813"/><line style="stroke:#181818;stroke-width:1.0;" x1="363.5" x2="404.5" y1="182.7813" y2="182.7813"/><polygon fill="#181818" points="373.5,178.7813,363.5,182.7813,373.5,186.7813,369.5,182.7813" style="stroke:#181818;stroke-width:1.0;"/><text fill="#000000" font-family="sans-serif" font-size="20" lengthAdjust="spacing" textLength="144" x="369.5" y="163.3867">auth middleware</text><polygon fill="#181818" points="704.5,217.9375,714.5,221.9375,704.5,225.9375,708.5,221.9375" style="stroke:#181818;stroke-width:1.0;"/><line style="stroke:#181818;stroke-width:1.0;" x1="362.5" x2="710.5" y1="221.9375" y2="221.9375"/><text fill="#000000" font-family="sans-serif" font-size="20" lengthAdjust="spacing" textLength="311" x="369.5" y="215.543">CreateSurveillanceTaskAsync(task)</text><line style="stroke:#181818;stroke-width:1.0;" x1="726.5" x2="768.5" y1="261.0938" y2="261.0938"/><line style="stroke:#181818;stroke-width:1.0;" x1="768.5" x2="768.5" y1="261.0938" y2="274.0938"/><line style="stroke:#181818;stroke-width:1.0;" x1="727.5" x2="768.5" y1="274.0938" y2="274.0938"/><polygon fill="#181818" points="737.5,270.0938,727.5,274.0938,737.5,278.0938,733.5,274.0938" style="stroke:#181818;stroke-width:1.0;"/><text fill="#000000" font-family="sans-serif" font-size="20" lengthAdjust="spacing" textLength="211" x="733.5" y="254.6992">permissions middleware</text><line style="stroke:#181818;stroke-width:1.0;" x1="726.5" x2="768.5" y1="313.25" y2="313.25"/><line style="stroke:#181818;stroke-width:1.0;" x1="768.5" x2="768.5" y1="313.25" y2="326.25"/><line style="stroke:#181818;stroke-width:1.0;" x1="727.5" x2="768.5" y1="326.25" y2="326.25"/><polygon fill="#181818" points="737.5,322.25,727.5,326.25,737.5,330.25,733.5,326.25" style="stroke:#181818;stroke-width:1.0;"/><text fill="#000000" font-family="sans-serif" font-size="20" lengthAdjust="spacing" textLength="354" x="733.5" y="306.8555">currentUser = HttpContext.Items["user"];</text><polygon fill="#181818" points="1220.5,361.4063,1230.5,365.4063,1220.5,369.4063,1224.5,365.4063" style="stroke:#181818;stroke-width:1.0;"/><line style="stroke:#181818;stroke-width:1.0;" x1="726.5" x2="1226.5" y1="365.4063" y2="365.4063"/><text fill="#000000" font-family="sans-serif" font-size="20" lengthAdjust="spacing" textLength="487" x="733.5" y="359.0117">AddSurveillanceTaskAsync(task, currentUser.id, Token)</text><polygon fill="#181818" points="1408.5,400.5625,1418.5,404.5625,1408.5,408.5625,1412.5,404.5625" style="stroke:#181818;stroke-width:1.0;"/><line style="stroke:#181818;stroke-width:1.0;" x1="1242.5" x2="1414.5" y1="404.5625" y2="404.5625"/><text fill="#000000" font-family="sans-serif" font-size="20" lengthAdjust="spacing" textLength="159" x="1249.5" y="398.168">GET(/api/floor/:id)</text><polygon fill="#181818" points="1253.5,439.7188,1243.5,443.7188,1253.5,447.7188,1249.5,443.7188" style="stroke:#181818;stroke-width:1.0;"/><line style="stroke:#181818;stroke-width:1.0;stroke-dasharray:2.0,2.0;" x1="1247.5" x2="1424.5" y1="443.7188" y2="443.7188"/><text fill="#000000" font-family="sans-serif" font-size="20" lengthAdjust="spacing" textLength="39" x="1259.5" y="437.3242">floor</text><polygon fill="#181818" points="1744.5,478.875,1754.5,482.875,1744.5,486.875,1748.5,482.875" style="stroke:#181818;stroke-width:1.0;"/><line style="stroke:#181818;stroke-width:1.0;" x1="1242.5" x2="1750.5" y1="482.875" y2="482.875"/><text fill="#000000" font-family="sans-serif" font-size="20" lengthAdjust="spacing" textLength="362" x="1249.5" y="476.4805">ToSurveillanceDomain(task, userId, floor)</text><polygon fill="#181818" points="1902.5,518.0313,1912.5,522.0313,1902.5,526.0313,1906.5,522.0313" style="stroke:#181818;stroke-width:1.0;"/><line style="stroke:#181818;stroke-width:1.0;stroke-dasharray:2.0,2.0;" x1="1766.5" x2="1908.5" y1="522.0313" y2="522.0313"/><text fill="#000000" font-family="sans-serif" font-size="20" lengthAdjust="spacing" textLength="70" x="1773.5" y="515.6367">create()</text><polygon fill="#181818" points="1253.5,557.1875,1243.5,561.1875,1253.5,565.1875,1249.5,561.1875" style="stroke:#181818;stroke-width:1.0;"/><line style="stroke:#181818;stroke-width:1.0;stroke-dasharray:2.0,2.0;" x1="1247.5" x2="1760.5" y1="561.1875" y2="561.1875"/><text fill="#000000" font-family="sans-serif" font-size="20" lengthAdjust="spacing" textLength="147" x="1259.5" y="554.793">SurveillanceTask</text><polygon fill="#181818" points="1620,596.3438,1630,600.3438,1620,604.3438,1624,600.3438" style="stroke:#181818;stroke-width:1.0;"/><line style="stroke:#181818;stroke-width:1.0;" x1="1242.5" x2="1626" y1="600.3438" y2="600.3438"/><text fill="#000000" font-family="sans-serif" font-size="20" lengthAdjust="spacing" textLength="249" x="1249.5" y="593.9492">AddAsync(SurveillanceTask)</text><polygon fill="#181818" points="1253.5,635.5,1243.5,639.5,1253.5,643.5,1249.5,639.5" style="stroke:#181818;stroke-width:1.0;"/><line style="stroke:#181818;stroke-width:1.0;stroke-dasharray:2.0,2.0;" x1="1247.5" x2="1636" y1="639.5" y2="639.5"/><text fill="#000000" font-family="sans-serif" font-size="20" lengthAdjust="spacing" textLength="43" x="1259.5" y="633.1055">Task</text><polygon fill="#181818" points="1744.5,674.6563,1754.5,678.6563,1744.5,682.6563,1748.5,678.6563" style="stroke:#181818;stroke-width:1.0;"/><line style="stroke:#181818;stroke-width:1.0;" x1="1242.5" x2="1750.5" y1="678.6563" y2="678.6563"/><text fill="#000000" font-family="sans-serif" font-size="20" lengthAdjust="spacing" textLength="116" x="1249.5" y="672.2617">toDTO(Task)</text><polygon fill="#181818" points="1253.5,713.8125,1243.5,717.8125,1253.5,721.8125,1249.5,717.8125" style="stroke:#181818;stroke-width:1.0;"/><line style="stroke:#181818;stroke-width:1.0;stroke-dasharray:2.0,2.0;" x1="1247.5" x2="1760.5" y1="717.8125" y2="717.8125"/><text fill="#000000" font-family="sans-serif" font-size="20" lengthAdjust="spacing" textLength="85" x="1259.5" y="711.418">TaskDTO</text><polygon fill="#181818" points="737.5,752.9688,727.5,756.9688,737.5,760.9688,733.5,756.9688" style="stroke:#181818;stroke-width:1.0;"/><line style="stroke:#181818;stroke-width:1.0;stroke-dasharray:2.0,2.0;" x1="731.5" x2="1236.5" y1="756.9688" y2="756.9688"/><text fill="#000000" font-family="sans-serif" font-size="20" lengthAdjust="spacing" textLength="85" x="743.5" y="750.5742">TaskDTO</text><polygon fill="#181818" points="373.5,792.125,363.5,796.125,373.5,800.125,369.5,796.125" style="stroke:#181818;stroke-width:1.0;"/><line style="stroke:#181818;stroke-width:1.0;stroke-dasharray:2.0,2.0;" x1="367.5" x2="720.5" y1="796.125" y2="796.125"/><text fill="#000000" font-family="sans-serif" font-size="20" lengthAdjust="spacing" textLength="141" x="379.5" y="789.7305">status code 201</text><polygon fill="#181818" points="62.5,831.2813,52.5,835.2813,62.5,839.2813,58.5,835.2813" style="stroke:#181818;stroke-width:1.0;"/><line style="stroke:#181818;stroke-width:1.0;stroke-dasharray:2.0,2.0;" x1="56.5" x2="356.5" y1="835.2813" y2="835.2813"/><text fill="#000000" font-family="sans-serif" font-size="20" lengthAdjust="spacing" textLength="71" x="68.5" y="828.8867">success</text><line style="stroke:#000000;stroke-width:1.0;stroke-dasharray:2.0,2.0;" x1="10" x2="2200" y1="844.2813" y2="844.2813"/><text fill="#000000" font-family="sans-serif" font-size="20" font-weight="bold" lengthAdjust="spacing" textLength="151" x="15" y="865.043">[pickupdelivery]</text><polygon fill="#181818" points="340.5,897.5938,350.5,901.5938,340.5,905.5938,344.5,901.5938" style="stroke:#181818;stroke-width:1.0;"/><line style="stroke:#181818;stroke-width:1.0;" x1="51.5" x2="346.5" y1="901.5938" y2="901.5938"/><text fill="#000000" font-family="sans-serif" font-size="20" lengthAdjust="spacing" textLength="282" x="58.5" y="895.1992">POST(/api/tasks/pickupdelivery)</text><line style="stroke:#181818;stroke-width:1.0;" x1="362.5" x2="404.5" y1="940.75" y2="940.75"/><line style="stroke:#181818;stroke-width:1.0;" x1="404.5" x2="404.5" y1="940.75" y2="953.75"/><line style="stroke:#181818;stroke-width:1.0;" x1="363.5" x2="404.5" y1="953.75" y2="953.75"/><polygon fill="#181818" points="373.5,949.75,363.5,953.75,373.5,957.75,369.5,953.75" style="stroke:#181818;stroke-width:1.0;"/><text fill="#000000" font-family="sans-serif" font-size="20" lengthAdjust="spacing" textLength="144" x="369.5" y="934.3555">auth middleware</text><polygon fill="#181818" points="704.5,988.9063,714.5,992.9063,704.5,996.9063,708.5,992.9063" style="stroke:#181818;stroke-width:1.0;"/><line style="stroke:#181818;stroke-width:1.0;" x1="362.5" x2="710.5" y1="992.9063" y2="992.9063"/><text fill="#000000" font-family="sans-serif" font-size="20" lengthAdjust="spacing" textLength="335" x="369.5" y="986.5117">CreatePickupDeliveryTaskAsync(task)</text><line style="stroke:#181818;stroke-width:1.0;" x1="726.5" x2="768.5" y1="1032.0625" y2="1032.0625"/><line style="stroke:#181818;stroke-width:1.0;" x1="768.5" x2="768.5" y1="1032.0625" y2="1045.0625"/><line style="stroke:#181818;stroke-width:1.0;" x1="727.5" x2="768.5" y1="1045.0625" y2="1045.0625"/><polygon fill="#181818" points="737.5,1041.0625,727.5,1045.0625,737.5,1049.0625,733.5,1045.0625" style="stroke:#181818;stroke-width:1.0;"/><text fill="#000000" font-family="sans-serif" font-size="20" lengthAdjust="spacing" textLength="211" x="733.5" y="1025.668">permissions middleware</text><line style="stroke:#181818;stroke-width:1.0;" x1="726.5" x2="768.5" y1="1084.2188" y2="1084.2188"/><line style="stroke:#181818;stroke-width:1.0;" x1="768.5" x2="768.5" y1="1084.2188" y2="1097.2188"/><line style="stroke:#181818;stroke-width:1.0;" x1="727.5" x2="768.5" y1="1097.2188" y2="1097.2188"/><polygon fill="#181818" points="737.5,1093.2188,727.5,1097.2188,737.5,1101.2188,733.5,1097.2188" style="stroke:#181818;stroke-width:1.0;"/><text fill="#000000" font-family="sans-serif" font-size="20" lengthAdjust="spacing" textLength="354" x="733.5" y="1077.8242">currentUser = HttpContext.Items["user"];</text><polygon fill="#181818" points="1220.5,1132.375,1230.5,1136.375,1220.5,1140.375,1224.5,1136.375" style="stroke:#181818;stroke-width:1.0;"/><line style="stroke:#181818;stroke-width:1.0;" x1="726.5" x2="1226.5" y1="1136.375" y2="1136.375"/><text fill="#000000" font-family="sans-serif" font-size="20" lengthAdjust="spacing" textLength="445" x="733.5" y="1129.9805">AddPickupDeliveryTaskAsync(task, currentUser.id)</text><polygon fill="#181818" points="1511,1171.5313,1521,1175.5313,1511,1179.5313,1515,1175.5313" style="stroke:#181818;stroke-width:1.0;"/><line style="stroke:#181818;stroke-width:1.0;" x1="1242.5" x2="1517" y1="1175.5313" y2="1175.5313"/><text fill="#000000" font-family="sans-serif" font-size="20" lengthAdjust="spacing" textLength="138" x="1249.5" y="1169.1367">GET(/findPath/)</text><polygon fill="#181818" points="1253.5,1210.6875,1243.5,1214.6875,1253.5,1218.6875,1249.5,1214.6875" style="stroke:#181818;stroke-width:1.0;"/><line style="stroke:#181818;stroke-width:1.0;stroke-dasharray:2.0,2.0;" x1="1247.5" x2="1527" y1="1214.6875" y2="1214.6875"/><text fill="#000000" font-family="sans-serif" font-size="20" lengthAdjust="spacing" textLength="129" x="1259.5" y="1208.293">pathMovement</text><polygon fill="#181818" points="1744.5,1249.8438,1754.5,1253.8438,1744.5,1257.8438,1748.5,1253.8438" style="stroke:#181818;stroke-width:1.0;"/><line style="stroke:#181818;stroke-width:1.0;" x1="1242.5" x2="1750.5" y1="1253.8438" y2="1253.8438"/><text fill="#000000" font-family="sans-serif" font-size="20" lengthAdjust="spacing" textLength="476" x="1249.5" y="1247.4492">ToPickupDeliveryDomain(task, userId, pathMovement)</text><polygon fill="#181818" points="2085.5,1289,2095.5,1293,2085.5,1297,2089.5,1293" style="stroke:#181818;stroke-width:1.0;"/><line style="stroke:#181818;stroke-width:1.0;stroke-dasharray:2.0,2.0;" x1="1766.5" x2="2091.5" y1="1293" y2="1293"/><text fill="#000000" font-family="sans-serif" font-size="20" lengthAdjust="spacing" textLength="70" x="1773.5" y="1286.6055">create()</text><polygon fill="#181818" points="1253.5,1328.1563,1243.5,1332.1563,1253.5,1336.1563,1249.5,1332.1563" style="stroke:#181818;stroke-width:1.0;"/><line style="stroke:#181818;stroke-width:1.0;stroke-dasharray:2.0,2.0;" x1="1247.5" x2="1760.5" y1="1332.1563" y2="1332.1563"/><text fill="#000000" font-family="sans-serif" font-size="20" lengthAdjust="spacing" textLength="171" x="1259.5" y="1325.7617">PickupDeliveryTask</text><polygon fill="#181818" points="1620,1367.3125,1630,1371.3125,1620,1375.3125,1624,1371.3125" style="stroke:#181818;stroke-width:1.0;"/><line style="stroke:#181818;stroke-width:1.0;" x1="1242.5" x2="1626" y1="1371.3125" y2="1371.3125"/><text fill="#000000" font-family="sans-serif" font-size="20" lengthAdjust="spacing" textLength="273" x="1249.5" y="1364.918">AddAsync(PickupDeliveryTask)</text><polygon fill="#181818" points="1253.5,1406.4688,1243.5,1410.4688,1253.5,1414.4688,1249.5,1410.4688" style="stroke:#181818;stroke-width:1.0;"/><line style="stroke:#181818;stroke-width:1.0;stroke-dasharray:2.0,2.0;" x1="1247.5" x2="1636" y1="1410.4688" y2="1410.4688"/><text fill="#000000" font-family="sans-serif" font-size="20" lengthAdjust="spacing" textLength="43" x="1259.5" y="1404.0742">Task</text><polygon fill="#181818" points="1744.5,1445.625,1754.5,1449.625,1744.5,1453.625,1748.5,1449.625" style="stroke:#181818;stroke-width:1.0;"/><line style="stroke:#181818;stroke-width:1.0;" x1="1242.5" x2="1750.5" y1="1449.625" y2="1449.625"/><text fill="#000000" font-family="sans-serif" font-size="20" lengthAdjust="spacing" textLength="116" x="1249.5" y="1443.2305">toDTO(Task)</text><polygon fill="#181818" points="1253.5,1484.7813,1243.5,1488.7813,1253.5,1492.7813,1249.5,1488.7813" style="stroke:#181818;stroke-width:1.0;"/><line style="stroke:#181818;stroke-width:1.0;stroke-dasharray:2.0,2.0;" x1="1247.5" x2="1760.5" y1="1488.7813" y2="1488.7813"/><text fill="#000000" font-family="sans-serif" font-size="20" lengthAdjust="spacing" textLength="85" x="1259.5" y="1482.3867">TaskDTO</text><polygon fill="#181818" points="737.5,1523.9375,727.5,1527.9375,737.5,1531.9375,733.5,1527.9375" style="stroke:#181818;stroke-width:1.0;"/><line style="stroke:#181818;stroke-width:1.0;stroke-dasharray:2.0,2.0;" x1="731.5" x2="1236.5" y1="1527.9375" y2="1527.9375"/><text fill="#000000" font-family="sans-serif" font-size="20" lengthAdjust="spacing" textLength="85" x="743.5" y="1521.543">TaskDTO</text><polygon fill="#181818" points="373.5,1563.0938,363.5,1567.0938,373.5,1571.0938,369.5,1567.0938" style="stroke:#181818;stroke-width:1.0;"/><line style="stroke:#181818;stroke-width:1.0;stroke-dasharray:2.0,2.0;" x1="367.5" x2="720.5" y1="1567.0938" y2="1567.0938"/><text fill="#000000" font-family="sans-serif" font-size="20" lengthAdjust="spacing" textLength="141" x="379.5" y="1560.6992">status code 201</text><polygon fill="#181818" points="57.5,1602.25,47.5,1606.25,57.5,1610.25,53.5,1606.25" style="stroke:#181818;stroke-width:1.0;"/><line style="stroke:#181818;stroke-width:1.0;stroke-dasharray:2.0,2.0;" x1="51.5" x2="356.5" y1="1606.25" y2="1606.25"/><text fill="#000000" font-family="sans-serif" font-size="20" lengthAdjust="spacing" textLength="71" x="63.5" y="1599.8555">success</text><!--SRC=[xLLDZziW4BtxLw2SijBkfarkhbefIjfj3j5QTVPKzO1WeaN6O05sk_tr1U8a1hn9A_NGGtE13FFnU3CFwug91YjSSqage8Z27hVSV9B2bEmdeFcRp1uRHbY3XK5biGp-JxR53YsBpGHXxTRmS8TrjRAPbEGSbFTP6SLJfn9KnmXuZr9rKOc7pR34_2A0HPhy2pJI7xjDUhp5JTE3izlml6nL1unpB0WutmF0o1Y658nKRRC6pZfGBwUWr9nbc1ka1yaoP7-O6DPX0vvgPx0hkllWxfQZuh7SJMUuOJDZC-ZPCFec37VDy1QxESNZrZoZcb7AuJjMW8OEhZCvMYcmqV4Lb_f5aAch6LNnxVGcjpkdiOpMJ6icXKxgXPwaLGg4UTAWq7lqsPZ6JGpyCFSR0xN-EcdjoUJRko3KpaYEbfI-ZlDscFYUqLkqanM82BwRjGF9gkj9ckVeuMDFyfvBgMOveoctyoDrStHt1EJTlPr2w3kiOOSijs26qDUonapqkDrzDnQlpnOLTWFg37Ozb8tkR-dq_PlUX6uENJAs4L2NUuZJgSMJV20r3e-GUMqvYzkSYuuLygu98qQkTu_JaSp9dOzvhV_bEvncx1NlK_SFOtKKYJROj1eHITtpzpQEEe-y5uv3L2njL4i8Q3tI_Ym3hW4r_WMW_GkGNTLswFytrPs-HV-glYyXZHL-NTgBNjfx9cY1pVCi9NLnv6nndhN6kcvb1xMjDTBUnPYwG-2Z-XwclJBoAGsNX3xogVapgQS9_elzjyKUbxLVyGm4pNu1]--></g></svg>