<?xml version="1.0" encoding="UTF-8" standalone="no"?><svg xmlns="http://www.w3.org/2000/svg" xmlns:xlink="http://www.w3.org/1999/xlink" contentStyleType="text/css" height="1127px" preserveAspectRatio="none" style="width:1148px;height:1127px;background:#FFFFFF;" version="1.1" viewBox="0 0 1148 1127" width="1148px" zoomAndPan="magnify"><defs/><g><rect fill="#FFFFFF" height="1019.2188" style="stroke:#181818;stroke-width:1.0;" width="10" x="51.5" y="55.1563"/><rect fill="#FFFFFF" height="422.7188" style="stroke:#181818;stroke-width:1.0;" width="10" x="283.5" y="86.3125"/><rect fill="#FFFFFF" height="292.25" style="stroke:#181818;stroke-width:1.0;" width="10" x="451.5" y="177.625"/><rect fill="#FFFFFF" height="161.7813" style="stroke:#181818;stroke-width:1.0;" width="10" x="686.5" y="268.9375"/><rect fill="#FFFFFF" height="83.4688" style="stroke:#181818;stroke-width:1.0;" width="10" x="932.5" y="308.0938"/><rect fill="#FFFFFF" height="45.1563" style="stroke:#181818;stroke-width:1.0;" width="10" x="932.5" y="803.4375"/><rect fill="#FFFFFF" height="39.1563" style="stroke:#181818;stroke-width:1.0;" width="10" x="1055" y="894.75"/><rect fill="none" height="743.2813" style="stroke:#000000;stroke-width:1.5;" width="1131.5" x="10" y="323.0938"/><rect fill="none" height="508.1875" style="stroke:#000000;stroke-width:1.5;" width="1111.5" x="20" y="551.1875"/><line style="stroke:#181818;stroke-width:0.5;stroke-dasharray:5.0,5.0;" x1="56" x2="56" y1="45.1563" y2="1083.375"/><line style="stroke:#181818;stroke-width:0.5;stroke-dasharray:5.0,5.0;" x1="288.5" x2="288.5" y1="45.1563" y2="1083.375"/><line style="stroke:#181818;stroke-width:0.5;stroke-dasharray:5.0,5.0;" x1="456.5" x2="456.5" y1="45.1563" y2="1083.375"/><line style="stroke:#181818;stroke-width:0.5;stroke-dasharray:5.0,5.0;" x1="691.5" x2="691.5" y1="45.1563" y2="1083.375"/><line style="stroke:#181818;stroke-width:0.5;stroke-dasharray:5.0,5.0;" x1="937.5" x2="937.5" y1="45.1563" y2="1083.375"/><line style="stroke:#181818;stroke-width:0.5;stroke-dasharray:5.0,5.0;" x1="1059.5" x2="1059.5" y1="45.1563" y2="1083.375"/><rect fill="#E2E2F0" height="39.1563" rx="2.5" ry="2.5" style="stroke:#181818;stroke-width:0.5;" width="53" x="30" y="5"/><text fill="#000000" font-family="sans-serif" font-size="20" lengthAdjust="spacing" textLength="39" x="37" y="32.7617">SPA</text><rect fill="#E2E2F0" height="39.1563" rx="2.5" ry="2.5" style="stroke:#181818;stroke-width:0.5;" width="53" x="30" y="1082.375"/><text fill="#000000" font-family="sans-serif" font-size="20" lengthAdjust="spacing" textLength="39" x="37" y="1110.1367">SPA</text><rect fill="#E2E2F0" height="39.1563" rx="2.5" ry="2.5" style="stroke:#181818;stroke-width:0.5;" width="94" x="241.5" y="5"/><text fill="#000000" font-family="sans-serif" font-size="20" lengthAdjust="spacing" textLength="80" x="248.5" y="32.7617">MPT API</text><rect fill="#E2E2F0" height="39.1563" rx="2.5" ry="2.5" style="stroke:#181818;stroke-width:0.5;" width="94" x="241.5" y="1082.375"/><text fill="#000000" font-family="sans-serif" font-size="20" lengthAdjust="spacing" textLength="80" x="248.5" y="1110.1367">MPT API</text><rect fill="#E2E2F0" height="39.1563" rx="2.5" ry="2.5" style="stroke:#181818;stroke-width:0.5;" width="140" x="386.5" y="5"/><text fill="#000000" font-family="sans-serif" font-size="20" lengthAdjust="spacing" textLength="126" x="393.5" y="32.7617">UserController</text><rect fill="#E2E2F0" height="39.1563" rx="2.5" ry="2.5" style="stroke:#181818;stroke-width:0.5;" width="140" x="386.5" y="1082.375"/><text fill="#000000" font-family="sans-serif" font-size="20" lengthAdjust="spacing" textLength="126" x="393.5" y="1110.1367">UserController</text><rect fill="#E2E2F0" height="39.1563" rx="2.5" ry="2.5" style="stroke:#181818;stroke-width:0.5;" width="120" x="631.5" y="5"/><text fill="#000000" font-family="sans-serif" font-size="20" lengthAdjust="spacing" textLength="106" x="638.5" y="32.7617">UserService</text><rect fill="#E2E2F0" height="39.1563" rx="2.5" ry="2.5" style="stroke:#181818;stroke-width:0.5;" width="120" x="631.5" y="1082.375"/><text fill="#000000" font-family="sans-serif" font-size="20" lengthAdjust="spacing" textLength="106" x="638.5" y="1110.1367">UserService</text><rect fill="#E2E2F0" height="39.1563" rx="2.5" ry="2.5" style="stroke:#181818;stroke-width:0.5;" width="102" x="886.5" y="5"/><text fill="#000000" font-family="sans-serif" font-size="20" lengthAdjust="spacing" textLength="88" x="893.5" y="32.7617">UserRepo</text><rect fill="#E2E2F0" height="39.1563" rx="2.5" ry="2.5" style="stroke:#181818;stroke-width:0.5;" width="102" x="886.5" y="1082.375"/><text fill="#000000" font-family="sans-serif" font-size="20" lengthAdjust="spacing" textLength="88" x="893.5" y="1110.1367">UserRepo</text><rect fill="#E2E2F0" height="39.1563" rx="2.5" ry="2.5" style="stroke:#181818;stroke-width:0.5;" width="123" x="998.5" y="5"/><text fill="#000000" font-family="sans-serif" font-size="20" lengthAdjust="spacing" textLength="109" x="1005.5" y="32.7617">UserMapper</text><rect fill="#E2E2F0" height="39.1563" rx="2.5" ry="2.5" style="stroke:#181818;stroke-width:0.5;" width="123" x="998.5" y="1082.375"/><text fill="#000000" font-family="sans-serif" font-size="20" lengthAdjust="spacing" textLength="109" x="1005.5" y="1110.1367">UserMapper</text><rect fill="#FFFFFF" height="1019.2188" style="stroke:#181818;stroke-width:1.0;" width="10" x="51.5" y="55.1563"/><rect fill="#FFFFFF" height="422.7188" style="stroke:#181818;stroke-width:1.0;" width="10" x="283.5" y="86.3125"/><rect fill="#FFFFFF" height="292.25" style="stroke:#181818;stroke-width:1.0;" width="10" x="451.5" y="177.625"/><rect fill="#FFFFFF" height="161.7813" style="stroke:#181818;stroke-width:1.0;" width="10" x="686.5" y="268.9375"/><rect fill="#FFFFFF" height="83.4688" style="stroke:#181818;stroke-width:1.0;" width="10" x="932.5" y="308.0938"/><rect fill="#FFFFFF" height="45.1563" style="stroke:#181818;stroke-width:1.0;" width="10" x="932.5" y="803.4375"/><rect fill="#FFFFFF" height="39.1563" style="stroke:#181818;stroke-width:1.0;" width="10" x="1055" y="894.75"/><polygon fill="#181818" points="271.5,82.3125,281.5,86.3125,271.5,90.3125,275.5,86.3125" style="stroke:#181818;stroke-width:1.0;"/><line style="stroke:#181818;stroke-width:1.0;" x1="61.5" x2="277.5" y1="86.3125" y2="86.3125"/><text fill="#000000" font-family="sans-serif" font-size="20" lengthAdjust="spacing" textLength="203" x="68.5" y="79.918">DELETE(/api/users/:id)</text><line style="stroke:#181818;stroke-width:1.0;" x1="293.5" x2="335.5" y1="125.4688" y2="125.4688"/><line style="stroke:#181818;stroke-width:1.0;" x1="335.5" x2="335.5" y1="125.4688" y2="138.4688"/><line style="stroke:#181818;stroke-width:1.0;" x1="294.5" x2="335.5" y1="138.4688" y2="138.4688"/><polygon fill="#181818" points="304.5,134.4688,294.5,138.4688,304.5,142.4688,300.5,138.4688" style="stroke:#181818;stroke-width:1.0;"/><text fill="#000000" font-family="sans-serif" font-size="20" lengthAdjust="spacing" textLength="144" x="300.5" y="119.0742">auth middleware</text><polygon fill="#181818" points="439.5,173.625,449.5,177.625,439.5,181.625,443.5,177.625" style="stroke:#181818;stroke-width:1.0;"/><line style="stroke:#181818;stroke-width:1.0;" x1="293.5" x2="445.5" y1="177.625" y2="177.625"/><text fill="#000000" font-family="sans-serif" font-size="20" lengthAdjust="spacing" textLength="86" x="300.5" y="171.2305">Delete(id)</text><line style="stroke:#181818;stroke-width:1.0;" x1="461.5" x2="503.5" y1="216.7813" y2="216.7813"/><line style="stroke:#181818;stroke-width:1.0;" x1="503.5" x2="503.5" y1="216.7813" y2="229.7813"/><line style="stroke:#181818;stroke-width:1.0;" x1="462.5" x2="503.5" y1="229.7813" y2="229.7813"/><polygon fill="#181818" points="472.5,225.7813,462.5,229.7813,472.5,233.7813,468.5,229.7813" style="stroke:#181818;stroke-width:1.0;"/><text fill="#000000" font-family="sans-serif" font-size="20" lengthAdjust="spacing" textLength="211" x="468.5" y="210.3867">permissions middleware</text><polygon fill="#181818" points="674.5,264.9375,684.5,268.9375,674.5,272.9375,678.5,268.9375" style="stroke:#181818;stroke-width:1.0;"/><line style="stroke:#181818;stroke-width:1.0;" x1="461.5" x2="680.5" y1="268.9375" y2="268.9375"/><text fill="#000000" font-family="sans-serif" font-size="20" lengthAdjust="spacing" textLength="139" x="468.5" y="262.543">DeleteAsync(id)</text><polygon fill="#181818" points="920.5,304.0938,930.5,308.0938,920.5,312.0938,924.5,308.0938" style="stroke:#181818;stroke-width:1.0;"/><line style="stroke:#181818;stroke-width:1.0;" x1="696.5" x2="926.5" y1="308.0938" y2="308.0938"/><text fill="#000000" font-family="sans-serif" font-size="20" lengthAdjust="spacing" textLength="217" x="703.5" y="301.6992">user = GetByIdAsync(id)</text><path d="M10,323.0938 L78,323.0938 L78,340.25 L68,350.25 L10,350.25 L10,323.0938 " fill="#EEEEEE" style="stroke:#000000;stroke-width:1.5;"/><rect fill="none" height="743.2813" style="stroke:#000000;stroke-width:1.5;" width="1131.5" x="10" y="323.0938"/><text fill="#000000" font-family="sans-serif" font-size="20" font-weight="bold" lengthAdjust="spacing" textLength="23" x="25" y="344.8555">alt</text><text fill="#000000" font-family="sans-serif" font-size="20" font-weight="bold" lengthAdjust="spacing" textLength="154" x="93" y="345.8555">[user not found]</text><polygon fill="#181818" points="707.5,387.5625,697.5,391.5625,707.5,395.5625,703.5,391.5625" style="stroke:#181818;stroke-width:1.0;"/><line style="stroke:#181818;stroke-width:1.0;" x1="701.5" x2="936.5" y1="391.5625" y2="391.5625"/><text fill="#000000" font-family="sans-serif" font-size="20" lengthAdjust="spacing" textLength="85" x="713.5" y="385.168">return null</text><polygon fill="#181818" points="472.5,426.7188,462.5,430.7188,472.5,434.7188,468.5,430.7188" style="stroke:#181818;stroke-width:1.0;"/><line style="stroke:#181818;stroke-width:1.0;" x1="466.5" x2="690.5" y1="430.7188" y2="430.7188"/><text fill="#000000" font-family="sans-serif" font-size="20" lengthAdjust="spacing" textLength="90" x="478.5" y="424.3242">return 404</text><polygon fill="#181818" points="304.5,465.875,294.5,469.875,304.5,473.875,300.5,469.875" style="stroke:#181818;stroke-width:1.0;"/><line style="stroke:#181818;stroke-width:1.0;" x1="298.5" x2="455.5" y1="469.875" y2="469.875"/><text fill="#000000" font-family="sans-serif" font-size="20" lengthAdjust="spacing" textLength="90" x="310.5" y="463.4805">return 404</text><polygon fill="#181818" points="72.5,505.0313,62.5,509.0313,72.5,513.0313,68.5,509.0313" style="stroke:#181818;stroke-width:1.0;"/><line style="stroke:#181818;stroke-width:1.0;" x1="66.5" x2="287.5" y1="509.0313" y2="509.0313"/><text fill="#000000" font-family="sans-serif" font-size="20" lengthAdjust="spacing" textLength="90" x="78.5" y="502.6367">return 404</text><line style="stroke:#000000;stroke-width:1.0;stroke-dasharray:2.0,2.0;" x1="10" x2="1141.5" y1="518.0313" y2="518.0313"/><text fill="#000000" font-family="sans-serif" font-size="20" font-weight="bold" lengthAdjust="spacing" textLength="117" x="15" y="538.793">[user found]</text><path d="M20,551.1875 L88,551.1875 L88,568.3438 L78,578.3438 L20,578.3438 L20,551.1875 " fill="#EEEEEE" style="stroke:#000000;stroke-width:1.5;"/><rect fill="none" height="508.1875" style="stroke:#000000;stroke-width:1.5;" width="1111.5" x="20" y="551.1875"/><text fill="#000000" font-family="sans-serif" font-size="20" font-weight="bold" lengthAdjust="spacing" textLength="23" x="35" y="572.9492">alt</text><text fill="#000000" font-family="sans-serif" font-size="20" font-weight="bold" lengthAdjust="spacing" textLength="118" x="103" y="573.9492">[user active]</text><polygon fill="#181818" points="702.5,615.6563,692.5,619.6563,702.5,623.6563,698.5,619.6563" style="stroke:#181818;stroke-width:1.0;"/><line style="stroke:#181818;stroke-width:1.0;" x1="696.5" x2="936.5" y1="619.6563" y2="619.6563"/><text fill="#000000" font-family="sans-serif" font-size="20" lengthAdjust="spacing" textLength="100" x="708.5" y="613.2617">return error</text><polygon fill="#181818" points="467.5,654.8125,457.5,658.8125,467.5,662.8125,463.5,658.8125" style="stroke:#181818;stroke-width:1.0;"/><line style="stroke:#181818;stroke-width:1.0;" x1="461.5" x2="690.5" y1="658.8125" y2="658.8125"/><text fill="#000000" font-family="sans-serif" font-size="20" lengthAdjust="spacing" textLength="90" x="473.5" y="652.418">return 403</text><polygon fill="#181818" points="299.5,693.9688,289.5,697.9688,299.5,701.9688,295.5,697.9688" style="stroke:#181818;stroke-width:1.0;"/><line style="stroke:#181818;stroke-width:1.0;" x1="293.5" x2="455.5" y1="697.9688" y2="697.9688"/><text fill="#000000" font-family="sans-serif" font-size="20" lengthAdjust="spacing" textLength="90" x="305.5" y="691.5742">return 403</text><polygon fill="#181818" points="72.5,733.125,62.5,737.125,72.5,741.125,68.5,737.125" style="stroke:#181818;stroke-width:1.0;"/><line style="stroke:#181818;stroke-width:1.0;" x1="66.5" x2="287.5" y1="737.125" y2="737.125"/><text fill="#000000" font-family="sans-serif" font-size="20" lengthAdjust="spacing" textLength="90" x="78.5" y="730.7305">return 403</text><line style="stroke:#000000;stroke-width:1.0;stroke-dasharray:2.0,2.0;" x1="20" x2="1131.5" y1="746.125" y2="746.125"/><text fill="#000000" font-family="sans-serif" font-size="20" font-weight="bold" lengthAdjust="spacing" textLength="135" x="25" y="766.8867">[user inactive]</text><polygon fill="#181818" points="920.5,799.4375,930.5,803.4375,920.5,807.4375,924.5,803.4375" style="stroke:#181818;stroke-width:1.0;"/><line style="stroke:#181818;stroke-width:1.0;" x1="691.5" x2="926.5" y1="803.4375" y2="803.4375"/><text fill="#000000" font-family="sans-serif" font-size="20" lengthAdjust="spacing" textLength="124" x="698.5" y="797.043">Remove(user)</text><line style="stroke:#181818;stroke-width:1.0;" x1="691.5" x2="733.5" y1="847.5938" y2="847.5938"/><line style="stroke:#181818;stroke-width:1.0;" x1="733.5" x2="733.5" y1="847.5938" y2="860.5938"/><line style="stroke:#181818;stroke-width:1.0;" x1="686.5" x2="733.5" y1="860.5938" y2="860.5938"/><polygon fill="#181818" points="696.5,856.5938,686.5,860.5938,696.5,864.5938,692.5,860.5938" style="stroke:#181818;stroke-width:1.0;"/><text fill="#000000" font-family="sans-serif" font-size="20" lengthAdjust="spacing" textLength="134" x="698.5" y="841.1992">CommitAsync()</text><polygon fill="#181818" points="1043,890.75,1053,894.75,1043,898.75,1047,894.75" style="stroke:#181818;stroke-width:1.0;"/><line style="stroke:#181818;stroke-width:1.0;" x1="691.5" x2="1049" y1="894.75" y2="894.75"/><text fill="#000000" font-family="sans-serif" font-size="20" lengthAdjust="spacing" textLength="91" x="698.5" y="888.3555">Map(user)</text><polygon fill="#181818" points="702.5,929.9063,692.5,933.9063,702.5,937.9063,698.5,933.9063" style="stroke:#181818;stroke-width:1.0;"/><line style="stroke:#181818;stroke-width:1.0;" x1="696.5" x2="1059" y1="933.9063" y2="933.9063"/><text fill="#000000" font-family="sans-serif" font-size="20" lengthAdjust="spacing" textLength="69" x="708.5" y="927.5117">userDto</text><polygon fill="#181818" points="467.5,969.0625,457.5,973.0625,467.5,977.0625,463.5,973.0625" style="stroke:#181818;stroke-width:1.0;"/><line style="stroke:#181818;stroke-width:1.0;" x1="461.5" x2="690.5" y1="973.0625" y2="973.0625"/><text fill="#000000" font-family="sans-serif" font-size="20" lengthAdjust="spacing" textLength="90" x="473.5" y="966.668">return 200</text><polygon fill="#181818" points="299.5,1008.2188,289.5,1012.2188,299.5,1016.2188,295.5,1012.2188" style="stroke:#181818;stroke-width:1.0;"/><line style="stroke:#181818;stroke-width:1.0;" x1="293.5" x2="455.5" y1="1012.2188" y2="1012.2188"/><text fill="#000000" font-family="sans-serif" font-size="20" lengthAdjust="spacing" textLength="90" x="305.5" y="1005.8242">return 200</text><polygon fill="#181818" points="72.5,1047.375,62.5,1051.375,72.5,1055.375,68.5,1051.375" style="stroke:#181818;stroke-width:1.0;"/><line style="stroke:#181818;stroke-width:1.0;" x1="66.5" x2="287.5" y1="1051.375" y2="1051.375"/><text fill="#000000" font-family="sans-serif" font-size="20" lengthAdjust="spacing" textLength="90" x="78.5" y="1044.9805">return 200</text><!--SRC=[dLFRQW8n47tFLmIVzA6uM9yMMh1gYr11NFi1ONUamMoo9DajzkkRoLxiwiP21SSuS-PopYJcn6N1DCk5Ia-GqGoEh1JsLKcRy6-WiuYuiEKfBvYqDDajUlz7szs1BdQR4MK6V_l13mDwwIff9GHeZrbQBMv12UYAf-0HYQvk0Nieb8_YuJQyPKNHD717GWXBBQ-O1J-m-zA7Pnmlfglr-_gm7azPmQUbopJJc6UJ2nuv46Uw15RQJvhpB1FmnJJGDeX4N3aGO67SA-4f4hGNd9ikvyPm9KslM8jofDjY2tEMQRyYIaASGIGA45CSdJxHDx0lvqqsaE9r8apO6YgLfKTLoemGwZuOxTfgiAMML9P2-606_IheQvhNP9g4UJI_nkEWw6ffUGN3SAyK-XfDtQBkmN4tw28W3DIyVd7gk7eyU5-8AsYjT8SO8Xmc_JYKrn8FanzCwmG8YZ2OvYyf-Yv2S7b5ktTTzf2h2iQ8d7I8kwIzMakLvzpMjsiIbEiwrRt064se7RxGrkdENJU4hwmQwkCVzRsrpABeFsi9fFsrba3QPIru9xtv0G00]--></g></svg>