<?xml version="1.0" encoding="UTF-8" standalone="no"?><svg xmlns="http://www.w3.org/2000/svg" xmlns:xlink="http://www.w3.org/1999/xlink" contentStyleType="text/css" height="2216px" preserveAspectRatio="none" style="width:1854px;height:2216px;background:#FFFFFF;" version="1.1" viewBox="0 0 1854 2216" width="1854px" zoomAndPan="magnify"><defs/><g><rect fill="#FFFFFF" height="2108.4375" style="stroke:#181818;stroke-width:1.0;" width="10" x="61.5" y="55.1563"/><rect fill="#FFFFFF" height="963.75" style="stroke:#181818;stroke-width:1.0;" width="10" x="266.5" y="86.3125"/><rect fill="#FFFFFF" height="404.5625" style="stroke:#181818;stroke-width:1.0;" width="10" x="493.5" y="177.625"/><rect fill="#FFFFFF" height="266.0938" style="stroke:#181818;stroke-width:1.0;" width="10" x="493.5" y="744.8125"/><rect fill="#FFFFFF" height="274.0938" style="stroke:#181818;stroke-width:1.0;" width="10" x="1049.5" y="268.9375"/><rect fill="#FFFFFF" height="135.625" style="stroke:#181818;stroke-width:1.0;" width="10" x="1049.5" y="836.125"/><rect fill="#FFFFFF" height="575.1875" style="stroke:#181818;stroke-width:1.0;" width="10" x="1049.5" y="1480.0938"/><rect fill="#FFFFFF" height="39.1563" style="stroke:#181818;stroke-width:1.0;" width="10" x="1539" y="464.7188"/><rect fill="#FFFFFF" height="39.1563" style="stroke:#181818;stroke-width:1.0;" width="10" x="1539" y="1976.9688"/><rect fill="#FFFFFF" height="39.1563" style="stroke:#181818;stroke-width:1.0;" width="10" x="1782.5" y="386.4063"/><rect fill="none" height="1252.3125" style="stroke:#000000;stroke-width:1.5;" width="1625.5" x="10" y="903.2813"/><rect fill="none" height="1056.375" style="stroke:#000000;stroke-width:1.5;" width="1605.5" x="20" y="1092.2188"/><rect fill="none" height="808.2813" style="stroke:#000000;stroke-width:1.5;" width="1585.5" x="30" y="1333.3125"/><rect fill="none" height="168.7813" style="stroke:#000000;stroke-width:1.5;" width="437" x="984.5" y="1730.875"/><line style="stroke:#181818;stroke-width:0.5;stroke-dasharray:5.0,5.0;" x1="66" x2="66" y1="45.1563" y2="2172.5938"/><line style="stroke:#181818;stroke-width:0.5;stroke-dasharray:5.0,5.0;" x1="271.5" x2="271.5" y1="45.1563" y2="2172.5938"/><line style="stroke:#181818;stroke-width:0.5;stroke-dasharray:5.0,5.0;" x1="498.5" x2="498.5" y1="45.1563" y2="2172.5938"/><line style="stroke:#181818;stroke-width:0.5;stroke-dasharray:5.0,5.0;" x1="1054.5" x2="1054.5" y1="45.1563" y2="2172.5938"/><line style="stroke:#181818;stroke-width:0.5;stroke-dasharray:5.0,5.0;" x1="1421.5" x2="1421.5" y1="45.1563" y2="2172.5938"/><line style="stroke:#181818;stroke-width:0.5;stroke-dasharray:5.0,5.0;" x1="1543.5" x2="1543.5" y1="45.1563" y2="2172.5938"/><line style="stroke:#181818;stroke-width:0.5;stroke-dasharray:5.0,5.0;" x1="1665.5" x2="1665.5" y1="45.1563" y2="2172.5938"/><line style="stroke:#181818;stroke-width:0.5;stroke-dasharray:5.0,5.0;" x1="1787.5" x2="1787.5" y1="45.1563" y2="2172.5938"/><rect fill="#E2E2F0" height="39.1563" rx="2.5" ry="2.5" style="stroke:#181818;stroke-width:0.5;" width="53" x="40" y="5"/><text fill="#000000" font-family="sans-serif" font-size="20" lengthAdjust="spacing" textLength="39" x="47" y="32.7617">SPA</text><rect fill="#E2E2F0" height="39.1563" rx="2.5" ry="2.5" style="stroke:#181818;stroke-width:0.5;" width="53" x="40" y="2171.5938"/><text fill="#000000" font-family="sans-serif" font-size="20" lengthAdjust="spacing" textLength="39" x="47" y="2199.3555">SPA</text><rect fill="#E2E2F0" height="39.1563" rx="2.5" ry="2.5" style="stroke:#181818;stroke-width:0.5;" width="94" x="224.5" y="5"/><text fill="#000000" font-family="sans-serif" font-size="20" lengthAdjust="spacing" textLength="80" x="231.5" y="32.7617">MPT API</text><rect fill="#E2E2F0" height="39.1563" rx="2.5" ry="2.5" style="stroke:#181818;stroke-width:0.5;" width="94" x="224.5" y="2171.5938"/><text fill="#000000" font-family="sans-serif" font-size="20" lengthAdjust="spacing" textLength="80" x="231.5" y="2199.3555">MPT API</text><rect fill="#E2E2F0" height="39.1563" rx="2.5" ry="2.5" style="stroke:#181818;stroke-width:0.5;" width="140" x="428.5" y="5"/><text fill="#000000" font-family="sans-serif" font-size="20" lengthAdjust="spacing" textLength="126" x="435.5" y="32.7617">UserController</text><rect fill="#E2E2F0" height="39.1563" rx="2.5" ry="2.5" style="stroke:#181818;stroke-width:0.5;" width="140" x="428.5" y="2171.5938"/><text fill="#000000" font-family="sans-serif" font-size="20" lengthAdjust="spacing" textLength="126" x="435.5" y="2199.3555">UserController</text><rect fill="#E2E2F0" height="39.1563" rx="2.5" ry="2.5" style="stroke:#181818;stroke-width:0.5;" width="120" x="994.5" y="5"/><text fill="#000000" font-family="sans-serif" font-size="20" lengthAdjust="spacing" textLength="106" x="1001.5" y="32.7617">UserService</text><rect fill="#E2E2F0" height="39.1563" rx="2.5" ry="2.5" style="stroke:#181818;stroke-width:0.5;" width="120" x="994.5" y="2171.5938"/><text fill="#000000" font-family="sans-serif" font-size="20" lengthAdjust="spacing" textLength="106" x="1001.5" y="2199.3555">UserService</text><rect fill="#E2E2F0" height="39.1563" rx="2.5" ry="2.5" style="stroke:#181818;stroke-width:0.5;" width="102" x="1370.5" y="5"/><text fill="#000000" font-family="sans-serif" font-size="20" lengthAdjust="spacing" textLength="88" x="1377.5" y="32.7617">UserRepo</text><rect fill="#E2E2F0" height="39.1563" rx="2.5" ry="2.5" style="stroke:#181818;stroke-width:0.5;" width="102" x="1370.5" y="2171.5938"/><text fill="#000000" font-family="sans-serif" font-size="20" lengthAdjust="spacing" textLength="88" x="1377.5" y="2199.3555">UserRepo</text><rect fill="#E2E2F0" height="39.1563" rx="2.5" ry="2.5" style="stroke:#181818;stroke-width:0.5;" width="123" x="1482.5" y="5"/><text fill="#000000" font-family="sans-serif" font-size="20" lengthAdjust="spacing" textLength="109" x="1489.5" y="32.7617">UserMapper</text><rect fill="#E2E2F0" height="39.1563" rx="2.5" ry="2.5" style="stroke:#181818;stroke-width:0.5;" width="123" x="1482.5" y="2171.5938"/><text fill="#000000" font-family="sans-serif" font-size="20" lengthAdjust="spacing" textLength="109" x="1489.5" y="2199.3555">UserMapper</text><rect fill="#E2E2F0" height="39.1563" rx="2.5" ry="2.5" style="stroke:#181818;stroke-width:0.5;" width="101" x="1615.5" y="5"/><text fill="#000000" font-family="sans-serif" font-size="20" lengthAdjust="spacing" textLength="87" x="1622.5" y="32.7617">RoleRepo</text><rect fill="#E2E2F0" height="39.1563" rx="2.5" ry="2.5" style="stroke:#181818;stroke-width:0.5;" width="101" x="1615.5" y="2171.5938"/><text fill="#000000" font-family="sans-serif" font-size="20" lengthAdjust="spacing" textLength="87" x="1622.5" y="2199.3555">RoleRepo</text><rect fill="#E2E2F0" height="39.1563" rx="2.5" ry="2.5" style="stroke:#181818;stroke-width:0.5;" width="122" x="1726.5" y="5"/><text fill="#000000" font-family="sans-serif" font-size="20" lengthAdjust="spacing" textLength="108" x="1733.5" y="32.7617">RoleMapper</text><rect fill="#E2E2F0" height="39.1563" rx="2.5" ry="2.5" style="stroke:#181818;stroke-width:0.5;" width="122" x="1726.5" y="2171.5938"/><text fill="#000000" font-family="sans-serif" font-size="20" lengthAdjust="spacing" textLength="108" x="1733.5" y="2199.3555">RoleMapper</text><rect fill="#FFFFFF" height="2108.4375" style="stroke:#181818;stroke-width:1.0;" width="10" x="61.5" y="55.1563"/><rect fill="#FFFFFF" height="963.75" style="stroke:#181818;stroke-width:1.0;" width="10" x="266.5" y="86.3125"/><rect fill="#FFFFFF" height="404.5625" style="stroke:#181818;stroke-width:1.0;" width="10" x="493.5" y="177.625"/><rect fill="#FFFFFF" height="266.0938" style="stroke:#181818;stroke-width:1.0;" width="10" x="493.5" y="744.8125"/><rect fill="#FFFFFF" height="274.0938" style="stroke:#181818;stroke-width:1.0;" width="10" x="1049.5" y="268.9375"/><rect fill="#FFFFFF" height="135.625" style="stroke:#181818;stroke-width:1.0;" width="10" x="1049.5" y="836.125"/><rect fill="#FFFFFF" height="575.1875" style="stroke:#181818;stroke-width:1.0;" width="10" x="1049.5" y="1480.0938"/><rect fill="#FFFFFF" height="39.1563" style="stroke:#181818;stroke-width:1.0;" width="10" x="1539" y="464.7188"/><rect fill="#FFFFFF" height="39.1563" style="stroke:#181818;stroke-width:1.0;" width="10" x="1539" y="1976.9688"/><rect fill="#FFFFFF" height="39.1563" style="stroke:#181818;stroke-width:1.0;" width="10" x="1782.5" y="386.4063"/><polygon fill="#181818" points="254.5,82.3125,264.5,86.3125,254.5,90.3125,258.5,86.3125" style="stroke:#181818;stroke-width:1.0;"/><line style="stroke:#181818;stroke-width:1.0;" x1="71.5" x2="260.5" y1="86.3125" y2="86.3125"/><text fill="#000000" font-family="sans-serif" font-size="20" lengthAdjust="spacing" textLength="168" x="78.5" y="79.918">GET(/api/users/:id)</text><line style="stroke:#181818;stroke-width:1.0;" x1="276.5" x2="318.5" y1="125.4688" y2="125.4688"/><line style="stroke:#181818;stroke-width:1.0;" x1="318.5" x2="318.5" y1="125.4688" y2="138.4688"/><line style="stroke:#181818;stroke-width:1.0;" x1="277.5" x2="318.5" y1="138.4688" y2="138.4688"/><polygon fill="#181818" points="287.5,134.4688,277.5,138.4688,287.5,142.4688,283.5,138.4688" style="stroke:#181818;stroke-width:1.0;"/><text fill="#000000" font-family="sans-serif" font-size="20" lengthAdjust="spacing" textLength="144" x="283.5" y="119.0742">auth middleware</text><polygon fill="#181818" points="481.5,173.625,491.5,177.625,481.5,181.625,485.5,177.625" style="stroke:#181818;stroke-width:1.0;"/><line style="stroke:#181818;stroke-width:1.0;" x1="276.5" x2="487.5" y1="177.625" y2="177.625"/><text fill="#000000" font-family="sans-serif" font-size="20" lengthAdjust="spacing" textLength="102" x="283.5" y="171.2305">GetById(id)</text><line style="stroke:#181818;stroke-width:1.0;" x1="503.5" x2="545.5" y1="216.7813" y2="216.7813"/><line style="stroke:#181818;stroke-width:1.0;" x1="545.5" x2="545.5" y1="216.7813" y2="229.7813"/><line style="stroke:#181818;stroke-width:1.0;" x1="504.5" x2="545.5" y1="229.7813" y2="229.7813"/><polygon fill="#181818" points="514.5,225.7813,504.5,229.7813,514.5,233.7813,510.5,229.7813" style="stroke:#181818;stroke-width:1.0;"/><text fill="#000000" font-family="sans-serif" font-size="20" lengthAdjust="spacing" textLength="211" x="510.5" y="210.3867">permissions middleware</text><polygon fill="#181818" points="1037.5,264.9375,1047.5,268.9375,1037.5,272.9375,1041.5,268.9375" style="stroke:#181818;stroke-width:1.0;"/><line style="stroke:#181818;stroke-width:1.0;" x1="503.5" x2="1043.5" y1="268.9375" y2="268.9375"/><text fill="#000000" font-family="sans-serif" font-size="20" lengthAdjust="spacing" textLength="155" x="510.5" y="262.543">GetByIdAsync(id)</text><polygon fill="#181818" points="1409.5,304.0938,1419.5,308.0938,1409.5,312.0938,1413.5,308.0938" style="stroke:#181818;stroke-width:1.0;"/><line style="stroke:#181818;stroke-width:1.0;" x1="1059.5" x2="1415.5" y1="308.0938" y2="308.0938"/><text fill="#000000" font-family="sans-serif" font-size="20" lengthAdjust="spacing" textLength="217" x="1066.5" y="301.6992">user = GetByIdAsync(id)</text><polygon fill="#181818" points="1654,343.25,1664,347.25,1654,351.25,1658,347.25" style="stroke:#181818;stroke-width:1.0;"/><line style="stroke:#181818;stroke-width:1.0;" x1="1059.5" x2="1660" y1="347.25" y2="347.25"/><text fill="#000000" font-family="sans-serif" font-size="20" lengthAdjust="spacing" textLength="291" x="1066.5" y="340.8555">role = GetByIdAsync(user.roleId)</text><polygon fill="#181818" points="1770.5,382.4063,1780.5,386.4063,1770.5,390.4063,1774.5,386.4063" style="stroke:#181818;stroke-width:1.0;"/><line style="stroke:#181818;stroke-width:1.0;" x1="1059.5" x2="1776.5" y1="386.4063" y2="386.4063"/><text fill="#000000" font-family="sans-serif" font-size="20" lengthAdjust="spacing" textLength="106" x="1066.5" y="380.0117">toDTO(role)</text><polygon fill="#181818" points="1070.5,421.5625,1060.5,425.5625,1070.5,429.5625,1066.5,425.5625" style="stroke:#181818;stroke-width:1.0;"/><line style="stroke:#181818;stroke-width:1.0;" x1="1064.5" x2="1786.5" y1="425.5625" y2="425.5625"/><text fill="#000000" font-family="sans-serif" font-size="20" lengthAdjust="spacing" textLength="64" x="1076.5" y="419.168">roleDto</text><polygon fill="#181818" points="1527,460.7188,1537,464.7188,1527,468.7188,1531,464.7188" style="stroke:#181818;stroke-width:1.0;"/><line style="stroke:#181818;stroke-width:1.0;" x1="1059.5" x2="1533" y1="464.7188" y2="464.7188"/><text fill="#000000" font-family="sans-serif" font-size="20" lengthAdjust="spacing" textLength="111" x="1066.5" y="458.3242">toDTO(user)</text><polygon fill="#181818" points="1070.5,499.875,1060.5,503.875,1070.5,507.875,1066.5,503.875" style="stroke:#181818;stroke-width:1.0;"/><line style="stroke:#181818;stroke-width:1.0;stroke-dasharray:2.0,2.0;" x1="1064.5" x2="1543" y1="503.875" y2="503.875"/><text fill="#000000" font-family="sans-serif" font-size="20" lengthAdjust="spacing" textLength="69" x="1076.5" y="497.4805">userDto</text><polygon fill="#181818" points="514.5,539.0313,504.5,543.0313,514.5,547.0313,510.5,543.0313" style="stroke:#181818;stroke-width:1.0;"/><line style="stroke:#181818;stroke-width:1.0;stroke-dasharray:2.0,2.0;" x1="508.5" x2="1053.5" y1="543.0313" y2="543.0313"/><text fill="#000000" font-family="sans-serif" font-size="20" lengthAdjust="spacing" textLength="69" x="520.5" y="536.6367">userDto</text><polygon fill="#181818" points="287.5,578.1875,277.5,582.1875,287.5,586.1875,283.5,582.1875" style="stroke:#181818;stroke-width:1.0;"/><line style="stroke:#181818;stroke-width:1.0;stroke-dasharray:2.0,2.0;" x1="281.5" x2="497.5" y1="582.1875" y2="582.1875"/><text fill="#000000" font-family="sans-serif" font-size="20" lengthAdjust="spacing" textLength="69" x="293.5" y="575.793">userDto</text><polygon fill="#181818" points="82.5,617.3438,72.5,621.3438,82.5,625.3438,78.5,621.3438" style="stroke:#181818;stroke-width:1.0;"/><line style="stroke:#181818;stroke-width:1.0;stroke-dasharray:2.0,2.0;" x1="76.5" x2="265.5" y1="621.3438" y2="621.3438"/><text fill="#000000" font-family="sans-serif" font-size="20" lengthAdjust="spacing" textLength="69" x="88.5" y="614.9492">userDto</text><path d="M76,634.3438 L76,669.3438 L377,669.3438 L377,644.3438 L367,634.3438 L76,634.3438 " fill="#FEFFDD" style="stroke:#181818;stroke-width:0.5;"/><path d="M367,634.3438 L367,644.3438 L377,644.3438 L367,634.3438 " fill="#FEFFDD" style="stroke:#181818;stroke-width:0.5;"/><text fill="#000000" font-family="sans-serif" font-size="20" lengthAdjust="spacing" textLength="280" x="82" y="660.1055">Utilizador altera dados pessoais</text><polygon fill="#181818" points="254.5,701.6563,264.5,705.6563,254.5,709.6563,258.5,705.6563" style="stroke:#181818;stroke-width:1.0;"/><line style="stroke:#181818;stroke-width:1.0;" x1="71.5" x2="260.5" y1="705.6563" y2="705.6563"/><text fill="#000000" font-family="sans-serif" font-size="20" lengthAdjust="spacing" textLength="171" x="78.5" y="699.2617">PATCH(/api/users/)</text><polygon fill="#181818" points="481.5,740.8125,491.5,744.8125,481.5,748.8125,485.5,744.8125" style="stroke:#181818;stroke-width:1.0;"/><line style="stroke:#181818;stroke-width:1.0;" x1="276.5" x2="487.5" y1="744.8125" y2="744.8125"/><text fill="#000000" font-family="sans-serif" font-size="20" lengthAdjust="spacing" textLength="198" x="283.5" y="738.418">UpdateMyProfile(user)</text><line style="stroke:#181818;stroke-width:1.0;" x1="503.5" x2="545.5" y1="783.9688" y2="783.9688"/><line style="stroke:#181818;stroke-width:1.0;" x1="545.5" x2="545.5" y1="783.9688" y2="796.9688"/><line style="stroke:#181818;stroke-width:1.0;" x1="504.5" x2="545.5" y1="796.9688" y2="796.9688"/><polygon fill="#181818" points="514.5,792.9688,504.5,796.9688,514.5,800.9688,510.5,796.9688" style="stroke:#181818;stroke-width:1.0;"/><text fill="#000000" font-family="sans-serif" font-size="20" lengthAdjust="spacing" textLength="532" x="510.5" y="777.5742">currentUser = HttpContext.Items["user"] as UserWithRoleDto</text><polygon fill="#181818" points="1037.5,832.125,1047.5,836.125,1037.5,840.125,1041.5,836.125" style="stroke:#181818;stroke-width:1.0;"/><line style="stroke:#181818;stroke-width:1.0;" x1="503.5" x2="1043.5" y1="836.125" y2="836.125"/><text fill="#000000" font-family="sans-serif" font-size="20" lengthAdjust="spacing" textLength="388" x="510.5" y="829.7305">UpdateMyProfileAsync(user, currentUser.Id)</text><line style="stroke:#181818;stroke-width:1.0;" x1="1059.5" x2="1101.5" y1="875.2813" y2="875.2813"/><line style="stroke:#181818;stroke-width:1.0;" x1="1101.5" x2="1101.5" y1="875.2813" y2="888.2813"/><line style="stroke:#181818;stroke-width:1.0;" x1="1060.5" x2="1101.5" y1="888.2813" y2="888.2813"/><polygon fill="#181818" points="1070.5,884.2813,1060.5,888.2813,1070.5,892.2813,1066.5,888.2813" style="stroke:#181818;stroke-width:1.0;"/><text fill="#000000" font-family="sans-serif" font-size="20" lengthAdjust="spacing" textLength="155" x="1066.5" y="868.8867">GetByIdAsync(id)</text><path d="M10,903.2813 L78,903.2813 L78,920.4375 L68,930.4375 L10,930.4375 L10,903.2813 " fill="#EEEEEE" style="stroke:#000000;stroke-width:1.5;"/><rect fill="none" height="1252.3125" style="stroke:#000000;stroke-width:1.5;" width="1625.5" x="10" y="903.2813"/><text fill="#000000" font-family="sans-serif" font-size="20" font-weight="bold" lengthAdjust="spacing" textLength="23" x="25" y="925.043">alt</text><text fill="#000000" font-family="sans-serif" font-size="20" font-weight="bold" lengthAdjust="spacing" textLength="154" x="93" y="926.043">[user not found]</text><polygon fill="#181818" points="514.5,967.75,504.5,971.75,514.5,975.75,510.5,971.75" style="stroke:#181818;stroke-width:1.0;"/><line style="stroke:#181818;stroke-width:1.0;stroke-dasharray:2.0,2.0;" x1="508.5" x2="1053.5" y1="971.75" y2="971.75"/><text fill="#000000" font-family="sans-serif" font-size="20" lengthAdjust="spacing" textLength="28" x="520.5" y="965.3555">null</text><polygon fill="#181818" points="287.5,1006.9063,277.5,1010.9063,287.5,1014.9063,283.5,1010.9063" style="stroke:#181818;stroke-width:1.0;"/><line style="stroke:#181818;stroke-width:1.0;stroke-dasharray:2.0,2.0;" x1="281.5" x2="497.5" y1="1010.9063" y2="1010.9063"/><text fill="#000000" font-family="sans-serif" font-size="20" lengthAdjust="spacing" textLength="141" x="293.5" y="1004.5117">status code 404</text><polygon fill="#181818" points="82.5,1046.0625,72.5,1050.0625,82.5,1054.0625,78.5,1050.0625" style="stroke:#181818;stroke-width:1.0;"/><line style="stroke:#181818;stroke-width:1.0;stroke-dasharray:2.0,2.0;" x1="76.5" x2="270.5" y1="1050.0625" y2="1050.0625"/><text fill="#000000" font-family="sans-serif" font-size="20" lengthAdjust="spacing" textLength="36" x="88.5" y="1043.668">erro</text><line style="stroke:#000000;stroke-width:1.0;stroke-dasharray:2.0,2.0;" x1="10" x2="1635.5" y1="1059.0625" y2="1059.0625"/><text fill="#000000" font-family="sans-serif" font-size="20" font-weight="bold" lengthAdjust="spacing" textLength="117" x="15" y="1079.8242">[user found]</text><path d="M20,1092.2188 L88,1092.2188 L88,1109.375 L78,1119.375 L20,1119.375 L20,1092.2188 " fill="#EEEEEE" style="stroke:#000000;stroke-width:1.5;"/><rect fill="none" height="1056.375" style="stroke:#000000;stroke-width:1.5;" width="1605.5" x="20" y="1092.2188"/><text fill="#000000" font-family="sans-serif" font-size="20" font-weight="bold" lengthAdjust="spacing" textLength="23" x="35" y="1113.9805">alt</text><text fill="#000000" font-family="sans-serif" font-size="20" font-weight="bold" lengthAdjust="spacing" textLength="125" x="103" y="1114.9805">[user inativo]</text><polygon fill="#181818" points="509.5,1156.6875,499.5,1160.6875,509.5,1164.6875,505.5,1160.6875" style="stroke:#181818;stroke-width:1.0;"/><line style="stroke:#181818;stroke-width:1.0;stroke-dasharray:2.0,2.0;" x1="503.5" x2="1053.5" y1="1160.6875" y2="1160.6875"/><text fill="#000000" font-family="sans-serif" font-size="20" lengthAdjust="spacing" textLength="28" x="515.5" y="1154.293">null</text><polygon fill="#181818" points="282.5,1195.8438,272.5,1199.8438,282.5,1203.8438,278.5,1199.8438" style="stroke:#181818;stroke-width:1.0;"/><line style="stroke:#181818;stroke-width:1.0;stroke-dasharray:2.0,2.0;" x1="276.5" x2="497.5" y1="1199.8438" y2="1199.8438"/><text fill="#000000" font-family="sans-serif" font-size="20" lengthAdjust="spacing" textLength="141" x="288.5" y="1193.4492">status code 404</text><polygon fill="#181818" points="82.5,1235,72.5,1239,82.5,1243,78.5,1239" style="stroke:#181818;stroke-width:1.0;"/><line style="stroke:#181818;stroke-width:1.0;stroke-dasharray:2.0,2.0;" x1="76.5" x2="270.5" y1="1239" y2="1239"/><text fill="#000000" font-family="sans-serif" font-size="20" lengthAdjust="spacing" textLength="36" x="88.5" y="1232.6055">erro</text><line style="stroke:#000000;stroke-width:1.0;stroke-dasharray:2.0,2.0;" x1="20" x2="1625.5" y1="1248" y2="1248"/><text fill="#000000" font-family="sans-serif" font-size="20" font-weight="bold" lengthAdjust="spacing" textLength="108" x="25" y="1268.7617">[user ativo]</text><line style="stroke:#181818;stroke-width:1.0;" x1="1054.5" x2="1096.5" y1="1305.3125" y2="1305.3125"/><line style="stroke:#181818;stroke-width:1.0;" x1="1096.5" x2="1096.5" y1="1305.3125" y2="1318.3125"/><line style="stroke:#181818;stroke-width:1.0;" x1="1055.5" x2="1096.5" y1="1318.3125" y2="1318.3125"/><polygon fill="#181818" points="1065.5,1314.3125,1055.5,1318.3125,1065.5,1322.3125,1061.5,1318.3125" style="stroke:#181818;stroke-width:1.0;"/><text fill="#000000" font-family="sans-serif" font-size="20" lengthAdjust="spacing" textLength="261" x="1061.5" y="1298.918">GetByEmailAsync(user.email)</text><path d="M30,1333.3125 L98,1333.3125 L98,1350.4688 L88,1360.4688 L30,1360.4688 L30,1333.3125 " fill="#EEEEEE" style="stroke:#000000;stroke-width:1.5;"/><rect fill="none" height="808.2813" style="stroke:#000000;stroke-width:1.5;" width="1585.5" x="30" y="1333.3125"/><text fill="#000000" font-family="sans-serif" font-size="20" font-weight="bold" lengthAdjust="spacing" textLength="23" x="45" y="1355.0742">alt</text><text fill="#000000" font-family="sans-serif" font-size="20" font-weight="bold" lengthAdjust="spacing" textLength="200" x="113" y="1356.0742">[email already exists]</text><polygon fill="#181818" points="509.5,1397.7813,499.5,1401.7813,509.5,1405.7813,505.5,1401.7813" style="stroke:#181818;stroke-width:1.0;"/><line style="stroke:#181818;stroke-width:1.0;stroke-dasharray:2.0,2.0;" x1="503.5" x2="1053.5" y1="1401.7813" y2="1401.7813"/><text fill="#000000" font-family="sans-serif" font-size="20" lengthAdjust="spacing" textLength="28" x="515.5" y="1395.3867">null</text><polygon fill="#181818" points="282.5,1436.9375,272.5,1440.9375,282.5,1444.9375,278.5,1440.9375" style="stroke:#181818;stroke-width:1.0;"/><line style="stroke:#181818;stroke-width:1.0;stroke-dasharray:2.0,2.0;" x1="276.5" x2="497.5" y1="1440.9375" y2="1440.9375"/><text fill="#000000" font-family="sans-serif" font-size="20" lengthAdjust="spacing" textLength="141" x="288.5" y="1434.543">status code 400</text><polygon fill="#181818" points="82.5,1476.0938,72.5,1480.0938,82.5,1484.0938,78.5,1480.0938" style="stroke:#181818;stroke-width:1.0;"/><line style="stroke:#181818;stroke-width:1.0;stroke-dasharray:2.0,2.0;" x1="76.5" x2="270.5" y1="1480.0938" y2="1480.0938"/><text fill="#000000" font-family="sans-serif" font-size="20" lengthAdjust="spacing" textLength="36" x="88.5" y="1473.6992">erro</text><line style="stroke:#000000;stroke-width:1.0;stroke-dasharray:2.0,2.0;" x1="30" x2="1615.5" y1="1489.0938" y2="1489.0938"/><text fill="#000000" font-family="sans-serif" font-size="20" font-weight="bold" lengthAdjust="spacing" textLength="161" x="35" y="1509.8555">[email not found]</text><line style="stroke:#181818;stroke-width:1.0;" x1="1059.5" x2="1101.5" y1="1546.4063" y2="1546.4063"/><line style="stroke:#181818;stroke-width:1.0;" x1="1101.5" x2="1101.5" y1="1546.4063" y2="1559.4063"/><line style="stroke:#181818;stroke-width:1.0;" x1="1060.5" x2="1101.5" y1="1559.4063" y2="1559.4063"/><polygon fill="#181818" points="1070.5,1555.4063,1060.5,1559.4063,1070.5,1563.4063,1066.5,1559.4063" style="stroke:#181818;stroke-width:1.0;"/><text fill="#000000" font-family="sans-serif" font-size="20" lengthAdjust="spacing" textLength="263" x="1066.5" y="1540.0117">user.ChangeEmail(user.email)</text><line style="stroke:#181818;stroke-width:1.0;" x1="1059.5" x2="1101.5" y1="1598.5625" y2="1598.5625"/><line style="stroke:#181818;stroke-width:1.0;" x1="1101.5" x2="1101.5" y1="1598.5625" y2="1611.5625"/><line style="stroke:#181818;stroke-width:1.0;" x1="1060.5" x2="1101.5" y1="1611.5625" y2="1611.5625"/><polygon fill="#181818" points="1070.5,1607.5625,1060.5,1611.5625,1070.5,1615.5625,1066.5,1611.5625" style="stroke:#181818;stroke-width:1.0;"/><text fill="#000000" font-family="sans-serif" font-size="20" lengthAdjust="spacing" textLength="268" x="1066.5" y="1592.168">user.ChangeName(user.name)</text><line style="stroke:#181818;stroke-width:1.0;" x1="1059.5" x2="1101.5" y1="1650.7188" y2="1650.7188"/><line style="stroke:#181818;stroke-width:1.0;" x1="1101.5" x2="1101.5" y1="1650.7188" y2="1663.7188"/><line style="stroke:#181818;stroke-width:1.0;" x1="1060.5" x2="1101.5" y1="1663.7188" y2="1663.7188"/><polygon fill="#181818" points="1070.5,1659.7188,1060.5,1663.7188,1070.5,1667.7188,1066.5,1663.7188" style="stroke:#181818;stroke-width:1.0;"/><text fill="#000000" font-family="sans-serif" font-size="20" lengthAdjust="spacing" textLength="212" x="1066.5" y="1644.3242">user.ChangeNif(user.nif)</text><line style="stroke:#181818;stroke-width:1.0;" x1="1059.5" x2="1101.5" y1="1702.875" y2="1702.875"/><line style="stroke:#181818;stroke-width:1.0;" x1="1101.5" x2="1101.5" y1="1702.875" y2="1715.875"/><line style="stroke:#181818;stroke-width:1.0;" x1="1060.5" x2="1101.5" y1="1715.875" y2="1715.875"/><polygon fill="#181818" points="1070.5,1711.875,1060.5,1715.875,1070.5,1719.875,1066.5,1715.875" style="stroke:#181818;stroke-width:1.0;"/><text fill="#000000" font-family="sans-serif" font-size="20" lengthAdjust="spacing" textLength="277" x="1066.5" y="1696.4805">user.ChangePhone(user.phone)</text><path d="M984.5,1730.875 L1052.5,1730.875 L1052.5,1748.0313 L1042.5,1758.0313 L984.5,1758.0313 L984.5,1730.875 " fill="#EEEEEE" style="stroke:#000000;stroke-width:1.5;"/><rect fill="none" height="168.7813" style="stroke:#000000;stroke-width:1.5;" width="437" x="984.5" y="1730.875"/><text fill="#000000" font-family="sans-serif" font-size="20" font-weight="bold" lengthAdjust="spacing" textLength="23" x="999.5" y="1752.6367">alt</text><text fill="#000000" font-family="sans-serif" font-size="20" font-weight="bold" lengthAdjust="spacing" textLength="219" x="1067.5" y="1753.6367">[user.password != null]</text><line style="stroke:#181818;stroke-width:1.0;" x1="1059.5" x2="1101.5" y1="1799.3438" y2="1799.3438"/><line style="stroke:#181818;stroke-width:1.0;" x1="1101.5" x2="1101.5" y1="1799.3438" y2="1812.3438"/><line style="stroke:#181818;stroke-width:1.0;" x1="1060.5" x2="1101.5" y1="1812.3438" y2="1812.3438"/><polygon fill="#181818" points="1070.5,1808.3438,1060.5,1812.3438,1070.5,1816.3438,1066.5,1812.3438" style="stroke:#181818;stroke-width:1.0;"/><text fill="#000000" font-family="sans-serif" font-size="20" lengthAdjust="spacing" textLength="343" x="1066.5" y="1792.9492">user.ChangePassword(user.password)</text><line style="stroke:#000000;stroke-width:1.0;stroke-dasharray:2.0,2.0;" x1="984.5" x2="1421.5" y1="1821.3438" y2="1821.3438"/><text fill="#000000" font-family="sans-serif" font-size="20" font-weight="bold" lengthAdjust="spacing" textLength="224" x="989.5" y="1842.1055">[user.password == null]</text><line style="stroke:#181818;stroke-width:1.0;" x1="1059.5" x2="1101.5" y1="1878.6563" y2="1878.6563"/><line style="stroke:#181818;stroke-width:1.0;" x1="1101.5" x2="1101.5" y1="1878.6563" y2="1891.6563"/><line style="stroke:#181818;stroke-width:1.0;" x1="1060.5" x2="1101.5" y1="1891.6563" y2="1891.6563"/><polygon fill="#181818" points="1070.5,1887.6563,1060.5,1891.6563,1070.5,1895.6563,1066.5,1891.6563" style="stroke:#181818;stroke-width:1.0;"/><text fill="#000000" font-family="sans-serif" font-size="20" lengthAdjust="spacing" textLength="343" x="1066.5" y="1872.2617">user.ChangePassword(user.password)</text><polygon fill="#181818" points="1409.5,1933.8125,1419.5,1937.8125,1409.5,1941.8125,1413.5,1937.8125" style="stroke:#181818;stroke-width:1.0;"/><line style="stroke:#181818;stroke-width:1.0;" x1="1059.5" x2="1415.5" y1="1937.8125" y2="1937.8125"/><text fill="#000000" font-family="sans-serif" font-size="20" lengthAdjust="spacing" textLength="172" x="1066.5" y="1931.418">CommitAsync(user)</text><polygon fill="#181818" points="1527,1972.9688,1537,1976.9688,1527,1980.9688,1531,1976.9688" style="stroke:#181818;stroke-width:1.0;"/><line style="stroke:#181818;stroke-width:1.0;" x1="1059.5" x2="1533" y1="1976.9688" y2="1976.9688"/><text fill="#000000" font-family="sans-serif" font-size="20" lengthAdjust="spacing" textLength="162" x="1066.5" y="1970.5742">ToProfileDto(user)</text><polygon fill="#181818" points="1070.5,2012.125,1060.5,2016.125,1070.5,2020.125,1066.5,2016.125" style="stroke:#181818;stroke-width:1.0;"/><line style="stroke:#181818;stroke-width:1.0;stroke-dasharray:2.0,2.0;" x1="1064.5" x2="1543" y1="2016.125" y2="2016.125"/><text fill="#000000" font-family="sans-serif" font-size="20" lengthAdjust="spacing" textLength="69" x="1076.5" y="2009.7305">userDto</text><polygon fill="#181818" points="509.5,2051.2813,499.5,2055.2813,509.5,2059.2813,505.5,2055.2813" style="stroke:#181818;stroke-width:1.0;"/><line style="stroke:#181818;stroke-width:1.0;stroke-dasharray:2.0,2.0;" x1="503.5" x2="1053.5" y1="2055.2813" y2="2055.2813"/><text fill="#000000" font-family="sans-serif" font-size="20" lengthAdjust="spacing" textLength="69" x="515.5" y="2048.8867">userDto</text><polygon fill="#181818" points="282.5,2090.4375,272.5,2094.4375,282.5,2098.4375,278.5,2094.4375" style="stroke:#181818;stroke-width:1.0;"/><line style="stroke:#181818;stroke-width:1.0;stroke-dasharray:2.0,2.0;" x1="276.5" x2="497.5" y1="2094.4375" y2="2094.4375"/><text fill="#000000" font-family="sans-serif" font-size="20" lengthAdjust="spacing" textLength="69" x="288.5" y="2088.043">userDto</text><polygon fill="#181818" points="82.5,2129.5938,72.5,2133.5938,82.5,2137.5938,78.5,2133.5938" style="stroke:#181818;stroke-width:1.0;"/><line style="stroke:#181818;stroke-width:1.0;stroke-dasharray:2.0,2.0;" x1="76.5" x2="270.5" y1="2133.5938" y2="2133.5938"/><text fill="#000000" font-family="sans-serif" font-size="20" lengthAdjust="spacing" textLength="69" x="88.5" y="2127.1992">userDto</text><!--SRC=[jLLDRzim3BtxLsWv9S2Q54DF0JeWIxirXsv6as27OGV1OXgXjcH8Sjlqrq-KF-MFE9S5i2ERZu_a8sNf5ovIgcWIo-W5665me5bilajXjlm3o9Vhm9eDZtXAXI7RSEKzJnx37Lc5cmcX6lzzurw3Mbic9UCObCEiZOgxe2seLnw1GspLQnVm1AbqLbnqpOyqJOi0TkdRdsGCbRjINMF3MIL1G2F3Nwa1LwkzoDLNh6n9VjplfWkQyaLc8-h5ahDP3SRQ0tkhq3GpHv9mnc9uemf8QKG1B1UORwSDcteSJfi0xpNGPfPmhRaKscChKLQjYcsbJoBoAL7CmDuGYY8i2IPFRhik9Kgf9R7zWZO6_UPes3J1oP8OURVxDKLB8wuLKYLLVcYyCp9Wq0IK95R_aWM3D5Ymb_OYLoKHsbj4YCcPAirAL1E6GkIQbGtguSeRu1g54SDLWqj8p9e_7msH1xIHWDZVtl2OVr0c5Q6n0KK9im_QzarhIRaEG322le4tI-5gjtveJjCiy0TadpARqUCfLFB0OsWhqpSgKQOK2BFF6_nWJ8fx3zxDV6CWqNyco37vYtEEcD_S79-AnlZZr8fTz_zpCyPyCpHe_JCPM7towRDoa8FC17CA-hqJMHoxrwtUkNT-0xMX9jCaaWp8pVLDsokN25zw3GMbP1lgDY_46lByyjmSgCgP2sh1kUUPh8SolopxmGg6g-Yh1D_LrUHv-uatUtIVK1utzZZWywnsG0dSExjIGDc9m3lNHbU04JdEIJ8co_KGYo_DUNc69AfaogkhfzBpz1BlbDpuBitNHogUmSdfANc1qq-Qv5jyBkpgCXT-A3puuIA7y2X54IJ5vQnLPp7fyvHg_IOL8vzkkuqynr_uJJqMFxLgAkiej_yXIhk7tW6ubad2JJtmlUAvCsadYo-W_KJsGBqZg6deFR86fj4TNyCxQSHxP3EDU8zieX5lVn-Lahk5kzdVFm00]--></g></svg>