<?xml version="1.0" encoding="UTF-8" standalone="no"?><svg xmlns="http://www.w3.org/2000/svg" xmlns:xlink="http://www.w3.org/1999/xlink" contentStyleType="text/css" height="540px" preserveAspectRatio="none" style="width:1275px;height:540px;background:#FFFFFF;" version="1.1" viewBox="0 0 1275 540" width="1275px" zoomAndPan="magnify"><defs/><g><rect fill="#FFFFFF" height="422.7188" style="stroke:#181818;stroke-width:1.0;" width="10" x="26.5" y="55.1563"/><rect fill="#FFFFFF" height="391.5625" style="stroke:#181818;stroke-width:1.0;" width="10" x="220.5" y="86.3125"/><rect fill="#FFFFFF" height="313.25" style="stroke:#181818;stroke-width:1.0;" width="10" x="395.5" y="125.4688"/><rect fill="#FFFFFF" height="322.25" style="stroke:#181818;stroke-width:1.0;" width="10" x="668.5" y="164.625"/><rect fill="#FFFFFF" height="39.1563" style="stroke:#181818;stroke-width:1.0;" width="10" x="817.5" y="242.9375"/><rect fill="#FFFFFF" height="39.1563" style="stroke:#181818;stroke-width:1.0;" width="10" x="966" y="321.25"/><line style="stroke:#181818;stroke-width:0.5;stroke-dasharray:5.0,5.0;" x1="31" x2="31" y1="45.1563" y2="495.875"/><line style="stroke:#181818;stroke-width:0.5;stroke-dasharray:5.0,5.0;" x1="225.5" x2="225.5" y1="45.1563" y2="495.875"/><line style="stroke:#181818;stroke-width:0.5;stroke-dasharray:5.0,5.0;" x1="400.5" x2="400.5" y1="45.1563" y2="495.875"/><line style="stroke:#181818;stroke-width:0.5;stroke-dasharray:5.0,5.0;" x1="673.5" x2="673.5" y1="45.1563" y2="495.875"/><line style="stroke:#181818;stroke-width:0.5;stroke-dasharray:5.0,5.0;" x1="822.5" x2="822.5" y1="45.1563" y2="495.875"/><line style="stroke:#181818;stroke-width:0.5;stroke-dasharray:5.0,5.0;" x1="970.5" x2="970.5" y1="45.1563" y2="495.875"/><line style="stroke:#181818;stroke-width:0.5;stroke-dasharray:5.0,5.0;" x1="1116.5" x2="1116.5" y1="45.1563" y2="495.875"/><line style="stroke:#181818;stroke-width:0.5;stroke-dasharray:5.0,5.0;" x1="1228.5" x2="1228.5" y1="45.1563" y2="495.875"/><rect fill="#E2E2F0" height="39.1563" rx="2.5" ry="2.5" style="stroke:#181818;stroke-width:0.5;" width="53" x="5" y="5"/><text fill="#000000" font-family="sans-serif" font-size="20" lengthAdjust="spacing" textLength="39" x="12" y="32.7617">SPA</text><rect fill="#E2E2F0" height="39.1563" rx="2.5" ry="2.5" style="stroke:#181818;stroke-width:0.5;" width="53" x="5" y="494.875"/><text fill="#000000" font-family="sans-serif" font-size="20" lengthAdjust="spacing" textLength="39" x="12" y="522.6367">SPA</text><rect fill="#E2E2F0" height="39.1563" rx="2.5" ry="2.5" style="stroke:#181818;stroke-width:0.5;" width="144" x="153.5" y="5"/><text fill="#000000" font-family="sans-serif" font-size="20" lengthAdjust="spacing" textLength="130" x="160.5" y="32.7617">GestaoInfoAPI</text><rect fill="#E2E2F0" height="39.1563" rx="2.5" ry="2.5" style="stroke:#181818;stroke-width:0.5;" width="144" x="153.5" y="494.875"/><text fill="#000000" font-family="sans-serif" font-size="20" lengthAdjust="spacing" textLength="130" x="160.5" y="522.6367">GestaoInfoAPI</text><rect fill="#E2E2F0" height="39.1563" rx="2.5" ry="2.5" style="stroke:#181818;stroke-width:0.5;" width="166" x="317.5" y="5"/><text fill="#000000" font-family="sans-serif" font-size="20" lengthAdjust="spacing" textLength="152" x="324.5" y="32.7617">BuildingController</text><rect fill="#E2E2F0" height="39.1563" rx="2.5" ry="2.5" style="stroke:#181818;stroke-width:0.5;" width="166" x="317.5" y="494.875"/><text fill="#000000" font-family="sans-serif" font-size="20" lengthAdjust="spacing" textLength="152" x="324.5" y="522.6367">BuildingController</text><rect fill="#E2E2F0" height="39.1563" rx="2.5" ry="2.5" style="stroke:#181818;stroke-width:0.5;" width="146" x="600.5" y="5"/><text fill="#000000" font-family="sans-serif" font-size="20" lengthAdjust="spacing" textLength="132" x="607.5" y="32.7617">BuildingService</text><rect fill="#E2E2F0" height="39.1563" rx="2.5" ry="2.5" style="stroke:#181818;stroke-width:0.5;" width="146" x="600.5" y="494.875"/><text fill="#000000" font-family="sans-serif" font-size="20" lengthAdjust="spacing" textLength="132" x="607.5" y="522.6367">BuildingService</text><rect fill="#E2E2F0" height="39.1563" rx="2.5" ry="2.5" style="stroke:#181818;stroke-width:0.5;" width="128" x="758.5" y="5"/><text fill="#000000" font-family="sans-serif" font-size="20" lengthAdjust="spacing" textLength="114" x="765.5" y="32.7617">BuildingRepo</text><rect fill="#E2E2F0" height="39.1563" rx="2.5" ry="2.5" style="stroke:#181818;stroke-width:0.5;" width="128" x="758.5" y="494.875"/><text fill="#000000" font-family="sans-serif" font-size="20" lengthAdjust="spacing" textLength="114" x="765.5" y="522.6367">BuildingRepo</text><rect fill="#E2E2F0" height="39.1563" rx="2.5" ry="2.5" style="stroke:#181818;stroke-width:0.5;" width="149" x="896.5" y="5"/><text fill="#000000" font-family="sans-serif" font-size="20" lengthAdjust="spacing" textLength="135" x="903.5" y="32.7617">BuildingMapper</text><rect fill="#E2E2F0" height="39.1563" rx="2.5" ry="2.5" style="stroke:#181818;stroke-width:0.5;" width="149" x="896.5" y="494.875"/><text fill="#000000" font-family="sans-serif" font-size="20" lengthAdjust="spacing" textLength="135" x="903.5" y="522.6367">BuildingMapper</text><rect fill="#E2E2F0" height="39.1563" rx="2.5" ry="2.5" style="stroke:#181818;stroke-width:0.5;" width="123" x="1055.5" y="5"/><text fill="#000000" font-family="sans-serif" font-size="20" lengthAdjust="spacing" textLength="109" x="1062.5" y="32.7617">BuildingDTO</text><rect fill="#E2E2F0" height="39.1563" rx="2.5" ry="2.5" style="stroke:#181818;stroke-width:0.5;" width="123" x="1055.5" y="494.875"/><text fill="#000000" font-family="sans-serif" font-size="20" lengthAdjust="spacing" textLength="109" x="1062.5" y="522.6367">BuildingDTO</text><rect fill="#E2E2F0" height="39.1563" rx="2.5" ry="2.5" style="stroke:#181818;stroke-width:0.5;" width="81" x="1188.5" y="5"/><text fill="#000000" font-family="sans-serif" font-size="20" lengthAdjust="spacing" textLength="67" x="1195.5" y="32.7617">Building</text><rect fill="#E2E2F0" height="39.1563" rx="2.5" ry="2.5" style="stroke:#181818;stroke-width:0.5;" width="81" x="1188.5" y="494.875"/><text fill="#000000" font-family="sans-serif" font-size="20" lengthAdjust="spacing" textLength="67" x="1195.5" y="522.6367">Building</text><rect fill="#FFFFFF" height="422.7188" style="stroke:#181818;stroke-width:1.0;" width="10" x="26.5" y="55.1563"/><rect fill="#FFFFFF" height="391.5625" style="stroke:#181818;stroke-width:1.0;" width="10" x="220.5" y="86.3125"/><rect fill="#FFFFFF" height="313.25" style="stroke:#181818;stroke-width:1.0;" width="10" x="395.5" y="125.4688"/><rect fill="#FFFFFF" height="322.25" style="stroke:#181818;stroke-width:1.0;" width="10" x="668.5" y="164.625"/><rect fill="#FFFFFF" height="39.1563" style="stroke:#181818;stroke-width:1.0;" width="10" x="817.5" y="242.9375"/><rect fill="#FFFFFF" height="39.1563" style="stroke:#181818;stroke-width:1.0;" width="10" x="966" y="321.25"/><polygon fill="#181818" points="208.5,82.3125,218.5,86.3125,208.5,90.3125,212.5,86.3125" style="stroke:#181818;stroke-width:1.0;"/><line style="stroke:#181818;stroke-width:1.0;" x1="36.5" x2="214.5" y1="86.3125" y2="86.3125"/><text fill="#000000" font-family="sans-serif" font-size="20" lengthAdjust="spacing" textLength="165" x="43.5" y="79.918">post(/api/buildings)</text><polygon fill="#181818" points="383.5,121.4688,393.5,125.4688,383.5,129.4688,387.5,125.4688" style="stroke:#181818;stroke-width:1.0;"/><line style="stroke:#181818;stroke-width:1.0;" x1="230.5" x2="389.5" y1="125.4688" y2="125.4688"/><text fill="#000000" font-family="sans-serif" font-size="20" lengthAdjust="spacing" textLength="38" x="237.5" y="119.0742">post</text><polygon fill="#181818" points="656.5,160.625,666.5,164.625,656.5,168.625,660.5,164.625" style="stroke:#181818;stroke-width:1.0;"/><line style="stroke:#181818;stroke-width:1.0;" x1="405.5" x2="662.5" y1="164.625" y2="164.625"/><text fill="#000000" font-family="sans-serif" font-size="20" lengthAdjust="spacing" textLength="244" x="412.5" y="158.2305">createBuilding(buildingDTO)</text><polygon fill="#181818" points="1217,199.7813,1227,203.7813,1217,207.7813,1221,203.7813" style="stroke:#181818;stroke-width:1.0;"/><line style="stroke:#181818;stroke-width:1.0;" x1="678.5" x2="1223" y1="203.7813" y2="203.7813"/><text fill="#000000" font-family="sans-serif" font-size="20" lengthAdjust="spacing" textLength="56" x="685.5" y="197.3867">create</text><polygon fill="#181818" points="805.5,238.9375,815.5,242.9375,805.5,246.9375,809.5,242.9375" style="stroke:#181818;stroke-width:1.0;"/><line style="stroke:#181818;stroke-width:1.0;" x1="678.5" x2="811.5" y1="242.9375" y2="242.9375"/><text fill="#000000" font-family="sans-serif" font-size="20" lengthAdjust="spacing" textLength="120" x="685.5" y="236.543">save(building)</text><polygon fill="#181818" points="689.5,278.0938,679.5,282.0938,689.5,286.0938,685.5,282.0938" style="stroke:#181818;stroke-width:1.0;"/><line style="stroke:#181818;stroke-width:1.0;stroke-dasharray:2.0,2.0;" x1="683.5" x2="821.5" y1="282.0938" y2="282.0938"/><text fill="#000000" font-family="sans-serif" font-size="20" lengthAdjust="spacing" textLength="65" x="695.5" y="275.6992">building</text><polygon fill="#181818" points="954,317.25,964,321.25,954,325.25,958,321.25" style="stroke:#181818;stroke-width:1.0;"/><line style="stroke:#181818;stroke-width:1.0;" x1="678.5" x2="960" y1="321.25" y2="321.25"/><text fill="#000000" font-family="sans-serif" font-size="20" lengthAdjust="spacing" textLength="138" x="685.5" y="314.8555">toDTO(building)</text><polygon fill="#181818" points="689.5,356.4063,679.5,360.4063,689.5,364.4063,685.5,360.4063" style="stroke:#181818;stroke-width:1.0;"/><line style="stroke:#181818;stroke-width:1.0;stroke-dasharray:2.0,2.0;" x1="683.5" x2="970" y1="360.4063" y2="360.4063"/><text fill="#000000" font-family="sans-serif" font-size="20" lengthAdjust="spacing" textLength="107" x="695.5" y="354.0117">buildingDTO</text><polygon fill="#181818" points="416.5,395.5625,406.5,399.5625,416.5,403.5625,412.5,399.5625" style="stroke:#181818;stroke-width:1.0;"/><line style="stroke:#181818;stroke-width:1.0;stroke-dasharray:2.0,2.0;" x1="410.5" x2="667.5" y1="399.5625" y2="399.5625"/><text fill="#000000" font-family="sans-serif" font-size="20" lengthAdjust="spacing" textLength="107" x="422.5" y="393.168">buildingDTO</text><polygon fill="#181818" points="241.5,434.7188,231.5,438.7188,241.5,442.7188,237.5,438.7188" style="stroke:#181818;stroke-width:1.0;"/><line style="stroke:#181818;stroke-width:1.0;stroke-dasharray:2.0,2.0;" x1="235.5" x2="399.5" y1="438.7188" y2="438.7188"/><text fill="#000000" font-family="sans-serif" font-size="20" lengthAdjust="spacing" textLength="141" x="247.5" y="432.3242">status code 201</text><polygon fill="#181818" points="42.5,473.875,32.5,477.875,42.5,481.875,38.5,477.875" style="stroke:#181818;stroke-width:1.0;"/><line style="stroke:#181818;stroke-width:1.0;stroke-dasharray:2.0,2.0;" x1="36.5" x2="224.5" y1="477.875" y2="477.875"/><text fill="#000000" font-family="sans-serif" font-size="20" lengthAdjust="spacing" textLength="71" x="48.5" y="471.4805">success</text><!--SRC=[RPAnRiCW48PtdW9bIeSeRKSFbTnKhJ9KZUg-0C6N28K00koXJzyxR6oiUk00ttS_ns_2JHadlBXhAs_GyXOkejFntPhOg5_WpuyCqr59vOI9l3dLY_tc0q8KzcWkjZuTDrm4ZlCIUUsKRfMv7b3JMwt19-uGlLu76_2zaf2enlVhq3SucmXQh2EVmhdnC5okCsy_Nmd0UHqOilOkb65CoAXw4I7vW8FlNkY-5NSsnErUEBK_ZtNXOQR94eQ1SBhsmC_vP0MZI0HUkUBI0sPo4zlpt6wXI-Om35Grj9WBfy_aJiM3w67IA0IITnJuBX-SATR24ikAQ6N5eyLErXJ9Q1p_zSZWGfAuGN7of2H7CxAz-CPY5xYqBRt8fr9ey2wPIqUUQgGxAI64ag8_K6mH-mC0]--></g></svg>