<?xml version="1.0" encoding="UTF-8" standalone="no"?><svg xmlns="http://www.w3.org/2000/svg" xmlns:xlink="http://www.w3.org/1999/xlink" contentStyleType="text/css" height="618px" preserveAspectRatio="none" style="width:1519px;height:618px;background:#FFFFFF;" version="1.1" viewBox="0 0 1519 618" width="1519px" zoomAndPan="magnify"><defs/><g><rect fill="#FFFFFF" height="501.0313" style="stroke:#181818;stroke-width:1.0;" width="10" x="26.5" y="55.1563"/><rect fill="#FFFFFF" height="469.875" style="stroke:#181818;stroke-width:1.0;" width="10" x="225.5" y="86.3125"/><rect fill="#FFFFFF" height="391.5625" style="stroke:#181818;stroke-width:1.0;" width="10" x="400.5" y="125.4688"/><rect fill="#FFFFFF" height="400.5625" style="stroke:#181818;stroke-width:1.0;" width="10" x="683.5" y="164.625"/><rect fill="#FFFFFF" height="39.1563" style="stroke:#181818;stroke-width:1.0;" width="10" x="837.5" y="321.25"/><rect fill="#FFFFFF" height="39.1563" style="stroke:#181818;stroke-width:1.0;" width="10" x="1057.5" y="203.7813"/><rect fill="#FFFFFF" height="39.1563" style="stroke:#181818;stroke-width:1.0;" width="10" x="1197.5" y="399.5625"/><line style="stroke:#181818;stroke-width:0.5;stroke-dasharray:5.0,5.0;" x1="31" x2="31" y1="45.1563" y2="574.1875"/><line style="stroke:#181818;stroke-width:0.5;stroke-dasharray:5.0,5.0;" x1="230.5" x2="230.5" y1="45.1563" y2="574.1875"/><line style="stroke:#181818;stroke-width:0.5;stroke-dasharray:5.0,5.0;" x1="405" x2="405" y1="45.1563" y2="574.1875"/><line style="stroke:#181818;stroke-width:0.5;stroke-dasharray:5.0,5.0;" x1="688" x2="688" y1="45.1563" y2="574.1875"/><line style="stroke:#181818;stroke-width:0.5;stroke-dasharray:5.0,5.0;" x1="842" x2="842" y1="45.1563" y2="574.1875"/><line style="stroke:#181818;stroke-width:0.5;stroke-dasharray:5.0,5.0;" x1="1062.5" x2="1062.5" y1="45.1563" y2="574.1875"/><line style="stroke:#181818;stroke-width:0.5;stroke-dasharray:5.0,5.0;" x1="1202.5" x2="1202.5" y1="45.1563" y2="574.1875"/><line style="stroke:#181818;stroke-width:0.5;stroke-dasharray:5.0,5.0;" x1="1353.5" x2="1353.5" y1="45.1563" y2="574.1875"/><line style="stroke:#181818;stroke-width:0.5;stroke-dasharray:5.0,5.0;" x1="1470.5" x2="1470.5" y1="45.1563" y2="574.1875"/><rect fill="#E2E2F0" height="39.1563" rx="2.5" ry="2.5" style="stroke:#181818;stroke-width:0.5;" width="53" x="5" y="5"/><text fill="#000000" font-family="sans-serif" font-size="20" lengthAdjust="spacing" textLength="39" x="12" y="32.7617">SPA</text><rect fill="#E2E2F0" height="39.1563" rx="2.5" ry="2.5" style="stroke:#181818;stroke-width:0.5;" width="53" x="5" y="573.1875"/><text fill="#000000" font-family="sans-serif" font-size="20" lengthAdjust="spacing" textLength="39" x="12" y="600.9492">SPA</text><rect fill="#E2E2F0" height="39.1563" rx="2.5" ry="2.5" style="stroke:#181818;stroke-width:0.5;" width="144" x="158.5" y="5"/><text fill="#000000" font-family="sans-serif" font-size="20" lengthAdjust="spacing" textLength="130" x="165.5" y="32.7617">GestaoInfoAPI</text><rect fill="#E2E2F0" height="39.1563" rx="2.5" ry="2.5" style="stroke:#181818;stroke-width:0.5;" width="144" x="158.5" y="573.1875"/><text fill="#000000" font-family="sans-serif" font-size="20" lengthAdjust="spacing" textLength="130" x="165.5" y="600.9492">GestaoInfoAPI</text><rect fill="#E2E2F0" height="39.1563" rx="2.5" ry="2.5" style="stroke:#181818;stroke-width:0.5;" width="171" x="320" y="5"/><text fill="#000000" font-family="sans-serif" font-size="20" lengthAdjust="spacing" textLength="157" x="327" y="32.7617">ElevatorController</text><rect fill="#E2E2F0" height="39.1563" rx="2.5" ry="2.5" style="stroke:#181818;stroke-width:0.5;" width="171" x="320" y="573.1875"/><text fill="#000000" font-family="sans-serif" font-size="20" lengthAdjust="spacing" textLength="157" x="327" y="600.9492">ElevatorController</text><rect fill="#E2E2F0" height="39.1563" rx="2.5" ry="2.5" style="stroke:#181818;stroke-width:0.5;" width="151" x="613" y="5"/><text fill="#000000" font-family="sans-serif" font-size="20" lengthAdjust="spacing" textLength="137" x="620" y="32.7617">ElevatorService</text><rect fill="#E2E2F0" height="39.1563" rx="2.5" ry="2.5" style="stroke:#181818;stroke-width:0.5;" width="151" x="613" y="573.1875"/><text fill="#000000" font-family="sans-serif" font-size="20" lengthAdjust="spacing" textLength="137" x="620" y="600.9492">ElevatorService</text><rect fill="#E2E2F0" height="39.1563" rx="2.5" ry="2.5" style="stroke:#181818;stroke-width:0.5;" width="133" x="776" y="5"/><text fill="#000000" font-family="sans-serif" font-size="20" lengthAdjust="spacing" textLength="119" x="783" y="32.7617">ElevatorRepo</text><rect fill="#E2E2F0" height="39.1563" rx="2.5" ry="2.5" style="stroke:#181818;stroke-width:0.5;" width="133" x="776" y="573.1875"/><text fill="#000000" font-family="sans-serif" font-size="20" lengthAdjust="spacing" textLength="119" x="783" y="600.9492">ElevatorRepo</text><rect fill="#E2E2F0" height="39.1563" rx="2.5" ry="2.5" style="stroke:#181818;stroke-width:0.5;" width="106" x="1009.5" y="5"/><text fill="#000000" font-family="sans-serif" font-size="20" lengthAdjust="spacing" textLength="92" x="1016.5" y="32.7617">FloorRepo</text><rect fill="#E2E2F0" height="39.1563" rx="2.5" ry="2.5" style="stroke:#181818;stroke-width:0.5;" width="106" x="1009.5" y="573.1875"/><text fill="#000000" font-family="sans-serif" font-size="20" lengthAdjust="spacing" textLength="92" x="1016.5" y="600.9492">FloorRepo</text><rect fill="#E2E2F0" height="39.1563" rx="2.5" ry="2.5" style="stroke:#181818;stroke-width:0.5;" width="154" x="1125.5" y="5"/><text fill="#000000" font-family="sans-serif" font-size="20" lengthAdjust="spacing" textLength="140" x="1132.5" y="32.7617">ElevatorMapper</text><rect fill="#E2E2F0" height="39.1563" rx="2.5" ry="2.5" style="stroke:#181818;stroke-width:0.5;" width="154" x="1125.5" y="573.1875"/><text fill="#000000" font-family="sans-serif" font-size="20" lengthAdjust="spacing" textLength="140" x="1132.5" y="600.9492">ElevatorMapper</text><rect fill="#E2E2F0" height="39.1563" rx="2.5" ry="2.5" style="stroke:#181818;stroke-width:0.5;" width="128" x="1289.5" y="5"/><text fill="#000000" font-family="sans-serif" font-size="20" lengthAdjust="spacing" textLength="114" x="1296.5" y="32.7617">ElevatorDTO</text><rect fill="#E2E2F0" height="39.1563" rx="2.5" ry="2.5" style="stroke:#181818;stroke-width:0.5;" width="128" x="1289.5" y="573.1875"/><text fill="#000000" font-family="sans-serif" font-size="20" lengthAdjust="spacing" textLength="114" x="1296.5" y="600.9492">ElevatorDTO</text><rect fill="#E2E2F0" height="39.1563" rx="2.5" ry="2.5" style="stroke:#181818;stroke-width:0.5;" width="86" x="1427.5" y="5"/><text fill="#000000" font-family="sans-serif" font-size="20" lengthAdjust="spacing" textLength="72" x="1434.5" y="32.7617">Elevator</text><rect fill="#E2E2F0" height="39.1563" rx="2.5" ry="2.5" style="stroke:#181818;stroke-width:0.5;" width="86" x="1427.5" y="573.1875"/><text fill="#000000" font-family="sans-serif" font-size="20" lengthAdjust="spacing" textLength="72" x="1434.5" y="600.9492">Elevator</text><rect fill="#FFFFFF" height="501.0313" style="stroke:#181818;stroke-width:1.0;" width="10" x="26.5" y="55.1563"/><rect fill="#FFFFFF" height="469.875" style="stroke:#181818;stroke-width:1.0;" width="10" x="225.5" y="86.3125"/><rect fill="#FFFFFF" height="391.5625" style="stroke:#181818;stroke-width:1.0;" width="10" x="400.5" y="125.4688"/><rect fill="#FFFFFF" height="400.5625" style="stroke:#181818;stroke-width:1.0;" width="10" x="683.5" y="164.625"/><rect fill="#FFFFFF" height="39.1563" style="stroke:#181818;stroke-width:1.0;" width="10" x="837.5" y="321.25"/><rect fill="#FFFFFF" height="39.1563" style="stroke:#181818;stroke-width:1.0;" width="10" x="1057.5" y="203.7813"/><rect fill="#FFFFFF" height="39.1563" style="stroke:#181818;stroke-width:1.0;" width="10" x="1197.5" y="399.5625"/><polygon fill="#181818" points="213.5,82.3125,223.5,86.3125,213.5,90.3125,217.5,86.3125" style="stroke:#181818;stroke-width:1.0;"/><line style="stroke:#181818;stroke-width:1.0;" x1="36.5" x2="219.5" y1="86.3125" y2="86.3125"/><text fill="#000000" font-family="sans-serif" font-size="20" lengthAdjust="spacing" textLength="170" x="43.5" y="79.918">post(/api/elevators)</text><polygon fill="#181818" points="388.5,121.4688,398.5,125.4688,388.5,129.4688,392.5,125.4688" style="stroke:#181818;stroke-width:1.0;"/><line style="stroke:#181818;stroke-width:1.0;" x1="235.5" x2="394.5" y1="125.4688" y2="125.4688"/><text fill="#000000" font-family="sans-serif" font-size="20" lengthAdjust="spacing" textLength="38" x="242.5" y="119.0742">post</text><polygon fill="#181818" points="671.5,160.625,681.5,164.625,671.5,168.625,675.5,164.625" style="stroke:#181818;stroke-width:1.0;"/><line style="stroke:#181818;stroke-width:1.0;" x1="410.5" x2="677.5" y1="164.625" y2="164.625"/><text fill="#000000" font-family="sans-serif" font-size="20" lengthAdjust="spacing" textLength="254" x="417.5" y="158.2305">createElevator(elevatorDTO)</text><polygon fill="#181818" points="1045.5,199.7813,1055.5,203.7813,1045.5,207.7813,1049.5,203.7813" style="stroke:#181818;stroke-width:1.0;"/><line style="stroke:#181818;stroke-width:1.0;" x1="693.5" x2="1051.5" y1="203.7813" y2="203.7813"/><text fill="#000000" font-family="sans-serif" font-size="20" lengthAdjust="spacing" textLength="345" x="700.5" y="197.3867">findByDomainId(elevator.floorsAllowed)</text><polygon fill="#181818" points="704.5,238.9375,694.5,242.9375,704.5,246.9375,700.5,242.9375" style="stroke:#181818;stroke-width:1.0;"/><line style="stroke:#181818;stroke-width:1.0;stroke-dasharray:2.0,2.0;" x1="698.5" x2="1061.5" y1="242.9375" y2="242.9375"/><text fill="#000000" font-family="sans-serif" font-size="20" lengthAdjust="spacing" textLength="49" x="710.5" y="236.543">floors</text><polygon fill="#181818" points="1458.5,278.0938,1468.5,282.0938,1458.5,286.0938,1462.5,282.0938" style="stroke:#181818;stroke-width:1.0;"/><line style="stroke:#181818;stroke-width:1.0;" x1="693.5" x2="1464.5" y1="282.0938" y2="282.0938"/><text fill="#000000" font-family="sans-serif" font-size="20" lengthAdjust="spacing" textLength="56" x="700.5" y="275.6992">create</text><polygon fill="#181818" points="825.5,317.25,835.5,321.25,825.5,325.25,829.5,321.25" style="stroke:#181818;stroke-width:1.0;"/><line style="stroke:#181818;stroke-width:1.0;" x1="693.5" x2="831.5" y1="321.25" y2="321.25"/><text fill="#000000" font-family="sans-serif" font-size="20" lengthAdjust="spacing" textLength="125" x="700.5" y="314.8555">save(elevator)</text><polygon fill="#181818" points="704.5,356.4063,694.5,360.4063,704.5,364.4063,700.5,360.4063" style="stroke:#181818;stroke-width:1.0;"/><line style="stroke:#181818;stroke-width:1.0;stroke-dasharray:2.0,2.0;" x1="698.5" x2="841.5" y1="360.4063" y2="360.4063"/><text fill="#000000" font-family="sans-serif" font-size="20" lengthAdjust="spacing" textLength="70" x="710.5" y="354.0117">elevator</text><polygon fill="#181818" points="1185.5,395.5625,1195.5,399.5625,1185.5,403.5625,1189.5,399.5625" style="stroke:#181818;stroke-width:1.0;"/><line style="stroke:#181818;stroke-width:1.0;" x1="693.5" x2="1191.5" y1="399.5625" y2="399.5625"/><text fill="#000000" font-family="sans-serif" font-size="20" lengthAdjust="spacing" textLength="143" x="700.5" y="393.168">toDTO(elevator)</text><polygon fill="#181818" points="704.5,434.7188,694.5,438.7188,704.5,442.7188,700.5,438.7188" style="stroke:#181818;stroke-width:1.0;"/><line style="stroke:#181818;stroke-width:1.0;stroke-dasharray:2.0,2.0;" x1="698.5" x2="1201.5" y1="438.7188" y2="438.7188"/><text fill="#000000" font-family="sans-serif" font-size="20" lengthAdjust="spacing" textLength="112" x="710.5" y="432.3242">elevatorDTO</text><polygon fill="#181818" points="421.5,473.875,411.5,477.875,421.5,481.875,417.5,477.875" style="stroke:#181818;stroke-width:1.0;"/><line style="stroke:#181818;stroke-width:1.0;stroke-dasharray:2.0,2.0;" x1="415.5" x2="682.5" y1="477.875" y2="477.875"/><text fill="#000000" font-family="sans-serif" font-size="20" lengthAdjust="spacing" textLength="112" x="427.5" y="471.4805">elevatorDTO</text><polygon fill="#181818" points="246.5,513.0313,236.5,517.0313,246.5,521.0313,242.5,517.0313" style="stroke:#181818;stroke-width:1.0;"/><line style="stroke:#181818;stroke-width:1.0;stroke-dasharray:2.0,2.0;" x1="240.5" x2="404.5" y1="517.0313" y2="517.0313"/><text fill="#000000" font-family="sans-serif" font-size="20" lengthAdjust="spacing" textLength="141" x="252.5" y="510.6367">status code 201</text><polygon fill="#181818" points="42.5,552.1875,32.5,556.1875,42.5,560.1875,38.5,556.1875" style="stroke:#181818;stroke-width:1.0;"/><line style="stroke:#181818;stroke-width:1.0;stroke-dasharray:2.0,2.0;" x1="36.5" x2="229.5" y1="556.1875" y2="556.1875"/><text fill="#000000" font-family="sans-serif" font-size="20" lengthAdjust="spacing" textLength="71" x="48.5" y="549.793">success</text><!--SRC=[RPFBJiCm44Nt_Wghgx8eXIwpG0g5eYuG5U47B7iYMNLZotQ3uEkPiPidMVYLERupkPE4iswSyE9Yh3o3uWfgSJNnO9jOwL_WkmU6uQYbTgA9l3gLa_Fg3K8KzjZKjZmTLrm4ZkiKUJNGYcZz7ZMzDGPyulRHcsMm0jzg2OcgVBiCVOApYQ3D53aOEullbZNUXNEtQd2xpBnyVIG0rsKWH-r5w8On8QF6fv2Cmi4tJsH8mPqDSRqLJc_XTY_S3JHvnd0Yd7p9_11FNZ6QYK1F2YuzOAGhOWr3kIDTSe_XHBUI3mMlTQEUVtAzHzNVkw_9j50QOxz1ZIIoVMdccovvXfc26TRbol9TaPCI2Xv42ttUMQQKQCZJKVDClIAshU3HubilAL9JSVpNesQE98dBYht_O_9cVDTA_E3ZDN1f5VqUZsEXtAVKI4fvAf6-IWbXuXLrUtH4x0y0]--></g></svg>