<?xml version="1.0" encoding="UTF-8" standalone="no"?><svg xmlns="http://www.w3.org/2000/svg" xmlns:xlink="http://www.w3.org/1999/xlink" contentStyleType="text/css" height="500px" preserveAspectRatio="none" style="width:1346px;height:500px;background:#FFFFFF;" version="1.1" viewBox="0 0 1346 500" width="1346px" zoomAndPan="magnify"><defs/><g><rect fill="#FFFFFF" height="383.5625" style="stroke:#181818;stroke-width:1.0;" width="10" x="26.5" y="55.1563"/><rect fill="#FFFFFF" height="352.4063" style="stroke:#181818;stroke-width:1.0;" width="10" x="299.5" y="86.3125"/><rect fill="#FFFFFF" height="274.0938" style="stroke:#181818;stroke-width:1.0;" width="10" x="474.5" y="125.4688"/><rect fill="#FFFFFF" height="283.0938" style="stroke:#181818;stroke-width:1.0;" width="10" x="707.5" y="164.625"/><rect fill="#FFFFFF" height="39.1563" style="stroke:#181818;stroke-width:1.0;" width="10" x="940.5" y="203.7813"/><rect fill="#FFFFFF" height="39.1563" style="stroke:#181818;stroke-width:1.0;" width="10" x="1091.5" y="282.0938"/><line style="stroke:#181818;stroke-width:0.5;stroke-dasharray:5.0,5.0;" x1="31" x2="31" y1="45.1563" y2="456.7188"/><line style="stroke:#181818;stroke-width:0.5;stroke-dasharray:5.0,5.0;" x1="304.5" x2="304.5" y1="45.1563" y2="456.7188"/><line style="stroke:#181818;stroke-width:0.5;stroke-dasharray:5.0,5.0;" x1="479.5" x2="479.5" y1="45.1563" y2="456.7188"/><line style="stroke:#181818;stroke-width:0.5;stroke-dasharray:5.0,5.0;" x1="712.5" x2="712.5" y1="45.1563" y2="456.7188"/><line style="stroke:#181818;stroke-width:0.5;stroke-dasharray:5.0,5.0;" x1="945.5" x2="945.5" y1="45.1563" y2="456.7188"/><line style="stroke:#181818;stroke-width:0.5;stroke-dasharray:5.0,5.0;" x1="1096" x2="1096" y1="45.1563" y2="456.7188"/><line style="stroke:#181818;stroke-width:0.5;stroke-dasharray:5.0,5.0;" x1="1220" x2="1220" y1="45.1563" y2="456.7188"/><line style="stroke:#181818;stroke-width:0.5;stroke-dasharray:5.0,5.0;" x1="1310" x2="1310" y1="45.1563" y2="456.7188"/><rect fill="#E2E2F0" height="39.1563" rx="2.5" ry="2.5" style="stroke:#181818;stroke-width:0.5;" width="53" x="5" y="5"/><text fill="#000000" font-family="sans-serif" font-size="20" lengthAdjust="spacing" textLength="39" x="12" y="32.7617">SPA</text><rect fill="#E2E2F0" height="39.1563" rx="2.5" ry="2.5" style="stroke:#181818;stroke-width:0.5;" width="53" x="5" y="455.7188"/><text fill="#000000" font-family="sans-serif" font-size="20" lengthAdjust="spacing" textLength="39" x="12" y="483.4805">SPA</text><rect fill="#E2E2F0" height="39.1563" rx="2.5" ry="2.5" style="stroke:#181818;stroke-width:0.5;" width="144" x="232.5" y="5"/><text fill="#000000" font-family="sans-serif" font-size="20" lengthAdjust="spacing" textLength="130" x="239.5" y="32.7617">GestaoInfoAPI</text><rect fill="#E2E2F0" height="39.1563" rx="2.5" ry="2.5" style="stroke:#181818;stroke-width:0.5;" width="144" x="232.5" y="455.7188"/><text fill="#000000" font-family="sans-serif" font-size="20" lengthAdjust="spacing" textLength="130" x="239.5" y="483.4805">GestaoInfoAPI</text><rect fill="#E2E2F0" height="39.1563" rx="2.5" ry="2.5" style="stroke:#181818;stroke-width:0.5;" width="144" x="407.5" y="5"/><text fill="#000000" font-family="sans-serif" font-size="20" lengthAdjust="spacing" textLength="130" x="414.5" y="32.7617">FloorController</text><rect fill="#E2E2F0" height="39.1563" rx="2.5" ry="2.5" style="stroke:#181818;stroke-width:0.5;" width="144" x="407.5" y="455.7188"/><text fill="#000000" font-family="sans-serif" font-size="20" lengthAdjust="spacing" textLength="130" x="414.5" y="483.4805">FloorController</text><rect fill="#E2E2F0" height="39.1563" rx="2.5" ry="2.5" style="stroke:#181818;stroke-width:0.5;" width="124" x="650.5" y="5"/><text fill="#000000" font-family="sans-serif" font-size="20" lengthAdjust="spacing" textLength="110" x="657.5" y="32.7617">FloorService</text><rect fill="#E2E2F0" height="39.1563" rx="2.5" ry="2.5" style="stroke:#181818;stroke-width:0.5;" width="124" x="650.5" y="455.7188"/><text fill="#000000" font-family="sans-serif" font-size="20" lengthAdjust="spacing" textLength="110" x="657.5" y="483.4805">FloorService</text><rect fill="#E2E2F0" height="39.1563" rx="2.5" ry="2.5" style="stroke:#181818;stroke-width:0.5;" width="106" x="892.5" y="5"/><text fill="#000000" font-family="sans-serif" font-size="20" lengthAdjust="spacing" textLength="92" x="899.5" y="32.7617">FloorRepo</text><rect fill="#E2E2F0" height="39.1563" rx="2.5" ry="2.5" style="stroke:#181818;stroke-width:0.5;" width="106" x="892.5" y="455.7188"/><text fill="#000000" font-family="sans-serif" font-size="20" lengthAdjust="spacing" textLength="92" x="899.5" y="483.4805">FloorRepo</text><rect fill="#E2E2F0" height="39.1563" rx="2.5" ry="2.5" style="stroke:#181818;stroke-width:0.5;" width="127" x="1033" y="5"/><text fill="#000000" font-family="sans-serif" font-size="20" lengthAdjust="spacing" textLength="113" x="1040" y="32.7617">FloorMapper</text><rect fill="#E2E2F0" height="39.1563" rx="2.5" ry="2.5" style="stroke:#181818;stroke-width:0.5;" width="127" x="1033" y="455.7188"/><text fill="#000000" font-family="sans-serif" font-size="20" lengthAdjust="spacing" textLength="113" x="1040" y="483.4805">FloorMapper</text><rect fill="#E2E2F0" height="39.1563" rx="2.5" ry="2.5" style="stroke:#181818;stroke-width:0.5;" width="101" x="1170" y="5"/><text fill="#000000" font-family="sans-serif" font-size="20" lengthAdjust="spacing" textLength="87" x="1177" y="32.7617">FloorDTO</text><rect fill="#E2E2F0" height="39.1563" rx="2.5" ry="2.5" style="stroke:#181818;stroke-width:0.5;" width="101" x="1170" y="455.7188"/><text fill="#000000" font-family="sans-serif" font-size="20" lengthAdjust="spacing" textLength="87" x="1177" y="483.4805">FloorDTO</text><rect fill="#E2E2F0" height="39.1563" rx="2.5" ry="2.5" style="stroke:#181818;stroke-width:0.5;" width="59" x="1281" y="5"/><text fill="#000000" font-family="sans-serif" font-size="20" lengthAdjust="spacing" textLength="45" x="1288" y="32.7617">Floor</text><rect fill="#E2E2F0" height="39.1563" rx="2.5" ry="2.5" style="stroke:#181818;stroke-width:0.5;" width="59" x="1281" y="455.7188"/><text fill="#000000" font-family="sans-serif" font-size="20" lengthAdjust="spacing" textLength="45" x="1288" y="483.4805">Floor</text><rect fill="#FFFFFF" height="383.5625" style="stroke:#181818;stroke-width:1.0;" width="10" x="26.5" y="55.1563"/><rect fill="#FFFFFF" height="352.4063" style="stroke:#181818;stroke-width:1.0;" width="10" x="299.5" y="86.3125"/><rect fill="#FFFFFF" height="274.0938" style="stroke:#181818;stroke-width:1.0;" width="10" x="474.5" y="125.4688"/><rect fill="#FFFFFF" height="283.0938" style="stroke:#181818;stroke-width:1.0;" width="10" x="707.5" y="164.625"/><rect fill="#FFFFFF" height="39.1563" style="stroke:#181818;stroke-width:1.0;" width="10" x="940.5" y="203.7813"/><rect fill="#FFFFFF" height="39.1563" style="stroke:#181818;stroke-width:1.0;" width="10" x="1091.5" y="282.0938"/><polygon fill="#181818" points="287.5,82.3125,297.5,86.3125,287.5,90.3125,291.5,86.3125" style="stroke:#181818;stroke-width:1.0;"/><line style="stroke:#181818;stroke-width:1.0;" x1="36.5" x2="293.5" y1="86.3125" y2="86.3125"/><text fill="#000000" font-family="sans-serif" font-size="20" lengthAdjust="spacing" textLength="244" x="43.5" y="79.918">get(/api/floors/buildingId/:id)</text><polygon fill="#181818" points="462.5,121.4688,472.5,125.4688,462.5,129.4688,466.5,125.4688" style="stroke:#181818;stroke-width:1.0;"/><line style="stroke:#181818;stroke-width:1.0;" x1="309.5" x2="468.5" y1="125.4688" y2="125.4688"/><text fill="#000000" font-family="sans-serif" font-size="20" lengthAdjust="spacing" textLength="28" x="316.5" y="119.0742">get</text><polygon fill="#181818" points="695.5,160.625,705.5,164.625,695.5,168.625,699.5,164.625" style="stroke:#181818;stroke-width:1.0;"/><line style="stroke:#181818;stroke-width:1.0;" x1="484.5" x2="701.5" y1="164.625" y2="164.625"/><text fill="#000000" font-family="sans-serif" font-size="20" lengthAdjust="spacing" textLength="204" x="491.5" y="158.2305">getFloorsByBuildingId()</text><polygon fill="#181818" points="928.5,199.7813,938.5,203.7813,928.5,207.7813,932.5,203.7813" style="stroke:#181818;stroke-width:1.0;"/><line style="stroke:#181818;stroke-width:1.0;" x1="717.5" x2="934.5" y1="203.7813" y2="203.7813"/><text fill="#000000" font-family="sans-serif" font-size="20" lengthAdjust="spacing" textLength="204" x="724.5" y="197.3867">getFloorsByBuildingId()</text><polygon fill="#181818" points="728.5,238.9375,718.5,242.9375,728.5,246.9375,724.5,242.9375" style="stroke:#181818;stroke-width:1.0;"/><line style="stroke:#181818;stroke-width:1.0;stroke-dasharray:2.0,2.0;" x1="722.5" x2="944.5" y1="242.9375" y2="242.9375"/><text fill="#000000" font-family="sans-serif" font-size="20" lengthAdjust="spacing" textLength="49" x="734.5" y="236.543">floors</text><polygon fill="#181818" points="1079.5,278.0938,1089.5,282.0938,1079.5,286.0938,1083.5,282.0938" style="stroke:#181818;stroke-width:1.0;"/><line style="stroke:#181818;stroke-width:1.0;" x1="717.5" x2="1085.5" y1="282.0938" y2="282.0938"/><text fill="#000000" font-family="sans-serif" font-size="20" lengthAdjust="spacing" textLength="355" x="724.5" y="275.6992">converts list of floors to list of floorDTOs</text><polygon fill="#181818" points="728.5,317.25,718.5,321.25,728.5,325.25,724.5,321.25" style="stroke:#181818;stroke-width:1.0;"/><line style="stroke:#181818;stroke-width:1.0;stroke-dasharray:2.0,2.0;" x1="722.5" x2="1095.5" y1="321.25" y2="321.25"/><text fill="#000000" font-family="sans-serif" font-size="20" lengthAdjust="spacing" textLength="91" x="734.5" y="314.8555">floorsDTO</text><polygon fill="#181818" points="495.5,356.4063,485.5,360.4063,495.5,364.4063,491.5,360.4063" style="stroke:#181818;stroke-width:1.0;"/><line style="stroke:#181818;stroke-width:1.0;stroke-dasharray:2.0,2.0;" x1="489.5" x2="706.5" y1="360.4063" y2="360.4063"/><text fill="#000000" font-family="sans-serif" font-size="20" lengthAdjust="spacing" textLength="91" x="501.5" y="354.0117">floorsDTO</text><polygon fill="#181818" points="320.5,395.5625,310.5,399.5625,320.5,403.5625,316.5,399.5625" style="stroke:#181818;stroke-width:1.0;"/><line style="stroke:#181818;stroke-width:1.0;stroke-dasharray:2.0,2.0;" x1="314.5" x2="478.5" y1="399.5625" y2="399.5625"/><text fill="#000000" font-family="sans-serif" font-size="20" lengthAdjust="spacing" textLength="141" x="326.5" y="393.168">status code 201</text><polygon fill="#181818" points="42.5,434.7188,32.5,438.7188,42.5,442.7188,38.5,438.7188" style="stroke:#181818;stroke-width:1.0;"/><line style="stroke:#181818;stroke-width:1.0;stroke-dasharray:2.0,2.0;" x1="36.5" x2="303.5" y1="438.7188" y2="438.7188"/><text fill="#000000" font-family="sans-serif" font-size="20" lengthAdjust="spacing" textLength="71" x="48.5" y="432.3242">success</text><!--SRC=[ZLBBRiCW4Bpp5IYdz12vxJ67IdaebGzLexe_G64TeH2mO6sf_VhkuYIsAnzwO07Fp3x6fBFrZOhgue8-Wv46QjKwF0IFbVq1-Vme24QhRQCyokgucTmNhv1GXTBNONCi5r8bIVkKSd0Xn1qbZC4vY9cqm-XcM1N4pch8b2fsCumFQ4A6-J23lwcckTQWumnX__cUKTfdq1uA5sMz44gZxHH2dfgMNBtmT6jv0bmMgh55pPfKVBNM6UjFfIdMrZmCGlP2K60bZvob0vnT41oPG0DdF3UIjj_RUzRbA2NR8YYmWZtuXoHRnK6kRcNwneM1AUcMcAnRInry1n6JT3QX3FLL935Clv2JQIZ6hjFwMuhj7bLZLb_ixip0kpfoSviU6BQ9sZ7y79_6QNe3iy5SxhWXTgirfCbe_1T6LwBz0W00]--></g></svg>