<?xml version="1.0" encoding="UTF-8" standalone="no"?><svg xmlns="http://www.w3.org/2000/svg" xmlns:xlink="http://www.w3.org/1999/xlink" contentStyleType="text/css" height="622px" preserveAspectRatio="none" style="width:1084px;height:622px;background:#FFFFFF;" version="1.1" viewBox="0 0 1084 622" width="1084px" zoomAndPan="magnify"><defs/><g><line style="stroke:#181818;stroke-width:0.5;stroke-dasharray:5.0,5.0;" x1="74" x2="74" y1="90.1563" y2="532.875"/><line style="stroke:#181818;stroke-width:0.5;stroke-dasharray:5.0,5.0;" x1="480" x2="480" y1="90.1563" y2="532.875"/><line style="stroke:#181818;stroke-width:0.5;stroke-dasharray:5.0,5.0;" x1="692.5" x2="692.5" y1="90.1563" y2="532.875"/><text fill="#000000" font-family="sans-serif" font-size="20" lengthAdjust="spacing" textLength="133" x="5" y="85.7617">GestorCampus</text><ellipse cx="74.5" cy="13.5" fill="#E2E2F0" rx="8" ry="8" style="stroke:#181818;stroke-width:0.5;"/><path d="M74.5,21.5 L74.5,48.5 M61.5,29.5 L87.5,29.5 M74.5,48.5 L61.5,63.5 M74.5,48.5 L87.5,63.5 " fill="none" style="stroke:#181818;stroke-width:0.5;"/><text fill="#000000" font-family="sans-serif" font-size="20" lengthAdjust="spacing" textLength="133" x="5" y="552.6367">GestorCampus</text><ellipse cx="74.5" cy="565.5313" fill="#E2E2F0" rx="8" ry="8" style="stroke:#181818;stroke-width:0.5;"/><path d="M74.5,573.5313 L74.5,600.5313 M61.5,581.5313 L87.5,581.5313 M74.5,600.5313 L61.5,615.5313 M74.5,600.5313 L87.5,615.5313 " fill="none" style="stroke:#181818;stroke-width:0.5;"/><rect fill="#E2E2F0" height="39.1563" rx="2.5" ry="2.5" style="stroke:#181818;stroke-width:0.5;" width="53" x="454" y="50"/><text fill="#000000" font-family="sans-serif" font-size="20" lengthAdjust="spacing" textLength="39" x="461" y="77.7617">SPA</text><rect fill="#E2E2F0" height="39.1563" rx="2.5" ry="2.5" style="stroke:#181818;stroke-width:0.5;" width="53" x="454" y="531.875"/><text fill="#000000" font-family="sans-serif" font-size="20" lengthAdjust="spacing" textLength="39" x="461" y="559.6367">SPA</text><rect fill="#E2E2F0" height="39.1563" rx="2.5" ry="2.5" style="stroke:#181818;stroke-width:0.5;" width="144" x="620.5" y="50"/><text fill="#000000" font-family="sans-serif" font-size="20" lengthAdjust="spacing" textLength="130" x="627.5" y="77.7617">GestaoInfoAPI</text><rect fill="#E2E2F0" height="39.1563" rx="2.5" ry="2.5" style="stroke:#181818;stroke-width:0.5;" width="144" x="620.5" y="531.875"/><text fill="#000000" font-family="sans-serif" font-size="20" lengthAdjust="spacing" textLength="130" x="627.5" y="559.6367">GestaoInfoAPI</text><polygon fill="#181818" points="468.5,127.3125,478.5,131.3125,468.5,135.3125,472.5,131.3125" style="stroke:#181818;stroke-width:1.0;"/><line style="stroke:#181818;stroke-width:1.0;" x1="74.5" x2="474.5" y1="131.3125" y2="131.3125"/><text fill="#000000" font-family="sans-serif" font-size="20" lengthAdjust="spacing" textLength="253" x="81.5" y="124.918">requisita página dos andares</text><polygon fill="#181818" points="85.5,166.4688,75.5,170.4688,85.5,174.4688,81.5,170.4688" style="stroke:#181818;stroke-width:1.0;"/><line style="stroke:#181818;stroke-width:1.0;" x1="79.5" x2="479.5" y1="170.4688" y2="170.4688"/><text fill="#000000" font-family="sans-serif" font-size="20" lengthAdjust="spacing" textLength="242" x="91.5" y="164.0742">retorna página dos andares</text><polygon fill="#181818" points="468.5,205.625,478.5,209.625,468.5,213.625,472.5,209.625" style="stroke:#181818;stroke-width:1.0;"/><line style="stroke:#181818;stroke-width:1.0;" x1="74.5" x2="474.5" y1="209.625" y2="209.625"/><text fill="#000000" font-family="sans-serif" font-size="20" lengthAdjust="spacing" textLength="365" x="81.5" y="203.2305">seleciona o andar que pretende da tabela</text><polygon fill="#181818" points="85.5,244.7813,75.5,248.7813,85.5,252.7813,81.5,248.7813" style="stroke:#181818;stroke-width:1.0;"/><line style="stroke:#181818;stroke-width:1.0;" x1="79.5" x2="479.5" y1="248.7813" y2="248.7813"/><text fill="#000000" font-family="sans-serif" font-size="20" lengthAdjust="spacing" textLength="341" x="91.5" y="242.3867">mostra formulário com dados do andar</text><polygon fill="#181818" points="468.5,283.9375,478.5,287.9375,468.5,291.9375,472.5,287.9375" style="stroke:#181818;stroke-width:1.0;"/><line style="stroke:#181818;stroke-width:1.0;" x1="74.5" x2="474.5" y1="287.9375" y2="287.9375"/><text fill="#000000" font-family="sans-serif" font-size="20" lengthAdjust="spacing" textLength="382" x="81.5" y="281.543">seleciona botão de dar upload do floor map</text><polygon fill="#181818" points="468.5,323.0938,478.5,327.0938,468.5,331.0938,472.5,327.0938" style="stroke:#181818;stroke-width:1.0;"/><line style="stroke:#181818;stroke-width:1.0;" x1="74.5" x2="474.5" y1="327.0938" y2="327.0938"/><text fill="#000000" font-family="sans-serif" font-size="20" lengthAdjust="spacing" textLength="285" x="81.5" y="320.6992">seleciona o ficheiro do floor map</text><polygon fill="#181818" points="680.5,362.25,690.5,366.25,680.5,370.25,684.5,366.25" style="stroke:#181818;stroke-width:1.0;"/><line style="stroke:#181818;stroke-width:1.0;" x1="480.5" x2="686.5" y1="366.25" y2="366.25"/><text fill="#000000" font-family="sans-serif" font-size="20" lengthAdjust="spacing" textLength="188" x="487.5" y="359.8555">patch(/api/floorMaps)</text><path d="M697,379.25 L697,439.25 L1077,439.25 L1077,389.25 L1067,379.25 L697,379.25 " fill="#FEFFDD" style="stroke:#181818;stroke-width:0.5;"/><path d="M1067,379.25 L1067,389.25 L1077,389.25 L1067,379.25 " fill="#FEFFDD" style="stroke:#181818;stroke-width:0.5;"/><text fill="#000000" font-family="sans-serif" font-size="20" lengthAdjust="spacing" textLength="318" x="703" y="405.0117">Restantes passos representados no</text><text fill="#000000" font-family="sans-serif" font-size="20" lengthAdjust="spacing" textLength="359" x="703" y="430.168">diagrama da API disponivel na pasta API</text><polygon fill="#181818" points="491.5,471.7188,481.5,475.7188,491.5,479.7188,487.5,475.7188" style="stroke:#181818;stroke-width:1.0;"/><line style="stroke:#181818;stroke-width:1.0;stroke-dasharray:2.0,2.0;" x1="485.5" x2="691.5" y1="475.7188" y2="475.7188"/><text fill="#000000" font-family="sans-serif" font-size="20" lengthAdjust="spacing" textLength="71" x="497.5" y="469.3242">success</text><polygon fill="#181818" points="85.5,510.875,75.5,514.875,85.5,518.875,81.5,514.875" style="stroke:#181818;stroke-width:1.0;"/><line style="stroke:#181818;stroke-width:1.0;stroke-dasharray:2.0,2.0;" x1="79.5" x2="479.5" y1="514.875" y2="514.875"/><text fill="#000000" font-family="sans-serif" font-size="20" lengthAdjust="spacing" textLength="141" x="91.5" y="508.4805">retorna sucesso</text><!--SRC=[TP51IaCn48RtESNGbIwAuh8BeGXA5qAnU81fCgyTcfT9apmNtgPub5xCcTSg56qs8UJx_vdvf-uuPIpOH_4x2X2emo6sPqbjnPy43_VEeMzIu8MgNa_Ovw42LdYlL9nJRMFF6LE3rN9-yPwO16MHEfal5nCJwUsSAM7wQFmC2kq7hjmGyl6muOGGHFrJm4BLAMAaAGpL1jB_uALffKYUHHav4R0V2B8QK0e40Q7XcY9U-lTIMq7efFH3F1uA2tZfbRP2uUnqjT9Qsl5BOBGlCEGe64pLHT7qUipNM-pORucBNE8_pMbcCyZO_FRc3ZFVZSGhvdhhN996K7YpRI2TaU10pvi5dnfLrTMgtHVIuIkbDiwIv8G5nesk7YqGqmQkMH9_K0IB6TLat9Y61bR9EQEcloCCtbCzB-dFblHNFyLz0m00]--></g></svg>