<?xml version="1.0" encoding="UTF-8" standalone="no"?><svg xmlns="http://www.w3.org/2000/svg" xmlns:xlink="http://www.w3.org/1999/xlink" contentStyleType="text/css" height="635px" preserveAspectRatio="none" style="width:1086px;height:635px;background:#FFFFFF;" version="1.1" viewBox="0 0 1086 635" width="1086px" zoomAndPan="magnify"><defs/><g><line style="stroke:#181818;stroke-width:0.5;stroke-dasharray:5.0,5.0;" x1="74" x2="74" y1="90.1563" y2="545.875"/><line style="stroke:#181818;stroke-width:0.5;stroke-dasharray:5.0,5.0;" x1="351" x2="351" y1="90.1563" y2="545.875"/><line style="stroke:#181818;stroke-width:0.5;stroke-dasharray:5.0,5.0;" x1="694.5" x2="694.5" y1="90.1563" y2="545.875"/><text fill="#000000" font-family="sans-serif" font-size="20" lengthAdjust="spacing" textLength="133" x="5" y="85.7617">GestorCampus</text><ellipse cx="74.5" cy="13.5" fill="#E2E2F0" rx="8" ry="8" style="stroke:#181818;stroke-width:0.5;"/><path d="M74.5,21.5 L74.5,48.5 M61.5,29.5 L87.5,29.5 M74.5,48.5 L61.5,63.5 M74.5,48.5 L87.5,63.5 " fill="none" style="stroke:#181818;stroke-width:0.5;"/><text fill="#000000" font-family="sans-serif" font-size="20" lengthAdjust="spacing" textLength="133" x="5" y="565.6367">GestorCampus</text><ellipse cx="74.5" cy="578.5313" fill="#E2E2F0" rx="8" ry="8" style="stroke:#181818;stroke-width:0.5;"/><path d="M74.5,586.5313 L74.5,613.5313 M61.5,594.5313 L87.5,594.5313 M74.5,613.5313 L61.5,628.5313 M74.5,613.5313 L87.5,628.5313 " fill="none" style="stroke:#181818;stroke-width:0.5;"/><rect fill="#E2E2F0" height="39.1563" rx="2.5" ry="2.5" style="stroke:#181818;stroke-width:0.5;" width="53" x="325" y="50"/><text fill="#000000" font-family="sans-serif" font-size="20" lengthAdjust="spacing" textLength="39" x="332" y="77.7617">SPA</text><rect fill="#E2E2F0" height="39.1563" rx="2.5" ry="2.5" style="stroke:#181818;stroke-width:0.5;" width="53" x="325" y="544.875"/><text fill="#000000" font-family="sans-serif" font-size="20" lengthAdjust="spacing" textLength="39" x="332" y="572.6367">SPA</text><rect fill="#E2E2F0" height="39.1563" rx="2.5" ry="2.5" style="stroke:#181818;stroke-width:0.5;" width="144" x="622.5" y="50"/><text fill="#000000" font-family="sans-serif" font-size="20" lengthAdjust="spacing" textLength="130" x="629.5" y="77.7617">GestaoInfoAPI</text><rect fill="#E2E2F0" height="39.1563" rx="2.5" ry="2.5" style="stroke:#181818;stroke-width:0.5;" width="144" x="622.5" y="544.875"/><text fill="#000000" font-family="sans-serif" font-size="20" lengthAdjust="spacing" textLength="130" x="629.5" y="572.6367">GestaoInfoAPI</text><polygon fill="#181818" points="339.5,127.3125,349.5,131.3125,339.5,135.3125,343.5,131.3125" style="stroke:#181818;stroke-width:1.0;"/><line style="stroke:#181818;stroke-width:1.0;" x1="74.5" x2="345.5" y1="131.3125" y2="131.3125"/><text fill="#000000" font-family="sans-serif" font-size="20" lengthAdjust="spacing" textLength="253" x="81.5" y="124.918">requisita página dos andares</text><polygon fill="#181818" points="85.5,166.4688,75.5,170.4688,85.5,174.4688,81.5,170.4688" style="stroke:#181818;stroke-width:1.0;"/><line style="stroke:#181818;stroke-width:1.0;" x1="79.5" x2="350.5" y1="170.4688" y2="170.4688"/><text fill="#000000" font-family="sans-serif" font-size="20" lengthAdjust="spacing" textLength="242" x="91.5" y="164.0742">retorna página dos andares</text><polygon fill="#181818" points="682.5,205.625,692.5,209.625,682.5,213.625,686.5,209.625" style="stroke:#181818;stroke-width:1.0;"/><line style="stroke:#181818;stroke-width:1.0;" x1="351.5" x2="688.5" y1="209.625" y2="209.625"/><text fill="#000000" font-family="sans-serif" font-size="20" lengthAdjust="spacing" textLength="155" x="358.5" y="203.2305">get(/api/buildings)</text><polygon fill="#181818" points="362.5,244.7813,352.5,248.7813,362.5,252.7813,358.5,248.7813" style="stroke:#181818;stroke-width:1.0;"/><line style="stroke:#181818;stroke-width:1.0;stroke-dasharray:2.0,2.0;" x1="356.5" x2="693.5" y1="248.7813" y2="248.7813"/><text fill="#000000" font-family="sans-serif" font-size="20" lengthAdjust="spacing" textLength="209" x="368.5" y="242.3867">retorna lista de edificios</text><line style="stroke:#181818;stroke-width:1.0;" x1="351.5" x2="393.5" y1="287.9375" y2="287.9375"/><line style="stroke:#181818;stroke-width:1.0;" x1="393.5" x2="393.5" y1="287.9375" y2="300.9375"/><line style="stroke:#181818;stroke-width:1.0;" x1="352.5" x2="393.5" y1="300.9375" y2="300.9375"/><polygon fill="#181818" points="362.5,296.9375,352.5,300.9375,362.5,304.9375,358.5,300.9375" style="stroke:#181818;stroke-width:1.0;"/><text fill="#000000" font-family="sans-serif" font-size="20" lengthAdjust="spacing" textLength="329" x="358.5" y="281.543">mostra lista edifícios numa select box</text><polygon fill="#181818" points="339.5,336.0938,349.5,340.0938,339.5,344.0938,343.5,340.0938" style="stroke:#181818;stroke-width:1.0;"/><line style="stroke:#181818;stroke-width:1.0;" x1="74.5" x2="345.5" y1="340.0938" y2="340.0938"/><text fill="#000000" font-family="sans-serif" font-size="20" lengthAdjust="spacing" textLength="149" x="81.5" y="333.6992">seleciona edificio</text><polygon fill="#181818" points="682.5,375.25,692.5,379.25,682.5,383.25,686.5,379.25" style="stroke:#181818;stroke-width:1.0;"/><line style="stroke:#181818;stroke-width:1.0;" x1="351.5" x2="688.5" y1="379.25" y2="379.25"/><text fill="#000000" font-family="sans-serif" font-size="20" lengthAdjust="spacing" textLength="244" x="358.5" y="372.8555">get(/api/floors/buildingId/:id)</text><path d="M699,392.25 L699,452.25 L1079,452.25 L1079,402.25 L1069,392.25 L699,392.25 " fill="#FEFFDD" style="stroke:#181818;stroke-width:0.5;"/><path d="M1069,392.25 L1069,402.25 L1079,402.25 L1069,392.25 " fill="#FEFFDD" style="stroke:#181818;stroke-width:0.5;"/><text fill="#000000" font-family="sans-serif" font-size="20" lengthAdjust="spacing" textLength="318" x="705" y="418.0117">Restantes passos representados no</text><text fill="#000000" font-family="sans-serif" font-size="20" lengthAdjust="spacing" textLength="359" x="705" y="443.168">diagrama da API disponivel na pasta API</text><polygon fill="#181818" points="362.5,484.7188,352.5,488.7188,362.5,492.7188,358.5,488.7188" style="stroke:#181818;stroke-width:1.0;"/><line style="stroke:#181818;stroke-width:1.0;stroke-dasharray:2.0,2.0;" x1="356.5" x2="693.5" y1="488.7188" y2="488.7188"/><text fill="#000000" font-family="sans-serif" font-size="20" lengthAdjust="spacing" textLength="209" x="368.5" y="482.3242">retorna lista de andares</text><polygon fill="#181818" points="85.5,523.875,75.5,527.875,85.5,531.875,81.5,527.875" style="stroke:#181818;stroke-width:1.0;"/><line style="stroke:#181818;stroke-width:1.0;stroke-dasharray:2.0,2.0;" x1="79.5" x2="350.5" y1="527.875" y2="527.875"/><text fill="#000000" font-family="sans-serif" font-size="20" lengthAdjust="spacing" textLength="209" x="91.5" y="521.4805">retorna lista de andares</text><!--SRC=[XP51JWCn34NtEON5YYwg8fPT85L8eEugAWxWDfx1wemTaWn2t8O3S8fU3BjLMvM2o2QAyhxzlrqsB0apzfskDnGXKeD3LnzKwf8_26vlGi1rrGoFLEownpuD1R30Sw4SWcahhpcXL5WkPcVlAvUWpgNHsM9-vIAxGt0bZE-SdqAcru4BLuIq_MnP4A9QVOcOgGH3d7I5esP0VWSFf3MOGalrUeA99wk1kyZIbb6m3nYVckuhTMm6BJDGvCPiwwdGZkkrr7p0dDb-EGGoz0Y5EbfNMEdxZqYx3rR1Oza_x3MTQYv7b_CucN8SXI1Q2JAtBnMqSGq4iFFauvHA1HAMOZOo9SjEKj578Rh78cDh2xLSkDD6Bac5twW37nvw5jy3IGJl5FwPpTakBfPnWNq3]--></g></svg>