<?xml version="1.0" encoding="UTF-8" standalone="no"?><svg xmlns="http://www.w3.org/2000/svg" xmlns:xlink="http://www.w3.org/1999/xlink" contentStyleType="text/css" height="661px" preserveAspectRatio="none" style="width:1208px;height:661px;background:#FFFFFF;" version="1.1" viewBox="0 0 1208 661" width="1208px" zoomAndPan="magnify"><defs/><g><line style="stroke:#181818;stroke-width:0.5;stroke-dasharray:5.0,5.0;" x1="62" x2="62" y1="90.1563" y2="572.0313"/><line style="stroke:#181818;stroke-width:0.5;stroke-dasharray:5.0,5.0;" x1="464.5" x2="464.5" y1="90.1563" y2="572.0313"/><line style="stroke:#181818;stroke-width:0.5;stroke-dasharray:5.0,5.0;" x1="816" x2="816" y1="90.1563" y2="572.0313"/><text fill="#000000" font-family="sans-serif" font-size="20" lengthAdjust="spacing" textLength="108" x="5" y="85.7617">GestorFrota</text><ellipse cx="62" cy="13.5" fill="#E2E2F0" rx="8" ry="8" style="stroke:#181818;stroke-width:0.5;"/><path d="M62,21.5 L62,48.5 M49,29.5 L75,29.5 M62,48.5 L49,63.5 M62,48.5 L75,63.5 " fill="none" style="stroke:#181818;stroke-width:0.5;"/><text fill="#000000" font-family="sans-serif" font-size="20" lengthAdjust="spacing" textLength="108" x="5" y="591.793">GestorFrota</text><ellipse cx="62" cy="604.6875" fill="#E2E2F0" rx="8" ry="8" style="stroke:#181818;stroke-width:0.5;"/><path d="M62,612.6875 L62,639.6875 M49,620.6875 L75,620.6875 M62,639.6875 L49,654.6875 M62,639.6875 L75,654.6875 " fill="none" style="stroke:#181818;stroke-width:0.5;"/><rect fill="#E2E2F0" height="39.1563" rx="2.5" ry="2.5" style="stroke:#181818;stroke-width:0.5;" width="53" x="438.5" y="50"/><text fill="#000000" font-family="sans-serif" font-size="20" lengthAdjust="spacing" textLength="39" x="445.5" y="77.7617">SPA</text><rect fill="#E2E2F0" height="39.1563" rx="2.5" ry="2.5" style="stroke:#181818;stroke-width:0.5;" width="53" x="438.5" y="571.0313"/><text fill="#000000" font-family="sans-serif" font-size="20" lengthAdjust="spacing" textLength="39" x="445.5" y="598.793">SPA</text><rect fill="#E2E2F0" height="39.1563" rx="2.5" ry="2.5" style="stroke:#181818;stroke-width:0.5;" width="144" x="744" y="50"/><text fill="#000000" font-family="sans-serif" font-size="20" lengthAdjust="spacing" textLength="130" x="751" y="77.7617">GestaoInfoAPI</text><rect fill="#E2E2F0" height="39.1563" rx="2.5" ry="2.5" style="stroke:#181818;stroke-width:0.5;" width="144" x="744" y="571.0313"/><text fill="#000000" font-family="sans-serif" font-size="20" lengthAdjust="spacing" textLength="130" x="751" y="598.793">GestaoInfoAPI</text><polygon fill="#181818" points="453,127.3125,463,131.3125,453,135.3125,457,131.3125" style="stroke:#181818;stroke-width:1.0;"/><line style="stroke:#181818;stroke-width:1.0;" x1="62" x2="459" y1="131.3125" y2="131.3125"/><text fill="#000000" font-family="sans-serif" font-size="20" lengthAdjust="spacing" textLength="298" x="69" y="124.918">requisita página dos tipos de robo</text><polygon fill="#181818" points="73,166.4688,63,170.4688,73,174.4688,69,170.4688" style="stroke:#181818;stroke-width:1.0;"/><line style="stroke:#181818;stroke-width:1.0;" x1="67" x2="464" y1="170.4688" y2="170.4688"/><text fill="#000000" font-family="sans-serif" font-size="20" lengthAdjust="spacing" textLength="287" x="79" y="164.0742">retorna página dos tipos de robo</text><polygon fill="#181818" points="453,205.625,463,209.625,453,213.625,457,209.625" style="stroke:#181818;stroke-width:1.0;"/><line style="stroke:#181818;stroke-width:1.0;" x1="62" x2="459" y1="209.625" y2="209.625"/><text fill="#000000" font-family="sans-serif" font-size="20" lengthAdjust="spacing" textLength="367" x="69" y="203.2305">seleciona opção de adicionar tipo de robo</text><polygon fill="#181818" points="73,244.7813,63,248.7813,73,252.7813,69,248.7813" style="stroke:#181818;stroke-width:1.0;"/><line style="stroke:#181818;stroke-width:1.0;" x1="67" x2="464" y1="248.7813" y2="248.7813"/><text fill="#000000" font-family="sans-serif" font-size="20" lengthAdjust="spacing" textLength="379" x="79" y="242.3867">mostra formulário de adicionar tipo de robo</text><polygon fill="#181818" points="804,283.9375,814,287.9375,804,291.9375,808,287.9375" style="stroke:#181818;stroke-width:1.0;"/><line style="stroke:#181818;stroke-width:1.0;" x1="465" x2="810" y1="287.9375" y2="287.9375"/><text fill="#000000" font-family="sans-serif" font-size="20" lengthAdjust="spacing" textLength="167" x="472" y="281.543">get(/api/tastTypes)</text><polygon fill="#181818" points="476,323.0938,466,327.0938,476,331.0938,472,327.0938" style="stroke:#181818;stroke-width:1.0;"/><line style="stroke:#181818;stroke-width:1.0;stroke-dasharray:2.0,2.0;" x1="470" x2="815" y1="327.0938" y2="327.0938"/><text fill="#000000" font-family="sans-serif" font-size="20" lengthAdjust="spacing" textLength="327" x="482" y="320.6992">mostra tipos de tarefas na select box</text><polygon fill="#181818" points="453,362.25,463,366.25,453,370.25,457,366.25" style="stroke:#181818;stroke-width:1.0;"/><line style="stroke:#181818;stroke-width:1.0;" x1="62" x2="459" y1="366.25" y2="366.25"/><text fill="#000000" font-family="sans-serif" font-size="20" lengthAdjust="spacing" textLength="272" x="69" y="359.8555">preenche formulário e submete</text><polygon fill="#181818" points="804,401.4063,814,405.4063,804,409.4063,808,405.4063" style="stroke:#181818;stroke-width:1.0;"/><line style="stroke:#181818;stroke-width:1.0;" x1="465" x2="810" y1="405.4063" y2="405.4063"/><text fill="#000000" font-family="sans-serif" font-size="20" lengthAdjust="spacing" textLength="190" x="472" y="399.0117">post(/api/robotTypes)</text><path d="M821,418.4063 L821,478.4063 L1201,478.4063 L1201,428.4063 L1191,418.4063 L821,418.4063 " fill="#FEFFDD" style="stroke:#181818;stroke-width:0.5;"/><path d="M1191,418.4063 L1191,428.4063 L1201,428.4063 L1191,418.4063 " fill="#FEFFDD" style="stroke:#181818;stroke-width:0.5;"/><text fill="#000000" font-family="sans-serif" font-size="20" lengthAdjust="spacing" textLength="318" x="827" y="444.168">Restantes passos representados no</text><text fill="#000000" font-family="sans-serif" font-size="20" lengthAdjust="spacing" textLength="359" x="827" y="469.3242">diagrama da API disponivel na pasta API</text><polygon fill="#181818" points="476,510.875,466,514.875,476,518.875,472,514.875" style="stroke:#181818;stroke-width:1.0;"/><line style="stroke:#181818;stroke-width:1.0;stroke-dasharray:2.0,2.0;" x1="470" x2="815" y1="514.875" y2="514.875"/><text fill="#000000" font-family="sans-serif" font-size="20" lengthAdjust="spacing" textLength="82" x="482" y="508.4805">successo</text><polygon fill="#181818" points="73,550.0313,63,554.0313,73,558.0313,69,554.0313" style="stroke:#181818;stroke-width:1.0;"/><line style="stroke:#181818;stroke-width:1.0;stroke-dasharray:2.0,2.0;" x1="67" x2="464" y1="554.0313" y2="554.0313"/><text fill="#000000" font-family="sans-serif" font-size="20" lengthAdjust="spacing" textLength="141" x="79" y="547.6367">retorna sucesso</text><!--SRC=[VPB1JiCm38RlUGfh9pXCGnntGDfbQBU9mGDuZTj5j768NGIypSI11zcBuNGRKW4jXqQD_z_-x4IUGqoOiMkvUYOFdchiMrror4tu8BYzSGuhvGpt9BOjCoi22Zm9PUVCgg4A2QF2PhqO_K-A0taLQrwiLvDYijsvueJfNT7F8TDB7oHOpdJODo4YU1RGaEph2J9lsPcmw8kl68mYNfAF2mYrL0Ks9QV3r-6JYmvz6CxoOFs_KCUY6Q7ctFNjOP_39UVPQWtEeI6zcc4ACqNHn_T4Skqi0DCpqodr3xPYjh4B6EI0gx3bjrzzf4mKgnsDW0YattQaD0Qmj2U20dT6S97LS4EpK-2wAC61hOToJL598A684MMoOa9HiGmtyb7c0pRsJcpYE7XzaCGnl59RkCsgmxcZwA5KSkEUfQygilH7q3_NQU4X-Wq0]--></g></svg>