<?xml version="1.0" encoding="UTF-8" standalone="no"?><svg xmlns="http://www.w3.org/2000/svg" xmlns:xlink="http://www.w3.org/1999/xlink" contentStyleType="text/css" height="700px" preserveAspectRatio="none" style="width:1187px;height:700px;background:#FFFFFF;" version="1.1" viewBox="0 0 1187 700" width="1187px" zoomAndPan="magnify"><defs/><g><line style="stroke:#181818;stroke-width:0.5;stroke-dasharray:5.0,5.0;" x1="74" x2="74" y1="90.1563" y2="611.1875"/><line style="stroke:#181818;stroke-width:0.5;stroke-dasharray:5.0,5.0;" x1="480" x2="480" y1="90.1563" y2="611.1875"/><line style="stroke:#181818;stroke-width:0.5;stroke-dasharray:5.0,5.0;" x1="795.5" x2="795.5" y1="90.1563" y2="611.1875"/><text fill="#000000" font-family="sans-serif" font-size="20" lengthAdjust="spacing" textLength="133" x="5" y="85.7617">GestorCampus</text><ellipse cx="74.5" cy="13.5" fill="#E2E2F0" rx="8" ry="8" style="stroke:#181818;stroke-width:0.5;"/><path d="M74.5,21.5 L74.5,48.5 M61.5,29.5 L87.5,29.5 M74.5,48.5 L61.5,63.5 M74.5,48.5 L87.5,63.5 " fill="none" style="stroke:#181818;stroke-width:0.5;"/><text fill="#000000" font-family="sans-serif" font-size="20" lengthAdjust="spacing" textLength="133" x="5" y="630.9492">GestorCampus</text><ellipse cx="74.5" cy="643.8438" fill="#E2E2F0" rx="8" ry="8" style="stroke:#181818;stroke-width:0.5;"/><path d="M74.5,651.8438 L74.5,678.8438 M61.5,659.8438 L87.5,659.8438 M74.5,678.8438 L61.5,693.8438 M74.5,678.8438 L87.5,693.8438 " fill="none" style="stroke:#181818;stroke-width:0.5;"/><rect fill="#E2E2F0" height="39.1563" rx="2.5" ry="2.5" style="stroke:#181818;stroke-width:0.5;" width="53" x="454" y="50"/><text fill="#000000" font-family="sans-serif" font-size="20" lengthAdjust="spacing" textLength="39" x="461" y="77.7617">SPA</text><rect fill="#E2E2F0" height="39.1563" rx="2.5" ry="2.5" style="stroke:#181818;stroke-width:0.5;" width="53" x="454" y="610.1875"/><text fill="#000000" font-family="sans-serif" font-size="20" lengthAdjust="spacing" textLength="39" x="461" y="637.9492">SPA</text><rect fill="#E2E2F0" height="39.1563" rx="2.5" ry="2.5" style="stroke:#181818;stroke-width:0.5;" width="144" x="723.5" y="50"/><text fill="#000000" font-family="sans-serif" font-size="20" lengthAdjust="spacing" textLength="130" x="730.5" y="77.7617">GestaoInfoAPI</text><rect fill="#E2E2F0" height="39.1563" rx="2.5" ry="2.5" style="stroke:#181818;stroke-width:0.5;" width="144" x="723.5" y="610.1875"/><text fill="#000000" font-family="sans-serif" font-size="20" lengthAdjust="spacing" textLength="130" x="730.5" y="637.9492">GestaoInfoAPI</text><polygon fill="#181818" points="468.5,127.3125,478.5,131.3125,468.5,135.3125,472.5,131.3125" style="stroke:#181818;stroke-width:1.0;"/><line style="stroke:#181818;stroke-width:1.0;" x1="74.5" x2="474.5" y1="131.3125" y2="131.3125"/><text fill="#000000" font-family="sans-serif" font-size="20" lengthAdjust="spacing" textLength="277" x="81.5" y="124.918">requisita página das passagens</text><polygon fill="#181818" points="85.5,166.4688,75.5,170.4688,85.5,174.4688,81.5,170.4688" style="stroke:#181818;stroke-width:1.0;"/><line style="stroke:#181818;stroke-width:1.0;" x1="79.5" x2="479.5" y1="170.4688" y2="170.4688"/><text fill="#000000" font-family="sans-serif" font-size="20" lengthAdjust="spacing" textLength="266" x="91.5" y="164.0742">retorna página das passagens</text><polygon fill="#181818" points="468.5,205.625,478.5,209.625,468.5,213.625,472.5,209.625" style="stroke:#181818;stroke-width:1.0;"/><line style="stroke:#181818;stroke-width:1.0;" x1="74.5" x2="474.5" y1="209.625" y2="209.625"/><text fill="#000000" font-family="sans-serif" font-size="20" lengthAdjust="spacing" textLength="327" x="81.5" y="203.2305">seleciona opção passagem da tabela</text><polygon fill="#181818" points="85.5,244.7813,75.5,248.7813,85.5,252.7813,81.5,248.7813" style="stroke:#181818;stroke-width:1.0;"/><line style="stroke:#181818;stroke-width:1.0;" x1="79.5" x2="479.5" y1="248.7813" y2="248.7813"/><text fill="#000000" font-family="sans-serif" font-size="20" lengthAdjust="spacing" textLength="382" x="91.5" y="242.3867">mostra formulário com dados da passagem</text><polygon fill="#181818" points="783.5,283.9375,793.5,287.9375,783.5,291.9375,787.5,287.9375" style="stroke:#181818;stroke-width:1.0;"/><line style="stroke:#181818;stroke-width:1.0;" x1="480.5" x2="789.5" y1="287.9375" y2="287.9375"/><text fill="#000000" font-family="sans-serif" font-size="20" lengthAdjust="spacing" textLength="155" x="487.5" y="281.543">get(/api/buildings)</text><polygon fill="#181818" points="491.5,323.0938,481.5,327.0938,491.5,331.0938,487.5,327.0938" style="stroke:#181818;stroke-width:1.0;"/><line style="stroke:#181818;stroke-width:1.0;stroke-dasharray:2.0,2.0;" x1="485.5" x2="794.5" y1="327.0938" y2="327.0938"/><text fill="#000000" font-family="sans-serif" font-size="20" lengthAdjust="spacing" textLength="291" x="497.5" y="320.6992">mostra edificios nas select boxes</text><polygon fill="#181818" points="491.5,362.25,481.5,366.25,491.5,370.25,487.5,366.25" style="stroke:#181818;stroke-width:1.0;"/><line style="stroke:#181818;stroke-width:1.0;" x1="485.5" x2="794.5" y1="366.25" y2="366.25"/><text fill="#000000" font-family="sans-serif" font-size="20" lengthAdjust="spacing" textLength="246" x="497.5" y="359.8555">mostra dados da passagem</text><polygon fill="#181818" points="468.5,401.4063,478.5,405.4063,468.5,409.4063,472.5,405.4063" style="stroke:#181818;stroke-width:1.0;"/><line style="stroke:#181818;stroke-width:1.0;" x1="74.5" x2="474.5" y1="405.4063" y2="405.4063"/><text fill="#000000" font-family="sans-serif" font-size="20" lengthAdjust="spacing" textLength="272" x="81.5" y="399.0117">preenche formulário e submete</text><polygon fill="#181818" points="783.5,440.5625,793.5,444.5625,783.5,448.5625,787.5,444.5625" style="stroke:#181818;stroke-width:1.0;"/><line style="stroke:#181818;stroke-width:1.0;" x1="480.5" x2="789.5" y1="444.5625" y2="444.5625"/><text fill="#000000" font-family="sans-serif" font-size="20" lengthAdjust="spacing" textLength="164" x="487.5" y="438.168">put(/api/passages)</text><path d="M800,457.5625 L800,517.5625 L1180,517.5625 L1180,467.5625 L1170,457.5625 L800,457.5625 " fill="#FEFFDD" style="stroke:#181818;stroke-width:0.5;"/><path d="M1170,457.5625 L1170,467.5625 L1180,467.5625 L1170,457.5625 " fill="#FEFFDD" style="stroke:#181818;stroke-width:0.5;"/><text fill="#000000" font-family="sans-serif" font-size="20" lengthAdjust="spacing" textLength="318" x="806" y="483.3242">Restantes passos representados no</text><text fill="#000000" font-family="sans-serif" font-size="20" lengthAdjust="spacing" textLength="359" x="806" y="508.4805">diagrama da API disponivel na pasta API</text><polygon fill="#181818" points="491.5,550.0313,481.5,554.0313,491.5,558.0313,487.5,554.0313" style="stroke:#181818;stroke-width:1.0;"/><line style="stroke:#181818;stroke-width:1.0;stroke-dasharray:2.0,2.0;" x1="485.5" x2="794.5" y1="554.0313" y2="554.0313"/><text fill="#000000" font-family="sans-serif" font-size="20" lengthAdjust="spacing" textLength="71" x="497.5" y="547.6367">success</text><polygon fill="#181818" points="85.5,589.1875,75.5,593.1875,85.5,597.1875,81.5,593.1875" style="stroke:#181818;stroke-width:1.0;"/><line style="stroke:#181818;stroke-width:1.0;stroke-dasharray:2.0,2.0;" x1="79.5" x2="479.5" y1="593.1875" y2="593.1875"/><text fill="#000000" font-family="sans-serif" font-size="20" lengthAdjust="spacing" textLength="141" x="91.5" y="586.793">retorna sucesso</text><!--SRC=[TPB1JiCm38RlUGfh9pXC88ux84r886w8YGVm6hUpQEqGfmZnDXC77cGlXjDjXmhe9Mhz_SwNkFRAaZ3Zq6lpIX4YjJZsvLwbRFYJuEOw16oAPdWWy-KEXpGQeC6BKGx1iuKRJYW5Da_hsVkYHb0VfTNrq-EYXdmDeIPXULlv5MHw6zcu8AJ3lcD1YCubDCEEn893bQsP2hk2_8VE6nlrrB0wfUdmVVZICpbu30fkgSTvzq6jP8HMyp3sXtrcXKOh7TLgvfmFvvYVPWKTbOihJ7or7RcFB9rT1Y_0yYnoQakHMxyPRoLkFTaLsEe7kVZ4p_4_TfqTBsKYQNOqqoMmSJjGeRbY6a-Afrvk64GBGUPkLq3RYa40VvxhoAJGyLxT89FlP2HbyX4zOf6nyv-cQaxPo9PK-9rwa4cvJDy3IOIwKvXVYOrDGtOQxg_fUjMB6du0]--></g></svg>