<?xml version="1.0" encoding="UTF-8" standalone="no"?><svg xmlns="http://www.w3.org/2000/svg" xmlns:xlink="http://www.w3.org/1999/xlink" contentStyleType="text/css" height="661px" preserveAspectRatio="none" style="width:1169px;height:661px;background:#FFFFFF;" version="1.1" viewBox="0 0 1169 661" width="1169px" zoomAndPan="magnify"><defs/><g><line style="stroke:#181818;stroke-width:0.5;stroke-dasharray:5.0,5.0;" x1="74" x2="74" y1="90.1563" y2="572.0313"/><line style="stroke:#181818;stroke-width:0.5;stroke-dasharray:5.0,5.0;" x1="462" x2="462" y1="90.1563" y2="572.0313"/><line style="stroke:#181818;stroke-width:0.5;stroke-dasharray:5.0,5.0;" x1="777.5" x2="777.5" y1="90.1563" y2="572.0313"/><text fill="#000000" font-family="sans-serif" font-size="20" lengthAdjust="spacing" textLength="133" x="5" y="85.7617">GestorCampus</text><ellipse cx="74.5" cy="13.5" fill="#E2E2F0" rx="8" ry="8" style="stroke:#181818;stroke-width:0.5;"/><path d="M74.5,21.5 L74.5,48.5 M61.5,29.5 L87.5,29.5 M74.5,48.5 L61.5,63.5 M74.5,48.5 L87.5,63.5 " fill="none" style="stroke:#181818;stroke-width:0.5;"/><text fill="#000000" font-family="sans-serif" font-size="20" lengthAdjust="spacing" textLength="133" x="5" y="591.793">GestorCampus</text><ellipse cx="74.5" cy="604.6875" fill="#E2E2F0" rx="8" ry="8" style="stroke:#181818;stroke-width:0.5;"/><path d="M74.5,612.6875 L74.5,639.6875 M61.5,620.6875 L87.5,620.6875 M74.5,639.6875 L61.5,654.6875 M74.5,639.6875 L87.5,654.6875 " fill="none" style="stroke:#181818;stroke-width:0.5;"/><rect fill="#E2E2F0" height="39.1563" rx="2.5" ry="2.5" style="stroke:#181818;stroke-width:0.5;" width="53" x="436" y="50"/><text fill="#000000" font-family="sans-serif" font-size="20" lengthAdjust="spacing" textLength="39" x="443" y="77.7617">SPA</text><rect fill="#E2E2F0" height="39.1563" rx="2.5" ry="2.5" style="stroke:#181818;stroke-width:0.5;" width="53" x="436" y="571.0313"/><text fill="#000000" font-family="sans-serif" font-size="20" lengthAdjust="spacing" textLength="39" x="443" y="598.793">SPA</text><rect fill="#E2E2F0" height="39.1563" rx="2.5" ry="2.5" style="stroke:#181818;stroke-width:0.5;" width="144" x="705.5" y="50"/><text fill="#000000" font-family="sans-serif" font-size="20" lengthAdjust="spacing" textLength="130" x="712.5" y="77.7617">GestaoInfoAPI</text><rect fill="#E2E2F0" height="39.1563" rx="2.5" ry="2.5" style="stroke:#181818;stroke-width:0.5;" width="144" x="705.5" y="571.0313"/><text fill="#000000" font-family="sans-serif" font-size="20" lengthAdjust="spacing" textLength="130" x="712.5" y="598.793">GestaoInfoAPI</text><polygon fill="#181818" points="450.5,127.3125,460.5,131.3125,450.5,135.3125,454.5,131.3125" style="stroke:#181818;stroke-width:1.0;"/><line style="stroke:#181818;stroke-width:1.0;" x1="74.5" x2="456.5" y1="131.3125" y2="131.3125"/><text fill="#000000" font-family="sans-serif" font-size="20" lengthAdjust="spacing" textLength="277" x="81.5" y="124.918">requisita página das passagens</text><polygon fill="#181818" points="85.5,166.4688,75.5,170.4688,85.5,174.4688,81.5,170.4688" style="stroke:#181818;stroke-width:1.0;"/><line style="stroke:#181818;stroke-width:1.0;" x1="79.5" x2="461.5" y1="170.4688" y2="170.4688"/><text fill="#000000" font-family="sans-serif" font-size="20" lengthAdjust="spacing" textLength="266" x="91.5" y="164.0742">retorna página das passagens</text><polygon fill="#181818" points="450.5,205.625,460.5,209.625,450.5,213.625,454.5,209.625" style="stroke:#181818;stroke-width:1.0;"/><line style="stroke:#181818;stroke-width:1.0;" x1="74.5" x2="456.5" y1="209.625" y2="209.625"/><text fill="#000000" font-family="sans-serif" font-size="20" lengthAdjust="spacing" textLength="352" x="81.5" y="203.2305">seleciona opção de adicionar passagem</text><polygon fill="#181818" points="85.5,244.7813,75.5,248.7813,85.5,252.7813,81.5,248.7813" style="stroke:#181818;stroke-width:1.0;"/><line style="stroke:#181818;stroke-width:1.0;" x1="79.5" x2="461.5" y1="248.7813" y2="248.7813"/><text fill="#000000" font-family="sans-serif" font-size="20" lengthAdjust="spacing" textLength="364" x="91.5" y="242.3867">mostra formulário de adicionar passagem</text><polygon fill="#181818" points="765.5,283.9375,775.5,287.9375,765.5,291.9375,769.5,287.9375" style="stroke:#181818;stroke-width:1.0;"/><line style="stroke:#181818;stroke-width:1.0;" x1="462.5" x2="771.5" y1="287.9375" y2="287.9375"/><text fill="#000000" font-family="sans-serif" font-size="20" lengthAdjust="spacing" textLength="155" x="469.5" y="281.543">get(/api/buildings)</text><polygon fill="#181818" points="473.5,323.0938,463.5,327.0938,473.5,331.0938,469.5,327.0938" style="stroke:#181818;stroke-width:1.0;"/><line style="stroke:#181818;stroke-width:1.0;stroke-dasharray:2.0,2.0;" x1="467.5" x2="776.5" y1="327.0938" y2="327.0938"/><text fill="#000000" font-family="sans-serif" font-size="20" lengthAdjust="spacing" textLength="291" x="479.5" y="320.6992">mostra edificios nas select boxes</text><polygon fill="#181818" points="450.5,362.25,460.5,366.25,450.5,370.25,454.5,366.25" style="stroke:#181818;stroke-width:1.0;"/><line style="stroke:#181818;stroke-width:1.0;" x1="74.5" x2="456.5" y1="366.25" y2="366.25"/><text fill="#000000" font-family="sans-serif" font-size="20" lengthAdjust="spacing" textLength="272" x="81.5" y="359.8555">preenche formulário e submete</text><polygon fill="#181818" points="765.5,401.4063,775.5,405.4063,765.5,409.4063,769.5,405.4063" style="stroke:#181818;stroke-width:1.0;"/><line style="stroke:#181818;stroke-width:1.0;" x1="462.5" x2="771.5" y1="405.4063" y2="405.4063"/><text fill="#000000" font-family="sans-serif" font-size="20" lengthAdjust="spacing" textLength="175" x="469.5" y="399.0117">post(/api/passages)</text><path d="M782,418.4063 L782,478.4063 L1162,478.4063 L1162,428.4063 L1152,418.4063 L782,418.4063 " fill="#FEFFDD" style="stroke:#181818;stroke-width:0.5;"/><path d="M1152,418.4063 L1152,428.4063 L1162,428.4063 L1152,418.4063 " fill="#FEFFDD" style="stroke:#181818;stroke-width:0.5;"/><text fill="#000000" font-family="sans-serif" font-size="20" lengthAdjust="spacing" textLength="318" x="788" y="444.168">Restantes passos representados no</text><text fill="#000000" font-family="sans-serif" font-size="20" lengthAdjust="spacing" textLength="359" x="788" y="469.3242">diagrama da API disponivel na pasta API</text><polygon fill="#181818" points="473.5,510.875,463.5,514.875,473.5,518.875,469.5,514.875" style="stroke:#181818;stroke-width:1.0;"/><line style="stroke:#181818;stroke-width:1.0;stroke-dasharray:2.0,2.0;" x1="467.5" x2="776.5" y1="514.875" y2="514.875"/><text fill="#000000" font-family="sans-serif" font-size="20" lengthAdjust="spacing" textLength="71" x="479.5" y="508.4805">success</text><polygon fill="#181818" points="85.5,550.0313,75.5,554.0313,85.5,558.0313,81.5,554.0313" style="stroke:#181818;stroke-width:1.0;"/><line style="stroke:#181818;stroke-width:1.0;stroke-dasharray:2.0,2.0;" x1="79.5" x2="461.5" y1="554.0313" y2="554.0313"/><text fill="#000000" font-family="sans-serif" font-size="20" lengthAdjust="spacing" textLength="141" x="91.5" y="547.6367">retorna sucesso</text><!--SRC=[TLBDJiCm3BxdAQoTu31juhW3qeG4scrYuW6ynksijN68KuHucua33z8Nm-csGq7h9Mhy_TcE7Zb4JDYrKXt9WwSQ-pO_IyWx_Y9uM3g7LPO4BwHsF64NUmLKU5DApXatSyKHGuRTTZtvdnKAoYRKijvkPeLaftE52VF7Wbz1elUUbJD274uD1mHlk8Ygs51GPw22BPm2jWZX5dGghDHInM8eYSFFy2tM6w3dyIvTQTtKe1FD2Q6MrFNjS4fyYtMbMKChQ2ZVBJ3oOjzpwpaqUk-i0FDhbeiiUQwBaaAmu6F037lvfB_POo8ArO4cGGYqttUKQMeUJVliVWbdvYv89aZS7398NN3WmBxNif2GwJmrov78h9H2HbzIoHdc6Hjx4cM-8zUpHWdyGIsKuQE9Z9kauA4ukMctsbSLwMLr_tPdLIkA-mK0]--></g></svg>