<?xml version="1.0" encoding="UTF-8" standalone="no"?><svg xmlns="http://www.w3.org/2000/svg" xmlns:xlink="http://www.w3.org/1999/xlink" contentStyleType="text/css" height="779px" preserveAspectRatio="none" style="width:1129px;height:779px;background:#FFFFFF;" version="1.1" viewBox="0 0 1129 779" width="1129px" zoomAndPan="magnify"><defs/><g><line style="stroke:#181818;stroke-width:0.5;stroke-dasharray:5.0,5.0;" x1="74" x2="74" y1="90.1563" y2="689.5"/><line style="stroke:#181818;stroke-width:0.5;stroke-dasharray:5.0,5.0;" x1="446" x2="446" y1="90.1563" y2="689.5"/><line style="stroke:#181818;stroke-width:0.5;stroke-dasharray:5.0,5.0;" x1="737.5" x2="737.5" y1="90.1563" y2="689.5"/><text fill="#000000" font-family="sans-serif" font-size="20" lengthAdjust="spacing" textLength="133" x="5" y="85.7617">GestorCampus</text><ellipse cx="74.5" cy="13.5" fill="#E2E2F0" rx="8" ry="8" style="stroke:#181818;stroke-width:0.5;"/><path d="M74.5,21.5 L74.5,48.5 M61.5,29.5 L87.5,29.5 M74.5,48.5 L61.5,63.5 M74.5,48.5 L87.5,63.5 " fill="none" style="stroke:#181818;stroke-width:0.5;"/><text fill="#000000" font-family="sans-serif" font-size="20" lengthAdjust="spacing" textLength="133" x="5" y="709.2617">GestorCampus</text><ellipse cx="74.5" cy="722.1563" fill="#E2E2F0" rx="8" ry="8" style="stroke:#181818;stroke-width:0.5;"/><path d="M74.5,730.1563 L74.5,757.1563 M61.5,738.1563 L87.5,738.1563 M74.5,757.1563 L61.5,772.1563 M74.5,757.1563 L87.5,772.1563 " fill="none" style="stroke:#181818;stroke-width:0.5;"/><rect fill="#E2E2F0" height="39.1563" rx="2.5" ry="2.5" style="stroke:#181818;stroke-width:0.5;" width="53" x="420" y="50"/><text fill="#000000" font-family="sans-serif" font-size="20" lengthAdjust="spacing" textLength="39" x="427" y="77.7617">SPA</text><rect fill="#E2E2F0" height="39.1563" rx="2.5" ry="2.5" style="stroke:#181818;stroke-width:0.5;" width="53" x="420" y="688.5"/><text fill="#000000" font-family="sans-serif" font-size="20" lengthAdjust="spacing" textLength="39" x="427" y="716.2617">SPA</text><rect fill="#E2E2F0" height="39.1563" rx="2.5" ry="2.5" style="stroke:#181818;stroke-width:0.5;" width="144" x="665.5" y="50"/><text fill="#000000" font-family="sans-serif" font-size="20" lengthAdjust="spacing" textLength="130" x="672.5" y="77.7617">GestaoInfoAPI</text><rect fill="#E2E2F0" height="39.1563" rx="2.5" ry="2.5" style="stroke:#181818;stroke-width:0.5;" width="144" x="665.5" y="688.5"/><text fill="#000000" font-family="sans-serif" font-size="20" lengthAdjust="spacing" textLength="130" x="672.5" y="716.2617">GestaoInfoAPI</text><polygon fill="#181818" points="434.5,127.3125,444.5,131.3125,434.5,135.3125,438.5,131.3125" style="stroke:#181818;stroke-width:1.0;"/><line style="stroke:#181818;stroke-width:1.0;" x1="74.5" x2="440.5" y1="131.3125" y2="131.3125"/><text fill="#000000" font-family="sans-serif" font-size="20" lengthAdjust="spacing" textLength="278" x="81.5" y="124.918">requisita página dos elevadores</text><polygon fill="#181818" points="85.5,166.4688,75.5,170.4688,85.5,174.4688,81.5,170.4688" style="stroke:#181818;stroke-width:1.0;"/><line style="stroke:#181818;stroke-width:1.0;" x1="79.5" x2="445.5" y1="170.4688" y2="170.4688"/><text fill="#000000" font-family="sans-serif" font-size="20" lengthAdjust="spacing" textLength="267" x="91.5" y="164.0742">retorna página dos elevadores</text><polygon fill="#181818" points="434.5,205.625,444.5,209.625,434.5,213.625,438.5,209.625" style="stroke:#181818;stroke-width:1.0;"/><line style="stroke:#181818;stroke-width:1.0;" x1="74.5" x2="440.5" y1="209.625" y2="209.625"/><text fill="#000000" font-family="sans-serif" font-size="20" lengthAdjust="spacing" textLength="336" x="81.5" y="203.2305">seleciona opção de adicionar elevador</text><polygon fill="#181818" points="85.5,244.7813,75.5,248.7813,85.5,252.7813,81.5,248.7813" style="stroke:#181818;stroke-width:1.0;"/><line style="stroke:#181818;stroke-width:1.0;" x1="79.5" x2="445.5" y1="248.7813" y2="248.7813"/><text fill="#000000" font-family="sans-serif" font-size="20" lengthAdjust="spacing" textLength="348" x="91.5" y="242.3867">mostra formulário de adicionar elevador</text><polygon fill="#181818" points="725.5,283.9375,735.5,287.9375,725.5,291.9375,729.5,287.9375" style="stroke:#181818;stroke-width:1.0;"/><line style="stroke:#181818;stroke-width:1.0;" x1="446.5" x2="731.5" y1="287.9375" y2="287.9375"/><text fill="#000000" font-family="sans-serif" font-size="20" lengthAdjust="spacing" textLength="155" x="453.5" y="281.543">get(/api/buildings)</text><polygon fill="#181818" points="457.5,323.0938,447.5,327.0938,457.5,331.0938,453.5,327.0938" style="stroke:#181818;stroke-width:1.0;"/><line style="stroke:#181818;stroke-width:1.0;" x1="451.5" x2="736.5" y1="327.0938" y2="327.0938"/><text fill="#000000" font-family="sans-serif" font-size="20" lengthAdjust="spacing" textLength="267" x="463.5" y="320.6992">mostrar edificios na select box</text><polygon fill="#181818" points="434.5,362.25,444.5,366.25,434.5,370.25,438.5,366.25" style="stroke:#181818;stroke-width:1.0;"/><line style="stroke:#181818;stroke-width:1.0;" x1="74.5" x2="440.5" y1="366.25" y2="366.25"/><text fill="#000000" font-family="sans-serif" font-size="20" lengthAdjust="spacing" textLength="149" x="81.5" y="359.8555">seleciona edificio</text><polygon fill="#181818" points="725.5,401.4063,735.5,405.4063,725.5,409.4063,729.5,405.4063" style="stroke:#181818;stroke-width:1.0;"/><line style="stroke:#181818;stroke-width:1.0;" x1="446.5" x2="731.5" y1="405.4063" y2="405.4063"/><text fill="#000000" font-family="sans-serif" font-size="20" lengthAdjust="spacing" textLength="244" x="453.5" y="399.0117">get(/api/floors/buildingId/:id)</text><polygon fill="#181818" points="457.5,440.5625,447.5,444.5625,457.5,448.5625,453.5,444.5625" style="stroke:#181818;stroke-width:1.0;"/><line style="stroke:#181818;stroke-width:1.0;" x1="451.5" x2="736.5" y1="444.5625" y2="444.5625"/><text fill="#000000" font-family="sans-serif" font-size="20" lengthAdjust="spacing" textLength="267" x="463.5" y="438.168">mostrar andares na select box</text><polygon fill="#181818" points="434.5,479.7188,444.5,483.7188,434.5,487.7188,438.5,483.7188" style="stroke:#181818;stroke-width:1.0;"/><line style="stroke:#181818;stroke-width:1.0;" x1="74.5" x2="440.5" y1="483.7188" y2="483.7188"/><text fill="#000000" font-family="sans-serif" font-size="20" lengthAdjust="spacing" textLength="272" x="81.5" y="477.3242">preenche formulário e submete</text><polygon fill="#181818" points="725.5,518.875,735.5,522.875,725.5,526.875,729.5,522.875" style="stroke:#181818;stroke-width:1.0;"/><line style="stroke:#181818;stroke-width:1.0;" x1="446.5" x2="731.5" y1="522.875" y2="522.875"/><text fill="#000000" font-family="sans-serif" font-size="20" lengthAdjust="spacing" textLength="170" x="453.5" y="516.4805">post(/api/elevators)</text><path d="M742,535.875 L742,595.875 L1122,595.875 L1122,545.875 L1112,535.875 L742,535.875 " fill="#FEFFDD" style="stroke:#181818;stroke-width:0.5;"/><path d="M1112,535.875 L1112,545.875 L1122,545.875 L1112,535.875 " fill="#FEFFDD" style="stroke:#181818;stroke-width:0.5;"/><text fill="#000000" font-family="sans-serif" font-size="20" lengthAdjust="spacing" textLength="318" x="748" y="561.6367">Restantes passos representados no</text><text fill="#000000" font-family="sans-serif" font-size="20" lengthAdjust="spacing" textLength="359" x="748" y="586.793">diagrama da API disponivel na pasta API</text><polygon fill="#181818" points="457.5,628.3438,447.5,632.3438,457.5,636.3438,453.5,632.3438" style="stroke:#181818;stroke-width:1.0;"/><line style="stroke:#181818;stroke-width:1.0;" x1="451.5" x2="736.5" y1="632.3438" y2="632.3438"/><text fill="#000000" font-family="sans-serif" font-size="20" lengthAdjust="spacing" textLength="72" x="463.5" y="625.9492">sucesso</text><polygon fill="#181818" points="85.5,667.5,75.5,671.5,85.5,675.5,81.5,671.5" style="stroke:#181818;stroke-width:1.0;"/><line style="stroke:#181818;stroke-width:1.0;stroke-dasharray:2.0,2.0;" x1="79.5" x2="445.5" y1="671.5" y2="671.5"/><text fill="#000000" font-family="sans-serif" font-size="20" lengthAdjust="spacing" textLength="141" x="91.5" y="665.1055">retorna sucesso</text><!--SRC=[VL91QiD03BplAqHExQ6az9X38HHQSWiDVO3YbHqHUxLThKFfRq8FVKW-LgrD0gPDVLcycj7ChAHx3X4JTgrKU_BWgSQ-pSyIyeO_2HxkdSCgIu8NKZkUi8kz0YgyAINdZ9kvueWXmsQzdFpF2WLb5MfPhbUpGhBJkSA4kyU2Nq2YzvwLCq8y7HiE25uKgAK3Uacapb05N4W5RHx2LUoqjLgbOZ6OnDFtwKii7Q3duIvTU5E5JZGdX5fIrxUdO-9hh3FD8YsWeNmpnyZpRS-jvz3ehRF2nShOrTYUwz99mLmD_Z9ivUEgyJF-YbhTYYIzYAxyVC7-RsKC7ks9_jMDYIXKEvga9z1-sr6cgOTeVKSJmulOM2oo2v894ZUx358N83YmxxKiGiWc7r7LqYSoBQMGiKmmo0ZpZ8sjeeqL1wvdZHBuG6snRTGyt3iA7egIcoJLlY9hFhhyjJ7dwWy0]--></g></svg>