<?xml version="1.0" encoding="UTF-8" standalone="no"?><svg xmlns="http://www.w3.org/2000/svg" xmlns:xlink="http://www.w3.org/1999/xlink" contentStyleType="text/css" height="713px" preserveAspectRatio="none" style="width:1320px;height:713px;background:#FFFFFF;" version="1.1" viewBox="0 0 1320 713" width="1320px" zoomAndPan="magnify"><defs/><g><line style="stroke:#181818;stroke-width:0.5;stroke-dasharray:5.0,5.0;" x1="74" x2="74" y1="90.1563" y2="624.1875"/><line style="stroke:#181818;stroke-width:0.5;stroke-dasharray:5.0,5.0;" x1="589" x2="589" y1="90.1563" y2="624.1875"/><line style="stroke:#181818;stroke-width:0.5;stroke-dasharray:5.0,5.0;" x1="928.5" x2="928.5" y1="90.1563" y2="624.1875"/><text fill="#000000" font-family="sans-serif" font-size="20" lengthAdjust="spacing" textLength="133" x="5" y="85.7617">GestorCampus</text><ellipse cx="74.5" cy="13.5" fill="#E2E2F0" rx="8" ry="8" style="stroke:#181818;stroke-width:0.5;"/><path d="M74.5,21.5 L74.5,48.5 M61.5,29.5 L87.5,29.5 M74.5,48.5 L61.5,63.5 M74.5,48.5 L87.5,63.5 " fill="none" style="stroke:#181818;stroke-width:0.5;"/><text fill="#000000" font-family="sans-serif" font-size="20" lengthAdjust="spacing" textLength="133" x="5" y="643.9492">GestorCampus</text><ellipse cx="74.5" cy="656.8438" fill="#E2E2F0" rx="8" ry="8" style="stroke:#181818;stroke-width:0.5;"/><path d="M74.5,664.8438 L74.5,691.8438 M61.5,672.8438 L87.5,672.8438 M74.5,691.8438 L61.5,706.8438 M74.5,691.8438 L87.5,706.8438 " fill="none" style="stroke:#181818;stroke-width:0.5;"/><rect fill="#E2E2F0" height="39.1563" rx="2.5" ry="2.5" style="stroke:#181818;stroke-width:0.5;" width="53" x="563" y="50"/><text fill="#000000" font-family="sans-serif" font-size="20" lengthAdjust="spacing" textLength="39" x="570" y="77.7617">SPA</text><rect fill="#E2E2F0" height="39.1563" rx="2.5" ry="2.5" style="stroke:#181818;stroke-width:0.5;" width="53" x="563" y="623.1875"/><text fill="#000000" font-family="sans-serif" font-size="20" lengthAdjust="spacing" textLength="39" x="570" y="650.9492">SPA</text><rect fill="#E2E2F0" height="39.1563" rx="2.5" ry="2.5" style="stroke:#181818;stroke-width:0.5;" width="144" x="856.5" y="50"/><text fill="#000000" font-family="sans-serif" font-size="20" lengthAdjust="spacing" textLength="130" x="863.5" y="77.7617">GestaoInfoAPI</text><rect fill="#E2E2F0" height="39.1563" rx="2.5" ry="2.5" style="stroke:#181818;stroke-width:0.5;" width="144" x="856.5" y="623.1875"/><text fill="#000000" font-family="sans-serif" font-size="20" lengthAdjust="spacing" textLength="130" x="863.5" y="650.9492">GestaoInfoAPI</text><polygon fill="#181818" points="577.5,127.3125,587.5,131.3125,577.5,135.3125,581.5,131.3125" style="stroke:#181818;stroke-width:1.0;"/><line style="stroke:#181818;stroke-width:1.0;" x1="74.5" x2="583.5" y1="131.3125" y2="131.3125"/><text fill="#000000" font-family="sans-serif" font-size="20" lengthAdjust="spacing" textLength="253" x="81.5" y="124.918">requisita página dos andares</text><polygon fill="#181818" points="85.5,166.4688,75.5,170.4688,85.5,174.4688,81.5,170.4688" style="stroke:#181818;stroke-width:1.0;"/><line style="stroke:#181818;stroke-width:1.0;" x1="79.5" x2="588.5" y1="170.4688" y2="170.4688"/><text fill="#000000" font-family="sans-serif" font-size="20" lengthAdjust="spacing" textLength="242" x="91.5" y="164.0742">retorna página dos andares</text><polygon fill="#181818" points="577.5,205.625,587.5,209.625,577.5,213.625,581.5,209.625" style="stroke:#181818;stroke-width:1.0;"/><line style="stroke:#181818;stroke-width:1.0;" x1="74.5" x2="583.5" y1="209.625" y2="209.625"/><text fill="#000000" font-family="sans-serif" font-size="20" lengthAdjust="spacing" textLength="226" x="81.5" y="203.2305">seleciona andar da tabela</text><polygon fill="#181818" points="916.5,244.7813,926.5,248.7813,916.5,252.7813,920.5,248.7813" style="stroke:#181818;stroke-width:1.0;"/><line style="stroke:#181818;stroke-width:1.0;" x1="589.5" x2="922.5" y1="248.7813" y2="248.7813"/><text fill="#000000" font-family="sans-serif" font-size="20" lengthAdjust="spacing" textLength="315" x="596.5" y="242.3867">mostra dados do andar selecionado</text><polygon fill="#181818" points="916.5,283.9375,926.5,287.9375,916.5,291.9375,920.5,287.9375" style="stroke:#181818;stroke-width:1.0;"/><line style="stroke:#181818;stroke-width:1.0;" x1="589.5" x2="922.5" y1="287.9375" y2="287.9375"/><text fill="#000000" font-family="sans-serif" font-size="20" lengthAdjust="spacing" textLength="155" x="596.5" y="281.543">get(/api/buildings)</text><polygon fill="#181818" points="600.5,323.0938,590.5,327.0938,600.5,331.0938,596.5,327.0938" style="stroke:#181818;stroke-width:1.0;"/><line style="stroke:#181818;stroke-width:1.0;" x1="594.5" x2="927.5" y1="327.0938" y2="327.0938"/><text fill="#000000" font-family="sans-serif" font-size="20" lengthAdjust="spacing" textLength="286" x="606.5" y="320.6992">mostra edificios numa select box</text><line style="stroke:#181818;stroke-width:1.0;" x1="589.5" x2="631.5" y1="366.25" y2="366.25"/><line style="stroke:#181818;stroke-width:1.0;" x1="631.5" x2="631.5" y1="366.25" y2="379.25"/><line style="stroke:#181818;stroke-width:1.0;" x1="590.5" x2="631.5" y1="379.25" y2="379.25"/><polygon fill="#181818" points="600.5,375.25,590.5,379.25,600.5,383.25,596.5,379.25" style="stroke:#181818;stroke-width:1.0;"/><text fill="#000000" font-family="sans-serif" font-size="20" lengthAdjust="spacing" textLength="315" x="596.5" y="359.8555">mostra dados do andar selecionado</text><polygon fill="#181818" points="577.5,414.4063,587.5,418.4063,577.5,422.4063,581.5,418.4063" style="stroke:#181818;stroke-width:1.0;"/><line style="stroke:#181818;stroke-width:1.0;" x1="74.5" x2="583.5" y1="418.4063" y2="418.4063"/><text fill="#000000" font-family="sans-serif" font-size="20" lengthAdjust="spacing" textLength="491" x="81.5" y="412.0117">insere um ficheiro com o floormap do andar selecionado</text><polygon fill="#181818" points="916.5,453.5625,926.5,457.5625,916.5,461.5625,920.5,457.5625" style="stroke:#181818;stroke-width:1.0;"/><line style="stroke:#181818;stroke-width:1.0;" x1="589.5" x2="922.5" y1="457.5625" y2="457.5625"/><text fill="#000000" font-family="sans-serif" font-size="20" lengthAdjust="spacing" textLength="178" x="596.5" y="451.168">patch(/api/floorMap)</text><path d="M933,470.5625 L933,530.5625 L1313,530.5625 L1313,480.5625 L1303,470.5625 L933,470.5625 " fill="#FEFFDD" style="stroke:#181818;stroke-width:0.5;"/><path d="M1303,470.5625 L1303,480.5625 L1313,480.5625 L1303,470.5625 " fill="#FEFFDD" style="stroke:#181818;stroke-width:0.5;"/><text fill="#000000" font-family="sans-serif" font-size="20" lengthAdjust="spacing" textLength="318" x="939" y="496.3242">Restantes passos representados no</text><text fill="#000000" font-family="sans-serif" font-size="20" lengthAdjust="spacing" textLength="359" x="939" y="521.4805">diagrama da API disponivel na pasta API</text><polygon fill="#181818" points="600.5,563.0313,590.5,567.0313,600.5,571.0313,596.5,567.0313" style="stroke:#181818;stroke-width:1.0;"/><line style="stroke:#181818;stroke-width:1.0;stroke-dasharray:2.0,2.0;" x1="594.5" x2="927.5" y1="567.0313" y2="567.0313"/><text fill="#000000" font-family="sans-serif" font-size="20" lengthAdjust="spacing" textLength="72" x="606.5" y="560.6367">sucesso</text><polygon fill="#181818" points="85.5,602.1875,75.5,606.1875,85.5,610.1875,81.5,606.1875" style="stroke:#181818;stroke-width:1.0;"/><line style="stroke:#181818;stroke-width:1.0;stroke-dasharray:2.0,2.0;" x1="79.5" x2="588.5" y1="606.1875" y2="606.1875"/><text fill="#000000" font-family="sans-serif" font-size="20" lengthAdjust="spacing" textLength="141" x="91.5" y="599.793">retorna sucesso</text><!--SRC=[ZPBFIWCn4CRlUOh1apr8nMCFGX6K7eHYyG6cczdjqDsPc6H5V1kVnHTpijikBegOImZpVR_vbtHa2HYnQxKwaWTFDVPjlbV9EtudkBbs3gki4HuesNM7NUWJO8BdHD4vysQkEA1as6tNi_T5iQ1kfDRrTdDHJ7OxLvnmTLlqAuZqqdFYZ10-FneM1A_65u-HaZD9KHP7aLe1yhjm3atKKiLgcY4E7Y7Zdbey0wsE5NIQSZGC5f3NatRoUdKpUKFvSec1b_kUMy_If8Mpm9JqX2FFjKt0aD9tEE8oxFLjedrN_vLyrXABlGZw3en-88uAbNQWKBUgiSFmZmu2vkemzZ2u7Z4id1FD196RGmQjYn0Ss7agovDCoMmfMP6HWasQ90ybYuuopzZOzocT35xFAQZmAxLGLeK66RPEug5aSkFCfatr5HbzBFF7fi_HBm00]--></g></svg>