<?xml version="1.0" encoding="UTF-8" standalone="no"?><svg xmlns="http://www.w3.org/2000/svg" xmlns:xlink="http://www.w3.org/1999/xlink" contentStyleType="text/css" height="1241px" preserveAspectRatio="none" style="width:1233px;height:1241px;background:#DDDDDD;" version="1.1" viewBox="0 0 1233 1241" width="1233px" zoomAndPan="magnify"><defs/><g><rect fill="#DDDDDD" height="1241" style="stroke:none;stroke-width:1.0;" width="1233" x="0" y="0"/><text fill="#000000" font-family="Arial" font-size="14" font-weight="bold" lengthAdjust="spacing" textLength="98" x="560.5" y="23.1318">domain model</text><!--cluster <<aggregate>> Building--><g id="cluster_&lt;&lt;aggregate&gt;&gt; Building"><path d="M53.5,1045.0986 L215.5,1045.0986 A5.25,5.25 0 0 1 219,1048.5986 L226,1069.4971 L225.5,1069.4971 A3.5,3.5 0 0 1 229,1072.9971 L229,1230.5986 A3.5,3.5 0 0 1 225.5,1234.0986 L53.5,1234.0986 A3.5,3.5 0 0 1 50,1230.5986 L50,1048.5986 A3.5,3.5 0 0 1 53.5,1045.0986 " fill="none" style="stroke:#454645;stroke-width:1.0;"/><line style="stroke:#454645;stroke-width:1.0;" x1="50" x2="226" y1="1069.4971" y2="1069.4971"/><text fill="#000000" font-family="Arial" font-size="16" font-weight="bold" lengthAdjust="spacing" textLength="163" x="54" y="1062.1064">«aggregate» Building</text></g><!--cluster <<aggregate>> Elevator--><g id="cluster_&lt;&lt;aggregate&gt;&gt; Elevator"><path d="M9.5,410.5986 L170.5,410.5986 A5.25,5.25 0 0 1 174,414.0986 L181,434.9971 L180.5,434.9971 A3.5,3.5 0 0 1 184,438.4971 L184,578.0986 A3.5,3.5 0 0 1 180.5,581.5986 L9.5,581.5986 A3.5,3.5 0 0 1 6,578.0986 L6,414.0986 A3.5,3.5 0 0 1 9.5,410.5986 " fill="none" style="stroke:#454645;stroke-width:1.0;"/><line style="stroke:#454645;stroke-width:1.0;" x1="6" x2="181" y1="434.9971" y2="434.9971"/><text fill="#000000" font-family="Arial" font-size="16" font-weight="bold" lengthAdjust="spacing" textLength="162" x="10" y="427.6064">«aggregate» Elevator</text></g><!--cluster <<aggregate>> Floor--><g id="cluster_&lt;&lt;aggregate&gt;&gt; Floor"><path d="M292.5,750.5986 L430.5,750.5986 A5.25,5.25 0 0 1 434,754.0986 L441,774.9971 L440.5,774.9971 A3.5,3.5 0 0 1 444,778.4971 L444,900.0986 A3.5,3.5 0 0 1 440.5,903.5986 L292.5,903.5986 A3.5,3.5 0 0 1 289,900.0986 L289,754.0986 A3.5,3.5 0 0 1 292.5,750.5986 " fill="none" style="stroke:#454645;stroke-width:1.0;"/><line style="stroke:#454645;stroke-width:1.0;" x1="289" x2="441" y1="774.9971" y2="774.9971"/><text fill="#000000" font-family="Arial" font-size="16" font-weight="bold" lengthAdjust="spacing" textLength="139" x="293" y="767.6064">«aggregate» Floor</text></g><!--cluster <<aggregate>> FloorMap--><g id="cluster_&lt;&lt;aggregate&gt;&gt; FloorMap"><path d="M214.5,79.5986 L384.5,79.5986 A5.25,5.25 0 0 1 388,83.0986 L395,103.9971 L394.5,103.9971 A3.5,3.5 0 0 1 398,107.4971 L398,229.0986 A3.5,3.5 0 0 1 394.5,232.5986 L214.5,232.5986 A3.5,3.5 0 0 1 211,229.0986 L211,83.0986 A3.5,3.5 0 0 1 214.5,79.5986 " fill="none" style="stroke:#454645;stroke-width:1.0;"/><line style="stroke:#454645;stroke-width:1.0;" x1="211" x2="395" y1="103.9971" y2="103.9971"/><text fill="#000000" font-family="Arial" font-size="16" font-weight="bold" lengthAdjust="spacing" textLength="171" x="215" y="96.6064">«aggregate» FloorMap</text></g><!--cluster <<aggregate>> Room--><g id="cluster_&lt;&lt;aggregate&gt;&gt; Room"><path d="M366.5,429.0986 L510.5,429.0986 A5.25,5.25 0 0 1 514,432.5986 L521,453.4971 L520.5,453.4971 A3.5,3.5 0 0 1 524,456.9971 L524,559.5986 A3.5,3.5 0 0 1 520.5,563.0986 L366.5,563.0986 A3.5,3.5 0 0 1 363,559.5986 L363,432.5986 A3.5,3.5 0 0 1 366.5,429.0986 " fill="none" style="stroke:#454645;stroke-width:1.0;"/><line style="stroke:#454645;stroke-width:1.0;" x1="363" x2="521" y1="453.4971" y2="453.4971"/><text fill="#000000" font-family="Arial" font-size="16" font-weight="bold" lengthAdjust="spacing" textLength="145" x="367" y="446.1064">«aggregate» Room</text></g><!--cluster <<aggregate>> Passage--><g id="cluster_&lt;&lt;aggregate&gt;&gt; Passage"><path d="M551.5,429.0986 L715.5,429.0986 A5.25,5.25 0 0 1 719,432.5986 L726,453.4971 L725.5,453.4971 A3.5,3.5 0 0 1 729,456.9971 L729,559.5986 A3.5,3.5 0 0 1 725.5,563.0986 L551.5,563.0986 A3.5,3.5 0 0 1 548,559.5986 L548,432.5986 A3.5,3.5 0 0 1 551.5,429.0986 " fill="none" style="stroke:#454645;stroke-width:1.0;"/><line style="stroke:#454645;stroke-width:1.0;" x1="548" x2="726" y1="453.4971" y2="453.4971"/><text fill="#000000" font-family="Arial" font-size="16" font-weight="bold" lengthAdjust="spacing" textLength="165" x="552" y="446.1064">«aggregate» Passage</text></g><!--cluster <<aggregate>> User--><g id="cluster_&lt;&lt;aggregate&gt;&gt; User"><path d="M755.5,43.0986 L889.5,43.0986 A5.25,5.25 0 0 1 893,46.5986 L900,67.4971 L899.5,67.4971 A3.5,3.5 0 0 1 903,70.9971 L903,265.5986 A3.5,3.5 0 0 1 899.5,269.0986 L755.5,269.0986 A3.5,3.5 0 0 1 752,265.5986 L752,46.5986 A3.5,3.5 0 0 1 755.5,43.0986 " fill="none" style="stroke:#454645;stroke-width:1.0;"/><line style="stroke:#454645;stroke-width:1.0;" x1="752" x2="900" y1="67.4971" y2="67.4971"/><text fill="#000000" font-family="Arial" font-size="16" font-weight="bold" lengthAdjust="spacing" textLength="135" x="756" y="60.1064">«aggregate» User</text></g><!--cluster <<aggregate>> Robot--><g id="cluster_&lt;&lt;aggregate&gt;&gt; Robot"><path d="M930.5,383.0986 L1075.5,383.0986 A5.25,5.25 0 0 1 1079,386.5986 L1086,407.4971 L1085.5,407.4971 A3.5,3.5 0 0 1 1089,410.9971 L1089,605.5986 A3.5,3.5 0 0 1 1085.5,609.0986 L930.5,609.0986 A3.5,3.5 0 0 1 927,605.5986 L927,386.5986 A3.5,3.5 0 0 1 930.5,383.0986 " fill="none" style="stroke:#454645;stroke-width:1.0;"/><line style="stroke:#454645;stroke-width:1.0;" x1="927" x2="1086" y1="407.4971" y2="407.4971"/><text fill="#000000" font-family="Arial" font-size="16" font-weight="bold" lengthAdjust="spacing" textLength="146" x="931" y="400.1064">«aggregate» Robot</text></g><!--cluster <<aggregate>> RobotType--><g id="cluster_&lt;&lt;aggregate&gt;&gt; RobotType"><path d="M915.5,723.0986 L1098.5,723.0986 A5.25,5.25 0 0 1 1102,726.5986 L1109,747.4971 L1108.5,747.4971 A3.5,3.5 0 0 1 1112,750.9971 L1112,927.5986 A3.5,3.5 0 0 1 1108.5,931.0986 L915.5,931.0986 A3.5,3.5 0 0 1 912,927.5986 L912,726.5986 A3.5,3.5 0 0 1 915.5,723.0986 " fill="none" style="stroke:#454645;stroke-width:1.0;"/><line style="stroke:#454645;stroke-width:1.0;" x1="912" x2="1109" y1="747.4971" y2="747.4971"/><text fill="#000000" font-family="Arial" font-size="16" font-weight="bold" lengthAdjust="spacing" textLength="184" x="916" y="740.1064">«aggregate» RobotType</text></g><!--cluster <<aggregate>> Role--><g id="cluster_&lt;&lt;aggregate&gt;&gt; Role"><path d="M756.5,419.5986 L889.5,419.5986 A5.25,5.25 0 0 1 893,423.0986 L900,443.9971 L899.5,443.9971 A3.5,3.5 0 0 1 903,447.4971 L903,569.0986 A3.5,3.5 0 0 1 899.5,572.5986 L756.5,572.5986 A3.5,3.5 0 0 1 753,569.0986 L753,423.0986 A3.5,3.5 0 0 1 756.5,419.5986 " fill="none" style="stroke:#454645;stroke-width:1.0;"/><line style="stroke:#454645;stroke-width:1.0;" x1="753" x2="900" y1="443.9971" y2="443.9971"/><text fill="#000000" font-family="Arial" font-size="16" font-weight="bold" lengthAdjust="spacing" textLength="134" x="757" y="436.6064">«aggregate» Role</text></g><!--cluster <<aggregate>> Task--><g id="cluster_&lt;&lt;aggregate&gt;&gt; Task"><path d="M1016.5,79.5986 L1151.5,79.5986 A5.25,5.25 0 0 1 1155,83.0986 L1162,103.9971 L1161.5,103.9971 A3.5,3.5 0 0 1 1165,107.4971 L1165,229.0986 A3.5,3.5 0 0 1 1161.5,232.5986 L1016.5,232.5986 A3.5,3.5 0 0 1 1013,229.0986 L1013,83.0986 A3.5,3.5 0 0 1 1016.5,79.5986 " fill="none" style="stroke:#454645;stroke-width:1.0;"/><line style="stroke:#454645;stroke-width:1.0;" x1="1013" x2="1162" y1="103.9971" y2="103.9971"/><text fill="#000000" font-family="Arial" font-size="16" font-weight="bold" lengthAdjust="spacing" textLength="136" x="1017" y="96.6064">«aggregate» Task</text></g><!--cluster <<aggregate>> TaskType--><g id="cluster_&lt;&lt;aggregate&gt;&gt; TaskType"><path d="M1034.5,1054.0986 L1207.5,1054.0986 A5.25,5.25 0 0 1 1211,1057.5986 L1218,1078.4971 L1217.5,1078.4971 A3.5,3.5 0 0 1 1221,1081.9971 L1221,1221.5986 A3.5,3.5 0 0 1 1217.5,1225.0986 L1034.5,1225.0986 A3.5,3.5 0 0 1 1031,1221.5986 L1031,1057.5986 A3.5,3.5 0 0 1 1034.5,1054.0986 " fill="none" style="stroke:#454645;stroke-width:1.0;"/><line style="stroke:#454645;stroke-width:1.0;" x1="1031" x2="1218" y1="1078.4971" y2="1078.4971"/><text fill="#000000" font-family="Arial" font-size="16" font-weight="bold" lengthAdjust="spacing" textLength="174" x="1035" y="1071.1064">«aggregate» TaskType</text></g><!--class Building--><g id="elem_Building"><rect codeLine="11" fill="#F1F1F1" height="136.3906" id="Building" rx="3.5" ry="3.5" style="stroke:#181818;stroke-width:0.5;" width="92" x="94" y="1082.0986"/><ellipse cx="110.8" cy="1114.6963" fill="#ADD1B2" rx="11" ry="11" style="stroke:#181818;stroke-width:1.0;"/><path d="M109.9563,1115.2432 L109.9563,1117.5869 L114.05,1117.5869 L114.05,1116.7275 Q114.05,1116.1494 114.2688,1115.8994 Q114.4875,1115.6494 114.8469,1115.6494 Q115.2063,1115.6494 115.425,1115.8994 Q115.6438,1116.1494 115.6438,1116.7275 L115.6438,1119.1963 L108.1125,1119.1963 Q107.5344,1119.1963 107.2844,1118.9775 Q107.0344,1118.7432 107.0344,1118.3838 Q107.0344,1118.04 107.2844,1117.8213 Q107.5344,1117.5869 108.1125,1117.5869 L108.3625,1117.5869 L108.3625,1111.3213 L108.1125,1111.3213 Q107.5344,1111.3213 107.2844,1111.1025 Q107.0344,1110.8838 107.0344,1110.5244 Q107.0344,1110.165 107.2844,1109.9463 Q107.5344,1109.7119 108.1125,1109.7119 L115.3,1109.7275 L115.3,1112.165 Q115.3,1112.7275 115.0813,1112.9775 Q114.8625,1113.2275 114.5031,1113.2275 Q114.1438,1113.2275 113.9094,1112.9932 Q113.6906,1112.7432 113.6906,1112.165 L113.6906,1111.3213 L109.9563,1111.3213 L109.9563,1113.6338 L111.3625,1113.6338 Q111.3625,1113.0088 111.4875,1112.8369 Q111.7219,1112.4463 112.175,1112.4463 Q112.5188,1112.4463 112.7375,1112.6963 Q112.9719,1112.9463 112.9719,1113.5244 L112.9719,1115.3682 Q112.9719,1115.8838 112.8469,1116.0713 Q112.5969,1116.4307 112.175,1116.4307 Q111.7219,1116.4307 111.4875,1116.0557 Q111.3625,1115.8682 111.3625,1115.2432 L109.9563,1115.2432 Z " fill="#000000"/><text fill="#000000" font-family="Arial" font-size="16" font-weight="bold" lengthAdjust="spacing" textLength="60" x="123.2" y="1102.1064">«entity»</text><text fill="#000000" font-family="Arial" font-size="16" font-weight="bold" lengthAdjust="spacing" textLength="49" x="128.7" y="1120.5049">«root»</text><text fill="#000000" font-family="Arial" font-size="16" lengthAdjust="spacing" textLength="56" x="125.2" y="1138.9033">Building</text><line style="stroke:#181818;stroke-width:0.5;" x1="95" x2="185" y1="1147.2939" y2="1147.2939"/><text fill="#000000" font-family="Arial" font-size="16" lengthAdjust="spacing" textLength="35" x="100" y="1166.3018">code</text><text fill="#000000" font-family="Arial" font-size="16" lengthAdjust="spacing" textLength="39" x="100" y="1184.7002">name</text><text fill="#000000" font-family="Arial" font-size="16" lengthAdjust="spacing" textLength="80" x="100" y="1203.0986">dimensions</text><line style="stroke:#181818;stroke-width:0.5;" x1="95" x2="185" y1="1210.4893" y2="1210.4893"/></g><!--class Elevator--><g id="elem_Elevator"><rect codeLine="21" fill="#F1F1F1" height="117.9922" id="Elevator" rx="3.5" ry="3.5" style="stroke:#181818;stroke-width:0.5;" width="105" x="41.5" y="447.5986"/><ellipse cx="63.7" cy="480.1963" fill="#ADD1B2" rx="11" ry="11" style="stroke:#181818;stroke-width:1.0;"/><path d="M62.8563,480.7432 L62.8563,483.0869 L66.95,483.0869 L66.95,482.2275 Q66.95,481.6494 67.1688,481.3994 Q67.3875,481.1494 67.7469,481.1494 Q68.1063,481.1494 68.325,481.3994 Q68.5438,481.6494 68.5438,482.2275 L68.5438,484.6963 L61.0125,484.6963 Q60.4344,484.6963 60.1844,484.4775 Q59.9344,484.2432 59.9344,483.8838 Q59.9344,483.54 60.1844,483.3213 Q60.4344,483.0869 61.0125,483.0869 L61.2625,483.0869 L61.2625,476.8213 L61.0125,476.8213 Q60.4344,476.8213 60.1844,476.6025 Q59.9344,476.3838 59.9344,476.0244 Q59.9344,475.665 60.1844,475.4463 Q60.4344,475.2119 61.0125,475.2119 L68.2,475.2275 L68.2,477.665 Q68.2,478.2275 67.9813,478.4775 Q67.7625,478.7275 67.4031,478.7275 Q67.0438,478.7275 66.8094,478.4932 Q66.5906,478.2432 66.5906,477.665 L66.5906,476.8213 L62.8563,476.8213 L62.8563,479.1338 L64.2625,479.1338 Q64.2625,478.5088 64.3875,478.3369 Q64.6219,477.9463 65.075,477.9463 Q65.4188,477.9463 65.6375,478.1963 Q65.8719,478.4463 65.8719,479.0244 L65.8719,480.8682 Q65.8719,481.3838 65.7469,481.5713 Q65.4969,481.9307 65.075,481.9307 Q64.6219,481.9307 64.3875,481.5557 Q64.2625,481.3682 64.2625,480.7432 L62.8563,480.7432 Z " fill="#000000"/><text fill="#000000" font-family="Arial" font-size="16" font-weight="bold" lengthAdjust="spacing" textLength="60" x="77.8" y="467.6064">«entity»</text><text fill="#000000" font-family="Arial" font-size="16" font-weight="bold" lengthAdjust="spacing" textLength="49" x="83.3" y="486.0049">«root»</text><text fill="#000000" font-family="Arial" font-size="16" lengthAdjust="spacing" textLength="57" x="79.3" y="504.4033">Elevator</text><line style="stroke:#181818;stroke-width:0.5;" x1="42.5" x2="145.5" y1="512.7939" y2="512.7939"/><text fill="#000000" font-family="Arial" font-size="16" lengthAdjust="spacing" textLength="81" x="47.5" y="531.8018">designation</text><text fill="#000000" font-family="Arial" font-size="16" lengthAdjust="spacing" textLength="93" x="47.5" y="550.2002">floorsAllowed</text><line style="stroke:#181818;stroke-width:0.5;" x1="42.5" x2="145.5" y1="557.5908" y2="557.5908"/></g><!--class Floor--><g id="elem_Floor"><rect codeLine="29" fill="#F1F1F1" height="99.5938" id="Floor" rx="3.5" ry="3.5" style="stroke:#181818;stroke-width:0.5;" width="89" x="322.5" y="787.5986"/><ellipse cx="337.95" cy="810.9971" fill="#ADD1B2" rx="11" ry="11" style="stroke:#181818;stroke-width:1.0;"/><path d="M337.1063,811.5439 L337.1063,813.8877 L341.2,813.8877 L341.2,813.0283 Q341.2,812.4502 341.4188,812.2002 Q341.6375,811.9502 341.9969,811.9502 Q342.3563,811.9502 342.575,812.2002 Q342.7938,812.4502 342.7938,813.0283 L342.7938,815.4971 L335.2625,815.4971 Q334.6844,815.4971 334.4344,815.2783 Q334.1844,815.0439 334.1844,814.6846 Q334.1844,814.3408 334.4344,814.1221 Q334.6844,813.8877 335.2625,813.8877 L335.5125,813.8877 L335.5125,807.6221 L335.2625,807.6221 Q334.6844,807.6221 334.4344,807.4033 Q334.1844,807.1846 334.1844,806.8252 Q334.1844,806.4658 334.4344,806.2471 Q334.6844,806.0127 335.2625,806.0127 L342.45,806.0283 L342.45,808.4658 Q342.45,809.0283 342.2313,809.2783 Q342.0125,809.5283 341.6531,809.5283 Q341.2938,809.5283 341.0594,809.2939 Q340.8406,809.0439 340.8406,808.4658 L340.8406,807.6221 L337.1063,807.6221 L337.1063,809.9346 L338.5125,809.9346 Q338.5125,809.3096 338.6375,809.1377 Q338.8719,808.7471 339.325,808.7471 Q339.6688,808.7471 339.8875,808.9971 Q340.1219,809.2471 340.1219,809.8252 L340.1219,811.6689 Q340.1219,812.1846 339.9969,812.3721 Q339.7469,812.7314 339.325,812.7314 Q338.8719,812.7314 338.6375,812.3564 Q338.5125,812.1689 338.5125,811.5439 L337.1063,811.5439 Z " fill="#000000"/><text fill="#000000" font-family="Arial" font-size="16" font-weight="bold" lengthAdjust="spacing" textLength="60" x="350.05" y="807.6064">«entity»</text><text fill="#000000" font-family="Arial" font-size="16" lengthAdjust="spacing" textLength="36" x="362.05" y="826.0049">Floor</text><line style="stroke:#181818;stroke-width:0.5;" x1="323.5" x2="410.5" y1="834.3955" y2="834.3955"/><text fill="#000000" font-family="Arial" font-size="16" lengthAdjust="spacing" textLength="52" x="328.5" y="853.4033">number</text><text fill="#000000" font-family="Arial" font-size="16" lengthAdjust="spacing" textLength="77" x="328.5" y="871.8018">information</text><line style="stroke:#181818;stroke-width:0.5;" x1="323.5" x2="410.5" y1="879.1924" y2="879.1924"/></g><!--class FloorMap--><g id="elem_FloorMap"><rect codeLine="36" fill="#F1F1F1" height="99.5938" id="FloorMap" rx="3.5" ry="3.5" style="stroke:#181818;stroke-width:0.5;" width="99" x="254.5" y="116.5986"/><ellipse cx="269.5" cy="139.9971" fill="#ADD1B2" rx="11" ry="11" style="stroke:#181818;stroke-width:1.0;"/><path d="M268.6563,140.5439 L268.6563,142.8877 L272.75,142.8877 L272.75,142.0283 Q272.75,141.4502 272.9688,141.2002 Q273.1875,140.9502 273.5469,140.9502 Q273.9063,140.9502 274.125,141.2002 Q274.3438,141.4502 274.3438,142.0283 L274.3438,144.4971 L266.8125,144.4971 Q266.2344,144.4971 265.9844,144.2783 Q265.7344,144.0439 265.7344,143.6846 Q265.7344,143.3408 265.9844,143.1221 Q266.2344,142.8877 266.8125,142.8877 L267.0625,142.8877 L267.0625,136.6221 L266.8125,136.6221 Q266.2344,136.6221 265.9844,136.4033 Q265.7344,136.1846 265.7344,135.8252 Q265.7344,135.4658 265.9844,135.2471 Q266.2344,135.0127 266.8125,135.0127 L274,135.0283 L274,137.4658 Q274,138.0283 273.7813,138.2783 Q273.5625,138.5283 273.2031,138.5283 Q272.8438,138.5283 272.6094,138.2939 Q272.3906,138.0439 272.3906,137.4658 L272.3906,136.6221 L268.6563,136.6221 L268.6563,138.9346 L270.0625,138.9346 Q270.0625,138.3096 270.1875,138.1377 Q270.4219,137.7471 270.875,137.7471 Q271.2188,137.7471 271.4375,137.9971 Q271.6719,138.2471 271.6719,138.8252 L271.6719,140.6689 Q271.6719,141.1846 271.5469,141.3721 Q271.2969,141.7314 270.875,141.7314 Q270.4219,141.7314 270.1875,141.3564 Q270.0625,141.1689 270.0625,140.5439 L268.6563,140.5439 Z " fill="#000000"/><text fill="#000000" font-family="Arial" font-size="16" font-weight="bold" lengthAdjust="spacing" textLength="60" x="287" y="136.6064">«entity»</text><text fill="#000000" font-family="Arial" font-size="16" lengthAdjust="spacing" textLength="67" x="283.5" y="155.0049">FloorMap</text><line style="stroke:#181818;stroke-width:0.5;" x1="255.5" x2="352.5" y1="163.3955" y2="163.3955"/><text fill="#000000" font-family="Arial" font-size="16" lengthAdjust="spacing" textLength="31" x="260.5" y="182.4033">map</text><text fill="#000000" font-family="Arial" font-size="16" lengthAdjust="spacing" textLength="40" x="260.5" y="200.8018">doors</text><line style="stroke:#181818;stroke-width:0.5;" x1="255.5" x2="352.5" y1="208.1924" y2="208.1924"/></g><!--class Room--><g id="elem_Room"><rect codeLine="43" fill="#F1F1F1" height="81.1953" id="Room" rx="3.5" ry="3.5" style="stroke:#181818;stroke-width:0.5;" width="88" x="382" y="466.0986"/><ellipse cx="397" cy="489.4971" fill="#ADD1B2" rx="11" ry="11" style="stroke:#181818;stroke-width:1.0;"/><path d="M396.1563,490.0439 L396.1563,492.3877 L400.25,492.3877 L400.25,491.5283 Q400.25,490.9502 400.4688,490.7002 Q400.6875,490.4502 401.0469,490.4502 Q401.4063,490.4502 401.625,490.7002 Q401.8438,490.9502 401.8438,491.5283 L401.8438,493.9971 L394.3125,493.9971 Q393.7344,493.9971 393.4844,493.7783 Q393.2344,493.5439 393.2344,493.1846 Q393.2344,492.8408 393.4844,492.6221 Q393.7344,492.3877 394.3125,492.3877 L394.5625,492.3877 L394.5625,486.1221 L394.3125,486.1221 Q393.7344,486.1221 393.4844,485.9033 Q393.2344,485.6846 393.2344,485.3252 Q393.2344,484.9658 393.4844,484.7471 Q393.7344,484.5127 394.3125,484.5127 L401.5,484.5283 L401.5,486.9658 Q401.5,487.5283 401.2813,487.7783 Q401.0625,488.0283 400.7031,488.0283 Q400.3438,488.0283 400.1094,487.7939 Q399.8906,487.5439 399.8906,486.9658 L399.8906,486.1221 L396.1563,486.1221 L396.1563,488.4346 L397.5625,488.4346 Q397.5625,487.8096 397.6875,487.6377 Q397.9219,487.2471 398.375,487.2471 Q398.7188,487.2471 398.9375,487.4971 Q399.1719,487.7471 399.1719,488.3252 L399.1719,490.1689 Q399.1719,490.6846 399.0469,490.8721 Q398.7969,491.2314 398.375,491.2314 Q397.9219,491.2314 397.6875,490.8564 Q397.5625,490.6689 397.5625,490.0439 L396.1563,490.0439 Z " fill="#000000"/><text fill="#000000" font-family="Arial" font-size="16" font-weight="bold" lengthAdjust="spacing" textLength="60" x="409" y="486.1064">«entity»</text><text fill="#000000" font-family="Arial" font-size="16" lengthAdjust="spacing" textLength="42" x="418" y="504.5049">Room</text><line style="stroke:#181818;stroke-width:0.5;" x1="383" x2="469" y1="512.8955" y2="512.8955"/><text fill="#000000" font-family="Arial" font-size="16" lengthAdjust="spacing" textLength="52" x="388" y="531.9033">number</text><line style="stroke:#181818;stroke-width:0.5;" x1="383" x2="469" y1="539.2939" y2="539.2939"/></g><!--class Passage--><g id="elem_Passage"><rect codeLine="49" fill="#F1F1F1" height="81.1953" id="Passage" rx="3.5" ry="3.5" style="stroke:#181818;stroke-width:0.5;" width="95" x="564.5" y="466.0986"/><ellipse cx="579.5" cy="489.4971" fill="#ADD1B2" rx="11" ry="11" style="stroke:#181818;stroke-width:1.0;"/><path d="M578.6563,490.0439 L578.6563,492.3877 L582.75,492.3877 L582.75,491.5283 Q582.75,490.9502 582.9688,490.7002 Q583.1875,490.4502 583.5469,490.4502 Q583.9063,490.4502 584.125,490.7002 Q584.3438,490.9502 584.3438,491.5283 L584.3438,493.9971 L576.8125,493.9971 Q576.2344,493.9971 575.9844,493.7783 Q575.7344,493.5439 575.7344,493.1846 Q575.7344,492.8408 575.9844,492.6221 Q576.2344,492.3877 576.8125,492.3877 L577.0625,492.3877 L577.0625,486.1221 L576.8125,486.1221 Q576.2344,486.1221 575.9844,485.9033 Q575.7344,485.6846 575.7344,485.3252 Q575.7344,484.9658 575.9844,484.7471 Q576.2344,484.5127 576.8125,484.5127 L584,484.5283 L584,486.9658 Q584,487.5283 583.7813,487.7783 Q583.5625,488.0283 583.2031,488.0283 Q582.8438,488.0283 582.6094,487.7939 Q582.3906,487.5439 582.3906,486.9658 L582.3906,486.1221 L578.6563,486.1221 L578.6563,488.4346 L580.0625,488.4346 Q580.0625,487.8096 580.1875,487.6377 Q580.4219,487.2471 580.875,487.2471 Q581.2188,487.2471 581.4375,487.4971 Q581.6719,487.7471 581.6719,488.3252 L581.6719,490.1689 Q581.6719,490.6846 581.5469,490.8721 Q581.2969,491.2314 580.875,491.2314 Q580.4219,491.2314 580.1875,490.8564 Q580.0625,490.6689 580.0625,490.0439 L578.6563,490.0439 Z " fill="#000000"/><text fill="#000000" font-family="Arial" font-size="16" font-weight="bold" lengthAdjust="spacing" textLength="60" x="595" y="486.1064">«entity»</text><text fill="#000000" font-family="Arial" font-size="16" lengthAdjust="spacing" textLength="63" x="593.5" y="504.5049">Passage</text><line style="stroke:#181818;stroke-width:0.5;" x1="565.5" x2="658.5" y1="512.8955" y2="512.8955"/><text fill="#000000" font-family="Arial" font-size="16" lengthAdjust="spacing" textLength="81" x="570.5" y="531.9033">designation</text><line style="stroke:#181818;stroke-width:0.5;" x1="565.5" x2="658.5" y1="539.2939" y2="539.2939"/></g><!--class User--><g id="elem_User"><rect codeLine="56" fill="#F1F1F1" height="173.1875" id="User" rx="3.5" ry="3.5" style="stroke:#181818;stroke-width:0.5;" width="88" x="784" y="80.0986"/><ellipse cx="799" cy="112.6963" fill="#ADD1B2" rx="11" ry="11" style="stroke:#181818;stroke-width:1.0;"/><path d="M798.1563,113.2432 L798.1563,115.5869 L802.25,115.5869 L802.25,114.7275 Q802.25,114.1494 802.4688,113.8994 Q802.6875,113.6494 803.0469,113.6494 Q803.4063,113.6494 803.625,113.8994 Q803.8438,114.1494 803.8438,114.7275 L803.8438,117.1963 L796.3125,117.1963 Q795.7344,117.1963 795.4844,116.9775 Q795.2344,116.7432 795.2344,116.3838 Q795.2344,116.04 795.4844,115.8213 Q795.7344,115.5869 796.3125,115.5869 L796.5625,115.5869 L796.5625,109.3213 L796.3125,109.3213 Q795.7344,109.3213 795.4844,109.1025 Q795.2344,108.8838 795.2344,108.5244 Q795.2344,108.165 795.4844,107.9463 Q795.7344,107.7119 796.3125,107.7119 L803.5,107.7275 L803.5,110.165 Q803.5,110.7275 803.2813,110.9775 Q803.0625,111.2275 802.7031,111.2275 Q802.3438,111.2275 802.1094,110.9932 Q801.8906,110.7432 801.8906,110.165 L801.8906,109.3213 L798.1563,109.3213 L798.1563,111.6338 L799.5625,111.6338 Q799.5625,111.0088 799.6875,110.8369 Q799.9219,110.4463 800.375,110.4463 Q800.7188,110.4463 800.9375,110.6963 Q801.1719,110.9463 801.1719,111.5244 L801.1719,113.3682 Q801.1719,113.8838 801.0469,114.0713 Q800.7969,114.4307 800.375,114.4307 Q799.9219,114.4307 799.6875,114.0557 Q799.5625,113.8682 799.5625,113.2432 L798.1563,113.2432 Z " fill="#000000"/><text fill="#000000" font-family="Arial" font-size="16" font-weight="bold" lengthAdjust="spacing" textLength="60" x="811" y="100.1064">«entity»</text><text fill="#000000" font-family="Arial" font-size="16" font-weight="bold" lengthAdjust="spacing" textLength="49" x="816.5" y="118.5049">«root»</text><text fill="#000000" font-family="Arial" font-size="16" lengthAdjust="spacing" textLength="33" x="824.5" y="136.9033">User</text><line style="stroke:#181818;stroke-width:0.5;" x1="785" x2="871" y1="145.2939" y2="145.2939"/><text fill="#000000" font-family="Arial" font-size="16" lengthAdjust="spacing" textLength="67" x="790" y="164.3018">firstName</text><text fill="#000000" font-family="Arial" font-size="16" lengthAdjust="spacing" textLength="66" x="790" y="182.7002">lastName</text><text fill="#000000" font-family="Arial" font-size="16" lengthAdjust="spacing" textLength="38" x="790" y="201.0986">email</text><text fill="#000000" font-family="Arial" font-size="16" lengthAdjust="spacing" textLength="68" x="790" y="219.4971">password</text><text fill="#000000" font-family="Arial" font-size="16" lengthAdjust="spacing" textLength="26" x="790" y="237.8955">role</text><line style="stroke:#181818;stroke-width:0.5;" x1="785" x2="871" y1="245.2861" y2="245.2861"/></g><!--class Robot--><g id="elem_Robot"><rect codeLine="66" fill="#F1F1F1" height="173.1875" id="Robot" rx="3.5" ry="3.5" style="stroke:#181818;stroke-width:0.5;" width="105" x="955.5" y="420.0986"/><ellipse cx="978.15" cy="452.6963" fill="#ADD1B2" rx="11" ry="11" style="stroke:#181818;stroke-width:1.0;"/><path d="M977.3063,453.2432 L977.3063,455.5869 L981.4,455.5869 L981.4,454.7275 Q981.4,454.1494 981.6188,453.8994 Q981.8375,453.6494 982.1969,453.6494 Q982.5563,453.6494 982.775,453.8994 Q982.9938,454.1494 982.9938,454.7275 L982.9938,457.1963 L975.4625,457.1963 Q974.8844,457.1963 974.6344,456.9775 Q974.3844,456.7432 974.3844,456.3838 Q974.3844,456.04 974.6344,455.8213 Q974.8844,455.5869 975.4625,455.5869 L975.7125,455.5869 L975.7125,449.3213 L975.4625,449.3213 Q974.8844,449.3213 974.6344,449.1025 Q974.3844,448.8838 974.3844,448.5244 Q974.3844,448.165 974.6344,447.9463 Q974.8844,447.7119 975.4625,447.7119 L982.65,447.7275 L982.65,450.165 Q982.65,450.7275 982.4313,450.9775 Q982.2125,451.2275 981.8531,451.2275 Q981.4938,451.2275 981.2594,450.9932 Q981.0406,450.7432 981.0406,450.165 L981.0406,449.3213 L977.3063,449.3213 L977.3063,451.6338 L978.7125,451.6338 Q978.7125,451.0088 978.8375,450.8369 Q979.0719,450.4463 979.525,450.4463 Q979.8688,450.4463 980.0875,450.6963 Q980.3219,450.9463 980.3219,451.5244 L980.3219,453.3682 Q980.3219,453.8838 980.1969,454.0713 Q979.9469,454.4307 979.525,454.4307 Q979.0719,454.4307 978.8375,454.0557 Q978.7125,453.8682 978.7125,453.2432 L977.3063,453.2432 Z " fill="#000000"/><text fill="#000000" font-family="Arial" font-size="16" font-weight="bold" lengthAdjust="spacing" textLength="60" x="991.85" y="440.1064">«entity»</text><text fill="#000000" font-family="Arial" font-size="16" font-weight="bold" lengthAdjust="spacing" textLength="49" x="997.35" y="458.5049">«root»</text><text fill="#000000" font-family="Arial" font-size="16" lengthAdjust="spacing" textLength="42" x="1000.85" y="476.9033">Robot</text><line style="stroke:#181818;stroke-width:0.5;" x1="956.5" x2="1059.5" y1="485.2939" y2="485.2939"/><text fill="#000000" font-family="Arial" font-size="16" lengthAdjust="spacing" textLength="88" x="961.5" y="504.3018">identification</text><text fill="#000000" font-family="Arial" font-size="16" lengthAdjust="spacing" textLength="67" x="961.5" y="522.7002">nickname</text><text fill="#000000" font-family="Arial" font-size="16" lengthAdjust="spacing" textLength="93" x="961.5" y="541.0986">serialNumber</text><text fill="#000000" font-family="Arial" font-size="16" lengthAdjust="spacing" textLength="77" x="961.5" y="559.4971">description</text><text fill="#000000" font-family="Arial" font-size="16" lengthAdjust="spacing" textLength="34" x="961.5" y="577.8955">state</text><line style="stroke:#181818;stroke-width:0.5;" x1="956.5" x2="1059.5" y1="585.2861" y2="585.2861"/></g><!--class RobotType--><g id="elem_RobotType"><rect codeLine="76" fill="#F1F1F1" height="154.7891" id="RobotType" rx="3.5" ry="3.5" style="stroke:#181818;stroke-width:0.5;" width="108" x="963" y="760.0986"/><ellipse cx="978" cy="792.6963" fill="#ADD1B2" rx="11" ry="11" style="stroke:#181818;stroke-width:1.0;"/><path d="M977.1563,793.2432 L977.1563,795.5869 L981.25,795.5869 L981.25,794.7275 Q981.25,794.1494 981.4688,793.8994 Q981.6875,793.6494 982.0469,793.6494 Q982.4063,793.6494 982.625,793.8994 Q982.8438,794.1494 982.8438,794.7275 L982.8438,797.1963 L975.3125,797.1963 Q974.7344,797.1963 974.4844,796.9775 Q974.2344,796.7432 974.2344,796.3838 Q974.2344,796.04 974.4844,795.8213 Q974.7344,795.5869 975.3125,795.5869 L975.5625,795.5869 L975.5625,789.3213 L975.3125,789.3213 Q974.7344,789.3213 974.4844,789.1025 Q974.2344,788.8838 974.2344,788.5244 Q974.2344,788.165 974.4844,787.9463 Q974.7344,787.7119 975.3125,787.7119 L982.5,787.7275 L982.5,790.165 Q982.5,790.7275 982.2813,790.9775 Q982.0625,791.2275 981.7031,791.2275 Q981.3438,791.2275 981.1094,790.9932 Q980.8906,790.7432 980.8906,790.165 L980.8906,789.3213 L977.1563,789.3213 L977.1563,791.6338 L978.5625,791.6338 Q978.5625,791.0088 978.6875,790.8369 Q978.9219,790.4463 979.375,790.4463 Q979.7188,790.4463 979.9375,790.6963 Q980.1719,790.9463 980.1719,791.5244 L980.1719,793.3682 Q980.1719,793.8838 980.0469,794.0713 Q979.7969,794.4307 979.375,794.4307 Q978.9219,794.4307 978.6875,794.0557 Q978.5625,793.8682 978.5625,793.2432 L977.1563,793.2432 Z " fill="#000000"/><text fill="#000000" font-family="Arial" font-size="16" font-weight="bold" lengthAdjust="spacing" textLength="60" x="1000" y="780.1064">«entity»</text><text fill="#000000" font-family="Arial" font-size="16" font-weight="bold" lengthAdjust="spacing" textLength="49" x="1005.5" y="798.5049">«root»</text><text fill="#000000" font-family="Arial" font-size="16" lengthAdjust="spacing" textLength="76" x="992" y="816.9033">RobotType</text><line style="stroke:#181818;stroke-width:0.5;" x1="964" x2="1070" y1="825.2939" y2="825.2939"/><text fill="#000000" font-family="Arial" font-size="16" lengthAdjust="spacing" textLength="29" x="969" y="844.3018">type</text><text fill="#000000" font-family="Arial" font-size="16" lengthAdjust="spacing" textLength="40" x="969" y="862.7002">brand</text><text fill="#000000" font-family="Arial" font-size="16" lengthAdjust="spacing" textLength="43" x="969" y="881.0986">model</text><text fill="#000000" font-family="Arial" font-size="16" lengthAdjust="spacing" textLength="92" x="969" y="899.4971">tasksAllowed</text><line style="stroke:#181818;stroke-width:0.5;" x1="964" x2="1070" y1="906.8877" y2="906.8877"/></g><!--class Role--><g id="elem_Role"><rect codeLine="85" fill="#F1F1F1" height="99.5938" id="Role" rx="3.5" ry="3.5" style="stroke:#181818;stroke-width:0.5;" width="88" x="784" y="456.5986"/><ellipse cx="799" cy="489.1963" fill="#ADD1B2" rx="11" ry="11" style="stroke:#181818;stroke-width:1.0;"/><path d="M798.1563,489.7432 L798.1563,492.0869 L802.25,492.0869 L802.25,491.2275 Q802.25,490.6494 802.4688,490.3994 Q802.6875,490.1494 803.0469,490.1494 Q803.4063,490.1494 803.625,490.3994 Q803.8438,490.6494 803.8438,491.2275 L803.8438,493.6963 L796.3125,493.6963 Q795.7344,493.6963 795.4844,493.4775 Q795.2344,493.2432 795.2344,492.8838 Q795.2344,492.54 795.4844,492.3213 Q795.7344,492.0869 796.3125,492.0869 L796.5625,492.0869 L796.5625,485.8213 L796.3125,485.8213 Q795.7344,485.8213 795.4844,485.6025 Q795.2344,485.3838 795.2344,485.0244 Q795.2344,484.665 795.4844,484.4463 Q795.7344,484.2119 796.3125,484.2119 L803.5,484.2275 L803.5,486.665 Q803.5,487.2275 803.2813,487.4775 Q803.0625,487.7275 802.7031,487.7275 Q802.3438,487.7275 802.1094,487.4932 Q801.8906,487.2432 801.8906,486.665 L801.8906,485.8213 L798.1563,485.8213 L798.1563,488.1338 L799.5625,488.1338 Q799.5625,487.5088 799.6875,487.3369 Q799.9219,486.9463 800.375,486.9463 Q800.7188,486.9463 800.9375,487.1963 Q801.1719,487.4463 801.1719,488.0244 L801.1719,489.8682 Q801.1719,490.3838 801.0469,490.5713 Q800.7969,490.9307 800.375,490.9307 Q799.9219,490.9307 799.6875,490.5557 Q799.5625,490.3682 799.5625,489.7432 L798.1563,489.7432 Z " fill="#000000"/><text fill="#000000" font-family="Arial" font-size="16" font-weight="bold" lengthAdjust="spacing" textLength="60" x="811" y="476.6064">«entity»</text><text fill="#000000" font-family="Arial" font-size="16" font-weight="bold" lengthAdjust="spacing" textLength="49" x="816.5" y="495.0049">«root»</text><text fill="#000000" font-family="Arial" font-size="16" lengthAdjust="spacing" textLength="32" x="825" y="513.4033">Role</text><line style="stroke:#181818;stroke-width:0.5;" x1="785" x2="871" y1="521.7939" y2="521.7939"/><text fill="#000000" font-family="Arial" font-size="16" lengthAdjust="spacing" textLength="39" x="790" y="540.8018">name</text><line style="stroke:#181818;stroke-width:0.5;" x1="785" x2="871" y1="548.1924" y2="548.1924"/></g><!--class Task--><g id="elem_Task"><rect codeLine="99" fill="#F1F1F1" height="99.5938" id="Task" rx="3.5" ry="3.5" style="stroke:#181818;stroke-width:0.5;" width="93" x="1042.5" y="116.5986"/><ellipse cx="1059.75" cy="149.1963" fill="#ADD1B2" rx="11" ry="11" style="stroke:#181818;stroke-width:1.0;"/><path d="M1058.9063,149.7432 L1058.9063,152.0869 L1063,152.0869 L1063,151.2275 Q1063,150.6494 1063.2188,150.3994 Q1063.4375,150.1494 1063.7969,150.1494 Q1064.1563,150.1494 1064.375,150.3994 Q1064.5938,150.6494 1064.5938,151.2275 L1064.5938,153.6963 L1057.0625,153.6963 Q1056.4844,153.6963 1056.2344,153.4775 Q1055.9844,153.2432 1055.9844,152.8838 Q1055.9844,152.54 1056.2344,152.3213 Q1056.4844,152.0869 1057.0625,152.0869 L1057.3125,152.0869 L1057.3125,145.8213 L1057.0625,145.8213 Q1056.4844,145.8213 1056.2344,145.6025 Q1055.9844,145.3838 1055.9844,145.0244 Q1055.9844,144.665 1056.2344,144.4463 Q1056.4844,144.2119 1057.0625,144.2119 L1064.25,144.2275 L1064.25,146.665 Q1064.25,147.2275 1064.0313,147.4775 Q1063.8125,147.7275 1063.4531,147.7275 Q1063.0938,147.7275 1062.8594,147.4932 Q1062.6406,147.2432 1062.6406,146.665 L1062.6406,145.8213 L1058.9063,145.8213 L1058.9063,148.1338 L1060.3125,148.1338 Q1060.3125,147.5088 1060.4375,147.3369 Q1060.6719,146.9463 1061.125,146.9463 Q1061.4688,146.9463 1061.6875,147.1963 Q1061.9219,147.4463 1061.9219,148.0244 L1061.9219,149.8682 Q1061.9219,150.3838 1061.7969,150.5713 Q1061.5469,150.9307 1061.125,150.9307 Q1060.6719,150.9307 1060.4375,150.5557 Q1060.3125,150.3682 1060.3125,149.7432 L1058.9063,149.7432 Z " fill="#000000"/><text fill="#000000" font-family="Arial" font-size="16" font-weight="bold" lengthAdjust="spacing" textLength="60" x="1072.25" y="136.6064">«entity»</text><text fill="#000000" font-family="Arial" font-size="16" font-weight="bold" lengthAdjust="spacing" textLength="49" x="1077.75" y="155.0049">«root»</text><text fill="#000000" font-family="Arial" font-size="16" lengthAdjust="spacing" textLength="34" x="1085.25" y="173.4033">Task</text><line style="stroke:#181818;stroke-width:0.5;" x1="1043.5" x2="1134.5" y1="181.7939" y2="181.7939"/><text fill="#000000" font-family="Arial" font-size="16" lengthAdjust="spacing" textLength="81" x="1048.5" y="200.8018">designation</text><line style="stroke:#181818;stroke-width:0.5;" x1="1043.5" x2="1134.5" y1="208.1924" y2="208.1924"/></g><!--class TaskType--><g id="elem_TaskType"><rect codeLine="105" fill="#F1F1F1" height="117.9922" id="TaskType" rx="3.5" ry="3.5" style="stroke:#181818;stroke-width:0.5;" width="100" x="1064" y="1091.0986"/><ellipse cx="1079" cy="1123.6963" fill="#ADD1B2" rx="11" ry="11" style="stroke:#181818;stroke-width:1.0;"/><path d="M1078.1563,1124.2432 L1078.1563,1126.5869 L1082.25,1126.5869 L1082.25,1125.7275 Q1082.25,1125.1494 1082.4688,1124.8994 Q1082.6875,1124.6494 1083.0469,1124.6494 Q1083.4063,1124.6494 1083.625,1124.8994 Q1083.8438,1125.1494 1083.8438,1125.7275 L1083.8438,1128.1963 L1076.3125,1128.1963 Q1075.7344,1128.1963 1075.4844,1127.9775 Q1075.2344,1127.7432 1075.2344,1127.3838 Q1075.2344,1127.04 1075.4844,1126.8213 Q1075.7344,1126.5869 1076.3125,1126.5869 L1076.5625,1126.5869 L1076.5625,1120.3213 L1076.3125,1120.3213 Q1075.7344,1120.3213 1075.4844,1120.1025 Q1075.2344,1119.8838 1075.2344,1119.5244 Q1075.2344,1119.165 1075.4844,1118.9463 Q1075.7344,1118.7119 1076.3125,1118.7119 L1083.5,1118.7275 L1083.5,1121.165 Q1083.5,1121.7275 1083.2813,1121.9775 Q1083.0625,1122.2275 1082.7031,1122.2275 Q1082.3438,1122.2275 1082.1094,1121.9932 Q1081.8906,1121.7432 1081.8906,1121.165 L1081.8906,1120.3213 L1078.1563,1120.3213 L1078.1563,1122.6338 L1079.5625,1122.6338 Q1079.5625,1122.0088 1079.6875,1121.8369 Q1079.9219,1121.4463 1080.375,1121.4463 Q1080.7188,1121.4463 1080.9375,1121.6963 Q1081.1719,1121.9463 1081.1719,1122.5244 L1081.1719,1124.3682 Q1081.1719,1124.8838 1081.0469,1125.0713 Q1080.7969,1125.4307 1080.375,1125.4307 Q1079.9219,1125.4307 1079.6875,1125.0557 Q1079.5625,1124.8682 1079.5625,1124.2432 L1078.1563,1124.2432 Z " fill="#000000"/><text fill="#000000" font-family="Arial" font-size="16" font-weight="bold" lengthAdjust="spacing" textLength="60" x="1097" y="1111.1064">«entity»</text><text fill="#000000" font-family="Arial" font-size="16" font-weight="bold" lengthAdjust="spacing" textLength="49" x="1102.5" y="1129.5049">«root»</text><text fill="#000000" font-family="Arial" font-size="16" lengthAdjust="spacing" textLength="68" x="1093" y="1147.9033">TaskType</text><line style="stroke:#181818;stroke-width:0.5;" x1="1065" x2="1163" y1="1156.2939" y2="1156.2939"/><text fill="#000000" font-family="Arial" font-size="16" lengthAdjust="spacing" textLength="39" x="1070" y="1175.3018">name</text><text fill="#000000" font-family="Arial" font-size="16" lengthAdjust="spacing" textLength="81" x="1070" y="1193.7002">designation</text><line style="stroke:#181818;stroke-width:0.5;" x1="1065" x2="1163" y1="1201.0908" y2="1201.0908"/></g><!--link User to Role--><g id="link_User_Role"><path codeLine="113" d="M828,253.3286 C828,317.4786 828,402.9686 828,456.1286 " fill="none" id="User-Role" style="stroke:#454645;stroke-width:2.5;"/><polygon fill="#000000" points="834,332.2979,837.5267,321.4437,830.4733,321.4437,834,332.2979" style="stroke:#000000;stroke-width:1.0;"/><text fill="#000000" font-family="Arial" font-size="16" lengthAdjust="spacing" textLength="25" x="845" y="332.1064">has</text><text fill="#000000" font-family="Arial" font-size="16" lengthAdjust="spacing" textLength="6" x="821.7516" y="276.2728">*</text><text fill="#000000" font-family="Arial" font-size="16" lengthAdjust="spacing" textLength="9" x="818.3953" y="445.1992">1</text></g><!--link Floor to Building--><g id="link_Floor_Building"><path codeLine="116" d="M331.03,887.7986 C291.84,941.4086 229.02,1027.3286 186.2,1085.8986 " fill="none" id="Floor-Building" style="stroke:#454645;stroke-width:2.5;"/><polygon fill="#000000" points="266.4589,993.1414,275.7118,986.4607,270.0178,982.2979,266.4589,993.1414" style="stroke:#000000;stroke-width:1.0;"/><text fill="#000000" font-family="Arial" font-size="16" lengthAdjust="spacing" textLength="93" x="281" y="994.1064">is associated</text><text fill="#000000" font-family="Arial" font-size="16" lengthAdjust="spacing" textLength="6" x="320.2805" y="910.0705">*</text><text fill="#000000" font-family="Arial" font-size="16" lengthAdjust="spacing" textLength="9" x="193.9634" y="1071.6983">1</text></g><!--link Elevator to Building--><g id="link_Elevator_Building"><path codeLine="117" d="M107.12,565.6186 C112.73,595.2286 118,631.9086 118,665.0986 C118,665.0986 118,665.0986 118,989.0986 C118,1019.7986 122.03,1053.5086 126.63,1082.0386 " fill="none" id="Elevator-Building" style="stroke:#454645;stroke-width:2.5;"/><polygon fill="#000000" points="124.2265,843.7936,127.3409,832.8141,120.2925,833.0804,124.2265,843.7936" style="stroke:#000000;stroke-width:1.0;"/><text fill="#000000" font-family="Arial" font-size="16" lengthAdjust="spacing" textLength="93" x="135" y="843.6064">is associated</text><text fill="#000000" font-family="Arial" font-size="16" lengthAdjust="spacing" textLength="9" x="99.1167" y="588.5147">1</text><text fill="#000000" font-family="Arial" font-size="16" lengthAdjust="spacing" textLength="9" x="115.6755" y="1070.6184">1</text></g><!--link Room to Floor--><g id="link_Room_Floor"><path codeLine="120" d="M418.88,547.2886 C408.08,607.5286 387.56,721.9586 375.82,787.3986 " fill="none" id="Room-Floor" style="stroke:#454645;stroke-width:2.5;"/><polygon fill="#000000" points="403.9409,672.2036,409.3282,662.1425,402.3855,660.8974,403.9409,672.2036" style="stroke:#000000;stroke-width:1.0;"/><text fill="#000000" font-family="Arial" font-size="16" lengthAdjust="spacing" textLength="33" x="416" y="672.1064">is on</text><text fill="#000000" font-family="Arial" font-size="16" lengthAdjust="spacing" textLength="6" x="411.2671" y="570.232">*</text><text fill="#000000" font-family="Arial" font-size="16" lengthAdjust="spacing" textLength="9" x="367.4275" y="776.138">1</text></g><!--link Passage to Floor--><g id="link_Passage_Floor"><path codeLine="123" d="M582.45,547.2886 C537.58,607.5286 452.37,721.9586 403.64,787.3986 " fill="none" id="Passage-Floor" style="stroke:#454645;stroke-width:2.5;"/><polygon fill="#000000" points="502.4163,671.1101,511.7278,664.5111,506.0707,660.2983,502.4163,671.1101" style="stroke:#000000;stroke-width:1.0;"/><text fill="#000000" font-family="Arial" font-size="16" lengthAdjust="spacing" textLength="62" x="517" y="672.1064">connects</text><text fill="#000000" font-family="Arial" font-size="16" lengthAdjust="spacing" textLength="6" x="571.2623" y="570.232">*</text><text fill="#000000" font-family="Arial" font-size="16" lengthAdjust="spacing" textLength="9" x="399.1597" y="776.138">1</text></g><!--link Task to Robot--><g id="link_Task_Robot"><path codeLine="126" d="M1067.16,216.8686 C1055.37,245.3486 1041.52,282.1586 1033,316.0986 C1024.6,349.5686 1018.9,387.1186 1015.09,419.9186 " fill="none" id="Task-Robot" style="stroke:#454645;stroke-width:2.5;"/><polygon fill="#000000" points="1037.5096,332.1098,1043.6219,322.4719,1036.7896,320.7198,1037.5096,332.1098" style="stroke:#000000;stroke-width:1.0;"/><text fill="#000000" font-family="Arial" font-size="16" lengthAdjust="spacing" textLength="93" x="1050" y="332.1064">is associated</text><text fill="#000000" font-family="Arial" font-size="16" lengthAdjust="spacing" textLength="6" x="1058.1326" y="239.149">*</text><text fill="#000000" font-family="Arial" font-size="16" lengthAdjust="spacing" textLength="9" x="1006.3126" y="408.713">1</text></g><!--link Task to TaskType--><g id="link_Task_TaskType"><path codeLine="127" d="M1129.5,216.8286 C1149.75,246.3686 1170,285.7386 1170,325.0986 C1170,325.0986 1170,325.0986 1170,989.0986 C1170,1024.1186 1157.9,1061.1586 1144.95,1090.7686 " fill="none" id="Task-TaskType" style="stroke:#454645;stroke-width:2.5;"/><polygon fill="#000000" points="1176.1061,672.2969,1179.4404,661.3822,1172.388,661.5068,1176.1061,672.2969" style="stroke:#000000;stroke-width:1.0;"/><text fill="#000000" font-family="Arial" font-size="16" lengthAdjust="spacing" textLength="38" x="1187" y="672.1064">has a</text><text fill="#000000" font-family="Arial" font-size="16" lengthAdjust="spacing" textLength="6" x="1128.0703" y="239.1041">*</text><text fill="#000000" font-family="Arial" font-size="16" lengthAdjust="spacing" textLength="9" x="1139.0083" y="1079.8993">1</text></g><!--link Robot to RobotType--><g id="link_Robot_RobotType"><path codeLine="130" d="M1010.34,593.1786 C1011.75,644.7786 1013.54,709.9486 1014.9,759.8686 " fill="none" id="Robot-RobotType" style="stroke:#454645;stroke-width:2.5;"/><polygon fill="#000000" points="1018.1641,672.2956,1021.3927,661.3491,1014.3419,661.542,1018.1641,672.2956" style="stroke:#000000;stroke-width:1.0;"/><text fill="#000000" font-family="Arial" font-size="16" lengthAdjust="spacing" textLength="38" x="1029" y="672.1064">has a</text><text fill="#000000" font-family="Arial" font-size="16" lengthAdjust="spacing" textLength="6" x="1004.2833" y="616.4094">*</text><text fill="#000000" font-family="Arial" font-size="16" lengthAdjust="spacing" textLength="9" x="1005.2709" y="748.639">1</text></g><!--link RobotType to TaskType--><g id="link_RobotType_TaskType"><path codeLine="133" d="M1034.35,915.3586 C1040.82,941.7686 1048.64,971.3986 1057,998.0986 C1066.71,1029.1186 1079.32,1063.0286 1090.22,1090.8486 " fill="none" id="RobotType-TaskType" style="stroke:#454645;stroke-width:2.5;"/><polygon fill="#000000" points="1064.8202,994.0151,1064.888,982.6026,1058.1669,984.7424,1064.8202,994.0151" style="stroke:#000000;stroke-width:1.0;"/><text fill="#000000" font-family="Arial" font-size="16" lengthAdjust="spacing" textLength="69" x="1074" y="994.1064">is allowed</text><text fill="#000000" font-family="Arial" font-size="16" lengthAdjust="spacing" textLength="6" x="1029.5832" y="937.8486">*</text><text fill="#000000" font-family="Arial" font-size="16" lengthAdjust="spacing" textLength="6" x="1080.9562" y="1079.5632">*</text></g><!--link FloorMap to Floor--><g id="link_FloorMap_Floor"><path codeLine="136" d="M270.6,216.7086 C253.4,246.6786 236,286.5286 236,325.0986 C236,325.0986 236,325.0986 236,667.0986 C236,724.9286 284.33,775.0486 322.28,805.4786 " fill="none" id="FloorMap-Floor" style="stroke:#454645;stroke-width:2.5;"/><polygon fill="#000000" points="242.5246,512.7749,245.0888,501.654,238.0624,502.2707,242.5246,512.7749" style="stroke:#000000;stroke-width:1.0;"/><text fill="#000000" font-family="Arial" font-size="16" lengthAdjust="spacing" textLength="93" x="253" y="512.6064">is associated</text><text fill="#000000" font-family="Arial" font-size="16" lengthAdjust="spacing" textLength="6" x="259.9363" y="239.3415">*</text><text fill="#000000" font-family="Arial" font-size="16" lengthAdjust="spacing" textLength="9" x="305.4356" y="795.9971">1</text></g><!--link FloorMap to Passage--><g id="link_FloorMap_Passage"><path codeLine="137" d="M353.79,198.6886 C395.14,226.1386 453.81,269.0286 496,316.0986 C537.46,362.3386 572.65,425.3686 593.06,465.7786 " fill="none" id="FloorMap-Passage" style="stroke:#454645;stroke-width:2.5;"/><text fill="#000000" font-family="Arial" font-size="16" lengthAdjust="spacing" textLength="115" x="513" y="332.1064">has associated&gt;</text><text fill="#000000" font-family="Arial" font-size="16" lengthAdjust="spacing" textLength="6" x="361.5435" y="199.1469">*</text><text fill="#000000" font-family="Arial" font-size="16" lengthAdjust="spacing" textLength="6" x="583.5633" y="454.8626">*</text></g><!--link FloorMap to Room--><g id="link_FloorMap_Room"><path codeLine="138" d="M321.74,216.7486 C346.06,284.1286 389.28,403.8686 411.67,465.8986 " fill="none" id="FloorMap-Room" style="stroke:#454645;stroke-width:2.5;"/><polygon fill="#000000" points="372.037,331.9415,371.6692,320.5347,365.0348,322.9294,372.037,331.9415" style="stroke:#000000;stroke-width:1.0;"/><text fill="#000000" font-family="Arial" font-size="16" lengthAdjust="spacing" textLength="106" x="381" y="332.1064">has associated</text><text fill="#000000" font-family="Arial" font-size="16" lengthAdjust="spacing" textLength="6" x="317.5364" y="239.0144">*</text><text fill="#000000" font-family="Arial" font-size="16" lengthAdjust="spacing" textLength="6" x="402.7997" y="454.6917">*</text></g><!--link FloorMap to Elevator--><g id="link_FloorMap_Elevator"><path codeLine="139" d="M254.33,185.2286 C201.67,206.9186 121.32,249.2986 86,316.0986 C64.76,356.2686 68.74,408.1986 76.93,447.5386 " fill="none" id="FloorMap-Elevator" style="stroke:#454645;stroke-width:2.5;"/><polygon fill="#000000" points="88.6387,331.2679,97.6407,324.2527,91.798,320.3013,88.6387,331.2679" style="stroke:#000000;stroke-width:1.0;"/><text fill="#000000" font-family="Arial" font-size="16" lengthAdjust="spacing" textLength="106" x="103" y="332.1064">has associated</text><text fill="#000000" font-family="Arial" font-size="16" lengthAdjust="spacing" textLength="6" x="240.5941" y="183.7099">*</text><text fill="#000000" font-family="Arial" font-size="16" lengthAdjust="spacing" textLength="9" x="65.3012" y="436.2764">1</text></g><!--SRC=[bLHDZziW4BtpAwWlaLRQghjIUrXPbb9jzzPLrQO_W1ZYe62mW3HAe_pt3jZ6NzX9VR5ul9dtPe0n1ouheaafL7vW55Es8qTXtvIql_XVXfy_8TDIy6kt-KvAXjUQ4n7Vzy5FNsOsxLaml5M2zlRNMglJPi_pWsJ6uEUFdz47ksSWOzKP8Sijn51L4YvngIWJ25KaFv22uIHDIL5eLX3BiWn_FN91kIoI2q8OFYOX-1nWdAOracLfgfMoMNRnFFVba3ai91GP5fINJ1gkfF7G5Q7hh8DlWlqXLkcHWnPUT42PuOKa5fG2jXDAQRCMGfqOlIt_vkZ9fI_jePvkfoUFvPRfiEHoftJPoLzlwNmdLKGAqAXQIQgkKbVKJP6VIfL30OVSAcKfumzY3C33f0qOpJi-4fzyBljlmqQzTyZYaU-uDlv51KIG4S3Wtekmgi3iIMaQ0Aq4kwEJMsN7hGHeqHkdRc_7y-6DbEwTzWr2ZJ0CteUN2HgNQruD8eq5D_TvtPmh5l7hu4NF5WXXiTL4Tesg9qSW4dCOFQibIsBYHYmR2HtoULTu9lEhLjAb1aOlkqUZwHkUJpdlTmF53VqwvBzcpr8xNBBf0RNeVMsPrLp189QIvTRFszKHRXVopoXvIF3ZuoDEdXBV_XUy9mPdBcBRp7TKpxe-intzBvWR36z7vHoAe10NHhAZtQQ3Z9_5oC-WleGNzG5AUc9L3nJK3fO8kQcnyUyk8_97D2mIRlpKo8JNDhvk2AbJQXUCwaS-IHfdEnHrpon4FVGbd9lwrVHw0YCVXTaVRysWX2aN_ast6b-1FiDsfp2cHZE3Y_Qa8toe0ERvFm00]--></g></svg>