<?xml version="1.0" encoding="UTF-8" standalone="no"?><svg xmlns="http://www.w3.org/2000/svg" xmlns:xlink="http://www.w3.org/1999/xlink" contentStyleType="text/css" height="474px" preserveAspectRatio="none" style="width:1038px;height:474px;background:#FFFFFF;" version="1.1" viewBox="0 0 1038 474" width="1038px" zoomAndPan="magnify"><defs/><g><rect fill="none" height="142.7813" style="stroke:#000000;stroke-width:1.5;" width="643" x="10" y="224.625"/><line style="stroke:#181818;stroke-width:0.5;stroke-dasharray:5.0,5.0;" x1="101" x2="101" y1="90.1563" y2="384.4063"/><line style="stroke:#181818;stroke-width:0.5;stroke-dasharray:5.0,5.0;" x1="559" x2="559" y1="90.1563" y2="384.4063"/><line style="stroke:#181818;stroke-width:0.5;stroke-dasharray:5.0,5.0;" x1="948" x2="948" y1="90.1563" y2="384.4063"/><text fill="#000000" font-family="sans-serif" font-size="20" lengthAdjust="spacing" textLength="157" x="20" y="85.7617">Gestor de tarefas</text><ellipse cx="101.5" cy="13.5" fill="#E2E2F0" rx="8" ry="8" style="stroke:#181818;stroke-width:0.5;"/><path d="M101.5,21.5 L101.5,48.5 M88.5,29.5 L114.5,29.5 M101.5,48.5 L88.5,63.5 M101.5,48.5 L114.5,63.5 " fill="none" style="stroke:#181818;stroke-width:0.5;"/><text fill="#000000" font-family="sans-serif" font-size="20" lengthAdjust="spacing" textLength="157" x="20" y="404.168">Gestor de tarefas</text><ellipse cx="101.5" cy="417.0625" fill="#E2E2F0" rx="8" ry="8" style="stroke:#181818;stroke-width:0.5;"/><path d="M101.5,425.0625 L101.5,452.0625 M88.5,433.0625 L114.5,433.0625 M101.5,452.0625 L88.5,467.0625 M101.5,452.0625 L114.5,467.0625 " fill="none" style="stroke:#181818;stroke-width:0.5;"/><rect fill="#E2E2F0" height="64.3125" rx="2.5" ry="2.5" style="stroke:#181818;stroke-width:0.5;" width="167" x="476" y="24.8438"/><text fill="#000000" font-family="sans-serif" font-size="20" font-style="italic" lengthAdjust="spacing" textLength="153" x="483" y="52.6055">«Container (C4)»</text><text fill="#000000" font-family="sans-serif" font-size="20" lengthAdjust="spacing" textLength="39" x="540" y="77.7617">SPA</text><rect fill="#E2E2F0" height="64.3125" rx="2.5" ry="2.5" style="stroke:#181818;stroke-width:0.5;" width="167" x="476" y="383.4063"/><text fill="#000000" font-family="sans-serif" font-size="20" font-style="italic" lengthAdjust="spacing" textLength="153" x="483" y="411.168">«Container (C4)»</text><text fill="#000000" font-family="sans-serif" font-size="20" lengthAdjust="spacing" textLength="39" x="540" y="436.3242">SPA</text><rect fill="#E2E2F0" height="64.3125" rx="2.5" ry="2.5" style="stroke:#181818;stroke-width:0.5;" width="167" x="865" y="24.8438"/><text fill="#000000" font-family="sans-serif" font-size="20" font-style="italic" lengthAdjust="spacing" textLength="153" x="872" y="52.6055">«Container (C4)»</text><text fill="#000000" font-family="sans-serif" font-size="20" lengthAdjust="spacing" textLength="80" x="908.5" y="77.7617">MPT API</text><rect fill="#E2E2F0" height="64.3125" rx="2.5" ry="2.5" style="stroke:#181818;stroke-width:0.5;" width="167" x="865" y="383.4063"/><text fill="#000000" font-family="sans-serif" font-size="20" font-style="italic" lengthAdjust="spacing" textLength="153" x="872" y="411.168">«Container (C4)»</text><text fill="#000000" font-family="sans-serif" font-size="20" lengthAdjust="spacing" textLength="80" x="908.5" y="436.3242">MPT API</text><polygon fill="#181818" points="547.5,127.3125,557.5,131.3125,547.5,135.3125,551.5,131.3125" style="stroke:#181818;stroke-width:1.0;"/><line style="stroke:#181818;stroke-width:1.0;" x1="101.5" x2="553.5" y1="131.3125" y2="131.3125"/><text fill="#000000" font-family="sans-serif" font-size="20" lengthAdjust="spacing" textLength="434" x="108.5" y="124.918">requisitar uma lista de requisições não aprovadas</text><polygon fill="#181818" points="936.5,166.4688,946.5,170.4688,936.5,174.4688,940.5,170.4688" style="stroke:#181818;stroke-width:1.0;"/><line style="stroke:#181818;stroke-width:1.0;" x1="559.5" x2="942.5" y1="170.4688" y2="170.4688"/><text fill="#000000" font-family="sans-serif" font-size="20" lengthAdjust="spacing" textLength="365" x="566.5" y="164.0742">GET(/api/tasks/type?&amp;Approved?&amp;user?)</text><polygon fill="#181818" points="570.5,205.625,560.5,209.625,570.5,213.625,566.5,209.625" style="stroke:#181818;stroke-width:1.0;"/><line style="stroke:#181818;stroke-width:1.0;stroke-dasharray:2.0,2.0;" x1="564.5" x2="947.5" y1="209.625" y2="209.625"/><text fill="#000000" font-family="sans-serif" font-size="20" lengthAdjust="spacing" textLength="200" x="576.5" y="203.2305">retorna lista de tarefas</text><path d="M10,224.625 L78,224.625 L78,241.7813 L68,251.7813 L10,251.7813 L10,224.625 " fill="#EEEEEE" style="stroke:#000000;stroke-width:1.5;"/><rect fill="none" height="142.7813" style="stroke:#000000;stroke-width:1.5;" width="643" x="10" y="224.625"/><text fill="#000000" font-family="sans-serif" font-size="20" font-weight="bold" lengthAdjust="spacing" textLength="23" x="25" y="246.3867">alt</text><text fill="#000000" font-family="sans-serif" font-size="20" font-weight="bold" lengthAdjust="spacing" textLength="93" x="93" y="247.3867">[sucesso]</text><polygon fill="#181818" points="112.5,289.0938,102.5,293.0938,112.5,297.0938,108.5,293.0938" style="stroke:#181818;stroke-width:1.0;"/><line style="stroke:#181818;stroke-width:1.0;stroke-dasharray:2.0,2.0;" x1="106.5" x2="558.5" y1="293.0938" y2="293.0938"/><text fill="#000000" font-family="sans-serif" font-size="20" lengthAdjust="spacing" textLength="225" x="118.5" y="286.6992">apresenta lista de tarefas</text><line style="stroke:#000000;stroke-width:1.0;stroke-dasharray:2.0,2.0;" x1="10" x2="653" y1="302.0938" y2="302.0938"/><text fill="#000000" font-family="sans-serif" font-size="20" font-weight="bold" lengthAdjust="spacing" textLength="60" x="15" y="322.8555">[falha]</text><polygon fill="#181818" points="112.5,355.4063,102.5,359.4063,112.5,363.4063,108.5,359.4063" style="stroke:#181818;stroke-width:1.0;"/><line style="stroke:#181818;stroke-width:1.0;stroke-dasharray:2.0,2.0;" x1="106.5" x2="558.5" y1="359.4063" y2="359.4063"/><text fill="#000000" font-family="sans-serif" font-size="20" lengthAdjust="spacing" textLength="238" x="118.5" y="353.0117">devolve mensagem de erro</text><!--SRC=[TP1DQiCm48NtEiNWHKWMmQLq5OAD2Mt8ec18BZ1OarPObbIDR6YlqqLFq1FuOfNIWDEVQ2CnC-zxJyEjCWuzTjesBKcGTCHUXmThmbwz4TpU285Di1woBN6w9K507ySu0sIeKbD4H52DScW2PFkwEhKs4OBAa8VrUdhFDtUBelYfUAmFKDMxRs2z-szUd8nWMKpO5NXwwHMhc0Vw3a4h3fW2dklZn_X936Pyju3Esm4biX0JEzAYtGgszuTvZaxb0RdbFBmwAcULInAIvQndykL2f6JBtm5YA7FXV5vDN9eEm7r3p5P0F1UcoJLzPfL24LDi_0MGPe8ZwcUyBfSqM3qGT6GOdwXBUlBU2Z9IV040]--></g></svg>