<?xml version="1.0" encoding="UTF-8" standalone="no"?><svg xmlns="http://www.w3.org/2000/svg" xmlns:xlink="http://www.w3.org/1999/xlink" contentStyleType="text/css" height="513px" preserveAspectRatio="none" style="width:945px;height:513px;background:#FFFFFF;" version="1.1" viewBox="0 0 945 513" width="945px" zoomAndPan="magnify"><defs/><g><rect fill="none" height="221.0938" style="stroke:#000000;stroke-width:1.5;" width="928" x="10" y="185.4688"/><line style="stroke:#181818;stroke-width:0.5;stroke-dasharray:5.0,5.0;" x1="51" x2="51" y1="90.1563" y2="423.5625"/><line style="stroke:#181818;stroke-width:0.5;stroke-dasharray:5.0,5.0;" x1="479" x2="479" y1="90.1563" y2="423.5625"/><line style="stroke:#181818;stroke-width:0.5;stroke-dasharray:5.0,5.0;" x1="844" x2="844" y1="90.1563" y2="423.5625"/><text fill="#000000" font-family="sans-serif" font-size="20" lengthAdjust="spacing" textLength="57" x="20" y="85.7617">Utente</text><ellipse cx="51.5" cy="13.5" fill="#E2E2F0" rx="8" ry="8" style="stroke:#181818;stroke-width:0.5;"/><path d="M51.5,21.5 L51.5,48.5 M38.5,29.5 L64.5,29.5 M51.5,48.5 L38.5,63.5 M51.5,48.5 L64.5,63.5 " fill="none" style="stroke:#181818;stroke-width:0.5;"/><text fill="#000000" font-family="sans-serif" font-size="20" lengthAdjust="spacing" textLength="57" x="20" y="443.3242">Utente</text><ellipse cx="51.5" cy="456.2188" fill="#E2E2F0" rx="8" ry="8" style="stroke:#181818;stroke-width:0.5;"/><path d="M51.5,464.2188 L51.5,491.2188 M38.5,472.2188 L64.5,472.2188 M51.5,491.2188 L38.5,506.2188 M51.5,491.2188 L64.5,506.2188 " fill="none" style="stroke:#181818;stroke-width:0.5;"/><rect fill="#E2E2F0" height="64.3125" rx="2.5" ry="2.5" style="stroke:#181818;stroke-width:0.5;" width="167" x="396" y="24.8438"/><text fill="#000000" font-family="sans-serif" font-size="20" font-style="italic" lengthAdjust="spacing" textLength="153" x="403" y="52.6055">«Container (C4)»</text><text fill="#000000" font-family="sans-serif" font-size="20" lengthAdjust="spacing" textLength="39" x="460" y="77.7617">SPA</text><rect fill="#E2E2F0" height="64.3125" rx="2.5" ry="2.5" style="stroke:#181818;stroke-width:0.5;" width="167" x="396" y="422.5625"/><text fill="#000000" font-family="sans-serif" font-size="20" font-style="italic" lengthAdjust="spacing" textLength="153" x="403" y="450.3242">«Container (C4)»</text><text fill="#000000" font-family="sans-serif" font-size="20" lengthAdjust="spacing" textLength="39" x="460" y="475.4805">SPA</text><rect fill="#E2E2F0" height="64.3125" rx="2.5" ry="2.5" style="stroke:#181818;stroke-width:0.5;" width="167" x="761" y="24.8438"/><text fill="#000000" font-family="sans-serif" font-size="20" font-style="italic" lengthAdjust="spacing" textLength="153" x="768" y="52.6055">«Container (C4)»</text><text fill="#000000" font-family="sans-serif" font-size="20" lengthAdjust="spacing" textLength="80" x="804.5" y="77.7617">MPT API</text><rect fill="#E2E2F0" height="64.3125" rx="2.5" ry="2.5" style="stroke:#181818;stroke-width:0.5;" width="167" x="761" y="422.5625"/><text fill="#000000" font-family="sans-serif" font-size="20" font-style="italic" lengthAdjust="spacing" textLength="153" x="768" y="450.3242">«Container (C4)»</text><text fill="#000000" font-family="sans-serif" font-size="20" lengthAdjust="spacing" textLength="80" x="804.5" y="475.4805">MPT API</text><polygon fill="#181818" points="467.5,127.3125,477.5,131.3125,467.5,135.3125,471.5,131.3125" style="stroke:#181818;stroke-width:1.0;"/><line style="stroke:#181818;stroke-width:1.0;" x1="51.5" x2="473.5" y1="131.3125" y2="131.3125"/><text fill="#000000" font-family="sans-serif" font-size="20" lengthAdjust="spacing" textLength="379" x="58.5" y="124.918">requisita uma cópia dos dados do utilizador</text><polygon fill="#181818" points="832.5,166.4688,842.5,170.4688,832.5,174.4688,836.5,170.4688" style="stroke:#181818;stroke-width:1.0;"/><line style="stroke:#181818;stroke-width:1.0;" x1="479.5" x2="838.5" y1="170.4688" y2="170.4688"/><text fill="#000000" font-family="sans-serif" font-size="20" lengthAdjust="spacing" textLength="199" x="486.5" y="164.0742">GET(/api/users/allInfo)</text><path d="M10,185.4688 L78,185.4688 L78,202.625 L68,212.625 L10,212.625 L10,185.4688 " fill="#EEEEEE" style="stroke:#000000;stroke-width:1.5;"/><rect fill="none" height="221.0938" style="stroke:#000000;stroke-width:1.5;" width="928" x="10" y="185.4688"/><text fill="#000000" font-family="sans-serif" font-size="20" font-weight="bold" lengthAdjust="spacing" textLength="23" x="25" y="207.2305">alt</text><text fill="#000000" font-family="sans-serif" font-size="20" font-weight="bold" lengthAdjust="spacing" textLength="93" x="93" y="208.2305">[sucesso]</text><polygon fill="#181818" points="490.5,249.9375,480.5,253.9375,490.5,257.9375,486.5,253.9375" style="stroke:#181818;stroke-width:1.0;"/><line style="stroke:#181818;stroke-width:1.0;stroke-dasharray:2.0,2.0;" x1="484.5" x2="843.5" y1="253.9375" y2="253.9375"/><text fill="#000000" font-family="sans-serif" font-size="20" lengthAdjust="spacing" textLength="341" x="496.5" y="247.543">retorna um ficheiro .json com os dados</text><polygon fill="#181818" points="62.5,289.0938,52.5,293.0938,62.5,297.0938,58.5,293.0938" style="stroke:#181818;stroke-width:1.0;"/><line style="stroke:#181818;stroke-width:1.0;stroke-dasharray:2.0,2.0;" x1="56.5" x2="478.5" y1="293.0938" y2="293.0938"/><text fill="#000000" font-family="sans-serif" font-size="20" lengthAdjust="spacing" textLength="404" x="68.5" y="286.6992">retorna um ficheiro .json e faz o seu download</text><line style="stroke:#000000;stroke-width:1.0;stroke-dasharray:2.0,2.0;" x1="10" x2="938" y1="302.0938" y2="302.0938"/><text fill="#000000" font-family="sans-serif" font-size="20" font-weight="bold" lengthAdjust="spacing" textLength="60" x="15" y="322.8555">[falha]</text><polygon fill="#181818" points="490.5,355.4063,480.5,359.4063,490.5,363.4063,486.5,359.4063" style="stroke:#181818;stroke-width:1.0;"/><line style="stroke:#181818;stroke-width:1.0;stroke-dasharray:2.0,2.0;" x1="484.5" x2="843.5" y1="359.4063" y2="359.4063"/><text fill="#000000" font-family="sans-serif" font-size="20" lengthAdjust="spacing" textLength="137" x="496.5" y="353.0117">retorna um erro</text><polygon fill="#181818" points="62.5,394.5625,52.5,398.5625,62.5,402.5625,58.5,398.5625" style="stroke:#181818;stroke-width:1.0;"/><line style="stroke:#181818;stroke-width:1.0;stroke-dasharray:2.0,2.0;" x1="56.5" x2="478.5" y1="398.5625" y2="398.5625"/><text fill="#000000" font-family="sans-serif" font-size="20" lengthAdjust="spacing" textLength="238" x="68.5" y="392.168">devolve mensagem de erro</text><!--SRC=[ZO_1IWCn48RlUOgXf_PGLyHJAOLIL7eG5beVO4XcxTXiPiqa5VfQFe8lPdQBL4N574Bo9____QDx3Xr6RBtOFJbmr63swLP2sl2HuEhI6BH98emU4eL48q25PQ-OuajikSEGOBIfbyFJgZYH0qMOpy_dyUfwibXyTTpNMrZMwrDWlVxflnb0C5sSOsSGwJcpSaB8BO9zU-qOmOc2ms4No8az7yij6dFEB2a5CuExc-sumewhh1IrGk_NeP59cTCdq6n9LGoKrPUQVcUNFg4dGyDsHnm5BfvK0bXfuQF3uFu4xidz87_v2HeyWe1IBYEy12_e37djTR_3VnIY6ELtigE3-0D1Iq7naTeYd1mKd7a7]--></g></svg>