<?xml version="1.0" encoding="UTF-8" standalone="no"?><svg xmlns="http://www.w3.org/2000/svg" xmlns:xlink="http://www.w3.org/1999/xlink" contentStyleType="text/css" height="826px" preserveAspectRatio="none" style="width:835px;height:826px;background:#FFFFFF;" version="1.1" viewBox="0 0 835 826" width="835px" zoomAndPan="magnify"><defs/><g><rect fill="none" height="221.0938" style="stroke:#000000;stroke-width:1.5;" width="818.5" x="10" y="185.4688"/><rect fill="none" height="221.0938" style="stroke:#000000;stroke-width:1.5;" width="818.5" x="10" y="498.875"/><line style="stroke:#181818;stroke-width:0.5;stroke-dasharray:5.0,5.0;" x1="50" x2="50" y1="90.1563" y2="736.9688"/><line style="stroke:#181818;stroke-width:0.5;stroke-dasharray:5.0,5.0;" x1="439.5" x2="439.5" y1="90.1563" y2="736.9688"/><line style="stroke:#181818;stroke-width:0.5;stroke-dasharray:5.0,5.0;" x1="734.5" x2="734.5" y1="90.1563" y2="736.9688"/><text fill="#000000" font-family="sans-serif" font-size="20" lengthAdjust="spacing" textLength="54" x="20" y="85.7617">Admin</text><ellipse cx="50" cy="13.5" fill="#E2E2F0" rx="8" ry="8" style="stroke:#181818;stroke-width:0.5;"/><path d="M50,21.5 L50,48.5 M37,29.5 L63,29.5 M50,48.5 L37,63.5 M50,48.5 L63,63.5 " fill="none" style="stroke:#181818;stroke-width:0.5;"/><text fill="#000000" font-family="sans-serif" font-size="20" lengthAdjust="spacing" textLength="54" x="20" y="756.7305">Admin</text><ellipse cx="50" cy="769.625" fill="#E2E2F0" rx="8" ry="8" style="stroke:#181818;stroke-width:0.5;"/><path d="M50,777.625 L50,804.625 M37,785.625 L63,785.625 M50,804.625 L37,819.625 M50,804.625 L63,819.625 " fill="none" style="stroke:#181818;stroke-width:0.5;"/><rect fill="#E2E2F0" height="64.3125" rx="2.5" ry="2.5" style="stroke:#181818;stroke-width:0.5;" width="167" x="356.5" y="24.8438"/><text fill="#000000" font-family="sans-serif" font-size="20" font-style="italic" lengthAdjust="spacing" textLength="153" x="363.5" y="52.6055">«Container (C4)»</text><text fill="#000000" font-family="sans-serif" font-size="20" lengthAdjust="spacing" textLength="39" x="420.5" y="77.7617">SPA</text><rect fill="#E2E2F0" height="64.3125" rx="2.5" ry="2.5" style="stroke:#181818;stroke-width:0.5;" width="167" x="356.5" y="735.9688"/><text fill="#000000" font-family="sans-serif" font-size="20" font-style="italic" lengthAdjust="spacing" textLength="153" x="363.5" y="763.7305">«Container (C4)»</text><text fill="#000000" font-family="sans-serif" font-size="20" lengthAdjust="spacing" textLength="39" x="420.5" y="788.8867">SPA</text><rect fill="#E2E2F0" height="64.3125" rx="2.5" ry="2.5" style="stroke:#181818;stroke-width:0.5;" width="167" x="651.5" y="24.8438"/><text fill="#000000" font-family="sans-serif" font-size="20" font-style="italic" lengthAdjust="spacing" textLength="153" x="658.5" y="52.6055">«Container (C4)»</text><text fill="#000000" font-family="sans-serif" font-size="20" lengthAdjust="spacing" textLength="80" x="695" y="77.7617">MPT API</text><rect fill="#E2E2F0" height="64.3125" rx="2.5" ry="2.5" style="stroke:#181818;stroke-width:0.5;" width="167" x="651.5" y="735.9688"/><text fill="#000000" font-family="sans-serif" font-size="20" font-style="italic" lengthAdjust="spacing" textLength="153" x="658.5" y="763.7305">«Container (C4)»</text><text fill="#000000" font-family="sans-serif" font-size="20" lengthAdjust="spacing" textLength="80" x="695" y="788.8867">MPT API</text><polygon fill="#181818" points="428,127.3125,438,131.3125,428,135.3125,432,131.3125" style="stroke:#181818;stroke-width:1.0;"/><line style="stroke:#181818;stroke-width:1.0;" x1="50" x2="434" y1="131.3125" y2="131.3125"/><text fill="#000000" font-family="sans-serif" font-size="20" lengthAdjust="spacing" textLength="366" x="57" y="124.918">requisita lista de utilizadores para aprovar</text><polygon fill="#181818" points="723,166.4688,733,170.4688,723,174.4688,727,170.4688" style="stroke:#181818;stroke-width:1.0;"/><line style="stroke:#181818;stroke-width:1.0;" x1="440" x2="729" y1="170.4688" y2="170.4688"/><text fill="#000000" font-family="sans-serif" font-size="20" lengthAdjust="spacing" textLength="147" x="447" y="164.0742">GET(/api/users/)</text><path d="M10,185.4688 L78,185.4688 L78,202.625 L68,212.625 L10,212.625 L10,185.4688 " fill="#EEEEEE" style="stroke:#000000;stroke-width:1.5;"/><rect fill="none" height="221.0938" style="stroke:#000000;stroke-width:1.5;" width="818.5" x="10" y="185.4688"/><text fill="#000000" font-family="sans-serif" font-size="20" font-weight="bold" lengthAdjust="spacing" textLength="23" x="25" y="207.2305">alt</text><text fill="#000000" font-family="sans-serif" font-size="20" font-weight="bold" lengthAdjust="spacing" textLength="93" x="93" y="208.2305">[sucesso]</text><polygon fill="#181818" points="451,249.9375,441,253.9375,451,257.9375,447,253.9375" style="stroke:#181818;stroke-width:1.0;"/><line style="stroke:#181818;stroke-width:1.0;stroke-dasharray:2.0,2.0;" x1="445" x2="734" y1="253.9375" y2="253.9375"/><text fill="#000000" font-family="sans-serif" font-size="20" lengthAdjust="spacing" textLength="236" x="457" y="247.543">retorna lista de utilizadores</text><polygon fill="#181818" points="61,289.0938,51,293.0938,61,297.0938,57,293.0938" style="stroke:#181818;stroke-width:1.0;"/><line style="stroke:#181818;stroke-width:1.0;stroke-dasharray:2.0,2.0;" x1="55" x2="439" y1="293.0938" y2="293.0938"/><text fill="#000000" font-family="sans-serif" font-size="20" lengthAdjust="spacing" textLength="236" x="67" y="286.6992">retorna lista de utilizadores</text><line style="stroke:#000000;stroke-width:1.0;stroke-dasharray:2.0,2.0;" x1="10" x2="828.5" y1="302.0938" y2="302.0938"/><text fill="#000000" font-family="sans-serif" font-size="20" font-weight="bold" lengthAdjust="spacing" textLength="60" x="15" y="322.8555">[falha]</text><polygon fill="#181818" points="451,355.4063,441,359.4063,451,363.4063,447,359.4063" style="stroke:#181818;stroke-width:1.0;"/><line style="stroke:#181818;stroke-width:1.0;stroke-dasharray:2.0,2.0;" x1="445" x2="734" y1="359.4063" y2="359.4063"/><text fill="#000000" font-family="sans-serif" font-size="20" lengthAdjust="spacing" textLength="238" x="457" y="353.0117">devolve mensagem de erro</text><polygon fill="#181818" points="61,394.5625,51,398.5625,61,402.5625,57,398.5625" style="stroke:#181818;stroke-width:1.0;"/><line style="stroke:#181818;stroke-width:1.0;stroke-dasharray:2.0,2.0;" x1="55" x2="439" y1="398.5625" y2="398.5625"/><text fill="#000000" font-family="sans-serif" font-size="20" lengthAdjust="spacing" textLength="238" x="67" y="392.168">devolve mensagem de erro</text><polygon fill="#181818" points="428,440.7188,438,444.7188,428,448.7188,432,444.7188" style="stroke:#181818;stroke-width:1.0;"/><line style="stroke:#181818;stroke-width:1.0;" x1="50" x2="434" y1="444.7188" y2="444.7188"/><text fill="#000000" font-family="sans-serif" font-size="20" lengthAdjust="spacing" textLength="329" x="57" y="438.3242">aprova ou recusa registo de utilizador</text><polygon fill="#181818" points="723,479.875,733,483.875,723,487.875,727,483.875" style="stroke:#181818;stroke-width:1.0;"/><line style="stroke:#181818;stroke-width:1.0;" x1="440" x2="729" y1="483.875" y2="483.875"/><text fill="#000000" font-family="sans-serif" font-size="20" lengthAdjust="spacing" textLength="171" x="447" y="477.4805">PATCH(/api/users/)</text><path d="M10,498.875 L78,498.875 L78,516.0313 L68,526.0313 L10,526.0313 L10,498.875 " fill="#EEEEEE" style="stroke:#000000;stroke-width:1.5;"/><rect fill="none" height="221.0938" style="stroke:#000000;stroke-width:1.5;" width="818.5" x="10" y="498.875"/><text fill="#000000" font-family="sans-serif" font-size="20" font-weight="bold" lengthAdjust="spacing" textLength="23" x="25" y="520.6367">alt</text><text fill="#000000" font-family="sans-serif" font-size="20" font-weight="bold" lengthAdjust="spacing" textLength="93" x="93" y="521.6367">[sucesso]</text><polygon fill="#181818" points="451,563.3438,441,567.3438,451,571.3438,447,567.3438" style="stroke:#181818;stroke-width:1.0;"/><line style="stroke:#181818;stroke-width:1.0;stroke-dasharray:2.0,2.0;" x1="445" x2="734" y1="567.3438" y2="567.3438"/><text fill="#000000" font-family="sans-serif" font-size="20" lengthAdjust="spacing" textLength="271" x="457" y="560.9492">retorna mensagem de sucesso</text><polygon fill="#181818" points="61,602.5,51,606.5,61,610.5,57,606.5" style="stroke:#181818;stroke-width:1.0;"/><line style="stroke:#181818;stroke-width:1.0;stroke-dasharray:2.0,2.0;" x1="55" x2="439" y1="606.5" y2="606.5"/><text fill="#000000" font-family="sans-serif" font-size="20" lengthAdjust="spacing" textLength="271" x="67" y="600.1055">retorna mensagem de sucesso</text><line style="stroke:#000000;stroke-width:1.0;stroke-dasharray:2.0,2.0;" x1="10" x2="828.5" y1="615.5" y2="615.5"/><text fill="#000000" font-family="sans-serif" font-size="20" font-weight="bold" lengthAdjust="spacing" textLength="60" x="15" y="636.2617">[falha]</text><polygon fill="#181818" points="451,668.8125,441,672.8125,451,676.8125,447,672.8125" style="stroke:#181818;stroke-width:1.0;"/><line style="stroke:#181818;stroke-width:1.0;stroke-dasharray:2.0,2.0;" x1="445" x2="734" y1="672.8125" y2="672.8125"/><text fill="#000000" font-family="sans-serif" font-size="20" lengthAdjust="spacing" textLength="238" x="457" y="666.418">devolve mensagem de erro</text><polygon fill="#181818" points="61,707.9688,51,711.9688,61,715.9688,57,711.9688" style="stroke:#181818;stroke-width:1.0;"/><line style="stroke:#181818;stroke-width:1.0;stroke-dasharray:2.0,2.0;" x1="55" x2="439" y1="711.9688" y2="711.9688"/><text fill="#000000" font-family="sans-serif" font-size="20" lengthAdjust="spacing" textLength="238" x="67" y="705.5742">devolve mensagem de erro</text><!--SRC=[lP2zQiCm58LtFSN5Kp84bz8f18C9_SbGCCGlSB5kKX5PSdKb3tdwIivWfzWjTAW6IKZwpZawV56cGuUjjis594WwOT3-nHf_L5U2nmSXiF7MGLRALfaCaA5C1o9YNZMgG-CXErRbSBMF82f33dQxSR_QFwsBufvuhseegyDDi3hClHU34MoAKNOBZZw3OkKHjE8uIuBWbLPNbDOHG_eDOETiZqwCab4akcpXzRbUvTYfF30vpjVnUze3XuQOhO0uKfZDTy-Omomu3j34A3cbtBzXf9dWXFe3bsmbzLRt12qPnZErIOASiykEYmGPEL_dhIcm8QPj0cDSpZ6klOyxKsHLrlktlrSvJJX5VYno3lht6hy0]--></g></svg>