<?xml version="1.0" encoding="UTF-8" standalone="no"?><svg xmlns="http://www.w3.org/2000/svg" xmlns:xlink="http://www.w3.org/1999/xlink" contentStyleType="text/css" height="552px" preserveAspectRatio="none" style="width:682px;height:552px;background:#FFFFFF;" version="1.1" viewBox="0 0 682 552" width="682px" zoomAndPan="magnify"><defs/><g><rect fill="none" height="142.7813" style="stroke:#000000;stroke-width:1.5;" width="482" x="10" y="302.9375"/><line style="stroke:#181818;stroke-width:0.5;stroke-dasharray:5.0,5.0;" x1="46" x2="46" y1="90.1563" y2="462.7188"/><line style="stroke:#181818;stroke-width:0.5;stroke-dasharray:5.0,5.0;" x1="398" x2="398" y1="90.1563" y2="462.7188"/><line style="stroke:#181818;stroke-width:0.5;stroke-dasharray:5.0,5.0;" x1="592" x2="592" y1="90.1563" y2="462.7188"/><text fill="#000000" font-family="sans-serif" font-size="20" lengthAdjust="spacing" textLength="47" x="20" y="85.7617">Actor</text><ellipse cx="46.5" cy="13.5" fill="#E2E2F0" rx="8" ry="8" style="stroke:#181818;stroke-width:0.5;"/><path d="M46.5,21.5 L46.5,48.5 M33.5,29.5 L59.5,29.5 M46.5,48.5 L33.5,63.5 M46.5,48.5 L59.5,63.5 " fill="none" style="stroke:#181818;stroke-width:0.5;"/><text fill="#000000" font-family="sans-serif" font-size="20" lengthAdjust="spacing" textLength="47" x="20" y="482.4805">Actor</text><ellipse cx="46.5" cy="495.375" fill="#E2E2F0" rx="8" ry="8" style="stroke:#181818;stroke-width:0.5;"/><path d="M46.5,503.375 L46.5,530.375 M33.5,511.375 L59.5,511.375 M46.5,530.375 L33.5,545.375 M46.5,530.375 L59.5,545.375 " fill="none" style="stroke:#181818;stroke-width:0.5;"/><rect fill="#E2E2F0" height="64.3125" rx="2.5" ry="2.5" style="stroke:#181818;stroke-width:0.5;" width="167" x="315" y="24.8438"/><text fill="#000000" font-family="sans-serif" font-size="20" font-style="italic" lengthAdjust="spacing" textLength="153" x="322" y="52.6055">«Container (C4)»</text><text fill="#000000" font-family="sans-serif" font-size="20" lengthAdjust="spacing" textLength="39" x="379" y="77.7617">SPA</text><rect fill="#E2E2F0" height="64.3125" rx="2.5" ry="2.5" style="stroke:#181818;stroke-width:0.5;" width="167" x="315" y="461.7188"/><text fill="#000000" font-family="sans-serif" font-size="20" font-style="italic" lengthAdjust="spacing" textLength="153" x="322" y="489.4805">«Container (C4)»</text><text fill="#000000" font-family="sans-serif" font-size="20" lengthAdjust="spacing" textLength="39" x="379" y="514.6367">SPA</text><rect fill="#E2E2F0" height="64.3125" rx="2.5" ry="2.5" style="stroke:#181818;stroke-width:0.5;" width="167" x="509" y="24.8438"/><text fill="#000000" font-family="sans-serif" font-size="20" font-style="italic" lengthAdjust="spacing" textLength="153" x="516" y="52.6055">«Container (C4)»</text><text fill="#000000" font-family="sans-serif" font-size="20" lengthAdjust="spacing" textLength="130" x="527.5" y="77.7617">GestaoInfoAPI</text><rect fill="#E2E2F0" height="64.3125" rx="2.5" ry="2.5" style="stroke:#181818;stroke-width:0.5;" width="167" x="509" y="461.7188"/><text fill="#000000" font-family="sans-serif" font-size="20" font-style="italic" lengthAdjust="spacing" textLength="153" x="516" y="489.4805">«Container (C4)»</text><text fill="#000000" font-family="sans-serif" font-size="20" lengthAdjust="spacing" textLength="130" x="527.5" y="514.6367">GestaoInfoAPI</text><polygon fill="#181818" points="386.5,127.3125,396.5,131.3125,386.5,135.3125,390.5,131.3125" style="stroke:#181818;stroke-width:1.0;"/><line style="stroke:#181818;stroke-width:1.0;" x1="46.5" x2="392.5" y1="131.3125" y2="131.3125"/><text fill="#000000" font-family="sans-serif" font-size="20" lengthAdjust="spacing" textLength="235" x="53.5" y="124.918">Criar elevador num edifício</text><polygon fill="#181818" points="57.5,166.4688,47.5,170.4688,57.5,174.4688,53.5,170.4688" style="stroke:#181818;stroke-width:1.0;"/><line style="stroke:#181818;stroke-width:1.0;stroke-dasharray:2.0,2.0;" x1="51.5" x2="397.5" y1="170.4688" y2="170.4688"/><text fill="#000000" font-family="sans-serif" font-size="20" lengthAdjust="spacing" textLength="328" x="63.5" y="164.0742">Requisita informação para o elevador</text><polygon fill="#181818" points="386.5,205.625,396.5,209.625,386.5,213.625,390.5,209.625" style="stroke:#181818;stroke-width:1.0;"/><line style="stroke:#181818;stroke-width:1.0;stroke-dasharray:2.0,2.0;" x1="46.5" x2="392.5" y1="209.625" y2="209.625"/><text fill="#000000" font-family="sans-serif" font-size="20" lengthAdjust="spacing" textLength="216" x="53.5" y="203.2305">Envia dados do elevador</text><polygon fill="#181818" points="580.5,244.7813,590.5,248.7813,580.5,252.7813,584.5,248.7813" style="stroke:#181818;stroke-width:1.0;"/><line style="stroke:#181818;stroke-width:1.0;" x1="398.5" x2="586.5" y1="248.7813" y2="248.7813"/><text fill="#000000" font-family="sans-serif" font-size="20" lengthAdjust="spacing" textLength="170" x="405.5" y="242.3867">post(/api/elevators)</text><polygon fill="#181818" points="409.5,283.9375,399.5,287.9375,409.5,291.9375,405.5,287.9375" style="stroke:#181818;stroke-width:1.0;"/><line style="stroke:#181818;stroke-width:1.0;stroke-dasharray:2.0,2.0;" x1="403.5" x2="591.5" y1="287.9375" y2="287.9375"/><text fill="#000000" font-family="sans-serif" font-size="20" lengthAdjust="spacing" textLength="102" x="415.5" y="281.543">status code</text><path d="M10,302.9375 L78,302.9375 L78,320.0938 L68,330.0938 L10,330.0938 L10,302.9375 " fill="#EEEEEE" style="stroke:#000000;stroke-width:1.5;"/><rect fill="none" height="142.7813" style="stroke:#000000;stroke-width:1.5;" width="482" x="10" y="302.9375"/><text fill="#000000" font-family="sans-serif" font-size="20" font-weight="bold" lengthAdjust="spacing" textLength="23" x="25" y="324.6992">alt</text><text fill="#000000" font-family="sans-serif" font-size="20" font-weight="bold" lengthAdjust="spacing" textLength="47" x="93" y="325.6992">[200]</text><polygon fill="#181818" points="57.5,367.4063,47.5,371.4063,57.5,375.4063,53.5,371.4063" style="stroke:#181818;stroke-width:1.0;"/><line style="stroke:#181818;stroke-width:1.0;stroke-dasharray:2.0,2.0;" x1="51.5" x2="397.5" y1="371.4063" y2="371.4063"/><text fill="#000000" font-family="sans-serif" font-size="20" lengthAdjust="spacing" textLength="227" x="63.5" y="365.0117">Devolve o elevador criado</text><line style="stroke:#000000;stroke-width:1.0;stroke-dasharray:2.0,2.0;" x1="10" x2="492" y1="380.4063" y2="380.4063"/><text fill="#000000" font-family="sans-serif" font-size="20" font-weight="bold" lengthAdjust="spacing" textLength="47" x="15" y="401.168">[400]</text><polygon fill="#181818" points="57.5,433.7188,47.5,437.7188,57.5,441.7188,53.5,437.7188" style="stroke:#181818;stroke-width:1.0;"/><line style="stroke:#181818;stroke-width:1.0;stroke-dasharray:2.0,2.0;" x1="51.5" x2="397.5" y1="437.7188" y2="437.7188"/><text fill="#000000" font-family="sans-serif" font-size="20" lengthAdjust="spacing" textLength="241" x="63.5" y="431.3242">Devolve mensagem de erro</text><!--SRC=[ZP71QiCm38RlVWhHKtieBQEdK08XtKPlPNq2OIj3rB4psybXhxF3JdkAlDYK59fqz30VR87q_Ryanmkx1WFMrkiB6J1KOMlJYtVfp9y4JrkbK2SVe1XlZDT02PHOSuCkmU9yAXP3gXGCsL60_NwAb-LkbUVtn2l5XFxeAb-SZYChxoDANNtN-IIUGHaO0v2b3eqaNLi36Qxw7yrUgKbZBTZ8P_167or7JWWifg76_hl_yZ3C3lucTRExztjs7ICOgOXWvjKpgtoO88F6nxJSOCERiKh4uafKPRW_cZ9_QYDeRqXMR9EiUgj0piFs3zHvsz6iLT2o1ECLsKYm-mzRauluJhLyCb08WZgZVW40]--></g></svg>