<?xml version="1.0" encoding="UTF-8" standalone="no"?><svg xmlns="http://www.w3.org/2000/svg" xmlns:xlink="http://www.w3.org/1999/xlink" contentStyleType="text/css" height="787px" preserveAspectRatio="none" style="width:926px;height:787px;background:#FFFFFF;" version="1.1" viewBox="0 0 926 787" width="926px" zoomAndPan="magnify"><defs/><g><rect fill="none" height="142.7813" style="stroke:#000000;stroke-width:1.5;" width="614" x="10" y="224.625"/><rect fill="none" height="221.0938" style="stroke:#000000;stroke-width:1.5;" width="909" x="10" y="459.7188"/><line style="stroke:#181818;stroke-width:0.5;stroke-dasharray:5.0,5.0;" x1="101" x2="101" y1="90.1563" y2="697.8125"/><line style="stroke:#181818;stroke-width:0.5;stroke-dasharray:5.0,5.0;" x1="530" x2="530" y1="90.1563" y2="697.8125"/><line style="stroke:#181818;stroke-width:0.5;stroke-dasharray:5.0,5.0;" x1="825" x2="825" y1="90.1563" y2="697.8125"/><text fill="#000000" font-family="sans-serif" font-size="20" lengthAdjust="spacing" textLength="157" x="20" y="85.7617">Gestor de tarefas</text><ellipse cx="101.5" cy="13.5" fill="#E2E2F0" rx="8" ry="8" style="stroke:#181818;stroke-width:0.5;"/><path d="M101.5,21.5 L101.5,48.5 M88.5,29.5 L114.5,29.5 M101.5,48.5 L88.5,63.5 M101.5,48.5 L114.5,63.5 " fill="none" style="stroke:#181818;stroke-width:0.5;"/><text fill="#000000" font-family="sans-serif" font-size="20" lengthAdjust="spacing" textLength="157" x="20" y="717.5742">Gestor de tarefas</text><ellipse cx="101.5" cy="730.4688" fill="#E2E2F0" rx="8" ry="8" style="stroke:#181818;stroke-width:0.5;"/><path d="M101.5,738.4688 L101.5,765.4688 M88.5,746.4688 L114.5,746.4688 M101.5,765.4688 L88.5,780.4688 M101.5,765.4688 L114.5,780.4688 " fill="none" style="stroke:#181818;stroke-width:0.5;"/><rect fill="#E2E2F0" height="64.3125" rx="2.5" ry="2.5" style="stroke:#181818;stroke-width:0.5;" width="167" x="447" y="24.8438"/><text fill="#000000" font-family="sans-serif" font-size="20" font-style="italic" lengthAdjust="spacing" textLength="153" x="454" y="52.6055">«Container (C4)»</text><text fill="#000000" font-family="sans-serif" font-size="20" lengthAdjust="spacing" textLength="39" x="511" y="77.7617">SPA</text><rect fill="#E2E2F0" height="64.3125" rx="2.5" ry="2.5" style="stroke:#181818;stroke-width:0.5;" width="167" x="447" y="696.8125"/><text fill="#000000" font-family="sans-serif" font-size="20" font-style="italic" lengthAdjust="spacing" textLength="153" x="454" y="724.5742">«Container (C4)»</text><text fill="#000000" font-family="sans-serif" font-size="20" lengthAdjust="spacing" textLength="39" x="511" y="749.7305">SPA</text><rect fill="#E2E2F0" height="64.3125" rx="2.5" ry="2.5" style="stroke:#181818;stroke-width:0.5;" width="167" x="742" y="24.8438"/><text fill="#000000" font-family="sans-serif" font-size="20" font-style="italic" lengthAdjust="spacing" textLength="153" x="749" y="52.6055">«Container (C4)»</text><text fill="#000000" font-family="sans-serif" font-size="20" lengthAdjust="spacing" textLength="80" x="785.5" y="77.7617">MPT API</text><rect fill="#E2E2F0" height="64.3125" rx="2.5" ry="2.5" style="stroke:#181818;stroke-width:0.5;" width="167" x="742" y="696.8125"/><text fill="#000000" font-family="sans-serif" font-size="20" font-style="italic" lengthAdjust="spacing" textLength="153" x="749" y="724.5742">«Container (C4)»</text><text fill="#000000" font-family="sans-serif" font-size="20" lengthAdjust="spacing" textLength="80" x="785.5" y="749.7305">MPT API</text><polygon fill="#181818" points="518.5,127.3125,528.5,131.3125,518.5,135.3125,522.5,131.3125" style="stroke:#181818;stroke-width:1.0;"/><line style="stroke:#181818;stroke-width:1.0;" x1="101.5" x2="524.5" y1="131.3125" y2="131.3125"/><text fill="#000000" font-family="sans-serif" font-size="20" lengthAdjust="spacing" textLength="405" x="108.5" y="124.918">requisitar uma lista de tarefas para aprovação</text><polygon fill="#181818" points="813.5,166.4688,823.5,170.4688,813.5,174.4688,817.5,170.4688" style="stroke:#181818;stroke-width:1.0;"/><line style="stroke:#181818;stroke-width:1.0;" x1="530.5" x2="819.5" y1="170.4688" y2="170.4688"/><text fill="#000000" font-family="sans-serif" font-size="20" lengthAdjust="spacing" textLength="146" x="537.5" y="164.0742">GET(/api/tasks/)</text><polygon fill="#181818" points="541.5,205.625,531.5,209.625,541.5,213.625,537.5,209.625" style="stroke:#181818;stroke-width:1.0;"/><line style="stroke:#181818;stroke-width:1.0;stroke-dasharray:2.0,2.0;" x1="535.5" x2="824.5" y1="209.625" y2="209.625"/><text fill="#000000" font-family="sans-serif" font-size="20" lengthAdjust="spacing" textLength="200" x="547.5" y="203.2305">retorna lista de tarefas</text><path d="M10,224.625 L78,224.625 L78,241.7813 L68,251.7813 L10,251.7813 L10,224.625 " fill="#EEEEEE" style="stroke:#000000;stroke-width:1.5;"/><rect fill="none" height="142.7813" style="stroke:#000000;stroke-width:1.5;" width="614" x="10" y="224.625"/><text fill="#000000" font-family="sans-serif" font-size="20" font-weight="bold" lengthAdjust="spacing" textLength="23" x="25" y="246.3867">alt</text><text fill="#000000" font-family="sans-serif" font-size="20" font-weight="bold" lengthAdjust="spacing" textLength="93" x="93" y="247.3867">[sucesso]</text><polygon fill="#181818" points="112.5,289.0938,102.5,293.0938,112.5,297.0938,108.5,293.0938" style="stroke:#181818;stroke-width:1.0;"/><line style="stroke:#181818;stroke-width:1.0;stroke-dasharray:2.0,2.0;" x1="106.5" x2="529.5" y1="293.0938" y2="293.0938"/><text fill="#000000" font-family="sans-serif" font-size="20" lengthAdjust="spacing" textLength="225" x="118.5" y="286.6992">apresenta lista de tarefas</text><line style="stroke:#000000;stroke-width:1.0;stroke-dasharray:2.0,2.0;" x1="10" x2="624" y1="302.0938" y2="302.0938"/><text fill="#000000" font-family="sans-serif" font-size="20" font-weight="bold" lengthAdjust="spacing" textLength="60" x="15" y="322.8555">[falha]</text><polygon fill="#181818" points="112.5,355.4063,102.5,359.4063,112.5,363.4063,108.5,359.4063" style="stroke:#181818;stroke-width:1.0;"/><line style="stroke:#181818;stroke-width:1.0;stroke-dasharray:2.0,2.0;" x1="106.5" x2="529.5" y1="359.4063" y2="359.4063"/><text fill="#000000" font-family="sans-serif" font-size="20" lengthAdjust="spacing" textLength="238" x="118.5" y="353.0117">devolve mensagem de erro</text><polygon fill="#181818" points="518.5,401.5625,528.5,405.5625,518.5,409.5625,522.5,405.5625" style="stroke:#181818;stroke-width:1.0;"/><line style="stroke:#181818;stroke-width:1.0;" x1="101.5" x2="524.5" y1="405.5625" y2="405.5625"/><text fill="#000000" font-family="sans-serif" font-size="20" lengthAdjust="spacing" textLength="222" x="108.5" y="399.168">aprova ou rejeita a tarefa</text><polygon fill="#181818" points="813.5,440.7188,823.5,444.7188,813.5,448.7188,817.5,444.7188" style="stroke:#181818;stroke-width:1.0;"/><line style="stroke:#181818;stroke-width:1.0;" x1="530.5" x2="819.5" y1="444.7188" y2="444.7188"/><text fill="#000000" font-family="sans-serif" font-size="20" lengthAdjust="spacing" textLength="143" x="537.5" y="438.3242">PUT(/api/tasks/)</text><path d="M10,459.7188 L78,459.7188 L78,476.875 L68,486.875 L10,486.875 L10,459.7188 " fill="#EEEEEE" style="stroke:#000000;stroke-width:1.5;"/><rect fill="none" height="221.0938" style="stroke:#000000;stroke-width:1.5;" width="909" x="10" y="459.7188"/><text fill="#000000" font-family="sans-serif" font-size="20" font-weight="bold" lengthAdjust="spacing" textLength="23" x="25" y="481.4805">alt</text><text fill="#000000" font-family="sans-serif" font-size="20" font-weight="bold" lengthAdjust="spacing" textLength="93" x="93" y="482.4805">[sucesso]</text><polygon fill="#181818" points="541.5,524.1875,531.5,528.1875,541.5,532.1875,537.5,528.1875" style="stroke:#181818;stroke-width:1.0;"/><line style="stroke:#181818;stroke-width:1.0;stroke-dasharray:2.0,2.0;" x1="535.5" x2="824.5" y1="528.1875" y2="528.1875"/><text fill="#000000" font-family="sans-serif" font-size="20" lengthAdjust="spacing" textLength="271" x="547.5" y="521.793">retorna mensagem de sucesso</text><polygon fill="#181818" points="112.5,563.3438,102.5,567.3438,112.5,571.3438,108.5,567.3438" style="stroke:#181818;stroke-width:1.0;"/><line style="stroke:#181818;stroke-width:1.0;stroke-dasharray:2.0,2.0;" x1="106.5" x2="529.5" y1="567.3438" y2="567.3438"/><text fill="#000000" font-family="sans-serif" font-size="20" lengthAdjust="spacing" textLength="274" x="118.5" y="560.9492">devolve mensagem de sucesso</text><line style="stroke:#000000;stroke-width:1.0;stroke-dasharray:2.0,2.0;" x1="10" x2="919" y1="576.3438" y2="576.3438"/><text fill="#000000" font-family="sans-serif" font-size="20" font-weight="bold" lengthAdjust="spacing" textLength="60" x="15" y="597.1055">[falha]</text><polygon fill="#181818" points="541.5,629.6563,531.5,633.6563,541.5,637.6563,537.5,633.6563" style="stroke:#181818;stroke-width:1.0;"/><line style="stroke:#181818;stroke-width:1.0;stroke-dasharray:2.0,2.0;" x1="535.5" x2="824.5" y1="633.6563" y2="633.6563"/><text fill="#000000" font-family="sans-serif" font-size="20" lengthAdjust="spacing" textLength="235" x="547.5" y="627.2617">retorna mensagem de erro</text><polygon fill="#181818" points="112.5,668.8125,102.5,672.8125,112.5,676.8125,108.5,672.8125" style="stroke:#181818;stroke-width:1.0;"/><line style="stroke:#181818;stroke-width:1.0;stroke-dasharray:2.0,2.0;" x1="106.5" x2="529.5" y1="672.8125" y2="672.8125"/><text fill="#000000" font-family="sans-serif" font-size="20" lengthAdjust="spacing" textLength="238" x="118.5" y="666.418">devolve mensagem de erro</text><!--SRC=[dP1BJiCm48RtFiKegtPH1I5MKHKfgg3g0YbIom56oHHC7Jjud2ou3WiEqejXfw2K9524DxOqdl_nyK7g6YrMoXG7Ag6aFJRAtHdjjlALuFfA22oSiH2jYSDT4ZYq_Xj7W0nP60eluMGXQzGEecsUTQEL5q6foS9osRzdgvjvcdxVkCztaEMRas2-cVelEYDOfBri0fPU6idIvu6cGb2I7Pu5XD0CiBQcnUFxySq8qUjw9M-LmFfsDuknbh53Fd0y5o70OkZZlVNOmBDH3hWfYDa8yETCFnY4p4b8G4n-C1OWnGHxL4_uytf9hL4jGKMQyP6gi4_M6a6wdEPogWocyScVoVC1_7IS090_302CIlr2v3pJHGvJHRwM1Y3-QDbX-2Uu3m00]--></g></svg>