<?xml version="1.0" encoding="UTF-8" standalone="no"?><svg xmlns="http://www.w3.org/2000/svg" xmlns:xlink="http://www.w3.org/1999/xlink" contentStyleType="text/css" height="513px" preserveAspectRatio="none" style="width:853px;height:513px;background:#FFFFFF;" version="1.1" viewBox="0 0 853 513" width="853px" zoomAndPan="magnify"><defs/><g><rect fill="none" height="221.0938" style="stroke:#000000;stroke-width:1.5;" width="836" x="10" y="185.4688"/><line style="stroke:#181818;stroke-width:0.5;stroke-dasharray:5.0,5.0;" x1="51" x2="51" y1="90.1563" y2="423.5625"/><line style="stroke:#181818;stroke-width:0.5;stroke-dasharray:5.0,5.0;" x1="457" x2="457" y1="90.1563" y2="423.5625"/><line style="stroke:#181818;stroke-width:0.5;stroke-dasharray:5.0,5.0;" x1="752" x2="752" y1="90.1563" y2="423.5625"/><text fill="#000000" font-family="sans-serif" font-size="20" lengthAdjust="spacing" textLength="57" x="20" y="85.7617">Utente</text><ellipse cx="51.5" cy="13.5" fill="#E2E2F0" rx="8" ry="8" style="stroke:#181818;stroke-width:0.5;"/><path d="M51.5,21.5 L51.5,48.5 M38.5,29.5 L64.5,29.5 M51.5,48.5 L38.5,63.5 M51.5,48.5 L64.5,63.5 " fill="none" style="stroke:#181818;stroke-width:0.5;"/><text fill="#000000" font-family="sans-serif" font-size="20" lengthAdjust="spacing" textLength="57" x="20" y="443.3242">Utente</text><ellipse cx="51.5" cy="456.2188" fill="#E2E2F0" rx="8" ry="8" style="stroke:#181818;stroke-width:0.5;"/><path d="M51.5,464.2188 L51.5,491.2188 M38.5,472.2188 L64.5,472.2188 M51.5,491.2188 L38.5,506.2188 M51.5,491.2188 L64.5,506.2188 " fill="none" style="stroke:#181818;stroke-width:0.5;"/><rect fill="#E2E2F0" height="64.3125" rx="2.5" ry="2.5" style="stroke:#181818;stroke-width:0.5;" width="167" x="374" y="24.8438"/><text fill="#000000" font-family="sans-serif" font-size="20" font-style="italic" lengthAdjust="spacing" textLength="153" x="381" y="52.6055">«Container (C4)»</text><text fill="#000000" font-family="sans-serif" font-size="20" lengthAdjust="spacing" textLength="39" x="438" y="77.7617">SPA</text><rect fill="#E2E2F0" height="64.3125" rx="2.5" ry="2.5" style="stroke:#181818;stroke-width:0.5;" width="167" x="374" y="422.5625"/><text fill="#000000" font-family="sans-serif" font-size="20" font-style="italic" lengthAdjust="spacing" textLength="153" x="381" y="450.3242">«Container (C4)»</text><text fill="#000000" font-family="sans-serif" font-size="20" lengthAdjust="spacing" textLength="39" x="438" y="475.4805">SPA</text><rect fill="#E2E2F0" height="64.3125" rx="2.5" ry="2.5" style="stroke:#181818;stroke-width:0.5;" width="167" x="669" y="24.8438"/><text fill="#000000" font-family="sans-serif" font-size="20" font-style="italic" lengthAdjust="spacing" textLength="153" x="676" y="52.6055">«Container (C4)»</text><text fill="#000000" font-family="sans-serif" font-size="20" lengthAdjust="spacing" textLength="80" x="712.5" y="77.7617">MPT API</text><rect fill="#E2E2F0" height="64.3125" rx="2.5" ry="2.5" style="stroke:#181818;stroke-width:0.5;" width="167" x="669" y="422.5625"/><text fill="#000000" font-family="sans-serif" font-size="20" font-style="italic" lengthAdjust="spacing" textLength="153" x="676" y="450.3242">«Container (C4)»</text><text fill="#000000" font-family="sans-serif" font-size="20" lengthAdjust="spacing" textLength="80" x="712.5" y="475.4805">MPT API</text><polygon fill="#181818" points="445.5,127.3125,455.5,131.3125,445.5,135.3125,449.5,131.3125" style="stroke:#181818;stroke-width:1.0;"/><line style="stroke:#181818;stroke-width:1.0;" x1="51.5" x2="451.5" y1="131.3125" y2="131.3125"/><text fill="#000000" font-family="sans-serif" font-size="20" lengthAdjust="spacing" textLength="382" x="58.5" y="124.918">requisita a eliminação da conta de utilizador</text><polygon fill="#181818" points="740.5,166.4688,750.5,170.4688,740.5,174.4688,744.5,170.4688" style="stroke:#181818;stroke-width:1.0;"/><line style="stroke:#181818;stroke-width:1.0;" x1="457.5" x2="746.5" y1="170.4688" y2="170.4688"/><text fill="#000000" font-family="sans-serif" font-size="20" lengthAdjust="spacing" textLength="203" x="464.5" y="164.0742">DELETE(/api/users/:id)</text><path d="M10,185.4688 L78,185.4688 L78,202.625 L68,212.625 L10,212.625 L10,185.4688 " fill="#EEEEEE" style="stroke:#000000;stroke-width:1.5;"/><rect fill="none" height="221.0938" style="stroke:#000000;stroke-width:1.5;" width="836" x="10" y="185.4688"/><text fill="#000000" font-family="sans-serif" font-size="20" font-weight="bold" lengthAdjust="spacing" textLength="23" x="25" y="207.2305">alt</text><text fill="#000000" font-family="sans-serif" font-size="20" font-weight="bold" lengthAdjust="spacing" textLength="93" x="93" y="208.2305">[sucesso]</text><polygon fill="#181818" points="468.5,249.9375,458.5,253.9375,468.5,257.9375,464.5,253.9375" style="stroke:#181818;stroke-width:1.0;"/><line style="stroke:#181818;stroke-width:1.0;stroke-dasharray:2.0,2.0;" x1="462.5" x2="751.5" y1="253.9375" y2="253.9375"/><text fill="#000000" font-family="sans-serif" font-size="20" lengthAdjust="spacing" textLength="271" x="474.5" y="247.543">retorna mensagem de sucesso</text><polygon fill="#181818" points="62.5,289.0938,52.5,293.0938,62.5,297.0938,58.5,293.0938" style="stroke:#181818;stroke-width:1.0;"/><line style="stroke:#181818;stroke-width:1.0;stroke-dasharray:2.0,2.0;" x1="56.5" x2="456.5" y1="293.0938" y2="293.0938"/><text fill="#000000" font-family="sans-serif" font-size="20" lengthAdjust="spacing" textLength="271" x="68.5" y="286.6992">retorna mensagem de sucesso</text><line style="stroke:#000000;stroke-width:1.0;stroke-dasharray:2.0,2.0;" x1="10" x2="846" y1="302.0938" y2="302.0938"/><text fill="#000000" font-family="sans-serif" font-size="20" font-weight="bold" lengthAdjust="spacing" textLength="60" x="15" y="322.8555">[falha]</text><polygon fill="#181818" points="468.5,355.4063,458.5,359.4063,468.5,363.4063,464.5,359.4063" style="stroke:#181818;stroke-width:1.0;"/><line style="stroke:#181818;stroke-width:1.0;stroke-dasharray:2.0,2.0;" x1="462.5" x2="751.5" y1="359.4063" y2="359.4063"/><text fill="#000000" font-family="sans-serif" font-size="20" lengthAdjust="spacing" textLength="235" x="474.5" y="353.0117">retorna mensagem de erro</text><polygon fill="#181818" points="62.5,394.5625,52.5,398.5625,62.5,402.5625,58.5,398.5625" style="stroke:#181818;stroke-width:1.0;"/><line style="stroke:#181818;stroke-width:1.0;stroke-dasharray:2.0,2.0;" x1="56.5" x2="456.5" y1="398.5625" y2="398.5625"/><text fill="#000000" font-family="sans-serif" font-size="20" lengthAdjust="spacing" textLength="238" x="68.5" y="392.168">devolve mensagem de erro</text><!--SRC=[bOzDQiCm44RtEiNWLR88BgKh4mmcTI7GWY7f0GPfqWwH9LSQPv7hTD63v6ALqeNJ7mBLIaZpllTDtBCRC61llTwJ0KCx7AqyU2SRFXBStYY5Mdo0ubd82HM04PhyeX8dh7b09r1ikkRyjKeaigC0o-LqdwtkvdNzdNZgjj1qww_0RltNl3gBO55FiHK4UXiviY0WaEMU7Pu-JkyU38BEOsa968Kj7z6accgAJK79LC5z-zXksrc90vTZf13BYiqyRMe5ugWfHgyWdLnhyTEU6Zc4dbp45-gpx1Ava6LRxdyT8Xi9TcXVyJzA2k6Apz31smFz9iWPzGa0]--></g></svg>