<?xml version="1.0" encoding="UTF-8" standalone="no"?><svg xmlns="http://www.w3.org/2000/svg" xmlns:xlink="http://www.w3.org/1999/xlink" contentStyleType="text/css" height="817px" preserveAspectRatio="none" style="width:1006px;height:817px;background:#FFFFFF;" version="1.1" viewBox="0 0 1006 817" width="1006px" zoomAndPan="magnify"><defs/><g><rect fill="none" height="142.7813" style="stroke:#000000;stroke-width:1.5;" width="532" x="10" y="185.4688"/><rect fill="none" height="290.0938" style="stroke:#000000;stroke-width:1.5;" width="989.5" x="10" y="420.5625"/><line style="stroke:#181818;stroke-width:0.5;stroke-dasharray:5.0,5.0;" x1="51" x2="51" y1="90.1563" y2="727.6563"/><line style="stroke:#181818;stroke-width:0.5;stroke-dasharray:5.0,5.0;" x1="448" x2="448" y1="90.1563" y2="727.6563"/><line style="stroke:#181818;stroke-width:0.5;stroke-dasharray:5.0,5.0;" x1="743" x2="743" y1="90.1563" y2="727.6563"/><text fill="#000000" font-family="sans-serif" font-size="20" lengthAdjust="spacing" textLength="57" x="20" y="85.7617">Utente</text><ellipse cx="51.5" cy="13.5" fill="#E2E2F0" rx="8" ry="8" style="stroke:#181818;stroke-width:0.5;"/><path d="M51.5,21.5 L51.5,48.5 M38.5,29.5 L64.5,29.5 M51.5,48.5 L38.5,63.5 M51.5,48.5 L64.5,63.5 " fill="none" style="stroke:#181818;stroke-width:0.5;"/><text fill="#000000" font-family="sans-serif" font-size="20" lengthAdjust="spacing" textLength="57" x="20" y="747.418">Utente</text><ellipse cx="51.5" cy="760.3125" fill="#E2E2F0" rx="8" ry="8" style="stroke:#181818;stroke-width:0.5;"/><path d="M51.5,768.3125 L51.5,795.3125 M38.5,776.3125 L64.5,776.3125 M51.5,795.3125 L38.5,810.3125 M51.5,795.3125 L64.5,810.3125 " fill="none" style="stroke:#181818;stroke-width:0.5;"/><rect fill="#E2E2F0" height="64.3125" rx="2.5" ry="2.5" style="stroke:#181818;stroke-width:0.5;" width="167" x="365" y="24.8438"/><text fill="#000000" font-family="sans-serif" font-size="20" font-style="italic" lengthAdjust="spacing" textLength="153" x="372" y="52.6055">«Container (C4)»</text><text fill="#000000" font-family="sans-serif" font-size="20" lengthAdjust="spacing" textLength="39" x="429" y="77.7617">SPA</text><rect fill="#E2E2F0" height="64.3125" rx="2.5" ry="2.5" style="stroke:#181818;stroke-width:0.5;" width="167" x="365" y="726.6563"/><text fill="#000000" font-family="sans-serif" font-size="20" font-style="italic" lengthAdjust="spacing" textLength="153" x="372" y="754.418">«Container (C4)»</text><text fill="#000000" font-family="sans-serif" font-size="20" lengthAdjust="spacing" textLength="39" x="429" y="779.5742">SPA</text><rect fill="#E2E2F0" height="64.3125" rx="2.5" ry="2.5" style="stroke:#181818;stroke-width:0.5;" width="167" x="660" y="24.8438"/><text fill="#000000" font-family="sans-serif" font-size="20" font-style="italic" lengthAdjust="spacing" textLength="153" x="667" y="52.6055">«Container (C4)»</text><text fill="#000000" font-family="sans-serif" font-size="20" lengthAdjust="spacing" textLength="80" x="703.5" y="77.7617">MPT API</text><rect fill="#E2E2F0" height="64.3125" rx="2.5" ry="2.5" style="stroke:#181818;stroke-width:0.5;" width="167" x="660" y="726.6563"/><text fill="#000000" font-family="sans-serif" font-size="20" font-style="italic" lengthAdjust="spacing" textLength="153" x="667" y="754.418">«Container (C4)»</text><text fill="#000000" font-family="sans-serif" font-size="20" lengthAdjust="spacing" textLength="80" x="703.5" y="779.5742">MPT API</text><polygon fill="#181818" points="436.5,127.3125,446.5,131.3125,436.5,135.3125,440.5,131.3125" style="stroke:#181818;stroke-width:1.0;"/><line style="stroke:#181818;stroke-width:1.0;" x1="51.5" x2="442.5" y1="131.3125" y2="131.3125"/><text fill="#000000" font-family="sans-serif" font-size="20" lengthAdjust="spacing" textLength="371" x="58.5" y="124.918">requisita alteração dos dados do utilizador</text><polygon fill="#181818" points="731.5,166.4688,741.5,170.4688,731.5,174.4688,735.5,170.4688" style="stroke:#181818;stroke-width:1.0;"/><line style="stroke:#181818;stroke-width:1.0;" x1="448.5" x2="737.5" y1="170.4688" y2="170.4688"/><text fill="#000000" font-family="sans-serif" font-size="20" lengthAdjust="spacing" textLength="168" x="455.5" y="164.0742">GET(/api/users/:id)</text><path d="M10,185.4688 L78,185.4688 L78,202.625 L68,212.625 L10,212.625 L10,185.4688 " fill="#EEEEEE" style="stroke:#000000;stroke-width:1.5;"/><rect fill="none" height="142.7813" style="stroke:#000000;stroke-width:1.5;" width="532" x="10" y="185.4688"/><text fill="#000000" font-family="sans-serif" font-size="20" font-weight="bold" lengthAdjust="spacing" textLength="23" x="25" y="207.2305">alt</text><text fill="#000000" font-family="sans-serif" font-size="20" font-weight="bold" lengthAdjust="spacing" textLength="93" x="93" y="208.2305">[sucesso]</text><polygon fill="#181818" points="62.5,249.9375,52.5,253.9375,62.5,257.9375,58.5,253.9375" style="stroke:#181818;stroke-width:1.0;"/><line style="stroke:#181818;stroke-width:1.0;stroke-dasharray:2.0,2.0;" x1="56.5" x2="447.5" y1="253.9375" y2="253.9375"/><text fill="#000000" font-family="sans-serif" font-size="20" lengthAdjust="spacing" textLength="234" x="68.5" y="247.543">retorna dados do utilizador</text><line style="stroke:#000000;stroke-width:1.0;stroke-dasharray:2.0,2.0;" x1="10" x2="542" y1="262.9375" y2="262.9375"/><text fill="#000000" font-family="sans-serif" font-size="20" font-weight="bold" lengthAdjust="spacing" textLength="60" x="15" y="283.6992">[falha]</text><polygon fill="#181818" points="62.5,316.25,52.5,320.25,62.5,324.25,58.5,320.25" style="stroke:#181818;stroke-width:1.0;"/><line style="stroke:#181818;stroke-width:1.0;stroke-dasharray:2.0,2.0;" x1="56.5" x2="447.5" y1="320.25" y2="320.25"/><text fill="#000000" font-family="sans-serif" font-size="20" lengthAdjust="spacing" textLength="238" x="68.5" y="313.8555">devolve mensagem de erro</text><polygon fill="#181818" points="436.5,362.4063,446.5,366.4063,436.5,370.4063,440.5,366.4063" style="stroke:#181818;stroke-width:1.0;"/><line style="stroke:#181818;stroke-width:1.0;" x1="51.5" x2="442.5" y1="366.4063" y2="366.4063"/><text fill="#000000" font-family="sans-serif" font-size="20" lengthAdjust="spacing" textLength="373" x="58.5" y="360.0117">altera e envia os novos dados do utilizador</text><polygon fill="#181818" points="731.5,401.5625,741.5,405.5625,731.5,409.5625,735.5,405.5625" style="stroke:#181818;stroke-width:1.0;"/><line style="stroke:#181818;stroke-width:1.0;" x1="448.5" x2="737.5" y1="405.5625" y2="405.5625"/><text fill="#000000" font-family="sans-serif" font-size="20" lengthAdjust="spacing" textLength="171" x="455.5" y="399.168">PATCH(/api/users/)</text><path d="M10,420.5625 L78,420.5625 L78,437.7188 L68,447.7188 L10,447.7188 L10,420.5625 " fill="#EEEEEE" style="stroke:#000000;stroke-width:1.5;"/><rect fill="none" height="290.0938" style="stroke:#000000;stroke-width:1.5;" width="989.5" x="10" y="420.5625"/><text fill="#000000" font-family="sans-serif" font-size="20" font-weight="bold" lengthAdjust="spacing" textLength="23" x="25" y="442.3242">alt</text><line style="stroke:#181818;stroke-width:1.0;" x1="743.5" x2="785.5" y1="478.875" y2="478.875"/><line style="stroke:#181818;stroke-width:1.0;" x1="785.5" x2="785.5" y1="478.875" y2="491.875"/><line style="stroke:#181818;stroke-width:1.0;" x1="744.5" x2="785.5" y1="491.875" y2="491.875"/><polygon fill="#181818" points="754.5,487.875,744.5,491.875,754.5,495.875,750.5,491.875" style="stroke:#181818;stroke-width:1.0;"/><text fill="#000000" font-family="sans-serif" font-size="20" lengthAdjust="spacing" textLength="110" x="750.5" y="472.4805">valida dados</text><line style="stroke:#181818;stroke-width:1.0;" x1="743.5" x2="785.5" y1="531.0313" y2="531.0313"/><line style="stroke:#181818;stroke-width:1.0;" x1="785.5" x2="785.5" y1="531.0313" y2="544.0313"/><line style="stroke:#181818;stroke-width:1.0;" x1="744.5" x2="785.5" y1="544.0313" y2="544.0313"/><polygon fill="#181818" points="754.5,540.0313,744.5,544.0313,754.5,548.0313,750.5,544.0313" style="stroke:#181818;stroke-width:1.0;"/><text fill="#000000" font-family="sans-serif" font-size="20" lengthAdjust="spacing" textLength="237" x="750.5" y="524.6367">atualiza dados do utilizador</text><polygon fill="#181818" points="459.5,579.1875,449.5,583.1875,459.5,587.1875,455.5,583.1875" style="stroke:#181818;stroke-width:1.0;"/><line style="stroke:#181818;stroke-width:1.0;" x1="453.5" x2="742.5" y1="583.1875" y2="583.1875"/><text fill="#000000" font-family="sans-serif" font-size="20" lengthAdjust="spacing" textLength="271" x="465.5" y="576.793">retorna mensagem de sucesso</text><polygon fill="#181818" points="62.5,618.3438,52.5,622.3438,62.5,626.3438,58.5,622.3438" style="stroke:#181818;stroke-width:1.0;"/><line style="stroke:#181818;stroke-width:1.0;" x1="56.5" x2="447.5" y1="622.3438" y2="622.3438"/><text fill="#000000" font-family="sans-serif" font-size="20" lengthAdjust="spacing" textLength="271" x="68.5" y="615.9492">retorna mensagem de sucesso</text><line style="stroke:#000000;stroke-width:1.0;stroke-dasharray:2.0,2.0;" x1="10" x2="999.5" y1="631.3438" y2="631.3438"/><polygon fill="#181818" points="459.5,659.5,449.5,663.5,459.5,667.5,455.5,663.5" style="stroke:#181818;stroke-width:1.0;"/><line style="stroke:#181818;stroke-width:1.0;" x1="453.5" x2="742.5" y1="663.5" y2="663.5"/><text fill="#000000" font-family="sans-serif" font-size="20" lengthAdjust="spacing" textLength="235" x="465.5" y="657.1055">retorna mensagem de erro</text><polygon fill="#181818" points="62.5,698.6563,52.5,702.6563,62.5,706.6563,58.5,702.6563" style="stroke:#181818;stroke-width:1.0;"/><line style="stroke:#181818;stroke-width:1.0;" x1="56.5" x2="447.5" y1="702.6563" y2="702.6563"/><text fill="#000000" font-family="sans-serif" font-size="20" lengthAdjust="spacing" textLength="235" x="68.5" y="696.2617">retorna mensagem de erro</text><!--SRC=[bL7BQiCm4BphAvQSuaD9AJsP432cZnmAXhWVi5YRTeaikPBiGtwdXtv8VgoItJOESQ3HGS-TcPsHsx5kq6AjJBKZ2PAss2h_QBJVy9xWxbO8hBonC7lrf3tD01rayKO4dEUA6zGUPfiYwv_oW4JMP66vFExd-NsoMfqYNeeIic8z41RhgNhH2y7DwaYRWgMFbXrx15IUB1w-3fy6f74WiPyDj9uLxyF92d4a3JH19uMdXtA-m8ONhIFh5YdBH0GgS6r5pXa1OOnG4HRRYCfXqJYfGyeHR56zusMyfCweZg0cxV2Dwd01PAqHfEMqry4XX3BTCK9GrQRxlzCYA_FdiTT4z4xx5cFcluKTAfO_niuUqRSOHIPLHyKdVpGaDNPw8TwpTASmCTqhfFfGhz7v-uLl]--></g></svg>