<?xml version="1.0" encoding="UTF-8" standalone="no"?><svg xmlns="http://www.w3.org/2000/svg" xmlns:xlink="http://www.w3.org/1999/xlink" contentStyleType="text/css" height="670px" preserveAspectRatio="none" style="width:825px;height:670px;background:#FFFFFF;" version="1.1" viewBox="0 0 825 670" width="825px" zoomAndPan="magnify"><defs/><g><rect fill="none" height="142.7813" style="stroke:#000000;stroke-width:1.5;" width="493" x="325" y="224.625"/><rect fill="none" height="142.7813" style="stroke:#000000;stroke-width:1.5;" width="502" x="10" y="420.5625"/><line style="stroke:#181818;stroke-width:0.5;stroke-dasharray:5.0,5.0;" x1="51" x2="51" y1="90.1563" y2="580.3438"/><line style="stroke:#181818;stroke-width:0.5;stroke-dasharray:5.0,5.0;" x1="418" x2="418" y1="90.1563" y2="580.3438"/><line style="stroke:#181818;stroke-width:0.5;stroke-dasharray:5.0,5.0;" x1="724" x2="724" y1="90.1563" y2="580.3438"/><text fill="#000000" font-family="sans-serif" font-size="20" lengthAdjust="spacing" textLength="57" x="20" y="85.7617">Utente</text><ellipse cx="51.5" cy="13.5" fill="#E2E2F0" rx="8" ry="8" style="stroke:#181818;stroke-width:0.5;"/><path d="M51.5,21.5 L51.5,48.5 M38.5,29.5 L64.5,29.5 M51.5,48.5 L38.5,63.5 M51.5,48.5 L64.5,63.5 " fill="none" style="stroke:#181818;stroke-width:0.5;"/><text fill="#000000" font-family="sans-serif" font-size="20" lengthAdjust="spacing" textLength="57" x="20" y="600.1055">Utente</text><ellipse cx="51.5" cy="613" fill="#E2E2F0" rx="8" ry="8" style="stroke:#181818;stroke-width:0.5;"/><path d="M51.5,621 L51.5,648 M38.5,629 L64.5,629 M51.5,648 L38.5,663 M51.5,648 L64.5,663 " fill="none" style="stroke:#181818;stroke-width:0.5;"/><rect fill="#E2E2F0" height="64.3125" rx="2.5" ry="2.5" style="stroke:#181818;stroke-width:0.5;" width="167" x="335" y="24.8438"/><text fill="#000000" font-family="sans-serif" font-size="20" font-style="italic" lengthAdjust="spacing" textLength="153" x="342" y="52.6055">«Container (C4)»</text><text fill="#000000" font-family="sans-serif" font-size="20" lengthAdjust="spacing" textLength="39" x="399" y="77.7617">SPA</text><rect fill="#E2E2F0" height="64.3125" rx="2.5" ry="2.5" style="stroke:#181818;stroke-width:0.5;" width="167" x="335" y="579.3438"/><text fill="#000000" font-family="sans-serif" font-size="20" font-style="italic" lengthAdjust="spacing" textLength="153" x="342" y="607.1055">«Container (C4)»</text><text fill="#000000" font-family="sans-serif" font-size="20" lengthAdjust="spacing" textLength="39" x="399" y="632.2617">SPA</text><rect fill="#E2E2F0" height="64.3125" rx="2.5" ry="2.5" style="stroke:#181818;stroke-width:0.5;" width="167" x="641" y="24.8438"/><text fill="#000000" font-family="sans-serif" font-size="20" font-style="italic" lengthAdjust="spacing" textLength="153" x="648" y="52.6055">«Container (C4)»</text><text fill="#000000" font-family="sans-serif" font-size="20" lengthAdjust="spacing" textLength="80" x="684.5" y="77.7617">MPT API</text><rect fill="#E2E2F0" height="64.3125" rx="2.5" ry="2.5" style="stroke:#181818;stroke-width:0.5;" width="167" x="641" y="579.3438"/><text fill="#000000" font-family="sans-serif" font-size="20" font-style="italic" lengthAdjust="spacing" textLength="153" x="648" y="607.1055">«Container (C4)»</text><text fill="#000000" font-family="sans-serif" font-size="20" lengthAdjust="spacing" textLength="80" x="684.5" y="632.2617">MPT API</text><polygon fill="#181818" points="406.5,127.3125,416.5,131.3125,406.5,135.3125,410.5,131.3125" style="stroke:#181818;stroke-width:1.0;"/><line style="stroke:#181818;stroke-width:1.0;" x1="51.5" x2="412.5" y1="131.3125" y2="131.3125"/><text fill="#000000" font-family="sans-serif" font-size="20" lengthAdjust="spacing" textLength="182" x="58.5" y="124.918">requisitar uma tarefa</text><polygon fill="#181818" points="62.5,166.4688,52.5,170.4688,62.5,174.4688,58.5,170.4688" style="stroke:#181818;stroke-width:1.0;"/><line style="stroke:#181818;stroke-width:1.0;stroke-dasharray:2.0,2.0;" x1="56.5" x2="417.5" y1="170.4688" y2="170.4688"/><text fill="#000000" font-family="sans-serif" font-size="20" lengthAdjust="spacing" textLength="343" x="68.5" y="164.0742">requisita o ponto inicial e final da tarefa</text><polygon fill="#181818" points="406.5,205.625,416.5,209.625,406.5,213.625,410.5,209.625" style="stroke:#181818;stroke-width:1.0;"/><line style="stroke:#181818;stroke-width:1.0;" x1="51.5" x2="412.5" y1="209.625" y2="209.625"/><text fill="#000000" font-family="sans-serif" font-size="20" lengthAdjust="spacing" textLength="342" x="58.5" y="203.2305">insere os dados para criação da tarefa</text><path d="M325,224.625 L393,224.625 L393,241.7813 L383,251.7813 L325,251.7813 L325,224.625 " fill="#EEEEEE" style="stroke:#000000;stroke-width:1.5;"/><rect fill="none" height="142.7813" style="stroke:#000000;stroke-width:1.5;" width="493" x="325" y="224.625"/><text fill="#000000" font-family="sans-serif" font-size="20" font-weight="bold" lengthAdjust="spacing" textLength="23" x="340" y="246.3867">alt</text><text fill="#000000" font-family="sans-serif" font-size="20" font-weight="bold" lengthAdjust="spacing" textLength="173" x="408" y="247.3867">[task surveillance]</text><polygon fill="#181818" points="712.5,289.0938,722.5,293.0938,712.5,297.0938,716.5,293.0938" style="stroke:#181818;stroke-width:1.0;"/><line style="stroke:#181818;stroke-width:1.0;" x1="418.5" x2="718.5" y1="293.0938" y2="293.0938"/><text fill="#000000" font-family="sans-serif" font-size="20" lengthAdjust="spacing" textLength="260" x="425.5" y="286.6992">POST(/api/tasks/surveillance)</text><line style="stroke:#000000;stroke-width:1.0;stroke-dasharray:2.0,2.0;" x1="325" x2="818" y1="302.0938" y2="302.0938"/><text fill="#000000" font-family="sans-serif" font-size="20" font-weight="bold" lengthAdjust="spacing" textLength="197" x="330" y="322.8555">[task pickupdelivery]</text><polygon fill="#181818" points="712.5,355.4063,722.5,359.4063,712.5,363.4063,716.5,359.4063" style="stroke:#181818;stroke-width:1.0;"/><line style="stroke:#181818;stroke-width:1.0;" x1="418.5" x2="718.5" y1="359.4063" y2="359.4063"/><text fill="#000000" font-family="sans-serif" font-size="20" lengthAdjust="spacing" textLength="282" x="425.5" y="353.0117">POST(/api/tasks/pickupdelivery)</text><polygon fill="#181818" points="429.5,401.5625,419.5,405.5625,429.5,409.5625,425.5,405.5625" style="stroke:#181818;stroke-width:1.0;"/><line style="stroke:#181818;stroke-width:1.0;stroke-dasharray:2.0,2.0;" x1="423.5" x2="723.5" y1="405.5625" y2="405.5625"/><text fill="#000000" font-family="sans-serif" font-size="20" lengthAdjust="spacing" textLength="102" x="435.5" y="399.168">status code</text><path d="M10,420.5625 L78,420.5625 L78,437.7188 L68,447.7188 L10,447.7188 L10,420.5625 " fill="#EEEEEE" style="stroke:#000000;stroke-width:1.5;"/><rect fill="none" height="142.7813" style="stroke:#000000;stroke-width:1.5;" width="502" x="10" y="420.5625"/><text fill="#000000" font-family="sans-serif" font-size="20" font-weight="bold" lengthAdjust="spacing" textLength="23" x="25" y="442.3242">alt</text><text fill="#000000" font-family="sans-serif" font-size="20" font-weight="bold" lengthAdjust="spacing" textLength="287" x="93" y="443.3242">[sucesso na criação da tarefa]</text><polygon fill="#181818" points="62.5,485.0313,52.5,489.0313,62.5,493.0313,58.5,489.0313" style="stroke:#181818;stroke-width:1.0;"/><line style="stroke:#181818;stroke-width:1.0;stroke-dasharray:2.0,2.0;" x1="56.5" x2="417.5" y1="489.0313" y2="489.0313"/><text fill="#000000" font-family="sans-serif" font-size="20" lengthAdjust="spacing" textLength="274" x="68.5" y="482.6367">devolve mensagem de sucesso</text><line style="stroke:#000000;stroke-width:1.0;stroke-dasharray:2.0,2.0;" x1="10" x2="512" y1="498.0313" y2="498.0313"/><text fill="#000000" font-family="sans-serif" font-size="20" font-weight="bold" lengthAdjust="spacing" textLength="254" x="15" y="518.793">[falha na criação da tarefa]</text><polygon fill="#181818" points="62.5,551.3438,52.5,555.3438,62.5,559.3438,58.5,555.3438" style="stroke:#181818;stroke-width:1.0;"/><line style="stroke:#181818;stroke-width:1.0;stroke-dasharray:2.0,2.0;" x1="56.5" x2="417.5" y1="555.3438" y2="555.3438"/><text fill="#000000" font-family="sans-serif" font-size="20" lengthAdjust="spacing" textLength="238" x="68.5" y="548.9492">devolve mensagem de erro</text><!--SRC=[hP31IWCn48RlUOgXf_PGAkAfb8LI47eG5reVO4YcEcmsMJFP1NqT3pv8Nypf5jsjzE3179AG_Dy_yuzK71fCMFjeAtBWw82jp_Snv1s_4zpU68CsnmIJfqmXqmHGO7rwCSfbjjnWo33PbUl-QwCaSg04gzLmdsxkPaLnIJoKUrYNsxDXkRscDtqXc1U3xH8IlROid351MoFegJsRWPshlET6KeZGg2021wsF7WWE7FHqFmRNId4GIWHHLETqFqqAR68yVXu_uWWswBFUfG9fKqViFGPB1dID6YjEEPTGFkxsqmKsl3WHiXWZCqDUw6pLiAtQnf7dZjBR7yqk8RKBpkWSTRxposoICRS2DZhgkvVMaaY4S3tXh-h3Z1rrqNS4DGN1PwhruTlhdEM0_WN_nPPIYdsWBm00]--></g></svg>