<?xml version="1.0" encoding="UTF-8" standalone="no"?><svg xmlns="http://www.w3.org/2000/svg" xmlns:xlink="http://www.w3.org/1999/xlink" contentStyleType="text/css" height="591px" preserveAspectRatio="none" style="width:1140px;height:591px;background:#FFFFFF;" version="1.1" viewBox="0 0 1140 591" width="1140px" zoomAndPan="magnify"><defs/><g><rect fill="none" height="221.0938" style="stroke:#000000;stroke-width:1.5;" width="1123" x="10" y="263.7813"/><line style="stroke:#181818;stroke-width:0.5;stroke-dasharray:5.0,5.0;" x1="101" x2="101" y1="90.1563" y2="501.875"/><line style="stroke:#181818;stroke-width:0.5;stroke-dasharray:5.0,5.0;" x1="647" x2="647" y1="90.1563" y2="501.875"/><line style="stroke:#181818;stroke-width:0.5;stroke-dasharray:5.0,5.0;" x1="1039" x2="1039" y1="90.1563" y2="501.875"/><text fill="#000000" font-family="sans-serif" font-size="20" lengthAdjust="spacing" textLength="157" x="20" y="85.7617">Gestor de tarefas</text><ellipse cx="101.5" cy="13.5" fill="#E2E2F0" rx="8" ry="8" style="stroke:#181818;stroke-width:0.5;"/><path d="M101.5,21.5 L101.5,48.5 M88.5,29.5 L114.5,29.5 M101.5,48.5 L88.5,63.5 M101.5,48.5 L114.5,63.5 " fill="none" style="stroke:#181818;stroke-width:0.5;"/><text fill="#000000" font-family="sans-serif" font-size="20" lengthAdjust="spacing" textLength="157" x="20" y="521.6367">Gestor de tarefas</text><ellipse cx="101.5" cy="534.5313" fill="#E2E2F0" rx="8" ry="8" style="stroke:#181818;stroke-width:0.5;"/><path d="M101.5,542.5313 L101.5,569.5313 M88.5,550.5313 L114.5,550.5313 M101.5,569.5313 L88.5,584.5313 M101.5,569.5313 L114.5,584.5313 " fill="none" style="stroke:#181818;stroke-width:0.5;"/><rect fill="#E2E2F0" height="64.3125" rx="2.5" ry="2.5" style="stroke:#181818;stroke-width:0.5;" width="167" x="564" y="24.8438"/><text fill="#000000" font-family="sans-serif" font-size="20" font-style="italic" lengthAdjust="spacing" textLength="153" x="571" y="52.6055">«Container (C4)»</text><text fill="#000000" font-family="sans-serif" font-size="20" lengthAdjust="spacing" textLength="39" x="628" y="77.7617">SPA</text><rect fill="#E2E2F0" height="64.3125" rx="2.5" ry="2.5" style="stroke:#181818;stroke-width:0.5;" width="167" x="564" y="500.875"/><text fill="#000000" font-family="sans-serif" font-size="20" font-style="italic" lengthAdjust="spacing" textLength="153" x="571" y="528.6367">«Container (C4)»</text><text fill="#000000" font-family="sans-serif" font-size="20" lengthAdjust="spacing" textLength="39" x="628" y="553.793">SPA</text><rect fill="#E2E2F0" height="64.3125" rx="2.5" ry="2.5" style="stroke:#181818;stroke-width:0.5;" width="167" x="956" y="24.8438"/><text fill="#000000" font-family="sans-serif" font-size="20" font-style="italic" lengthAdjust="spacing" textLength="153" x="963" y="52.6055">«Container (C4)»</text><text fill="#000000" font-family="sans-serif" font-size="20" lengthAdjust="spacing" textLength="80" x="999.5" y="77.7617">MPT API</text><rect fill="#E2E2F0" height="64.3125" rx="2.5" ry="2.5" style="stroke:#181818;stroke-width:0.5;" width="167" x="956" y="500.875"/><text fill="#000000" font-family="sans-serif" font-size="20" font-style="italic" lengthAdjust="spacing" textLength="153" x="963" y="528.6367">«Container (C4)»</text><text fill="#000000" font-family="sans-serif" font-size="20" lengthAdjust="spacing" textLength="80" x="999.5" y="553.793">MPT API</text><polygon fill="#181818" points="635.5,127.3125,645.5,131.3125,635.5,135.3125,639.5,131.3125" style="stroke:#181818;stroke-width:1.0;"/><line style="stroke:#181818;stroke-width:1.0;" x1="101.5" x2="641.5" y1="131.3125" y2="131.3125"/><text fill="#000000" font-family="sans-serif" font-size="20" lengthAdjust="spacing" textLength="522" x="108.5" y="124.918">requisita uma sequência de execução de tarefas aprovadas</text><polygon fill="#181818" points="112.5,166.4688,102.5,170.4688,112.5,174.4688,108.5,170.4688" style="stroke:#181818;stroke-width:1.0;"/><line style="stroke:#181818;stroke-width:1.0;stroke-dasharray:2.0,2.0;" x1="106.5" x2="646.5" y1="170.4688" y2="170.4688"/><text fill="#000000" font-family="sans-serif" font-size="20" lengthAdjust="spacing" textLength="305" x="118.5" y="164.0742">requisita o tipo de algoritmo a usar</text><polygon fill="#181818" points="635.5,205.625,645.5,209.625,635.5,213.625,639.5,209.625" style="stroke:#181818;stroke-width:1.0;"/><line style="stroke:#181818;stroke-width:1.0;" x1="101.5" x2="641.5" y1="209.625" y2="209.625"/><text fill="#000000" font-family="sans-serif" font-size="20" lengthAdjust="spacing" textLength="296" x="108.5" y="203.2305">informa o tipo de algoritmo a usar</text><polygon fill="#181818" points="1027.5,244.7813,1037.5,248.7813,1027.5,252.7813,1031.5,248.7813" style="stroke:#181818;stroke-width:1.0;"/><line style="stroke:#181818;stroke-width:1.0;" x1="647.5" x2="1033.5" y1="248.7813" y2="248.7813"/><text fill="#000000" font-family="sans-serif" font-size="20" lengthAdjust="spacing" textLength="193" x="654.5" y="242.3867">POST(/api/plannings/)</text><path d="M10,263.7813 L78,263.7813 L78,280.9375 L68,290.9375 L10,290.9375 L10,263.7813 " fill="#EEEEEE" style="stroke:#000000;stroke-width:1.5;"/><rect fill="none" height="221.0938" style="stroke:#000000;stroke-width:1.5;" width="1123" x="10" y="263.7813"/><text fill="#000000" font-family="sans-serif" font-size="20" font-weight="bold" lengthAdjust="spacing" textLength="23" x="25" y="285.543">alt</text><text fill="#000000" font-family="sans-serif" font-size="20" font-weight="bold" lengthAdjust="spacing" textLength="93" x="93" y="286.543">[sucesso]</text><polygon fill="#181818" points="658.5,328.25,648.5,332.25,658.5,336.25,654.5,332.25" style="stroke:#181818;stroke-width:1.0;"/><line style="stroke:#181818;stroke-width:1.0;stroke-dasharray:2.0,2.0;" x1="652.5" x2="1038.5" y1="332.25" y2="332.25"/><text fill="#000000" font-family="sans-serif" font-size="20" lengthAdjust="spacing" textLength="368" x="664.5" y="325.8555">retorna a sequencia de tarefas a executar</text><polygon fill="#181818" points="112.5,367.4063,102.5,371.4063,112.5,375.4063,108.5,371.4063" style="stroke:#181818;stroke-width:1.0;"/><line style="stroke:#181818;stroke-width:1.0;stroke-dasharray:2.0,2.0;" x1="106.5" x2="646.5" y1="371.4063" y2="371.4063"/><text fill="#000000" font-family="sans-serif" font-size="20" lengthAdjust="spacing" textLength="368" x="118.5" y="365.0117">retorna a sequencia de tarefas a executar</text><line style="stroke:#000000;stroke-width:1.0;stroke-dasharray:2.0,2.0;" x1="10" x2="1133" y1="380.4063" y2="380.4063"/><text fill="#000000" font-family="sans-serif" font-size="20" font-weight="bold" lengthAdjust="spacing" textLength="60" x="15" y="401.168">[falha]</text><polygon fill="#181818" points="658.5,433.7188,648.5,437.7188,658.5,441.7188,654.5,437.7188" style="stroke:#181818;stroke-width:1.0;"/><line style="stroke:#181818;stroke-width:1.0;stroke-dasharray:2.0,2.0;" x1="652.5" x2="1038.5" y1="437.7188" y2="437.7188"/><text fill="#000000" font-family="sans-serif" font-size="20" lengthAdjust="spacing" textLength="238" x="664.5" y="431.3242">devolve mensagem de erro</text><polygon fill="#181818" points="112.5,472.875,102.5,476.875,112.5,480.875,108.5,476.875" style="stroke:#181818;stroke-width:1.0;"/><line style="stroke:#181818;stroke-width:1.0;stroke-dasharray:2.0,2.0;" x1="106.5" x2="646.5" y1="476.875" y2="476.875"/><text fill="#000000" font-family="sans-serif" font-size="20" lengthAdjust="spacing" textLength="238" x="118.5" y="470.4805">devolve mensagem de erro</text><!--SRC=[ZP51QiCm44NtEiMGLR88AQMh40mXq995gS6vm21Dt26ov6faKtgTBWgzHYvMsQ6DM-8IRIIXcVV_7yc1NOq1A-lrWGmOscDZuxrtiU0tWjiRfL177s3oGDBjXY1YI6Ko0HHOTuyg8I9hhj55c1Jvkd_Q90Yoem2hrVaytTpDikntnsE-WtM-FG7pxQLwrGl1F3jZbn3efM7XYD1K299knq-d6JkJz4gwENuSt_t0Cc0TV8i6HPqLvWdQquT03v7hlXLjwGF7oaEI4GmNdR3R-r3zspPKpBgOIyYVYjrqWJKlQelEiIjbCLDfuZQ2D9f4l8AqkfdC_qPF9Xp2AJPzf_x9USgVhZrW9Eor2B92i4VxZ6Ds3BNUjWGLES6Iglu7Gl3ZwgCTv8pw0W00]--></g></svg>