<?xml version="1.0" encoding="UTF-8" standalone="no"?><svg xmlns="http://www.w3.org/2000/svg" xmlns:xlink="http://www.w3.org/1999/xlink" contentStyleType="text/css" height="591px" preserveAspectRatio="none" style="width:822px;height:591px;background:#FFFFFF;" version="1.1" viewBox="0 0 822 591" width="822px" zoomAndPan="magnify"><defs/><g><rect fill="none" height="221.0938" style="stroke:#000000;stroke-width:1.5;" width="805" x="10" y="263.7813"/><line style="stroke:#181818;stroke-width:0.5;stroke-dasharray:5.0,5.0;" x1="51" x2="51" y1="90.1563" y2="501.875"/><line style="stroke:#181818;stroke-width:0.5;stroke-dasharray:5.0,5.0;" x1="426" x2="426" y1="90.1563" y2="501.875"/><line style="stroke:#181818;stroke-width:0.5;stroke-dasharray:5.0,5.0;" x1="721" x2="721" y1="90.1563" y2="501.875"/><text fill="#000000" font-family="sans-serif" font-size="20" lengthAdjust="spacing" textLength="57" x="20" y="85.7617">Utente</text><ellipse cx="51.5" cy="13.5" fill="#E2E2F0" rx="8" ry="8" style="stroke:#181818;stroke-width:0.5;"/><path d="M51.5,21.5 L51.5,48.5 M38.5,29.5 L64.5,29.5 M51.5,48.5 L38.5,63.5 M51.5,48.5 L64.5,63.5 " fill="none" style="stroke:#181818;stroke-width:0.5;"/><text fill="#000000" font-family="sans-serif" font-size="20" lengthAdjust="spacing" textLength="57" x="20" y="521.6367">Utente</text><ellipse cx="51.5" cy="534.5313" fill="#E2E2F0" rx="8" ry="8" style="stroke:#181818;stroke-width:0.5;"/><path d="M51.5,542.5313 L51.5,569.5313 M38.5,550.5313 L64.5,550.5313 M51.5,569.5313 L38.5,584.5313 M51.5,569.5313 L64.5,584.5313 " fill="none" style="stroke:#181818;stroke-width:0.5;"/><rect fill="#E2E2F0" height="64.3125" rx="2.5" ry="2.5" style="stroke:#181818;stroke-width:0.5;" width="167" x="343" y="24.8438"/><text fill="#000000" font-family="sans-serif" font-size="20" font-style="italic" lengthAdjust="spacing" textLength="153" x="350" y="52.6055">«Container (C4)»</text><text fill="#000000" font-family="sans-serif" font-size="20" lengthAdjust="spacing" textLength="39" x="407" y="77.7617">SPA</text><rect fill="#E2E2F0" height="64.3125" rx="2.5" ry="2.5" style="stroke:#181818;stroke-width:0.5;" width="167" x="343" y="500.875"/><text fill="#000000" font-family="sans-serif" font-size="20" font-style="italic" lengthAdjust="spacing" textLength="153" x="350" y="528.6367">«Container (C4)»</text><text fill="#000000" font-family="sans-serif" font-size="20" lengthAdjust="spacing" textLength="39" x="407" y="553.793">SPA</text><rect fill="#E2E2F0" height="64.3125" rx="2.5" ry="2.5" style="stroke:#181818;stroke-width:0.5;" width="167" x="638" y="24.8438"/><text fill="#000000" font-family="sans-serif" font-size="20" font-style="italic" lengthAdjust="spacing" textLength="153" x="645" y="52.6055">«Container (C4)»</text><text fill="#000000" font-family="sans-serif" font-size="20" lengthAdjust="spacing" textLength="80" x="681.5" y="77.7617">MPT API</text><rect fill="#E2E2F0" height="64.3125" rx="2.5" ry="2.5" style="stroke:#181818;stroke-width:0.5;" width="167" x="638" y="500.875"/><text fill="#000000" font-family="sans-serif" font-size="20" font-style="italic" lengthAdjust="spacing" textLength="153" x="645" y="528.6367">«Container (C4)»</text><text fill="#000000" font-family="sans-serif" font-size="20" lengthAdjust="spacing" textLength="80" x="681.5" y="553.793">MPT API</text><polygon fill="#181818" points="414.5,127.3125,424.5,131.3125,414.5,135.3125,418.5,131.3125" style="stroke:#181818;stroke-width:1.0;"/><line style="stroke:#181818;stroke-width:1.0;" x1="51.5" x2="420.5" y1="131.3125" y2="131.3125"/><text fill="#000000" font-family="sans-serif" font-size="20" lengthAdjust="spacing" textLength="351" x="58.5" y="124.918">requisita a criação de um novo utilizador</text><polygon fill="#181818" points="62.5,166.4688,52.5,170.4688,62.5,174.4688,58.5,170.4688" style="stroke:#181818;stroke-width:1.0;"/><line style="stroke:#181818;stroke-width:1.0;stroke-dasharray:2.0,2.0;" x1="56.5" x2="425.5" y1="170.4688" y2="170.4688"/><text fill="#000000" font-family="sans-serif" font-size="20" lengthAdjust="spacing" textLength="272" x="68.5" y="164.0742">requisita os dados do utilizador</text><polygon fill="#181818" points="414.5,205.625,424.5,209.625,414.5,213.625,418.5,209.625" style="stroke:#181818;stroke-width:1.0;"/><line style="stroke:#181818;stroke-width:1.0;" x1="51.5" x2="420.5" y1="209.625" y2="209.625"/><text fill="#000000" font-family="sans-serif" font-size="20" lengthAdjust="spacing" textLength="243" x="58.5" y="203.2305">envia os dados do utilizador</text><polygon fill="#181818" points="709.5,244.7813,719.5,248.7813,709.5,252.7813,713.5,248.7813" style="stroke:#181818;stroke-width:1.0;"/><line style="stroke:#181818;stroke-width:1.0;" x1="426.5" x2="715.5" y1="248.7813" y2="248.7813"/><text fill="#000000" font-family="sans-serif" font-size="20" lengthAdjust="spacing" textLength="160" x="433.5" y="242.3867">POST(/api/users/)</text><path d="M10,263.7813 L78,263.7813 L78,280.9375 L68,290.9375 L10,290.9375 L10,263.7813 " fill="#EEEEEE" style="stroke:#000000;stroke-width:1.5;"/><rect fill="none" height="221.0938" style="stroke:#000000;stroke-width:1.5;" width="805" x="10" y="263.7813"/><text fill="#000000" font-family="sans-serif" font-size="20" font-weight="bold" lengthAdjust="spacing" textLength="23" x="25" y="285.543">alt</text><text fill="#000000" font-family="sans-serif" font-size="20" font-weight="bold" lengthAdjust="spacing" textLength="93" x="93" y="286.543">[sucesso]</text><polygon fill="#181818" points="437.5,328.25,427.5,332.25,437.5,336.25,433.5,332.25" style="stroke:#181818;stroke-width:1.0;"/><line style="stroke:#181818;stroke-width:1.0;stroke-dasharray:2.0,2.0;" x1="431.5" x2="720.5" y1="332.25" y2="332.25"/><text fill="#000000" font-family="sans-serif" font-size="20" lengthAdjust="spacing" textLength="271" x="443.5" y="325.8555">retorna mensagem de sucesso</text><polygon fill="#181818" points="62.5,367.4063,52.5,371.4063,62.5,375.4063,58.5,371.4063" style="stroke:#181818;stroke-width:1.0;"/><line style="stroke:#181818;stroke-width:1.0;stroke-dasharray:2.0,2.0;" x1="56.5" x2="425.5" y1="371.4063" y2="371.4063"/><text fill="#000000" font-family="sans-serif" font-size="20" lengthAdjust="spacing" textLength="271" x="68.5" y="365.0117">retorna mensagem de sucesso</text><line style="stroke:#000000;stroke-width:1.0;stroke-dasharray:2.0,2.0;" x1="10" x2="815" y1="380.4063" y2="380.4063"/><text fill="#000000" font-family="sans-serif" font-size="20" font-weight="bold" lengthAdjust="spacing" textLength="60" x="15" y="401.168">[falha]</text><polygon fill="#181818" points="437.5,433.7188,427.5,437.7188,437.5,441.7188,433.5,437.7188" style="stroke:#181818;stroke-width:1.0;"/><line style="stroke:#181818;stroke-width:1.0;stroke-dasharray:2.0,2.0;" x1="431.5" x2="720.5" y1="437.7188" y2="437.7188"/><text fill="#000000" font-family="sans-serif" font-size="20" lengthAdjust="spacing" textLength="235" x="443.5" y="431.3242">retorna mensagem de erro</text><polygon fill="#181818" points="62.5,472.875,52.5,476.875,62.5,480.875,58.5,476.875" style="stroke:#181818;stroke-width:1.0;"/><line style="stroke:#181818;stroke-width:1.0;stroke-dasharray:2.0,2.0;" x1="56.5" x2="425.5" y1="476.875" y2="476.875"/><text fill="#000000" font-family="sans-serif" font-size="20" lengthAdjust="spacing" textLength="238" x="68.5" y="470.4805">devolve mensagem de erro</text><!--SRC=[bP1DQiCm48NtEiNWLR8mBgMh40mcKCYYLE3q08CrQOV8agiVBtATBdgGNAookx3JneLgCGXfllVcZJ-nwT1Xgsrp8WMAZXXrUBGcr7mckByJ0fjW7MGlWKoW3D13DRo8n0Lkk4CJ8AjbDNxj4ebioC5sEzrNkuTrMLuJJ_80bTn_2yhzhNun6a5UJh8RSFGUsND0G6WSu-Npyc7Ju11RCBQt40DhFgDA8qwAUH8PrUO2reDAVQbUKRTSoVIy2CnzoY7C1kHpVLWLs74HFJbVhDCUTG0V6_BU2aXd29t_p9QS3K9BnkChjKEiERAGPnaYxGcEgD_mFvRat1z-YdghU_fDa57Y2m00]--></g></svg>