<?xml version="1.0" encoding="UTF-8" standalone="no"?><svg xmlns="http://www.w3.org/2000/svg" xmlns:xlink="http://www.w3.org/1999/xlink" contentStyleType="text/css" height="526px" preserveAspectRatio="none" style="width:614px;height:526px;background:#FFFFFF;" version="1.1" viewBox="0 0 614 526" width="614px" zoomAndPan="magnify"><defs/><g><rect fill="none" height="142.7813" style="stroke:#000000;stroke-width:1.5;" width="524.5" x="10" y="276.7813"/><line style="stroke:#181818;stroke-width:0.5;stroke-dasharray:5.0,5.0;" x1="46" x2="46" y1="90.1563" y2="436.5625"/><line style="stroke:#181818;stroke-width:0.5;stroke-dasharray:5.0,5.0;" x1="405.5" x2="405.5" y1="90.1563" y2="436.5625"/><text fill="#000000" font-family="sans-serif" font-size="20" lengthAdjust="spacing" textLength="47" x="20" y="85.7617">Actor</text><ellipse cx="46.5" cy="13.5" fill="#E2E2F0" rx="8" ry="8" style="stroke:#181818;stroke-width:0.5;"/><path d="M46.5,21.5 L46.5,48.5 M33.5,29.5 L59.5,29.5 M46.5,48.5 L33.5,63.5 M46.5,48.5 L59.5,63.5 " fill="none" style="stroke:#181818;stroke-width:0.5;"/><text fill="#000000" font-family="sans-serif" font-size="20" lengthAdjust="spacing" textLength="47" x="20" y="456.3242">Actor</text><ellipse cx="46.5" cy="469.2188" fill="#E2E2F0" rx="8" ry="8" style="stroke:#181818;stroke-width:0.5;"/><path d="M46.5,477.2188 L46.5,504.2188 M33.5,485.2188 L59.5,485.2188 M46.5,504.2188 L33.5,519.2188 M46.5,504.2188 L59.5,519.2188 " fill="none" style="stroke:#181818;stroke-width:0.5;"/><rect fill="#E2E2F0" height="64.3125" rx="2.5" ry="2.5" style="stroke:#181818;stroke-width:0.5;" width="238" x="286.5" y="24.8438"/><text fill="#000000" font-family="sans-serif" font-size="20" font-style="italic" lengthAdjust="spacing" textLength="153" x="329" y="52.6055">«Container (C4)»</text><text fill="#000000" font-family="sans-serif" font-size="20" lengthAdjust="spacing" textLength="224" x="293.5" y="77.7617">robDroneGo:robDroneGo</text><rect fill="#E2E2F0" height="64.3125" rx="2.5" ry="2.5" style="stroke:#181818;stroke-width:0.5;" width="238" x="286.5" y="435.5625"/><text fill="#000000" font-family="sans-serif" font-size="20" font-style="italic" lengthAdjust="spacing" textLength="153" x="329" y="463.3242">«Container (C4)»</text><text fill="#000000" font-family="sans-serif" font-size="20" lengthAdjust="spacing" textLength="224" x="293.5" y="488.4805">robDroneGo:robDroneGo</text><polygon fill="#181818" points="393.5,127.3125,403.5,131.3125,393.5,135.3125,397.5,131.3125" style="stroke:#181818;stroke-width:1.0;"/><line style="stroke:#181818;stroke-width:1.0;" x1="46.5" x2="399.5" y1="131.3125" y2="131.3125"/><text fill="#000000" font-family="sans-serif" font-size="20" lengthAdjust="spacing" textLength="202" x="53.5" y="124.918">Criar novo tipo de robo</text><polygon fill="#181818" points="57.5,166.4688,47.5,170.4688,57.5,174.4688,53.5,170.4688" style="stroke:#181818;stroke-width:1.0;"/><line style="stroke:#181818;stroke-width:1.0;stroke-dasharray:2.0,2.0;" x1="51.5" x2="404.5" y1="170.4688" y2="170.4688"/><text fill="#000000" font-family="sans-serif" font-size="20" lengthAdjust="spacing" textLength="335" x="63.5" y="164.0742">Requesita dados do novo tipo de robo</text><polygon fill="#181818" points="393.5,205.625,403.5,209.625,393.5,213.625,397.5,209.625" style="stroke:#181818;stroke-width:1.0;"/><line style="stroke:#181818;stroke-width:1.0;" x1="46.5" x2="399.5" y1="209.625" y2="209.625"/><text fill="#000000" font-family="sans-serif" font-size="20" lengthAdjust="spacing" textLength="294" x="53.5" y="203.2305">Envia dados do novo tipo de robo</text><line style="stroke:#181818;stroke-width:1.0;" x1="405.5" x2="447.5" y1="248.7813" y2="248.7813"/><line style="stroke:#181818;stroke-width:1.0;" x1="447.5" x2="447.5" y1="248.7813" y2="261.7813"/><line style="stroke:#181818;stroke-width:1.0;" x1="406.5" x2="447.5" y1="261.7813" y2="261.7813"/><polygon fill="#181818" points="416.5,257.7813,406.5,261.7813,416.5,265.7813,412.5,261.7813" style="stroke:#181818;stroke-width:1.0;"/><text fill="#000000" font-family="sans-serif" font-size="20" lengthAdjust="spacing" textLength="195" x="412.5" y="242.3867">Cria novo tipo de robo</text><path d="M10,276.7813 L78,276.7813 L78,293.9375 L68,303.9375 L10,303.9375 L10,276.7813 " fill="#EEEEEE" style="stroke:#000000;stroke-width:1.5;"/><rect fill="none" height="142.7813" style="stroke:#000000;stroke-width:1.5;" width="524.5" x="10" y="276.7813"/><text fill="#000000" font-family="sans-serif" font-size="20" font-weight="bold" lengthAdjust="spacing" textLength="23" x="25" y="298.543">alt</text><text fill="#000000" font-family="sans-serif" font-size="20" font-weight="bold" lengthAdjust="spacing" textLength="197" x="93" y="299.543">[sucesso na criação]</text><polygon fill="#181818" points="57.5,341.25,47.5,345.25,57.5,349.25,53.5,345.25" style="stroke:#181818;stroke-width:1.0;"/><line style="stroke:#181818;stroke-width:1.0;stroke-dasharray:2.0,2.0;" x1="51.5" x2="404.5" y1="345.25" y2="345.25"/><text fill="#000000" font-family="sans-serif" font-size="20" lengthAdjust="spacing" textLength="245" x="63.5" y="338.8555">Retorna sucesso na criação</text><line style="stroke:#000000;stroke-width:1.0;stroke-dasharray:2.0,2.0;" x1="10" x2="534.5" y1="354.25" y2="354.25"/><text fill="#000000" font-family="sans-serif" font-size="20" font-weight="bold" lengthAdjust="spacing" textLength="164" x="15" y="375.0117">[falha na criação]</text><polygon fill="#181818" points="57.5,407.5625,47.5,411.5625,57.5,415.5625,53.5,411.5625" style="stroke:#181818;stroke-width:1.0;"/><line style="stroke:#181818;stroke-width:1.0;stroke-dasharray:2.0,2.0;" x1="51.5" x2="404.5" y1="411.5625" y2="411.5625"/><text fill="#000000" font-family="sans-serif" font-size="20" lengthAdjust="spacing" textLength="215" x="63.5" y="405.168">Retorna falha na criação</text><!--SRC=[bOunRiCm34LtdOBmr0m6WgAJ4HWedBHxUm96eb72YkX8ieTUfqCFaek5IGONg5eW6gW__FV_JmE74ICUlDY173ZgSVBvHK9-vq-2nxKnQBD4UBvUJ3TX5CfiUSIGeOgotqO9z2hD8gkBkTCWv40HDfj5FtHFgxOrvfPPjukjWIuoHWWo2sGUHHU1PefPw5g1Azd06nqdIfmH73f9uAH05cjsOUP_gHzzl_QLIj1dI9Ebb3GDmQhjz7tw4WFw_XYldrgB5Fb4qAF_m3lJ2Wm5Pyu0]--></g></svg>