<?xml version="1.0" encoding="UTF-8" standalone="no"?><svg xmlns="http://www.w3.org/2000/svg" xmlns:xlink="http://www.w3.org/1999/xlink" contentStyleType="text/css" height="578px" preserveAspectRatio="none" style="width:562px;height:578px;background:#FFFFFF;" version="1.1" viewBox="0 0 562 578" width="562px" zoomAndPan="magnify"><defs/><g><rect fill="none" height="142.7813" style="stroke:#000000;stroke-width:1.5;" width="478.5" x="10" y="328.9375"/><line style="stroke:#181818;stroke-width:0.5;stroke-dasharray:5.0,5.0;" x1="46" x2="46" y1="90.1563" y2="488.7188"/><line style="stroke:#181818;stroke-width:0.5;stroke-dasharray:5.0,5.0;" x1="359.5" x2="359.5" y1="90.1563" y2="488.7188"/><text fill="#000000" font-family="sans-serif" font-size="20" lengthAdjust="spacing" textLength="47" x="20" y="85.7617">Actor</text><ellipse cx="46.5" cy="13.5" fill="#E2E2F0" rx="8" ry="8" style="stroke:#181818;stroke-width:0.5;"/><path d="M46.5,21.5 L46.5,48.5 M33.5,29.5 L59.5,29.5 M46.5,48.5 L33.5,63.5 M46.5,48.5 L59.5,63.5 " fill="none" style="stroke:#181818;stroke-width:0.5;"/><text fill="#000000" font-family="sans-serif" font-size="20" lengthAdjust="spacing" textLength="47" x="20" y="508.4805">Actor</text><ellipse cx="46.5" cy="521.375" fill="#E2E2F0" rx="8" ry="8" style="stroke:#181818;stroke-width:0.5;"/><path d="M46.5,529.375 L46.5,556.375 M33.5,537.375 L59.5,537.375 M46.5,556.375 L33.5,571.375 M46.5,556.375 L59.5,571.375 " fill="none" style="stroke:#181818;stroke-width:0.5;"/><rect fill="#E2E2F0" height="64.3125" rx="2.5" ry="2.5" style="stroke:#181818;stroke-width:0.5;" width="238" x="240.5" y="24.8438"/><text fill="#000000" font-family="sans-serif" font-size="20" font-style="italic" lengthAdjust="spacing" textLength="153" x="283" y="52.6055">«Container (C4)»</text><text fill="#000000" font-family="sans-serif" font-size="20" lengthAdjust="spacing" textLength="224" x="247.5" y="77.7617">robDroneGo:robDroneGo</text><rect fill="#E2E2F0" height="64.3125" rx="2.5" ry="2.5" style="stroke:#181818;stroke-width:0.5;" width="238" x="240.5" y="487.7188"/><text fill="#000000" font-family="sans-serif" font-size="20" font-style="italic" lengthAdjust="spacing" textLength="153" x="283" y="515.4805">«Container (C4)»</text><text fill="#000000" font-family="sans-serif" font-size="20" lengthAdjust="spacing" textLength="224" x="247.5" y="540.6367">robDroneGo:robDroneGo</text><polygon fill="#181818" points="347.5,127.3125,357.5,131.3125,347.5,135.3125,351.5,131.3125" style="stroke:#181818;stroke-width:1.0;"/><line style="stroke:#181818;stroke-width:1.0;" x1="46.5" x2="353.5" y1="131.3125" y2="131.3125"/><text fill="#000000" font-family="sans-serif" font-size="20" lengthAdjust="spacing" textLength="252" x="53.5" y="124.918">Criar sala de piso de edifício</text><polygon fill="#181818" points="57.5,166.4688,47.5,170.4688,57.5,174.4688,53.5,170.4688" style="stroke:#181818;stroke-width:1.0;"/><line style="stroke:#181818;stroke-width:1.0;stroke-dasharray:2.0,2.0;" x1="51.5" x2="358.5" y1="170.4688" y2="170.4688"/><text fill="#000000" font-family="sans-serif" font-size="20" lengthAdjust="spacing" textLength="289" x="63.5" y="164.0742">Requisita informação para a sala</text><polygon fill="#181818" points="347.5,205.625,357.5,209.625,347.5,213.625,351.5,209.625" style="stroke:#181818;stroke-width:1.0;"/><line style="stroke:#181818;stroke-width:1.0;" x1="46.5" x2="353.5" y1="209.625" y2="209.625"/><text fill="#000000" font-family="sans-serif" font-size="20" lengthAdjust="spacing" textLength="177" x="53.5" y="203.2305">Envia dados da sala</text><line style="stroke:#181818;stroke-width:1.0;" x1="359.5" x2="401.5" y1="248.7813" y2="248.7813"/><line style="stroke:#181818;stroke-width:1.0;" x1="401.5" x2="401.5" y1="248.7813" y2="261.7813"/><line style="stroke:#181818;stroke-width:1.0;" x1="360.5" x2="401.5" y1="261.7813" y2="261.7813"/><polygon fill="#181818" points="370.5,257.7813,360.5,261.7813,370.5,265.7813,366.5,261.7813" style="stroke:#181818;stroke-width:1.0;"/><text fill="#000000" font-family="sans-serif" font-size="20" lengthAdjust="spacing" textLength="189" x="366.5" y="242.3867">Valida o piso e a sala</text><line style="stroke:#181818;stroke-width:1.0;stroke-dasharray:2.0,2.0;" x1="359.5" x2="401.5" y1="300.9375" y2="300.9375"/><line style="stroke:#181818;stroke-width:1.0;stroke-dasharray:2.0,2.0;" x1="401.5" x2="401.5" y1="300.9375" y2="313.9375"/><line style="stroke:#181818;stroke-width:1.0;stroke-dasharray:2.0,2.0;" x1="360.5" x2="401.5" y1="313.9375" y2="313.9375"/><polygon fill="#181818" points="370.5,309.9375,360.5,313.9375,370.5,317.9375,366.5,313.9375" style="stroke:#181818;stroke-width:1.0;"/><text fill="#000000" font-family="sans-serif" font-size="20" lengthAdjust="spacing" textLength="95" x="366.5" y="294.543">Cria a sala</text><path d="M10,328.9375 L78,328.9375 L78,346.0938 L68,356.0938 L10,356.0938 L10,328.9375 " fill="#EEEEEE" style="stroke:#000000;stroke-width:1.5;"/><rect fill="none" height="142.7813" style="stroke:#000000;stroke-width:1.5;" width="478.5" x="10" y="328.9375"/><text fill="#000000" font-family="sans-serif" font-size="20" font-weight="bold" lengthAdjust="spacing" textLength="23" x="25" y="350.6992">alt</text><text fill="#000000" font-family="sans-serif" font-size="20" font-weight="bold" lengthAdjust="spacing" textLength="197" x="93" y="351.6992">[sucesso na criação]</text><polygon fill="#181818" points="57.5,393.4063,47.5,397.4063,57.5,401.4063,53.5,397.4063" style="stroke:#181818;stroke-width:1.0;"/><line style="stroke:#181818;stroke-width:1.0;stroke-dasharray:2.0,2.0;" x1="51.5" x2="358.5" y1="397.4063" y2="397.4063"/><text fill="#000000" font-family="sans-serif" font-size="20" lengthAdjust="spacing" textLength="243" x="63.5" y="391.0117">Retorna informação da sala</text><line style="stroke:#000000;stroke-width:1.0;stroke-dasharray:2.0,2.0;" x1="10" x2="488.5" y1="406.4063" y2="406.4063"/><text fill="#000000" font-family="sans-serif" font-size="20" font-weight="bold" lengthAdjust="spacing" textLength="164" x="15" y="427.168">[falha na criação]</text><polygon fill="#181818" points="57.5,459.7188,47.5,463.7188,57.5,467.7188,53.5,463.7188" style="stroke:#181818;stroke-width:1.0;"/><line style="stroke:#181818;stroke-width:1.0;stroke-dasharray:2.0,2.0;" x1="51.5" x2="358.5" y1="463.7188" y2="463.7188"/><text fill="#000000" font-family="sans-serif" font-size="20" lengthAdjust="spacing" textLength="112" x="63.5" y="457.3242">Retorna erro</text><!--SRC=[bOyzJiH038LxdyBQ2egL4AAALf5GMEX1eZSpZh1sTXnc9XHSXuAAK-HYE0aGVfQ2AMnBy_dvlRoJs56YVL2tOu-UM-f3kTHORkI9yVG4W5pHXETJfJmFO4j5d7GK2wwItbqaZNobrJAkHhWn8PB82JURPJvgpexh6c3MNDSBLc6JX19c2cHci9EiOsSlxV3gH04McRLjJX8LNlD3BraAeSHMqvw6b-5PSOo6DAaTlhQDZsA7o6ks-Wv-kV0DlgKW1kdiYl40_plB9qMXOEuTPzkDXCx-9fE0zlu8PIt-YFJXaaDcR2dSqp_LE2K5ZXxU0000]--></g></svg>