<?xml version="1.0" encoding="UTF-8" standalone="no"?><svg xmlns="http://www.w3.org/2000/svg" xmlns:xlink="http://www.w3.org/1999/xlink" contentStyleType="text/css" height="578px" preserveAspectRatio="none" style="width:682px;height:578px;background:#FFFFFF;" version="1.1" viewBox="0 0 682 578" width="682px" zoomAndPan="magnify"><defs/><g><rect fill="none" height="142.7813" style="stroke:#000000;stroke-width:1.5;" width="540.5" x="10" y="328.9375"/><line style="stroke:#181818;stroke-width:0.5;stroke-dasharray:5.0,5.0;" x1="46" x2="46" y1="90.1563" y2="488.7188"/><line style="stroke:#181818;stroke-width:0.5;stroke-dasharray:5.0,5.0;" x1="421.5" x2="421.5" y1="90.1563" y2="488.7188"/><text fill="#000000" font-family="sans-serif" font-size="20" lengthAdjust="spacing" textLength="47" x="20" y="85.7617">Actor</text><ellipse cx="46.5" cy="13.5" fill="#E2E2F0" rx="8" ry="8" style="stroke:#181818;stroke-width:0.5;"/><path d="M46.5,21.5 L46.5,48.5 M33.5,29.5 L59.5,29.5 M46.5,48.5 L33.5,63.5 M46.5,48.5 L59.5,63.5 " fill="none" style="stroke:#181818;stroke-width:0.5;"/><text fill="#000000" font-family="sans-serif" font-size="20" lengthAdjust="spacing" textLength="47" x="20" y="508.4805">Actor</text><ellipse cx="46.5" cy="521.375" fill="#E2E2F0" rx="8" ry="8" style="stroke:#181818;stroke-width:0.5;"/><path d="M46.5,529.375 L46.5,556.375 M33.5,537.375 L59.5,537.375 M46.5,556.375 L33.5,571.375 M46.5,556.375 L59.5,571.375 " fill="none" style="stroke:#181818;stroke-width:0.5;"/><rect fill="#E2E2F0" height="64.3125" rx="2.5" ry="2.5" style="stroke:#181818;stroke-width:0.5;" width="238" x="302.5" y="24.8438"/><text fill="#000000" font-family="sans-serif" font-size="20" font-style="italic" lengthAdjust="spacing" textLength="153" x="345" y="52.6055">«Container (C4)»</text><text fill="#000000" font-family="sans-serif" font-size="20" lengthAdjust="spacing" textLength="224" x="309.5" y="77.7617">robDroneGo:robDroneGo</text><rect fill="#E2E2F0" height="64.3125" rx="2.5" ry="2.5" style="stroke:#181818;stroke-width:0.5;" width="238" x="302.5" y="487.7188"/><text fill="#000000" font-family="sans-serif" font-size="20" font-style="italic" lengthAdjust="spacing" textLength="153" x="345" y="515.4805">«Container (C4)»</text><text fill="#000000" font-family="sans-serif" font-size="20" lengthAdjust="spacing" textLength="224" x="309.5" y="540.6367">robDroneGo:robDroneGo</text><polygon fill="#181818" points="409.5,127.3125,419.5,131.3125,409.5,135.3125,413.5,131.3125" style="stroke:#181818;stroke-width:1.0;"/><line style="stroke:#181818;stroke-width:1.0;" x1="46.5" x2="415.5" y1="131.3125" y2="131.3125"/><text fill="#000000" font-family="sans-serif" font-size="20" lengthAdjust="spacing" textLength="270" x="53.5" y="124.918">Criar passagem entre edifícios</text><polygon fill="#181818" points="57.5,166.4688,47.5,170.4688,57.5,174.4688,53.5,170.4688" style="stroke:#181818;stroke-width:1.0;"/><line style="stroke:#181818;stroke-width:1.0;stroke-dasharray:2.0,2.0;" x1="51.5" x2="420.5" y1="170.4688" y2="170.4688"/><text fill="#000000" font-family="sans-serif" font-size="20" lengthAdjust="spacing" textLength="351" x="63.5" y="164.0742">Requesita informação para a passagem</text><polygon fill="#181818" points="409.5,205.625,419.5,209.625,409.5,213.625,413.5,209.625" style="stroke:#181818;stroke-width:1.0;"/><line style="stroke:#181818;stroke-width:1.0;" x1="46.5" x2="415.5" y1="209.625" y2="209.625"/><text fill="#000000" font-family="sans-serif" font-size="20" lengthAdjust="spacing" textLength="232" x="53.5" y="203.2305">Envia dados da passagem</text><line style="stroke:#181818;stroke-width:1.0;" x1="421.5" x2="463.5" y1="248.7813" y2="248.7813"/><line style="stroke:#181818;stroke-width:1.0;" x1="463.5" x2="463.5" y1="248.7813" y2="261.7813"/><line style="stroke:#181818;stroke-width:1.0;" x1="422.5" x2="463.5" y1="261.7813" y2="261.7813"/><polygon fill="#181818" points="432.5,257.7813,422.5,261.7813,432.5,265.7813,428.5,261.7813" style="stroke:#181818;stroke-width:1.0;"/><text fill="#000000" font-family="sans-serif" font-size="20" lengthAdjust="spacing" textLength="247" x="428.5" y="242.3867">Valida edifícios e passagem</text><line style="stroke:#181818;stroke-width:1.0;stroke-dasharray:2.0,2.0;" x1="421.5" x2="463.5" y1="300.9375" y2="300.9375"/><line style="stroke:#181818;stroke-width:1.0;stroke-dasharray:2.0,2.0;" x1="463.5" x2="463.5" y1="300.9375" y2="313.9375"/><line style="stroke:#181818;stroke-width:1.0;stroke-dasharray:2.0,2.0;" x1="422.5" x2="463.5" y1="313.9375" y2="313.9375"/><polygon fill="#181818" points="432.5,309.9375,422.5,313.9375,432.5,317.9375,428.5,313.9375" style="stroke:#181818;stroke-width:1.0;"/><text fill="#000000" font-family="sans-serif" font-size="20" lengthAdjust="spacing" textLength="133" x="428.5" y="294.543">Cria passagem</text><path d="M10,328.9375 L78,328.9375 L78,346.0938 L68,356.0938 L10,356.0938 L10,328.9375 " fill="#EEEEEE" style="stroke:#000000;stroke-width:1.5;"/><rect fill="none" height="142.7813" style="stroke:#000000;stroke-width:1.5;" width="540.5" x="10" y="328.9375"/><text fill="#000000" font-family="sans-serif" font-size="20" font-weight="bold" lengthAdjust="spacing" textLength="23" x="25" y="350.6992">alt</text><text fill="#000000" font-family="sans-serif" font-size="20" font-weight="bold" lengthAdjust="spacing" textLength="273" x="93" y="351.6992">[valida edifícios e passagem]</text><polygon fill="#181818" points="57.5,393.4063,47.5,397.4063,57.5,401.4063,53.5,397.4063" style="stroke:#181818;stroke-width:1.0;"/><line style="stroke:#181818;stroke-width:1.0;stroke-dasharray:2.0,2.0;" x1="51.5" x2="420.5" y1="397.4063" y2="397.4063"/><text fill="#000000" font-family="sans-serif" font-size="20" lengthAdjust="spacing" textLength="298" x="63.5" y="391.0117">Retorna informação da passagem</text><line style="stroke:#000000;stroke-width:1.0;stroke-dasharray:2.0,2.0;" x1="10" x2="550.5" y1="406.4063" y2="406.4063"/><text fill="#000000" font-family="sans-serif" font-size="20" font-weight="bold" lengthAdjust="spacing" textLength="315" x="15" y="427.168">[edifícios ou passagem inválidos]</text><polygon fill="#181818" points="57.5,459.7188,47.5,463.7188,57.5,467.7188,53.5,463.7188" style="stroke:#181818;stroke-width:1.0;"/><line style="stroke:#181818;stroke-width:1.0;stroke-dasharray:2.0,2.0;" x1="51.5" x2="420.5" y1="463.7188" y2="463.7188"/><text fill="#000000" font-family="sans-serif" font-size="20" lengthAdjust="spacing" textLength="112" x="63.5" y="457.3242">Retorna erro</text><!--SRC=[XL0nJiD04Epl5QjKK4H2A9KLMK8cq0U9Vl6jqIhshjaxk-0tY8AAL_XZN1A9Cn3WYhqfPcTs9knOUZJiMgrtvC5JWqCRRrJY7JyJN5uuXtLKWwl3n704BYr5hhb7YR0mVRWs5RhL8iF5dbmb8MGXW_KwuxDgTLwMpXqrbsMc5L0Peq6F8U0ZTK0IZO0yDzDxpHfSLbccnOD20Ljw6YXmH61fr3gStgPNXNqom4-nquOR6Hd1ezUGPYRFZBxmxx7bnCid0PrS-XbhTWYs4SQ_X1oazqlMzCctfFF3gGtpna27N2VBEBqasrJalmPafex4E_S1]--></g></svg>