<?xml version="1.0" encoding="UTF-8" standalone="no"?><svg xmlns="http://www.w3.org/2000/svg" xmlns:xlink="http://www.w3.org/1999/xlink" contentStyleType="text/css" height="526px" preserveAspectRatio="none" style="width:664px;height:526px;background:#FFFFFF;" version="1.1" viewBox="0 0 664 526" width="664px" zoomAndPan="magnify"><defs/><g><rect fill="none" height="142.7813" style="stroke:#000000;stroke-width:1.5;" width="580.5" x="10" y="276.7813"/><line style="stroke:#181818;stroke-width:0.5;stroke-dasharray:5.0,5.0;" x1="46" x2="46" y1="90.1563" y2="436.5625"/><line style="stroke:#181818;stroke-width:0.5;stroke-dasharray:5.0,5.0;" x1="461.5" x2="461.5" y1="90.1563" y2="436.5625"/><text fill="#000000" font-family="sans-serif" font-size="20" lengthAdjust="spacing" textLength="47" x="20" y="85.7617">Actor</text><ellipse cx="46.5" cy="13.5" fill="#E2E2F0" rx="8" ry="8" style="stroke:#181818;stroke-width:0.5;"/><path d="M46.5,21.5 L46.5,48.5 M33.5,29.5 L59.5,29.5 M46.5,48.5 L33.5,63.5 M46.5,48.5 L59.5,63.5 " fill="none" style="stroke:#181818;stroke-width:0.5;"/><text fill="#000000" font-family="sans-serif" font-size="20" lengthAdjust="spacing" textLength="47" x="20" y="456.3242">Actor</text><ellipse cx="46.5" cy="469.2188" fill="#E2E2F0" rx="8" ry="8" style="stroke:#181818;stroke-width:0.5;"/><path d="M46.5,477.2188 L46.5,504.2188 M33.5,485.2188 L59.5,485.2188 M46.5,504.2188 L33.5,519.2188 M46.5,504.2188 L59.5,519.2188 " fill="none" style="stroke:#181818;stroke-width:0.5;"/><rect fill="#E2E2F0" height="64.3125" rx="2.5" ry="2.5" style="stroke:#181818;stroke-width:0.5;" width="238" x="342.5" y="24.8438"/><text fill="#000000" font-family="sans-serif" font-size="20" font-style="italic" lengthAdjust="spacing" textLength="153" x="385" y="52.6055">«Container (C4)»</text><text fill="#000000" font-family="sans-serif" font-size="20" lengthAdjust="spacing" textLength="224" x="349.5" y="77.7617">robDroneGo:robDroneGo</text><rect fill="#E2E2F0" height="64.3125" rx="2.5" ry="2.5" style="stroke:#181818;stroke-width:0.5;" width="238" x="342.5" y="435.5625"/><text fill="#000000" font-family="sans-serif" font-size="20" font-style="italic" lengthAdjust="spacing" textLength="153" x="385" y="463.3242">«Container (C4)»</text><text fill="#000000" font-family="sans-serif" font-size="20" lengthAdjust="spacing" textLength="224" x="349.5" y="488.4805">robDroneGo:robDroneGo</text><polygon fill="#181818" points="449.5,127.3125,459.5,131.3125,449.5,135.3125,453.5,131.3125" style="stroke:#181818;stroke-width:1.0;"/><line style="stroke:#181818;stroke-width:1.0;" x1="46.5" x2="455.5" y1="131.3125" y2="131.3125"/><text fill="#000000" font-family="sans-serif" font-size="20" lengthAdjust="spacing" textLength="391" x="53.5" y="124.918">Pretende listar todos os pisos de um edifício</text><polygon fill="#181818" points="57.5,166.4688,47.5,170.4688,57.5,174.4688,53.5,170.4688" style="stroke:#181818;stroke-width:1.0;"/><line style="stroke:#181818;stroke-width:1.0;stroke-dasharray:2.0,2.0;" x1="51.5" x2="460.5" y1="170.4688" y2="170.4688"/><text fill="#000000" font-family="sans-serif" font-size="20" lengthAdjust="spacing" textLength="216" x="63.5" y="164.0742">Requisita o id do edifício</text><polygon fill="#181818" points="449.5,205.625,459.5,209.625,449.5,213.625,453.5,209.625" style="stroke:#181818;stroke-width:1.0;"/><line style="stroke:#181818;stroke-width:1.0;" x1="46.5" x2="455.5" y1="209.625" y2="209.625"/><text fill="#000000" font-family="sans-serif" font-size="20" lengthAdjust="spacing" textLength="182" x="53.5" y="203.2305">Envia o id do edifício</text><line style="stroke:#181818;stroke-width:1.0;" x1="461.5" x2="503.5" y1="248.7813" y2="248.7813"/><line style="stroke:#181818;stroke-width:1.0;" x1="503.5" x2="503.5" y1="248.7813" y2="261.7813"/><line style="stroke:#181818;stroke-width:1.0;" x1="462.5" x2="503.5" y1="261.7813" y2="261.7813"/><polygon fill="#181818" points="472.5,257.7813,462.5,261.7813,472.5,265.7813,468.5,261.7813" style="stroke:#181818;stroke-width:1.0;"/><text fill="#000000" font-family="sans-serif" font-size="20" lengthAdjust="spacing" textLength="189" x="468.5" y="242.3867">Valida o id do edifício</text><path d="M10,276.7813 L78,276.7813 L78,293.9375 L68,303.9375 L10,303.9375 L10,276.7813 " fill="#EEEEEE" style="stroke:#000000;stroke-width:1.5;"/><rect fill="none" height="142.7813" style="stroke:#000000;stroke-width:1.5;" width="580.5" x="10" y="276.7813"/><text fill="#000000" font-family="sans-serif" font-size="20" font-weight="bold" lengthAdjust="spacing" textLength="23" x="25" y="298.543">alt</text><text fill="#000000" font-family="sans-serif" font-size="20" font-weight="bold" lengthAdjust="spacing" textLength="373" x="93" y="299.543">[sucesso na obtenção do id do edifício]</text><polygon fill="#181818" points="57.5,341.25,47.5,345.25,57.5,349.25,53.5,345.25" style="stroke:#181818;stroke-width:1.0;"/><line style="stroke:#181818;stroke-width:1.0;stroke-dasharray:2.0,2.0;" x1="51.5" x2="460.5" y1="345.25" y2="345.25"/><text fill="#000000" font-family="sans-serif" font-size="20" lengthAdjust="spacing" textLength="301" x="63.5" y="338.8555">Retorna todos os pisos do edifício</text><line style="stroke:#000000;stroke-width:1.0;stroke-dasharray:2.0,2.0;" x1="10" x2="590.5" y1="354.25" y2="354.25"/><text fill="#000000" font-family="sans-serif" font-size="20" font-weight="bold" lengthAdjust="spacing" textLength="214" x="15" y="375.0117">[id do edifício inválido]</text><polygon fill="#181818" points="57.5,407.5625,47.5,411.5625,57.5,415.5625,53.5,411.5625" style="stroke:#181818;stroke-width:1.0;"/><line style="stroke:#181818;stroke-width:1.0;stroke-dasharray:2.0,2.0;" x1="51.5" x2="460.5" y1="411.5625" y2="411.5625"/><text fill="#000000" font-family="sans-serif" font-size="20" lengthAdjust="spacing" textLength="112" x="63.5" y="405.168">Retorna erro</text><!--SRC=[ZO_FIWCn4CRlUOgX9pqKH3mjPK7gdwieU9zkfZ0qdLapsHvy6_7WoQVO5tFQ7dPTLZ24oGVvlb_osOwbnOpxfCsE8aJQOfVAWqfvuNU2wwiGi2cQuVOqqSuYUAXmmorAWKNMpLrMeKUj1haucjSEGXRAi5eD-c9zSrdN8PoPotgmLV2KgP14WiHMC4FHg0Q-MpQVVj7jWI9l- - -6DGpGfNDEm0gUwQrZuuAWm5vAHu7PH-_bm7Fc4VsN_nKJnrawfWBMDMIc8ExOU9d-g__Kes_g1bz_5F33uzFoup0beoaHM0xzX__j7spAsI4IG_W1]--></g></svg>