<?xml version="1.0" encoding="UTF-8" standalone="no"?><svg xmlns="http://www.w3.org/2000/svg" xmlns:xlink="http://www.w3.org/1999/xlink" contentStyleType="text/css" height="1181px" preserveAspectRatio="none" style="width:1908px;height:1181px;background:#DDDDDD;" version="1.1" viewBox="0 0 1908 1181" width="1908px" zoomAndPan="magnify"><defs/><g><rect fill="#DDDDDD" height="26.0986" id="_title" rx="3.5" ry="3.5" style="stroke:none;stroke-width:1.0;" width="108" x="893" y="5"/><text fill="#000000" font-family="Arial" font-size="14" font-weight="bold" lengthAdjust="spacing" textLength="98" x="898" y="23.1318">domain model</text><!--MD5=[a8c72dcb0993599bf4f10d1dea215f72]
cluster <<aggregate>> Building--><g id="cluster_&lt;&lt;aggregate&gt;&gt; Building"><path d="M362.5,1021.0986 L542.5,1021.0986 A5.25,5.25 0 0 1 546,1024.5986 L553,1045.4971 L552.5,1045.4971 A3.5,3.5 0 0 1 556,1048.9971 L556,1170.5986 A3.5,3.5 0 0 1 552.5,1174.0986 L362.5,1174.0986 A3.5,3.5 0 0 1 359,1170.5986 L359,1024.5986 A3.5,3.5 0 0 1 362.5,1021.0986 " fill="none" style="stroke:#454645;stroke-width:1.0;"/><line style="stroke:#454645;stroke-width:1.0;" x1="359" x2="553" y1="1045.4971" y2="1045.4971"/><text fill="#000000" font-family="Arial" font-size="16" font-weight="bold" lengthAdjust="spacing" textLength="181" x="363" y="1038.1064">&lt;&lt;aggregate&gt;&gt; Building</text></g><!--MD5=[552743ef28a091b760e47982fc011aa3]
cluster <<aggregate>> Elevator--><g id="cluster_&lt;&lt;aggregate&gt;&gt; Elevator"><path d="M153.5,717.5986 L332.5,717.5986 A5.25,5.25 0 0 1 336,721.0986 L343,741.9971 L342.5,741.9971 A3.5,3.5 0 0 1 346,745.4971 L346,867.0986 A3.5,3.5 0 0 1 342.5,870.5986 L153.5,870.5986 A3.5,3.5 0 0 1 150,867.0986 L150,721.0986 A3.5,3.5 0 0 1 153.5,717.5986 " fill="none" style="stroke:#454645;stroke-width:1.0;"/><line style="stroke:#454645;stroke-width:1.0;" x1="150" x2="343" y1="741.9971" y2="741.9971"/><text fill="#000000" font-family="Arial" font-size="16" font-weight="bold" lengthAdjust="spacing" textLength="180" x="154" y="734.6064">&lt;&lt;aggregate&gt;&gt; Elevator</text></g><!--MD5=[972ad7949a9b66febc90916d5366d5d5]
cluster <<aggregate>> Floor--><g id="cluster_&lt;&lt;aggregate&gt;&gt; Floor"><path d="M389.5,717.5986 L545.5,717.5986 A5.25,5.25 0 0 1 549,721.0986 L556,741.9971 L555.5,741.9971 A3.5,3.5 0 0 1 559,745.4971 L559,867.0986 A3.5,3.5 0 0 1 555.5,870.5986 L389.5,870.5986 A3.5,3.5 0 0 1 386,867.0986 L386,721.0986 A3.5,3.5 0 0 1 389.5,717.5986 " fill="none" style="stroke:#454645;stroke-width:1.0;"/><line style="stroke:#454645;stroke-width:1.0;" x1="386" x2="556" y1="741.9971" y2="741.9971"/><text fill="#000000" font-family="Arial" font-size="16" font-weight="bold" lengthAdjust="spacing" textLength="157" x="390" y="734.6064">&lt;&lt;aggregate&gt;&gt; Floor</text></g><!--MD5=[d6fe9085a7737064546745b532b972c1]
cluster <<aggregate>> Room--><g id="cluster_&lt;&lt;aggregate&gt;&gt; Room"><path d="M9.5,423.5986 L171.5,423.5986 A5.25,5.25 0 0 1 175,427.0986 L182,447.9971 L181.5,447.9971 A3.5,3.5 0 0 1 185,451.4971 L185,554.0986 A3.5,3.5 0 0 1 181.5,557.5986 L9.5,557.5986 A3.5,3.5 0 0 1 6,554.0986 L6,427.0986 A3.5,3.5 0 0 1 9.5,423.5986 " fill="none" style="stroke:#454645;stroke-width:1.0;"/><line style="stroke:#454645;stroke-width:1.0;" x1="6" x2="182" y1="447.9971" y2="447.9971"/><text fill="#000000" font-family="Arial" font-size="16" font-weight="bold" lengthAdjust="spacing" textLength="163" x="10" y="440.6064">&lt;&lt;aggregate&gt;&gt; Room</text></g><!--MD5=[adb50b40acd14a448a7dcdf1cde7ec0f]
cluster <<aggregate>> Passage--><g id="cluster_&lt;&lt;aggregate&gt;&gt; Passage"><path d="M212.5,432.5986 L394.5,432.5986 A5.25,5.25 0 0 1 398,436.0986 L405,456.9971 L404.5,456.9971 A3.5,3.5 0 0 1 408,460.4971 L408,545.0986 A3.5,3.5 0 0 1 404.5,548.5986 L212.5,548.5986 A3.5,3.5 0 0 1 209,545.0986 L209,436.0986 A3.5,3.5 0 0 1 212.5,432.5986 " fill="none" style="stroke:#454645;stroke-width:1.0;"/><line style="stroke:#454645;stroke-width:1.0;" x1="209" x2="405" y1="456.9971" y2="456.9971"/><text fill="#000000" font-family="Arial" font-size="16" font-weight="bold" lengthAdjust="spacing" textLength="183" x="213" y="449.6064">&lt;&lt;aggregate&gt;&gt; Passage</text></g><!--MD5=[597c9b6a35d8038d4b40fd8870ba90aa]
cluster <<aggregate>> User--><g id="cluster_&lt;&lt;aggregate&gt;&gt; User"><path d="M1053.5,681.0986 L1205.5,681.0986 A5.25,5.25 0 0 1 1209,684.5986 L1216,705.4971 L1215.5,705.4971 A3.5,3.5 0 0 1 1219,708.9971 L1219,903.5986 A3.5,3.5 0 0 1 1215.5,907.0986 L1053.5,907.0986 A3.5,3.5 0 0 1 1050,903.5986 L1050,684.5986 A3.5,3.5 0 0 1 1053.5,681.0986 " fill="none" style="stroke:#454645;stroke-width:1.0;"/><line style="stroke:#454645;stroke-width:1.0;" x1="1050" x2="1216" y1="705.4971" y2="705.4971"/><text fill="#000000" font-family="Arial" font-size="16" font-weight="bold" lengthAdjust="spacing" textLength="153" x="1054" y="698.1064">&lt;&lt;aggregate&gt;&gt; User</text></g><!--MD5=[30e5aed70be7042530417410c1ec3110]
cluster <<aggregate>> NormalUser--><g id="cluster_&lt;&lt;aggregate&gt;&gt; NormalUser"><path d="M660.5,423.5986 L867.5,423.5986 A5.25,5.25 0 0 1 871,427.0986 L878,447.9971 L877.5,447.9971 A3.5,3.5 0 0 1 881,451.4971 L881,554.0986 A3.5,3.5 0 0 1 877.5,557.5986 L660.5,557.5986 A3.5,3.5 0 0 1 657,554.0986 L657,427.0986 A3.5,3.5 0 0 1 660.5,423.5986 " fill="none" style="stroke:#454645;stroke-width:1.0;"/><line style="stroke:#454645;stroke-width:1.0;" x1="657" x2="878" y1="447.9971" y2="447.9971"/><text fill="#000000" font-family="Arial" font-size="16" font-weight="bold" lengthAdjust="spacing" textLength="208" x="661" y="440.6064">&lt;&lt;aggregate&gt;&gt; NormalUser</text></g><!--MD5=[80ea7d2dd16972b876b6a0a8a8ced60f]
cluster <<aggregate>> SysAdmin--><g id="cluster_&lt;&lt;aggregate&gt;&gt; SysAdmin"><path d="M908.5,423.5986 L1102.5,423.5986 A5.25,5.25 0 0 1 1106,427.0986 L1113,447.9971 L1112.5,447.9971 A3.5,3.5 0 0 1 1116,451.4971 L1116,554.0986 A3.5,3.5 0 0 1 1112.5,557.5986 L908.5,557.5986 A3.5,3.5 0 0 1 905,554.0986 L905,427.0986 A3.5,3.5 0 0 1 908.5,423.5986 " fill="none" style="stroke:#454645;stroke-width:1.0;"/><line style="stroke:#454645;stroke-width:1.0;" x1="905" x2="1113" y1="447.9971" y2="447.9971"/><text fill="#000000" font-family="Arial" font-size="16" font-weight="bold" lengthAdjust="spacing" textLength="195" x="909" y="440.6064">&lt;&lt;aggregate&gt;&gt; SysAdmin</text></g><!--MD5=[dc3ec7761c521ccda3932aede2e054c8]
cluster <<aggregate>> FleetManager--><g id="cluster_&lt;&lt;aggregate&gt;&gt; FleetManager"><path d="M1143.5,423.5986 L1362.5,423.5986 A5.25,5.25 0 0 1 1366,427.0986 L1373,447.9971 L1372.5,447.9971 A3.5,3.5 0 0 1 1376,451.4971 L1376,554.0986 A3.5,3.5 0 0 1 1372.5,557.5986 L1143.5,557.5986 A3.5,3.5 0 0 1 1140,554.0986 L1140,427.0986 A3.5,3.5 0 0 1 1143.5,423.5986 " fill="none" style="stroke:#454645;stroke-width:1.0;"/><line style="stroke:#454645;stroke-width:1.0;" x1="1140" x2="1373" y1="447.9971" y2="447.9971"/><text fill="#000000" font-family="Arial" font-size="16" font-weight="bold" lengthAdjust="spacing" textLength="220" x="1144" y="440.6064">&lt;&lt;aggregate&gt;&gt; FleetManager</text></g><!--MD5=[a4d7cf33bbd6af9b3c061459db1c201c]
cluster <<aggregate>> CampusManager--><g id="cluster_&lt;&lt;aggregate&gt;&gt; CampusManager"><path d="M1403.5,423.5986 L1649.5,423.5986 A5.25,5.25 0 0 1 1653,427.0986 L1660,447.9971 L1659.5,447.9971 A3.5,3.5 0 0 1 1663,451.4971 L1663,554.0986 A3.5,3.5 0 0 1 1659.5,557.5986 L1403.5,557.5986 A3.5,3.5 0 0 1 1400,554.0986 L1400,427.0986 A3.5,3.5 0 0 1 1403.5,423.5986 " fill="none" style="stroke:#454645;stroke-width:1.0;"/><line style="stroke:#454645;stroke-width:1.0;" x1="1400" x2="1660" y1="447.9971" y2="447.9971"/><text fill="#000000" font-family="Arial" font-size="16" font-weight="bold" lengthAdjust="spacing" textLength="247" x="1404" y="440.6064">&lt;&lt;aggregate&gt;&gt; CampusManager</text></g><!--MD5=[769a14c0088836188b1b4da4949b6a76]
cluster IAutonomous--><g id="cluster_IAutonomous"><path d="M1690.5,414.0986 L1792.5,414.0986 A5.25,5.25 0 0 1 1796,417.5986 L1803,438.4971 L1839.5,438.4971 A3.5,3.5 0 0 1 1843,441.9971 L1843,563.5986 A3.5,3.5 0 0 1 1839.5,567.0986 L1690.5,567.0986 A3.5,3.5 0 0 1 1687,563.5986 L1687,417.5986 A3.5,3.5 0 0 1 1690.5,414.0986 " fill="none" style="stroke:#454645;stroke-width:1.0;"/><line style="stroke:#454645;stroke-width:1.0;" x1="1687" x2="1803" y1="438.4971" y2="438.4971"/><text fill="#000000" font-family="Arial" font-size="16" font-weight="bold" lengthAdjust="spacing" textLength="103" x="1691" y="431.1064">IAutonomous</text></g><!--MD5=[01eb8843a2efdc6cc1edec43f7cf28d8]
cluster <<aggregate>> Robot--><g id="cluster_&lt;&lt;aggregate&gt;&gt; Robot"><path d="M1372.5,247.0986 L1535.5,247.0986 A5.25,5.25 0 0 1 1539,250.5986 L1546,271.4971 L1545.5,271.4971 A3.5,3.5 0 0 1 1549,274.9971 L1549,377.5986 A3.5,3.5 0 0 1 1545.5,381.0986 L1372.5,381.0986 A3.5,3.5 0 0 1 1369,377.5986 L1369,250.5986 A3.5,3.5 0 0 1 1372.5,247.0986 " fill="none" style="stroke:#454645;stroke-width:1.0;"/><line style="stroke:#454645;stroke-width:1.0;" x1="1369" x2="1546" y1="271.4971" y2="271.4971"/><text fill="#000000" font-family="Arial" font-size="16" font-weight="bold" lengthAdjust="spacing" textLength="164" x="1373" y="264.1064">&lt;&lt;aggregate&gt;&gt; Robot</text></g><!--MD5=[d9aa454c42fd93450ccbe1a589b6c7c3]
cluster <<aggregate>> Drone--><g id="cluster_&lt;&lt;aggregate&gt;&gt; Drone"><path d="M1576.5,247.0986 L1739.5,247.0986 A5.25,5.25 0 0 1 1743,250.5986 L1750,271.4971 L1749.5,271.4971 A3.5,3.5 0 0 1 1753,274.9971 L1753,377.5986 A3.5,3.5 0 0 1 1749.5,381.0986 L1576.5,381.0986 A3.5,3.5 0 0 1 1573,377.5986 L1573,250.5986 A3.5,3.5 0 0 1 1576.5,247.0986 " fill="none" style="stroke:#454645;stroke-width:1.0;"/><line style="stroke:#454645;stroke-width:1.0;" x1="1573" x2="1750" y1="271.4971" y2="271.4971"/><text fill="#000000" font-family="Arial" font-size="16" font-weight="bold" lengthAdjust="spacing" textLength="164" x="1577" y="264.1064">&lt;&lt;aggregate&gt;&gt; Drone</text></g><!--MD5=[4872a9da4fd8f336f0ba764de7d956d3]
cluster <<aggregate>> Task--><g id="cluster_&lt;&lt;aggregate&gt;&gt; Task"><path d="M459.5,43.0986 L612.5,43.0986 A5.25,5.25 0 0 1 616,46.5986 L623,67.4971 L622.5,67.4971 A3.5,3.5 0 0 1 626,70.9971 L626,210.5986 A3.5,3.5 0 0 1 622.5,214.0986 L459.5,214.0986 A3.5,3.5 0 0 1 456,210.5986 L456,46.5986 A3.5,3.5 0 0 1 459.5,43.0986 " fill="none" style="stroke:#454645;stroke-width:1.0;"/><line style="stroke:#454645;stroke-width:1.0;" x1="456" x2="623" y1="67.4971" y2="67.4971"/><text fill="#000000" font-family="Arial" font-size="16" font-weight="bold" lengthAdjust="spacing" textLength="154" x="460" y="60.1064">&lt;&lt;aggregate&gt;&gt; Task</text></g><!--MD5=[8560f289a30852a9f75d64e53f926853]
class Building--><g id="elem_Building"><rect codeLine="11" fill="#FFDA29" height="99.5938" id="Building" rx="3.5" ry="3.5" style="stroke:#454645;stroke-width:0.5;" width="93" x="410.5" y="1058.0986"/><ellipse cx="427.75" cy="1090.6963" fill="#ADD1B2" rx="11" ry="11" style="stroke:#181818;stroke-width:1.0;"/><path d="M426.9063,1091.2432 L426.9063,1093.5869 L431,1093.5869 L431,1092.7275 Q431,1092.1494 431.2188,1091.8994 Q431.4375,1091.6494 431.7969,1091.6494 Q432.1563,1091.6494 432.375,1091.8994 Q432.5938,1092.1494 432.5938,1092.7275 L432.5938,1095.1963 L425.0625,1095.1963 Q424.4844,1095.1963 424.2344,1094.9775 Q423.9844,1094.7432 423.9844,1094.3838 Q423.9844,1094.04 424.2344,1093.8213 Q424.4844,1093.5869 425.0625,1093.5869 L425.3125,1093.5869 L425.3125,1087.3213 L425.0625,1087.3213 Q424.4844,1087.3213 424.2344,1087.1025 Q423.9844,1086.8838 423.9844,1086.5244 Q423.9844,1086.165 424.2344,1085.9463 Q424.4844,1085.7119 425.0625,1085.7119 L432.25,1085.7275 L432.25,1088.165 Q432.25,1088.7275 432.0313,1088.9775 Q431.8125,1089.2275 431.4531,1089.2275 Q431.0938,1089.2275 430.8594,1088.9932 Q430.6406,1088.7432 430.6406,1088.165 L430.6406,1087.3213 L426.9063,1087.3213 L426.9063,1089.6338 L428.3125,1089.6338 Q428.3125,1089.0088 428.4375,1088.8369 Q428.6719,1088.4463 429.125,1088.4463 Q429.4688,1088.4463 429.6875,1088.6963 Q429.9219,1088.9463 429.9219,1089.5244 L429.9219,1091.3682 Q429.9219,1091.8838 429.7969,1092.0713 Q429.5469,1092.4307 429.125,1092.4307 Q428.6719,1092.4307 428.4375,1092.0557 Q428.3125,1091.8682 428.3125,1091.2432 L426.9063,1091.2432 Z " fill="#000000"/><text fill="#000000" font-family="Arial" font-size="16" font-weight="bold" lengthAdjust="spacing" textLength="60" x="440.25" y="1078.1064">«entity»</text><text fill="#000000" font-family="Arial" font-size="16" font-weight="bold" lengthAdjust="spacing" textLength="49" x="445.75" y="1096.5049">«root»</text><text fill="#454645" font-family="Arial" font-size="16" lengthAdjust="spacing" textLength="56" x="442.25" y="1114.9033">Building</text><line style="stroke:#454645;stroke-width:0.5;" x1="411.5" x2="502.5" y1="1123.2939" y2="1123.2939"/><text fill="#454645" font-family="Arial" font-size="16" lengthAdjust="spacing" textLength="81" x="416.5" y="1142.3018">designation</text><line style="stroke:#454645;stroke-width:0.5;" x1="411.5" x2="502.5" y1="1149.6924" y2="1149.6924"/></g><!--MD5=[93e485d66e62470c0e68a81214641dfb]
class Elevator--><g id="elem_Elevator"><rect codeLine="19" fill="#FFDA29" height="99.5938" id="Elevator" rx="3.5" ry="3.5" style="stroke:#454645;stroke-width:0.5;" width="93" x="229.5" y="754.5986"/><ellipse cx="246.3" cy="787.1963" fill="#ADD1B2" rx="11" ry="11" style="stroke:#181818;stroke-width:1.0;"/><path d="M245.4563,787.7432 L245.4563,790.0869 L249.55,790.0869 L249.55,789.2275 Q249.55,788.6494 249.7688,788.3994 Q249.9875,788.1494 250.3469,788.1494 Q250.7063,788.1494 250.925,788.3994 Q251.1438,788.6494 251.1438,789.2275 L251.1438,791.6963 L243.6125,791.6963 Q243.0344,791.6963 242.7844,791.4775 Q242.5344,791.2432 242.5344,790.8838 Q242.5344,790.54 242.7844,790.3213 Q243.0344,790.0869 243.6125,790.0869 L243.8625,790.0869 L243.8625,783.8213 L243.6125,783.8213 Q243.0344,783.8213 242.7844,783.6025 Q242.5344,783.3838 242.5344,783.0244 Q242.5344,782.665 242.7844,782.4463 Q243.0344,782.2119 243.6125,782.2119 L250.8,782.2275 L250.8,784.665 Q250.8,785.2275 250.5813,785.4775 Q250.3625,785.7275 250.0031,785.7275 Q249.6438,785.7275 249.4094,785.4932 Q249.1906,785.2432 249.1906,784.665 L249.1906,783.8213 L245.4563,783.8213 L245.4563,786.1338 L246.8625,786.1338 Q246.8625,785.5088 246.9875,785.3369 Q247.2219,784.9463 247.675,784.9463 Q248.0188,784.9463 248.2375,785.1963 Q248.4719,785.4463 248.4719,786.0244 L248.4719,787.8682 Q248.4719,788.3838 248.3469,788.5713 Q248.0969,788.9307 247.675,788.9307 Q247.2219,788.9307 246.9875,788.5557 Q246.8625,788.3682 246.8625,787.7432 L245.4563,787.7432 Z " fill="#000000"/><text fill="#000000" font-family="Arial" font-size="16" font-weight="bold" lengthAdjust="spacing" textLength="60" x="259.2" y="774.6064">«entity»</text><text fill="#000000" font-family="Arial" font-size="16" font-weight="bold" lengthAdjust="spacing" textLength="49" x="264.7" y="793.0049">«root»</text><text fill="#454645" font-family="Arial" font-size="16" lengthAdjust="spacing" textLength="57" x="260.7" y="811.4033">Elevator</text><line style="stroke:#454645;stroke-width:0.5;" x1="230.5" x2="321.5" y1="819.7939" y2="819.7939"/><text fill="#454645" font-family="Arial" font-size="16" lengthAdjust="spacing" textLength="81" x="235.5" y="838.8018">designation</text><line style="stroke:#454645;stroke-width:0.5;" x1="230.5" x2="321.5" y1="846.1924" y2="846.1924"/></g><!--MD5=[b098efa4dd65edfeebe973e4edec7c36]
class Floor--><g id="elem_Floor"><rect codeLine="26" fill="#FFDA29" height="99.5938" id="Floor" rx="3.5" ry="3.5" style="stroke:#454645;stroke-width:0.5;" width="89" x="410.5" y="754.5986"/><ellipse cx="425.95" cy="777.9971" fill="#ADD1B2" rx="11" ry="11" style="stroke:#181818;stroke-width:1.0;"/><path d="M425.1063,778.5439 L425.1063,780.8877 L429.2,780.8877 L429.2,780.0283 Q429.2,779.4502 429.4188,779.2002 Q429.6375,778.9502 429.9969,778.9502 Q430.3563,778.9502 430.575,779.2002 Q430.7938,779.4502 430.7938,780.0283 L430.7938,782.4971 L423.2625,782.4971 Q422.6844,782.4971 422.4344,782.2783 Q422.1844,782.0439 422.1844,781.6846 Q422.1844,781.3408 422.4344,781.1221 Q422.6844,780.8877 423.2625,780.8877 L423.5125,780.8877 L423.5125,774.6221 L423.2625,774.6221 Q422.6844,774.6221 422.4344,774.4033 Q422.1844,774.1846 422.1844,773.8252 Q422.1844,773.4658 422.4344,773.2471 Q422.6844,773.0127 423.2625,773.0127 L430.45,773.0283 L430.45,775.4658 Q430.45,776.0283 430.2313,776.2783 Q430.0125,776.5283 429.6531,776.5283 Q429.2938,776.5283 429.0594,776.2939 Q428.8406,776.0439 428.8406,775.4658 L428.8406,774.6221 L425.1063,774.6221 L425.1063,776.9346 L426.5125,776.9346 Q426.5125,776.3096 426.6375,776.1377 Q426.8719,775.7471 427.325,775.7471 Q427.6688,775.7471 427.8875,775.9971 Q428.1219,776.2471 428.1219,776.8252 L428.1219,778.6689 Q428.1219,779.1846 427.9969,779.3721 Q427.7469,779.7314 427.325,779.7314 Q426.8719,779.7314 426.6375,779.3564 Q426.5125,779.1689 426.5125,778.5439 L425.1063,778.5439 Z " fill="#000000"/><text fill="#000000" font-family="Arial" font-size="16" font-weight="bold" lengthAdjust="spacing" textLength="60" x="438.05" y="774.6064">«entity»</text><text fill="#454645" font-family="Arial" font-size="16" lengthAdjust="spacing" textLength="36" x="450.05" y="793.0049">Floor</text><line style="stroke:#454645;stroke-width:0.5;" x1="411.5" x2="498.5" y1="801.3955" y2="801.3955"/><text fill="#454645" font-family="Arial" font-size="16" lengthAdjust="spacing" textLength="52" x="416.5" y="820.4033">number</text><text fill="#454645" font-family="Arial" font-size="16" lengthAdjust="spacing" textLength="77" x="416.5" y="838.8018">information</text><line style="stroke:#454645;stroke-width:0.5;" x1="411.5" x2="498.5" y1="846.1924" y2="846.1924"/></g><!--MD5=[d218c48b946d362ff1ecd879cabebcad]
class Room--><g id="elem_Room"><rect codeLine="33" fill="#FFDA29" height="81.1953" id="Room" rx="3.5" ry="3.5" style="stroke:#454645;stroke-width:0.5;" width="88" x="81" y="460.5986"/><ellipse cx="96" cy="483.9971" fill="#ADD1B2" rx="11" ry="11" style="stroke:#181818;stroke-width:1.0;"/><path d="M95.1563,484.5439 L95.1563,486.8877 L99.25,486.8877 L99.25,486.0283 Q99.25,485.4502 99.4688,485.2002 Q99.6875,484.9502 100.0469,484.9502 Q100.4063,484.9502 100.625,485.2002 Q100.8438,485.4502 100.8438,486.0283 L100.8438,488.4971 L93.3125,488.4971 Q92.7344,488.4971 92.4844,488.2783 Q92.2344,488.0439 92.2344,487.6846 Q92.2344,487.3408 92.4844,487.1221 Q92.7344,486.8877 93.3125,486.8877 L93.5625,486.8877 L93.5625,480.6221 L93.3125,480.6221 Q92.7344,480.6221 92.4844,480.4033 Q92.2344,480.1846 92.2344,479.8252 Q92.2344,479.4658 92.4844,479.2471 Q92.7344,479.0127 93.3125,479.0127 L100.5,479.0283 L100.5,481.4658 Q100.5,482.0283 100.2813,482.2783 Q100.0625,482.5283 99.7031,482.5283 Q99.3438,482.5283 99.1094,482.2939 Q98.8906,482.0439 98.8906,481.4658 L98.8906,480.6221 L95.1563,480.6221 L95.1563,482.9346 L96.5625,482.9346 Q96.5625,482.3096 96.6875,482.1377 Q96.9219,481.7471 97.375,481.7471 Q97.7188,481.7471 97.9375,481.9971 Q98.1719,482.2471 98.1719,482.8252 L98.1719,484.6689 Q98.1719,485.1846 98.0469,485.3721 Q97.7969,485.7314 97.375,485.7314 Q96.9219,485.7314 96.6875,485.3564 Q96.5625,485.1689 96.5625,484.5439 L95.1563,484.5439 Z " fill="#000000"/><text fill="#000000" font-family="Arial" font-size="16" font-weight="bold" lengthAdjust="spacing" textLength="60" x="108" y="480.6064">«entity»</text><text fill="#454645" font-family="Arial" font-size="16" lengthAdjust="spacing" textLength="42" x="117" y="499.0049">Room</text><line style="stroke:#454645;stroke-width:0.5;" x1="82" x2="168" y1="507.3955" y2="507.3955"/><text fill="#454645" font-family="Arial" font-size="16" lengthAdjust="spacing" textLength="52" x="87" y="526.4033">number</text><line style="stroke:#454645;stroke-width:0.5;" x1="82" x2="168" y1="533.7939" y2="533.7939"/></g><!--MD5=[941b7aeffb035281a8311db077b9e408]
class Passage--><g id="elem_Passage"><rect codeLine="39" fill="#FFDA29" height="62.7969" id="Passage" rx="3.5" ry="3.5" style="stroke:#454645;stroke-width:0.5;" width="95" x="278.5" y="469.5986"/><ellipse cx="293.5" cy="492.9971" fill="#ADD1B2" rx="11" ry="11" style="stroke:#181818;stroke-width:1.0;"/><path d="M292.6563,493.5439 L292.6563,495.8877 L296.75,495.8877 L296.75,495.0283 Q296.75,494.4502 296.9688,494.2002 Q297.1875,493.9502 297.5469,493.9502 Q297.9063,493.9502 298.125,494.2002 Q298.3438,494.4502 298.3438,495.0283 L298.3438,497.4971 L290.8125,497.4971 Q290.2344,497.4971 289.9844,497.2783 Q289.7344,497.0439 289.7344,496.6846 Q289.7344,496.3408 289.9844,496.1221 Q290.2344,495.8877 290.8125,495.8877 L291.0625,495.8877 L291.0625,489.6221 L290.8125,489.6221 Q290.2344,489.6221 289.9844,489.4033 Q289.7344,489.1846 289.7344,488.8252 Q289.7344,488.4658 289.9844,488.2471 Q290.2344,488.0127 290.8125,488.0127 L298,488.0283 L298,490.4658 Q298,491.0283 297.7813,491.2783 Q297.5625,491.5283 297.2031,491.5283 Q296.8438,491.5283 296.6094,491.2939 Q296.3906,491.0439 296.3906,490.4658 L296.3906,489.6221 L292.6563,489.6221 L292.6563,491.9346 L294.0625,491.9346 Q294.0625,491.3096 294.1875,491.1377 Q294.4219,490.7471 294.875,490.7471 Q295.2188,490.7471 295.4375,490.9971 Q295.6719,491.2471 295.6719,491.8252 L295.6719,493.6689 Q295.6719,494.1846 295.5469,494.3721 Q295.2969,494.7314 294.875,494.7314 Q294.4219,494.7314 294.1875,494.3564 Q294.0625,494.1689 294.0625,493.5439 L292.6563,493.5439 Z " fill="#000000"/><text fill="#000000" font-family="Arial" font-size="16" font-weight="bold" lengthAdjust="spacing" textLength="60" x="309" y="489.6064">«entity»</text><text fill="#454645" font-family="Arial" font-size="16" lengthAdjust="spacing" textLength="63" x="307.5" y="508.0049">Passage</text><line style="stroke:#454645;stroke-width:0.5;" x1="279.5" x2="372.5" y1="516.3955" y2="516.3955"/><line style="stroke:#454645;stroke-width:0.5;" x1="279.5" x2="372.5" y1="524.3955" y2="524.3955"/></g><!--MD5=[3fd616f346a44cd59a91eb10b19e157c]
class User--><g id="elem_User"><rect codeLine="47" fill="#FFDA29" height="173.1875" id="User" rx="3.5" ry="3.5" style="stroke:#454645;stroke-width:0.5;" width="88" x="1090" y="718.0986"/><ellipse cx="1105" cy="750.6963" fill="#ADD1B2" rx="11" ry="11" style="stroke:#181818;stroke-width:1.0;"/><path d="M1104.1563,751.2432 L1104.1563,753.5869 L1108.25,753.5869 L1108.25,752.7275 Q1108.25,752.1494 1108.4688,751.8994 Q1108.6875,751.6494 1109.0469,751.6494 Q1109.4063,751.6494 1109.625,751.8994 Q1109.8438,752.1494 1109.8438,752.7275 L1109.8438,755.1963 L1102.3125,755.1963 Q1101.7344,755.1963 1101.4844,754.9775 Q1101.2344,754.7432 1101.2344,754.3838 Q1101.2344,754.04 1101.4844,753.8213 Q1101.7344,753.5869 1102.3125,753.5869 L1102.5625,753.5869 L1102.5625,747.3213 L1102.3125,747.3213 Q1101.7344,747.3213 1101.4844,747.1025 Q1101.2344,746.8838 1101.2344,746.5244 Q1101.2344,746.165 1101.4844,745.9463 Q1101.7344,745.7119 1102.3125,745.7119 L1109.5,745.7275 L1109.5,748.165 Q1109.5,748.7275 1109.2813,748.9775 Q1109.0625,749.2275 1108.7031,749.2275 Q1108.3438,749.2275 1108.1094,748.9932 Q1107.8906,748.7432 1107.8906,748.165 L1107.8906,747.3213 L1104.1563,747.3213 L1104.1563,749.6338 L1105.5625,749.6338 Q1105.5625,749.0088 1105.6875,748.8369 Q1105.9219,748.4463 1106.375,748.4463 Q1106.7188,748.4463 1106.9375,748.6963 Q1107.1719,748.9463 1107.1719,749.5244 L1107.1719,751.3682 Q1107.1719,751.8838 1107.0469,752.0713 Q1106.7969,752.4307 1106.375,752.4307 Q1105.9219,752.4307 1105.6875,752.0557 Q1105.5625,751.8682 1105.5625,751.2432 L1104.1563,751.2432 Z " fill="#000000"/><text fill="#000000" font-family="Arial" font-size="16" font-weight="bold" lengthAdjust="spacing" textLength="60" x="1117" y="738.1064">«entity»</text><text fill="#000000" font-family="Arial" font-size="16" font-weight="bold" lengthAdjust="spacing" textLength="49" x="1122.5" y="756.5049">«root»</text><text fill="#454645" font-family="Arial" font-size="16" lengthAdjust="spacing" textLength="33" x="1130.5" y="774.9033">User</text><line style="stroke:#454645;stroke-width:0.5;" x1="1091" x2="1177" y1="783.2939" y2="783.2939"/><text fill="#454645" font-family="Arial" font-size="16" lengthAdjust="spacing" textLength="67" x="1096" y="802.3018">firstName</text><text fill="#454645" font-family="Arial" font-size="16" lengthAdjust="spacing" textLength="66" x="1096" y="820.7002">lastName</text><text fill="#454645" font-family="Arial" font-size="16" lengthAdjust="spacing" textLength="38" x="1096" y="839.0986">email</text><text fill="#454645" font-family="Arial" font-size="16" lengthAdjust="spacing" textLength="68" x="1096" y="857.4971">password</text><text fill="#454645" font-family="Arial" font-size="16" lengthAdjust="spacing" textLength="26" x="1096" y="875.8955">role</text><line style="stroke:#454645;stroke-width:0.5;" x1="1091" x2="1177" y1="883.2861" y2="883.2861"/></g><!--MD5=[121330b00a863f09dfc695730d4d9fa4]
class NormalUser--><g id="elem_NormalUser"><rect codeLine="59" fill="#FFDA29" height="81.1953" id="NormalUser" rx="3.5" ry="3.5" style="stroke:#454645;stroke-width:0.5;" width="115" x="739.5" y="460.5986"/><ellipse cx="754.5" cy="493.1963" fill="#ADD1B2" rx="11" ry="11" style="stroke:#181818;stroke-width:1.0;"/><path d="M753.6563,493.7432 L753.6563,496.0869 L757.75,496.0869 L757.75,495.2275 Q757.75,494.6494 757.9688,494.3994 Q758.1875,494.1494 758.5469,494.1494 Q758.9063,494.1494 759.125,494.3994 Q759.3438,494.6494 759.3438,495.2275 L759.3438,497.6963 L751.8125,497.6963 Q751.2344,497.6963 750.9844,497.4775 Q750.7344,497.2432 750.7344,496.8838 Q750.7344,496.54 750.9844,496.3213 Q751.2344,496.0869 751.8125,496.0869 L752.0625,496.0869 L752.0625,489.8213 L751.8125,489.8213 Q751.2344,489.8213 750.9844,489.6025 Q750.7344,489.3838 750.7344,489.0244 Q750.7344,488.665 750.9844,488.4463 Q751.2344,488.2119 751.8125,488.2119 L759,488.2275 L759,490.665 Q759,491.2275 758.7813,491.4775 Q758.5625,491.7275 758.2031,491.7275 Q757.8438,491.7275 757.6094,491.4932 Q757.3906,491.2432 757.3906,490.665 L757.3906,489.8213 L753.6563,489.8213 L753.6563,492.1338 L755.0625,492.1338 Q755.0625,491.5088 755.1875,491.3369 Q755.4219,490.9463 755.875,490.9463 Q756.2188,490.9463 756.4375,491.1963 Q756.6719,491.4463 756.6719,492.0244 L756.6719,493.8682 Q756.6719,494.3838 756.5469,494.5713 Q756.2969,494.9307 755.875,494.9307 Q755.4219,494.9307 755.1875,494.5557 Q755.0625,494.3682 755.0625,493.7432 L753.6563,493.7432 Z " fill="#000000"/><text fill="#000000" font-family="Arial" font-size="16" font-weight="bold" lengthAdjust="spacing" textLength="60" x="780" y="480.6064">«entity»</text><text fill="#000000" font-family="Arial" font-size="16" font-weight="bold" lengthAdjust="spacing" textLength="49" x="785.5" y="499.0049">«root»</text><text fill="#454645" font-family="Arial" font-size="16" lengthAdjust="spacing" textLength="83" x="768.5" y="517.4033">NormalUser</text><line style="stroke:#454645;stroke-width:0.5;" x1="740.5" x2="853.5" y1="525.7939" y2="525.7939"/><line style="stroke:#454645;stroke-width:0.5;" x1="740.5" x2="853.5" y1="533.7939" y2="533.7939"/></g><!--MD5=[4e6d5047b6be9817e817e50ef20dd2b3]
class SysAdmin--><g id="elem_SysAdmin"><rect codeLine="67" fill="#FFDA29" height="81.1953" id="SysAdmin" rx="3.5" ry="3.5" style="stroke:#454645;stroke-width:0.5;" width="103" x="996.5" y="460.5986"/><ellipse cx="1011.5" cy="493.1963" fill="#ADD1B2" rx="11" ry="11" style="stroke:#181818;stroke-width:1.0;"/><path d="M1010.6563,493.7432 L1010.6563,496.0869 L1014.75,496.0869 L1014.75,495.2275 Q1014.75,494.6494 1014.9688,494.3994 Q1015.1875,494.1494 1015.5469,494.1494 Q1015.9063,494.1494 1016.125,494.3994 Q1016.3438,494.6494 1016.3438,495.2275 L1016.3438,497.6963 L1008.8125,497.6963 Q1008.2344,497.6963 1007.9844,497.4775 Q1007.7344,497.2432 1007.7344,496.8838 Q1007.7344,496.54 1007.9844,496.3213 Q1008.2344,496.0869 1008.8125,496.0869 L1009.0625,496.0869 L1009.0625,489.8213 L1008.8125,489.8213 Q1008.2344,489.8213 1007.9844,489.6025 Q1007.7344,489.3838 1007.7344,489.0244 Q1007.7344,488.665 1007.9844,488.4463 Q1008.2344,488.2119 1008.8125,488.2119 L1016,488.2275 L1016,490.665 Q1016,491.2275 1015.7813,491.4775 Q1015.5625,491.7275 1015.2031,491.7275 Q1014.8438,491.7275 1014.6094,491.4932 Q1014.3906,491.2432 1014.3906,490.665 L1014.3906,489.8213 L1010.6563,489.8213 L1010.6563,492.1338 L1012.0625,492.1338 Q1012.0625,491.5088 1012.1875,491.3369 Q1012.4219,490.9463 1012.875,490.9463 Q1013.2188,490.9463 1013.4375,491.1963 Q1013.6719,491.4463 1013.6719,492.0244 L1013.6719,493.8682 Q1013.6719,494.3838 1013.5469,494.5713 Q1013.2969,494.9307 1012.875,494.9307 Q1012.4219,494.9307 1012.1875,494.5557 Q1012.0625,494.3682 1012.0625,493.7432 L1010.6563,493.7432 Z " fill="#000000"/><text fill="#000000" font-family="Arial" font-size="16" font-weight="bold" lengthAdjust="spacing" textLength="60" x="1031" y="480.6064">«entity»</text><text fill="#000000" font-family="Arial" font-size="16" font-weight="bold" lengthAdjust="spacing" textLength="49" x="1036.5" y="499.0049">«root»</text><text fill="#454645" font-family="Arial" font-size="16" lengthAdjust="spacing" textLength="71" x="1025.5" y="517.4033">SysAdmin</text><line style="stroke:#454645;stroke-width:0.5;" x1="997.5" x2="1098.5" y1="525.7939" y2="525.7939"/><line style="stroke:#454645;stroke-width:0.5;" x1="997.5" x2="1098.5" y1="533.7939" y2="533.7939"/></g><!--MD5=[019a73386217e12d5bb8e34bf0b46b9e]
class FleetManager--><g id="elem_FleetManager"><rect codeLine="75" fill="#FFDA29" height="81.1953" id="FleetManager" rx="3.5" ry="3.5" style="stroke:#454645;stroke-width:0.5;" width="129" x="1156.5" y="460.5986"/><ellipse cx="1171.5" cy="493.1963" fill="#ADD1B2" rx="11" ry="11" style="stroke:#181818;stroke-width:1.0;"/><path d="M1170.6563,493.7432 L1170.6563,496.0869 L1174.75,496.0869 L1174.75,495.2275 Q1174.75,494.6494 1174.9688,494.3994 Q1175.1875,494.1494 1175.5469,494.1494 Q1175.9063,494.1494 1176.125,494.3994 Q1176.3438,494.6494 1176.3438,495.2275 L1176.3438,497.6963 L1168.8125,497.6963 Q1168.2344,497.6963 1167.9844,497.4775 Q1167.7344,497.2432 1167.7344,496.8838 Q1167.7344,496.54 1167.9844,496.3213 Q1168.2344,496.0869 1168.8125,496.0869 L1169.0625,496.0869 L1169.0625,489.8213 L1168.8125,489.8213 Q1168.2344,489.8213 1167.9844,489.6025 Q1167.7344,489.3838 1167.7344,489.0244 Q1167.7344,488.665 1167.9844,488.4463 Q1168.2344,488.2119 1168.8125,488.2119 L1176,488.2275 L1176,490.665 Q1176,491.2275 1175.7813,491.4775 Q1175.5625,491.7275 1175.2031,491.7275 Q1174.8438,491.7275 1174.6094,491.4932 Q1174.3906,491.2432 1174.3906,490.665 L1174.3906,489.8213 L1170.6563,489.8213 L1170.6563,492.1338 L1172.0625,492.1338 Q1172.0625,491.5088 1172.1875,491.3369 Q1172.4219,490.9463 1172.875,490.9463 Q1173.2188,490.9463 1173.4375,491.1963 Q1173.6719,491.4463 1173.6719,492.0244 L1173.6719,493.8682 Q1173.6719,494.3838 1173.5469,494.5713 Q1173.2969,494.9307 1172.875,494.9307 Q1172.4219,494.9307 1172.1875,494.5557 Q1172.0625,494.3682 1172.0625,493.7432 L1170.6563,493.7432 Z " fill="#000000"/><text fill="#000000" font-family="Arial" font-size="16" font-weight="bold" lengthAdjust="spacing" textLength="60" x="1204" y="480.6064">«entity»</text><text fill="#000000" font-family="Arial" font-size="16" font-weight="bold" lengthAdjust="spacing" textLength="49" x="1209.5" y="499.0049">«root»</text><text fill="#454645" font-family="Arial" font-size="16" lengthAdjust="spacing" textLength="97" x="1185.5" y="517.4033">FleetManager</text><line style="stroke:#454645;stroke-width:0.5;" x1="1157.5" x2="1284.5" y1="525.7939" y2="525.7939"/><line style="stroke:#454645;stroke-width:0.5;" x1="1157.5" x2="1284.5" y1="533.7939" y2="533.7939"/></g><!--MD5=[e7635fb2ead244948613c027165ff74d]
class CampusManager--><g id="elem_CampusManager"><rect codeLine="83" fill="#FFDA29" height="81.1953" id="CampusManager" rx="3.5" ry="3.5" style="stroke:#454645;stroke-width:0.5;" width="153" x="1416.5" y="460.5986"/><ellipse cx="1431.5" cy="493.1963" fill="#ADD1B2" rx="11" ry="11" style="stroke:#181818;stroke-width:1.0;"/><path d="M1430.6563,493.7432 L1430.6563,496.0869 L1434.75,496.0869 L1434.75,495.2275 Q1434.75,494.6494 1434.9688,494.3994 Q1435.1875,494.1494 1435.5469,494.1494 Q1435.9063,494.1494 1436.125,494.3994 Q1436.3438,494.6494 1436.3438,495.2275 L1436.3438,497.6963 L1428.8125,497.6963 Q1428.2344,497.6963 1427.9844,497.4775 Q1427.7344,497.2432 1427.7344,496.8838 Q1427.7344,496.54 1427.9844,496.3213 Q1428.2344,496.0869 1428.8125,496.0869 L1429.0625,496.0869 L1429.0625,489.8213 L1428.8125,489.8213 Q1428.2344,489.8213 1427.9844,489.6025 Q1427.7344,489.3838 1427.7344,489.0244 Q1427.7344,488.665 1427.9844,488.4463 Q1428.2344,488.2119 1428.8125,488.2119 L1436,488.2275 L1436,490.665 Q1436,491.2275 1435.7813,491.4775 Q1435.5625,491.7275 1435.2031,491.7275 Q1434.8438,491.7275 1434.6094,491.4932 Q1434.3906,491.2432 1434.3906,490.665 L1434.3906,489.8213 L1430.6563,489.8213 L1430.6563,492.1338 L1432.0625,492.1338 Q1432.0625,491.5088 1432.1875,491.3369 Q1432.4219,490.9463 1432.875,490.9463 Q1433.2188,490.9463 1433.4375,491.1963 Q1433.6719,491.4463 1433.6719,492.0244 L1433.6719,493.8682 Q1433.6719,494.3838 1433.5469,494.5713 Q1433.2969,494.9307 1432.875,494.9307 Q1432.4219,494.9307 1432.1875,494.5557 Q1432.0625,494.3682 1432.0625,493.7432 L1430.6563,493.7432 Z " fill="#000000"/><text fill="#000000" font-family="Arial" font-size="16" font-weight="bold" lengthAdjust="spacing" textLength="60" x="1476" y="480.6064">«entity»</text><text fill="#000000" font-family="Arial" font-size="16" font-weight="bold" lengthAdjust="spacing" textLength="49" x="1481.5" y="499.0049">«root»</text><text fill="#454645" font-family="Arial" font-size="16" lengthAdjust="spacing" textLength="121" x="1445.5" y="517.4033">CampusManager</text><line style="stroke:#454645;stroke-width:0.5;" x1="1417.5" x2="1568.5" y1="525.7939" y2="525.7939"/><line style="stroke:#454645;stroke-width:0.5;" x1="1417.5" x2="1568.5" y1="533.7939" y2="533.7939"/></g><!--MD5=[452fb89628ff982b6e61ed6299e60108]
class Autonomous--><g id="elem_Autonomous"><rect codeLine="91" fill="#F1F1F1" height="99.5938" id="Autonomous" rx="3.5" ry="3.5" style="stroke:#181818;stroke-width:0.5;" width="123" x="1703.5" y="451.0986"/><ellipse cx="1718.5" cy="474.4971" fill="#B4A7E5" rx="11" ry="11" style="stroke:#181818;stroke-width:1.0;"/><path d="M1719.1094,471.1221 L1719.1094,477.3877 L1720.7188,477.3877 Q1721.2969,477.3877 1721.5469,477.6221 Q1721.7969,477.8408 1721.7969,478.2002 Q1721.7969,478.5439 1721.5469,478.7783 Q1721.2969,478.9971 1720.7188,478.9971 L1715.8906,478.9971 Q1715.3125,478.9971 1715.0625,478.7783 Q1714.8125,478.5439 1714.8125,478.1846 Q1714.8125,477.8408 1715.0625,477.6221 Q1715.3125,477.3877 1715.8906,477.3877 L1717.5,477.3877 L1717.5,471.1221 L1715.8906,471.1221 Q1715.3125,471.1221 1715.0625,470.9033 Q1714.8125,470.6846 1714.8125,470.3252 Q1714.8125,469.9658 1715.0625,469.7471 Q1715.3125,469.5127 1715.8906,469.5127 L1720.7188,469.5283 Q1721.2969,469.5283 1721.5469,469.7471 Q1721.7969,469.9658 1721.7969,470.3252 Q1721.7969,470.6846 1721.5469,470.9033 Q1721.2969,471.1221 1720.7188,471.1221 L1719.1094,471.1221 Z " fill="#000000"/><text fill="#000000" font-family="Arial" font-size="16" font-weight="bold" lengthAdjust="spacing" textLength="84" x="1736" y="471.1064">«interface»</text><text fill="#000000" font-family="Arial" font-size="16" font-style="italic" lengthAdjust="spacing" textLength="91" x="1732.5" y="489.5049">Autonomous</text><line style="stroke:#181818;stroke-width:0.5;" x1="1704.5" x2="1825.5" y1="497.8955" y2="497.8955"/><text fill="#000000" font-family="Arial" font-size="16" lengthAdjust="spacing" textLength="81" x="1709.5" y="516.9033">designation</text><text fill="#000000" font-family="Arial" font-size="16" lengthAdjust="spacing" textLength="34" x="1709.5" y="535.3018">state</text><line style="stroke:#181818;stroke-width:0.5;" x1="1704.5" x2="1825.5" y1="542.6924" y2="542.6924"/></g><!--MD5=[60fb4f72b7635aa97affd2efc062a79f]
class Robot--><g id="elem_Robot"><rect codeLine="100" fill="#FFDA29" height="81.1953" id="Robot" rx="3.5" ry="3.5" style="stroke:#454645;stroke-width:0.5;" width="88" x="1445" y="284.0986"/><ellipse cx="1460" cy="316.6963" fill="#ADD1B2" rx="11" ry="11" style="stroke:#181818;stroke-width:1.0;"/><path d="M1459.1563,317.2432 L1459.1563,319.5869 L1463.25,319.5869 L1463.25,318.7275 Q1463.25,318.1494 1463.4688,317.8994 Q1463.6875,317.6494 1464.0469,317.6494 Q1464.4063,317.6494 1464.625,317.8994 Q1464.8438,318.1494 1464.8438,318.7275 L1464.8438,321.1963 L1457.3125,321.1963 Q1456.7344,321.1963 1456.4844,320.9775 Q1456.2344,320.7432 1456.2344,320.3838 Q1456.2344,320.04 1456.4844,319.8213 Q1456.7344,319.5869 1457.3125,319.5869 L1457.5625,319.5869 L1457.5625,313.3213 L1457.3125,313.3213 Q1456.7344,313.3213 1456.4844,313.1025 Q1456.2344,312.8838 1456.2344,312.5244 Q1456.2344,312.165 1456.4844,311.9463 Q1456.7344,311.7119 1457.3125,311.7119 L1464.5,311.7275 L1464.5,314.165 Q1464.5,314.7275 1464.2813,314.9775 Q1464.0625,315.2275 1463.7031,315.2275 Q1463.3438,315.2275 1463.1094,314.9932 Q1462.8906,314.7432 1462.8906,314.165 L1462.8906,313.3213 L1459.1563,313.3213 L1459.1563,315.6338 L1460.5625,315.6338 Q1460.5625,315.0088 1460.6875,314.8369 Q1460.9219,314.4463 1461.375,314.4463 Q1461.7188,314.4463 1461.9375,314.6963 Q1462.1719,314.9463 1462.1719,315.5244 L1462.1719,317.3682 Q1462.1719,317.8838 1462.0469,318.0713 Q1461.7969,318.4307 1461.375,318.4307 Q1460.9219,318.4307 1460.6875,318.0557 Q1460.5625,317.8682 1460.5625,317.2432 L1459.1563,317.2432 Z " fill="#000000"/><text fill="#000000" font-family="Arial" font-size="16" font-weight="bold" lengthAdjust="spacing" textLength="60" x="1472" y="304.1064">«entity»</text><text fill="#000000" font-family="Arial" font-size="16" font-weight="bold" lengthAdjust="spacing" textLength="49" x="1477.5" y="322.5049">«root»</text><text fill="#454645" font-family="Arial" font-size="16" lengthAdjust="spacing" textLength="42" x="1481" y="340.9033">Robot</text><line style="stroke:#454645;stroke-width:0.5;" x1="1446" x2="1532" y1="349.2939" y2="349.2939"/><line style="stroke:#454645;stroke-width:0.5;" x1="1446" x2="1532" y1="357.2939" y2="357.2939"/></g><!--MD5=[2e3f1e60e74253ff42e47f8bfdb04ee2]
class Drone--><g id="elem_Drone"><rect codeLine="108" fill="#FFDA29" height="81.1953" id="Drone" rx="3.5" ry="3.5" style="stroke:#454645;stroke-width:0.5;" width="88" x="1646" y="284.0986"/><ellipse cx="1661" cy="316.6963" fill="#ADD1B2" rx="11" ry="11" style="stroke:#181818;stroke-width:1.0;"/><path d="M1660.1563,317.2432 L1660.1563,319.5869 L1664.25,319.5869 L1664.25,318.7275 Q1664.25,318.1494 1664.4688,317.8994 Q1664.6875,317.6494 1665.0469,317.6494 Q1665.4063,317.6494 1665.625,317.8994 Q1665.8438,318.1494 1665.8438,318.7275 L1665.8438,321.1963 L1658.3125,321.1963 Q1657.7344,321.1963 1657.4844,320.9775 Q1657.2344,320.7432 1657.2344,320.3838 Q1657.2344,320.04 1657.4844,319.8213 Q1657.7344,319.5869 1658.3125,319.5869 L1658.5625,319.5869 L1658.5625,313.3213 L1658.3125,313.3213 Q1657.7344,313.3213 1657.4844,313.1025 Q1657.2344,312.8838 1657.2344,312.5244 Q1657.2344,312.165 1657.4844,311.9463 Q1657.7344,311.7119 1658.3125,311.7119 L1665.5,311.7275 L1665.5,314.165 Q1665.5,314.7275 1665.2813,314.9775 Q1665.0625,315.2275 1664.7031,315.2275 Q1664.3438,315.2275 1664.1094,314.9932 Q1663.8906,314.7432 1663.8906,314.165 L1663.8906,313.3213 L1660.1563,313.3213 L1660.1563,315.6338 L1661.5625,315.6338 Q1661.5625,315.0088 1661.6875,314.8369 Q1661.9219,314.4463 1662.375,314.4463 Q1662.7188,314.4463 1662.9375,314.6963 Q1663.1719,314.9463 1663.1719,315.5244 L1663.1719,317.3682 Q1663.1719,317.8838 1663.0469,318.0713 Q1662.7969,318.4307 1662.375,318.4307 Q1661.9219,318.4307 1661.6875,318.0557 Q1661.5625,317.8682 1661.5625,317.2432 L1660.1563,317.2432 Z " fill="#000000"/><text fill="#000000" font-family="Arial" font-size="16" font-weight="bold" lengthAdjust="spacing" textLength="60" x="1673" y="304.1064">«entity»</text><text fill="#000000" font-family="Arial" font-size="16" font-weight="bold" lengthAdjust="spacing" textLength="49" x="1678.5" y="322.5049">«root»</text><text fill="#454645" font-family="Arial" font-size="16" lengthAdjust="spacing" textLength="43" x="1681.5" y="340.9033">Drone</text><line style="stroke:#454645;stroke-width:0.5;" x1="1647" x2="1733" y1="349.2939" y2="349.2939"/><line style="stroke:#454645;stroke-width:0.5;" x1="1647" x2="1733" y1="357.2939" y2="357.2939"/></g><!--MD5=[b34797a66dc35cbf1d65f7e3ca75530e]
class Task--><g id="elem_Task"><rect codeLine="116" fill="#FFDA29" height="117.9922" id="Task" rx="3.5" ry="3.5" style="stroke:#454645;stroke-width:0.5;" width="93" x="494.5" y="80.0986"/><ellipse cx="511.75" cy="112.6963" fill="#ADD1B2" rx="11" ry="11" style="stroke:#181818;stroke-width:1.0;"/><path d="M510.9063,113.2432 L510.9063,115.5869 L515,115.5869 L515,114.7275 Q515,114.1494 515.2188,113.8994 Q515.4375,113.6494 515.7969,113.6494 Q516.1563,113.6494 516.375,113.8994 Q516.5938,114.1494 516.5938,114.7275 L516.5938,117.1963 L509.0625,117.1963 Q508.4844,117.1963 508.2344,116.9775 Q507.9844,116.7432 507.9844,116.3838 Q507.9844,116.04 508.2344,115.8213 Q508.4844,115.5869 509.0625,115.5869 L509.3125,115.5869 L509.3125,109.3213 L509.0625,109.3213 Q508.4844,109.3213 508.2344,109.1025 Q507.9844,108.8838 507.9844,108.5244 Q507.9844,108.165 508.2344,107.9463 Q508.4844,107.7119 509.0625,107.7119 L516.25,107.7275 L516.25,110.165 Q516.25,110.7275 516.0313,110.9775 Q515.8125,111.2275 515.4531,111.2275 Q515.0938,111.2275 514.8594,110.9932 Q514.6406,110.7432 514.6406,110.165 L514.6406,109.3213 L510.9063,109.3213 L510.9063,111.6338 L512.3125,111.6338 Q512.3125,111.0088 512.4375,110.8369 Q512.6719,110.4463 513.125,110.4463 Q513.4688,110.4463 513.6875,110.6963 Q513.9219,110.9463 513.9219,111.5244 L513.9219,113.3682 Q513.9219,113.8838 513.7969,114.0713 Q513.5469,114.4307 513.125,114.4307 Q512.6719,114.4307 512.4375,114.0557 Q512.3125,113.8682 512.3125,113.2432 L510.9063,113.2432 Z " fill="#000000"/><text fill="#000000" font-family="Arial" font-size="16" font-weight="bold" lengthAdjust="spacing" textLength="60" x="524.25" y="100.1064">«entity»</text><text fill="#000000" font-family="Arial" font-size="16" font-weight="bold" lengthAdjust="spacing" textLength="49" x="529.75" y="118.5049">«root»</text><text fill="#454645" font-family="Arial" font-size="16" lengthAdjust="spacing" textLength="34" x="537.25" y="136.9033">Task</text><line style="stroke:#454645;stroke-width:0.5;" x1="495.5" x2="586.5" y1="145.2939" y2="145.2939"/><text fill="#454645" font-family="Arial" font-size="16" lengthAdjust="spacing" textLength="29" x="500.5" y="164.3018">type</text><text fill="#454645" font-family="Arial" font-size="16" lengthAdjust="spacing" textLength="81" x="500.5" y="182.7002">designation</text><line style="stroke:#454645;stroke-width:0.5;" x1="495.5" x2="586.5" y1="190.0908" y2="190.0908"/></g><!--MD5=[9bd558bda1c2c091fafbb27e99354104]
link Floor to Building--><g id="link_Floor_Building"><path codeLine="125" d="M455.33,854.7086 C455.7,910.7786 456.3,1001.9486 456.67,1058.0086 " fill="none" id="Floor-Building" style="stroke:#454645;stroke-width:2.5;"/><polygon fill="#000000" points="462.0395,970.2977,465.4946,959.4206,458.4414,959.4671,462.0395,970.2977" style="stroke:#000000;stroke-width:1.0;"/><text fill="#000000" font-family="Arial" font-size="16" lengthAdjust="spacing" textLength="93" x="473" y="970.1064">is associated</text><text fill="#000000" font-family="Arial" font-size="16" lengthAdjust="spacing" textLength="6" x="448.9879" y="877.3415">*</text><text fill="#000000" font-family="Arial" font-size="16" lengthAdjust="spacing" textLength="9" x="446.9908" y="1046.7635">1</text></g><!--MD5=[1dd60bc0b0635924addc1af56fecdedc]
link Elevator to Building--><g id="link_Elevator_Building"><path codeLine="126" d="M287.92,854.6986 C297.68,889.5786 313.56,936.6786 336,974.0986 C356.15,1007.6986 385.62,1040.3186 410.43,1064.8486 " fill="none" id="Elevator-Building" style="stroke:#454645;stroke-width:2.5;"/><polygon fill="#000000" points="345.0218,969.4814,342.6021,958.3281,336.5085,961.8805,345.0218,969.4814" style="stroke:#000000;stroke-width:1.0;"/><text fill="#000000" font-family="Arial" font-size="16" lengthAdjust="spacing" textLength="93" x="353" y="970.1064">is associated</text><text fill="#000000" font-family="Arial" font-size="16" lengthAdjust="spacing" textLength="9" x="279.8707" y="877.3302">1</text><text fill="#000000" font-family="Arial" font-size="16" lengthAdjust="spacing" textLength="9" x="393.6099" y="1053.9173">1</text></g><!--MD5=[92d0919ae475adb8a5bbe41b23e4e52c]
link Room to Floor--><g id="link_Room_Floor"><path codeLine="129" d="M169.31,538.9986 C201.65,565.7486 246.7,602.5886 287,634.0986 C309.76,651.8886 317.74,653.5386 339,673.0986 C366.21,698.1386 393.83,728.9486 415.29,754.3486 " fill="none" id="Room-Floor" style="stroke:#454645;stroke-width:2.5;"/><polygon fill="#000000" points="297.5144,628.2501,291.6709,618.4469,287.0247,623.7539,297.5144,628.2501" style="stroke:#000000;stroke-width:1.0;"/><text fill="#000000" font-family="Arial" font-size="16" lengthAdjust="spacing" textLength="33" x="304" y="630.1064">is on</text><text fill="#000000" font-family="Arial" font-size="16" lengthAdjust="spacing" textLength="6" x="177.1457" y="540.8098">*</text><text fill="#000000" font-family="Arial" font-size="16" lengthAdjust="spacing" textLength="9" x="400.073" y="743.081">1</text></g><!--MD5=[b799bec8400e9de87652545c025c9ef0]
link Passage to Floor--><g id="link_Passage_Floor"><path codeLine="130" d="M329.28,532.8186 C332.9,560.1186 340,600.7586 353,634.0986 C369.78,677.1386 397.08,721.7386 419.22,754.3786 " fill="none" id="Passage-Floor" style="stroke:#454645;stroke-width:2.5;"/><polygon fill="#000000" points="361.2568,629.8573,360.442,618.4737,353.9065,621.1267,361.2568,629.8573" style="stroke:#000000;stroke-width:1.0;"/><text fill="#000000" font-family="Arial" font-size="16" lengthAdjust="spacing" textLength="62" x="370" y="630.1064">connects</text><text fill="#000000" font-family="Arial" font-size="16" lengthAdjust="spacing" textLength="6" x="323.3316" y="555.3897">*</text><text fill="#000000" font-family="Arial" font-size="16" lengthAdjust="spacing" textLength="9" x="414.8213" y="743.1152">1</text></g><!--MD5=[1fac8d9eb325c39f8723e3b974442c00]
link Task to Autonomous--><g id="link_Task_Autonomous"><path codeLine="133" d="M587.66,140.3886 C799.91,142.1486 1667.44,154.5086 1750,239.0986 C1804.13,294.5586 1792.72,392.1486 1779.13,450.9986 " fill="none" id="Task-Autonomous" style="stroke:#454645;stroke-width:2.5;"/><polygon fill="#000000" points="1801.806,326.3114,1792.1925,320.1607,1790.4132,326.986,1801.806,326.3114" style="stroke:#000000;stroke-width:1.0;"/><text fill="#000000" font-family="Arial" font-size="16" lengthAdjust="spacing" textLength="93" x="1807" y="330.6064">is associated</text><text fill="#000000" font-family="Arial" font-size="16" lengthAdjust="spacing" textLength="6" x="595.5746" y="136.2">*</text><text fill="#000000" font-family="Arial" font-size="16" lengthAdjust="spacing" textLength="9" x="1771.4842" y="439.7521">1</text></g><!--MD5=[c1ad4beca86ed0f46fe6ea685f79752d]
link Task to Building--><g id="link_Task_Building"><path codeLine="134" d="M582,198.3486 C602.5,233.0586 623,278.9386 623,323.5986 C623,323.5986 623,323.5986 623,965.0986 C623,1028.2486 552.78,1069.3186 503.68,1090.3186 " fill="none" id="Task-Building" style="stroke:#454645;stroke-width:2.5;"/><polygon fill="#000000" points="628.4752,630.2749,632.9378,619.7708,625.9114,619.1539,628.4752,630.2749" style="stroke:#000000;stroke-width:1.0;"/><text fill="#000000" font-family="Arial" font-size="16" lengthAdjust="spacing" textLength="93" x="640" y="630.1064">is associated</text><text fill="#000000" font-family="Arial" font-size="16" lengthAdjust="spacing" textLength="6" x="580.3938" y="221.2713">*</text><text fill="#000000" font-family="Arial" font-size="16" lengthAdjust="spacing" textLength="9" x="511.5169" y="1083.2874">1</text></g><!--MD5=[39c0e5650a00c2d710b2dfbef512e018]
link Task to Floor--><g id="link_Task_Floor"><path codeLine="135" d="M500,198.3486 C479.5,233.0586 459,278.9386 459,323.5986 C459,323.5986 459,323.5986 459,625.0986 C459,668.8086 457.79,718.5186 456.7,754.3586 " fill="none" id="Task-Floor" style="stroke:#454645;stroke-width:2.5;"/><polygon fill="#000000" points="464.5342,507.2797,468.8929,496.7322,461.8608,496.1846,464.5342,507.2797" style="stroke:#000000;stroke-width:1.0;"/><text fill="#000000" font-family="Arial" font-size="16" lengthAdjust="spacing" textLength="93" x="476" y="507.1064">is associated</text><text fill="#000000" font-family="Arial" font-size="16" lengthAdjust="spacing" textLength="6" x="488.9125" y="221.2713">*</text><text fill="#000000" font-family="Arial" font-size="16" lengthAdjust="spacing" textLength="9" x="447.3063" y="743.0924">1</text></g><!--MD5=[1fa17c01aca0af6dea663b3230eef11f]
link Task to Room--><g id="link_Task_Room"><path codeLine="136" d="M494.24,144.8286 C398.66,155.5186 186.11,184.9586 141,239.0986 C88.98,301.5286 101.88,404.2586 114.35,460.4086 " fill="none" id="Task-Room" style="stroke:#454645;stroke-width:2.5;"/><polygon fill="#000000" points="142.3847,328.6318,152.9874,324.4089,148.4803,318.9833,142.3847,328.6318" style="stroke:#000000;stroke-width:1.0;"/><text fill="#000000" font-family="Arial" font-size="16" lengthAdjust="spacing" textLength="93" x="158" y="330.6064">is associated</text><text fill="#000000" font-family="Arial" font-size="16" lengthAdjust="spacing" textLength="6" x="480.6205" y="141.3668">*</text><text fill="#000000" font-family="Arial" font-size="16" lengthAdjust="spacing" textLength="9" x="102.8408" y="449.2034">1</text></g><!--MD5=[1fa17c01aca0af6dea663b3230eef11f]
link Task to Room--><g id="link_Task_Room"><path codeLine="137" d="M494.24,150.6686 C445.55,163.8486 369.85,190.7686 322,239.0986 C270.76,290.8586 299.57,330.7286 256,389.0986 C232.02,421.2286 197.08,450.2386 169.31,470.5386 " fill="none" id="Task-Room-1" style="stroke:#454645;stroke-width:2.5;"/><polygon fill="#000000" points="323.7242,329.0071,333.9333,323.9058,328.9851,318.8793,323.7242,329.0071" style="stroke:#000000;stroke-width:1.0;"/><text fill="#000000" font-family="Arial" font-size="16" lengthAdjust="spacing" textLength="93" x="339" y="330.6064">is associated</text><text fill="#000000" font-family="Arial" font-size="16" lengthAdjust="spacing" textLength="6" x="480.6205" y="168.8573">*</text><text fill="#000000" font-family="Arial" font-size="16" lengthAdjust="spacing" textLength="9" x="177.0891" y="461.2578">1</text></g><!--MD5=[c5e482181cdba318cf437381c027c193]
link Task to NormalUser--><g id="link_Task_NormalUser"><path codeLine="138" d="M587.5,172.6286 C607.97,188.4186 631.32,208.6186 649,230.0986 C709.3,303.3486 757.13,404.8286 780.8,460.1686 " fill="none" id="Task-NormalUser" style="stroke:#454645;stroke-width:2.5;"/><polygon fill="#000000" points="755.3474,329.7773,752.2187,318.8018,746.365,322.737,755.3474,329.7773" style="stroke:#000000;stroke-width:1.0;"/><text fill="#000000" font-family="Arial" font-size="16" lengthAdjust="spacing" textLength="106" x="763" y="330.6064">is requested by</text><text fill="#000000" font-family="Arial" font-size="16" lengthAdjust="spacing" textLength="6" x="595.3891" y="173.5783">*</text><text fill="#000000" font-family="Arial" font-size="16" lengthAdjust="spacing" textLength="9" x="768.5009" y="449.235">1</text></g><!--MD5=[02d3134278b16d2554a34242b112680c]
link NormalUser to User--><g id="link_NormalUser_User"><path codeLine="141" d="M841.4,541.8286 C901.22,595.3386 1007.85,690.7386 1074.54,750.4086 " fill="none" id="NormalUser-to-User" style="stroke:#454645;stroke-width:2.5;"/><polygon fill="none" points="1079.53,745.4686,1089.77,764.0286,1070.19,755.9086,1079.53,745.4686" style="stroke:#454645;stroke-width:2.5;"/></g><!--MD5=[4c954221865a27285250f18f679eb9e5]
link SysAdmin to User--><g id="link_SysAdmin_User"><path codeLine="142" d="M1059.33,541.8286 C1070.66,581.5586 1088.58,644.3786 1104.03,698.5286 " fill="none" id="SysAdmin-to-User" style="stroke:#454645;stroke-width:2.5;"/><polygon fill="none" points="1110.84,696.8686,1109.59,718.0186,1097.37,700.7086,1110.84,696.8686" style="stroke:#454645;stroke-width:2.5;"/></g><!--MD5=[02b4be5268fe12dde2ec161c58bf6185]
link FleetManager to User--><g id="link_FleetManager_User"><path codeLine="143" d="M1209.54,541.8286 C1198.07,581.5586 1179.94,644.3786 1164.32,698.5286 " fill="none" id="FleetManager-to-User" style="stroke:#454645;stroke-width:2.5;"/><polygon fill="none" points="1170.96,700.7486,1158.69,718.0186,1157.51,696.8686,1170.96,700.7486" style="stroke:#454645;stroke-width:2.5;"/></g><!--MD5=[56288110b1ad0c3740e6d137ae5308e1]
link CampusManager to User--><g id="link_CampusManager_User"><path codeLine="144" d="M1445.7,541.8286 C1380.87,596.2686 1264.42,694.0686 1193.68,753.4786 " fill="none" id="CampusManager-to-User" style="stroke:#454645;stroke-width:2.5;"/><polygon fill="none" points="1197.84,759.1186,1178.03,766.6286,1188.84,748.3986,1197.84,759.1186" style="stroke:#454645;stroke-width:2.5;"/></g><!--MD5=[9e70cc62b0207b11b80ac51818063aad]
link Robot to Autonomous--><g id="link_Robot_Autonomous"><path codeLine="146" d="M1533.04,353.4386 C1577.82,381.7486 1647.73,425.9586 1699.11,458.4386 " fill="none" id="Robot-to-Autonomous" style="stroke:#454645;stroke-width:2.5;stroke-dasharray:7.0,7.0;"/><polygon fill="#454645" points="1703.4,461.1486,1697.9474,452.9469,1699.1793,458.4679,1693.6583,459.6999,1703.4,461.1486" style="stroke:#454645;stroke-width:2.5;"/></g><!--MD5=[b3ca492a6dade808af1b4cfcb3afa61c]
link Drone to Autonomous--><g id="link_Drone_Autonomous"><path codeLine="147" d="M1707.02,365.1986 C1717.31,389.1486 1730.58,420.0086 1741.82,446.1686 " fill="none" id="Drone-to-Autonomous" style="stroke:#454645;stroke-width:2.5;stroke-dasharray:7.0,7.0;"/><polygon fill="#454645" points="1743.89,450.9886,1744.0213,441.1407,1741.9204,446.3929,1736.6681,444.292,1743.89,450.9886" style="stroke:#454645;stroke-width:2.5;"/></g><!--MD5=[bc87e6d9c32002f9ca9d8821611a4688]
@startuml domain model
skinparam DefaultFontName Arial
skinparam DefaultFontSize 16
skinparam DefaultFontStyle bold
skinparam ArrowThickness 2.5
!theme toy

title domain model

package "<<aggregate>> Building"{

    entity Building <<entity>><<root>>{
        designation
    }

}

package "<<aggregate>> Elevator"{

    entity Elevator <<entity>><<root>>{
        designation
    }

}

package "<<aggregate>> Floor"{
    entity Floor <<entity>>{
        number
        information
    }
}

package "<<aggregate>> Room"{
    entity Room <<entity>>{
        number
    }
}

package "<<aggregate>> Passage"{
    entity Passage <<entity>>{
        
    }
}


package "<<aggregate>> User"{

    entity User <<entity>><<root>>{
        firstName
        lastName
        email
        password
        role
    }

}

package "<<aggregate>> NormalUser"{

    entity NormalUser <<entity>><<root>>{
        
    }

}

package "<<aggregate>> SysAdmin"{

    entity SysAdmin <<entity>><<root>>{
        
    }

}

package "<<aggregate>> FleetManager"{

    entity FleetManager <<entity>><<root>>{
        
    }

}

package "<<aggregate>> CampusManager"{

    entity CampusManager <<entity>><<root>>{
        
    }

}

package "IAutonomous"{

    interface Autonomous <<interface>>{
        designation
        state
    }

}

package "<<aggregate>> Robot"{

    entity Robot <<entity>><<root>>{
        
    }

}

package "<<aggregate>> Drone"{

    entity Drone <<entity>><<root>>{
        
    }

}

package "<<aggregate>> Task"{

    entity Task <<entity>><<root>>{
        type
        designation
    }

}

' connections
' building
Floor "*" - - - "1" Building: is associated >
Elevator "1" - - - "1" Building: is associated >

' floor
Room "*" - - - "1" Floor: is on >
Passage "*" - - - "1" Floor: connects >

' task
Task "*" - - - "1" Autonomous: is associated >
Task "*" - - - "1" Building: is associated >
Task "*" - - - "1" Floor: is associated >
Task "*" - - - "1" Room: is associated >
Task "*" - - - "1" Room: is associated >
Task "*" - - - "1" NormalUser: is requested by >

'hierarchy
NormalUser - - -|> User
SysAdmin - - -|> User
FleetManager - - -|> User
CampusManager - - -|> User

Robot -[dashed]-> Autonomous
Drone -[dashed]-> Autonomous

@enduml

@startuml domain model
skinparam DefaultFontName Arial
skinparam DefaultFontSize 16
skinparam DefaultFontStyle bold
skinparam ArrowThickness 2.5
skinparam BackgroundColor DDDDDD
skinparam shadowing false
skinparam RoundCorner 7
skinparam ArrowColor 454645
skinparam FontColor 454645
skinparam SequenceLifeLineBorderColor 454645
skinparam SequenceGroupHeaderFontColor 454645
skinparam SequenceGroupFontColor 454645
skinparam SequenceGroupBorderColor 454645
skinparam SequenceGroupBorderThickness 1

skinparam sequenceDivider {
    BorderColor 454645
    BorderThickness 1
    FontColor 454645
}

skinparam participant {
    BackgroundColor FF6F61
    BorderColor 454645
    FontColor White
    BorderThickness 1.5
}

skinparam database {
    BackgroundColor 98DDDE
    BorderColor 454645
    FontColor 454645
}

skinparam entity {
    BackgroundColor FFDA29
    BorderColor 454645
    FontColor 454645
}

skinparam note {
    BackgroundColor LightGreen
    BorderColor 454645
    FontColor 454645
    BorderThickness 1
}

skinparam actor {
    BackgroundColor 454645
    BorderColor 454645
    FontColor 454645
}

skinparam boundary {
    BackgroundColor FFDA29
    BorderColor 454645
    FontColor 454645
}

skinparam control {
    BackgroundColor FFDA29
    BorderColor 454645
    FontColor 454645
}

skinparam collections {
    BackgroundColor FF6F61
    BorderColor 454645
    FontColor 454645
    BorderThickness 1.5
}

skinparam queue {
    BackgroundColor FF6F61
    BorderColor 454645
    FontColor FFF
    BorderThickness 1.5
}

title domain model

package "<<aggregate>> Building"{

    entity Building <<entity>><<root>>{
        designation
    }

}

package "<<aggregate>> Elevator"{

    entity Elevator <<entity>><<root>>{
        designation
    }

}

package "<<aggregate>> Floor"{
    entity Floor <<entity>>{
        number
        information
    }
}

package "<<aggregate>> Room"{
    entity Room <<entity>>{
        number
    }
}

package "<<aggregate>> Passage"{
    entity Passage <<entity>>{
        
    }
}


package "<<aggregate>> User"{

    entity User <<entity>><<root>>{
        firstName
        lastName
        email
        password
        role
    }

}

package "<<aggregate>> NormalUser"{

    entity NormalUser <<entity>><<root>>{
        
    }

}

package "<<aggregate>> SysAdmin"{

    entity SysAdmin <<entity>><<root>>{
        
    }

}

package "<<aggregate>> FleetManager"{

    entity FleetManager <<entity>><<root>>{
        
    }

}

package "<<aggregate>> CampusManager"{

    entity CampusManager <<entity>><<root>>{
        
    }

}

package "IAutonomous"{

    interface Autonomous <<interface>>{
        designation
        state
    }

}

package "<<aggregate>> Robot"{

    entity Robot <<entity>><<root>>{
        
    }

}

package "<<aggregate>> Drone"{

    entity Drone <<entity>><<root>>{
        
    }

}

package "<<aggregate>> Task"{

    entity Task <<entity>><<root>>{
        type
        designation
    }

}

Floor "*" - - - "1" Building: is associated >
Elevator "1" - - - "1" Building: is associated >

Room "*" - - - "1" Floor: is on >
Passage "*" - - - "1" Floor: connects >

Task "*" - - - "1" Autonomous: is associated >
Task "*" - - - "1" Building: is associated >
Task "*" - - - "1" Floor: is associated >
Task "*" - - - "1" Room: is associated >
Task "*" - - - "1" Room: is associated >
Task "*" - - - "1" NormalUser: is requested by >

NormalUser - - -|> User
SysAdmin - - -|> User
FleetManager - - -|> User
CampusManager - - -|> User

Robot -[dashed]-> Autonomous
Drone -[dashed]-> Autonomous

@enduml

PlantUML version 1.2022.7(Mon Aug 22 18:01:30 WEST 2022)
(GPL source distribution)
Java Runtime: Java(TM) SE Runtime Environment
JVM: Java HotSpot(TM) 64-Bit Server VM
Default Encoding: UTF-8
Language: en
Country: US
--></g></svg>