<?xml version="1.0" encoding="UTF-8" standalone="no"?><svg xmlns="http://www.w3.org/2000/svg" xmlns:xlink="http://www.w3.org/1999/xlink" contentStyleType="text/css" height="1090px" preserveAspectRatio="none" style="width:1692px;height:1090px;background:#DDDDDD;" version="1.1" viewBox="0 0 1692 1090" width="1692px" zoomAndPan="magnify"><defs/><g><rect fill="#DDDDDD" height="26.0986" id="_title" rx="3.5" ry="3.5" style="stroke:none;stroke-width:1.0;" width="108" x="785" y="5"/><text fill="#000000" font-family="Arial" font-size="14" font-weight="bold" lengthAdjust="spacing" textLength="98" x="790" y="23.1318">domain model</text><!--MD5=[a8c72dcb0993599bf4f10d1dea215f72]
cluster <<aggregate>> Building--><g id="cluster_&lt;&lt;aggregate&gt;&gt; Building"><path d="M279.5,930.0986 L459.5,930.0986 A5.25,5.25 0 0 1 463,933.5986 L470,954.4971 L469.5,954.4971 A3.5,3.5 0 0 1 473,957.9971 L473,1079.5986 A3.5,3.5 0 0 1 469.5,1083.0986 L279.5,1083.0986 A3.5,3.5 0 0 1 276,1079.5986 L276,933.5986 A3.5,3.5 0 0 1 279.5,930.0986 " fill="none" style="stroke:#454645;stroke-width:1.0;"/><line style="stroke:#454645;stroke-width:1.0;" x1="276" x2="470" y1="954.4971" y2="954.4971"/><text fill="#000000" font-family="Arial" font-size="16" font-weight="bold" lengthAdjust="spacing" textLength="181" x="280" y="947.1064">&lt;&lt;aggregate&gt;&gt; Building</text></g><!--MD5=[552743ef28a091b760e47982fc011aa3]
cluster <<aggregate>> Elevator--><g id="cluster_&lt;&lt;aggregate&gt;&gt; Elevator"><path d="M73.5,645.0986 L252.5,645.0986 A5.25,5.25 0 0 1 256,648.5986 L263,669.4971 L262.5,669.4971 A3.5,3.5 0 0 1 266,672.9971 L266,812.5986 A3.5,3.5 0 0 1 262.5,816.0986 L73.5,816.0986 A3.5,3.5 0 0 1 70,812.5986 L70,648.5986 A3.5,3.5 0 0 1 73.5,645.0986 " fill="none" style="stroke:#454645;stroke-width:1.0;"/><line style="stroke:#454645;stroke-width:1.0;" x1="70" x2="263" y1="669.4971" y2="669.4971"/><text fill="#000000" font-family="Arial" font-size="16" font-weight="bold" lengthAdjust="spacing" textLength="180" x="74" y="662.1064">&lt;&lt;aggregate&gt;&gt; Elevator</text></g><!--MD5=[972ad7949a9b66febc90916d5366d5d5]
cluster <<aggregate>> Floor--><g id="cluster_&lt;&lt;aggregate&gt;&gt; Floor"><path d="M306.5,654.0986 L462.5,654.0986 A5.25,5.25 0 0 1 466,657.5986 L473,678.4971 L472.5,678.4971 A3.5,3.5 0 0 1 476,681.9971 L476,803.5986 A3.5,3.5 0 0 1 472.5,807.0986 L306.5,807.0986 A3.5,3.5 0 0 1 303,803.5986 L303,657.5986 A3.5,3.5 0 0 1 306.5,654.0986 " fill="none" style="stroke:#454645;stroke-width:1.0;"/><line style="stroke:#454645;stroke-width:1.0;" x1="303" x2="473" y1="678.4971" y2="678.4971"/><text fill="#000000" font-family="Arial" font-size="16" font-weight="bold" lengthAdjust="spacing" textLength="157" x="307" y="671.1064">&lt;&lt;aggregate&gt;&gt; Floor</text></g><!--MD5=[d6fe9085a7737064546745b532b972c1]
cluster <<aggregate>> Room--><g id="cluster_&lt;&lt;aggregate&gt;&gt; Room"><path d="M395.5,351.0986 L557.5,351.0986 A5.25,5.25 0 0 1 561,354.5986 L568,375.4971 L567.5,375.4971 A3.5,3.5 0 0 1 571,378.9971 L571,481.5986 A3.5,3.5 0 0 1 567.5,485.0986 L395.5,485.0986 A3.5,3.5 0 0 1 392,481.5986 L392,354.5986 A3.5,3.5 0 0 1 395.5,351.0986 " fill="none" style="stroke:#454645;stroke-width:1.0;"/><line style="stroke:#454645;stroke-width:1.0;" x1="392" x2="568" y1="375.4971" y2="375.4971"/><text fill="#000000" font-family="Arial" font-size="16" font-weight="bold" lengthAdjust="spacing" textLength="163" x="396" y="368.1064">&lt;&lt;aggregate&gt;&gt; Room</text></g><!--MD5=[adb50b40acd14a448a7dcdf1cde7ec0f]
cluster <<aggregate>> Passage--><g id="cluster_&lt;&lt;aggregate&gt;&gt; Passage"><path d="M9.5,360.0986 L191.5,360.0986 A5.25,5.25 0 0 1 195,363.5986 L202,384.4971 L201.5,384.4971 A3.5,3.5 0 0 1 205,387.9971 L205,472.5986 A3.5,3.5 0 0 1 201.5,476.0986 L9.5,476.0986 A3.5,3.5 0 0 1 6,472.5986 L6,363.5986 A3.5,3.5 0 0 1 9.5,360.0986 " fill="none" style="stroke:#454645;stroke-width:1.0;"/><line style="stroke:#454645;stroke-width:1.0;" x1="6" x2="202" y1="384.4971" y2="384.4971"/><text fill="#000000" font-family="Arial" font-size="16" font-weight="bold" lengthAdjust="spacing" textLength="183" x="10" y="377.1064">&lt;&lt;aggregate&gt;&gt; Passage</text></g><!--MD5=[597c9b6a35d8038d4b40fd8870ba90aa]
cluster <<aggregate>> User--><g id="cluster_&lt;&lt;aggregate&gt;&gt; User"><path d="M1050.5,70.5986 L1202.5,70.5986 A5.25,5.25 0 0 1 1206,74.0986 L1213,94.9971 L1681.5,94.9971 A3.5,3.5 0 0 1 1685,98.4971 L1685,527.5986 A3.5,3.5 0 0 1 1681.5,531.0986 L1050.5,531.0986 A3.5,3.5 0 0 1 1047,527.5986 L1047,74.0986 A3.5,3.5 0 0 1 1050.5,70.5986 " fill="none" style="stroke:#454645;stroke-width:1.0;"/><line style="stroke:#454645;stroke-width:1.0;" x1="1047" x2="1213" y1="94.9971" y2="94.9971"/><text fill="#000000" font-family="Arial" font-size="16" font-weight="bold" lengthAdjust="spacing" textLength="153" x="1051" y="87.6064">&lt;&lt;aggregate&gt;&gt; User</text></g><!--MD5=[01eb8843a2efdc6cc1edec43f7cf28d8]
cluster <<aggregate>> Robot--><g id="cluster_&lt;&lt;aggregate&gt;&gt; Robot"><path d="M642.5,351.0986 L805.5,351.0986 A5.25,5.25 0 0 1 809,354.5986 L816,375.4971 L815.5,375.4971 A3.5,3.5 0 0 1 819,378.9971 L819,481.5986 A3.5,3.5 0 0 1 815.5,485.0986 L642.5,485.0986 A3.5,3.5 0 0 1 639,481.5986 L639,354.5986 A3.5,3.5 0 0 1 642.5,351.0986 " fill="none" style="stroke:#454645;stroke-width:1.0;"/><line style="stroke:#454645;stroke-width:1.0;" x1="639" x2="816" y1="375.4971" y2="375.4971"/><text fill="#000000" font-family="Arial" font-size="16" font-weight="bold" lengthAdjust="spacing" textLength="164" x="643" y="368.1064">&lt;&lt;aggregate&gt;&gt; Robot</text></g><!--MD5=[d9aa454c42fd93450ccbe1a589b6c7c3]
cluster <<aggregate>> Drone--><g id="cluster_&lt;&lt;aggregate&gt;&gt; Drone"><path d="M846.5,351.0986 L1009.5,351.0986 A5.25,5.25 0 0 1 1013,354.5986 L1020,375.4971 L1019.5,375.4971 A3.5,3.5 0 0 1 1023,378.9971 L1023,481.5986 A3.5,3.5 0 0 1 1019.5,485.0986 L846.5,485.0986 A3.5,3.5 0 0 1 843,481.5986 L843,354.5986 A3.5,3.5 0 0 1 846.5,351.0986 " fill="none" style="stroke:#454645;stroke-width:1.0;"/><line style="stroke:#454645;stroke-width:1.0;" x1="843" x2="1020" y1="375.4971" y2="375.4971"/><text fill="#000000" font-family="Arial" font-size="16" font-weight="bold" lengthAdjust="spacing" textLength="164" x="847" y="368.1064">&lt;&lt;aggregate&gt;&gt; Drone</text></g><!--MD5=[4872a9da4fd8f336f0ba764de7d956d3]
cluster <<aggregate>> Task--><g id="cluster_&lt;&lt;aggregate&gt;&gt; Task"><path d="M569.5,43.0986 L722.5,43.0986 A5.25,5.25 0 0 1 726,46.5986 L733,67.4971 L732.5,67.4971 A3.5,3.5 0 0 1 736,70.9971 L736,210.5986 A3.5,3.5 0 0 1 732.5,214.0986 L569.5,214.0986 A3.5,3.5 0 0 1 566,210.5986 L566,46.5986 A3.5,3.5 0 0 1 569.5,43.0986 " fill="none" style="stroke:#454645;stroke-width:1.0;"/><line style="stroke:#454645;stroke-width:1.0;" x1="566" x2="733" y1="67.4971" y2="67.4971"/><text fill="#000000" font-family="Arial" font-size="16" font-weight="bold" lengthAdjust="spacing" textLength="154" x="570" y="60.1064">&lt;&lt;aggregate&gt;&gt; Task</text></g><!--MD5=[8560f289a30852a9f75d64e53f926853]
class Building--><g id="elem_Building"><rect codeLine="11" fill="#FFDA29" height="99.5938" id="Building" rx="3.5" ry="3.5" style="stroke:#454645;stroke-width:0.5;" width="93" x="327.5" y="967.0986"/><ellipse cx="344.75" cy="999.6963" fill="#ADD1B2" rx="11" ry="11" style="stroke:#181818;stroke-width:1.0;"/><path d="M343.9063,1000.2432 L343.9063,1002.5869 L348,1002.5869 L348,1001.7275 Q348,1001.1494 348.2188,1000.8994 Q348.4375,1000.6494 348.7969,1000.6494 Q349.1563,1000.6494 349.375,1000.8994 Q349.5938,1001.1494 349.5938,1001.7275 L349.5938,1004.1963 L342.0625,1004.1963 Q341.4844,1004.1963 341.2344,1003.9775 Q340.9844,1003.7432 340.9844,1003.3838 Q340.9844,1003.04 341.2344,1002.8213 Q341.4844,1002.5869 342.0625,1002.5869 L342.3125,1002.5869 L342.3125,996.3213 L342.0625,996.3213 Q341.4844,996.3213 341.2344,996.1025 Q340.9844,995.8838 340.9844,995.5244 Q340.9844,995.165 341.2344,994.9463 Q341.4844,994.7119 342.0625,994.7119 L349.25,994.7275 L349.25,997.165 Q349.25,997.7275 349.0313,997.9775 Q348.8125,998.2275 348.4531,998.2275 Q348.0938,998.2275 347.8594,997.9932 Q347.6406,997.7432 347.6406,997.165 L347.6406,996.3213 L343.9063,996.3213 L343.9063,998.6338 L345.3125,998.6338 Q345.3125,998.0088 345.4375,997.8369 Q345.6719,997.4463 346.125,997.4463 Q346.4688,997.4463 346.6875,997.6963 Q346.9219,997.9463 346.9219,998.5244 L346.9219,1000.3682 Q346.9219,1000.8838 346.7969,1001.0713 Q346.5469,1001.4307 346.125,1001.4307 Q345.6719,1001.4307 345.4375,1001.0557 Q345.3125,1000.8682 345.3125,1000.2432 L343.9063,1000.2432 Z " fill="#000000"/><text fill="#000000" font-family="Arial" font-size="16" font-weight="bold" lengthAdjust="spacing" textLength="60" x="357.25" y="987.1064">«entity»</text><text fill="#000000" font-family="Arial" font-size="16" font-weight="bold" lengthAdjust="spacing" textLength="49" x="362.75" y="1005.5049">«root»</text><text fill="#454645" font-family="Arial" font-size="16" lengthAdjust="spacing" textLength="56" x="359.25" y="1023.9033">Building</text><line style="stroke:#454645;stroke-width:0.5;" x1="328.5" x2="419.5" y1="1032.2939" y2="1032.2939"/><text fill="#454645" font-family="Arial" font-size="16" lengthAdjust="spacing" textLength="81" x="333.5" y="1051.3018">designation</text><line style="stroke:#454645;stroke-width:0.5;" x1="328.5" x2="419.5" y1="1058.6924" y2="1058.6924"/></g><!--MD5=[93e485d66e62470c0e68a81214641dfb]
class Elevator--><g id="elem_Elevator"><rect codeLine="19" fill="#FFDA29" height="117.9922" id="Elevator" rx="3.5" ry="3.5" style="stroke:#454645;stroke-width:0.5;" width="105" x="140.5" y="682.0986"/><ellipse cx="162.7" cy="714.6963" fill="#ADD1B2" rx="11" ry="11" style="stroke:#181818;stroke-width:1.0;"/><path d="M161.8563,715.2432 L161.8563,717.5869 L165.95,717.5869 L165.95,716.7275 Q165.95,716.1494 166.1688,715.8994 Q166.3875,715.6494 166.7469,715.6494 Q167.1063,715.6494 167.325,715.8994 Q167.5438,716.1494 167.5438,716.7275 L167.5438,719.1963 L160.0125,719.1963 Q159.4344,719.1963 159.1844,718.9775 Q158.9344,718.7432 158.9344,718.3838 Q158.9344,718.04 159.1844,717.8213 Q159.4344,717.5869 160.0125,717.5869 L160.2625,717.5869 L160.2625,711.3213 L160.0125,711.3213 Q159.4344,711.3213 159.1844,711.1025 Q158.9344,710.8838 158.9344,710.5244 Q158.9344,710.165 159.1844,709.9463 Q159.4344,709.7119 160.0125,709.7119 L167.2,709.7275 L167.2,712.165 Q167.2,712.7275 166.9813,712.9775 Q166.7625,713.2275 166.4031,713.2275 Q166.0438,713.2275 165.8094,712.9932 Q165.5906,712.7432 165.5906,712.165 L165.5906,711.3213 L161.8563,711.3213 L161.8563,713.6338 L163.2625,713.6338 Q163.2625,713.0088 163.3875,712.8369 Q163.6219,712.4463 164.075,712.4463 Q164.4188,712.4463 164.6375,712.6963 Q164.8719,712.9463 164.8719,713.5244 L164.8719,715.3682 Q164.8719,715.8838 164.7469,716.0713 Q164.4969,716.4307 164.075,716.4307 Q163.6219,716.4307 163.3875,716.0557 Q163.2625,715.8682 163.2625,715.2432 L161.8563,715.2432 Z " fill="#000000"/><text fill="#000000" font-family="Arial" font-size="16" font-weight="bold" lengthAdjust="spacing" textLength="60" x="176.8" y="702.1064">«entity»</text><text fill="#000000" font-family="Arial" font-size="16" font-weight="bold" lengthAdjust="spacing" textLength="49" x="182.3" y="720.5049">«root»</text><text fill="#454645" font-family="Arial" font-size="16" lengthAdjust="spacing" textLength="57" x="178.3" y="738.9033">Elevator</text><line style="stroke:#454645;stroke-width:0.5;" x1="141.5" x2="244.5" y1="747.2939" y2="747.2939"/><text fill="#454645" font-family="Arial" font-size="16" lengthAdjust="spacing" textLength="81" x="146.5" y="766.3018">designation</text><text fill="#454645" font-family="Arial" font-size="16" lengthAdjust="spacing" textLength="93" x="146.5" y="784.7002">floorsAllowed</text><line style="stroke:#454645;stroke-width:0.5;" x1="141.5" x2="244.5" y1="792.0908" y2="792.0908"/></g><!--MD5=[b098efa4dd65edfeebe973e4edec7c36]
class Floor--><g id="elem_Floor"><rect codeLine="27" fill="#FFDA29" height="99.5938" id="Floor" rx="3.5" ry="3.5" style="stroke:#454645;stroke-width:0.5;" width="89" x="326.5" y="691.0986"/><ellipse cx="341.95" cy="714.4971" fill="#ADD1B2" rx="11" ry="11" style="stroke:#181818;stroke-width:1.0;"/><path d="M341.1063,715.0439 L341.1063,717.3877 L345.2,717.3877 L345.2,716.5283 Q345.2,715.9502 345.4188,715.7002 Q345.6375,715.4502 345.9969,715.4502 Q346.3563,715.4502 346.575,715.7002 Q346.7938,715.9502 346.7938,716.5283 L346.7938,718.9971 L339.2625,718.9971 Q338.6844,718.9971 338.4344,718.7783 Q338.1844,718.5439 338.1844,718.1846 Q338.1844,717.8408 338.4344,717.6221 Q338.6844,717.3877 339.2625,717.3877 L339.5125,717.3877 L339.5125,711.1221 L339.2625,711.1221 Q338.6844,711.1221 338.4344,710.9033 Q338.1844,710.6846 338.1844,710.3252 Q338.1844,709.9658 338.4344,709.7471 Q338.6844,709.5127 339.2625,709.5127 L346.45,709.5283 L346.45,711.9658 Q346.45,712.5283 346.2313,712.7783 Q346.0125,713.0283 345.6531,713.0283 Q345.2938,713.0283 345.0594,712.7939 Q344.8406,712.5439 344.8406,711.9658 L344.8406,711.1221 L341.1063,711.1221 L341.1063,713.4346 L342.5125,713.4346 Q342.5125,712.8096 342.6375,712.6377 Q342.8719,712.2471 343.325,712.2471 Q343.6688,712.2471 343.8875,712.4971 Q344.1219,712.7471 344.1219,713.3252 L344.1219,715.1689 Q344.1219,715.6846 343.9969,715.8721 Q343.7469,716.2314 343.325,716.2314 Q342.8719,716.2314 342.6375,715.8564 Q342.5125,715.6689 342.5125,715.0439 L341.1063,715.0439 Z " fill="#000000"/><text fill="#000000" font-family="Arial" font-size="16" font-weight="bold" lengthAdjust="spacing" textLength="60" x="354.05" y="711.1064">«entity»</text><text fill="#454645" font-family="Arial" font-size="16" lengthAdjust="spacing" textLength="36" x="366.05" y="729.5049">Floor</text><line style="stroke:#454645;stroke-width:0.5;" x1="327.5" x2="414.5" y1="737.8955" y2="737.8955"/><text fill="#454645" font-family="Arial" font-size="16" lengthAdjust="spacing" textLength="52" x="332.5" y="756.9033">number</text><text fill="#454645" font-family="Arial" font-size="16" lengthAdjust="spacing" textLength="77" x="332.5" y="775.3018">information</text><line style="stroke:#454645;stroke-width:0.5;" x1="327.5" x2="414.5" y1="782.6924" y2="782.6924"/></g><!--MD5=[d218c48b946d362ff1ecd879cabebcad]
class Room--><g id="elem_Room"><rect codeLine="34" fill="#FFDA29" height="81.1953" id="Room" rx="3.5" ry="3.5" style="stroke:#454645;stroke-width:0.5;" width="88" x="411" y="388.0986"/><ellipse cx="426" cy="411.4971" fill="#ADD1B2" rx="11" ry="11" style="stroke:#181818;stroke-width:1.0;"/><path d="M425.1563,412.0439 L425.1563,414.3877 L429.25,414.3877 L429.25,413.5283 Q429.25,412.9502 429.4688,412.7002 Q429.6875,412.4502 430.0469,412.4502 Q430.4063,412.4502 430.625,412.7002 Q430.8438,412.9502 430.8438,413.5283 L430.8438,415.9971 L423.3125,415.9971 Q422.7344,415.9971 422.4844,415.7783 Q422.2344,415.5439 422.2344,415.1846 Q422.2344,414.8408 422.4844,414.6221 Q422.7344,414.3877 423.3125,414.3877 L423.5625,414.3877 L423.5625,408.1221 L423.3125,408.1221 Q422.7344,408.1221 422.4844,407.9033 Q422.2344,407.6846 422.2344,407.3252 Q422.2344,406.9658 422.4844,406.7471 Q422.7344,406.5127 423.3125,406.5127 L430.5,406.5283 L430.5,408.9658 Q430.5,409.5283 430.2813,409.7783 Q430.0625,410.0283 429.7031,410.0283 Q429.3438,410.0283 429.1094,409.7939 Q428.8906,409.5439 428.8906,408.9658 L428.8906,408.1221 L425.1563,408.1221 L425.1563,410.4346 L426.5625,410.4346 Q426.5625,409.8096 426.6875,409.6377 Q426.9219,409.2471 427.375,409.2471 Q427.7188,409.2471 427.9375,409.4971 Q428.1719,409.7471 428.1719,410.3252 L428.1719,412.1689 Q428.1719,412.6846 428.0469,412.8721 Q427.7969,413.2314 427.375,413.2314 Q426.9219,413.2314 426.6875,412.8564 Q426.5625,412.6689 426.5625,412.0439 L425.1563,412.0439 Z " fill="#000000"/><text fill="#000000" font-family="Arial" font-size="16" font-weight="bold" lengthAdjust="spacing" textLength="60" x="438" y="408.1064">«entity»</text><text fill="#454645" font-family="Arial" font-size="16" lengthAdjust="spacing" textLength="42" x="447" y="426.5049">Room</text><line style="stroke:#454645;stroke-width:0.5;" x1="412" x2="498" y1="434.8955" y2="434.8955"/><text fill="#454645" font-family="Arial" font-size="16" lengthAdjust="spacing" textLength="52" x="417" y="453.9033">number</text><line style="stroke:#454645;stroke-width:0.5;" x1="412" x2="498" y1="461.2939" y2="461.2939"/></g><!--MD5=[941b7aeffb035281a8311db077b9e408]
class Passage--><g id="elem_Passage"><rect codeLine="40" fill="#FFDA29" height="62.7969" id="Passage" rx="3.5" ry="3.5" style="stroke:#454645;stroke-width:0.5;" width="95" x="84.5" y="397.0986"/><ellipse cx="99.5" cy="420.4971" fill="#ADD1B2" rx="11" ry="11" style="stroke:#181818;stroke-width:1.0;"/><path d="M98.6563,421.0439 L98.6563,423.3877 L102.75,423.3877 L102.75,422.5283 Q102.75,421.9502 102.9688,421.7002 Q103.1875,421.4502 103.5469,421.4502 Q103.9063,421.4502 104.125,421.7002 Q104.3438,421.9502 104.3438,422.5283 L104.3438,424.9971 L96.8125,424.9971 Q96.2344,424.9971 95.9844,424.7783 Q95.7344,424.5439 95.7344,424.1846 Q95.7344,423.8408 95.9844,423.6221 Q96.2344,423.3877 96.8125,423.3877 L97.0625,423.3877 L97.0625,417.1221 L96.8125,417.1221 Q96.2344,417.1221 95.9844,416.9033 Q95.7344,416.6846 95.7344,416.3252 Q95.7344,415.9658 95.9844,415.7471 Q96.2344,415.5127 96.8125,415.5127 L104,415.5283 L104,417.9658 Q104,418.5283 103.7813,418.7783 Q103.5625,419.0283 103.2031,419.0283 Q102.8438,419.0283 102.6094,418.7939 Q102.3906,418.5439 102.3906,417.9658 L102.3906,417.1221 L98.6563,417.1221 L98.6563,419.4346 L100.0625,419.4346 Q100.0625,418.8096 100.1875,418.6377 Q100.4219,418.2471 100.875,418.2471 Q101.2188,418.2471 101.4375,418.4971 Q101.6719,418.7471 101.6719,419.3252 L101.6719,421.1689 Q101.6719,421.6846 101.5469,421.8721 Q101.2969,422.2314 100.875,422.2314 Q100.4219,422.2314 100.1875,421.8564 Q100.0625,421.6689 100.0625,421.0439 L98.6563,421.0439 Z " fill="#000000"/><text fill="#000000" font-family="Arial" font-size="16" font-weight="bold" lengthAdjust="spacing" textLength="60" x="115" y="417.1064">«entity»</text><text fill="#454645" font-family="Arial" font-size="16" lengthAdjust="spacing" textLength="63" x="113.5" y="435.5049">Passage</text><line style="stroke:#454645;stroke-width:0.5;" x1="85.5" x2="178.5" y1="443.8955" y2="443.8955"/><line style="stroke:#454645;stroke-width:0.5;" x1="85.5" x2="178.5" y1="451.8955" y2="451.8955"/></g><!--MD5=[3fd616f346a44cd59a91eb10b19e157c]
class User--><g id="elem_User"><rect codeLine="48" fill="#FFDA29" height="173.1875" id="User" rx="3.5" ry="3.5" style="stroke:#454645;stroke-width:0.5;" width="88" x="1272" y="342.0986"/><ellipse cx="1287" cy="374.6963" fill="#ADD1B2" rx="11" ry="11" style="stroke:#181818;stroke-width:1.0;"/><path d="M1286.1563,375.2432 L1286.1563,377.5869 L1290.25,377.5869 L1290.25,376.7275 Q1290.25,376.1494 1290.4688,375.8994 Q1290.6875,375.6494 1291.0469,375.6494 Q1291.4063,375.6494 1291.625,375.8994 Q1291.8438,376.1494 1291.8438,376.7275 L1291.8438,379.1963 L1284.3125,379.1963 Q1283.7344,379.1963 1283.4844,378.9775 Q1283.2344,378.7432 1283.2344,378.3838 Q1283.2344,378.04 1283.4844,377.8213 Q1283.7344,377.5869 1284.3125,377.5869 L1284.5625,377.5869 L1284.5625,371.3213 L1284.3125,371.3213 Q1283.7344,371.3213 1283.4844,371.1025 Q1283.2344,370.8838 1283.2344,370.5244 Q1283.2344,370.165 1283.4844,369.9463 Q1283.7344,369.7119 1284.3125,369.7119 L1291.5,369.7275 L1291.5,372.165 Q1291.5,372.7275 1291.2813,372.9775 Q1291.0625,373.2275 1290.7031,373.2275 Q1290.3438,373.2275 1290.1094,372.9932 Q1289.8906,372.7432 1289.8906,372.165 L1289.8906,371.3213 L1286.1563,371.3213 L1286.1563,373.6338 L1287.5625,373.6338 Q1287.5625,373.0088 1287.6875,372.8369 Q1287.9219,372.4463 1288.375,372.4463 Q1288.7188,372.4463 1288.9375,372.6963 Q1289.1719,372.9463 1289.1719,373.5244 L1289.1719,375.3682 Q1289.1719,375.8838 1289.0469,376.0713 Q1288.7969,376.4307 1288.375,376.4307 Q1287.9219,376.4307 1287.6875,376.0557 Q1287.5625,375.8682 1287.5625,375.2432 L1286.1563,375.2432 Z " fill="#000000"/><text fill="#000000" font-family="Arial" font-size="16" font-weight="bold" lengthAdjust="spacing" textLength="60" x="1299" y="362.1064">«entity»</text><text fill="#000000" font-family="Arial" font-size="16" font-weight="bold" lengthAdjust="spacing" textLength="49" x="1304.5" y="380.5049">«root»</text><text fill="#454645" font-family="Arial" font-size="16" lengthAdjust="spacing" textLength="33" x="1312.5" y="398.9033">User</text><line style="stroke:#454645;stroke-width:0.5;" x1="1273" x2="1359" y1="407.2939" y2="407.2939"/><text fill="#454645" font-family="Arial" font-size="16" lengthAdjust="spacing" textLength="67" x="1278" y="426.3018">firstName</text><text fill="#454645" font-family="Arial" font-size="16" lengthAdjust="spacing" textLength="66" x="1278" y="444.7002">lastName</text><text fill="#454645" font-family="Arial" font-size="16" lengthAdjust="spacing" textLength="38" x="1278" y="463.0986">email</text><text fill="#454645" font-family="Arial" font-size="16" lengthAdjust="spacing" textLength="68" x="1278" y="481.4971">password</text><text fill="#454645" font-family="Arial" font-size="16" lengthAdjust="spacing" textLength="26" x="1278" y="499.8955">role</text><line style="stroke:#454645;stroke-width:0.5;" x1="1273" x2="1359" y1="507.2861" y2="507.2861"/></g><!--MD5=[121330b00a863f09dfc695730d4d9fa4]
class NormalUser--><g id="elem_NormalUser"><rect codeLine="56" fill="#FFDA29" height="62.7969" id="NormalUser" rx="3.5" ry="3.5" style="stroke:#454645;stroke-width:0.5;" width="115" x="1553.5" y="107.5986"/><ellipse cx="1568.5" cy="130.9971" fill="#ADD1B2" rx="11" ry="11" style="stroke:#181818;stroke-width:1.0;"/><path d="M1567.6563,131.5439 L1567.6563,133.8877 L1571.75,133.8877 L1571.75,133.0283 Q1571.75,132.4502 1571.9688,132.2002 Q1572.1875,131.9502 1572.5469,131.9502 Q1572.9063,131.9502 1573.125,132.2002 Q1573.3438,132.4502 1573.3438,133.0283 L1573.3438,135.4971 L1565.8125,135.4971 Q1565.2344,135.4971 1564.9844,135.2783 Q1564.7344,135.0439 1564.7344,134.6846 Q1564.7344,134.3408 1564.9844,134.1221 Q1565.2344,133.8877 1565.8125,133.8877 L1566.0625,133.8877 L1566.0625,127.6221 L1565.8125,127.6221 Q1565.2344,127.6221 1564.9844,127.4033 Q1564.7344,127.1846 1564.7344,126.8252 Q1564.7344,126.4658 1564.9844,126.2471 Q1565.2344,126.0127 1565.8125,126.0127 L1573,126.0283 L1573,128.4658 Q1573,129.0283 1572.7813,129.2783 Q1572.5625,129.5283 1572.2031,129.5283 Q1571.8438,129.5283 1571.6094,129.2939 Q1571.3906,129.0439 1571.3906,128.4658 L1571.3906,127.6221 L1567.6563,127.6221 L1567.6563,129.9346 L1569.0625,129.9346 Q1569.0625,129.3096 1569.1875,129.1377 Q1569.4219,128.7471 1569.875,128.7471 Q1570.2188,128.7471 1570.4375,128.9971 Q1570.6719,129.2471 1570.6719,129.8252 L1570.6719,131.6689 Q1570.6719,132.1846 1570.5469,132.3721 Q1570.2969,132.7314 1569.875,132.7314 Q1569.4219,132.7314 1569.1875,132.3564 Q1569.0625,132.1689 1569.0625,131.5439 L1567.6563,131.5439 Z " fill="#000000"/><text fill="#000000" font-family="Arial" font-size="16" font-weight="bold" lengthAdjust="spacing" textLength="60" x="1594" y="127.6064">«entity»</text><text fill="#454645" font-family="Arial" font-size="16" lengthAdjust="spacing" textLength="83" x="1582.5" y="146.0049">NormalUser</text><line style="stroke:#454645;stroke-width:0.5;" x1="1554.5" x2="1667.5" y1="154.3955" y2="154.3955"/><line style="stroke:#454645;stroke-width:0.5;" x1="1554.5" x2="1667.5" y1="162.3955" y2="162.3955"/></g><!--MD5=[4e6d5047b6be9817e817e50ef20dd2b3]
class SysAdmin--><g id="elem_SysAdmin"><rect codeLine="59" fill="#FFDA29" height="62.7969" id="SysAdmin" rx="3.5" ry="3.5" style="stroke:#454645;stroke-width:0.5;" width="103" x="1415.5" y="107.5986"/><ellipse cx="1430.5" cy="130.9971" fill="#ADD1B2" rx="11" ry="11" style="stroke:#181818;stroke-width:1.0;"/><path d="M1429.6563,131.5439 L1429.6563,133.8877 L1433.75,133.8877 L1433.75,133.0283 Q1433.75,132.4502 1433.9688,132.2002 Q1434.1875,131.9502 1434.5469,131.9502 Q1434.9063,131.9502 1435.125,132.2002 Q1435.3438,132.4502 1435.3438,133.0283 L1435.3438,135.4971 L1427.8125,135.4971 Q1427.2344,135.4971 1426.9844,135.2783 Q1426.7344,135.0439 1426.7344,134.6846 Q1426.7344,134.3408 1426.9844,134.1221 Q1427.2344,133.8877 1427.8125,133.8877 L1428.0625,133.8877 L1428.0625,127.6221 L1427.8125,127.6221 Q1427.2344,127.6221 1426.9844,127.4033 Q1426.7344,127.1846 1426.7344,126.8252 Q1426.7344,126.4658 1426.9844,126.2471 Q1427.2344,126.0127 1427.8125,126.0127 L1435,126.0283 L1435,128.4658 Q1435,129.0283 1434.7813,129.2783 Q1434.5625,129.5283 1434.2031,129.5283 Q1433.8438,129.5283 1433.6094,129.2939 Q1433.3906,129.0439 1433.3906,128.4658 L1433.3906,127.6221 L1429.6563,127.6221 L1429.6563,129.9346 L1431.0625,129.9346 Q1431.0625,129.3096 1431.1875,129.1377 Q1431.4219,128.7471 1431.875,128.7471 Q1432.2188,128.7471 1432.4375,128.9971 Q1432.6719,129.2471 1432.6719,129.8252 L1432.6719,131.6689 Q1432.6719,132.1846 1432.5469,132.3721 Q1432.2969,132.7314 1431.875,132.7314 Q1431.4219,132.7314 1431.1875,132.3564 Q1431.0625,132.1689 1431.0625,131.5439 L1429.6563,131.5439 Z " fill="#000000"/><text fill="#000000" font-family="Arial" font-size="16" font-weight="bold" lengthAdjust="spacing" textLength="60" x="1450" y="127.6064">«entity»</text><text fill="#454645" font-family="Arial" font-size="16" lengthAdjust="spacing" textLength="71" x="1444.5" y="146.0049">SysAdmin</text><line style="stroke:#454645;stroke-width:0.5;" x1="1416.5" x2="1517.5" y1="154.3955" y2="154.3955"/><line style="stroke:#454645;stroke-width:0.5;" x1="1416.5" x2="1517.5" y1="162.3955" y2="162.3955"/></g><!--MD5=[019a73386217e12d5bb8e34bf0b46b9e]
class FleetManager--><g id="elem_FleetManager"><rect codeLine="62" fill="#FFDA29" height="62.7969" id="FleetManager" rx="3.5" ry="3.5" style="stroke:#454645;stroke-width:0.5;" width="129" x="1251.5" y="107.5986"/><ellipse cx="1266.5" cy="130.9971" fill="#ADD1B2" rx="11" ry="11" style="stroke:#181818;stroke-width:1.0;"/><path d="M1265.6563,131.5439 L1265.6563,133.8877 L1269.75,133.8877 L1269.75,133.0283 Q1269.75,132.4502 1269.9688,132.2002 Q1270.1875,131.9502 1270.5469,131.9502 Q1270.9063,131.9502 1271.125,132.2002 Q1271.3438,132.4502 1271.3438,133.0283 L1271.3438,135.4971 L1263.8125,135.4971 Q1263.2344,135.4971 1262.9844,135.2783 Q1262.7344,135.0439 1262.7344,134.6846 Q1262.7344,134.3408 1262.9844,134.1221 Q1263.2344,133.8877 1263.8125,133.8877 L1264.0625,133.8877 L1264.0625,127.6221 L1263.8125,127.6221 Q1263.2344,127.6221 1262.9844,127.4033 Q1262.7344,127.1846 1262.7344,126.8252 Q1262.7344,126.4658 1262.9844,126.2471 Q1263.2344,126.0127 1263.8125,126.0127 L1271,126.0283 L1271,128.4658 Q1271,129.0283 1270.7813,129.2783 Q1270.5625,129.5283 1270.2031,129.5283 Q1269.8438,129.5283 1269.6094,129.2939 Q1269.3906,129.0439 1269.3906,128.4658 L1269.3906,127.6221 L1265.6563,127.6221 L1265.6563,129.9346 L1267.0625,129.9346 Q1267.0625,129.3096 1267.1875,129.1377 Q1267.4219,128.7471 1267.875,128.7471 Q1268.2188,128.7471 1268.4375,128.9971 Q1268.6719,129.2471 1268.6719,129.8252 L1268.6719,131.6689 Q1268.6719,132.1846 1268.5469,132.3721 Q1268.2969,132.7314 1267.875,132.7314 Q1267.4219,132.7314 1267.1875,132.3564 Q1267.0625,132.1689 1267.0625,131.5439 L1265.6563,131.5439 Z " fill="#000000"/><text fill="#000000" font-family="Arial" font-size="16" font-weight="bold" lengthAdjust="spacing" textLength="60" x="1299" y="127.6064">«entity»</text><text fill="#454645" font-family="Arial" font-size="16" lengthAdjust="spacing" textLength="97" x="1280.5" y="146.0049">FleetManager</text><line style="stroke:#454645;stroke-width:0.5;" x1="1252.5" x2="1379.5" y1="154.3955" y2="154.3955"/><line style="stroke:#454645;stroke-width:0.5;" x1="1252.5" x2="1379.5" y1="162.3955" y2="162.3955"/></g><!--MD5=[e7635fb2ead244948613c027165ff74d]
class CampusManager--><g id="elem_CampusManager"><rect codeLine="65" fill="#FFDA29" height="62.7969" id="CampusManager" rx="3.5" ry="3.5" style="stroke:#454645;stroke-width:0.5;" width="153" x="1063.5" y="107.5986"/><ellipse cx="1078.5" cy="130.9971" fill="#ADD1B2" rx="11" ry="11" style="stroke:#181818;stroke-width:1.0;"/><path d="M1077.6563,131.5439 L1077.6563,133.8877 L1081.75,133.8877 L1081.75,133.0283 Q1081.75,132.4502 1081.9688,132.2002 Q1082.1875,131.9502 1082.5469,131.9502 Q1082.9063,131.9502 1083.125,132.2002 Q1083.3438,132.4502 1083.3438,133.0283 L1083.3438,135.4971 L1075.8125,135.4971 Q1075.2344,135.4971 1074.9844,135.2783 Q1074.7344,135.0439 1074.7344,134.6846 Q1074.7344,134.3408 1074.9844,134.1221 Q1075.2344,133.8877 1075.8125,133.8877 L1076.0625,133.8877 L1076.0625,127.6221 L1075.8125,127.6221 Q1075.2344,127.6221 1074.9844,127.4033 Q1074.7344,127.1846 1074.7344,126.8252 Q1074.7344,126.4658 1074.9844,126.2471 Q1075.2344,126.0127 1075.8125,126.0127 L1083,126.0283 L1083,128.4658 Q1083,129.0283 1082.7813,129.2783 Q1082.5625,129.5283 1082.2031,129.5283 Q1081.8438,129.5283 1081.6094,129.2939 Q1081.3906,129.0439 1081.3906,128.4658 L1081.3906,127.6221 L1077.6563,127.6221 L1077.6563,129.9346 L1079.0625,129.9346 Q1079.0625,129.3096 1079.1875,129.1377 Q1079.4219,128.7471 1079.875,128.7471 Q1080.2188,128.7471 1080.4375,128.9971 Q1080.6719,129.2471 1080.6719,129.8252 L1080.6719,131.6689 Q1080.6719,132.1846 1080.5469,132.3721 Q1080.2969,132.7314 1079.875,132.7314 Q1079.4219,132.7314 1079.1875,132.3564 Q1079.0625,132.1689 1079.0625,131.5439 L1077.6563,131.5439 Z " fill="#000000"/><text fill="#000000" font-family="Arial" font-size="16" font-weight="bold" lengthAdjust="spacing" textLength="60" x="1123" y="127.6064">«entity»</text><text fill="#454645" font-family="Arial" font-size="16" lengthAdjust="spacing" textLength="121" x="1092.5" y="146.0049">CampusManager</text><line style="stroke:#454645;stroke-width:0.5;" x1="1064.5" x2="1215.5" y1="154.3955" y2="154.3955"/><line style="stroke:#454645;stroke-width:0.5;" x1="1064.5" x2="1215.5" y1="162.3955" y2="162.3955"/></g><!--MD5=[60fb4f72b7635aa97affd2efc062a79f]
class Robot--><g id="elem_Robot"><rect codeLine="73" fill="#FFDA29" height="81.1953" id="Robot" rx="3.5" ry="3.5" style="stroke:#454645;stroke-width:0.5;" width="88" x="658" y="388.0986"/><ellipse cx="673" cy="420.6963" fill="#ADD1B2" rx="11" ry="11" style="stroke:#181818;stroke-width:1.0;"/><path d="M672.1563,421.2432 L672.1563,423.5869 L676.25,423.5869 L676.25,422.7275 Q676.25,422.1494 676.4688,421.8994 Q676.6875,421.6494 677.0469,421.6494 Q677.4063,421.6494 677.625,421.8994 Q677.8438,422.1494 677.8438,422.7275 L677.8438,425.1963 L670.3125,425.1963 Q669.7344,425.1963 669.4844,424.9775 Q669.2344,424.7432 669.2344,424.3838 Q669.2344,424.04 669.4844,423.8213 Q669.7344,423.5869 670.3125,423.5869 L670.5625,423.5869 L670.5625,417.3213 L670.3125,417.3213 Q669.7344,417.3213 669.4844,417.1025 Q669.2344,416.8838 669.2344,416.5244 Q669.2344,416.165 669.4844,415.9463 Q669.7344,415.7119 670.3125,415.7119 L677.5,415.7275 L677.5,418.165 Q677.5,418.7275 677.2813,418.9775 Q677.0625,419.2275 676.7031,419.2275 Q676.3438,419.2275 676.1094,418.9932 Q675.8906,418.7432 675.8906,418.165 L675.8906,417.3213 L672.1563,417.3213 L672.1563,419.6338 L673.5625,419.6338 Q673.5625,419.0088 673.6875,418.8369 Q673.9219,418.4463 674.375,418.4463 Q674.7188,418.4463 674.9375,418.6963 Q675.1719,418.9463 675.1719,419.5244 L675.1719,421.3682 Q675.1719,421.8838 675.0469,422.0713 Q674.7969,422.4307 674.375,422.4307 Q673.9219,422.4307 673.6875,422.0557 Q673.5625,421.8682 673.5625,421.2432 L672.1563,421.2432 Z " fill="#000000"/><text fill="#000000" font-family="Arial" font-size="16" font-weight="bold" lengthAdjust="spacing" textLength="60" x="685" y="408.1064">«entity»</text><text fill="#000000" font-family="Arial" font-size="16" font-weight="bold" lengthAdjust="spacing" textLength="49" x="690.5" y="426.5049">«root»</text><text fill="#454645" font-family="Arial" font-size="16" lengthAdjust="spacing" textLength="42" x="694" y="444.9033">Robot</text><line style="stroke:#454645;stroke-width:0.5;" x1="659" x2="745" y1="453.2939" y2="453.2939"/><line style="stroke:#454645;stroke-width:0.5;" x1="659" x2="745" y1="461.2939" y2="461.2939"/></g><!--MD5=[2e3f1e60e74253ff42e47f8bfdb04ee2]
class Drone--><g id="elem_Drone"><rect codeLine="81" fill="#FFDA29" height="81.1953" id="Drone" rx="3.5" ry="3.5" style="stroke:#454645;stroke-width:0.5;" width="88" x="859" y="388.0986"/><ellipse cx="874" cy="420.6963" fill="#ADD1B2" rx="11" ry="11" style="stroke:#181818;stroke-width:1.0;"/><path d="M873.1563,421.2432 L873.1563,423.5869 L877.25,423.5869 L877.25,422.7275 Q877.25,422.1494 877.4688,421.8994 Q877.6875,421.6494 878.0469,421.6494 Q878.4063,421.6494 878.625,421.8994 Q878.8438,422.1494 878.8438,422.7275 L878.8438,425.1963 L871.3125,425.1963 Q870.7344,425.1963 870.4844,424.9775 Q870.2344,424.7432 870.2344,424.3838 Q870.2344,424.04 870.4844,423.8213 Q870.7344,423.5869 871.3125,423.5869 L871.5625,423.5869 L871.5625,417.3213 L871.3125,417.3213 Q870.7344,417.3213 870.4844,417.1025 Q870.2344,416.8838 870.2344,416.5244 Q870.2344,416.165 870.4844,415.9463 Q870.7344,415.7119 871.3125,415.7119 L878.5,415.7275 L878.5,418.165 Q878.5,418.7275 878.2813,418.9775 Q878.0625,419.2275 877.7031,419.2275 Q877.3438,419.2275 877.1094,418.9932 Q876.8906,418.7432 876.8906,418.165 L876.8906,417.3213 L873.1563,417.3213 L873.1563,419.6338 L874.5625,419.6338 Q874.5625,419.0088 874.6875,418.8369 Q874.9219,418.4463 875.375,418.4463 Q875.7188,418.4463 875.9375,418.6963 Q876.1719,418.9463 876.1719,419.5244 L876.1719,421.3682 Q876.1719,421.8838 876.0469,422.0713 Q875.7969,422.4307 875.375,422.4307 Q874.9219,422.4307 874.6875,422.0557 Q874.5625,421.8682 874.5625,421.2432 L873.1563,421.2432 Z " fill="#000000"/><text fill="#000000" font-family="Arial" font-size="16" font-weight="bold" lengthAdjust="spacing" textLength="60" x="886" y="408.1064">«entity»</text><text fill="#000000" font-family="Arial" font-size="16" font-weight="bold" lengthAdjust="spacing" textLength="49" x="891.5" y="426.5049">«root»</text><text fill="#454645" font-family="Arial" font-size="16" lengthAdjust="spacing" textLength="43" x="894.5" y="444.9033">Drone</text><line style="stroke:#454645;stroke-width:0.5;" x1="860" x2="946" y1="453.2939" y2="453.2939"/><line style="stroke:#454645;stroke-width:0.5;" x1="860" x2="946" y1="461.2939" y2="461.2939"/></g><!--MD5=[b34797a66dc35cbf1d65f7e3ca75530e]
class Task--><g id="elem_Task"><rect codeLine="89" fill="#FFDA29" height="117.9922" id="Task" rx="3.5" ry="3.5" style="stroke:#454645;stroke-width:0.5;" width="93" x="604.5" y="80.0986"/><ellipse cx="621.75" cy="112.6963" fill="#ADD1B2" rx="11" ry="11" style="stroke:#181818;stroke-width:1.0;"/><path d="M620.9063,113.2432 L620.9063,115.5869 L625,115.5869 L625,114.7275 Q625,114.1494 625.2188,113.8994 Q625.4375,113.6494 625.7969,113.6494 Q626.1563,113.6494 626.375,113.8994 Q626.5938,114.1494 626.5938,114.7275 L626.5938,117.1963 L619.0625,117.1963 Q618.4844,117.1963 618.2344,116.9775 Q617.9844,116.7432 617.9844,116.3838 Q617.9844,116.04 618.2344,115.8213 Q618.4844,115.5869 619.0625,115.5869 L619.3125,115.5869 L619.3125,109.3213 L619.0625,109.3213 Q618.4844,109.3213 618.2344,109.1025 Q617.9844,108.8838 617.9844,108.5244 Q617.9844,108.165 618.2344,107.9463 Q618.4844,107.7119 619.0625,107.7119 L626.25,107.7275 L626.25,110.165 Q626.25,110.7275 626.0313,110.9775 Q625.8125,111.2275 625.4531,111.2275 Q625.0938,111.2275 624.8594,110.9932 Q624.6406,110.7432 624.6406,110.165 L624.6406,109.3213 L620.9063,109.3213 L620.9063,111.6338 L622.3125,111.6338 Q622.3125,111.0088 622.4375,110.8369 Q622.6719,110.4463 623.125,110.4463 Q623.4688,110.4463 623.6875,110.6963 Q623.9219,110.9463 623.9219,111.5244 L623.9219,113.3682 Q623.9219,113.8838 623.7969,114.0713 Q623.5469,114.4307 623.125,114.4307 Q622.6719,114.4307 622.4375,114.0557 Q622.3125,113.8682 622.3125,113.2432 L620.9063,113.2432 Z " fill="#000000"/><text fill="#000000" font-family="Arial" font-size="16" font-weight="bold" lengthAdjust="spacing" textLength="60" x="634.25" y="100.1064">«entity»</text><text fill="#000000" font-family="Arial" font-size="16" font-weight="bold" lengthAdjust="spacing" textLength="49" x="639.75" y="118.5049">«root»</text><text fill="#454645" font-family="Arial" font-size="16" lengthAdjust="spacing" textLength="34" x="647.25" y="136.9033">Task</text><line style="stroke:#454645;stroke-width:0.5;" x1="605.5" x2="696.5" y1="145.2939" y2="145.2939"/><text fill="#454645" font-family="Arial" font-size="16" lengthAdjust="spacing" textLength="29" x="610.5" y="164.3018">type</text><text fill="#454645" font-family="Arial" font-size="16" lengthAdjust="spacing" textLength="81" x="610.5" y="182.7002">designation</text><line style="stroke:#454645;stroke-width:0.5;" x1="605.5" x2="696.5" y1="190.0908" y2="190.0908"/></g><!--MD5=[9bd558bda1c2c091fafbb27e99354104]
link Floor to Building--><g id="link_Floor_Building"><path codeLine="98" d="M371.54,791.3986 C372.08,841.0086 372.92,917.0986 373.46,966.7286 " fill="none" id="Floor-Building" style="stroke:#454645;stroke-width:2.5;"/><polygon fill="#000000" points="378.0657,879.2975,381.4733,868.4054,374.4203,868.4827,378.0657,879.2975" style="stroke:#000000;stroke-width:1.0;"/><text fill="#000000" font-family="Arial" font-size="16" lengthAdjust="spacing" textLength="93" x="389" y="879.1064">is associated</text><text fill="#000000" font-family="Arial" font-size="16" lengthAdjust="spacing" textLength="6" x="365.2402" y="813.6827">*</text><text fill="#000000" font-family="Arial" font-size="16" lengthAdjust="spacing" textLength="9" x="363.7827" y="955.8127">1</text></g><!--MD5=[1dd60bc0b0635924addc1af56fecdedc]
link Elevator to Building--><g id="link_Elevator_Building"><path codeLine="99" d="M212.66,800.2086 C222.82,826.5486 236.56,857.4586 253,883.0986 C273.9,915.6786 302.94,947.9086 327.33,972.4686 " fill="none" id="Elevator-Building" style="stroke:#454645;stroke-width:2.5;"/><polygon fill="#000000" points="262.3248,878.2924,259.2459,867.3029,253.3745,871.2114,262.3248,878.2924" style="stroke:#000000;stroke-width:1.0;"/><text fill="#000000" font-family="Arial" font-size="16" lengthAdjust="spacing" textLength="93" x="270" y="879.1064">is associated</text><text fill="#000000" font-family="Arial" font-size="16" lengthAdjust="spacing" textLength="9" x="205.4129" y="823.1152">1</text><text fill="#000000" font-family="Arial" font-size="16" lengthAdjust="spacing" textLength="9" x="310.4946" y="961.326">1</text></g><!--MD5=[92d0919ae475adb8a5bbe41b23e4e52c]
link Room to Floor--><g id="link_Room_Floor"><path codeLine="102" d="M444.28,469.2386 C428.97,525.8086 400.89,629.6186 384.29,690.9786 " fill="none" id="Room-Floor" style="stroke:#454645;stroke-width:2.5;"/><polygon fill="#000000" points="418.4331,594.0896,424.672,584.5332,417.8633,582.6912,418.4331,594.0896" style="stroke:#000000;stroke-width:1.0;"/><text fill="#000000" font-family="Arial" font-size="16" lengthAdjust="spacing" textLength="33" x="431" y="594.1064">is on</text><text fill="#000000" font-family="Arial" font-size="16" lengthAdjust="spacing" textLength="6" x="436.0934" y="492.174">*</text><text fill="#000000" font-family="Arial" font-size="16" lengthAdjust="spacing" textLength="9" x="376.5261" y="679.7293">1</text></g><!--MD5=[b799bec8400e9de87652545c025c9ef0]
link Passage to Floor--><g id="link_Passage_Floor"><path codeLine="103" d="M128.39,460.2886 C125.81,497.1186 127.24,558.8186 159,598.0986 C182.98,627.7486 203.21,615.9486 239,629.0986 C249.16,632.8286 252.75,631.4786 262,637.0986 C285.92,651.6286 308.97,672.1186 327.67,690.9986 " fill="none" id="Passage-Floor" style="stroke:#454645;stroke-width:2.5;"/><polygon fill="#000000" points="168.9221,592.8385,164.4959,582.3191,159.1581,586.9297,168.9221,592.8385" style="stroke:#000000;stroke-width:1.0;"/><text fill="#000000" font-family="Arial" font-size="16" lengthAdjust="spacing" textLength="62" x="176" y="594.1064">connects</text><text fill="#000000" font-family="Arial" font-size="16" lengthAdjust="spacing" textLength="6" x="121.1713" y="482.8541">*</text><text fill="#000000" font-family="Arial" font-size="16" lengthAdjust="spacing" textLength="9" x="311.9439" y="679.7521">1</text></g><!--MD5=[96e927cd17b3c7404e5e35cb8257ec10]
link Task to Robot--><g id="link_Task_Robot"><path codeLine="106" d="M661.32,198.2786 C671.33,254.7186 686.25,338.8386 694.97,387.9586 " fill="none" id="Task-Robot" style="stroke:#454645;stroke-width:2.5;"/><polygon fill="#000000" points="682.0481,277.2056,683.6246,265.9023,676.6796,267.1344,682.0481,277.2056" style="stroke:#000000;stroke-width:1.0;"/><text fill="#000000" font-family="Arial" font-size="16" lengthAdjust="spacing" textLength="93" x="692" y="277.1064">is associated</text><text fill="#000000" font-family="Arial" font-size="16" lengthAdjust="spacing" textLength="6" x="656.1664" y="221.1932">*</text><text fill="#000000" font-family="Arial" font-size="16" lengthAdjust="spacing" textLength="9" x="684.0603" y="376.7616">1</text></g><!--MD5=[1c5b9580215916d3fd46efd55428a01c]
link Task to Drone--><g id="link_Task_Drone"><path codeLine="107" d="M697.81,174.1086 C727.3,196.8286 765.13,228.4586 794,261.0986 C829.13,300.8286 861.32,352.7786 881.47,387.9986 " fill="none" id="Task-Drone" style="stroke:#454645;stroke-width:2.5;"/><polygon fill="#000000" points="818.9087,275.85,814.5134,265.3176,809.1621,269.9126,818.9087,275.85" style="stroke:#000000;stroke-width:1.0;"/><text fill="#000000" font-family="Arial" font-size="16" lengthAdjust="spacing" textLength="93" x="826" y="277.1064">is associated</text><text fill="#000000" font-family="Arial" font-size="16" lengthAdjust="spacing" textLength="6" x="705.4372" y="195.8866">*</text><text fill="#000000" font-family="Arial" font-size="16" lengthAdjust="spacing" textLength="9" x="868.1588" y="376.8083">1</text></g><!--MD5=[c1ad4beca86ed0f46fe6ea685f79752d]
link Task to Building--><g id="link_Task_Building"><path codeLine="108" d="M621.09,198.1186 C612.3,220.0786 605,245.6786 605,270.0986 C605,270.0986 605,270.0986 605,874.0986 C605,959.7786 488.25,995.3986 420.75,1008.8386 " fill="none" id="Task-Building" style="stroke:#454645;stroke-width:2.5;"/><polygon fill="#000000" points="609.5606,594.1226,615.5882,584.4315,608.7408,582.7394,609.5606,594.1226" style="stroke:#000000;stroke-width:1.0;"/><text fill="#000000" font-family="Arial" font-size="16" lengthAdjust="spacing" textLength="93" x="622" y="594.1064">is associated</text><text fill="#000000" font-family="Arial" font-size="16" lengthAdjust="spacing" textLength="6" x="611.2848" y="221.0147">*</text><text fill="#000000" font-family="Arial" font-size="16" lengthAdjust="spacing" textLength="9" x="428.5977" y="1003.2651">1</text></g><!--MD5=[39c0e5650a00c2d710b2dfbef512e018]
link Task to Floor--><g id="link_Task_Floor"><path codeLine="109" d="M604.44,145.7886 C501.78,159.6186 265,199.2086 265,270.0986 C265,270.0986 265,270.0986 265,589.0986 C265,634.4186 297.38,675.7686 326.35,703.6986 " fill="none" id="Task-Floor" style="stroke:#454645;stroke-width:2.5;"/><polygon fill="#000000" points="268.3234,434.1677,276.3218,426.0268,270.0091,422.8802,268.3234,434.1677" style="stroke:#000000;stroke-width:1.0;"/><text fill="#000000" font-family="Arial" font-size="16" lengthAdjust="spacing" textLength="93" x="282" y="434.6064">is associated</text><text fill="#000000" font-family="Arial" font-size="16" lengthAdjust="spacing" textLength="6" x="590.5414" y="142.4607">*</text><text fill="#000000" font-family="Arial" font-size="16" lengthAdjust="spacing" textLength="9" x="309.5167" y="714.2443">1</text></g><!--MD5=[1fa17c01aca0af6dea663b3230eef11f]
link Task to Room--><g id="link_Task_Room"><path codeLine="110" d="M604.09,157.0986 C560.69,175.5186 498.44,209.4086 468,261.0986 C445.27,299.6986 445.24,352.3486 448.79,388.0386 " fill="none" id="Task-Room" style="stroke:#454645;stroke-width:2.5;"/><polygon fill="#000000" points="470.6518,276.2768,479.6353,269.2378,473.7822,265.3018,470.6518,276.2768" style="stroke:#000000;stroke-width:1.0;"/><text fill="#000000" font-family="Arial" font-size="16" lengthAdjust="spacing" textLength="93" x="485" y="277.1064">is associated</text><text fill="#000000" font-family="Arial" font-size="16" lengthAdjust="spacing" textLength="6" x="590.4475" y="176.2719">*</text><text fill="#000000" font-family="Arial" font-size="16" lengthAdjust="spacing" textLength="9" x="438.0162" y="376.8549">1</text></g><!--MD5=[59f436a63fd120c4f40f9b73b6fc58b5]
link Task to User--><g id="link_Task_User"><path codeLine="111" d="M697.76,160.3186 C820.75,213.4886 1152.02,356.6986 1271.92,408.5386 " fill="none" id="Task-User" style="stroke:#454645;stroke-width:2.5;"/><polygon fill="#000000" points="986.5074,273.6788,977.9439,266.1345,975.145,272.6088,986.5074,273.6788" style="stroke:#000000;stroke-width:1.0;"/><text fill="#000000" font-family="Arial" font-size="16" lengthAdjust="spacing" textLength="106" x="992" y="277.1064">is requested by</text><text fill="#000000" font-family="Arial" font-size="16" lengthAdjust="spacing" textLength="6" x="705.3795" y="159.2287">*</text><text fill="#000000" font-family="Arial" font-size="16" lengthAdjust="spacing" textLength="9" x="1254.8739" y="400.7509">1</text></g><!--MD5=[02d3134278b16d2554a34242b112680c]
link NormalUser to User--><g id="link_NormalUser_User"><path codeLine="114" d="M1584.13,170.6186 C1570.07,186.2786 1552.42,205.5086 1536,222.0986 C1483.22,275.4386 1420.44,333.5786 1375.49,374.3686 " fill="none" id="NormalUser-to-User" style="stroke:#454645;stroke-width:2.5;"/><polygon fill="none" points="1379.9,379.8086,1360.37,388.0386,1370.51,369.4286,1379.9,379.8086" style="stroke:#454645;stroke-width:2.5;"/></g><!--MD5=[4c954221865a27285250f18f679eb9e5]
link SysAdmin to User--><g id="link_SysAdmin_User"><path codeLine="115" d="M1450.84,170.8686 C1431.49,207.7086 1398.08,271.3086 1369.37,325.9886 " fill="none" id="SysAdmin-to-User" style="stroke:#454645;stroke-width:2.5;"/><polygon fill="none" points="1375.53,329.3086,1360.03,343.7586,1363.14,322.7986,1375.53,329.3086" style="stroke:#454645;stroke-width:2.5;"/></g><!--MD5=[02b4be5268fe12dde2ec161c58bf6185]
link FleetManager to User--><g id="link_FleetManager_User"><path codeLine="116" d="M1316,170.8686 C1316,206.7686 1316,268.0686 1316,321.7686 " fill="none" id="FleetManager-to-User" style="stroke:#454645;stroke-width:2.5;"/><polygon fill="none" points="1323,321.9086,1316,341.9086,1309,321.9086,1323,321.9086" style="stroke:#454645;stroke-width:2.5;"/></g><!--MD5=[56288110b1ad0c3740e6d137ae5308e1]
link CampusManager to User--><g id="link_CampusManager_User"><path codeLine="117" d="M1158.84,170.8686 C1183.11,210.5086 1226.34,281.1286 1261.32,338.2786 " fill="none" id="CampusManager-to-User" style="stroke:#454645;stroke-width:2.5;"/><polygon fill="none" points="1267.41,334.8286,1271.89,355.5386,1255.47,342.1386,1267.41,334.8286" style="stroke:#454645;stroke-width:2.5;"/></g><!--MD5=[12b659daf3e6076b4f0974ea29767267]
@startuml domain model
skinparam DefaultFontName Arial
skinparam DefaultFontSize 16
skinparam DefaultFontStyle bold
skinparam ArrowThickness 2.5
!theme toy

title domain model

package "<<aggregate>> Building"{

    entity Building <<entity>><<root>>{
        designation
    }

}

package "<<aggregate>> Elevator"{

    entity Elevator <<entity>><<root>>{
        designation
        floorsAllowed
    }

}

package "<<aggregate>> Floor"{
    entity Floor <<entity>>{
        number
        information
    }
}

package "<<aggregate>> Room"{
    entity Room <<entity>>{
        number
    }
}

package "<<aggregate>> Passage"{
    entity Passage <<entity>>{

    }
}


package "<<aggregate>> User"{

    entity User <<entity>><<root>>{
        firstName
        lastName
        email
        password
        role
    }

    entity NormalUser <<entity>>{

    }
    entity SysAdmin <<entity>>{

    }
    entity FleetManager <<entity>>{

    }
    entity CampusManager <<entity>>{

    }

}

package "<<aggregate>> Robot"{

    entity Robot <<entity>><<root>>{

    }

}

package "<<aggregate>> Drone"{

    entity Drone <<entity>><<root>>{

    }

}

package "<<aggregate>> Task"{

    entity Task <<entity>><<root>>{
        type
        designation
    }

}

' connections
' building
Floor "*" - - - "1" Building: is associated >
Elevator "1" - - - "1" Building: is associated >

' floor
Room "*" - - - "1" Floor: is on >
Passage "*" - - - "1" Floor: connects >

' task
Task "*" - - - "1" Robot: is associated >
Task "*" - - - "1" Drone: is associated >
Task "*" - - - "1" Building: is associated >
Task "*" - - - "1" Floor: is associated >
Task "*" - - - "1" Room: is associated >
Task "*" - - - "1" User: is requested by >

'hierarchy
NormalUser - - -|> User
SysAdmin - - -|> User
FleetManager - - -|> User
CampusManager - - -|> User


@enduml

@startuml domain model
skinparam DefaultFontName Arial
skinparam DefaultFontSize 16
skinparam DefaultFontStyle bold
skinparam ArrowThickness 2.5
skinparam BackgroundColor DDDDDD
skinparam shadowing false
skinparam RoundCorner 7
skinparam ArrowColor 454645
skinparam FontColor 454645
skinparam SequenceLifeLineBorderColor 454645
skinparam SequenceGroupHeaderFontColor 454645
skinparam SequenceGroupFontColor 454645
skinparam SequenceGroupBorderColor 454645
skinparam SequenceGroupBorderThickness 1

skinparam sequenceDivider {
    BorderColor 454645
    BorderThickness 1
    FontColor 454645
}

skinparam participant {
    BackgroundColor FF6F61
    BorderColor 454645
    FontColor White
    BorderThickness 1.5
}

skinparam database {
    BackgroundColor 98DDDE
    BorderColor 454645
    FontColor 454645
}

skinparam entity {
    BackgroundColor FFDA29
    BorderColor 454645
    FontColor 454645
}

skinparam note {
    BackgroundColor LightGreen
    BorderColor 454645
    FontColor 454645
    BorderThickness 1
}

skinparam actor {
    BackgroundColor 454645
    BorderColor 454645
    FontColor 454645
}

skinparam boundary {
    BackgroundColor FFDA29
    BorderColor 454645
    FontColor 454645
}

skinparam control {
    BackgroundColor FFDA29
    BorderColor 454645
    FontColor 454645
}

skinparam collections {
    BackgroundColor FF6F61
    BorderColor 454645
    FontColor 454645
    BorderThickness 1.5
}

skinparam queue {
    BackgroundColor FF6F61
    BorderColor 454645
    FontColor FFF
    BorderThickness 1.5
}

title domain model

package "<<aggregate>> Building"{

    entity Building <<entity>><<root>>{
        designation
    }

}

package "<<aggregate>> Elevator"{

    entity Elevator <<entity>><<root>>{
        designation
        floorsAllowed
    }

}

package "<<aggregate>> Floor"{
    entity Floor <<entity>>{
        number
        information
    }
}

package "<<aggregate>> Room"{
    entity Room <<entity>>{
        number
    }
}

package "<<aggregate>> Passage"{
    entity Passage <<entity>>{

    }
}


package "<<aggregate>> User"{

    entity User <<entity>><<root>>{
        firstName
        lastName
        email
        password
        role
    }

    entity NormalUser <<entity>>{

    }
    entity SysAdmin <<entity>>{

    }
    entity FleetManager <<entity>>{

    }
    entity CampusManager <<entity>>{

    }

}

package "<<aggregate>> Robot"{

    entity Robot <<entity>><<root>>{

    }

}

package "<<aggregate>> Drone"{

    entity Drone <<entity>><<root>>{

    }

}

package "<<aggregate>> Task"{

    entity Task <<entity>><<root>>{
        type
        designation
    }

}

Floor "*" - - - "1" Building: is associated >
Elevator "1" - - - "1" Building: is associated >

Room "*" - - - "1" Floor: is on >
Passage "*" - - - "1" Floor: connects >

Task "*" - - - "1" Robot: is associated >
Task "*" - - - "1" Drone: is associated >
Task "*" - - - "1" Building: is associated >
Task "*" - - - "1" Floor: is associated >
Task "*" - - - "1" Room: is associated >
Task "*" - - - "1" User: is requested by >

NormalUser - - -|> User
SysAdmin - - -|> User
FleetManager - - -|> User
CampusManager - - -|> User


@enduml

PlantUML version 1.2022.7(Mon Aug 22 18:01:30 WEST 2022)
(GPL source distribution)
Java Runtime: Java(TM) SE Runtime Environment
JVM: Java HotSpot(TM) 64-Bit Server VM
Default Encoding: UTF-8
Language: en
Country: US
--></g></svg>