<?xml version="1.0" encoding="UTF-8" standalone="no"?><svg xmlns="http://www.w3.org/2000/svg" xmlns:xlink="http://www.w3.org/1999/xlink" contentStyleType="text/css" height="2050px" preserveAspectRatio="none" style="width:1211px;height:2050px;background:#DDDDDD;" version="1.1" viewBox="0 0 1211 2050" width="1211px" zoomAndPan="magnify"><defs/><g><rect fill="#DDDDDD" height="2050" style="stroke:none;stroke-width:1.0;" width="1211" x="0" y="0"/><text fill="#000000" font-family="Arial" font-size="14" font-weight="bold" lengthAdjust="spacing" textLength="98" x="549.5" y="23.1318">domain model</text><!--cluster <<aggregate>> Building--><g id="cluster_&lt;&lt;aggregate&gt;&gt; Building"><path d="M549.5,1854.0986 L711.5,1854.0986 A5.25,5.25 0 0 1 715,1857.5986 L722,1878.4971 L721.5,1878.4971 A3.5,3.5 0 0 1 725,1881.9971 L725,2039.5986 A3.5,3.5 0 0 1 721.5,2043.0986 L549.5,2043.0986 A3.5,3.5 0 0 1 546,2039.5986 L546,1857.5986 A3.5,3.5 0 0 1 549.5,1854.0986 " fill="none" style="stroke:#454645;stroke-width:1.0;"/><line style="stroke:#454645;stroke-width:1.0;" x1="546" x2="722" y1="1878.4971" y2="1878.4971"/><text fill="#000000" font-family="Arial" font-size="16" font-weight="bold" lengthAdjust="spacing" textLength="163" x="550" y="1871.1064">«aggregate» Building</text></g><!--cluster <<aggregate>> Elevator--><g id="cluster_&lt;&lt;aggregate&gt;&gt; Elevator"><path d="M9.5,1197.0986 L170.5,1197.0986 A5.25,5.25 0 0 1 174,1200.5986 L181,1221.4971 L180.5,1221.4971 A3.5,3.5 0 0 1 184,1224.9971 L184,1346.5986 A3.5,3.5 0 0 1 180.5,1350.0986 L9.5,1350.0986 A3.5,3.5 0 0 1 6,1346.5986 L6,1200.5986 A3.5,3.5 0 0 1 9.5,1197.0986 " fill="none" style="stroke:#454645;stroke-width:1.0;"/><line style="stroke:#454645;stroke-width:1.0;" x1="6" x2="181" y1="1221.4971" y2="1221.4971"/><text fill="#000000" font-family="Arial" font-size="16" font-weight="bold" lengthAdjust="spacing" textLength="162" x="10" y="1214.1064">«aggregate» Elevator</text></g><!--cluster <<aggregate>> Floor--><g id="cluster_&lt;&lt;aggregate&gt;&gt; Floor"><path d="M561.5,1569.0986 L699.5,1569.0986 A5.25,5.25 0 0 1 703,1572.5986 L710,1593.4971 L709.5,1593.4971 A3.5,3.5 0 0 1 713,1596.9971 L713,1736.5986 A3.5,3.5 0 0 1 709.5,1740.0986 L561.5,1740.0986 A3.5,3.5 0 0 1 558,1736.5986 L558,1572.5986 A3.5,3.5 0 0 1 561.5,1569.0986 " fill="none" style="stroke:#454645;stroke-width:1.0;"/><line style="stroke:#454645;stroke-width:1.0;" x1="558" x2="710" y1="1593.4971" y2="1593.4971"/><text fill="#000000" font-family="Arial" font-size="16" font-weight="bold" lengthAdjust="spacing" textLength="139" x="562" y="1586.1064">«aggregate» Floor</text></g><!--cluster <<aggregate>> Room--><g id="cluster_&lt;&lt;aggregate&gt;&gt; Room"><path d="M629.5,1206.5986 L773.5,1206.5986 A5.25,5.25 0 0 1 777,1210.0986 L784,1230.9971 L783.5,1230.9971 A3.5,3.5 0 0 1 787,1234.4971 L787,1337.0986 A3.5,3.5 0 0 1 783.5,1340.5986 L629.5,1340.5986 A3.5,3.5 0 0 1 626,1337.0986 L626,1210.0986 A3.5,3.5 0 0 1 629.5,1206.5986 " fill="none" style="stroke:#454645;stroke-width:1.0;"/><line style="stroke:#454645;stroke-width:1.0;" x1="626" x2="784" y1="1230.9971" y2="1230.9971"/><text fill="#000000" font-family="Arial" font-size="16" font-weight="bold" lengthAdjust="spacing" textLength="145" x="630" y="1223.6064">«aggregate» Room</text></g><!--cluster <<aggregate>> Passage--><g id="cluster_&lt;&lt;aggregate&gt;&gt; Passage"><path d="M814.5,1206.5986 L978.5,1206.5986 A5.25,5.25 0 0 1 982,1210.0986 L989,1230.9971 L988.5,1230.9971 A3.5,3.5 0 0 1 992,1234.4971 L992,1337.0986 A3.5,3.5 0 0 1 988.5,1340.5986 L814.5,1340.5986 A3.5,3.5 0 0 1 811,1337.0986 L811,1210.0986 A3.5,3.5 0 0 1 814.5,1206.5986 " fill="none" style="stroke:#454645;stroke-width:1.0;"/><line style="stroke:#454645;stroke-width:1.0;" x1="811" x2="989" y1="1230.9971" y2="1230.9971"/><text fill="#000000" font-family="Arial" font-size="16" font-weight="bold" lengthAdjust="spacing" textLength="165" x="815" y="1223.6064">«aggregate» Passage</text></g><!--cluster <<aggregate>> User--><g id="cluster_&lt;&lt;aggregate&gt;&gt; User"><path d="M160.5,938.0986 L294.5,938.0986 A5.25,5.25 0 0 1 298,941.5986 L305,962.4971 L304.5,962.4971 A3.5,3.5 0 0 1 308,965.9971 L308,1160.5986 A3.5,3.5 0 0 1 304.5,1164.0986 L160.5,1164.0986 A3.5,3.5 0 0 1 157,1160.5986 L157,941.5986 A3.5,3.5 0 0 1 160.5,938.0986 " fill="none" style="stroke:#454645;stroke-width:1.0;"/><line style="stroke:#454645;stroke-width:1.0;" x1="157" x2="305" y1="962.4971" y2="962.4971"/><text fill="#000000" font-family="Arial" font-size="16" font-weight="bold" lengthAdjust="spacing" textLength="135" x="161" y="955.1064">«aggregate» User</text></g><!--cluster <<aggregate>> Robot--><g id="cluster_&lt;&lt;aggregate&gt;&gt; Robot"><path d="M955.5,43.0986 L1100.5,43.0986 A5.25,5.25 0 0 1 1104,46.5986 L1111,67.4971 L1110.5,67.4971 A3.5,3.5 0 0 1 1114,70.9971 L1114,265.5986 A3.5,3.5 0 0 1 1110.5,269.0986 L955.5,269.0986 A3.5,3.5 0 0 1 952,265.5986 L952,46.5986 A3.5,3.5 0 0 1 955.5,43.0986 " fill="none" style="stroke:#454645;stroke-width:1.0;"/><line style="stroke:#454645;stroke-width:1.0;" x1="952" x2="1111" y1="67.4971" y2="67.4971"/><text fill="#000000" font-family="Arial" font-size="16" font-weight="bold" lengthAdjust="spacing" textLength="146" x="956" y="60.1064">«aggregate» Robot</text></g><!--cluster <<aggregate>> RobotType--><g id="cluster_&lt;&lt;aggregate&gt;&gt; RobotType"><path d="M843.5,392.5986 L1026.5,392.5986 A5.25,5.25 0 0 1 1030,396.0986 L1037,416.9971 L1036.5,416.9971 A3.5,3.5 0 0 1 1040,420.4971 L1040,578.0986 A3.5,3.5 0 0 1 1036.5,581.5986 L843.5,581.5986 A3.5,3.5 0 0 1 840,578.0986 L840,396.0986 A3.5,3.5 0 0 1 843.5,392.5986 " fill="none" style="stroke:#454645;stroke-width:1.0;"/><line style="stroke:#454645;stroke-width:1.0;" x1="840" x2="1037" y1="416.9971" y2="416.9971"/><text fill="#000000" font-family="Arial" font-size="16" font-weight="bold" lengthAdjust="spacing" textLength="184" x="844" y="409.6064">«aggregate» RobotType</text></g><!--cluster <<aggregate>> Role--><g id="cluster_&lt;&lt;aggregate&gt;&gt; Role"><path d="M216.5,1383.0986 L349.5,1383.0986 A5.25,5.25 0 0 1 353,1386.5986 L360,1407.4971 L359.5,1407.4971 A3.5,3.5 0 0 1 363,1410.9971 L363,1532.5986 A3.5,3.5 0 0 1 359.5,1536.0986 L216.5,1536.0986 A3.5,3.5 0 0 1 213,1532.5986 L213,1386.5986 A3.5,3.5 0 0 1 216.5,1383.0986 " fill="none" style="stroke:#454645;stroke-width:1.0;"/><line style="stroke:#454645;stroke-width:1.0;" x1="213" x2="360" y1="1407.4971" y2="1407.4971"/><text fill="#000000" font-family="Arial" font-size="16" font-weight="bold" lengthAdjust="spacing" textLength="134" x="217" y="1400.1064">«aggregate» Role</text></g><!--cluster <<aggregate>> Task--><g id="cluster_&lt;&lt;aggregate&gt;&gt; Task"><path d="M304.5,383.0986 L439.5,383.0986 A5.25,5.25 0 0 1 443,386.5986 L450,407.4971 L457.5,407.4971 A3.5,3.5 0 0 1 461,410.9971 L461,587.5986 A3.5,3.5 0 0 1 457.5,591.0986 L304.5,591.0986 A3.5,3.5 0 0 1 301,587.5986 L301,386.5986 A3.5,3.5 0 0 1 304.5,383.0986 " fill="none" style="stroke:#454645;stroke-width:1.0;"/><line style="stroke:#454645;stroke-width:1.0;" x1="301" x2="450" y1="407.4971" y2="407.4971"/><text fill="#000000" font-family="Arial" font-size="16" font-weight="bold" lengthAdjust="spacing" textLength="136" x="305" y="400.1064">«aggregate» Task</text></g><!--cluster <<aggregate>> SurveillanceTask--><g id="cluster_&lt;&lt;aggregate&gt;&gt; SurveillanceTask"><path d="M375.5,688.0986 L604.5,688.0986 A5.25,5.25 0 0 1 608,691.5986 L615,712.4971 L614.5,712.4971 A3.5,3.5 0 0 1 618,715.9971 L618,837.5986 A3.5,3.5 0 0 1 614.5,841.0986 L375.5,841.0986 A3.5,3.5 0 0 1 372,837.5986 L372,691.5986 A3.5,3.5 0 0 1 375.5,688.0986 " fill="none" style="stroke:#454645;stroke-width:1.0;"/><line style="stroke:#454645;stroke-width:1.0;" x1="372" x2="615" y1="712.4971" y2="712.4971"/><text fill="#000000" font-family="Arial" font-size="16" font-weight="bold" lengthAdjust="spacing" textLength="230" x="376" y="705.1064">«aggregate» SurveillanceTask</text></g><!--cluster <<aggregate>> PickupDeliveryTask--><g id="cluster_&lt;&lt;aggregate&gt;&gt; PickupDeliveryTask"><path d="M645.5,624.0986 L895.5,624.0986 A5.25,5.25 0 0 1 899,627.5986 L906,648.4971 L905.5,648.4971 A3.5,3.5 0 0 1 909,651.9971 L909,901.5986 A3.5,3.5 0 0 1 905.5,905.0986 L645.5,905.0986 A3.5,3.5 0 0 1 642,901.5986 L642,627.5986 A3.5,3.5 0 0 1 645.5,624.0986 " fill="none" style="stroke:#454645;stroke-width:1.0;"/><line style="stroke:#454645;stroke-width:1.0;" x1="642" x2="906" y1="648.4971" y2="648.4971"/><text fill="#000000" font-family="Arial" font-size="16" font-weight="bold" lengthAdjust="spacing" textLength="251" x="646" y="641.1064">«aggregate» PickupDeliveryTask</text></g><!--cluster <<aggregate>> Planning--><g id="cluster_&lt;&lt;aggregate&gt;&gt; Planning"><path d="M102.5,79.5986 L268.5,79.5986 A5.25,5.25 0 0 1 272,83.0986 L279,103.9971 L278.5,103.9971 A3.5,3.5 0 0 1 282,107.4971 L282,229.0986 A3.5,3.5 0 0 1 278.5,232.5986 L102.5,232.5986 A3.5,3.5 0 0 1 99,229.0986 L99,83.0986 A3.5,3.5 0 0 1 102.5,79.5986 " fill="none" style="stroke:#454645;stroke-width:1.0;"/><line style="stroke:#454645;stroke-width:1.0;" x1="99" x2="279" y1="103.9971" y2="103.9971"/><text fill="#000000" font-family="Arial" font-size="16" font-weight="bold" lengthAdjust="spacing" textLength="167" x="103" y="96.6064">«aggregate» Planning</text></g><!--cluster <<aggregate>> TaskType--><g id="cluster_&lt;&lt;aggregate&gt;&gt; TaskType"><path d="M995.5,965.5986 L1168.5,965.5986 A5.25,5.25 0 0 1 1172,969.0986 L1179,989.9971 L1178.5,989.9971 A3.5,3.5 0 0 1 1182,993.4971 L1182,1133.0986 A3.5,3.5 0 0 1 1178.5,1136.5986 L995.5,1136.5986 A3.5,3.5 0 0 1 992,1133.0986 L992,969.0986 A3.5,3.5 0 0 1 995.5,965.5986 " fill="none" style="stroke:#454645;stroke-width:1.0;"/><line style="stroke:#454645;stroke-width:1.0;" x1="992" x2="1179" y1="989.9971" y2="989.9971"/><text fill="#000000" font-family="Arial" font-size="16" font-weight="bold" lengthAdjust="spacing" textLength="174" x="996" y="982.6064">«aggregate» TaskType</text></g><!--class Building--><g id="elem_Building"><rect codeLine="11" fill="#F1F1F1" height="136.3906" id="Building" rx="3.5" ry="3.5" style="stroke:#181818;stroke-width:0.5;" width="92" x="589" y="1891.0986"/><ellipse cx="605.8" cy="1923.6963" fill="#ADD1B2" rx="11" ry="11" style="stroke:#181818;stroke-width:1.0;"/><path d="M604.9563,1924.2432 L604.9563,1926.5869 L609.05,1926.5869 L609.05,1925.7275 Q609.05,1925.1494 609.2688,1924.8994 Q609.4875,1924.6494 609.8469,1924.6494 Q610.2063,1924.6494 610.425,1924.8994 Q610.6438,1925.1494 610.6438,1925.7275 L610.6438,1928.1963 L603.1125,1928.1963 Q602.5344,1928.1963 602.2844,1927.9775 Q602.0344,1927.7432 602.0344,1927.3838 Q602.0344,1927.04 602.2844,1926.8213 Q602.5344,1926.5869 603.1125,1926.5869 L603.3625,1926.5869 L603.3625,1920.3213 L603.1125,1920.3213 Q602.5344,1920.3213 602.2844,1920.1025 Q602.0344,1919.8838 602.0344,1919.5244 Q602.0344,1919.165 602.2844,1918.9463 Q602.5344,1918.7119 603.1125,1918.7119 L610.3,1918.7275 L610.3,1921.165 Q610.3,1921.7275 610.0813,1921.9775 Q609.8625,1922.2275 609.5031,1922.2275 Q609.1438,1922.2275 608.9094,1921.9932 Q608.6906,1921.7432 608.6906,1921.165 L608.6906,1920.3213 L604.9563,1920.3213 L604.9563,1922.6338 L606.3625,1922.6338 Q606.3625,1922.0088 606.4875,1921.8369 Q606.7219,1921.4463 607.175,1921.4463 Q607.5188,1921.4463 607.7375,1921.6963 Q607.9719,1921.9463 607.9719,1922.5244 L607.9719,1924.3682 Q607.9719,1924.8838 607.8469,1925.0713 Q607.5969,1925.4307 607.175,1925.4307 Q606.7219,1925.4307 606.4875,1925.0557 Q606.3625,1924.8682 606.3625,1924.2432 L604.9563,1924.2432 Z " fill="#000000"/><text fill="#000000" font-family="Arial" font-size="16" font-weight="bold" lengthAdjust="spacing" textLength="60" x="618.2" y="1911.1064">«entity»</text><text fill="#000000" font-family="Arial" font-size="16" font-weight="bold" lengthAdjust="spacing" textLength="49" x="623.7" y="1929.5049">«root»</text><text fill="#000000" font-family="Arial" font-size="16" lengthAdjust="spacing" textLength="56" x="620.2" y="1947.9033">Building</text><line style="stroke:#181818;stroke-width:0.5;" x1="590" x2="680" y1="1956.2939" y2="1956.2939"/><text fill="#000000" font-family="Arial" font-size="16" lengthAdjust="spacing" textLength="35" x="595" y="1975.3018">code</text><text fill="#000000" font-family="Arial" font-size="16" lengthAdjust="spacing" textLength="39" x="595" y="1993.7002">name</text><text fill="#000000" font-family="Arial" font-size="16" lengthAdjust="spacing" textLength="80" x="595" y="2012.0986">dimensions</text><line style="stroke:#181818;stroke-width:0.5;" x1="590" x2="680" y1="2019.4893" y2="2019.4893"/></g><!--class Elevator--><g id="elem_Elevator"><rect codeLine="21" fill="#F1F1F1" height="99.5938" id="Elevator" rx="3.5" ry="3.5" style="stroke:#181818;stroke-width:0.5;" width="93" x="48.5" y="1234.0986"/><ellipse cx="65.3" cy="1266.6963" fill="#ADD1B2" rx="11" ry="11" style="stroke:#181818;stroke-width:1.0;"/><path d="M64.4563,1267.2432 L64.4563,1269.5869 L68.55,1269.5869 L68.55,1268.7275 Q68.55,1268.1494 68.7688,1267.8994 Q68.9875,1267.6494 69.3469,1267.6494 Q69.7063,1267.6494 69.925,1267.8994 Q70.1438,1268.1494 70.1438,1268.7275 L70.1438,1271.1963 L62.6125,1271.1963 Q62.0344,1271.1963 61.7844,1270.9775 Q61.5344,1270.7432 61.5344,1270.3838 Q61.5344,1270.04 61.7844,1269.8213 Q62.0344,1269.5869 62.6125,1269.5869 L62.8625,1269.5869 L62.8625,1263.3213 L62.6125,1263.3213 Q62.0344,1263.3213 61.7844,1263.1025 Q61.5344,1262.8838 61.5344,1262.5244 Q61.5344,1262.165 61.7844,1261.9463 Q62.0344,1261.7119 62.6125,1261.7119 L69.8,1261.7275 L69.8,1264.165 Q69.8,1264.7275 69.5813,1264.9775 Q69.3625,1265.2275 69.0031,1265.2275 Q68.6438,1265.2275 68.4094,1264.9932 Q68.1906,1264.7432 68.1906,1264.165 L68.1906,1263.3213 L64.4563,1263.3213 L64.4563,1265.6338 L65.8625,1265.6338 Q65.8625,1265.0088 65.9875,1264.8369 Q66.2219,1264.4463 66.675,1264.4463 Q67.0188,1264.4463 67.2375,1264.6963 Q67.4719,1264.9463 67.4719,1265.5244 L67.4719,1267.3682 Q67.4719,1267.8838 67.3469,1268.0713 Q67.0969,1268.4307 66.675,1268.4307 Q66.2219,1268.4307 65.9875,1268.0557 Q65.8625,1267.8682 65.8625,1267.2432 L64.4563,1267.2432 Z " fill="#000000"/><text fill="#000000" font-family="Arial" font-size="16" font-weight="bold" lengthAdjust="spacing" textLength="60" x="78.2" y="1254.1064">«entity»</text><text fill="#000000" font-family="Arial" font-size="16" font-weight="bold" lengthAdjust="spacing" textLength="49" x="83.7" y="1272.5049">«root»</text><text fill="#000000" font-family="Arial" font-size="16" lengthAdjust="spacing" textLength="57" x="79.7" y="1290.9033">Elevator</text><line style="stroke:#181818;stroke-width:0.5;" x1="49.5" x2="140.5" y1="1299.2939" y2="1299.2939"/><text fill="#000000" font-family="Arial" font-size="16" lengthAdjust="spacing" textLength="81" x="54.5" y="1318.3018">designation</text><line style="stroke:#181818;stroke-width:0.5;" x1="49.5" x2="140.5" y1="1325.6924" y2="1325.6924"/></g><!--class Floor--><g id="elem_Floor"><rect codeLine="28" fill="#F1F1F1" height="117.9922" id="Floor" rx="3.5" ry="3.5" style="stroke:#181818;stroke-width:0.5;" width="89" x="590.5" y="1606.0986"/><ellipse cx="605.95" cy="1629.4971" fill="#ADD1B2" rx="11" ry="11" style="stroke:#181818;stroke-width:1.0;"/><path d="M605.1063,1630.0439 L605.1063,1632.3877 L609.2,1632.3877 L609.2,1631.5283 Q609.2,1630.9502 609.4188,1630.7002 Q609.6375,1630.4502 609.9969,1630.4502 Q610.3563,1630.4502 610.575,1630.7002 Q610.7938,1630.9502 610.7938,1631.5283 L610.7938,1633.9971 L603.2625,1633.9971 Q602.6844,1633.9971 602.4344,1633.7783 Q602.1844,1633.5439 602.1844,1633.1846 Q602.1844,1632.8408 602.4344,1632.6221 Q602.6844,1632.3877 603.2625,1632.3877 L603.5125,1632.3877 L603.5125,1626.1221 L603.2625,1626.1221 Q602.6844,1626.1221 602.4344,1625.9033 Q602.1844,1625.6846 602.1844,1625.3252 Q602.1844,1624.9658 602.4344,1624.7471 Q602.6844,1624.5127 603.2625,1624.5127 L610.45,1624.5283 L610.45,1626.9658 Q610.45,1627.5283 610.2313,1627.7783 Q610.0125,1628.0283 609.6531,1628.0283 Q609.2938,1628.0283 609.0594,1627.7939 Q608.8406,1627.5439 608.8406,1626.9658 L608.8406,1626.1221 L605.1063,1626.1221 L605.1063,1628.4346 L606.5125,1628.4346 Q606.5125,1627.8096 606.6375,1627.6377 Q606.8719,1627.2471 607.325,1627.2471 Q607.6688,1627.2471 607.8875,1627.4971 Q608.1219,1627.7471 608.1219,1628.3252 L608.1219,1630.1689 Q608.1219,1630.6846 607.9969,1630.8721 Q607.7469,1631.2314 607.325,1631.2314 Q606.8719,1631.2314 606.6375,1630.8564 Q606.5125,1630.6689 606.5125,1630.0439 L605.1063,1630.0439 Z " fill="#000000"/><text fill="#000000" font-family="Arial" font-size="16" font-weight="bold" lengthAdjust="spacing" textLength="60" x="618.05" y="1626.1064">«entity»</text><text fill="#000000" font-family="Arial" font-size="16" lengthAdjust="spacing" textLength="36" x="630.05" y="1644.5049">Floor</text><line style="stroke:#181818;stroke-width:0.5;" x1="591.5" x2="678.5" y1="1652.8955" y2="1652.8955"/><text fill="#000000" font-family="Arial" font-size="16" lengthAdjust="spacing" textLength="52" x="596.5" y="1671.9033">number</text><text fill="#000000" font-family="Arial" font-size="16" lengthAdjust="spacing" textLength="77" x="596.5" y="1690.3018">information</text><text fill="#000000" font-family="Arial" font-size="16" lengthAdjust="spacing" textLength="35" x="596.5" y="1708.7002">code</text><line style="stroke:#181818;stroke-width:0.5;" x1="591.5" x2="678.5" y1="1716.0908" y2="1716.0908"/></g><!--class Room--><g id="elem_Room"><rect codeLine="36" fill="#F1F1F1" height="81.1953" id="Room" rx="3.5" ry="3.5" style="stroke:#181818;stroke-width:0.5;" width="88" x="645" y="1243.5986"/><ellipse cx="660" cy="1266.9971" fill="#ADD1B2" rx="11" ry="11" style="stroke:#181818;stroke-width:1.0;"/><path d="M659.1563,1267.5439 L659.1563,1269.8877 L663.25,1269.8877 L663.25,1269.0283 Q663.25,1268.4502 663.4688,1268.2002 Q663.6875,1267.9502 664.0469,1267.9502 Q664.4063,1267.9502 664.625,1268.2002 Q664.8438,1268.4502 664.8438,1269.0283 L664.8438,1271.4971 L657.3125,1271.4971 Q656.7344,1271.4971 656.4844,1271.2783 Q656.2344,1271.0439 656.2344,1270.6846 Q656.2344,1270.3408 656.4844,1270.1221 Q656.7344,1269.8877 657.3125,1269.8877 L657.5625,1269.8877 L657.5625,1263.6221 L657.3125,1263.6221 Q656.7344,1263.6221 656.4844,1263.4033 Q656.2344,1263.1846 656.2344,1262.8252 Q656.2344,1262.4658 656.4844,1262.2471 Q656.7344,1262.0127 657.3125,1262.0127 L664.5,1262.0283 L664.5,1264.4658 Q664.5,1265.0283 664.2813,1265.2783 Q664.0625,1265.5283 663.7031,1265.5283 Q663.3438,1265.5283 663.1094,1265.2939 Q662.8906,1265.0439 662.8906,1264.4658 L662.8906,1263.6221 L659.1563,1263.6221 L659.1563,1265.9346 L660.5625,1265.9346 Q660.5625,1265.3096 660.6875,1265.1377 Q660.9219,1264.7471 661.375,1264.7471 Q661.7188,1264.7471 661.9375,1264.9971 Q662.1719,1265.2471 662.1719,1265.8252 L662.1719,1267.6689 Q662.1719,1268.1846 662.0469,1268.3721 Q661.7969,1268.7314 661.375,1268.7314 Q660.9219,1268.7314 660.6875,1268.3564 Q660.5625,1268.1689 660.5625,1267.5439 L659.1563,1267.5439 Z " fill="#000000"/><text fill="#000000" font-family="Arial" font-size="16" font-weight="bold" lengthAdjust="spacing" textLength="60" x="672" y="1263.6064">«entity»</text><text fill="#000000" font-family="Arial" font-size="16" lengthAdjust="spacing" textLength="42" x="681" y="1282.0049">Room</text><line style="stroke:#181818;stroke-width:0.5;" x1="646" x2="732" y1="1290.3955" y2="1290.3955"/><text fill="#000000" font-family="Arial" font-size="16" lengthAdjust="spacing" textLength="52" x="651" y="1309.4033">number</text><line style="stroke:#181818;stroke-width:0.5;" x1="646" x2="732" y1="1316.7939" y2="1316.7939"/></g><!--class Passage--><g id="elem_Passage"><rect codeLine="42" fill="#F1F1F1" height="81.1953" id="Passage" rx="3.5" ry="3.5" style="stroke:#181818;stroke-width:0.5;" width="95" x="827.5" y="1243.5986"/><ellipse cx="842.5" cy="1266.9971" fill="#ADD1B2" rx="11" ry="11" style="stroke:#181818;stroke-width:1.0;"/><path d="M841.6563,1267.5439 L841.6563,1269.8877 L845.75,1269.8877 L845.75,1269.0283 Q845.75,1268.4502 845.9688,1268.2002 Q846.1875,1267.9502 846.5469,1267.9502 Q846.9063,1267.9502 847.125,1268.2002 Q847.3438,1268.4502 847.3438,1269.0283 L847.3438,1271.4971 L839.8125,1271.4971 Q839.2344,1271.4971 838.9844,1271.2783 Q838.7344,1271.0439 838.7344,1270.6846 Q838.7344,1270.3408 838.9844,1270.1221 Q839.2344,1269.8877 839.8125,1269.8877 L840.0625,1269.8877 L840.0625,1263.6221 L839.8125,1263.6221 Q839.2344,1263.6221 838.9844,1263.4033 Q838.7344,1263.1846 838.7344,1262.8252 Q838.7344,1262.4658 838.9844,1262.2471 Q839.2344,1262.0127 839.8125,1262.0127 L847,1262.0283 L847,1264.4658 Q847,1265.0283 846.7813,1265.2783 Q846.5625,1265.5283 846.2031,1265.5283 Q845.8438,1265.5283 845.6094,1265.2939 Q845.3906,1265.0439 845.3906,1264.4658 L845.3906,1263.6221 L841.6563,1263.6221 L841.6563,1265.9346 L843.0625,1265.9346 Q843.0625,1265.3096 843.1875,1265.1377 Q843.4219,1264.7471 843.875,1264.7471 Q844.2188,1264.7471 844.4375,1264.9971 Q844.6719,1265.2471 844.6719,1265.8252 L844.6719,1267.6689 Q844.6719,1268.1846 844.5469,1268.3721 Q844.2969,1268.7314 843.875,1268.7314 Q843.4219,1268.7314 843.1875,1268.3564 Q843.0625,1268.1689 843.0625,1267.5439 L841.6563,1267.5439 Z " fill="#000000"/><text fill="#000000" font-family="Arial" font-size="16" font-weight="bold" lengthAdjust="spacing" textLength="60" x="858" y="1263.6064">«entity»</text><text fill="#000000" font-family="Arial" font-size="16" lengthAdjust="spacing" textLength="63" x="856.5" y="1282.0049">Passage</text><line style="stroke:#181818;stroke-width:0.5;" x1="828.5" x2="921.5" y1="1290.3955" y2="1290.3955"/><text fill="#000000" font-family="Arial" font-size="16" lengthAdjust="spacing" textLength="81" x="833.5" y="1309.4033">designation</text><line style="stroke:#181818;stroke-width:0.5;" x1="828.5" x2="921.5" y1="1316.7939" y2="1316.7939"/></g><!--class User--><g id="elem_User"><rect codeLine="49" fill="#F1F1F1" height="173.1875" id="User" rx="3.5" ry="3.5" style="stroke:#181818;stroke-width:0.5;" width="110" x="177" y="975.0986"/><ellipse cx="201.9" cy="1007.6963" fill="#ADD1B2" rx="11" ry="11" style="stroke:#181818;stroke-width:1.0;"/><path d="M201.0563,1008.2432 L201.0563,1010.5869 L205.15,1010.5869 L205.15,1009.7275 Q205.15,1009.1494 205.3688,1008.8994 Q205.5875,1008.6494 205.9469,1008.6494 Q206.3063,1008.6494 206.525,1008.8994 Q206.7438,1009.1494 206.7438,1009.7275 L206.7438,1012.1963 L199.2125,1012.1963 Q198.6344,1012.1963 198.3844,1011.9775 Q198.1344,1011.7432 198.1344,1011.3838 Q198.1344,1011.04 198.3844,1010.8213 Q198.6344,1010.5869 199.2125,1010.5869 L199.4625,1010.5869 L199.4625,1004.3213 L199.2125,1004.3213 Q198.6344,1004.3213 198.3844,1004.1025 Q198.1344,1003.8838 198.1344,1003.5244 Q198.1344,1003.165 198.3844,1002.9463 Q198.6344,1002.7119 199.2125,1002.7119 L206.4,1002.7275 L206.4,1005.165 Q206.4,1005.7275 206.1813,1005.9775 Q205.9625,1006.2275 205.6031,1006.2275 Q205.2438,1006.2275 205.0094,1005.9932 Q204.7906,1005.7432 204.7906,1005.165 L204.7906,1004.3213 L201.0563,1004.3213 L201.0563,1006.6338 L202.4625,1006.6338 Q202.4625,1006.0088 202.5875,1005.8369 Q202.8219,1005.4463 203.275,1005.4463 Q203.6188,1005.4463 203.8375,1005.6963 Q204.0719,1005.9463 204.0719,1006.5244 L204.0719,1008.3682 Q204.0719,1008.8838 203.9469,1009.0713 Q203.6969,1009.4307 203.275,1009.4307 Q202.8219,1009.4307 202.5875,1009.0557 Q202.4625,1008.8682 202.4625,1008.2432 L201.0563,1008.2432 Z " fill="#000000"/><text fill="#000000" font-family="Arial" font-size="16" font-weight="bold" lengthAdjust="spacing" textLength="60" x="216.1" y="995.1064">«entity»</text><text fill="#000000" font-family="Arial" font-size="16" font-weight="bold" lengthAdjust="spacing" textLength="49" x="221.6" y="1013.5049">«root»</text><text fill="#000000" font-family="Arial" font-size="16" lengthAdjust="spacing" textLength="33" x="229.6" y="1031.9033">User</text><line style="stroke:#181818;stroke-width:0.5;" x1="178" x2="286" y1="1040.2939" y2="1040.2939"/><text fill="#000000" font-family="Arial" font-size="16" lengthAdjust="spacing" textLength="39" x="183" y="1059.3018">name</text><text fill="#000000" font-family="Arial" font-size="16" lengthAdjust="spacing" textLength="38" x="183" y="1077.7002">email</text><text fill="#000000" font-family="Arial" font-size="16" lengthAdjust="spacing" textLength="68" x="183" y="1096.0986">password</text><text fill="#000000" font-family="Arial" font-size="16" lengthAdjust="spacing" textLength="16" x="183" y="1114.4971">nif</text><text fill="#000000" font-family="Arial" font-size="16" lengthAdjust="spacing" textLength="98" x="183" y="1132.8955">phoneNumber</text><line style="stroke:#181818;stroke-width:0.5;" x1="178" x2="286" y1="1140.2861" y2="1140.2861"/></g><!--class Robot--><g id="elem_Robot"><rect codeLine="59" fill="#F1F1F1" height="173.1875" id="Robot" rx="3.5" ry="3.5" style="stroke:#181818;stroke-width:0.5;" width="105" x="980.5" y="80.0986"/><ellipse cx="1003.15" cy="112.6963" fill="#ADD1B2" rx="11" ry="11" style="stroke:#181818;stroke-width:1.0;"/><path d="M1002.3063,113.2432 L1002.3063,115.5869 L1006.4,115.5869 L1006.4,114.7275 Q1006.4,114.1494 1006.6188,113.8994 Q1006.8375,113.6494 1007.1969,113.6494 Q1007.5563,113.6494 1007.775,113.8994 Q1007.9938,114.1494 1007.9938,114.7275 L1007.9938,117.1963 L1000.4625,117.1963 Q999.8844,117.1963 999.6344,116.9775 Q999.3844,116.7432 999.3844,116.3838 Q999.3844,116.04 999.6344,115.8213 Q999.8844,115.5869 1000.4625,115.5869 L1000.7125,115.5869 L1000.7125,109.3213 L1000.4625,109.3213 Q999.8844,109.3213 999.6344,109.1025 Q999.3844,108.8838 999.3844,108.5244 Q999.3844,108.165 999.6344,107.9463 Q999.8844,107.7119 1000.4625,107.7119 L1007.65,107.7275 L1007.65,110.165 Q1007.65,110.7275 1007.4313,110.9775 Q1007.2125,111.2275 1006.8531,111.2275 Q1006.4938,111.2275 1006.2594,110.9932 Q1006.0406,110.7432 1006.0406,110.165 L1006.0406,109.3213 L1002.3063,109.3213 L1002.3063,111.6338 L1003.7125,111.6338 Q1003.7125,111.0088 1003.8375,110.8369 Q1004.0719,110.4463 1004.525,110.4463 Q1004.8688,110.4463 1005.0875,110.6963 Q1005.3219,110.9463 1005.3219,111.5244 L1005.3219,113.3682 Q1005.3219,113.8838 1005.1969,114.0713 Q1004.9469,114.4307 1004.525,114.4307 Q1004.0719,114.4307 1003.8375,114.0557 Q1003.7125,113.8682 1003.7125,113.2432 L1002.3063,113.2432 Z " fill="#000000"/><text fill="#000000" font-family="Arial" font-size="16" font-weight="bold" lengthAdjust="spacing" textLength="60" x="1016.85" y="100.1064">«entity»</text><text fill="#000000" font-family="Arial" font-size="16" font-weight="bold" lengthAdjust="spacing" textLength="49" x="1022.35" y="118.5049">«root»</text><text fill="#000000" font-family="Arial" font-size="16" lengthAdjust="spacing" textLength="42" x="1025.85" y="136.9033">Robot</text><line style="stroke:#181818;stroke-width:0.5;" x1="981.5" x2="1084.5" y1="145.2939" y2="145.2939"/><text fill="#000000" font-family="Arial" font-size="16" lengthAdjust="spacing" textLength="88" x="986.5" y="164.3018">identification</text><text fill="#000000" font-family="Arial" font-size="16" lengthAdjust="spacing" textLength="67" x="986.5" y="182.7002">nickname</text><text fill="#000000" font-family="Arial" font-size="16" lengthAdjust="spacing" textLength="93" x="986.5" y="201.0986">serialNumber</text><text fill="#000000" font-family="Arial" font-size="16" lengthAdjust="spacing" textLength="77" x="986.5" y="219.4971">description</text><text fill="#000000" font-family="Arial" font-size="16" lengthAdjust="spacing" textLength="34" x="986.5" y="237.8955">state</text><line style="stroke:#181818;stroke-width:0.5;" x1="981.5" x2="1084.5" y1="245.2861" y2="245.2861"/></g><!--class RobotType--><g id="elem_RobotType"><rect codeLine="69" fill="#F1F1F1" height="136.3906" id="RobotType" rx="3.5" ry="3.5" style="stroke:#181818;stroke-width:0.5;" width="108" x="911" y="429.5986"/><ellipse cx="926" cy="462.1963" fill="#ADD1B2" rx="11" ry="11" style="stroke:#181818;stroke-width:1.0;"/><path d="M925.1563,462.7432 L925.1563,465.0869 L929.25,465.0869 L929.25,464.2275 Q929.25,463.6494 929.4688,463.3994 Q929.6875,463.1494 930.0469,463.1494 Q930.4063,463.1494 930.625,463.3994 Q930.8438,463.6494 930.8438,464.2275 L930.8438,466.6963 L923.3125,466.6963 Q922.7344,466.6963 922.4844,466.4775 Q922.2344,466.2432 922.2344,465.8838 Q922.2344,465.54 922.4844,465.3213 Q922.7344,465.0869 923.3125,465.0869 L923.5625,465.0869 L923.5625,458.8213 L923.3125,458.8213 Q922.7344,458.8213 922.4844,458.6025 Q922.2344,458.3838 922.2344,458.0244 Q922.2344,457.665 922.4844,457.4463 Q922.7344,457.2119 923.3125,457.2119 L930.5,457.2275 L930.5,459.665 Q930.5,460.2275 930.2813,460.4775 Q930.0625,460.7275 929.7031,460.7275 Q929.3438,460.7275 929.1094,460.4932 Q928.8906,460.2432 928.8906,459.665 L928.8906,458.8213 L925.1563,458.8213 L925.1563,461.1338 L926.5625,461.1338 Q926.5625,460.5088 926.6875,460.3369 Q926.9219,459.9463 927.375,459.9463 Q927.7188,459.9463 927.9375,460.1963 Q928.1719,460.4463 928.1719,461.0244 L928.1719,462.8682 Q928.1719,463.3838 928.0469,463.5713 Q927.7969,463.9307 927.375,463.9307 Q926.9219,463.9307 926.6875,463.5557 Q926.5625,463.3682 926.5625,462.7432 L925.1563,462.7432 Z " fill="#000000"/><text fill="#000000" font-family="Arial" font-size="16" font-weight="bold" lengthAdjust="spacing" textLength="60" x="948" y="449.6064">«entity»</text><text fill="#000000" font-family="Arial" font-size="16" font-weight="bold" lengthAdjust="spacing" textLength="49" x="953.5" y="468.0049">«root»</text><text fill="#000000" font-family="Arial" font-size="16" lengthAdjust="spacing" textLength="76" x="940" y="486.4033">RobotType</text><line style="stroke:#181818;stroke-width:0.5;" x1="912" x2="1018" y1="494.7939" y2="494.7939"/><text fill="#000000" font-family="Arial" font-size="16" lengthAdjust="spacing" textLength="29" x="917" y="513.8018">type</text><text fill="#000000" font-family="Arial" font-size="16" lengthAdjust="spacing" textLength="40" x="917" y="532.2002">brand</text><text fill="#000000" font-family="Arial" font-size="16" lengthAdjust="spacing" textLength="43" x="917" y="550.5986">model</text><line style="stroke:#181818;stroke-width:0.5;" x1="912" x2="1018" y1="557.9893" y2="557.9893"/></g><!--class Role--><g id="elem_Role"><rect codeLine="77" fill="#F1F1F1" height="99.5938" id="Role" rx="3.5" ry="3.5" style="stroke:#181818;stroke-width:0.5;" width="88" x="231" y="1420.0986"/><ellipse cx="246" cy="1452.6963" fill="#ADD1B2" rx="11" ry="11" style="stroke:#181818;stroke-width:1.0;"/><path d="M245.1563,1453.2432 L245.1563,1455.5869 L249.25,1455.5869 L249.25,1454.7275 Q249.25,1454.1494 249.4688,1453.8994 Q249.6875,1453.6494 250.0469,1453.6494 Q250.4063,1453.6494 250.625,1453.8994 Q250.8438,1454.1494 250.8438,1454.7275 L250.8438,1457.1963 L243.3125,1457.1963 Q242.7344,1457.1963 242.4844,1456.9775 Q242.2344,1456.7432 242.2344,1456.3838 Q242.2344,1456.04 242.4844,1455.8213 Q242.7344,1455.5869 243.3125,1455.5869 L243.5625,1455.5869 L243.5625,1449.3213 L243.3125,1449.3213 Q242.7344,1449.3213 242.4844,1449.1025 Q242.2344,1448.8838 242.2344,1448.5244 Q242.2344,1448.165 242.4844,1447.9463 Q242.7344,1447.7119 243.3125,1447.7119 L250.5,1447.7275 L250.5,1450.165 Q250.5,1450.7275 250.2813,1450.9775 Q250.0625,1451.2275 249.7031,1451.2275 Q249.3438,1451.2275 249.1094,1450.9932 Q248.8906,1450.7432 248.8906,1450.165 L248.8906,1449.3213 L245.1563,1449.3213 L245.1563,1451.6338 L246.5625,1451.6338 Q246.5625,1451.0088 246.6875,1450.8369 Q246.9219,1450.4463 247.375,1450.4463 Q247.7188,1450.4463 247.9375,1450.6963 Q248.1719,1450.9463 248.1719,1451.5244 L248.1719,1453.3682 Q248.1719,1453.8838 248.0469,1454.0713 Q247.7969,1454.4307 247.375,1454.4307 Q246.9219,1454.4307 246.6875,1454.0557 Q246.5625,1453.8682 246.5625,1453.2432 L245.1563,1453.2432 Z " fill="#000000"/><text fill="#000000" font-family="Arial" font-size="16" font-weight="bold" lengthAdjust="spacing" textLength="60" x="258" y="1440.1064">«entity»</text><text fill="#000000" font-family="Arial" font-size="16" font-weight="bold" lengthAdjust="spacing" textLength="49" x="263.5" y="1458.5049">«root»</text><text fill="#000000" font-family="Arial" font-size="16" lengthAdjust="spacing" textLength="32" x="272" y="1476.9033">Role</text><line style="stroke:#181818;stroke-width:0.5;" x1="232" x2="318" y1="1485.2939" y2="1485.2939"/><text fill="#000000" font-family="Arial" font-size="16" lengthAdjust="spacing" textLength="39" x="237" y="1504.3018">name</text><line style="stroke:#181818;stroke-width:0.5;" x1="232" x2="318" y1="1511.6924" y2="1511.6924"/></g><!--class Task--><g id="elem_Task"><rect codeLine="83" fill="#F1F1F1" height="154.7891" id="Task" rx="3.5" ry="3.5" style="stroke:#181818;stroke-width:0.5;" width="128" x="317" y="420.0986"/><ellipse cx="350" cy="452.6963" fill="#ADD1B2" rx="11" ry="11" style="stroke:#181818;stroke-width:1.0;"/><path d="M349.1563,453.2432 L349.1563,455.5869 L353.25,455.5869 L353.25,454.7275 Q353.25,454.1494 353.4688,453.8994 Q353.6875,453.6494 354.0469,453.6494 Q354.4063,453.6494 354.625,453.8994 Q354.8438,454.1494 354.8438,454.7275 L354.8438,457.1963 L347.3125,457.1963 Q346.7344,457.1963 346.4844,456.9775 Q346.2344,456.7432 346.2344,456.3838 Q346.2344,456.04 346.4844,455.8213 Q346.7344,455.5869 347.3125,455.5869 L347.5625,455.5869 L347.5625,449.3213 L347.3125,449.3213 Q346.7344,449.3213 346.4844,449.1025 Q346.2344,448.8838 346.2344,448.5244 Q346.2344,448.165 346.4844,447.9463 Q346.7344,447.7119 347.3125,447.7119 L354.5,447.7275 L354.5,450.165 Q354.5,450.7275 354.2813,450.9775 Q354.0625,451.2275 353.7031,451.2275 Q353.3438,451.2275 353.1094,450.9932 Q352.8906,450.7432 352.8906,450.165 L352.8906,449.3213 L349.1563,449.3213 L349.1563,451.6338 L350.5625,451.6338 Q350.5625,451.0088 350.6875,450.8369 Q350.9219,450.4463 351.375,450.4463 Q351.7188,450.4463 351.9375,450.6963 Q352.1719,450.9463 352.1719,451.5244 L352.1719,453.3682 Q352.1719,453.8838 352.0469,454.0713 Q351.7969,454.4307 351.375,454.4307 Q350.9219,454.4307 350.6875,454.0557 Q350.5625,453.8682 350.5625,453.2432 L349.1563,453.2432 Z " fill="#000000"/><text fill="#000000" font-family="Arial" font-size="16" font-weight="bold" lengthAdjust="spacing" textLength="60" x="366" y="440.1064">«entity»</text><text fill="#000000" font-family="Arial" font-size="16" font-weight="bold" lengthAdjust="spacing" textLength="49" x="371.5" y="458.5049">«root»</text><text fill="#000000" font-family="Arial" font-size="16" lengthAdjust="spacing" textLength="34" x="379" y="476.9033">Task</text><line style="stroke:#181818;stroke-width:0.5;" x1="318" x2="444" y1="485.2939" y2="485.2939"/><text fill="#000000" font-family="Arial" font-size="16" lengthAdjust="spacing" textLength="30" x="323" y="504.3018">path</text><text fill="#000000" font-family="Arial" font-size="16" lengthAdjust="spacing" textLength="116" x="323" y="522.7002">robotMovements</text><text fill="#000000" font-family="Arial" font-size="16" lengthAdjust="spacing" textLength="89" x="323" y="541.0986">isCompleted</text><text fill="#000000" font-family="Arial" font-size="16" lengthAdjust="spacing" textLength="63" x="323" y="559.4971">taskType</text><line style="stroke:#181818;stroke-width:0.5;" x1="318" x2="444" y1="566.8877" y2="566.8877"/></g><!--class SurveillanceTask--><g id="elem_SurveillanceTask"><rect codeLine="92" fill="#F1F1F1" height="99.5938" id="SurveillanceTask" rx="3.5" ry="3.5" style="stroke:#181818;stroke-width:0.5;" width="150" x="391" y="725.0986"/><ellipse cx="406" cy="757.6963" fill="#ADD1B2" rx="11" ry="11" style="stroke:#181818;stroke-width:1.0;"/><path d="M405.1563,758.2432 L405.1563,760.5869 L409.25,760.5869 L409.25,759.7275 Q409.25,759.1494 409.4688,758.8994 Q409.6875,758.6494 410.0469,758.6494 Q410.4063,758.6494 410.625,758.8994 Q410.8438,759.1494 410.8438,759.7275 L410.8438,762.1963 L403.3125,762.1963 Q402.7344,762.1963 402.4844,761.9775 Q402.2344,761.7432 402.2344,761.3838 Q402.2344,761.04 402.4844,760.8213 Q402.7344,760.5869 403.3125,760.5869 L403.5625,760.5869 L403.5625,754.3213 L403.3125,754.3213 Q402.7344,754.3213 402.4844,754.1025 Q402.2344,753.8838 402.2344,753.5244 Q402.2344,753.165 402.4844,752.9463 Q402.7344,752.7119 403.3125,752.7119 L410.5,752.7275 L410.5,755.165 Q410.5,755.7275 410.2813,755.9775 Q410.0625,756.2275 409.7031,756.2275 Q409.3438,756.2275 409.1094,755.9932 Q408.8906,755.7432 408.8906,755.165 L408.8906,754.3213 L405.1563,754.3213 L405.1563,756.6338 L406.5625,756.6338 Q406.5625,756.0088 406.6875,755.8369 Q406.9219,755.4463 407.375,755.4463 Q407.7188,755.4463 407.9375,755.6963 Q408.1719,755.9463 408.1719,756.5244 L408.1719,758.3682 Q408.1719,758.8838 408.0469,759.0713 Q407.7969,759.4307 407.375,759.4307 Q406.9219,759.4307 406.6875,759.0557 Q406.5625,758.8682 406.5625,758.2432 L405.1563,758.2432 Z " fill="#000000"/><text fill="#000000" font-family="Arial" font-size="16" font-weight="bold" lengthAdjust="spacing" textLength="60" x="449" y="745.1064">«entity»</text><text fill="#000000" font-family="Arial" font-size="16" font-weight="bold" lengthAdjust="spacing" textLength="49" x="454.5" y="763.5049">«root»</text><text fill="#000000" font-family="Arial" font-size="16" lengthAdjust="spacing" textLength="118" x="420" y="781.9033">SurveillanceTask</text><line style="stroke:#181818;stroke-width:0.5;" x1="392" x2="540" y1="790.2939" y2="790.2939"/><text fill="#000000" font-family="Arial" font-size="16" lengthAdjust="spacing" textLength="98" x="397" y="809.3018">phoneNumber</text><line style="stroke:#181818;stroke-width:0.5;" x1="392" x2="540" y1="816.6924" y2="816.6924"/></g><!--class PickupDeliveryTask--><g id="elem_PickupDeliveryTask"><rect codeLine="98" fill="#F1F1F1" height="228.3828" id="PickupDeliveryTask" rx="3.5" ry="3.5" style="stroke:#181818;stroke-width:0.5;" width="215" x="658.5" y="661.0986"/><ellipse cx="693.75" cy="693.6963" fill="#ADD1B2" rx="11" ry="11" style="stroke:#181818;stroke-width:1.0;"/><path d="M692.9063,694.2432 L692.9063,696.5869 L697,696.5869 L697,695.7275 Q697,695.1494 697.2188,694.8994 Q697.4375,694.6494 697.7969,694.6494 Q698.1563,694.6494 698.375,694.8994 Q698.5938,695.1494 698.5938,695.7275 L698.5938,698.1963 L691.0625,698.1963 Q690.4844,698.1963 690.2344,697.9775 Q689.9844,697.7432 689.9844,697.3838 Q689.9844,697.04 690.2344,696.8213 Q690.4844,696.5869 691.0625,696.5869 L691.3125,696.5869 L691.3125,690.3213 L691.0625,690.3213 Q690.4844,690.3213 690.2344,690.1025 Q689.9844,689.8838 689.9844,689.5244 Q689.9844,689.165 690.2344,688.9463 Q690.4844,688.7119 691.0625,688.7119 L698.25,688.7275 L698.25,691.165 Q698.25,691.7275 698.0313,691.9775 Q697.8125,692.2275 697.4531,692.2275 Q697.0938,692.2275 696.8594,691.9932 Q696.6406,691.7432 696.6406,691.165 L696.6406,690.3213 L692.9063,690.3213 L692.9063,692.6338 L694.3125,692.6338 Q694.3125,692.0088 694.4375,691.8369 Q694.6719,691.4463 695.125,691.4463 Q695.4688,691.4463 695.6875,691.6963 Q695.9219,691.9463 695.9219,692.5244 L695.9219,694.3682 Q695.9219,694.8838 695.7969,695.0713 Q695.5469,695.4307 695.125,695.4307 Q694.6719,695.4307 694.4375,695.0557 Q694.3125,694.8682 694.3125,694.2432 L692.9063,694.2432 Z " fill="#000000"/><text fill="#000000" font-family="Arial" font-size="16" font-weight="bold" lengthAdjust="spacing" textLength="60" x="751.25" y="681.1064">«entity»</text><text fill="#000000" font-family="Arial" font-size="16" font-weight="bold" lengthAdjust="spacing" textLength="49" x="756.75" y="699.5049">«root»</text><text fill="#000000" font-family="Arial" font-size="16" lengthAdjust="spacing" textLength="138" x="712.25" y="717.9033">PickupDeliveryTask</text><line style="stroke:#181818;stroke-width:0.5;" x1="659.5" x2="872.5" y1="726.2939" y2="726.2939"/><text fill="#000000" font-family="Arial" font-size="16" lengthAdjust="spacing" textLength="86" x="664.5" y="745.3018">pickupPlace</text><text fill="#000000" font-family="Arial" font-size="16" lengthAdjust="spacing" textLength="93" x="664.5" y="763.7002">deliveryPlace</text><text fill="#000000" font-family="Arial" font-size="16" lengthAdjust="spacing" textLength="138" x="664.5" y="782.0986">pickupPersonName</text><text fill="#000000" font-family="Arial" font-size="16" lengthAdjust="spacing" textLength="145" x="664.5" y="800.4971">deliveryPersonName</text><text fill="#000000" font-family="Arial" font-size="16" lengthAdjust="spacing" textLength="196" x="664.5" y="818.8955">pickupPersonPhoneNumber</text><text fill="#000000" font-family="Arial" font-size="16" lengthAdjust="spacing" textLength="203" x="664.5" y="837.2939">deliveryPersonPhoneNumber</text><text fill="#000000" font-family="Arial" font-size="16" lengthAdjust="spacing" textLength="109" x="664.5" y="855.6924">taskDescription</text><text fill="#000000" font-family="Arial" font-size="16" lengthAdjust="spacing" textLength="124" x="664.5" y="874.0908">confirmationCode</text><line style="stroke:#181818;stroke-width:0.5;" x1="659.5" x2="872.5" y1="881.4814" y2="881.4814"/></g><!--class Planning--><g id="elem_Planning"><rect codeLine="111" fill="#F1F1F1" height="99.5938" id="Planning" rx="3.5" ry="3.5" style="stroke:#181818;stroke-width:0.5;" width="92" x="144" y="116.5986"/><ellipse cx="159" cy="149.1963" fill="#ADD1B2" rx="11" ry="11" style="stroke:#181818;stroke-width:1.0;"/><path d="M158.1563,149.7432 L158.1563,152.0869 L162.25,152.0869 L162.25,151.2275 Q162.25,150.6494 162.4688,150.3994 Q162.6875,150.1494 163.0469,150.1494 Q163.4063,150.1494 163.625,150.3994 Q163.8438,150.6494 163.8438,151.2275 L163.8438,153.6963 L156.3125,153.6963 Q155.7344,153.6963 155.4844,153.4775 Q155.2344,153.2432 155.2344,152.8838 Q155.2344,152.54 155.4844,152.3213 Q155.7344,152.0869 156.3125,152.0869 L156.5625,152.0869 L156.5625,145.8213 L156.3125,145.8213 Q155.7344,145.8213 155.4844,145.6025 Q155.2344,145.3838 155.2344,145.0244 Q155.2344,144.665 155.4844,144.4463 Q155.7344,144.2119 156.3125,144.2119 L163.5,144.2275 L163.5,146.665 Q163.5,147.2275 163.2813,147.4775 Q163.0625,147.7275 162.7031,147.7275 Q162.3438,147.7275 162.1094,147.4932 Q161.8906,147.2432 161.8906,146.665 L161.8906,145.8213 L158.1563,145.8213 L158.1563,148.1338 L159.5625,148.1338 Q159.5625,147.5088 159.6875,147.3369 Q159.9219,146.9463 160.375,146.9463 Q160.7188,146.9463 160.9375,147.1963 Q161.1719,147.4463 161.1719,148.0244 L161.1719,149.8682 Q161.1719,150.3838 161.0469,150.5713 Q160.7969,150.9307 160.375,150.9307 Q159.9219,150.9307 159.6875,150.5557 Q159.5625,150.3682 159.5625,149.7432 L158.1563,149.7432 Z " fill="#000000"/><text fill="#000000" font-family="Arial" font-size="16" font-weight="bold" lengthAdjust="spacing" textLength="60" x="173" y="136.6064">«entity»</text><text fill="#000000" font-family="Arial" font-size="16" font-weight="bold" lengthAdjust="spacing" textLength="49" x="178.5" y="155.0049">«root»</text><text fill="#000000" font-family="Arial" font-size="16" lengthAdjust="spacing" textLength="60" x="173" y="173.4033">Planning</text><line style="stroke:#181818;stroke-width:0.5;" x1="145" x2="235" y1="181.7939" y2="181.7939"/><text fill="#000000" font-family="Arial" font-size="16" lengthAdjust="spacing" textLength="29" x="150" y="200.8018">cost</text><line style="stroke:#181818;stroke-width:0.5;" x1="145" x2="235" y1="208.1924" y2="208.1924"/></g><!--class TaskType--><g id="elem_TaskType"><rect codeLine="118" fill="#F1F1F1" height="117.9922" id="TaskType" rx="3.5" ry="3.5" style="stroke:#181818;stroke-width:0.5;" width="100" x="1023" y="1002.5986"/><ellipse cx="1038" cy="1035.1963" fill="#ADD1B2" rx="11" ry="11" style="stroke:#181818;stroke-width:1.0;"/><path d="M1037.1563,1035.7432 L1037.1563,1038.0869 L1041.25,1038.0869 L1041.25,1037.2275 Q1041.25,1036.6494 1041.4688,1036.3994 Q1041.6875,1036.1494 1042.0469,1036.1494 Q1042.4063,1036.1494 1042.625,1036.3994 Q1042.8438,1036.6494 1042.8438,1037.2275 L1042.8438,1039.6963 L1035.3125,1039.6963 Q1034.7344,1039.6963 1034.4844,1039.4775 Q1034.2344,1039.2432 1034.2344,1038.8838 Q1034.2344,1038.54 1034.4844,1038.3213 Q1034.7344,1038.0869 1035.3125,1038.0869 L1035.5625,1038.0869 L1035.5625,1031.8213 L1035.3125,1031.8213 Q1034.7344,1031.8213 1034.4844,1031.6025 Q1034.2344,1031.3838 1034.2344,1031.0244 Q1034.2344,1030.665 1034.4844,1030.4463 Q1034.7344,1030.2119 1035.3125,1030.2119 L1042.5,1030.2275 L1042.5,1032.665 Q1042.5,1033.2275 1042.2813,1033.4775 Q1042.0625,1033.7275 1041.7031,1033.7275 Q1041.3438,1033.7275 1041.1094,1033.4932 Q1040.8906,1033.2432 1040.8906,1032.665 L1040.8906,1031.8213 L1037.1563,1031.8213 L1037.1563,1034.1338 L1038.5625,1034.1338 Q1038.5625,1033.5088 1038.6875,1033.3369 Q1038.9219,1032.9463 1039.375,1032.9463 Q1039.7188,1032.9463 1039.9375,1033.1963 Q1040.1719,1033.4463 1040.1719,1034.0244 L1040.1719,1035.8682 Q1040.1719,1036.3838 1040.0469,1036.5713 Q1039.7969,1036.9307 1039.375,1036.9307 Q1038.9219,1036.9307 1038.6875,1036.5557 Q1038.5625,1036.3682 1038.5625,1035.7432 L1037.1563,1035.7432 Z " fill="#000000"/><text fill="#000000" font-family="Arial" font-size="16" font-weight="bold" lengthAdjust="spacing" textLength="60" x="1056" y="1022.6064">«entity»</text><text fill="#000000" font-family="Arial" font-size="16" font-weight="bold" lengthAdjust="spacing" textLength="49" x="1061.5" y="1041.0049">«root»</text><text fill="#000000" font-family="Arial" font-size="16" lengthAdjust="spacing" textLength="68" x="1052" y="1059.4033">TaskType</text><line style="stroke:#181818;stroke-width:0.5;" x1="1024" x2="1122" y1="1067.7939" y2="1067.7939"/><text fill="#000000" font-family="Arial" font-size="16" lengthAdjust="spacing" textLength="39" x="1029" y="1086.8018">name</text><text fill="#000000" font-family="Arial" font-size="16" lengthAdjust="spacing" textLength="77" x="1029" y="1105.2002">description</text><line style="stroke:#181818;stroke-width:0.5;" x1="1024" x2="1122" y1="1112.5908" y2="1112.5908"/></g><!--link User to Role--><g id="link_User_Role"><path codeLine="126" d="M241.07,1148.3086 C249.79,1230.7686 262.67,1352.5486 269.79,1419.8686 " fill="none" id="User-Role" style="stroke:#454645;stroke-width:2.5;"/><polygon fill="#000000" points="270.631,1290.2646,272.9966,1279.0998,265.9823,1279.8416,270.631,1290.2646" style="stroke:#000000;stroke-width:1.0;"/><text fill="#000000" font-family="Arial" font-size="16" lengthAdjust="spacing" textLength="25" x="281" y="1290.1064">has</text><text fill="#000000" font-family="Arial" font-size="16" lengthAdjust="spacing" textLength="6" x="235.5727" y="1171.2512">*</text><text fill="#000000" font-family="Arial" font-size="16" lengthAdjust="spacing" textLength="9" x="259.4245" y="1408.6038">1</text></g><!--link Floor to Building--><g id="link_Floor_Building"><path codeLine="129" d="M635,1724.1386 C635,1772.2086 635,1840.5486 635,1890.9686 " fill="none" id="Floor-Building" style="stroke:#454645;stroke-width:2.5;"/><polygon fill="#000000" points="641,1803.2979,644.5267,1792.4437,637.4733,1792.4437,641,1803.2979" style="stroke:#000000;stroke-width:1.0;"/><text fill="#000000" font-family="Arial" font-size="16" lengthAdjust="spacing" textLength="93" x="652" y="1803.1064">is associated</text><text fill="#000000" font-family="Arial" font-size="16" lengthAdjust="spacing" textLength="6" x="628.6531" y="1747.0371">*</text><text fill="#000000" font-family="Arial" font-size="16" lengthAdjust="spacing" textLength="9" x="625.5078" y="1879.5408">1</text></g><!--link Elevator to Floor--><g id="link_Elevator_Floor"><path codeLine="132" d="M82.95,1334.2086 C72.03,1391.6286 64.33,1486.1686 114,1544.0986 C176.23,1616.6786 475.67,1650.1486 590.26,1660.4586 " fill="none" id="Elevator-Floor" style="stroke:#454645;stroke-width:2.5;"/><polygon fill="#000000" points="125.0465,1473.5433,117.8249,1464.706,114.0097,1470.6385,125.0465,1473.5433" style="stroke:#000000;stroke-width:1.0;"/><text fill="#000000" font-family="Arial" font-size="16" lengthAdjust="spacing" textLength="83" x="131" y="1476.1064">can operate</text><text fill="#000000" font-family="Arial" font-size="16" lengthAdjust="spacing" textLength="9" x="71.8295" y="1356.8415">1</text><text fill="#000000" font-family="Arial" font-size="16" lengthAdjust="spacing" textLength="6" x="576.3531" y="1655.241">*</text></g><!--link Room to Floor--><g id="link_Room_Floor"><path codeLine="135" d="M675.18,1324.9986 C670.31,1340.4686 665.24,1358.4486 662,1375.0986 C646.59,1454.2386 639.9,1547.3486 637.04,1606.0486 " fill="none" id="Room-Floor" style="stroke:#454645;stroke-width:2.5;"/><polygon fill="#000000" points="667.1932,1476.2434,672.1474,1465.9621,665.1581,1465.0136,667.1932,1476.2434" style="stroke:#000000;stroke-width:1.0;"/><text fill="#000000" font-family="Arial" font-size="16" lengthAdjust="spacing" textLength="33" x="679" y="1476.1064">is on</text><text fill="#000000" font-family="Arial" font-size="16" lengthAdjust="spacing" textLength="6" x="666.6044" y="1347.6629">*</text><text fill="#000000" font-family="Arial" font-size="16" lengthAdjust="spacing" textLength="9" x="627.7402" y="1594.7876">1</text></g><!--link Passage to Floor--><g id="link_Passage_Floor"><path codeLine="138" d="M827.4,1324.3086 C811.73,1339.0086 795.2,1356.6486 783,1375.0986 C738.52,1442.3586 754.66,1472.7986 717,1544.0986 C705.92,1565.0686 691.93,1586.8186 678.64,1605.9486 " fill="none" id="Passage-Floor" style="stroke:#454645;stroke-width:2.5;"/><polygon fill="#000000" points="786.1977,1475.6033,794.3855,1467.6528,788.1486,1464.3586,786.1977,1475.6033" style="stroke:#000000;stroke-width:1.0;"/><text fill="#000000" font-family="Arial" font-size="16" lengthAdjust="spacing" textLength="31" x="800" y="1476.1064">from</text><text fill="#000000" font-family="Arial" font-size="16" lengthAdjust="spacing" textLength="6" x="813.6519" y="1326.111">*</text><text fill="#000000" font-family="Arial" font-size="16" lengthAdjust="spacing" textLength="9" x="674.4102" y="1594.6754">1</text></g><!--link Passage to Floor--><g id="link_Passage_Floor"><path codeLine="139" d="M878.96,1324.7786 C882.32,1379.0386 880.85,1477.2686 836,1544.0986 C798.86,1599.4486 726.82,1633.1286 679.83,1650.1886 " fill="none" id="Passage-Floor-1" style="stroke:#454645;stroke-width:2.5;"/><polygon fill="#000000" points="881.8682,1475.4157,890.5418,1467.9983,884.5255,1464.3166,881.8682,1475.4157" style="stroke:#000000;stroke-width:1.0;"/><text fill="#000000" font-family="Arial" font-size="16" lengthAdjust="spacing" textLength="13" x="896" y="1476.1064">to</text><text fill="#000000" font-family="Arial" font-size="16" lengthAdjust="spacing" textLength="6" x="873.113" y="1347.7204">*</text><text fill="#000000" font-family="Arial" font-size="16" lengthAdjust="spacing" textLength="9" x="687.3837" y="1643.5663">1</text></g><!--link Task to User--><g id="link_Task_User"><path codeLine="142" d="M316.85,548.5686 C288.06,572.5086 258.8,599.5086 251,616.0986 C196.96,731.0986 204.53,881.8386 216.84,974.9086 " fill="none" id="Task-User" style="stroke:#454645;stroke-width:2.5;"/><polygon fill="#000000" points="255.6297,781.1393,261.5421,771.3775,254.6751,769.7666,255.6297,781.1393" style="stroke:#000000;stroke-width:1.0;"/><text fill="#000000" font-family="Arial" font-size="16" lengthAdjust="spacing" textLength="106" x="268" y="781.1064">is requested by</text><text fill="#000000" font-family="Arial" font-size="16" lengthAdjust="spacing" textLength="6" x="303.0858" y="550.4645">*</text><text fill="#000000" font-family="Arial" font-size="16" lengthAdjust="spacing" textLength="9" x="206.1505" y="963.7021">1</text></g><!--link SurveillanceTask to Floor--><g id="link_SurveillanceTask_Floor"><path codeLine="145" d="M459.59,825.3386 C452.79,881.9886 443,977.8486 443,1060.5986 C443,1060.5986 443,1060.5986 443,1471.0986 C443,1554.2786 533.75,1614.3086 590.47,1643.7086 " fill="none" id="SurveillanceTask-Floor" style="stroke:#454645;stroke-width:2.5;"/><polygon fill="#000000" points="449.9475,1290.2226,451.7159,1278.9477,444.751,1280.0616,449.9475,1290.2226" style="stroke:#000000;stroke-width:1.0;"/><text fill="#000000" font-family="Arial" font-size="16" lengthAdjust="spacing" textLength="149" x="460" y="1290.1064">makes surveillance to</text><text fill="#000000" font-family="Arial" font-size="16" lengthAdjust="spacing" textLength="6" x="452.4432" y="847.6154">*</text><text fill="#000000" font-family="Arial" font-size="16" lengthAdjust="spacing" textLength="6" x="576.5978" y="1635.7167">*</text></g><!--link PickupDeliveryTask to Room--><g id="link_PickupDeliveryTask_Room"><path codeLine="148" d="M658.48,852.8986 C635.6,874.9886 614.56,901.0686 602,930.0986 C559.28,1028.8086 562.35,1072.1186 602,1172.0986 C605.82,1181.7386 611.31,1181.1686 618,1189.0986 C632.64,1206.4486 647.93,1226.4186 660.56,1243.4886 " fill="none" id="PickupDeliveryTask-Room" style="stroke:#454645;stroke-width:2.5;"/><polygon fill="#000000" points="608.032,1067.7978,611.5008,1056.925,604.4475,1056.9626,608.032,1067.7978" style="stroke:#000000;stroke-width:1.0;"/><text fill="#000000" font-family="Arial" font-size="16" lengthAdjust="spacing" textLength="130" x="619" y="1067.6064">has a pickup place</text><text fill="#000000" font-family="Arial" font-size="16" lengthAdjust="spacing" textLength="6" x="644.3637" y="854.9595">*</text><text fill="#000000" font-family="Arial" font-size="16" lengthAdjust="spacing" textLength="9" x="646.1043" y="1232.2966">1</text></g><!--link PickupDeliveryTask to Room--><g id="link_PickupDeliveryTask_Room"><path codeLine="149" d="M777.23,889.3286 C781.71,969.7986 780.61,1079.5586 754,1172.0986 C746.69,1197.5286 732.22,1223.1986 718.78,1243.4386 " fill="none" id="PickupDeliveryTask-Room-1" style="stroke:#454645;stroke-width:2.5;"/><polygon fill="#000000" points="784.0229,1067.7177,789.2702,1057.5829,782.3109,1056.4342,784.0229,1067.7177" style="stroke:#000000;stroke-width:1.0;"/><text fill="#000000" font-family="Arial" font-size="16" lengthAdjust="spacing" textLength="137" x="796" y="1067.6064">has a delivery place</text><text fill="#000000" font-family="Arial" font-size="16" lengthAdjust="spacing" textLength="6" x="771.783" y="912.6165">*</text><text fill="#000000" font-family="Arial" font-size="16" lengthAdjust="spacing" textLength="9" x="713.967" y="1232.2383">1</text></g><!--link Planning to Task--><g id="link_Planning_Task"><path codeLine="152" d="M218.59,216.8486 C249.81,270.6286 300.21,357.4286 336.58,420.0886 " fill="none" id="Planning-Task" style="stroke:#454645;stroke-width:2.5;"/><polygon fill="#000000" points="297.0124,331.4868,294.6129,320.3292,288.5129,323.8706,297.0124,331.4868" style="stroke:#000000;stroke-width:1.0;"/><text fill="#000000" font-family="Arial" font-size="16" lengthAdjust="spacing" textLength="74" x="305" y="332.1064">have many</text><text fill="#000000" font-family="Arial" font-size="16" lengthAdjust="spacing" textLength="6" x="215.7088" y="239.1266">*</text><text fill="#000000" font-family="Arial" font-size="16" lengthAdjust="spacing" textLength="6" x="325.9121" y="408.6106">*</text></g><!--link Planning to User--><g id="link_Planning_User"><path codeLine="153" d="M167.81,216.8886 C156.05,247.4186 144,287.7786 144,325.0986 C144,325.0986 144,325.0986 144,776.0986 C144,845.1186 167.93,919.5186 190.83,974.9286 " fill="none" id="Planning-User" style="stroke:#454645;stroke-width:2.5;"/><polygon fill="#000000" points="150.1821,503.7951,153.3777,492.8389,146.3276,493.053,150.1821,503.7951" style="stroke:#000000;stroke-width:1.0;"/><text fill="#000000" font-family="Arial" font-size="16" lengthAdjust="spacing" textLength="91" x="161" y="503.6064">is planned by</text><text fill="#000000" font-family="Arial" font-size="16" lengthAdjust="spacing" textLength="6" x="158.74" y="239.1714">*</text><text fill="#000000" font-family="Arial" font-size="16" lengthAdjust="spacing" textLength="9" x="177.9052" y="963.7239">1</text></g><!--link Robot to RobotType--><g id="link_Robot_RobotType"><path codeLine="157" d="M1015.31,253.1786 C1003.96,308.1086 989.43,378.4186 978.9,429.3386 " fill="none" id="Robot-RobotType" style="stroke:#454645;stroke-width:2.5;"/><polygon fill="#000000" points="1006.7855,332.1737,1012.4362,322.2581,1005.5288,320.8304,1006.7855,332.1737" style="stroke:#000000;stroke-width:1.0;"/><text fill="#000000" font-family="Arial" font-size="16" lengthAdjust="spacing" textLength="38" x="1019" y="332.1064">has a</text><text fill="#000000" font-family="Arial" font-size="16" lengthAdjust="spacing" textLength="6" x="1007.532" y="276.4094">*</text><text fill="#000000" font-family="Arial" font-size="16" lengthAdjust="spacing" textLength="9" x="970.8694" y="418.3794">1</text></g><!--link Robot to TaskType--><g id="link_Robot_TaskType"><path codeLine="158" d="M1083.78,253.1986 C1093.13,275.8186 1100,300.7286 1100,325.0986 C1100,325.0986 1100,325.0986 1100,776.0986 C1100,854.7386 1089.65,945.0586 1081.77,1002.4486 " fill="none" id="Robot-TaskType" style="stroke:#454645;stroke-width:2.5;"/><polygon fill="#000000" points="1105.9839,503.7978,1109.5397,492.9532,1102.4863,492.9343,1105.9839,503.7978" style="stroke:#000000;stroke-width:1.0;"/><text fill="#000000" font-family="Arial" font-size="16" lengthAdjust="spacing" textLength="86" x="1117" y="503.6064">is allowed to</text><text fill="#000000" font-family="Arial" font-size="16" lengthAdjust="spacing" textLength="6" x="1081.8861" y="276.4311">*</text><text fill="#000000" font-family="Arial" font-size="16" lengthAdjust="spacing" textLength="9" x="1073.2904" y="991.1754">1</text></g><!--link RobotType to TaskType--><g id="link_RobotType_TaskType"><path codeLine="161" d="M959.02,565.9286 C953.76,649.3286 951.66,794.8586 987,913.0986 C996.42,944.6186 1013.84,976.5386 1030.55,1002.5886 " fill="none" id="RobotType-TaskType" style="stroke:#454645;stroke-width:2.5;"/><polygon fill="#000000" points="993.9699,781.2189,995.6956,769.9375,988.735,771.0777,993.9699,781.2189" style="stroke:#000000;stroke-width:1.0;"/><text fill="#000000" font-family="Arial" font-size="16" lengthAdjust="spacing" textLength="69" x="1004" y="781.1064">is allowed</text><text fill="#000000" font-family="Arial" font-size="16" lengthAdjust="spacing" textLength="6" x="952.0939" y="588.9115">*</text><text fill="#000000" font-family="Arial" font-size="16" lengthAdjust="spacing" textLength="6" x="1019.0108" y="991.3325">*</text></g><!--reverse link Task to SurveillanceTask--><g id="link_Task_SurveillanceTask"><path codeLine="165" d="M410.66,594.7186 C424.23,638.7186 439.74,688.9686 450.87,725.0686 " fill="none" id="Task-backto-SurveillanceTask" style="stroke:#454645;stroke-width:2.5;"/><polygon fill="none" points="403.88,596.5186,404.68,575.3386,417.26,592.3886,403.88,596.5186" style="stroke:#454645;stroke-width:2.5;"/></g><!--reverse link Task to PickupDeliveryTask--><g id="link_Task_PickupDeliveryTask"><path codeLine="166" d="M461.88,551.1586 C492,571.1186 526.32,594.2886 557,616.0986 C590.37,639.8186 626.1,666.3886 658.42,690.8686 " fill="none" id="Task-backto-PickupDeliveryTask" style="stroke:#454645;stroke-width:2.5;"/><polygon fill="none" points="458,556.9886,445.16,540.1286,465.7,545.2986,458,556.9886" style="stroke:#454645;stroke-width:2.5;"/></g><!--SRC=[dLNDRjim3BxhARHS2Wpei1RO3aLWe6lNsuAWonv0iPb4Y2nwaf8Yw_hke-HVsQuJp3TJ_CYF_tOlTI6Co1McUyXu1XjnKEu9jVif_m2__SnihS8VsyU5o87V6odK-7i0ttnzvz6T5F0rggppVcyClgnsCjrhi9RVVlh2FhWTa1k79yQST8J9C1TIynmpK8mL8jsBBV3PV2wsMmDRuI19-BU3L9dKszahOvm-q0G-DM8-dvUI99dF3Q9BajUWvx-KB3S_ce9iVZAPWxOIjGsYDyRUtcNmNS5HE3Gz1hLuaa46LcwrSEJflACdXS5BnqaGTJoqblKXNuDfVgNUeCbRHr7uRnDEdn7psAUNd7CvPN4fh2LnRBGIZjeT9ecClsVzbuLUZhnaiWXHvO5wJZL_1T5wGPErkdBJFkvGm-Aoe9znZQwVHn9D4fEPVzl8DAwRzcFJvKm1qcmkuefJrb8ZYmXf7R6vZElgLC08No-UvEn8eVbP6w7Rt9M3VDwx6ZXMS5a1f-okXDt7ThraqcuXtAxvCJxy7tYa9QMTRMja7p0l53Xe0tLaU5NdOOhJpuCvWbHAw1G2FnuHx3-FaEMl_zMEIsgXG_48IXx1d4PS3nNEE0_wIoNIpXAjqB6qqWHZKI-YdLkh3v-wc6Klp25qJCENv75a8bBK6rajneTBzY45etLvRxhfggHdperrvnVOgcgUOQ-UdRtuXFMY3KwlVC0QKXTEszM1DWSB-t7sSSQlhw_vx6OMvksExuJbYKUigrFAocFJrQolx1sD0QTLYQca8B8I1zK1PCqbz9009HF1s1rFXUPOW25OYTfuEGitfkkfKYStg8DYKHuCLX-E4UMD8IF9b8R3qgdl3XQQlAla4nDS6lXz0Ei3MvzAWErD9XkCQcEeZJKNUx0Hj25G3CQDZKnWN2JCooA92iqBFsS-uCkHzU0qMC-bwcNMD7Kt5c_Eeuz0yMYVZg5QDtV1MfCvCX_sA2kFNqohEYyrjsH4gHw3ik6KmXSoNIVHr1POUwhwr0VWafJKExgXpjUax8FvNmBrYzfv6kQOiNy0]--></g></svg>