<?xml version="1.0" encoding="UTF-8" standalone="no"?><svg xmlns="http://www.w3.org/2000/svg" xmlns:xlink="http://www.w3.org/1999/xlink" contentStyleType="text/css" height="1126px" preserveAspectRatio="none" style="width:1620px;height:1126px;background:#DDDDDD;" version="1.1" viewBox="0 0 1620 1126" width="1620px" zoomAndPan="magnify"><defs/><g><rect fill="#DDDDDD" height="1126" style="stroke:none;stroke-width:1.0;" width="1620" x="0" y="0"/><text fill="#000000" font-family="Arial" font-size="14" font-weight="bold" lengthAdjust="spacing" textLength="98" x="754" y="23.1318">domain model</text><!--cluster <<aggregate>> Building--><g id="cluster_&lt;&lt;aggregate&gt;&gt; Building"><path d="M261.5,930.0986 L423.5,930.0986 A5.25,5.25 0 0 1 427,933.5986 L434,954.4971 L433.5,954.4971 A3.5,3.5 0 0 1 437,957.9971 L437,1115.5986 A3.5,3.5 0 0 1 433.5,1119.0986 L261.5,1119.0986 A3.5,3.5 0 0 1 258,1115.5986 L258,933.5986 A3.5,3.5 0 0 1 261.5,930.0986 " fill="none" style="stroke:#454645;stroke-width:1.0;"/><line style="stroke:#454645;stroke-width:1.0;" x1="258" x2="434" y1="954.4971" y2="954.4971"/><text fill="#000000" font-family="Arial" font-size="16" font-weight="bold" lengthAdjust="spacing" textLength="163" x="262" y="947.1064">«aggregate» Building</text></g><!--cluster <<aggregate>> Elevator--><g id="cluster_&lt;&lt;aggregate&gt;&gt; Elevator"><path d="M64.5,645.0986 L225.5,645.0986 A5.25,5.25 0 0 1 229,648.5986 L236,669.4971 L235.5,669.4971 A3.5,3.5 0 0 1 239,672.9971 L239,812.5986 A3.5,3.5 0 0 1 235.5,816.0986 L64.5,816.0986 A3.5,3.5 0 0 1 61,812.5986 L61,648.5986 A3.5,3.5 0 0 1 64.5,645.0986 " fill="none" style="stroke:#454645;stroke-width:1.0;"/><line style="stroke:#454645;stroke-width:1.0;" x1="61" x2="236" y1="669.4971" y2="669.4971"/><text fill="#000000" font-family="Arial" font-size="16" font-weight="bold" lengthAdjust="spacing" textLength="162" x="65" y="662.1064">«aggregate» Elevator</text></g><!--cluster <<aggregate>> Floor--><g id="cluster_&lt;&lt;aggregate&gt;&gt; Floor"><path d="M279.5,654.0986 L417.5,654.0986 A5.25,5.25 0 0 1 421,657.5986 L428,678.4971 L427.5,678.4971 A3.5,3.5 0 0 1 431,681.9971 L431,803.5986 A3.5,3.5 0 0 1 427.5,807.0986 L279.5,807.0986 A3.5,3.5 0 0 1 276,803.5986 L276,657.5986 A3.5,3.5 0 0 1 279.5,654.0986 " fill="none" style="stroke:#454645;stroke-width:1.0;"/><line style="stroke:#454645;stroke-width:1.0;" x1="276" x2="428" y1="678.4971" y2="678.4971"/><text fill="#000000" font-family="Arial" font-size="16" font-weight="bold" lengthAdjust="spacing" textLength="139" x="280" y="671.1064">«aggregate» Floor</text></g><!--cluster <<aggregate>> Room--><g id="cluster_&lt;&lt;aggregate&gt;&gt; Room"><path d="M377.5,351.0986 L521.5,351.0986 A5.25,5.25 0 0 1 525,354.5986 L532,375.4971 L531.5,375.4971 A3.5,3.5 0 0 1 535,378.9971 L535,481.5986 A3.5,3.5 0 0 1 531.5,485.0986 L377.5,485.0986 A3.5,3.5 0 0 1 374,481.5986 L374,354.5986 A3.5,3.5 0 0 1 377.5,351.0986 " fill="none" style="stroke:#454645;stroke-width:1.0;"/><line style="stroke:#454645;stroke-width:1.0;" x1="374" x2="532" y1="375.4971" y2="375.4971"/><text fill="#000000" font-family="Arial" font-size="16" font-weight="bold" lengthAdjust="spacing" textLength="145" x="378" y="368.1064">«aggregate» Room</text></g><!--cluster <<aggregate>> Passage--><g id="cluster_&lt;&lt;aggregate&gt;&gt; Passage"><path d="M9.5,360.0986 L173.5,360.0986 A5.25,5.25 0 0 1 177,363.5986 L184,384.4971 L183.5,384.4971 A3.5,3.5 0 0 1 187,387.9971 L187,472.5986 A3.5,3.5 0 0 1 183.5,476.0986 L9.5,476.0986 A3.5,3.5 0 0 1 6,472.5986 L6,363.5986 A3.5,3.5 0 0 1 9.5,360.0986 " fill="none" style="stroke:#454645;stroke-width:1.0;"/><line style="stroke:#454645;stroke-width:1.0;" x1="6" x2="184" y1="384.4971" y2="384.4971"/><text fill="#000000" font-family="Arial" font-size="16" font-weight="bold" lengthAdjust="spacing" textLength="165" x="10" y="377.1064">«aggregate» Passage</text></g><!--cluster <<aggregate>> User--><g id="cluster_&lt;&lt;aggregate&gt;&gt; User"><path d="M978.5,70.5986 L1112.5,70.5986 A5.25,5.25 0 0 1 1116,74.0986 L1123,94.9971 L1609.5,94.9971 A3.5,3.5 0 0 1 1613,98.4971 L1613,527.5986 A3.5,3.5 0 0 1 1609.5,531.0986 L978.5,531.0986 A3.5,3.5 0 0 1 975,527.5986 L975,74.0986 A3.5,3.5 0 0 1 978.5,70.5986 " fill="none" style="stroke:#454645;stroke-width:1.0;"/><line style="stroke:#454645;stroke-width:1.0;" x1="975" x2="1123" y1="94.9971" y2="94.9971"/><text fill="#000000" font-family="Arial" font-size="16" font-weight="bold" lengthAdjust="spacing" textLength="135" x="979" y="87.6064">«aggregate» User</text></g><!--cluster <<aggregate>> Robot--><g id="cluster_&lt;&lt;aggregate&gt;&gt; Robot"><path d="M606.5,351.0986 L751.5,351.0986 A5.25,5.25 0 0 1 755,354.5986 L762,375.4971 L761.5,375.4971 A3.5,3.5 0 0 1 765,378.9971 L765,481.5986 A3.5,3.5 0 0 1 761.5,485.0986 L606.5,485.0986 A3.5,3.5 0 0 1 603,481.5986 L603,354.5986 A3.5,3.5 0 0 1 606.5,351.0986 " fill="none" style="stroke:#454645;stroke-width:1.0;"/><line style="stroke:#454645;stroke-width:1.0;" x1="603" x2="762" y1="375.4971" y2="375.4971"/><text fill="#000000" font-family="Arial" font-size="16" font-weight="bold" lengthAdjust="spacing" textLength="146" x="607" y="368.1064">«aggregate» Robot</text></g><!--cluster <<aggregate>> Drone--><g id="cluster_&lt;&lt;aggregate&gt;&gt; Drone"><path d="M792.5,351.0986 L937.5,351.0986 A5.25,5.25 0 0 1 941,354.5986 L948,375.4971 L947.5,375.4971 A3.5,3.5 0 0 1 951,378.9971 L951,481.5986 A3.5,3.5 0 0 1 947.5,485.0986 L792.5,485.0986 A3.5,3.5 0 0 1 789,481.5986 L789,354.5986 A3.5,3.5 0 0 1 792.5,351.0986 " fill="none" style="stroke:#454645;stroke-width:1.0;"/><line style="stroke:#454645;stroke-width:1.0;" x1="789" x2="948" y1="375.4971" y2="375.4971"/><text fill="#000000" font-family="Arial" font-size="16" font-weight="bold" lengthAdjust="spacing" textLength="146" x="793" y="368.1064">«aggregate» Drone</text></g><!--cluster <<aggregate>> Task--><g id="cluster_&lt;&lt;aggregate&gt;&gt; Task"><path d="M542.5,43.0986 L677.5,43.0986 A5.25,5.25 0 0 1 681,46.5986 L688,67.4971 L687.5,67.4971 A3.5,3.5 0 0 1 691,70.9971 L691,210.5986 A3.5,3.5 0 0 1 687.5,214.0986 L542.5,214.0986 A3.5,3.5 0 0 1 539,210.5986 L539,46.5986 A3.5,3.5 0 0 1 542.5,43.0986 " fill="none" style="stroke:#454645;stroke-width:1.0;"/><line style="stroke:#454645;stroke-width:1.0;" x1="539" x2="688" y1="67.4971" y2="67.4971"/><text fill="#000000" font-family="Arial" font-size="16" font-weight="bold" lengthAdjust="spacing" textLength="136" x="543" y="60.1064">«aggregate» Task</text></g><!--class Building--><g id="elem_Building"><rect codeLine="11" fill="#F1F1F1" height="136.3906" id="Building" rx="3.5" ry="3.5" style="stroke:#181818;stroke-width:0.5;" width="92" x="301" y="967.0986"/><ellipse cx="317.8" cy="999.6963" fill="#ADD1B2" rx="11" ry="11" style="stroke:#181818;stroke-width:1.0;"/><path d="M316.9563,1000.2432 L316.9563,1002.5869 L321.05,1002.5869 L321.05,1001.7275 Q321.05,1001.1494 321.2688,1000.8994 Q321.4875,1000.6494 321.8469,1000.6494 Q322.2063,1000.6494 322.425,1000.8994 Q322.6438,1001.1494 322.6438,1001.7275 L322.6438,1004.1963 L315.1125,1004.1963 Q314.5344,1004.1963 314.2844,1003.9775 Q314.0344,1003.7432 314.0344,1003.3838 Q314.0344,1003.04 314.2844,1002.8213 Q314.5344,1002.5869 315.1125,1002.5869 L315.3625,1002.5869 L315.3625,996.3213 L315.1125,996.3213 Q314.5344,996.3213 314.2844,996.1025 Q314.0344,995.8838 314.0344,995.5244 Q314.0344,995.165 314.2844,994.9463 Q314.5344,994.7119 315.1125,994.7119 L322.3,994.7275 L322.3,997.165 Q322.3,997.7275 322.0813,997.9775 Q321.8625,998.2275 321.5031,998.2275 Q321.1438,998.2275 320.9094,997.9932 Q320.6906,997.7432 320.6906,997.165 L320.6906,996.3213 L316.9563,996.3213 L316.9563,998.6338 L318.3625,998.6338 Q318.3625,998.0088 318.4875,997.8369 Q318.7219,997.4463 319.175,997.4463 Q319.5188,997.4463 319.7375,997.6963 Q319.9719,997.9463 319.9719,998.5244 L319.9719,1000.3682 Q319.9719,1000.8838 319.8469,1001.0713 Q319.5969,1001.4307 319.175,1001.4307 Q318.7219,1001.4307 318.4875,1001.0557 Q318.3625,1000.8682 318.3625,1000.2432 L316.9563,1000.2432 Z " fill="#000000"/><text fill="#000000" font-family="Arial" font-size="16" font-weight="bold" lengthAdjust="spacing" textLength="60" x="330.2" y="987.1064">«entity»</text><text fill="#000000" font-family="Arial" font-size="16" font-weight="bold" lengthAdjust="spacing" textLength="49" x="335.7" y="1005.5049">«root»</text><text fill="#000000" font-family="Arial" font-size="16" lengthAdjust="spacing" textLength="56" x="332.2" y="1023.9033">Building</text><line style="stroke:#181818;stroke-width:0.5;" x1="302" x2="392" y1="1032.2939" y2="1032.2939"/><text fill="#000000" font-family="Arial" font-size="16" lengthAdjust="spacing" textLength="35" x="307" y="1051.3018">code</text><text fill="#000000" font-family="Arial" font-size="16" lengthAdjust="spacing" textLength="39" x="307" y="1069.7002">name</text><text fill="#000000" font-family="Arial" font-size="16" lengthAdjust="spacing" textLength="80" x="307" y="1088.0986">dimensions</text><line style="stroke:#181818;stroke-width:0.5;" x1="302" x2="392" y1="1095.4893" y2="1095.4893"/></g><!--class Elevator--><g id="elem_Elevator"><rect codeLine="21" fill="#F1F1F1" height="117.9922" id="Elevator" rx="3.5" ry="3.5" style="stroke:#181818;stroke-width:0.5;" width="105" x="113.5" y="682.0986"/><ellipse cx="135.7" cy="714.6963" fill="#ADD1B2" rx="11" ry="11" style="stroke:#181818;stroke-width:1.0;"/><path d="M134.8563,715.2432 L134.8563,717.5869 L138.95,717.5869 L138.95,716.7275 Q138.95,716.1494 139.1688,715.8994 Q139.3875,715.6494 139.7469,715.6494 Q140.1063,715.6494 140.325,715.8994 Q140.5438,716.1494 140.5438,716.7275 L140.5438,719.1963 L133.0125,719.1963 Q132.4344,719.1963 132.1844,718.9775 Q131.9344,718.7432 131.9344,718.3838 Q131.9344,718.04 132.1844,717.8213 Q132.4344,717.5869 133.0125,717.5869 L133.2625,717.5869 L133.2625,711.3213 L133.0125,711.3213 Q132.4344,711.3213 132.1844,711.1025 Q131.9344,710.8838 131.9344,710.5244 Q131.9344,710.165 132.1844,709.9463 Q132.4344,709.7119 133.0125,709.7119 L140.2,709.7275 L140.2,712.165 Q140.2,712.7275 139.9813,712.9775 Q139.7625,713.2275 139.4031,713.2275 Q139.0438,713.2275 138.8094,712.9932 Q138.5906,712.7432 138.5906,712.165 L138.5906,711.3213 L134.8563,711.3213 L134.8563,713.6338 L136.2625,713.6338 Q136.2625,713.0088 136.3875,712.8369 Q136.6219,712.4463 137.075,712.4463 Q137.4188,712.4463 137.6375,712.6963 Q137.8719,712.9463 137.8719,713.5244 L137.8719,715.3682 Q137.8719,715.8838 137.7469,716.0713 Q137.4969,716.4307 137.075,716.4307 Q136.6219,716.4307 136.3875,716.0557 Q136.2625,715.8682 136.2625,715.2432 L134.8563,715.2432 Z " fill="#000000"/><text fill="#000000" font-family="Arial" font-size="16" font-weight="bold" lengthAdjust="spacing" textLength="60" x="149.8" y="702.1064">«entity»</text><text fill="#000000" font-family="Arial" font-size="16" font-weight="bold" lengthAdjust="spacing" textLength="49" x="155.3" y="720.5049">«root»</text><text fill="#000000" font-family="Arial" font-size="16" lengthAdjust="spacing" textLength="57" x="151.3" y="738.9033">Elevator</text><line style="stroke:#181818;stroke-width:0.5;" x1="114.5" x2="217.5" y1="747.2939" y2="747.2939"/><text fill="#000000" font-family="Arial" font-size="16" lengthAdjust="spacing" textLength="81" x="119.5" y="766.3018">designation</text><text fill="#000000" font-family="Arial" font-size="16" lengthAdjust="spacing" textLength="93" x="119.5" y="784.7002">floorsAllowed</text><line style="stroke:#181818;stroke-width:0.5;" x1="114.5" x2="217.5" y1="792.0908" y2="792.0908"/></g><!--class Floor--><g id="elem_Floor"><rect codeLine="29" fill="#F1F1F1" height="99.5938" id="Floor" rx="3.5" ry="3.5" style="stroke:#181818;stroke-width:0.5;" width="89" x="299.5" y="691.0986"/><ellipse cx="314.95" cy="714.4971" fill="#ADD1B2" rx="11" ry="11" style="stroke:#181818;stroke-width:1.0;"/><path d="M314.1063,715.0439 L314.1063,717.3877 L318.2,717.3877 L318.2,716.5283 Q318.2,715.9502 318.4188,715.7002 Q318.6375,715.4502 318.9969,715.4502 Q319.3563,715.4502 319.575,715.7002 Q319.7938,715.9502 319.7938,716.5283 L319.7938,718.9971 L312.2625,718.9971 Q311.6844,718.9971 311.4344,718.7783 Q311.1844,718.5439 311.1844,718.1846 Q311.1844,717.8408 311.4344,717.6221 Q311.6844,717.3877 312.2625,717.3877 L312.5125,717.3877 L312.5125,711.1221 L312.2625,711.1221 Q311.6844,711.1221 311.4344,710.9033 Q311.1844,710.6846 311.1844,710.3252 Q311.1844,709.9658 311.4344,709.7471 Q311.6844,709.5127 312.2625,709.5127 L319.45,709.5283 L319.45,711.9658 Q319.45,712.5283 319.2313,712.7783 Q319.0125,713.0283 318.6531,713.0283 Q318.2938,713.0283 318.0594,712.7939 Q317.8406,712.5439 317.8406,711.9658 L317.8406,711.1221 L314.1063,711.1221 L314.1063,713.4346 L315.5125,713.4346 Q315.5125,712.8096 315.6375,712.6377 Q315.8719,712.2471 316.325,712.2471 Q316.6688,712.2471 316.8875,712.4971 Q317.1219,712.7471 317.1219,713.3252 L317.1219,715.1689 Q317.1219,715.6846 316.9969,715.8721 Q316.7469,716.2314 316.325,716.2314 Q315.8719,716.2314 315.6375,715.8564 Q315.5125,715.6689 315.5125,715.0439 L314.1063,715.0439 Z " fill="#000000"/><text fill="#000000" font-family="Arial" font-size="16" font-weight="bold" lengthAdjust="spacing" textLength="60" x="327.05" y="711.1064">«entity»</text><text fill="#000000" font-family="Arial" font-size="16" lengthAdjust="spacing" textLength="36" x="339.05" y="729.5049">Floor</text><line style="stroke:#181818;stroke-width:0.5;" x1="300.5" x2="387.5" y1="737.8955" y2="737.8955"/><text fill="#000000" font-family="Arial" font-size="16" lengthAdjust="spacing" textLength="52" x="305.5" y="756.9033">number</text><text fill="#000000" font-family="Arial" font-size="16" lengthAdjust="spacing" textLength="77" x="305.5" y="775.3018">information</text><line style="stroke:#181818;stroke-width:0.5;" x1="300.5" x2="387.5" y1="782.6924" y2="782.6924"/></g><!--class Room--><g id="elem_Room"><rect codeLine="36" fill="#F1F1F1" height="81.1953" id="Room" rx="3.5" ry="3.5" style="stroke:#181818;stroke-width:0.5;" width="88" x="393" y="388.0986"/><ellipse cx="408" cy="411.4971" fill="#ADD1B2" rx="11" ry="11" style="stroke:#181818;stroke-width:1.0;"/><path d="M407.1563,412.0439 L407.1563,414.3877 L411.25,414.3877 L411.25,413.5283 Q411.25,412.9502 411.4688,412.7002 Q411.6875,412.4502 412.0469,412.4502 Q412.4063,412.4502 412.625,412.7002 Q412.8438,412.9502 412.8438,413.5283 L412.8438,415.9971 L405.3125,415.9971 Q404.7344,415.9971 404.4844,415.7783 Q404.2344,415.5439 404.2344,415.1846 Q404.2344,414.8408 404.4844,414.6221 Q404.7344,414.3877 405.3125,414.3877 L405.5625,414.3877 L405.5625,408.1221 L405.3125,408.1221 Q404.7344,408.1221 404.4844,407.9033 Q404.2344,407.6846 404.2344,407.3252 Q404.2344,406.9658 404.4844,406.7471 Q404.7344,406.5127 405.3125,406.5127 L412.5,406.5283 L412.5,408.9658 Q412.5,409.5283 412.2813,409.7783 Q412.0625,410.0283 411.7031,410.0283 Q411.3438,410.0283 411.1094,409.7939 Q410.8906,409.5439 410.8906,408.9658 L410.8906,408.1221 L407.1563,408.1221 L407.1563,410.4346 L408.5625,410.4346 Q408.5625,409.8096 408.6875,409.6377 Q408.9219,409.2471 409.375,409.2471 Q409.7188,409.2471 409.9375,409.4971 Q410.1719,409.7471 410.1719,410.3252 L410.1719,412.1689 Q410.1719,412.6846 410.0469,412.8721 Q409.7969,413.2314 409.375,413.2314 Q408.9219,413.2314 408.6875,412.8564 Q408.5625,412.6689 408.5625,412.0439 L407.1563,412.0439 Z " fill="#000000"/><text fill="#000000" font-family="Arial" font-size="16" font-weight="bold" lengthAdjust="spacing" textLength="60" x="420" y="408.1064">«entity»</text><text fill="#000000" font-family="Arial" font-size="16" lengthAdjust="spacing" textLength="42" x="429" y="426.5049">Room</text><line style="stroke:#181818;stroke-width:0.5;" x1="394" x2="480" y1="434.8955" y2="434.8955"/><text fill="#000000" font-family="Arial" font-size="16" lengthAdjust="spacing" textLength="52" x="399" y="453.9033">number</text><line style="stroke:#181818;stroke-width:0.5;" x1="394" x2="480" y1="461.2939" y2="461.2939"/></g><!--class Passage--><g id="elem_Passage"><rect codeLine="42" fill="#F1F1F1" height="62.7969" id="Passage" rx="3.5" ry="3.5" style="stroke:#181818;stroke-width:0.5;" width="95" x="66.5" y="397.0986"/><ellipse cx="81.5" cy="420.4971" fill="#ADD1B2" rx="11" ry="11" style="stroke:#181818;stroke-width:1.0;"/><path d="M80.6563,421.0439 L80.6563,423.3877 L84.75,423.3877 L84.75,422.5283 Q84.75,421.9502 84.9688,421.7002 Q85.1875,421.4502 85.5469,421.4502 Q85.9063,421.4502 86.125,421.7002 Q86.3438,421.9502 86.3438,422.5283 L86.3438,424.9971 L78.8125,424.9971 Q78.2344,424.9971 77.9844,424.7783 Q77.7344,424.5439 77.7344,424.1846 Q77.7344,423.8408 77.9844,423.6221 Q78.2344,423.3877 78.8125,423.3877 L79.0625,423.3877 L79.0625,417.1221 L78.8125,417.1221 Q78.2344,417.1221 77.9844,416.9033 Q77.7344,416.6846 77.7344,416.3252 Q77.7344,415.9658 77.9844,415.7471 Q78.2344,415.5127 78.8125,415.5127 L86,415.5283 L86,417.9658 Q86,418.5283 85.7813,418.7783 Q85.5625,419.0283 85.2031,419.0283 Q84.8438,419.0283 84.6094,418.7939 Q84.3906,418.5439 84.3906,417.9658 L84.3906,417.1221 L80.6563,417.1221 L80.6563,419.4346 L82.0625,419.4346 Q82.0625,418.8096 82.1875,418.6377 Q82.4219,418.2471 82.875,418.2471 Q83.2188,418.2471 83.4375,418.4971 Q83.6719,418.7471 83.6719,419.3252 L83.6719,421.1689 Q83.6719,421.6846 83.5469,421.8721 Q83.2969,422.2314 82.875,422.2314 Q82.4219,422.2314 82.1875,421.8564 Q82.0625,421.6689 82.0625,421.0439 L80.6563,421.0439 Z " fill="#000000"/><text fill="#000000" font-family="Arial" font-size="16" font-weight="bold" lengthAdjust="spacing" textLength="60" x="97" y="417.1064">«entity»</text><text fill="#000000" font-family="Arial" font-size="16" lengthAdjust="spacing" textLength="63" x="95.5" y="435.5049">Passage</text><line style="stroke:#181818;stroke-width:0.5;" x1="67.5" x2="160.5" y1="443.8955" y2="443.8955"/><line style="stroke:#181818;stroke-width:0.5;" x1="67.5" x2="160.5" y1="451.8955" y2="451.8955"/></g><!--class User--><g id="elem_User"><rect codeLine="50" fill="#F1F1F1" height="173.1875" id="User" rx="3.5" ry="3.5" style="stroke:#181818;stroke-width:0.5;" width="88" x="1200" y="342.0986"/><ellipse cx="1215" cy="374.6963" fill="#ADD1B2" rx="11" ry="11" style="stroke:#181818;stroke-width:1.0;"/><path d="M1214.1563,375.2432 L1214.1563,377.5869 L1218.25,377.5869 L1218.25,376.7275 Q1218.25,376.1494 1218.4688,375.8994 Q1218.6875,375.6494 1219.0469,375.6494 Q1219.4063,375.6494 1219.625,375.8994 Q1219.8438,376.1494 1219.8438,376.7275 L1219.8438,379.1963 L1212.3125,379.1963 Q1211.7344,379.1963 1211.4844,378.9775 Q1211.2344,378.7432 1211.2344,378.3838 Q1211.2344,378.04 1211.4844,377.8213 Q1211.7344,377.5869 1212.3125,377.5869 L1212.5625,377.5869 L1212.5625,371.3213 L1212.3125,371.3213 Q1211.7344,371.3213 1211.4844,371.1025 Q1211.2344,370.8838 1211.2344,370.5244 Q1211.2344,370.165 1211.4844,369.9463 Q1211.7344,369.7119 1212.3125,369.7119 L1219.5,369.7275 L1219.5,372.165 Q1219.5,372.7275 1219.2813,372.9775 Q1219.0625,373.2275 1218.7031,373.2275 Q1218.3438,373.2275 1218.1094,372.9932 Q1217.8906,372.7432 1217.8906,372.165 L1217.8906,371.3213 L1214.1563,371.3213 L1214.1563,373.6338 L1215.5625,373.6338 Q1215.5625,373.0088 1215.6875,372.8369 Q1215.9219,372.4463 1216.375,372.4463 Q1216.7188,372.4463 1216.9375,372.6963 Q1217.1719,372.9463 1217.1719,373.5244 L1217.1719,375.3682 Q1217.1719,375.8838 1217.0469,376.0713 Q1216.7969,376.4307 1216.375,376.4307 Q1215.9219,376.4307 1215.6875,376.0557 Q1215.5625,375.8682 1215.5625,375.2432 L1214.1563,375.2432 Z " fill="#000000"/><text fill="#000000" font-family="Arial" font-size="16" font-weight="bold" lengthAdjust="spacing" textLength="60" x="1227" y="362.1064">«entity»</text><text fill="#000000" font-family="Arial" font-size="16" font-weight="bold" lengthAdjust="spacing" textLength="49" x="1232.5" y="380.5049">«root»</text><text fill="#000000" font-family="Arial" font-size="16" lengthAdjust="spacing" textLength="33" x="1240.5" y="398.9033">User</text><line style="stroke:#181818;stroke-width:0.5;" x1="1201" x2="1287" y1="407.2939" y2="407.2939"/><text fill="#000000" font-family="Arial" font-size="16" lengthAdjust="spacing" textLength="67" x="1206" y="426.3018">firstName</text><text fill="#000000" font-family="Arial" font-size="16" lengthAdjust="spacing" textLength="66" x="1206" y="444.7002">lastName</text><text fill="#000000" font-family="Arial" font-size="16" lengthAdjust="spacing" textLength="38" x="1206" y="463.0986">email</text><text fill="#000000" font-family="Arial" font-size="16" lengthAdjust="spacing" textLength="68" x="1206" y="481.4971">password</text><text fill="#000000" font-family="Arial" font-size="16" lengthAdjust="spacing" textLength="26" x="1206" y="499.8955">role</text><line style="stroke:#181818;stroke-width:0.5;" x1="1201" x2="1287" y1="507.2861" y2="507.2861"/></g><!--class NormalUser--><g id="elem_NormalUser"><rect codeLine="58" fill="#F1F1F1" height="62.7969" id="NormalUser" rx="3.5" ry="3.5" style="stroke:#181818;stroke-width:0.5;" width="115" x="1481.5" y="107.5986"/><ellipse cx="1496.5" cy="130.9971" fill="#ADD1B2" rx="11" ry="11" style="stroke:#181818;stroke-width:1.0;"/><path d="M1495.6563,131.5439 L1495.6563,133.8877 L1499.75,133.8877 L1499.75,133.0283 Q1499.75,132.4502 1499.9688,132.2002 Q1500.1875,131.9502 1500.5469,131.9502 Q1500.9063,131.9502 1501.125,132.2002 Q1501.3438,132.4502 1501.3438,133.0283 L1501.3438,135.4971 L1493.8125,135.4971 Q1493.2344,135.4971 1492.9844,135.2783 Q1492.7344,135.0439 1492.7344,134.6846 Q1492.7344,134.3408 1492.9844,134.1221 Q1493.2344,133.8877 1493.8125,133.8877 L1494.0625,133.8877 L1494.0625,127.6221 L1493.8125,127.6221 Q1493.2344,127.6221 1492.9844,127.4033 Q1492.7344,127.1846 1492.7344,126.8252 Q1492.7344,126.4658 1492.9844,126.2471 Q1493.2344,126.0127 1493.8125,126.0127 L1501,126.0283 L1501,128.4658 Q1501,129.0283 1500.7813,129.2783 Q1500.5625,129.5283 1500.2031,129.5283 Q1499.8438,129.5283 1499.6094,129.2939 Q1499.3906,129.0439 1499.3906,128.4658 L1499.3906,127.6221 L1495.6563,127.6221 L1495.6563,129.9346 L1497.0625,129.9346 Q1497.0625,129.3096 1497.1875,129.1377 Q1497.4219,128.7471 1497.875,128.7471 Q1498.2188,128.7471 1498.4375,128.9971 Q1498.6719,129.2471 1498.6719,129.8252 L1498.6719,131.6689 Q1498.6719,132.1846 1498.5469,132.3721 Q1498.2969,132.7314 1497.875,132.7314 Q1497.4219,132.7314 1497.1875,132.3564 Q1497.0625,132.1689 1497.0625,131.5439 L1495.6563,131.5439 Z " fill="#000000"/><text fill="#000000" font-family="Arial" font-size="16" font-weight="bold" lengthAdjust="spacing" textLength="60" x="1522" y="127.6064">«entity»</text><text fill="#000000" font-family="Arial" font-size="16" lengthAdjust="spacing" textLength="83" x="1510.5" y="146.0049">NormalUser</text><line style="stroke:#181818;stroke-width:0.5;" x1="1482.5" x2="1595.5" y1="154.3955" y2="154.3955"/><line style="stroke:#181818;stroke-width:0.5;" x1="1482.5" x2="1595.5" y1="162.3955" y2="162.3955"/></g><!--class SysAdmin--><g id="elem_SysAdmin"><rect codeLine="61" fill="#F1F1F1" height="62.7969" id="SysAdmin" rx="3.5" ry="3.5" style="stroke:#181818;stroke-width:0.5;" width="103" x="1343.5" y="107.5986"/><ellipse cx="1358.5" cy="130.9971" fill="#ADD1B2" rx="11" ry="11" style="stroke:#181818;stroke-width:1.0;"/><path d="M1357.6563,131.5439 L1357.6563,133.8877 L1361.75,133.8877 L1361.75,133.0283 Q1361.75,132.4502 1361.9688,132.2002 Q1362.1875,131.9502 1362.5469,131.9502 Q1362.9063,131.9502 1363.125,132.2002 Q1363.3438,132.4502 1363.3438,133.0283 L1363.3438,135.4971 L1355.8125,135.4971 Q1355.2344,135.4971 1354.9844,135.2783 Q1354.7344,135.0439 1354.7344,134.6846 Q1354.7344,134.3408 1354.9844,134.1221 Q1355.2344,133.8877 1355.8125,133.8877 L1356.0625,133.8877 L1356.0625,127.6221 L1355.8125,127.6221 Q1355.2344,127.6221 1354.9844,127.4033 Q1354.7344,127.1846 1354.7344,126.8252 Q1354.7344,126.4658 1354.9844,126.2471 Q1355.2344,126.0127 1355.8125,126.0127 L1363,126.0283 L1363,128.4658 Q1363,129.0283 1362.7813,129.2783 Q1362.5625,129.5283 1362.2031,129.5283 Q1361.8438,129.5283 1361.6094,129.2939 Q1361.3906,129.0439 1361.3906,128.4658 L1361.3906,127.6221 L1357.6563,127.6221 L1357.6563,129.9346 L1359.0625,129.9346 Q1359.0625,129.3096 1359.1875,129.1377 Q1359.4219,128.7471 1359.875,128.7471 Q1360.2188,128.7471 1360.4375,128.9971 Q1360.6719,129.2471 1360.6719,129.8252 L1360.6719,131.6689 Q1360.6719,132.1846 1360.5469,132.3721 Q1360.2969,132.7314 1359.875,132.7314 Q1359.4219,132.7314 1359.1875,132.3564 Q1359.0625,132.1689 1359.0625,131.5439 L1357.6563,131.5439 Z " fill="#000000"/><text fill="#000000" font-family="Arial" font-size="16" font-weight="bold" lengthAdjust="spacing" textLength="60" x="1378" y="127.6064">«entity»</text><text fill="#000000" font-family="Arial" font-size="16" lengthAdjust="spacing" textLength="71" x="1372.5" y="146.0049">SysAdmin</text><line style="stroke:#181818;stroke-width:0.5;" x1="1344.5" x2="1445.5" y1="154.3955" y2="154.3955"/><line style="stroke:#181818;stroke-width:0.5;" x1="1344.5" x2="1445.5" y1="162.3955" y2="162.3955"/></g><!--class FleetManager--><g id="elem_FleetManager"><rect codeLine="64" fill="#F1F1F1" height="62.7969" id="FleetManager" rx="3.5" ry="3.5" style="stroke:#181818;stroke-width:0.5;" width="129" x="1179.5" y="107.5986"/><ellipse cx="1194.5" cy="130.9971" fill="#ADD1B2" rx="11" ry="11" style="stroke:#181818;stroke-width:1.0;"/><path d="M1193.6563,131.5439 L1193.6563,133.8877 L1197.75,133.8877 L1197.75,133.0283 Q1197.75,132.4502 1197.9688,132.2002 Q1198.1875,131.9502 1198.5469,131.9502 Q1198.9063,131.9502 1199.125,132.2002 Q1199.3438,132.4502 1199.3438,133.0283 L1199.3438,135.4971 L1191.8125,135.4971 Q1191.2344,135.4971 1190.9844,135.2783 Q1190.7344,135.0439 1190.7344,134.6846 Q1190.7344,134.3408 1190.9844,134.1221 Q1191.2344,133.8877 1191.8125,133.8877 L1192.0625,133.8877 L1192.0625,127.6221 L1191.8125,127.6221 Q1191.2344,127.6221 1190.9844,127.4033 Q1190.7344,127.1846 1190.7344,126.8252 Q1190.7344,126.4658 1190.9844,126.2471 Q1191.2344,126.0127 1191.8125,126.0127 L1199,126.0283 L1199,128.4658 Q1199,129.0283 1198.7813,129.2783 Q1198.5625,129.5283 1198.2031,129.5283 Q1197.8438,129.5283 1197.6094,129.2939 Q1197.3906,129.0439 1197.3906,128.4658 L1197.3906,127.6221 L1193.6563,127.6221 L1193.6563,129.9346 L1195.0625,129.9346 Q1195.0625,129.3096 1195.1875,129.1377 Q1195.4219,128.7471 1195.875,128.7471 Q1196.2188,128.7471 1196.4375,128.9971 Q1196.6719,129.2471 1196.6719,129.8252 L1196.6719,131.6689 Q1196.6719,132.1846 1196.5469,132.3721 Q1196.2969,132.7314 1195.875,132.7314 Q1195.4219,132.7314 1195.1875,132.3564 Q1195.0625,132.1689 1195.0625,131.5439 L1193.6563,131.5439 Z " fill="#000000"/><text fill="#000000" font-family="Arial" font-size="16" font-weight="bold" lengthAdjust="spacing" textLength="60" x="1227" y="127.6064">«entity»</text><text fill="#000000" font-family="Arial" font-size="16" lengthAdjust="spacing" textLength="97" x="1208.5" y="146.0049">FleetManager</text><line style="stroke:#181818;stroke-width:0.5;" x1="1180.5" x2="1307.5" y1="154.3955" y2="154.3955"/><line style="stroke:#181818;stroke-width:0.5;" x1="1180.5" x2="1307.5" y1="162.3955" y2="162.3955"/></g><!--class CampusManager--><g id="elem_CampusManager"><rect codeLine="67" fill="#F1F1F1" height="62.7969" id="CampusManager" rx="3.5" ry="3.5" style="stroke:#181818;stroke-width:0.5;" width="153" x="991.5" y="107.5986"/><ellipse cx="1006.5" cy="130.9971" fill="#ADD1B2" rx="11" ry="11" style="stroke:#181818;stroke-width:1.0;"/><path d="M1005.6563,131.5439 L1005.6563,133.8877 L1009.75,133.8877 L1009.75,133.0283 Q1009.75,132.4502 1009.9688,132.2002 Q1010.1875,131.9502 1010.5469,131.9502 Q1010.9063,131.9502 1011.125,132.2002 Q1011.3438,132.4502 1011.3438,133.0283 L1011.3438,135.4971 L1003.8125,135.4971 Q1003.2344,135.4971 1002.9844,135.2783 Q1002.7344,135.0439 1002.7344,134.6846 Q1002.7344,134.3408 1002.9844,134.1221 Q1003.2344,133.8877 1003.8125,133.8877 L1004.0625,133.8877 L1004.0625,127.6221 L1003.8125,127.6221 Q1003.2344,127.6221 1002.9844,127.4033 Q1002.7344,127.1846 1002.7344,126.8252 Q1002.7344,126.4658 1002.9844,126.2471 Q1003.2344,126.0127 1003.8125,126.0127 L1011,126.0283 L1011,128.4658 Q1011,129.0283 1010.7813,129.2783 Q1010.5625,129.5283 1010.2031,129.5283 Q1009.8438,129.5283 1009.6094,129.2939 Q1009.3906,129.0439 1009.3906,128.4658 L1009.3906,127.6221 L1005.6563,127.6221 L1005.6563,129.9346 L1007.0625,129.9346 Q1007.0625,129.3096 1007.1875,129.1377 Q1007.4219,128.7471 1007.875,128.7471 Q1008.2188,128.7471 1008.4375,128.9971 Q1008.6719,129.2471 1008.6719,129.8252 L1008.6719,131.6689 Q1008.6719,132.1846 1008.5469,132.3721 Q1008.2969,132.7314 1007.875,132.7314 Q1007.4219,132.7314 1007.1875,132.3564 Q1007.0625,132.1689 1007.0625,131.5439 L1005.6563,131.5439 Z " fill="#000000"/><text fill="#000000" font-family="Arial" font-size="16" font-weight="bold" lengthAdjust="spacing" textLength="60" x="1051" y="127.6064">«entity»</text><text fill="#000000" font-family="Arial" font-size="16" lengthAdjust="spacing" textLength="121" x="1020.5" y="146.0049">CampusManager</text><line style="stroke:#181818;stroke-width:0.5;" x1="992.5" x2="1143.5" y1="154.3955" y2="154.3955"/><line style="stroke:#181818;stroke-width:0.5;" x1="992.5" x2="1143.5" y1="162.3955" y2="162.3955"/></g><!--class Robot--><g id="elem_Robot"><rect codeLine="75" fill="#F1F1F1" height="81.1953" id="Robot" rx="3.5" ry="3.5" style="stroke:#181818;stroke-width:0.5;" width="88" x="622" y="388.0986"/><ellipse cx="637" cy="420.6963" fill="#ADD1B2" rx="11" ry="11" style="stroke:#181818;stroke-width:1.0;"/><path d="M636.1563,421.2432 L636.1563,423.5869 L640.25,423.5869 L640.25,422.7275 Q640.25,422.1494 640.4688,421.8994 Q640.6875,421.6494 641.0469,421.6494 Q641.4063,421.6494 641.625,421.8994 Q641.8438,422.1494 641.8438,422.7275 L641.8438,425.1963 L634.3125,425.1963 Q633.7344,425.1963 633.4844,424.9775 Q633.2344,424.7432 633.2344,424.3838 Q633.2344,424.04 633.4844,423.8213 Q633.7344,423.5869 634.3125,423.5869 L634.5625,423.5869 L634.5625,417.3213 L634.3125,417.3213 Q633.7344,417.3213 633.4844,417.1025 Q633.2344,416.8838 633.2344,416.5244 Q633.2344,416.165 633.4844,415.9463 Q633.7344,415.7119 634.3125,415.7119 L641.5,415.7275 L641.5,418.165 Q641.5,418.7275 641.2813,418.9775 Q641.0625,419.2275 640.7031,419.2275 Q640.3438,419.2275 640.1094,418.9932 Q639.8906,418.7432 639.8906,418.165 L639.8906,417.3213 L636.1563,417.3213 L636.1563,419.6338 L637.5625,419.6338 Q637.5625,419.0088 637.6875,418.8369 Q637.9219,418.4463 638.375,418.4463 Q638.7188,418.4463 638.9375,418.6963 Q639.1719,418.9463 639.1719,419.5244 L639.1719,421.3682 Q639.1719,421.8838 639.0469,422.0713 Q638.7969,422.4307 638.375,422.4307 Q637.9219,422.4307 637.6875,422.0557 Q637.5625,421.8682 637.5625,421.2432 L636.1563,421.2432 Z " fill="#000000"/><text fill="#000000" font-family="Arial" font-size="16" font-weight="bold" lengthAdjust="spacing" textLength="60" x="649" y="408.1064">«entity»</text><text fill="#000000" font-family="Arial" font-size="16" font-weight="bold" lengthAdjust="spacing" textLength="49" x="654.5" y="426.5049">«root»</text><text fill="#000000" font-family="Arial" font-size="16" lengthAdjust="spacing" textLength="42" x="658" y="444.9033">Robot</text><line style="stroke:#181818;stroke-width:0.5;" x1="623" x2="709" y1="453.2939" y2="453.2939"/><line style="stroke:#181818;stroke-width:0.5;" x1="623" x2="709" y1="461.2939" y2="461.2939"/></g><!--class Drone--><g id="elem_Drone"><rect codeLine="83" fill="#F1F1F1" height="81.1953" id="Drone" rx="3.5" ry="3.5" style="stroke:#181818;stroke-width:0.5;" width="88" x="805" y="388.0986"/><ellipse cx="820" cy="420.6963" fill="#ADD1B2" rx="11" ry="11" style="stroke:#181818;stroke-width:1.0;"/><path d="M819.1563,421.2432 L819.1563,423.5869 L823.25,423.5869 L823.25,422.7275 Q823.25,422.1494 823.4688,421.8994 Q823.6875,421.6494 824.0469,421.6494 Q824.4063,421.6494 824.625,421.8994 Q824.8438,422.1494 824.8438,422.7275 L824.8438,425.1963 L817.3125,425.1963 Q816.7344,425.1963 816.4844,424.9775 Q816.2344,424.7432 816.2344,424.3838 Q816.2344,424.04 816.4844,423.8213 Q816.7344,423.5869 817.3125,423.5869 L817.5625,423.5869 L817.5625,417.3213 L817.3125,417.3213 Q816.7344,417.3213 816.4844,417.1025 Q816.2344,416.8838 816.2344,416.5244 Q816.2344,416.165 816.4844,415.9463 Q816.7344,415.7119 817.3125,415.7119 L824.5,415.7275 L824.5,418.165 Q824.5,418.7275 824.2813,418.9775 Q824.0625,419.2275 823.7031,419.2275 Q823.3438,419.2275 823.1094,418.9932 Q822.8906,418.7432 822.8906,418.165 L822.8906,417.3213 L819.1563,417.3213 L819.1563,419.6338 L820.5625,419.6338 Q820.5625,419.0088 820.6875,418.8369 Q820.9219,418.4463 821.375,418.4463 Q821.7188,418.4463 821.9375,418.6963 Q822.1719,418.9463 822.1719,419.5244 L822.1719,421.3682 Q822.1719,421.8838 822.0469,422.0713 Q821.7969,422.4307 821.375,422.4307 Q820.9219,422.4307 820.6875,422.0557 Q820.5625,421.8682 820.5625,421.2432 L819.1563,421.2432 Z " fill="#000000"/><text fill="#000000" font-family="Arial" font-size="16" font-weight="bold" lengthAdjust="spacing" textLength="60" x="832" y="408.1064">«entity»</text><text fill="#000000" font-family="Arial" font-size="16" font-weight="bold" lengthAdjust="spacing" textLength="49" x="837.5" y="426.5049">«root»</text><text fill="#000000" font-family="Arial" font-size="16" lengthAdjust="spacing" textLength="43" x="840.5" y="444.9033">Drone</text><line style="stroke:#181818;stroke-width:0.5;" x1="806" x2="892" y1="453.2939" y2="453.2939"/><line style="stroke:#181818;stroke-width:0.5;" x1="806" x2="892" y1="461.2939" y2="461.2939"/></g><!--class Task--><g id="elem_Task"><rect codeLine="91" fill="#F1F1F1" height="117.9922" id="Task" rx="3.5" ry="3.5" style="stroke:#181818;stroke-width:0.5;" width="93" x="568.5" y="80.0986"/><ellipse cx="585.75" cy="112.6963" fill="#ADD1B2" rx="11" ry="11" style="stroke:#181818;stroke-width:1.0;"/><path d="M584.9063,113.2432 L584.9063,115.5869 L589,115.5869 L589,114.7275 Q589,114.1494 589.2188,113.8994 Q589.4375,113.6494 589.7969,113.6494 Q590.1563,113.6494 590.375,113.8994 Q590.5938,114.1494 590.5938,114.7275 L590.5938,117.1963 L583.0625,117.1963 Q582.4844,117.1963 582.2344,116.9775 Q581.9844,116.7432 581.9844,116.3838 Q581.9844,116.04 582.2344,115.8213 Q582.4844,115.5869 583.0625,115.5869 L583.3125,115.5869 L583.3125,109.3213 L583.0625,109.3213 Q582.4844,109.3213 582.2344,109.1025 Q581.9844,108.8838 581.9844,108.5244 Q581.9844,108.165 582.2344,107.9463 Q582.4844,107.7119 583.0625,107.7119 L590.25,107.7275 L590.25,110.165 Q590.25,110.7275 590.0313,110.9775 Q589.8125,111.2275 589.4531,111.2275 Q589.0938,111.2275 588.8594,110.9932 Q588.6406,110.7432 588.6406,110.165 L588.6406,109.3213 L584.9063,109.3213 L584.9063,111.6338 L586.3125,111.6338 Q586.3125,111.0088 586.4375,110.8369 Q586.6719,110.4463 587.125,110.4463 Q587.4688,110.4463 587.6875,110.6963 Q587.9219,110.9463 587.9219,111.5244 L587.9219,113.3682 Q587.9219,113.8838 587.7969,114.0713 Q587.5469,114.4307 587.125,114.4307 Q586.6719,114.4307 586.4375,114.0557 Q586.3125,113.8682 586.3125,113.2432 L584.9063,113.2432 Z " fill="#000000"/><text fill="#000000" font-family="Arial" font-size="16" font-weight="bold" lengthAdjust="spacing" textLength="60" x="598.25" y="100.1064">«entity»</text><text fill="#000000" font-family="Arial" font-size="16" font-weight="bold" lengthAdjust="spacing" textLength="49" x="603.75" y="118.5049">«root»</text><text fill="#000000" font-family="Arial" font-size="16" lengthAdjust="spacing" textLength="34" x="611.25" y="136.9033">Task</text><line style="stroke:#181818;stroke-width:0.5;" x1="569.5" x2="660.5" y1="145.2939" y2="145.2939"/><text fill="#000000" font-family="Arial" font-size="16" lengthAdjust="spacing" textLength="29" x="574.5" y="164.3018">type</text><text fill="#000000" font-family="Arial" font-size="16" lengthAdjust="spacing" textLength="81" x="574.5" y="182.7002">designation</text><line style="stroke:#181818;stroke-width:0.5;" x1="569.5" x2="660.5" y1="190.0908" y2="190.0908"/></g><!--link Floor to Building--><g id="link_Floor_Building"><path codeLine="100" d="M344.51,791.2986 C345,839.4986 345.76,913.2886 346.31,966.8786 " fill="none" id="Floor-Building" style="stroke:#454645;stroke-width:2.5;"/><polygon fill="#000000" points="351.0615,879.2975,354.4768,868.4079,347.4237,868.4802,351.0615,879.2975" style="stroke:#000000;stroke-width:1.0;"/><text fill="#000000" font-family="Arial" font-size="16" lengthAdjust="spacing" textLength="93" x="362" y="879.1064">is associated</text><text fill="#000000" font-family="Arial" font-size="16" lengthAdjust="spacing" textLength="6" x="338.2065" y="813.5705">*</text><text fill="#000000" font-family="Arial" font-size="16" lengthAdjust="spacing" textLength="9" x="336.7748" y="955.9235">1</text></g><!--link Elevator to Building--><g id="link_Elevator_Building"><path codeLine="101" d="M186.67,800.4386 C196.95,826.5286 210.5,857.1886 226,883.0986 C247.38,918.8486 276.44,955.3986 300.72,983.5786 " fill="none" id="Elevator-Building" style="stroke:#454645;stroke-width:2.5;"/><polygon fill="#000000" points="235.1717,878.391,232.4277,867.3131,226.4403,871.0417,235.1717,878.391" style="stroke:#000000;stroke-width:1.0;"/><text fill="#000000" font-family="Arial" font-size="16" lengthAdjust="spacing" textLength="93" x="243" y="879.1064">is associated</text><text fill="#000000" font-family="Arial" font-size="16" lengthAdjust="spacing" textLength="9" x="179.4386" y="822.9433">1</text><text fill="#000000" font-family="Arial" font-size="16" lengthAdjust="spacing" textLength="9" x="283.9443" y="971.3199">1</text></g><!--link Room to Floor--><g id="link_Room_Floor"><path codeLine="104" d="M425.13,469.2386 C408.18,525.8086 377.09,629.6186 358.71,690.9786 " fill="none" id="Room-Floor" style="stroke:#454645;stroke-width:2.5;"/><polygon fill="#000000" points="396.2783,594.0455,402.7713,584.6598,396.0144,582.6359,396.2783,594.0455" style="stroke:#000000;stroke-width:1.0;"/><text fill="#000000" font-family="Arial" font-size="16" lengthAdjust="spacing" textLength="33" x="409" y="594.1064">is on</text><text fill="#000000" font-family="Arial" font-size="16" lengthAdjust="spacing" textLength="6" x="416.7601" y="492.174">*</text><text fill="#000000" font-family="Arial" font-size="16" lengthAdjust="spacing" textLength="9" x="351.1458" y="679.7293">1</text></g><!--link Passage to Floor--><g id="link_Passage_Floor"><path codeLine="105" d="M110.55,460.1586 C108.12,496.8686 109.7,558.4486 141,598.0986 C169.02,633.5986 197.05,612.4886 235,637.0986 C258.16,652.1086 280.83,672.3486 299.44,690.9186 " fill="none" id="Passage-Floor" style="stroke:#454645;stroke-width:2.5;"/><polygon fill="#000000" points="150.8005,592.9407,146.6544,582.3078,141.1963,586.7755,150.8005,592.9407" style="stroke:#000000;stroke-width:1.0;"/><text fill="#000000" font-family="Arial" font-size="16" lengthAdjust="spacing" textLength="62" x="158" y="594.1064">connects</text><text fill="#000000" font-family="Arial" font-size="16" lengthAdjust="spacing" textLength="6" x="103.3205" y="482.9555">*</text><text fill="#000000" font-family="Arial" font-size="16" lengthAdjust="spacing" textLength="9" x="283.5409" y="679.6608">1</text></g><!--link Task to Robot--><g id="link_Task_Robot"><path codeLine="108" d="M625.32,198.2786 C635.33,254.7186 650.25,338.8386 658.97,387.9586 " fill="none" id="Task-Robot" style="stroke:#454645;stroke-width:2.5;"/><polygon fill="#000000" points="646.0481,277.2056,647.6246,265.9023,640.6796,267.1344,646.0481,277.2056" style="stroke:#000000;stroke-width:1.0;"/><text fill="#000000" font-family="Arial" font-size="16" lengthAdjust="spacing" textLength="93" x="656" y="277.1064">is associated</text><text fill="#000000" font-family="Arial" font-size="16" lengthAdjust="spacing" textLength="6" x="620.1664" y="221.1932">*</text><text fill="#000000" font-family="Arial" font-size="16" lengthAdjust="spacing" textLength="9" x="648.0603" y="376.7616">1</text></g><!--link Task to Drone--><g id="link_Task_Drone"><path codeLine="109" d="M661.71,172.5886 C691.71,195.0586 730.14,226.9586 758,261.0986 C790.07,300.4086 816.49,352.6786 832.45,388.0886 " fill="none" id="Task-Drone" style="stroke:#454645;stroke-width:2.5;"/><polygon fill="#000000" points="782.726,276.0007,778.7498,265.3031,773.2213,269.6833,782.726,276.0007" style="stroke:#000000;stroke-width:1.0;"/><text fill="#000000" font-family="Arial" font-size="16" lengthAdjust="spacing" textLength="93" x="790" y="277.1064">is associated</text><text fill="#000000" font-family="Arial" font-size="16" lengthAdjust="spacing" textLength="6" x="669.6325" y="194.4007">*</text><text fill="#000000" font-family="Arial" font-size="16" lengthAdjust="spacing" textLength="9" x="819.832" y="376.6044">1</text></g><!--link Task to Building--><g id="link_Task_Building"><path codeLine="110" d="M585.09,198.1186 C576.3,220.0786 569,245.6786 569,270.0986 C569,270.0986 569,270.0986 569,874.0986 C569,959.9686 458.33,1004.3486 393.27,1023.0086 " fill="none" id="Task-Building" style="stroke:#454645;stroke-width:2.5;"/><polygon fill="#000000" points="573.641,594.1419,579.5345,584.3687,572.6644,582.7711,573.641,594.1419" style="stroke:#000000;stroke-width:1.0;"/><text fill="#000000" font-family="Arial" font-size="16" lengthAdjust="spacing" textLength="93" x="586" y="594.1064">is associated</text><text fill="#000000" font-family="Arial" font-size="16" lengthAdjust="spacing" textLength="6" x="575.2848" y="221.0147">*</text><text fill="#000000" font-family="Arial" font-size="16" lengthAdjust="spacing" textLength="9" x="401.0442" y="1016.7876">1</text></g><!--link Task to Floor--><g id="link_Task_Floor"><path codeLine="111" d="M568.39,146.5386 C469.37,161.5186 247,202.6786 247,270.0986 C247,270.0986 247,270.0986 247,589.0986 C247,631.1586 273.97,670.8586 299.47,698.9786 " fill="none" id="Task-Floor" style="stroke:#454645;stroke-width:2.5;"/><polygon fill="#000000" points="250.3739,434.1926,258.2955,425.977,251.9536,422.8898,250.3739,434.1926" style="stroke:#000000;stroke-width:1.0;"/><text fill="#000000" font-family="Arial" font-size="16" lengthAdjust="spacing" textLength="93" x="264" y="434.6064">is associated</text><text fill="#000000" font-family="Arial" font-size="16" lengthAdjust="spacing" textLength="6" x="554.4834" y="143.3302">*</text><text fill="#000000" font-family="Arial" font-size="16" lengthAdjust="spacing" textLength="9" x="282.3494" y="708.5676">1</text></g><!--link Task to Room--><g id="link_Task_Room"><path codeLine="112" d="M568.44,156.0786 C524.33,173.9986 460.68,207.7586 432,261.0986 C410.91,300.3286 417,352.6086 425.21,388.0486 " fill="none" id="Task-Room" style="stroke:#454645;stroke-width:2.5;"/><polygon fill="#000000" points="434.8478,276.4031,443.551,269.0205,437.5494,265.3148,434.8478,276.4031" style="stroke:#000000;stroke-width:1.0;"/><text fill="#000000" font-family="Arial" font-size="16" lengthAdjust="spacing" textLength="93" x="449" y="277.1064">is associated</text><text fill="#000000" font-family="Arial" font-size="16" lengthAdjust="spacing" textLength="6" x="554.5414" y="175.2594">*</text><text fill="#000000" font-family="Arial" font-size="16" lengthAdjust="spacing" textLength="9" x="413.4102" y="376.5575">1</text></g><!--link Task to User--><g id="link_Task_User"><path codeLine="113" d="M661.75,160.0086 C716.97,183.6486 811.51,224.4886 892,261.0986 C1003.38,311.7586 1133.23,374.0086 1199.75,406.1386 " fill="none" id="Task-User" style="stroke:#454645;stroke-width:2.5;"/><polygon fill="#000000" points="945.4561,273.794,937.0531,266.0714,934.1187,272.4855,945.4561,273.794" style="stroke:#000000;stroke-width:1.0;"/><text fill="#000000" font-family="Arial" font-size="16" lengthAdjust="spacing" textLength="106" x="951" y="277.1064">is requested by</text><text fill="#000000" font-family="Arial" font-size="16" lengthAdjust="spacing" textLength="6" x="669.368" y="158.8713">*</text><text fill="#000000" font-family="Arial" font-size="16" lengthAdjust="spacing" textLength="9" x="1182.9805" y="398.1493">1</text></g><!--link NormalUser to User--><g id="link_NormalUser_User"><path codeLine="116" d="M1512.13,170.6186 C1498.07,186.2786 1480.42,205.5086 1464,222.0986 C1411.22,275.4386 1348.44,333.5786 1303.49,374.3686 " fill="none" id="NormalUser-to-User" style="stroke:#454645;stroke-width:2.5;"/><polygon fill="none" points="1307.9,379.8086,1288.37,388.0386,1298.51,369.4286,1307.9,379.8086" style="stroke:#454645;stroke-width:2.5;"/></g><!--link SysAdmin to User--><g id="link_SysAdmin_User"><path codeLine="117" d="M1378.84,170.8686 C1359.49,207.7086 1326.08,271.3086 1297.37,325.9886 " fill="none" id="SysAdmin-to-User" style="stroke:#454645;stroke-width:2.5;"/><polygon fill="none" points="1303.53,329.3086,1288.03,343.7586,1291.14,322.7986,1303.53,329.3086" style="stroke:#454645;stroke-width:2.5;"/></g><!--link FleetManager to User--><g id="link_FleetManager_User"><path codeLine="118" d="M1244,170.8686 C1244,206.7686 1244,268.0686 1244,321.7686 " fill="none" id="FleetManager-to-User" style="stroke:#454645;stroke-width:2.5;"/><polygon fill="none" points="1251,321.9086,1244,341.9086,1237,321.9086,1251,321.9086" style="stroke:#454645;stroke-width:2.5;"/></g><!--link CampusManager to User--><g id="link_CampusManager_User"><path codeLine="119" d="M1094.21,170.7386 C1113.87,194.5086 1140.77,228.7486 1161,261.0986 C1173.38,280.8986 1185.39,302.7886 1196.25,324.0186 " fill="none" id="CampusManager-to-User" style="stroke:#454645;stroke-width:2.5;"/><polygon fill="none" points="1202.57,321.0086,1205.27,342.0286,1190.05,327.2886,1202.57,321.0086" style="stroke:#454645;stroke-width:2.5;"/></g><!--SRC=[dLJ1ZjiW5Bpp5TINbIgbwgxK7YhBKjfjRbrLtUq74FFYe03F1Tp8JVFlnIJ1s4cSLRan33EF1uFT25qpmvJ4SWESSbYnHhe5QlSi_W1zU4_iYK8V-yKdfe3EZM3oydhOVF_nog9h9T0bIfwiput1xSjQb1iDrjA7Tn_86xS6R-Em9SG9v_TmL4negf239AHcvOPLGBCyPrLbe68EYe9-ReJaGbVPZX3g1sY_kOqmpVC3KXHvRX1TKUm2hnkbLuuJxGyP9rmeq5QWjW7Q4xA_Mi5N2R-PGpEgu0HFLi31YaepvvqYjfA8niwbn2tms_QBZfxjKki09RwzdsxK4aoS2hr2ethx_OJF3qGrjEcGMovJYj-PjHuUYXx1WMwlT4tgfuLn_pjeilShOMnusX6HR0I0Vu0opcfVsXODZu112QSBIfoVkfxAaNyyHK9yRksSA__4fsaB2U2-CUtFVKln2rDrOoUuanUyH3TgOi0kTl6stgD13IEzWFsdtWkpcv5S1qtUiMjhk1gsWzkT_mQqXjA5jD_HvV7d88SKPMypEflDQ7QVnK_b4nMM-iU0fV2bSLgG6FQETflkRKBAIOXGQX5CmmRKddXAmmNAiMfxa7E-4oIq8wM6wpktF-E5Qta5x_g9pgZzGQPvNGTUGUlI56W6VZLWEzQo3KTV2p3CbEkM9Bdps_uUVWKIGvPWWqGb-30-oGBv1m00]--></g></svg>