<?xml version="1.0" encoding="UTF-8" standalone="no"?><svg xmlns="http://www.w3.org/2000/svg" xmlns:xlink="http://www.w3.org/1999/xlink" contentStyleType="text/css" height="474px" preserveAspectRatio="none" style="width:577px;height:474px;background:#FFFFFF;" version="1.1" viewBox="0 0 577 474" width="577px" zoomAndPan="magnify"><defs/><g><rect fill="none" height="142.7813" style="stroke:#000000;stroke-width:1.5;" width="392" x="10" y="224.625"/><line style="stroke:#181818;stroke-width:0.5;stroke-dasharray:5.0,5.0;" x1="46" x2="46" y1="90.1563" y2="384.4063"/><line style="stroke:#181818;stroke-width:0.5;stroke-dasharray:5.0,5.0;" x1="308" x2="308" y1="90.1563" y2="384.4063"/><line style="stroke:#181818;stroke-width:0.5;stroke-dasharray:5.0,5.0;" x1="487" x2="487" y1="90.1563" y2="384.4063"/><text fill="#000000" font-family="sans-serif" font-size="20" lengthAdjust="spacing" textLength="47" x="20" y="85.7617">Actor</text><ellipse cx="46.5" cy="13.5" fill="#E2E2F0" rx="8" ry="8" style="stroke:#181818;stroke-width:0.5;"/><path d="M46.5,21.5 L46.5,48.5 M33.5,29.5 L59.5,29.5 M46.5,48.5 L33.5,63.5 M46.5,48.5 L59.5,63.5 " fill="none" style="stroke:#181818;stroke-width:0.5;"/><text fill="#000000" font-family="sans-serif" font-size="20" lengthAdjust="spacing" textLength="47" x="20" y="404.168">Actor</text><ellipse cx="46.5" cy="417.0625" fill="#E2E2F0" rx="8" ry="8" style="stroke:#181818;stroke-width:0.5;"/><path d="M46.5,425.0625 L46.5,452.0625 M33.5,433.0625 L59.5,433.0625 M46.5,452.0625 L33.5,467.0625 M46.5,452.0625 L59.5,467.0625 " fill="none" style="stroke:#181818;stroke-width:0.5;"/><rect fill="#E2E2F0" height="64.3125" rx="2.5" ry="2.5" style="stroke:#181818;stroke-width:0.5;" width="167" x="225" y="24.8438"/><text fill="#000000" font-family="sans-serif" font-size="20" font-style="italic" lengthAdjust="spacing" textLength="153" x="232" y="52.6055">«Container (C4)»</text><text fill="#000000" font-family="sans-serif" font-size="20" lengthAdjust="spacing" textLength="39" x="289" y="77.7617">SPA</text><rect fill="#E2E2F0" height="64.3125" rx="2.5" ry="2.5" style="stroke:#181818;stroke-width:0.5;" width="167" x="225" y="383.4063"/><text fill="#000000" font-family="sans-serif" font-size="20" font-style="italic" lengthAdjust="spacing" textLength="153" x="232" y="411.168">«Container (C4)»</text><text fill="#000000" font-family="sans-serif" font-size="20" lengthAdjust="spacing" textLength="39" x="289" y="436.3242">SPA</text><rect fill="#E2E2F0" height="64.3125" rx="2.5" ry="2.5" style="stroke:#181818;stroke-width:0.5;" width="167" x="404" y="24.8438"/><text fill="#000000" font-family="sans-serif" font-size="20" font-style="italic" lengthAdjust="spacing" textLength="153" x="411" y="52.6055">«Container (C4)»</text><text fill="#000000" font-family="sans-serif" font-size="20" lengthAdjust="spacing" textLength="130" x="422.5" y="77.7617">GestaoInfoAPI</text><rect fill="#E2E2F0" height="64.3125" rx="2.5" ry="2.5" style="stroke:#181818;stroke-width:0.5;" width="167" x="404" y="383.4063"/><text fill="#000000" font-family="sans-serif" font-size="20" font-style="italic" lengthAdjust="spacing" textLength="153" x="411" y="411.168">«Container (C4)»</text><text fill="#000000" font-family="sans-serif" font-size="20" lengthAdjust="spacing" textLength="130" x="422.5" y="436.3242">GestaoInfoAPI</text><polygon fill="#181818" points="296.5,127.3125,306.5,131.3125,296.5,135.3125,300.5,131.3125" style="stroke:#181818;stroke-width:1.0;"/><line style="stroke:#181818;stroke-width:1.0;" x1="46.5" x2="302.5" y1="131.3125" y2="131.3125"/><text fill="#000000" font-family="sans-serif" font-size="20" lengthAdjust="spacing" textLength="203" x="53.5" y="124.918">listar todos os edifícios</text><polygon fill="#181818" points="475.5,166.4688,485.5,170.4688,475.5,174.4688,479.5,170.4688" style="stroke:#181818;stroke-width:1.0;"/><line style="stroke:#181818;stroke-width:1.0;" x1="308.5" x2="481.5" y1="170.4688" y2="170.4688"/><text fill="#000000" font-family="sans-serif" font-size="20" lengthAdjust="spacing" textLength="155" x="315.5" y="164.0742">get(/api/buildings)</text><polygon fill="#181818" points="319.5,205.625,309.5,209.625,319.5,213.625,315.5,209.625" style="stroke:#181818;stroke-width:1.0;"/><line style="stroke:#181818;stroke-width:1.0;stroke-dasharray:2.0,2.0;" x1="313.5" x2="486.5" y1="209.625" y2="209.625"/><text fill="#000000" font-family="sans-serif" font-size="20" lengthAdjust="spacing" textLength="102" x="325.5" y="203.2305">status code</text><path d="M10,224.625 L78,224.625 L78,241.7813 L68,251.7813 L10,251.7813 L10,224.625 " fill="#EEEEEE" style="stroke:#000000;stroke-width:1.5;"/><rect fill="none" height="142.7813" style="stroke:#000000;stroke-width:1.5;" width="392" x="10" y="224.625"/><text fill="#000000" font-family="sans-serif" font-size="20" font-weight="bold" lengthAdjust="spacing" textLength="23" x="25" y="246.3867">alt</text><text fill="#000000" font-family="sans-serif" font-size="20" font-weight="bold" lengthAdjust="spacing" textLength="47" x="93" y="247.3867">[200]</text><polygon fill="#181818" points="57.5,289.0938,47.5,293.0938,57.5,297.0938,53.5,293.0938" style="stroke:#181818;stroke-width:1.0;"/><line style="stroke:#181818;stroke-width:1.0;stroke-dasharray:2.0,2.0;" x1="51.5" x2="307.5" y1="293.0938" y2="293.0938"/><text fill="#000000" font-family="sans-serif" font-size="20" lengthAdjust="spacing" textLength="227" x="63.5" y="286.6992">devolve todos os edifícios</text><line style="stroke:#000000;stroke-width:1.0;stroke-dasharray:2.0,2.0;" x1="10" x2="402" y1="302.0938" y2="302.0938"/><text fill="#000000" font-family="sans-serif" font-size="20" font-weight="bold" lengthAdjust="spacing" textLength="47" x="15" y="322.8555">[400]</text><polygon fill="#181818" points="57.5,355.4063,47.5,359.4063,57.5,363.4063,53.5,359.4063" style="stroke:#181818;stroke-width:1.0;"/><line style="stroke:#181818;stroke-width:1.0;stroke-dasharray:2.0,2.0;" x1="51.5" x2="307.5" y1="359.4063" y2="359.4063"/><text fill="#000000" font-family="sans-serif" font-size="20" lengthAdjust="spacing" textLength="238" x="63.5" y="353.0117">devolve mensagem de erro</text><!--SRC=[XP31QiCm343l_WhHKtie3QEdK0AXiD5ReL-WsKeGTQnWAptid_OL-x4fxI4h56QCBIJUa-novJHYnY6AlrA0G1rEKTybwOM_2Dugvz2hP6Zl9vP7u0nIzZnYKbXTpkrgBXqDGqwKuN1OulLnlscQP-A3YgASKYVj-NHdxNv5kKVVRRF8Qu38XcTG2LB0DWNkVhuzIt6BmHYJrj2JhdSuykvpuXWuzMLZMcktVRQQKgS2NW8vZ6flhnpO-cESbVCyjNtKJUADNev0iH3igmh-nmTA1NiQB06KipXAmVq2]--></g></svg>