<?xml version="1.0" encoding="UTF-8" standalone="no"?><svg xmlns="http://www.w3.org/2000/svg" xmlns:xlink="http://www.w3.org/1999/xlink" contentStyleType="text/css" height="552px" preserveAspectRatio="none" style="width:950px;height:552px;background:#FFFFFF;" version="1.1" viewBox="0 0 950 552" width="950px" zoomAndPan="magnify"><defs/><g><rect fill="none" height="221.0938" style="stroke:#000000;stroke-width:1.5;" width="933" x="10" y="224.625"/><line style="stroke:#181818;stroke-width:0.5;stroke-dasharray:5.0,5.0;" x1="46" x2="46" y1="90.1563" y2="462.7188"/><line style="stroke:#181818;stroke-width:0.5;stroke-dasharray:5.0,5.0;" x1="471" x2="471" y1="90.1563" y2="462.7188"/><line style="stroke:#181818;stroke-width:0.5;stroke-dasharray:5.0,5.0;" x1="849" x2="849" y1="90.1563" y2="462.7188"/><text fill="#000000" font-family="sans-serif" font-size="20" lengthAdjust="spacing" textLength="47" x="20" y="85.7617">Actor</text><ellipse cx="46.5" cy="13.5" fill="#E2E2F0" rx="8" ry="8" style="stroke:#181818;stroke-width:0.5;"/><path d="M46.5,21.5 L46.5,48.5 M33.5,29.5 L59.5,29.5 M46.5,48.5 L33.5,63.5 M46.5,48.5 L59.5,63.5 " fill="none" style="stroke:#181818;stroke-width:0.5;"/><text fill="#000000" font-family="sans-serif" font-size="20" lengthAdjust="spacing" textLength="47" x="20" y="482.4805">Actor</text><ellipse cx="46.5" cy="495.375" fill="#E2E2F0" rx="8" ry="8" style="stroke:#181818;stroke-width:0.5;"/><path d="M46.5,503.375 L46.5,530.375 M33.5,511.375 L59.5,511.375 M46.5,530.375 L33.5,545.375 M46.5,530.375 L59.5,545.375 " fill="none" style="stroke:#181818;stroke-width:0.5;"/><rect fill="#E2E2F0" height="64.3125" rx="2.5" ry="2.5" style="stroke:#181818;stroke-width:0.5;" width="167" x="388" y="24.8438"/><text fill="#000000" font-family="sans-serif" font-size="20" font-style="italic" lengthAdjust="spacing" textLength="153" x="395" y="52.6055">«Container (C4)»</text><text fill="#000000" font-family="sans-serif" font-size="20" lengthAdjust="spacing" textLength="39" x="452" y="77.7617">SPA</text><rect fill="#E2E2F0" height="64.3125" rx="2.5" ry="2.5" style="stroke:#181818;stroke-width:0.5;" width="167" x="388" y="461.7188"/><text fill="#000000" font-family="sans-serif" font-size="20" font-style="italic" lengthAdjust="spacing" textLength="153" x="395" y="489.4805">«Container (C4)»</text><text fill="#000000" font-family="sans-serif" font-size="20" lengthAdjust="spacing" textLength="39" x="452" y="514.6367">SPA</text><rect fill="#E2E2F0" height="64.3125" rx="2.5" ry="2.5" style="stroke:#181818;stroke-width:0.5;" width="167" x="766" y="24.8438"/><text fill="#000000" font-family="sans-serif" font-size="20" font-style="italic" lengthAdjust="spacing" textLength="153" x="773" y="52.6055">«Container (C4)»</text><text fill="#000000" font-family="sans-serif" font-size="20" lengthAdjust="spacing" textLength="32" x="833.5" y="77.7617">API</text><rect fill="#E2E2F0" height="64.3125" rx="2.5" ry="2.5" style="stroke:#181818;stroke-width:0.5;" width="167" x="766" y="461.7188"/><text fill="#000000" font-family="sans-serif" font-size="20" font-style="italic" lengthAdjust="spacing" textLength="153" x="773" y="489.4805">«Container (C4)»</text><text fill="#000000" font-family="sans-serif" font-size="20" lengthAdjust="spacing" textLength="32" x="833.5" y="514.6367">API</text><polygon fill="#181818" points="459.5,127.3125,469.5,131.3125,459.5,135.3125,463.5,131.3125" style="stroke:#181818;stroke-width:1.0;"/><line style="stroke:#181818;stroke-width:1.0;" x1="46.5" x2="465.5" y1="131.3125" y2="131.3125"/><text fill="#000000" font-family="sans-serif" font-size="20" lengthAdjust="spacing" textLength="401" x="53.5" y="124.918">Pretende listar passagens entre dois edifícios</text><polygon fill="#181818" points="57.5,166.4688,47.5,170.4688,57.5,174.4688,53.5,170.4688" style="stroke:#181818;stroke-width:1.0;"/><line style="stroke:#181818;stroke-width:1.0;stroke-dasharray:2.0,2.0;" x1="51.5" x2="470.5" y1="170.4688" y2="170.4688"/><text fill="#000000" font-family="sans-serif" font-size="20" lengthAdjust="spacing" textLength="308" x="63.5" y="164.0742">Requisita o codigo de cada edifício</text><polygon fill="#181818" points="837.5,205.625,847.5,209.625,837.5,213.625,841.5,209.625" style="stroke:#181818;stroke-width:1.0;"/><line style="stroke:#181818;stroke-width:1.0;" x1="471.5" x2="843.5" y1="209.625" y2="209.625"/><text fill="#000000" font-family="sans-serif" font-size="20" lengthAdjust="spacing" textLength="285" x="478.5" y="203.2305">get(/api/passages/:first/:second)</text><path d="M10,224.625 L78,224.625 L78,241.7813 L68,251.7813 L10,251.7813 L10,224.625 " fill="#EEEEEE" style="stroke:#000000;stroke-width:1.5;"/><rect fill="none" height="221.0938" style="stroke:#000000;stroke-width:1.5;" width="933" x="10" y="224.625"/><text fill="#000000" font-family="sans-serif" font-size="20" font-weight="bold" lengthAdjust="spacing" textLength="23" x="25" y="246.3867">alt</text><text fill="#000000" font-family="sans-serif" font-size="20" font-weight="bold" lengthAdjust="spacing" textLength="47" x="93" y="247.3867">[200]</text><polygon fill="#181818" points="482.5,289.0938,472.5,293.0938,482.5,297.0938,478.5,293.0938" style="stroke:#181818;stroke-width:1.0;"/><line style="stroke:#181818;stroke-width:1.0;stroke-dasharray:2.0,2.0;" x1="476.5" x2="848.5" y1="293.0938" y2="293.0938"/><text fill="#000000" font-family="sans-serif" font-size="20" lengthAdjust="spacing" textLength="354" x="488.5" y="286.6992">Devolve as passagens entre os edifícios</text><polygon fill="#181818" points="57.5,328.25,47.5,332.25,57.5,336.25,53.5,332.25" style="stroke:#181818;stroke-width:1.0;"/><line style="stroke:#181818;stroke-width:1.0;stroke-dasharray:2.0,2.0;" x1="51.5" x2="470.5" y1="332.25" y2="332.25"/><text fill="#000000" font-family="sans-serif" font-size="20" lengthAdjust="spacing" textLength="354" x="63.5" y="325.8555">Devolve as passagens entre os edifícios</text><line style="stroke:#000000;stroke-width:1.0;stroke-dasharray:2.0,2.0;" x1="10" x2="943" y1="341.25" y2="341.25"/><text fill="#000000" font-family="sans-serif" font-size="20" font-weight="bold" lengthAdjust="spacing" textLength="47" x="15" y="362.0117">[400]</text><polygon fill="#181818" points="482.5,394.5625,472.5,398.5625,482.5,402.5625,478.5,398.5625" style="stroke:#181818;stroke-width:1.0;"/><line style="stroke:#181818;stroke-width:1.0;stroke-dasharray:2.0,2.0;" x1="476.5" x2="848.5" y1="398.5625" y2="398.5625"/><text fill="#000000" font-family="sans-serif" font-size="20" lengthAdjust="spacing" textLength="241" x="488.5" y="392.168">Devolve mensagem de erro</text><polygon fill="#181818" points="57.5,433.7188,47.5,437.7188,57.5,441.7188,53.5,437.7188" style="stroke:#181818;stroke-width:1.0;"/><line style="stroke:#181818;stroke-width:1.0;stroke-dasharray:2.0,2.0;" x1="51.5" x2="470.5" y1="437.7188" y2="437.7188"/><text fill="#000000" font-family="sans-serif" font-size="20" lengthAdjust="spacing" textLength="241" x="63.5" y="431.3242">Devolve mensagem de erro</text><!--SRC=[ZP51QiCm44NtEiMGLR8m3YKh4mmcfT2TQKumIECmnDQuqYIBtgcdwCKgEGNZDf1g8NsGtfy_etXcFsB0eHTx9WUEEhpq-Y9UZ_n1yBGr1grAW6RQCTw4IP2ovH6zmkhODgjyTKWOigS0-_siruVTfgwNHDE-JaGwxxqrjsf5FLjMq0PIyewWvwWOOCGOyKG-0daD14uuISVTrwTbYSRCjaLocYmhUAFt2qTM104hZa-IcWQB3cTsWTOvP0KdqdM98vS_PMDPTHoYbbKaAzvjqg1wJGFR6aWhDrOiyp_JLVehvRP_HvT5yCpVpVvl1-eZmUvnb24P99SXZu12aCUb_n3fHymt]--></g></svg>