<?xml version="1.0" encoding="UTF-8" standalone="no"?><svg xmlns="http://www.w3.org/2000/svg" xmlns:xlink="http://www.w3.org/1999/xlink" contentStyleType="text/css" height="552px" preserveAspectRatio="none" style="width:674px;height:552px;background:#FFFFFF;" version="1.1" viewBox="0 0 674 552" width="674px" zoomAndPan="magnify"><defs/><g><rect fill="none" height="142.7813" style="stroke:#000000;stroke-width:1.5;" width="482.5" x="10" y="302.9375"/><line style="stroke:#181818;stroke-width:0.5;stroke-dasharray:5.0,5.0;" x1="91" x2="91" y1="90.1563" y2="462.7188"/><line style="stroke:#181818;stroke-width:0.5;stroke-dasharray:5.0,5.0;" x1="398.5" x2="398.5" y1="90.1563" y2="462.7188"/><line style="stroke:#181818;stroke-width:0.5;stroke-dasharray:5.0,5.0;" x1="584.5" x2="584.5" y1="90.1563" y2="462.7188"/><text fill="#000000" font-family="sans-serif" font-size="20" lengthAdjust="spacing" textLength="136" x="20" y="85.7617">Gestor de frota</text><ellipse cx="91" cy="13.5" fill="#E2E2F0" rx="8" ry="8" style="stroke:#181818;stroke-width:0.5;"/><path d="M91,21.5 L91,48.5 M78,29.5 L104,29.5 M91,48.5 L78,63.5 M91,48.5 L104,63.5 " fill="none" style="stroke:#181818;stroke-width:0.5;"/><text fill="#000000" font-family="sans-serif" font-size="20" lengthAdjust="spacing" textLength="136" x="20" y="482.4805">Gestor de frota</text><ellipse cx="91" cy="495.375" fill="#E2E2F0" rx="8" ry="8" style="stroke:#181818;stroke-width:0.5;"/><path d="M91,503.375 L91,530.375 M78,511.375 L104,511.375 M91,530.375 L78,545.375 M91,530.375 L104,545.375 " fill="none" style="stroke:#181818;stroke-width:0.5;"/><rect fill="#E2E2F0" height="64.3125" rx="2.5" ry="2.5" style="stroke:#181818;stroke-width:0.5;" width="167" x="315.5" y="24.8438"/><text fill="#000000" font-family="sans-serif" font-size="20" font-style="italic" lengthAdjust="spacing" textLength="153" x="322.5" y="52.6055">«Container (C4)»</text><text fill="#000000" font-family="sans-serif" font-size="20" lengthAdjust="spacing" textLength="39" x="379.5" y="77.7617">SPA</text><rect fill="#E2E2F0" height="64.3125" rx="2.5" ry="2.5" style="stroke:#181818;stroke-width:0.5;" width="167" x="315.5" y="461.7188"/><text fill="#000000" font-family="sans-serif" font-size="20" font-style="italic" lengthAdjust="spacing" textLength="153" x="322.5" y="489.4805">«Container (C4)»</text><text fill="#000000" font-family="sans-serif" font-size="20" lengthAdjust="spacing" textLength="39" x="379.5" y="514.6367">SPA</text><rect fill="#E2E2F0" height="64.3125" rx="2.5" ry="2.5" style="stroke:#181818;stroke-width:0.5;" width="167" x="501.5" y="24.8438"/><text fill="#000000" font-family="sans-serif" font-size="20" font-style="italic" lengthAdjust="spacing" textLength="153" x="508.5" y="52.6055">«Container (C4)»</text><text fill="#000000" font-family="sans-serif" font-size="20" lengthAdjust="spacing" textLength="130" x="520" y="77.7617">GestaoInfoAPI</text><rect fill="#E2E2F0" height="64.3125" rx="2.5" ry="2.5" style="stroke:#181818;stroke-width:0.5;" width="167" x="501.5" y="461.7188"/><text fill="#000000" font-family="sans-serif" font-size="20" font-style="italic" lengthAdjust="spacing" textLength="153" x="508.5" y="489.4805">«Container (C4)»</text><text fill="#000000" font-family="sans-serif" font-size="20" lengthAdjust="spacing" textLength="130" x="520" y="514.6367">GestaoInfoAPI</text><polygon fill="#181818" points="387,127.3125,397,131.3125,387,135.3125,391,131.3125" style="stroke:#181818;stroke-width:1.0;"/><line style="stroke:#181818;stroke-width:1.0;" x1="91" x2="393" y1="131.3125" y2="131.3125"/><text fill="#000000" font-family="sans-serif" font-size="20" lengthAdjust="spacing" textLength="124" x="98" y="124.918">inibir um robot</text><polygon fill="#181818" points="102,166.4688,92,170.4688,102,174.4688,98,170.4688" style="stroke:#181818;stroke-width:1.0;"/><line style="stroke:#181818;stroke-width:1.0;stroke-dasharray:2.0,2.0;" x1="96" x2="398" y1="170.4688" y2="170.4688"/><text fill="#000000" font-family="sans-serif" font-size="20" lengthAdjust="spacing" textLength="284" x="108" y="164.0742">requisita que selecione um robot</text><polygon fill="#181818" points="387,205.625,397,209.625,387,213.625,391,209.625" style="stroke:#181818;stroke-width:1.0;"/><line style="stroke:#181818;stroke-width:1.0;stroke-dasharray:2.0,2.0;" x1="91" x2="393" y1="209.625" y2="209.625"/><text fill="#000000" font-family="sans-serif" font-size="20" lengthAdjust="spacing" textLength="151" x="98" y="203.2305">seleciona o robot</text><polygon fill="#181818" points="573,244.7813,583,248.7813,573,252.7813,577,248.7813" style="stroke:#181818;stroke-width:1.0;"/><line style="stroke:#181818;stroke-width:1.0;" x1="399" x2="579" y1="248.7813" y2="248.7813"/><text fill="#000000" font-family="sans-serif" font-size="20" lengthAdjust="spacing" textLength="162" x="406" y="242.3867">patch(/api/robots/)</text><polygon fill="#181818" points="410,283.9375,400,287.9375,410,291.9375,406,287.9375" style="stroke:#181818;stroke-width:1.0;"/><line style="stroke:#181818;stroke-width:1.0;stroke-dasharray:2.0,2.0;" x1="404" x2="584" y1="287.9375" y2="287.9375"/><text fill="#000000" font-family="sans-serif" font-size="20" lengthAdjust="spacing" textLength="102" x="416" y="281.543">status code</text><path d="M10,302.9375 L78,302.9375 L78,320.0938 L68,330.0938 L10,330.0938 L10,302.9375 " fill="#EEEEEE" style="stroke:#000000;stroke-width:1.5;"/><rect fill="none" height="142.7813" style="stroke:#000000;stroke-width:1.5;" width="482.5" x="10" y="302.9375"/><text fill="#000000" font-family="sans-serif" font-size="20" font-weight="bold" lengthAdjust="spacing" textLength="23" x="25" y="324.6992">alt</text><text fill="#000000" font-family="sans-serif" font-size="20" font-weight="bold" lengthAdjust="spacing" textLength="226" x="93" y="325.6992">[sucesso na requisição]</text><polygon fill="#181818" points="102,367.4063,92,371.4063,102,375.4063,98,371.4063" style="stroke:#181818;stroke-width:1.0;"/><line style="stroke:#181818;stroke-width:1.0;stroke-dasharray:2.0,2.0;" x1="96" x2="398" y1="371.4063" y2="371.4063"/><text fill="#000000" font-family="sans-serif" font-size="20" lengthAdjust="spacing" textLength="265" x="108" y="365.0117">devolve o edifício robot inibido</text><line style="stroke:#000000;stroke-width:1.0;stroke-dasharray:2.0,2.0;" x1="10" x2="492.5" y1="380.4063" y2="380.4063"/><text fill="#000000" font-family="sans-serif" font-size="20" font-weight="bold" lengthAdjust="spacing" textLength="193" x="15" y="401.168">[falha na requisição]</text><polygon fill="#181818" points="102,433.7188,92,437.7188,102,441.7188,98,437.7188" style="stroke:#181818;stroke-width:1.0;"/><line style="stroke:#181818;stroke-width:1.0;stroke-dasharray:2.0,2.0;" x1="96" x2="398" y1="437.7188" y2="437.7188"/><text fill="#000000" font-family="sans-serif" font-size="20" lengthAdjust="spacing" textLength="238" x="108" y="431.3242">devolve mensagem de erro</text><!--SRC=[bP6nQiCm48PtFSNXAHc2I-baWi44Kh85yWGNwTmSaNME96VewtJerAVmYrMsKqpQBDKYmVt_T__fmfbTYnuRA_fC1WpLsDcu5HSF_4xm_AGKwYWUibSAmsq8QYyHCy00rL1I2H1PSuikGdROLsDfan38ZZoir_DxiNbPbkMzOm2Zx5mjrNutOVUxHourjeDLESCBOCT7zj0ruEKeKSskLHAEZWB0qwNZm17XqX44igHP7Css6_gU_QD3aB_qSeXPG8jHdnOvjfoFaf0lKz0qm6zMnDW5q698eOqGEaqX22JuBLp_sN-8WdGUpc3eAlPAAGePhlkl56mADNs14KKsfEMWFU7_gGsvW6_K3FibxnFC6VKD]--></g></svg>