<?xml version="1.0" encoding="UTF-8" standalone="no"?><svg xmlns="http://www.w3.org/2000/svg" xmlns:xlink="http://www.w3.org/1999/xlink" contentStyleType="text/css" height="643px" preserveAspectRatio="none" style="width:898px;height:643px;background:#FFFFFF;" version="1.1" viewBox="0 0 898 643" width="898px" zoomAndPan="magnify"><defs/><g><rect fill="none" height="221.0938" style="stroke:#000000;stroke-width:1.5;" width="881" x="10" y="315.9375"/><line style="stroke:#181818;stroke-width:0.5;stroke-dasharray:5.0,5.0;" x1="46" x2="46" y1="90.1563" y2="554.0313"/><line style="stroke:#181818;stroke-width:0.5;stroke-dasharray:5.0,5.0;" x1="461" x2="461" y1="90.1563" y2="554.0313"/><line style="stroke:#181818;stroke-width:0.5;stroke-dasharray:5.0,5.0;" x1="797" x2="797" y1="90.1563" y2="554.0313"/><text fill="#000000" font-family="sans-serif" font-size="20" lengthAdjust="spacing" textLength="47" x="20" y="85.7617">Actor</text><ellipse cx="46.5" cy="13.5" fill="#E2E2F0" rx="8" ry="8" style="stroke:#181818;stroke-width:0.5;"/><path d="M46.5,21.5 L46.5,48.5 M33.5,29.5 L59.5,29.5 M46.5,48.5 L33.5,63.5 M46.5,48.5 L59.5,63.5 " fill="none" style="stroke:#181818;stroke-width:0.5;"/><text fill="#000000" font-family="sans-serif" font-size="20" lengthAdjust="spacing" textLength="47" x="20" y="573.793">Actor</text><ellipse cx="46.5" cy="586.6875" fill="#E2E2F0" rx="8" ry="8" style="stroke:#181818;stroke-width:0.5;"/><path d="M46.5,594.6875 L46.5,621.6875 M33.5,602.6875 L59.5,602.6875 M46.5,621.6875 L33.5,636.6875 M46.5,621.6875 L59.5,636.6875 " fill="none" style="stroke:#181818;stroke-width:0.5;"/><rect fill="#E2E2F0" height="64.3125" rx="2.5" ry="2.5" style="stroke:#181818;stroke-width:0.5;" width="167" x="378" y="24.8438"/><text fill="#000000" font-family="sans-serif" font-size="20" font-style="italic" lengthAdjust="spacing" textLength="153" x="385" y="52.6055">«Container (C4)»</text><text fill="#000000" font-family="sans-serif" font-size="20" lengthAdjust="spacing" textLength="39" x="442" y="77.7617">SPA</text><rect fill="#E2E2F0" height="64.3125" rx="2.5" ry="2.5" style="stroke:#181818;stroke-width:0.5;" width="167" x="378" y="553.0313"/><text fill="#000000" font-family="sans-serif" font-size="20" font-style="italic" lengthAdjust="spacing" textLength="153" x="385" y="580.793">«Container (C4)»</text><text fill="#000000" font-family="sans-serif" font-size="20" lengthAdjust="spacing" textLength="39" x="442" y="605.9492">SPA</text><rect fill="#E2E2F0" height="64.3125" rx="2.5" ry="2.5" style="stroke:#181818;stroke-width:0.5;" width="167" x="714" y="24.8438"/><text fill="#000000" font-family="sans-serif" font-size="20" font-style="italic" lengthAdjust="spacing" textLength="153" x="721" y="52.6055">«Container (C4)»</text><text fill="#000000" font-family="sans-serif" font-size="20" lengthAdjust="spacing" textLength="130" x="732.5" y="77.7617">GestaoInfoAPI</text><rect fill="#E2E2F0" height="64.3125" rx="2.5" ry="2.5" style="stroke:#181818;stroke-width:0.5;" width="167" x="714" y="553.0313"/><text fill="#000000" font-family="sans-serif" font-size="20" font-style="italic" lengthAdjust="spacing" textLength="153" x="721" y="580.793">«Container (C4)»</text><text fill="#000000" font-family="sans-serif" font-size="20" lengthAdjust="spacing" textLength="130" x="732.5" y="605.9492">GestaoInfoAPI</text><polygon fill="#181818" points="449.5,127.3125,459.5,131.3125,449.5,135.3125,453.5,131.3125" style="stroke:#181818;stroke-width:1.0;"/><line style="stroke:#181818;stroke-width:1.0;" x1="46.5" x2="455.5" y1="131.3125" y2="131.3125"/><text fill="#000000" font-family="sans-serif" font-size="20" lengthAdjust="spacing" textLength="391" x="53.5" y="124.918">Pretende listar todos os pisos de um edifício</text><polygon fill="#181818" points="57.5,166.4688,47.5,170.4688,57.5,174.4688,53.5,170.4688" style="stroke:#181818;stroke-width:1.0;"/><line style="stroke:#181818;stroke-width:1.0;stroke-dasharray:2.0,2.0;" x1="51.5" x2="460.5" y1="170.4688" y2="170.4688"/><text fill="#000000" font-family="sans-serif" font-size="20" lengthAdjust="spacing" textLength="216" x="63.5" y="164.0742">Requisita o id do edifício</text><polygon fill="#181818" points="449.5,205.625,459.5,209.625,449.5,213.625,453.5,209.625" style="stroke:#181818;stroke-width:1.0;"/><line style="stroke:#181818;stroke-width:1.0;" x1="46.5" x2="455.5" y1="209.625" y2="209.625"/><text fill="#000000" font-family="sans-serif" font-size="20" lengthAdjust="spacing" textLength="182" x="53.5" y="203.2305">Envia o id do edifício</text><line style="stroke:#181818;stroke-width:1.0;" x1="461.5" x2="503.5" y1="248.7813" y2="248.7813"/><line style="stroke:#181818;stroke-width:1.0;" x1="503.5" x2="503.5" y1="248.7813" y2="261.7813"/><line style="stroke:#181818;stroke-width:1.0;" x1="462.5" x2="503.5" y1="261.7813" y2="261.7813"/><polygon fill="#181818" points="472.5,257.7813,462.5,261.7813,472.5,265.7813,468.5,261.7813" style="stroke:#181818;stroke-width:1.0;"/><text fill="#000000" font-family="sans-serif" font-size="20" lengthAdjust="spacing" textLength="189" x="468.5" y="242.3867">Valida o id do edifício</text><polygon fill="#181818" points="785.5,296.9375,795.5,300.9375,785.5,304.9375,789.5,300.9375" style="stroke:#181818;stroke-width:1.0;"/><line style="stroke:#181818;stroke-width:1.0;" x1="461.5" x2="791.5" y1="300.9375" y2="300.9375"/><text fill="#000000" font-family="sans-serif" font-size="20" lengthAdjust="spacing" textLength="312" x="468.5" y="294.543">Requisita todos os pisos do edifício</text><path d="M10,315.9375 L78,315.9375 L78,333.0938 L68,343.0938 L10,343.0938 L10,315.9375 " fill="#EEEEEE" style="stroke:#000000;stroke-width:1.5;"/><rect fill="none" height="221.0938" style="stroke:#000000;stroke-width:1.5;" width="881" x="10" y="315.9375"/><text fill="#000000" font-family="sans-serif" font-size="20" font-weight="bold" lengthAdjust="spacing" textLength="23" x="25" y="337.6992">alt</text><text fill="#000000" font-family="sans-serif" font-size="20" font-weight="bold" lengthAdjust="spacing" textLength="373" x="93" y="338.6992">[sucesso na obtenção do id do edifício]</text><polygon fill="#181818" points="472.5,380.4063,462.5,384.4063,472.5,388.4063,468.5,384.4063" style="stroke:#181818;stroke-width:1.0;"/><line style="stroke:#181818;stroke-width:1.0;stroke-dasharray:2.0,2.0;" x1="466.5" x2="796.5" y1="384.4063" y2="384.4063"/><text fill="#000000" font-family="sans-serif" font-size="20" lengthAdjust="spacing" textLength="301" x="478.5" y="378.0117">Retorna todos os pisos do edifício</text><polygon fill="#181818" points="57.5,419.5625,47.5,423.5625,57.5,427.5625,53.5,423.5625" style="stroke:#181818;stroke-width:1.0;"/><line style="stroke:#181818;stroke-width:1.0;stroke-dasharray:2.0,2.0;" x1="51.5" x2="460.5" y1="423.5625" y2="423.5625"/><text fill="#000000" font-family="sans-serif" font-size="20" lengthAdjust="spacing" textLength="301" x="63.5" y="417.168">Retorna todos os pisos do edifício</text><line style="stroke:#000000;stroke-width:1.0;stroke-dasharray:2.0,2.0;" x1="10" x2="891" y1="432.5625" y2="432.5625"/><text fill="#000000" font-family="sans-serif" font-size="20" font-weight="bold" lengthAdjust="spacing" textLength="214" x="15" y="453.3242">[id do edifício inválido]</text><polygon fill="#181818" points="472.5,485.875,462.5,489.875,472.5,493.875,468.5,489.875" style="stroke:#181818;stroke-width:1.0;"/><line style="stroke:#181818;stroke-width:1.0;stroke-dasharray:2.0,2.0;" x1="466.5" x2="796.5" y1="489.875" y2="489.875"/><text fill="#000000" font-family="sans-serif" font-size="20" lengthAdjust="spacing" textLength="112" x="478.5" y="483.4805">Retorna erro</text><polygon fill="#181818" points="57.5,525.0313,47.5,529.0313,57.5,533.0313,53.5,529.0313" style="stroke:#181818;stroke-width:1.0;"/><line style="stroke:#181818;stroke-width:1.0;stroke-dasharray:2.0,2.0;" x1="51.5" x2="460.5" y1="529.0313" y2="529.0313"/><text fill="#000000" font-family="sans-serif" font-size="20" lengthAdjust="spacing" textLength="112" x="63.5" y="522.6367">Retorna erro</text><!--SRC=[ZPAnQiCm48PtFSMHgHqCfNGAmM12KxAP1BghrXcEA3fNaZFqRKg7JdqAlrZFpc3BcAR2o0BTz___7GedSets-covEg41WxLkRTonYqVwG7XyK4fNaJqKmwx3zQ04YbHHers4rR4iLltLLZ1D3ZriDkFvRljqd-SfyO8XQjwxcejoFx3oNwBKrJVBH_4rb1uZEeDWIMGyH3OSGBw6WknoqPu13TNTJqMiHj5CT0R1DHpmlQL0KGC3IUCy0HPDdzs5beedwadzgxPabW2GbK3I-ZJFl9iacROHGbjX20nErDza4DrtzyLztP9JFzSiJNP0wSxzRJGBEPtRRHXjm7aO87VfFcKaDsEXz__m7wha4QXV]--></g></svg>